G04 #@! TF.GenerationSoftware,KiCad,Pcbnew,5.0.2+dfsg1-1*
G04 #@! TF.CreationDate,2019-01-13T01:33:18+00:00*
G04 #@! TF.ProjectId,led_matrix_v1,6c65645f-6d61-4747-9269-785f76312e6b,rev?*
G04 #@! TF.SameCoordinates,Original*
G04 #@! TF.FileFunction,Paste,Top*
G04 #@! TF.FilePolarity,Positive*
%FSLAX46Y46*%
G04 Gerber Fmt 4.6, Leading zero omitted, Abs format (unit mm)*
G04 Created by KiCad (PCBNEW 5.0.2+dfsg1-1) date Sun 13 Jan 2019 01:33:18 GMT*
%MOMM*%
%LPD*%
G01*
G04 APERTURE LIST*
%ADD10R,1.500000X0.600000*%
%ADD11C,0.100000*%
%ADD12C,0.975000*%
%ADD13R,0.600000X2.000000*%
G04 APERTURE END LIST*
D10*
G04 #@! TO.C,4022*
X125615000Y-85852000D03*
X125615000Y-87122000D03*
X125615000Y-88392000D03*
X125615000Y-89662000D03*
X125615000Y-90932000D03*
X125615000Y-92202000D03*
X125615000Y-93472000D03*
X125615000Y-94742000D03*
X132715000Y-94742000D03*
X132715000Y-93472000D03*
X132715000Y-92202000D03*
X132715000Y-90932000D03*
X132715000Y-89662000D03*
X132715000Y-88392000D03*
X132715000Y-87122000D03*
X132715000Y-85852000D03*
G04 #@! TD*
D11*
G04 #@! TO.C,C1*
G36*
X122654142Y-87192174D02*
X122677803Y-87195684D01*
X122701007Y-87201496D01*
X122723529Y-87209554D01*
X122745153Y-87219782D01*
X122765670Y-87232079D01*
X122784883Y-87246329D01*
X122802607Y-87262393D01*
X122818671Y-87280117D01*
X122832921Y-87299330D01*
X122845218Y-87319847D01*
X122855446Y-87341471D01*
X122863504Y-87363993D01*
X122869316Y-87387197D01*
X122872826Y-87410858D01*
X122874000Y-87434750D01*
X122874000Y-87922250D01*
X122872826Y-87946142D01*
X122869316Y-87969803D01*
X122863504Y-87993007D01*
X122855446Y-88015529D01*
X122845218Y-88037153D01*
X122832921Y-88057670D01*
X122818671Y-88076883D01*
X122802607Y-88094607D01*
X122784883Y-88110671D01*
X122765670Y-88124921D01*
X122745153Y-88137218D01*
X122723529Y-88147446D01*
X122701007Y-88155504D01*
X122677803Y-88161316D01*
X122654142Y-88164826D01*
X122630250Y-88166000D01*
X121717750Y-88166000D01*
X121693858Y-88164826D01*
X121670197Y-88161316D01*
X121646993Y-88155504D01*
X121624471Y-88147446D01*
X121602847Y-88137218D01*
X121582330Y-88124921D01*
X121563117Y-88110671D01*
X121545393Y-88094607D01*
X121529329Y-88076883D01*
X121515079Y-88057670D01*
X121502782Y-88037153D01*
X121492554Y-88015529D01*
X121484496Y-87993007D01*
X121478684Y-87969803D01*
X121475174Y-87946142D01*
X121474000Y-87922250D01*
X121474000Y-87434750D01*
X121475174Y-87410858D01*
X121478684Y-87387197D01*
X121484496Y-87363993D01*
X121492554Y-87341471D01*
X121502782Y-87319847D01*
X121515079Y-87299330D01*
X121529329Y-87280117D01*
X121545393Y-87262393D01*
X121563117Y-87246329D01*
X121582330Y-87232079D01*
X121602847Y-87219782D01*
X121624471Y-87209554D01*
X121646993Y-87201496D01*
X121670197Y-87195684D01*
X121693858Y-87192174D01*
X121717750Y-87191000D01*
X122630250Y-87191000D01*
X122654142Y-87192174D01*
X122654142Y-87192174D01*
G37*
D12*
X122174000Y-87678500D03*
D11*
G36*
X122654142Y-85317174D02*
X122677803Y-85320684D01*
X122701007Y-85326496D01*
X122723529Y-85334554D01*
X122745153Y-85344782D01*
X122765670Y-85357079D01*
X122784883Y-85371329D01*
X122802607Y-85387393D01*
X122818671Y-85405117D01*
X122832921Y-85424330D01*
X122845218Y-85444847D01*
X122855446Y-85466471D01*
X122863504Y-85488993D01*
X122869316Y-85512197D01*
X122872826Y-85535858D01*
X122874000Y-85559750D01*
X122874000Y-86047250D01*
X122872826Y-86071142D01*
X122869316Y-86094803D01*
X122863504Y-86118007D01*
X122855446Y-86140529D01*
X122845218Y-86162153D01*
X122832921Y-86182670D01*
X122818671Y-86201883D01*
X122802607Y-86219607D01*
X122784883Y-86235671D01*
X122765670Y-86249921D01*
X122745153Y-86262218D01*
X122723529Y-86272446D01*
X122701007Y-86280504D01*
X122677803Y-86286316D01*
X122654142Y-86289826D01*
X122630250Y-86291000D01*
X121717750Y-86291000D01*
X121693858Y-86289826D01*
X121670197Y-86286316D01*
X121646993Y-86280504D01*
X121624471Y-86272446D01*
X121602847Y-86262218D01*
X121582330Y-86249921D01*
X121563117Y-86235671D01*
X121545393Y-86219607D01*
X121529329Y-86201883D01*
X121515079Y-86182670D01*
X121502782Y-86162153D01*
X121492554Y-86140529D01*
X121484496Y-86118007D01*
X121478684Y-86094803D01*
X121475174Y-86071142D01*
X121474000Y-86047250D01*
X121474000Y-85559750D01*
X121475174Y-85535858D01*
X121478684Y-85512197D01*
X121484496Y-85488993D01*
X121492554Y-85466471D01*
X121502782Y-85444847D01*
X121515079Y-85424330D01*
X121529329Y-85405117D01*
X121545393Y-85387393D01*
X121563117Y-85371329D01*
X121582330Y-85357079D01*
X121602847Y-85344782D01*
X121624471Y-85334554D01*
X121646993Y-85326496D01*
X121670197Y-85320684D01*
X121693858Y-85317174D01*
X121717750Y-85316000D01*
X122630250Y-85316000D01*
X122654142Y-85317174D01*
X122654142Y-85317174D01*
G37*
D12*
X122174000Y-85803500D03*
G04 #@! TD*
D11*
G04 #@! TO.C,C4*
G36*
X119860142Y-107814674D02*
X119883803Y-107818184D01*
X119907007Y-107823996D01*
X119929529Y-107832054D01*
X119951153Y-107842282D01*
X119971670Y-107854579D01*
X119990883Y-107868829D01*
X120008607Y-107884893D01*
X120024671Y-107902617D01*
X120038921Y-107921830D01*
X120051218Y-107942347D01*
X120061446Y-107963971D01*
X120069504Y-107986493D01*
X120075316Y-108009697D01*
X120078826Y-108033358D01*
X120080000Y-108057250D01*
X120080000Y-108544750D01*
X120078826Y-108568642D01*
X120075316Y-108592303D01*
X120069504Y-108615507D01*
X120061446Y-108638029D01*
X120051218Y-108659653D01*
X120038921Y-108680170D01*
X120024671Y-108699383D01*
X120008607Y-108717107D01*
X119990883Y-108733171D01*
X119971670Y-108747421D01*
X119951153Y-108759718D01*
X119929529Y-108769946D01*
X119907007Y-108778004D01*
X119883803Y-108783816D01*
X119860142Y-108787326D01*
X119836250Y-108788500D01*
X118923750Y-108788500D01*
X118899858Y-108787326D01*
X118876197Y-108783816D01*
X118852993Y-108778004D01*
X118830471Y-108769946D01*
X118808847Y-108759718D01*
X118788330Y-108747421D01*
X118769117Y-108733171D01*
X118751393Y-108717107D01*
X118735329Y-108699383D01*
X118721079Y-108680170D01*
X118708782Y-108659653D01*
X118698554Y-108638029D01*
X118690496Y-108615507D01*
X118684684Y-108592303D01*
X118681174Y-108568642D01*
X118680000Y-108544750D01*
X118680000Y-108057250D01*
X118681174Y-108033358D01*
X118684684Y-108009697D01*
X118690496Y-107986493D01*
X118698554Y-107963971D01*
X118708782Y-107942347D01*
X118721079Y-107921830D01*
X118735329Y-107902617D01*
X118751393Y-107884893D01*
X118769117Y-107868829D01*
X118788330Y-107854579D01*
X118808847Y-107842282D01*
X118830471Y-107832054D01*
X118852993Y-107823996D01*
X118876197Y-107818184D01*
X118899858Y-107814674D01*
X118923750Y-107813500D01*
X119836250Y-107813500D01*
X119860142Y-107814674D01*
X119860142Y-107814674D01*
G37*
D12*
X119380000Y-108301000D03*
D11*
G36*
X119860142Y-105939674D02*
X119883803Y-105943184D01*
X119907007Y-105948996D01*
X119929529Y-105957054D01*
X119951153Y-105967282D01*
X119971670Y-105979579D01*
X119990883Y-105993829D01*
X120008607Y-106009893D01*
X120024671Y-106027617D01*
X120038921Y-106046830D01*
X120051218Y-106067347D01*
X120061446Y-106088971D01*
X120069504Y-106111493D01*
X120075316Y-106134697D01*
X120078826Y-106158358D01*
X120080000Y-106182250D01*
X120080000Y-106669750D01*
X120078826Y-106693642D01*
X120075316Y-106717303D01*
X120069504Y-106740507D01*
X120061446Y-106763029D01*
X120051218Y-106784653D01*
X120038921Y-106805170D01*
X120024671Y-106824383D01*
X120008607Y-106842107D01*
X119990883Y-106858171D01*
X119971670Y-106872421D01*
X119951153Y-106884718D01*
X119929529Y-106894946D01*
X119907007Y-106903004D01*
X119883803Y-106908816D01*
X119860142Y-106912326D01*
X119836250Y-106913500D01*
X118923750Y-106913500D01*
X118899858Y-106912326D01*
X118876197Y-106908816D01*
X118852993Y-106903004D01*
X118830471Y-106894946D01*
X118808847Y-106884718D01*
X118788330Y-106872421D01*
X118769117Y-106858171D01*
X118751393Y-106842107D01*
X118735329Y-106824383D01*
X118721079Y-106805170D01*
X118708782Y-106784653D01*
X118698554Y-106763029D01*
X118690496Y-106740507D01*
X118684684Y-106717303D01*
X118681174Y-106693642D01*
X118680000Y-106669750D01*
X118680000Y-106182250D01*
X118681174Y-106158358D01*
X118684684Y-106134697D01*
X118690496Y-106111493D01*
X118698554Y-106088971D01*
X118708782Y-106067347D01*
X118721079Y-106046830D01*
X118735329Y-106027617D01*
X118751393Y-106009893D01*
X118769117Y-105993829D01*
X118788330Y-105979579D01*
X118808847Y-105967282D01*
X118830471Y-105957054D01*
X118852993Y-105948996D01*
X118876197Y-105943184D01*
X118899858Y-105939674D01*
X118923750Y-105938500D01*
X119836250Y-105938500D01*
X119860142Y-105939674D01*
X119860142Y-105939674D01*
G37*
D12*
X119380000Y-106426000D03*
G04 #@! TD*
D11*
G04 #@! TO.C,D1*
G36*
X119860142Y-103750674D02*
X119883803Y-103754184D01*
X119907007Y-103759996D01*
X119929529Y-103768054D01*
X119951153Y-103778282D01*
X119971670Y-103790579D01*
X119990883Y-103804829D01*
X120008607Y-103820893D01*
X120024671Y-103838617D01*
X120038921Y-103857830D01*
X120051218Y-103878347D01*
X120061446Y-103899971D01*
X120069504Y-103922493D01*
X120075316Y-103945697D01*
X120078826Y-103969358D01*
X120080000Y-103993250D01*
X120080000Y-104480750D01*
X120078826Y-104504642D01*
X120075316Y-104528303D01*
X120069504Y-104551507D01*
X120061446Y-104574029D01*
X120051218Y-104595653D01*
X120038921Y-104616170D01*
X120024671Y-104635383D01*
X120008607Y-104653107D01*
X119990883Y-104669171D01*
X119971670Y-104683421D01*
X119951153Y-104695718D01*
X119929529Y-104705946D01*
X119907007Y-104714004D01*
X119883803Y-104719816D01*
X119860142Y-104723326D01*
X119836250Y-104724500D01*
X118923750Y-104724500D01*
X118899858Y-104723326D01*
X118876197Y-104719816D01*
X118852993Y-104714004D01*
X118830471Y-104705946D01*
X118808847Y-104695718D01*
X118788330Y-104683421D01*
X118769117Y-104669171D01*
X118751393Y-104653107D01*
X118735329Y-104635383D01*
X118721079Y-104616170D01*
X118708782Y-104595653D01*
X118698554Y-104574029D01*
X118690496Y-104551507D01*
X118684684Y-104528303D01*
X118681174Y-104504642D01*
X118680000Y-104480750D01*
X118680000Y-103993250D01*
X118681174Y-103969358D01*
X118684684Y-103945697D01*
X118690496Y-103922493D01*
X118698554Y-103899971D01*
X118708782Y-103878347D01*
X118721079Y-103857830D01*
X118735329Y-103838617D01*
X118751393Y-103820893D01*
X118769117Y-103804829D01*
X118788330Y-103790579D01*
X118808847Y-103778282D01*
X118830471Y-103768054D01*
X118852993Y-103759996D01*
X118876197Y-103754184D01*
X118899858Y-103750674D01*
X118923750Y-103749500D01*
X119836250Y-103749500D01*
X119860142Y-103750674D01*
X119860142Y-103750674D01*
G37*
D12*
X119380000Y-104237000D03*
D11*
G36*
X119860142Y-101875674D02*
X119883803Y-101879184D01*
X119907007Y-101884996D01*
X119929529Y-101893054D01*
X119951153Y-101903282D01*
X119971670Y-101915579D01*
X119990883Y-101929829D01*
X120008607Y-101945893D01*
X120024671Y-101963617D01*
X120038921Y-101982830D01*
X120051218Y-102003347D01*
X120061446Y-102024971D01*
X120069504Y-102047493D01*
X120075316Y-102070697D01*
X120078826Y-102094358D01*
X120080000Y-102118250D01*
X120080000Y-102605750D01*
X120078826Y-102629642D01*
X120075316Y-102653303D01*
X120069504Y-102676507D01*
X120061446Y-102699029D01*
X120051218Y-102720653D01*
X120038921Y-102741170D01*
X120024671Y-102760383D01*
X120008607Y-102778107D01*
X119990883Y-102794171D01*
X119971670Y-102808421D01*
X119951153Y-102820718D01*
X119929529Y-102830946D01*
X119907007Y-102839004D01*
X119883803Y-102844816D01*
X119860142Y-102848326D01*
X119836250Y-102849500D01*
X118923750Y-102849500D01*
X118899858Y-102848326D01*
X118876197Y-102844816D01*
X118852993Y-102839004D01*
X118830471Y-102830946D01*
X118808847Y-102820718D01*
X118788330Y-102808421D01*
X118769117Y-102794171D01*
X118751393Y-102778107D01*
X118735329Y-102760383D01*
X118721079Y-102741170D01*
X118708782Y-102720653D01*
X118698554Y-102699029D01*
X118690496Y-102676507D01*
X118684684Y-102653303D01*
X118681174Y-102629642D01*
X118680000Y-102605750D01*
X118680000Y-102118250D01*
X118681174Y-102094358D01*
X118684684Y-102070697D01*
X118690496Y-102047493D01*
X118698554Y-102024971D01*
X118708782Y-102003347D01*
X118721079Y-101982830D01*
X118735329Y-101963617D01*
X118751393Y-101945893D01*
X118769117Y-101929829D01*
X118788330Y-101915579D01*
X118808847Y-101903282D01*
X118830471Y-101893054D01*
X118852993Y-101884996D01*
X118876197Y-101879184D01*
X118899858Y-101875674D01*
X118923750Y-101874500D01*
X119836250Y-101874500D01*
X119860142Y-101875674D01*
X119860142Y-101875674D01*
G37*
D12*
X119380000Y-102362000D03*
G04 #@! TD*
D11*
G04 #@! TO.C,R1*
G36*
X137132142Y-86478674D02*
X137155803Y-86482184D01*
X137179007Y-86487996D01*
X137201529Y-86496054D01*
X137223153Y-86506282D01*
X137243670Y-86518579D01*
X137262883Y-86532829D01*
X137280607Y-86548893D01*
X137296671Y-86566617D01*
X137310921Y-86585830D01*
X137323218Y-86606347D01*
X137333446Y-86627971D01*
X137341504Y-86650493D01*
X137347316Y-86673697D01*
X137350826Y-86697358D01*
X137352000Y-86721250D01*
X137352000Y-87208750D01*
X137350826Y-87232642D01*
X137347316Y-87256303D01*
X137341504Y-87279507D01*
X137333446Y-87302029D01*
X137323218Y-87323653D01*
X137310921Y-87344170D01*
X137296671Y-87363383D01*
X137280607Y-87381107D01*
X137262883Y-87397171D01*
X137243670Y-87411421D01*
X137223153Y-87423718D01*
X137201529Y-87433946D01*
X137179007Y-87442004D01*
X137155803Y-87447816D01*
X137132142Y-87451326D01*
X137108250Y-87452500D01*
X136195750Y-87452500D01*
X136171858Y-87451326D01*
X136148197Y-87447816D01*
X136124993Y-87442004D01*
X136102471Y-87433946D01*
X136080847Y-87423718D01*
X136060330Y-87411421D01*
X136041117Y-87397171D01*
X136023393Y-87381107D01*
X136007329Y-87363383D01*
X135993079Y-87344170D01*
X135980782Y-87323653D01*
X135970554Y-87302029D01*
X135962496Y-87279507D01*
X135956684Y-87256303D01*
X135953174Y-87232642D01*
X135952000Y-87208750D01*
X135952000Y-86721250D01*
X135953174Y-86697358D01*
X135956684Y-86673697D01*
X135962496Y-86650493D01*
X135970554Y-86627971D01*
X135980782Y-86606347D01*
X135993079Y-86585830D01*
X136007329Y-86566617D01*
X136023393Y-86548893D01*
X136041117Y-86532829D01*
X136060330Y-86518579D01*
X136080847Y-86506282D01*
X136102471Y-86496054D01*
X136124993Y-86487996D01*
X136148197Y-86482184D01*
X136171858Y-86478674D01*
X136195750Y-86477500D01*
X137108250Y-86477500D01*
X137132142Y-86478674D01*
X137132142Y-86478674D01*
G37*
D12*
X136652000Y-86965000D03*
D11*
G36*
X137132142Y-84603674D02*
X137155803Y-84607184D01*
X137179007Y-84612996D01*
X137201529Y-84621054D01*
X137223153Y-84631282D01*
X137243670Y-84643579D01*
X137262883Y-84657829D01*
X137280607Y-84673893D01*
X137296671Y-84691617D01*
X137310921Y-84710830D01*
X137323218Y-84731347D01*
X137333446Y-84752971D01*
X137341504Y-84775493D01*
X137347316Y-84798697D01*
X137350826Y-84822358D01*
X137352000Y-84846250D01*
X137352000Y-85333750D01*
X137350826Y-85357642D01*
X137347316Y-85381303D01*
X137341504Y-85404507D01*
X137333446Y-85427029D01*
X137323218Y-85448653D01*
X137310921Y-85469170D01*
X137296671Y-85488383D01*
X137280607Y-85506107D01*
X137262883Y-85522171D01*
X137243670Y-85536421D01*
X137223153Y-85548718D01*
X137201529Y-85558946D01*
X137179007Y-85567004D01*
X137155803Y-85572816D01*
X137132142Y-85576326D01*
X137108250Y-85577500D01*
X136195750Y-85577500D01*
X136171858Y-85576326D01*
X136148197Y-85572816D01*
X136124993Y-85567004D01*
X136102471Y-85558946D01*
X136080847Y-85548718D01*
X136060330Y-85536421D01*
X136041117Y-85522171D01*
X136023393Y-85506107D01*
X136007329Y-85488383D01*
X135993079Y-85469170D01*
X135980782Y-85448653D01*
X135970554Y-85427029D01*
X135962496Y-85404507D01*
X135956684Y-85381303D01*
X135953174Y-85357642D01*
X135952000Y-85333750D01*
X135952000Y-84846250D01*
X135953174Y-84822358D01*
X135956684Y-84798697D01*
X135962496Y-84775493D01*
X135970554Y-84752971D01*
X135980782Y-84731347D01*
X135993079Y-84710830D01*
X136007329Y-84691617D01*
X136023393Y-84673893D01*
X136041117Y-84657829D01*
X136060330Y-84643579D01*
X136080847Y-84631282D01*
X136102471Y-84621054D01*
X136124993Y-84612996D01*
X136148197Y-84607184D01*
X136171858Y-84603674D01*
X136195750Y-84602500D01*
X137108250Y-84602500D01*
X137132142Y-84603674D01*
X137132142Y-84603674D01*
G37*
D12*
X136652000Y-85090000D03*
G04 #@! TD*
D11*
G04 #@! TO.C,R4*
G36*
X137005142Y-104699674D02*
X137028803Y-104703184D01*
X137052007Y-104708996D01*
X137074529Y-104717054D01*
X137096153Y-104727282D01*
X137116670Y-104739579D01*
X137135883Y-104753829D01*
X137153607Y-104769893D01*
X137169671Y-104787617D01*
X137183921Y-104806830D01*
X137196218Y-104827347D01*
X137206446Y-104848971D01*
X137214504Y-104871493D01*
X137220316Y-104894697D01*
X137223826Y-104918358D01*
X137225000Y-104942250D01*
X137225000Y-105429750D01*
X137223826Y-105453642D01*
X137220316Y-105477303D01*
X137214504Y-105500507D01*
X137206446Y-105523029D01*
X137196218Y-105544653D01*
X137183921Y-105565170D01*
X137169671Y-105584383D01*
X137153607Y-105602107D01*
X137135883Y-105618171D01*
X137116670Y-105632421D01*
X137096153Y-105644718D01*
X137074529Y-105654946D01*
X137052007Y-105663004D01*
X137028803Y-105668816D01*
X137005142Y-105672326D01*
X136981250Y-105673500D01*
X136068750Y-105673500D01*
X136044858Y-105672326D01*
X136021197Y-105668816D01*
X135997993Y-105663004D01*
X135975471Y-105654946D01*
X135953847Y-105644718D01*
X135933330Y-105632421D01*
X135914117Y-105618171D01*
X135896393Y-105602107D01*
X135880329Y-105584383D01*
X135866079Y-105565170D01*
X135853782Y-105544653D01*
X135843554Y-105523029D01*
X135835496Y-105500507D01*
X135829684Y-105477303D01*
X135826174Y-105453642D01*
X135825000Y-105429750D01*
X135825000Y-104942250D01*
X135826174Y-104918358D01*
X135829684Y-104894697D01*
X135835496Y-104871493D01*
X135843554Y-104848971D01*
X135853782Y-104827347D01*
X135866079Y-104806830D01*
X135880329Y-104787617D01*
X135896393Y-104769893D01*
X135914117Y-104753829D01*
X135933330Y-104739579D01*
X135953847Y-104727282D01*
X135975471Y-104717054D01*
X135997993Y-104708996D01*
X136021197Y-104703184D01*
X136044858Y-104699674D01*
X136068750Y-104698500D01*
X136981250Y-104698500D01*
X137005142Y-104699674D01*
X137005142Y-104699674D01*
G37*
D12*
X136525000Y-105186000D03*
D11*
G36*
X137005142Y-106574674D02*
X137028803Y-106578184D01*
X137052007Y-106583996D01*
X137074529Y-106592054D01*
X137096153Y-106602282D01*
X137116670Y-106614579D01*
X137135883Y-106628829D01*
X137153607Y-106644893D01*
X137169671Y-106662617D01*
X137183921Y-106681830D01*
X137196218Y-106702347D01*
X137206446Y-106723971D01*
X137214504Y-106746493D01*
X137220316Y-106769697D01*
X137223826Y-106793358D01*
X137225000Y-106817250D01*
X137225000Y-107304750D01*
X137223826Y-107328642D01*
X137220316Y-107352303D01*
X137214504Y-107375507D01*
X137206446Y-107398029D01*
X137196218Y-107419653D01*
X137183921Y-107440170D01*
X137169671Y-107459383D01*
X137153607Y-107477107D01*
X137135883Y-107493171D01*
X137116670Y-107507421D01*
X137096153Y-107519718D01*
X137074529Y-107529946D01*
X137052007Y-107538004D01*
X137028803Y-107543816D01*
X137005142Y-107547326D01*
X136981250Y-107548500D01*
X136068750Y-107548500D01*
X136044858Y-107547326D01*
X136021197Y-107543816D01*
X135997993Y-107538004D01*
X135975471Y-107529946D01*
X135953847Y-107519718D01*
X135933330Y-107507421D01*
X135914117Y-107493171D01*
X135896393Y-107477107D01*
X135880329Y-107459383D01*
X135866079Y-107440170D01*
X135853782Y-107419653D01*
X135843554Y-107398029D01*
X135835496Y-107375507D01*
X135829684Y-107352303D01*
X135826174Y-107328642D01*
X135825000Y-107304750D01*
X135825000Y-106817250D01*
X135826174Y-106793358D01*
X135829684Y-106769697D01*
X135835496Y-106746493D01*
X135843554Y-106723971D01*
X135853782Y-106702347D01*
X135866079Y-106681830D01*
X135880329Y-106662617D01*
X135896393Y-106644893D01*
X135914117Y-106628829D01*
X135933330Y-106614579D01*
X135953847Y-106602282D01*
X135975471Y-106592054D01*
X135997993Y-106583996D01*
X136021197Y-106578184D01*
X136044858Y-106574674D01*
X136068750Y-106573500D01*
X136981250Y-106573500D01*
X137005142Y-106574674D01*
X137005142Y-106574674D01*
G37*
D12*
X136525000Y-107061000D03*
G04 #@! TD*
D11*
G04 #@! TO.C,R2*
G36*
X137132142Y-92955674D02*
X137155803Y-92959184D01*
X137179007Y-92964996D01*
X137201529Y-92973054D01*
X137223153Y-92983282D01*
X137243670Y-92995579D01*
X137262883Y-93009829D01*
X137280607Y-93025893D01*
X137296671Y-93043617D01*
X137310921Y-93062830D01*
X137323218Y-93083347D01*
X137333446Y-93104971D01*
X137341504Y-93127493D01*
X137347316Y-93150697D01*
X137350826Y-93174358D01*
X137352000Y-93198250D01*
X137352000Y-93685750D01*
X137350826Y-93709642D01*
X137347316Y-93733303D01*
X137341504Y-93756507D01*
X137333446Y-93779029D01*
X137323218Y-93800653D01*
X137310921Y-93821170D01*
X137296671Y-93840383D01*
X137280607Y-93858107D01*
X137262883Y-93874171D01*
X137243670Y-93888421D01*
X137223153Y-93900718D01*
X137201529Y-93910946D01*
X137179007Y-93919004D01*
X137155803Y-93924816D01*
X137132142Y-93928326D01*
X137108250Y-93929500D01*
X136195750Y-93929500D01*
X136171858Y-93928326D01*
X136148197Y-93924816D01*
X136124993Y-93919004D01*
X136102471Y-93910946D01*
X136080847Y-93900718D01*
X136060330Y-93888421D01*
X136041117Y-93874171D01*
X136023393Y-93858107D01*
X136007329Y-93840383D01*
X135993079Y-93821170D01*
X135980782Y-93800653D01*
X135970554Y-93779029D01*
X135962496Y-93756507D01*
X135956684Y-93733303D01*
X135953174Y-93709642D01*
X135952000Y-93685750D01*
X135952000Y-93198250D01*
X135953174Y-93174358D01*
X135956684Y-93150697D01*
X135962496Y-93127493D01*
X135970554Y-93104971D01*
X135980782Y-93083347D01*
X135993079Y-93062830D01*
X136007329Y-93043617D01*
X136023393Y-93025893D01*
X136041117Y-93009829D01*
X136060330Y-92995579D01*
X136080847Y-92983282D01*
X136102471Y-92973054D01*
X136124993Y-92964996D01*
X136148197Y-92959184D01*
X136171858Y-92955674D01*
X136195750Y-92954500D01*
X137108250Y-92954500D01*
X137132142Y-92955674D01*
X137132142Y-92955674D01*
G37*
D12*
X136652000Y-93442000D03*
D11*
G36*
X137132142Y-91080674D02*
X137155803Y-91084184D01*
X137179007Y-91089996D01*
X137201529Y-91098054D01*
X137223153Y-91108282D01*
X137243670Y-91120579D01*
X137262883Y-91134829D01*
X137280607Y-91150893D01*
X137296671Y-91168617D01*
X137310921Y-91187830D01*
X137323218Y-91208347D01*
X137333446Y-91229971D01*
X137341504Y-91252493D01*
X137347316Y-91275697D01*
X137350826Y-91299358D01*
X137352000Y-91323250D01*
X137352000Y-91810750D01*
X137350826Y-91834642D01*
X137347316Y-91858303D01*
X137341504Y-91881507D01*
X137333446Y-91904029D01*
X137323218Y-91925653D01*
X137310921Y-91946170D01*
X137296671Y-91965383D01*
X137280607Y-91983107D01*
X137262883Y-91999171D01*
X137243670Y-92013421D01*
X137223153Y-92025718D01*
X137201529Y-92035946D01*
X137179007Y-92044004D01*
X137155803Y-92049816D01*
X137132142Y-92053326D01*
X137108250Y-92054500D01*
X136195750Y-92054500D01*
X136171858Y-92053326D01*
X136148197Y-92049816D01*
X136124993Y-92044004D01*
X136102471Y-92035946D01*
X136080847Y-92025718D01*
X136060330Y-92013421D01*
X136041117Y-91999171D01*
X136023393Y-91983107D01*
X136007329Y-91965383D01*
X135993079Y-91946170D01*
X135980782Y-91925653D01*
X135970554Y-91904029D01*
X135962496Y-91881507D01*
X135956684Y-91858303D01*
X135953174Y-91834642D01*
X135952000Y-91810750D01*
X135952000Y-91323250D01*
X135953174Y-91299358D01*
X135956684Y-91275697D01*
X135962496Y-91252493D01*
X135970554Y-91229971D01*
X135980782Y-91208347D01*
X135993079Y-91187830D01*
X136007329Y-91168617D01*
X136023393Y-91150893D01*
X136041117Y-91134829D01*
X136060330Y-91120579D01*
X136080847Y-91108282D01*
X136102471Y-91098054D01*
X136124993Y-91089996D01*
X136148197Y-91084184D01*
X136171858Y-91080674D01*
X136195750Y-91079500D01*
X137108250Y-91079500D01*
X137132142Y-91080674D01*
X137132142Y-91080674D01*
G37*
D12*
X136652000Y-91567000D03*
G04 #@! TD*
D11*
G04 #@! TO.C,R3*
G36*
X137132142Y-100019174D02*
X137155803Y-100022684D01*
X137179007Y-100028496D01*
X137201529Y-100036554D01*
X137223153Y-100046782D01*
X137243670Y-100059079D01*
X137262883Y-100073329D01*
X137280607Y-100089393D01*
X137296671Y-100107117D01*
X137310921Y-100126330D01*
X137323218Y-100146847D01*
X137333446Y-100168471D01*
X137341504Y-100190993D01*
X137347316Y-100214197D01*
X137350826Y-100237858D01*
X137352000Y-100261750D01*
X137352000Y-100749250D01*
X137350826Y-100773142D01*
X137347316Y-100796803D01*
X137341504Y-100820007D01*
X137333446Y-100842529D01*
X137323218Y-100864153D01*
X137310921Y-100884670D01*
X137296671Y-100903883D01*
X137280607Y-100921607D01*
X137262883Y-100937671D01*
X137243670Y-100951921D01*
X137223153Y-100964218D01*
X137201529Y-100974446D01*
X137179007Y-100982504D01*
X137155803Y-100988316D01*
X137132142Y-100991826D01*
X137108250Y-100993000D01*
X136195750Y-100993000D01*
X136171858Y-100991826D01*
X136148197Y-100988316D01*
X136124993Y-100982504D01*
X136102471Y-100974446D01*
X136080847Y-100964218D01*
X136060330Y-100951921D01*
X136041117Y-100937671D01*
X136023393Y-100921607D01*
X136007329Y-100903883D01*
X135993079Y-100884670D01*
X135980782Y-100864153D01*
X135970554Y-100842529D01*
X135962496Y-100820007D01*
X135956684Y-100796803D01*
X135953174Y-100773142D01*
X135952000Y-100749250D01*
X135952000Y-100261750D01*
X135953174Y-100237858D01*
X135956684Y-100214197D01*
X135962496Y-100190993D01*
X135970554Y-100168471D01*
X135980782Y-100146847D01*
X135993079Y-100126330D01*
X136007329Y-100107117D01*
X136023393Y-100089393D01*
X136041117Y-100073329D01*
X136060330Y-100059079D01*
X136080847Y-100046782D01*
X136102471Y-100036554D01*
X136124993Y-100028496D01*
X136148197Y-100022684D01*
X136171858Y-100019174D01*
X136195750Y-100018000D01*
X137108250Y-100018000D01*
X137132142Y-100019174D01*
X137132142Y-100019174D01*
G37*
D12*
X136652000Y-100505500D03*
D11*
G36*
X137132142Y-98144174D02*
X137155803Y-98147684D01*
X137179007Y-98153496D01*
X137201529Y-98161554D01*
X137223153Y-98171782D01*
X137243670Y-98184079D01*
X137262883Y-98198329D01*
X137280607Y-98214393D01*
X137296671Y-98232117D01*
X137310921Y-98251330D01*
X137323218Y-98271847D01*
X137333446Y-98293471D01*
X137341504Y-98315993D01*
X137347316Y-98339197D01*
X137350826Y-98362858D01*
X137352000Y-98386750D01*
X137352000Y-98874250D01*
X137350826Y-98898142D01*
X137347316Y-98921803D01*
X137341504Y-98945007D01*
X137333446Y-98967529D01*
X137323218Y-98989153D01*
X137310921Y-99009670D01*
X137296671Y-99028883D01*
X137280607Y-99046607D01*
X137262883Y-99062671D01*
X137243670Y-99076921D01*
X137223153Y-99089218D01*
X137201529Y-99099446D01*
X137179007Y-99107504D01*
X137155803Y-99113316D01*
X137132142Y-99116826D01*
X137108250Y-99118000D01*
X136195750Y-99118000D01*
X136171858Y-99116826D01*
X136148197Y-99113316D01*
X136124993Y-99107504D01*
X136102471Y-99099446D01*
X136080847Y-99089218D01*
X136060330Y-99076921D01*
X136041117Y-99062671D01*
X136023393Y-99046607D01*
X136007329Y-99028883D01*
X135993079Y-99009670D01*
X135980782Y-98989153D01*
X135970554Y-98967529D01*
X135962496Y-98945007D01*
X135956684Y-98921803D01*
X135953174Y-98898142D01*
X135952000Y-98874250D01*
X135952000Y-98386750D01*
X135953174Y-98362858D01*
X135956684Y-98339197D01*
X135962496Y-98315993D01*
X135970554Y-98293471D01*
X135980782Y-98271847D01*
X135993079Y-98251330D01*
X136007329Y-98232117D01*
X136023393Y-98214393D01*
X136041117Y-98198329D01*
X136060330Y-98184079D01*
X136080847Y-98171782D01*
X136102471Y-98161554D01*
X136124993Y-98153496D01*
X136148197Y-98147684D01*
X136171858Y-98144174D01*
X136195750Y-98143000D01*
X137108250Y-98143000D01*
X137132142Y-98144174D01*
X137132142Y-98144174D01*
G37*
D12*
X136652000Y-98630500D03*
G04 #@! TD*
D11*
G04 #@! TO.C,R10*
G36*
X119860142Y-97938674D02*
X119883803Y-97942184D01*
X119907007Y-97947996D01*
X119929529Y-97956054D01*
X119951153Y-97966282D01*
X119971670Y-97978579D01*
X119990883Y-97992829D01*
X120008607Y-98008893D01*
X120024671Y-98026617D01*
X120038921Y-98045830D01*
X120051218Y-98066347D01*
X120061446Y-98087971D01*
X120069504Y-98110493D01*
X120075316Y-98133697D01*
X120078826Y-98157358D01*
X120080000Y-98181250D01*
X120080000Y-98668750D01*
X120078826Y-98692642D01*
X120075316Y-98716303D01*
X120069504Y-98739507D01*
X120061446Y-98762029D01*
X120051218Y-98783653D01*
X120038921Y-98804170D01*
X120024671Y-98823383D01*
X120008607Y-98841107D01*
X119990883Y-98857171D01*
X119971670Y-98871421D01*
X119951153Y-98883718D01*
X119929529Y-98893946D01*
X119907007Y-98902004D01*
X119883803Y-98907816D01*
X119860142Y-98911326D01*
X119836250Y-98912500D01*
X118923750Y-98912500D01*
X118899858Y-98911326D01*
X118876197Y-98907816D01*
X118852993Y-98902004D01*
X118830471Y-98893946D01*
X118808847Y-98883718D01*
X118788330Y-98871421D01*
X118769117Y-98857171D01*
X118751393Y-98841107D01*
X118735329Y-98823383D01*
X118721079Y-98804170D01*
X118708782Y-98783653D01*
X118698554Y-98762029D01*
X118690496Y-98739507D01*
X118684684Y-98716303D01*
X118681174Y-98692642D01*
X118680000Y-98668750D01*
X118680000Y-98181250D01*
X118681174Y-98157358D01*
X118684684Y-98133697D01*
X118690496Y-98110493D01*
X118698554Y-98087971D01*
X118708782Y-98066347D01*
X118721079Y-98045830D01*
X118735329Y-98026617D01*
X118751393Y-98008893D01*
X118769117Y-97992829D01*
X118788330Y-97978579D01*
X118808847Y-97966282D01*
X118830471Y-97956054D01*
X118852993Y-97947996D01*
X118876197Y-97942184D01*
X118899858Y-97938674D01*
X118923750Y-97937500D01*
X119836250Y-97937500D01*
X119860142Y-97938674D01*
X119860142Y-97938674D01*
G37*
D12*
X119380000Y-98425000D03*
D11*
G36*
X119860142Y-99813674D02*
X119883803Y-99817184D01*
X119907007Y-99822996D01*
X119929529Y-99831054D01*
X119951153Y-99841282D01*
X119971670Y-99853579D01*
X119990883Y-99867829D01*
X120008607Y-99883893D01*
X120024671Y-99901617D01*
X120038921Y-99920830D01*
X120051218Y-99941347D01*
X120061446Y-99962971D01*
X120069504Y-99985493D01*
X120075316Y-100008697D01*
X120078826Y-100032358D01*
X120080000Y-100056250D01*
X120080000Y-100543750D01*
X120078826Y-100567642D01*
X120075316Y-100591303D01*
X120069504Y-100614507D01*
X120061446Y-100637029D01*
X120051218Y-100658653D01*
X120038921Y-100679170D01*
X120024671Y-100698383D01*
X120008607Y-100716107D01*
X119990883Y-100732171D01*
X119971670Y-100746421D01*
X119951153Y-100758718D01*
X119929529Y-100768946D01*
X119907007Y-100777004D01*
X119883803Y-100782816D01*
X119860142Y-100786326D01*
X119836250Y-100787500D01*
X118923750Y-100787500D01*
X118899858Y-100786326D01*
X118876197Y-100782816D01*
X118852993Y-100777004D01*
X118830471Y-100768946D01*
X118808847Y-100758718D01*
X118788330Y-100746421D01*
X118769117Y-100732171D01*
X118751393Y-100716107D01*
X118735329Y-100698383D01*
X118721079Y-100679170D01*
X118708782Y-100658653D01*
X118698554Y-100637029D01*
X118690496Y-100614507D01*
X118684684Y-100591303D01*
X118681174Y-100567642D01*
X118680000Y-100543750D01*
X118680000Y-100056250D01*
X118681174Y-100032358D01*
X118684684Y-100008697D01*
X118690496Y-99985493D01*
X118698554Y-99962971D01*
X118708782Y-99941347D01*
X118721079Y-99920830D01*
X118735329Y-99901617D01*
X118751393Y-99883893D01*
X118769117Y-99867829D01*
X118788330Y-99853579D01*
X118808847Y-99841282D01*
X118830471Y-99831054D01*
X118852993Y-99822996D01*
X118876197Y-99817184D01*
X118899858Y-99813674D01*
X118923750Y-99812500D01*
X119836250Y-99812500D01*
X119860142Y-99813674D01*
X119860142Y-99813674D01*
G37*
D12*
X119380000Y-100300000D03*
G04 #@! TD*
D13*
G04 #@! TO.C,ULN2804*
X132588000Y-98932000D03*
X131318000Y-98932000D03*
X130048000Y-98932000D03*
X128778000Y-98932000D03*
X127508000Y-98932000D03*
X126238000Y-98932000D03*
X124968000Y-98932000D03*
X123698000Y-98932000D03*
X122428000Y-98932000D03*
X122428000Y-108332000D03*
X123698000Y-108332000D03*
X124968000Y-108332000D03*
X126238000Y-108332000D03*
X127508000Y-108332000D03*
X128778000Y-108332000D03*
X130048000Y-108332000D03*
X131318000Y-108332000D03*
X132588000Y-108332000D03*
G04 #@! TD*
M02*
