G04 #@! TF.GenerationSoftware,KiCad,Pcbnew,5.0.2+dfsg1-1*
G04 #@! TF.CreationDate,2019-01-13T01:33:18+00:00*
G04 #@! TF.ProjectId,led_matrix_v1,6c65645f-6d61-4747-9269-785f76312e6b,rev?*
G04 #@! TF.SameCoordinates,Original*
G04 #@! TF.FileFunction,Soldermask,Bot*
G04 #@! TF.FilePolarity,Negative*
%FSLAX46Y46*%
G04 Gerber Fmt 4.6, Leading zero omitted, Abs format (unit mm)*
G04 Created by KiCad (PCBNEW 5.0.2+dfsg1-1) date Sun 13 Jan 2019 01:33:18 GMT*
%MOMM*%
%LPD*%
G01*
G04 APERTURE LIST*
%ADD10C,0.100000*%
G04 APERTURE END LIST*
D10*
G36*
X157415000Y-109917000D02*
X155513000Y-109917000D01*
X155513000Y-108015000D01*
X157415000Y-108015000D01*
X157415000Y-109917000D01*
X157415000Y-109917000D01*
G37*
G36*
X171639000Y-109917000D02*
X169737000Y-109917000D01*
X169737000Y-108015000D01*
X171639000Y-108015000D01*
X171639000Y-109917000D01*
X171639000Y-109917000D01*
G37*
G36*
X192975000Y-109917000D02*
X191073000Y-109917000D01*
X191073000Y-108015000D01*
X192975000Y-108015000D01*
X192975000Y-109917000D01*
X192975000Y-109917000D01*
G37*
G36*
X182649396Y-108051546D02*
X182822466Y-108123234D01*
X182978230Y-108227312D01*
X183110688Y-108359770D01*
X183214766Y-108515534D01*
X183286454Y-108688604D01*
X183323000Y-108872333D01*
X183323000Y-109059667D01*
X183286454Y-109243396D01*
X183214766Y-109416466D01*
X183110688Y-109572230D01*
X182978230Y-109704688D01*
X182822466Y-109808766D01*
X182649396Y-109880454D01*
X182465667Y-109917000D01*
X182278333Y-109917000D01*
X182094604Y-109880454D01*
X181921534Y-109808766D01*
X181765770Y-109704688D01*
X181633312Y-109572230D01*
X181529234Y-109416466D01*
X181457546Y-109243396D01*
X181421000Y-109059667D01*
X181421000Y-108872333D01*
X181457546Y-108688604D01*
X181529234Y-108515534D01*
X181633312Y-108359770D01*
X181765770Y-108227312D01*
X181921534Y-108123234D01*
X182094604Y-108051546D01*
X182278333Y-108015000D01*
X182465667Y-108015000D01*
X182649396Y-108051546D01*
X182649396Y-108051546D01*
G37*
G36*
X185863000Y-109917000D02*
X183961000Y-109917000D01*
X183961000Y-108015000D01*
X185863000Y-108015000D01*
X185863000Y-109917000D01*
X185863000Y-109917000D01*
G37*
G36*
X178751000Y-109917000D02*
X176849000Y-109917000D01*
X176849000Y-108015000D01*
X178751000Y-108015000D01*
X178751000Y-109917000D01*
X178751000Y-109917000D01*
G37*
G36*
X175537396Y-108051546D02*
X175710466Y-108123234D01*
X175866230Y-108227312D01*
X175998688Y-108359770D01*
X176102766Y-108515534D01*
X176174454Y-108688604D01*
X176211000Y-108872333D01*
X176211000Y-109059667D01*
X176174454Y-109243396D01*
X176102766Y-109416466D01*
X175998688Y-109572230D01*
X175866230Y-109704688D01*
X175710466Y-109808766D01*
X175537396Y-109880454D01*
X175353667Y-109917000D01*
X175166333Y-109917000D01*
X174982604Y-109880454D01*
X174809534Y-109808766D01*
X174653770Y-109704688D01*
X174521312Y-109572230D01*
X174417234Y-109416466D01*
X174345546Y-109243396D01*
X174309000Y-109059667D01*
X174309000Y-108872333D01*
X174345546Y-108688604D01*
X174417234Y-108515534D01*
X174521312Y-108359770D01*
X174653770Y-108227312D01*
X174809534Y-108123234D01*
X174982604Y-108051546D01*
X175166333Y-108015000D01*
X175353667Y-108015000D01*
X175537396Y-108051546D01*
X175537396Y-108051546D01*
G37*
G36*
X168425396Y-108051546D02*
X168598466Y-108123234D01*
X168754230Y-108227312D01*
X168886688Y-108359770D01*
X168990766Y-108515534D01*
X169062454Y-108688604D01*
X169099000Y-108872333D01*
X169099000Y-109059667D01*
X169062454Y-109243396D01*
X168990766Y-109416466D01*
X168886688Y-109572230D01*
X168754230Y-109704688D01*
X168598466Y-109808766D01*
X168425396Y-109880454D01*
X168241667Y-109917000D01*
X168054333Y-109917000D01*
X167870604Y-109880454D01*
X167697534Y-109808766D01*
X167541770Y-109704688D01*
X167409312Y-109572230D01*
X167305234Y-109416466D01*
X167233546Y-109243396D01*
X167197000Y-109059667D01*
X167197000Y-108872333D01*
X167233546Y-108688604D01*
X167305234Y-108515534D01*
X167409312Y-108359770D01*
X167541770Y-108227312D01*
X167697534Y-108123234D01*
X167870604Y-108051546D01*
X168054333Y-108015000D01*
X168241667Y-108015000D01*
X168425396Y-108051546D01*
X168425396Y-108051546D01*
G37*
G36*
X189761396Y-108051546D02*
X189934466Y-108123234D01*
X190090230Y-108227312D01*
X190222688Y-108359770D01*
X190326766Y-108515534D01*
X190398454Y-108688604D01*
X190435000Y-108872333D01*
X190435000Y-109059667D01*
X190398454Y-109243396D01*
X190326766Y-109416466D01*
X190222688Y-109572230D01*
X190090230Y-109704688D01*
X189934466Y-109808766D01*
X189761396Y-109880454D01*
X189577667Y-109917000D01*
X189390333Y-109917000D01*
X189206604Y-109880454D01*
X189033534Y-109808766D01*
X188877770Y-109704688D01*
X188745312Y-109572230D01*
X188641234Y-109416466D01*
X188569546Y-109243396D01*
X188533000Y-109059667D01*
X188533000Y-108872333D01*
X188569546Y-108688604D01*
X188641234Y-108515534D01*
X188745312Y-108359770D01*
X188877770Y-108227312D01*
X189033534Y-108123234D01*
X189206604Y-108051546D01*
X189390333Y-108015000D01*
X189577667Y-108015000D01*
X189761396Y-108051546D01*
X189761396Y-108051546D01*
G37*
G36*
X164527000Y-109917000D02*
X162625000Y-109917000D01*
X162625000Y-108015000D01*
X164527000Y-108015000D01*
X164527000Y-109917000D01*
X164527000Y-109917000D01*
G37*
G36*
X161313396Y-108051546D02*
X161486466Y-108123234D01*
X161642230Y-108227312D01*
X161774688Y-108359770D01*
X161878766Y-108515534D01*
X161950454Y-108688604D01*
X161987000Y-108872333D01*
X161987000Y-109059667D01*
X161950454Y-109243396D01*
X161878766Y-109416466D01*
X161774688Y-109572230D01*
X161642230Y-109704688D01*
X161486466Y-109808766D01*
X161313396Y-109880454D01*
X161129667Y-109917000D01*
X160942333Y-109917000D01*
X160758604Y-109880454D01*
X160585534Y-109808766D01*
X160429770Y-109704688D01*
X160297312Y-109572230D01*
X160193234Y-109416466D01*
X160121546Y-109243396D01*
X160085000Y-109059667D01*
X160085000Y-108872333D01*
X160121546Y-108688604D01*
X160193234Y-108515534D01*
X160297312Y-108359770D01*
X160429770Y-108227312D01*
X160585534Y-108123234D01*
X160758604Y-108051546D01*
X160942333Y-108015000D01*
X161129667Y-108015000D01*
X161313396Y-108051546D01*
X161313396Y-108051546D01*
G37*
G36*
X139977396Y-108051546D02*
X140150466Y-108123234D01*
X140306230Y-108227312D01*
X140438688Y-108359770D01*
X140542766Y-108515534D01*
X140614454Y-108688604D01*
X140651000Y-108872333D01*
X140651000Y-109059667D01*
X140614454Y-109243396D01*
X140542766Y-109416466D01*
X140438688Y-109572230D01*
X140306230Y-109704688D01*
X140150466Y-109808766D01*
X139977396Y-109880454D01*
X139793667Y-109917000D01*
X139606333Y-109917000D01*
X139422604Y-109880454D01*
X139249534Y-109808766D01*
X139093770Y-109704688D01*
X138961312Y-109572230D01*
X138857234Y-109416466D01*
X138785546Y-109243396D01*
X138749000Y-109059667D01*
X138749000Y-108872333D01*
X138785546Y-108688604D01*
X138857234Y-108515534D01*
X138961312Y-108359770D01*
X139093770Y-108227312D01*
X139249534Y-108123234D01*
X139422604Y-108051546D01*
X139606333Y-108015000D01*
X139793667Y-108015000D01*
X139977396Y-108051546D01*
X139977396Y-108051546D01*
G37*
G36*
X143191000Y-109917000D02*
X141289000Y-109917000D01*
X141289000Y-108015000D01*
X143191000Y-108015000D01*
X143191000Y-109917000D01*
X143191000Y-109917000D01*
G37*
G36*
X150303000Y-109917000D02*
X148401000Y-109917000D01*
X148401000Y-108015000D01*
X150303000Y-108015000D01*
X150303000Y-109917000D01*
X150303000Y-109917000D01*
G37*
G36*
X147089396Y-108051546D02*
X147262466Y-108123234D01*
X147418230Y-108227312D01*
X147550688Y-108359770D01*
X147654766Y-108515534D01*
X147726454Y-108688604D01*
X147763000Y-108872333D01*
X147763000Y-109059667D01*
X147726454Y-109243396D01*
X147654766Y-109416466D01*
X147550688Y-109572230D01*
X147418230Y-109704688D01*
X147262466Y-109808766D01*
X147089396Y-109880454D01*
X146905667Y-109917000D01*
X146718333Y-109917000D01*
X146534604Y-109880454D01*
X146361534Y-109808766D01*
X146205770Y-109704688D01*
X146073312Y-109572230D01*
X145969234Y-109416466D01*
X145897546Y-109243396D01*
X145861000Y-109059667D01*
X145861000Y-108872333D01*
X145897546Y-108688604D01*
X145969234Y-108515534D01*
X146073312Y-108359770D01*
X146205770Y-108227312D01*
X146361534Y-108123234D01*
X146534604Y-108051546D01*
X146718333Y-108015000D01*
X146905667Y-108015000D01*
X147089396Y-108051546D01*
X147089396Y-108051546D01*
G37*
G36*
X154201396Y-108051546D02*
X154374466Y-108123234D01*
X154530230Y-108227312D01*
X154662688Y-108359770D01*
X154766766Y-108515534D01*
X154838454Y-108688604D01*
X154875000Y-108872333D01*
X154875000Y-109059667D01*
X154838454Y-109243396D01*
X154766766Y-109416466D01*
X154662688Y-109572230D01*
X154530230Y-109704688D01*
X154374466Y-109808766D01*
X154201396Y-109880454D01*
X154017667Y-109917000D01*
X153830333Y-109917000D01*
X153646604Y-109880454D01*
X153473534Y-109808766D01*
X153317770Y-109704688D01*
X153185312Y-109572230D01*
X153081234Y-109416466D01*
X153009546Y-109243396D01*
X152973000Y-109059667D01*
X152973000Y-108872333D01*
X153009546Y-108688604D01*
X153081234Y-108515534D01*
X153185312Y-108359770D01*
X153317770Y-108227312D01*
X153473534Y-108123234D01*
X153646604Y-108051546D01*
X153830333Y-108015000D01*
X154017667Y-108015000D01*
X154201396Y-108051546D01*
X154201396Y-108051546D01*
G37*
G36*
X136021000Y-107403000D02*
X135119000Y-107403000D01*
X135119000Y-106401000D01*
X136021000Y-106401000D01*
X136021000Y-107403000D01*
X136021000Y-107403000D01*
G37*
G36*
X140071966Y-105552565D02*
X140110637Y-105564296D01*
X140146279Y-105583348D01*
X140177517Y-105608983D01*
X140203152Y-105640221D01*
X140222204Y-105675863D01*
X140233935Y-105714534D01*
X140238500Y-105760888D01*
X140238500Y-106837112D01*
X140233935Y-106883466D01*
X140222204Y-106922137D01*
X140203152Y-106957779D01*
X140177517Y-106989017D01*
X140146279Y-107014652D01*
X140110637Y-107033704D01*
X140071966Y-107045435D01*
X140025612Y-107050000D01*
X139374388Y-107050000D01*
X139328034Y-107045435D01*
X139289363Y-107033704D01*
X139253721Y-107014652D01*
X139222483Y-106989017D01*
X139196848Y-106957779D01*
X139177796Y-106922137D01*
X139166065Y-106883466D01*
X139161500Y-106837112D01*
X139161500Y-105760888D01*
X139166065Y-105714534D01*
X139177796Y-105675863D01*
X139196848Y-105640221D01*
X139222483Y-105608983D01*
X139253721Y-105583348D01*
X139289363Y-105564296D01*
X139328034Y-105552565D01*
X139374388Y-105548000D01*
X140025612Y-105548000D01*
X140071966Y-105552565D01*
X140071966Y-105552565D01*
G37*
G36*
X138196966Y-105552565D02*
X138235637Y-105564296D01*
X138271279Y-105583348D01*
X138302517Y-105608983D01*
X138328152Y-105640221D01*
X138347204Y-105675863D01*
X138358935Y-105714534D01*
X138363500Y-105760888D01*
X138363500Y-106837112D01*
X138358935Y-106883466D01*
X138347204Y-106922137D01*
X138328152Y-106957779D01*
X138302517Y-106989017D01*
X138271279Y-107014652D01*
X138235637Y-107033704D01*
X138196966Y-107045435D01*
X138150612Y-107050000D01*
X137499388Y-107050000D01*
X137453034Y-107045435D01*
X137414363Y-107033704D01*
X137378721Y-107014652D01*
X137347483Y-106989017D01*
X137321848Y-106957779D01*
X137302796Y-106922137D01*
X137291065Y-106883466D01*
X137286500Y-106837112D01*
X137286500Y-105760888D01*
X137291065Y-105714534D01*
X137302796Y-105675863D01*
X137321848Y-105640221D01*
X137347483Y-105608983D01*
X137378721Y-105583348D01*
X137414363Y-105564296D01*
X137453034Y-105552565D01*
X137499388Y-105548000D01*
X138150612Y-105548000D01*
X138196966Y-105552565D01*
X138196966Y-105552565D01*
G37*
G36*
X123668000Y-106713000D02*
X122966000Y-106713000D01*
X122966000Y-105111000D01*
X123668000Y-105111000D01*
X123668000Y-106713000D01*
X123668000Y-106713000D01*
G37*
G36*
X131288000Y-106713000D02*
X130586000Y-106713000D01*
X130586000Y-105111000D01*
X131288000Y-105111000D01*
X131288000Y-106713000D01*
X131288000Y-106713000D01*
G37*
G36*
X130018000Y-106713000D02*
X129316000Y-106713000D01*
X129316000Y-105111000D01*
X130018000Y-105111000D01*
X130018000Y-106713000D01*
X130018000Y-106713000D01*
G37*
G36*
X128748000Y-106713000D02*
X128046000Y-106713000D01*
X128046000Y-105111000D01*
X128748000Y-105111000D01*
X128748000Y-106713000D01*
X128748000Y-106713000D01*
G37*
G36*
X127478000Y-106713000D02*
X126776000Y-106713000D01*
X126776000Y-105111000D01*
X127478000Y-105111000D01*
X127478000Y-106713000D01*
X127478000Y-106713000D01*
G37*
G36*
X132558000Y-106713000D02*
X131856000Y-106713000D01*
X131856000Y-105111000D01*
X132558000Y-105111000D01*
X132558000Y-106713000D01*
X132558000Y-106713000D01*
G37*
G36*
X126208000Y-106713000D02*
X125506000Y-106713000D01*
X125506000Y-105111000D01*
X126208000Y-105111000D01*
X126208000Y-106713000D01*
X126208000Y-106713000D01*
G37*
G36*
X124938000Y-106713000D02*
X124236000Y-106713000D01*
X124236000Y-105111000D01*
X124938000Y-105111000D01*
X124938000Y-106713000D01*
X124938000Y-106713000D01*
G37*
G36*
X135071000Y-105403000D02*
X134169000Y-105403000D01*
X134169000Y-104401000D01*
X135071000Y-104401000D01*
X135071000Y-105403000D01*
X135071000Y-105403000D01*
G37*
G36*
X136971000Y-105403000D02*
X136069000Y-105403000D01*
X136069000Y-104401000D01*
X136971000Y-104401000D01*
X136971000Y-105403000D01*
X136971000Y-105403000D01*
G37*
G36*
X136087000Y-103371000D02*
X135185000Y-103371000D01*
X135185000Y-102369000D01*
X136087000Y-102369000D01*
X136087000Y-103371000D01*
X136087000Y-103371000D01*
G37*
G36*
X175537396Y-100939546D02*
X175710466Y-101011234D01*
X175866230Y-101115312D01*
X175998688Y-101247770D01*
X176102766Y-101403534D01*
X176174454Y-101576604D01*
X176211000Y-101760333D01*
X176211000Y-101947667D01*
X176174454Y-102131396D01*
X176102766Y-102304466D01*
X175998688Y-102460230D01*
X175866230Y-102592688D01*
X175710466Y-102696766D01*
X175537396Y-102768454D01*
X175353667Y-102805000D01*
X175166333Y-102805000D01*
X174982604Y-102768454D01*
X174809534Y-102696766D01*
X174653770Y-102592688D01*
X174521312Y-102460230D01*
X174417234Y-102304466D01*
X174345546Y-102131396D01*
X174309000Y-101947667D01*
X174309000Y-101760333D01*
X174345546Y-101576604D01*
X174417234Y-101403534D01*
X174521312Y-101247770D01*
X174653770Y-101115312D01*
X174809534Y-101011234D01*
X174982604Y-100939546D01*
X175166333Y-100903000D01*
X175353667Y-100903000D01*
X175537396Y-100939546D01*
X175537396Y-100939546D01*
G37*
G36*
X143191000Y-102805000D02*
X141289000Y-102805000D01*
X141289000Y-100903000D01*
X143191000Y-100903000D01*
X143191000Y-102805000D01*
X143191000Y-102805000D01*
G37*
G36*
X139977396Y-100939546D02*
X140150466Y-101011234D01*
X140306230Y-101115312D01*
X140438688Y-101247770D01*
X140542766Y-101403534D01*
X140614454Y-101576604D01*
X140651000Y-101760333D01*
X140651000Y-101947667D01*
X140614454Y-102131396D01*
X140542766Y-102304466D01*
X140438688Y-102460230D01*
X140306230Y-102592688D01*
X140150466Y-102696766D01*
X139977396Y-102768454D01*
X139793667Y-102805000D01*
X139606333Y-102805000D01*
X139422604Y-102768454D01*
X139249534Y-102696766D01*
X139093770Y-102592688D01*
X138961312Y-102460230D01*
X138857234Y-102304466D01*
X138785546Y-102131396D01*
X138749000Y-101947667D01*
X138749000Y-101760333D01*
X138785546Y-101576604D01*
X138857234Y-101403534D01*
X138961312Y-101247770D01*
X139093770Y-101115312D01*
X139249534Y-101011234D01*
X139422604Y-100939546D01*
X139606333Y-100903000D01*
X139793667Y-100903000D01*
X139977396Y-100939546D01*
X139977396Y-100939546D01*
G37*
G36*
X150303000Y-102805000D02*
X148401000Y-102805000D01*
X148401000Y-100903000D01*
X150303000Y-100903000D01*
X150303000Y-102805000D01*
X150303000Y-102805000D01*
G37*
G36*
X147089396Y-100939546D02*
X147262466Y-101011234D01*
X147418230Y-101115312D01*
X147550688Y-101247770D01*
X147654766Y-101403534D01*
X147726454Y-101576604D01*
X147763000Y-101760333D01*
X147763000Y-101947667D01*
X147726454Y-102131396D01*
X147654766Y-102304466D01*
X147550688Y-102460230D01*
X147418230Y-102592688D01*
X147262466Y-102696766D01*
X147089396Y-102768454D01*
X146905667Y-102805000D01*
X146718333Y-102805000D01*
X146534604Y-102768454D01*
X146361534Y-102696766D01*
X146205770Y-102592688D01*
X146073312Y-102460230D01*
X145969234Y-102304466D01*
X145897546Y-102131396D01*
X145861000Y-101947667D01*
X145861000Y-101760333D01*
X145897546Y-101576604D01*
X145969234Y-101403534D01*
X146073312Y-101247770D01*
X146205770Y-101115312D01*
X146361534Y-101011234D01*
X146534604Y-100939546D01*
X146718333Y-100903000D01*
X146905667Y-100903000D01*
X147089396Y-100939546D01*
X147089396Y-100939546D01*
G37*
G36*
X154201396Y-100939546D02*
X154374466Y-101011234D01*
X154530230Y-101115312D01*
X154662688Y-101247770D01*
X154766766Y-101403534D01*
X154838454Y-101576604D01*
X154875000Y-101760333D01*
X154875000Y-101947667D01*
X154838454Y-102131396D01*
X154766766Y-102304466D01*
X154662688Y-102460230D01*
X154530230Y-102592688D01*
X154374466Y-102696766D01*
X154201396Y-102768454D01*
X154017667Y-102805000D01*
X153830333Y-102805000D01*
X153646604Y-102768454D01*
X153473534Y-102696766D01*
X153317770Y-102592688D01*
X153185312Y-102460230D01*
X153081234Y-102304466D01*
X153009546Y-102131396D01*
X152973000Y-101947667D01*
X152973000Y-101760333D01*
X153009546Y-101576604D01*
X153081234Y-101403534D01*
X153185312Y-101247770D01*
X153317770Y-101115312D01*
X153473534Y-101011234D01*
X153646604Y-100939546D01*
X153830333Y-100903000D01*
X154017667Y-100903000D01*
X154201396Y-100939546D01*
X154201396Y-100939546D01*
G37*
G36*
X157415000Y-102805000D02*
X155513000Y-102805000D01*
X155513000Y-100903000D01*
X157415000Y-100903000D01*
X157415000Y-102805000D01*
X157415000Y-102805000D01*
G37*
G36*
X164527000Y-102805000D02*
X162625000Y-102805000D01*
X162625000Y-100903000D01*
X164527000Y-100903000D01*
X164527000Y-102805000D01*
X164527000Y-102805000D01*
G37*
G36*
X168425396Y-100939546D02*
X168598466Y-101011234D01*
X168754230Y-101115312D01*
X168886688Y-101247770D01*
X168990766Y-101403534D01*
X169062454Y-101576604D01*
X169099000Y-101760333D01*
X169099000Y-101947667D01*
X169062454Y-102131396D01*
X168990766Y-102304466D01*
X168886688Y-102460230D01*
X168754230Y-102592688D01*
X168598466Y-102696766D01*
X168425396Y-102768454D01*
X168241667Y-102805000D01*
X168054333Y-102805000D01*
X167870604Y-102768454D01*
X167697534Y-102696766D01*
X167541770Y-102592688D01*
X167409312Y-102460230D01*
X167305234Y-102304466D01*
X167233546Y-102131396D01*
X167197000Y-101947667D01*
X167197000Y-101760333D01*
X167233546Y-101576604D01*
X167305234Y-101403534D01*
X167409312Y-101247770D01*
X167541770Y-101115312D01*
X167697534Y-101011234D01*
X167870604Y-100939546D01*
X168054333Y-100903000D01*
X168241667Y-100903000D01*
X168425396Y-100939546D01*
X168425396Y-100939546D01*
G37*
G36*
X161313396Y-100939546D02*
X161486466Y-101011234D01*
X161642230Y-101115312D01*
X161774688Y-101247770D01*
X161878766Y-101403534D01*
X161950454Y-101576604D01*
X161987000Y-101760333D01*
X161987000Y-101947667D01*
X161950454Y-102131396D01*
X161878766Y-102304466D01*
X161774688Y-102460230D01*
X161642230Y-102592688D01*
X161486466Y-102696766D01*
X161313396Y-102768454D01*
X161129667Y-102805000D01*
X160942333Y-102805000D01*
X160758604Y-102768454D01*
X160585534Y-102696766D01*
X160429770Y-102592688D01*
X160297312Y-102460230D01*
X160193234Y-102304466D01*
X160121546Y-102131396D01*
X160085000Y-101947667D01*
X160085000Y-101760333D01*
X160121546Y-101576604D01*
X160193234Y-101403534D01*
X160297312Y-101247770D01*
X160429770Y-101115312D01*
X160585534Y-101011234D01*
X160758604Y-100939546D01*
X160942333Y-100903000D01*
X161129667Y-100903000D01*
X161313396Y-100939546D01*
X161313396Y-100939546D01*
G37*
G36*
X189761396Y-100939546D02*
X189934466Y-101011234D01*
X190090230Y-101115312D01*
X190222688Y-101247770D01*
X190326766Y-101403534D01*
X190398454Y-101576604D01*
X190435000Y-101760333D01*
X190435000Y-101947667D01*
X190398454Y-102131396D01*
X190326766Y-102304466D01*
X190222688Y-102460230D01*
X190090230Y-102592688D01*
X189934466Y-102696766D01*
X189761396Y-102768454D01*
X189577667Y-102805000D01*
X189390333Y-102805000D01*
X189206604Y-102768454D01*
X189033534Y-102696766D01*
X188877770Y-102592688D01*
X188745312Y-102460230D01*
X188641234Y-102304466D01*
X188569546Y-102131396D01*
X188533000Y-101947667D01*
X188533000Y-101760333D01*
X188569546Y-101576604D01*
X188641234Y-101403534D01*
X188745312Y-101247770D01*
X188877770Y-101115312D01*
X189033534Y-101011234D01*
X189206604Y-100939546D01*
X189390333Y-100903000D01*
X189577667Y-100903000D01*
X189761396Y-100939546D01*
X189761396Y-100939546D01*
G37*
G36*
X185863000Y-102805000D02*
X183961000Y-102805000D01*
X183961000Y-100903000D01*
X185863000Y-100903000D01*
X185863000Y-102805000D01*
X185863000Y-102805000D01*
G37*
G36*
X178751000Y-102805000D02*
X176849000Y-102805000D01*
X176849000Y-100903000D01*
X178751000Y-100903000D01*
X178751000Y-102805000D01*
X178751000Y-102805000D01*
G37*
G36*
X192975000Y-102805000D02*
X191073000Y-102805000D01*
X191073000Y-100903000D01*
X192975000Y-100903000D01*
X192975000Y-102805000D01*
X192975000Y-102805000D01*
G37*
G36*
X182649396Y-100939546D02*
X182822466Y-101011234D01*
X182978230Y-101115312D01*
X183110688Y-101247770D01*
X183214766Y-101403534D01*
X183286454Y-101576604D01*
X183323000Y-101760333D01*
X183323000Y-101947667D01*
X183286454Y-102131396D01*
X183214766Y-102304466D01*
X183110688Y-102460230D01*
X182978230Y-102592688D01*
X182822466Y-102696766D01*
X182649396Y-102768454D01*
X182465667Y-102805000D01*
X182278333Y-102805000D01*
X182094604Y-102768454D01*
X181921534Y-102696766D01*
X181765770Y-102592688D01*
X181633312Y-102460230D01*
X181529234Y-102304466D01*
X181457546Y-102131396D01*
X181421000Y-101947667D01*
X181421000Y-101760333D01*
X181457546Y-101576604D01*
X181529234Y-101403534D01*
X181633312Y-101247770D01*
X181765770Y-101115312D01*
X181921534Y-101011234D01*
X182094604Y-100939546D01*
X182278333Y-100903000D01*
X182465667Y-100903000D01*
X182649396Y-100939546D01*
X182649396Y-100939546D01*
G37*
G36*
X171639000Y-102805000D02*
X169737000Y-102805000D01*
X169737000Y-100903000D01*
X171639000Y-100903000D01*
X171639000Y-102805000D01*
X171639000Y-102805000D01*
G37*
G36*
X135137000Y-101371000D02*
X134235000Y-101371000D01*
X134235000Y-100369000D01*
X135137000Y-100369000D01*
X135137000Y-101371000D01*
X135137000Y-101371000D01*
G37*
G36*
X137037000Y-101371000D02*
X136135000Y-101371000D01*
X136135000Y-100369000D01*
X137037000Y-100369000D01*
X137037000Y-101371000D01*
X137037000Y-101371000D01*
G37*
G36*
X140071966Y-98694565D02*
X140110637Y-98706296D01*
X140146279Y-98725348D01*
X140177517Y-98750983D01*
X140203152Y-98782221D01*
X140222204Y-98817863D01*
X140233935Y-98856534D01*
X140238500Y-98902888D01*
X140238500Y-99979112D01*
X140233935Y-100025466D01*
X140222204Y-100064137D01*
X140203152Y-100099779D01*
X140177517Y-100131017D01*
X140146279Y-100156652D01*
X140110637Y-100175704D01*
X140071966Y-100187435D01*
X140025612Y-100192000D01*
X139374388Y-100192000D01*
X139328034Y-100187435D01*
X139289363Y-100175704D01*
X139253721Y-100156652D01*
X139222483Y-100131017D01*
X139196848Y-100099779D01*
X139177796Y-100064137D01*
X139166065Y-100025466D01*
X139161500Y-99979112D01*
X139161500Y-98902888D01*
X139166065Y-98856534D01*
X139177796Y-98817863D01*
X139196848Y-98782221D01*
X139222483Y-98750983D01*
X139253721Y-98725348D01*
X139289363Y-98706296D01*
X139328034Y-98694565D01*
X139374388Y-98690000D01*
X140025612Y-98690000D01*
X140071966Y-98694565D01*
X140071966Y-98694565D01*
G37*
G36*
X138196966Y-98694565D02*
X138235637Y-98706296D01*
X138271279Y-98725348D01*
X138302517Y-98750983D01*
X138328152Y-98782221D01*
X138347204Y-98817863D01*
X138358935Y-98856534D01*
X138363500Y-98902888D01*
X138363500Y-99979112D01*
X138358935Y-100025466D01*
X138347204Y-100064137D01*
X138328152Y-100099779D01*
X138302517Y-100131017D01*
X138271279Y-100156652D01*
X138235637Y-100175704D01*
X138196966Y-100187435D01*
X138150612Y-100192000D01*
X137499388Y-100192000D01*
X137453034Y-100187435D01*
X137414363Y-100175704D01*
X137378721Y-100156652D01*
X137347483Y-100131017D01*
X137321848Y-100099779D01*
X137302796Y-100064137D01*
X137291065Y-100025466D01*
X137286500Y-99979112D01*
X137286500Y-98902888D01*
X137291065Y-98856534D01*
X137302796Y-98817863D01*
X137321848Y-98782221D01*
X137347483Y-98750983D01*
X137378721Y-98725348D01*
X137414363Y-98706296D01*
X137453034Y-98694565D01*
X137499388Y-98690000D01*
X138150612Y-98690000D01*
X138196966Y-98694565D01*
X138196966Y-98694565D01*
G37*
G36*
X124938000Y-99613000D02*
X124236000Y-99613000D01*
X124236000Y-98011000D01*
X124938000Y-98011000D01*
X124938000Y-99613000D01*
X124938000Y-99613000D01*
G37*
G36*
X132558000Y-99613000D02*
X131856000Y-99613000D01*
X131856000Y-98011000D01*
X132558000Y-98011000D01*
X132558000Y-99613000D01*
X132558000Y-99613000D01*
G37*
G36*
X128748000Y-99613000D02*
X128046000Y-99613000D01*
X128046000Y-98011000D01*
X128748000Y-98011000D01*
X128748000Y-99613000D01*
X128748000Y-99613000D01*
G37*
G36*
X127478000Y-99613000D02*
X126776000Y-99613000D01*
X126776000Y-98011000D01*
X127478000Y-98011000D01*
X127478000Y-99613000D01*
X127478000Y-99613000D01*
G37*
G36*
X131288000Y-99613000D02*
X130586000Y-99613000D01*
X130586000Y-98011000D01*
X131288000Y-98011000D01*
X131288000Y-99613000D01*
X131288000Y-99613000D01*
G37*
G36*
X126208000Y-99613000D02*
X125506000Y-99613000D01*
X125506000Y-98011000D01*
X126208000Y-98011000D01*
X126208000Y-99613000D01*
X126208000Y-99613000D01*
G37*
G36*
X123668000Y-99613000D02*
X122966000Y-99613000D01*
X122966000Y-98011000D01*
X123668000Y-98011000D01*
X123668000Y-99613000D01*
X123668000Y-99613000D01*
G37*
G36*
X130018000Y-99613000D02*
X129316000Y-99613000D01*
X129316000Y-98011000D01*
X130018000Y-98011000D01*
X130018000Y-99613000D01*
X130018000Y-99613000D01*
G37*
G36*
X134453966Y-96027565D02*
X134492637Y-96039296D01*
X134528279Y-96058348D01*
X134559517Y-96083983D01*
X134585152Y-96115221D01*
X134604204Y-96150863D01*
X134615935Y-96189534D01*
X134620500Y-96235888D01*
X134620500Y-97312112D01*
X134615935Y-97358466D01*
X134604204Y-97397137D01*
X134585152Y-97432779D01*
X134559517Y-97464017D01*
X134528279Y-97489652D01*
X134492637Y-97508704D01*
X134453966Y-97520435D01*
X134407612Y-97525000D01*
X133756388Y-97525000D01*
X133710034Y-97520435D01*
X133671363Y-97508704D01*
X133635721Y-97489652D01*
X133604483Y-97464017D01*
X133578848Y-97432779D01*
X133559796Y-97397137D01*
X133548065Y-97358466D01*
X133543500Y-97312112D01*
X133543500Y-96235888D01*
X133548065Y-96189534D01*
X133559796Y-96150863D01*
X133578848Y-96115221D01*
X133604483Y-96083983D01*
X133635721Y-96058348D01*
X133671363Y-96039296D01*
X133710034Y-96027565D01*
X133756388Y-96023000D01*
X134407612Y-96023000D01*
X134453966Y-96027565D01*
X134453966Y-96027565D01*
G37*
G36*
X132578966Y-96027565D02*
X132617637Y-96039296D01*
X132653279Y-96058348D01*
X132684517Y-96083983D01*
X132710152Y-96115221D01*
X132729204Y-96150863D01*
X132740935Y-96189534D01*
X132745500Y-96235888D01*
X132745500Y-97312112D01*
X132740935Y-97358466D01*
X132729204Y-97397137D01*
X132710152Y-97432779D01*
X132684517Y-97464017D01*
X132653279Y-97489652D01*
X132617637Y-97508704D01*
X132578966Y-97520435D01*
X132532612Y-97525000D01*
X131881388Y-97525000D01*
X131835034Y-97520435D01*
X131796363Y-97508704D01*
X131760721Y-97489652D01*
X131729483Y-97464017D01*
X131703848Y-97432779D01*
X131684796Y-97397137D01*
X131673065Y-97358466D01*
X131668500Y-97312112D01*
X131668500Y-96235888D01*
X131673065Y-96189534D01*
X131684796Y-96150863D01*
X131703848Y-96115221D01*
X131729483Y-96083983D01*
X131760721Y-96058348D01*
X131796363Y-96039296D01*
X131835034Y-96027565D01*
X131881388Y-96023000D01*
X132532612Y-96023000D01*
X132578966Y-96027565D01*
X132578966Y-96027565D01*
G37*
G36*
X136087000Y-96513000D02*
X135185000Y-96513000D01*
X135185000Y-95511000D01*
X136087000Y-95511000D01*
X136087000Y-96513000D01*
X136087000Y-96513000D01*
G37*
G36*
X171639000Y-95693000D02*
X169737000Y-95693000D01*
X169737000Y-93791000D01*
X171639000Y-93791000D01*
X171639000Y-95693000D01*
X171639000Y-95693000D01*
G37*
G36*
X164527000Y-95693000D02*
X162625000Y-95693000D01*
X162625000Y-93791000D01*
X164527000Y-93791000D01*
X164527000Y-95693000D01*
X164527000Y-95693000D01*
G37*
G36*
X192975000Y-95693000D02*
X191073000Y-95693000D01*
X191073000Y-93791000D01*
X192975000Y-93791000D01*
X192975000Y-95693000D01*
X192975000Y-95693000D01*
G37*
G36*
X178751000Y-95693000D02*
X176849000Y-95693000D01*
X176849000Y-93791000D01*
X178751000Y-93791000D01*
X178751000Y-95693000D01*
X178751000Y-95693000D01*
G37*
G36*
X175537396Y-93827546D02*
X175710466Y-93899234D01*
X175866230Y-94003312D01*
X175998688Y-94135770D01*
X176102766Y-94291534D01*
X176174454Y-94464604D01*
X176211000Y-94648333D01*
X176211000Y-94835667D01*
X176174454Y-95019396D01*
X176102766Y-95192466D01*
X175998688Y-95348230D01*
X175866230Y-95480688D01*
X175710466Y-95584766D01*
X175537396Y-95656454D01*
X175353667Y-95693000D01*
X175166333Y-95693000D01*
X174982604Y-95656454D01*
X174809534Y-95584766D01*
X174653770Y-95480688D01*
X174521312Y-95348230D01*
X174417234Y-95192466D01*
X174345546Y-95019396D01*
X174309000Y-94835667D01*
X174309000Y-94648333D01*
X174345546Y-94464604D01*
X174417234Y-94291534D01*
X174521312Y-94135770D01*
X174653770Y-94003312D01*
X174809534Y-93899234D01*
X174982604Y-93827546D01*
X175166333Y-93791000D01*
X175353667Y-93791000D01*
X175537396Y-93827546D01*
X175537396Y-93827546D01*
G37*
G36*
X168425396Y-93827546D02*
X168598466Y-93899234D01*
X168754230Y-94003312D01*
X168886688Y-94135770D01*
X168990766Y-94291534D01*
X169062454Y-94464604D01*
X169099000Y-94648333D01*
X169099000Y-94835667D01*
X169062454Y-95019396D01*
X168990766Y-95192466D01*
X168886688Y-95348230D01*
X168754230Y-95480688D01*
X168598466Y-95584766D01*
X168425396Y-95656454D01*
X168241667Y-95693000D01*
X168054333Y-95693000D01*
X167870604Y-95656454D01*
X167697534Y-95584766D01*
X167541770Y-95480688D01*
X167409312Y-95348230D01*
X167305234Y-95192466D01*
X167233546Y-95019396D01*
X167197000Y-94835667D01*
X167197000Y-94648333D01*
X167233546Y-94464604D01*
X167305234Y-94291534D01*
X167409312Y-94135770D01*
X167541770Y-94003312D01*
X167697534Y-93899234D01*
X167870604Y-93827546D01*
X168054333Y-93791000D01*
X168241667Y-93791000D01*
X168425396Y-93827546D01*
X168425396Y-93827546D01*
G37*
G36*
X157415000Y-95693000D02*
X155513000Y-95693000D01*
X155513000Y-93791000D01*
X157415000Y-93791000D01*
X157415000Y-95693000D01*
X157415000Y-95693000D01*
G37*
G36*
X161313396Y-93827546D02*
X161486466Y-93899234D01*
X161642230Y-94003312D01*
X161774688Y-94135770D01*
X161878766Y-94291534D01*
X161950454Y-94464604D01*
X161987000Y-94648333D01*
X161987000Y-94835667D01*
X161950454Y-95019396D01*
X161878766Y-95192466D01*
X161774688Y-95348230D01*
X161642230Y-95480688D01*
X161486466Y-95584766D01*
X161313396Y-95656454D01*
X161129667Y-95693000D01*
X160942333Y-95693000D01*
X160758604Y-95656454D01*
X160585534Y-95584766D01*
X160429770Y-95480688D01*
X160297312Y-95348230D01*
X160193234Y-95192466D01*
X160121546Y-95019396D01*
X160085000Y-94835667D01*
X160085000Y-94648333D01*
X160121546Y-94464604D01*
X160193234Y-94291534D01*
X160297312Y-94135770D01*
X160429770Y-94003312D01*
X160585534Y-93899234D01*
X160758604Y-93827546D01*
X160942333Y-93791000D01*
X161129667Y-93791000D01*
X161313396Y-93827546D01*
X161313396Y-93827546D01*
G37*
G36*
X185863000Y-95693000D02*
X183961000Y-95693000D01*
X183961000Y-93791000D01*
X185863000Y-93791000D01*
X185863000Y-95693000D01*
X185863000Y-95693000D01*
G37*
G36*
X182649396Y-93827546D02*
X182822466Y-93899234D01*
X182978230Y-94003312D01*
X183110688Y-94135770D01*
X183214766Y-94291534D01*
X183286454Y-94464604D01*
X183323000Y-94648333D01*
X183323000Y-94835667D01*
X183286454Y-95019396D01*
X183214766Y-95192466D01*
X183110688Y-95348230D01*
X182978230Y-95480688D01*
X182822466Y-95584766D01*
X182649396Y-95656454D01*
X182465667Y-95693000D01*
X182278333Y-95693000D01*
X182094604Y-95656454D01*
X181921534Y-95584766D01*
X181765770Y-95480688D01*
X181633312Y-95348230D01*
X181529234Y-95192466D01*
X181457546Y-95019396D01*
X181421000Y-94835667D01*
X181421000Y-94648333D01*
X181457546Y-94464604D01*
X181529234Y-94291534D01*
X181633312Y-94135770D01*
X181765770Y-94003312D01*
X181921534Y-93899234D01*
X182094604Y-93827546D01*
X182278333Y-93791000D01*
X182465667Y-93791000D01*
X182649396Y-93827546D01*
X182649396Y-93827546D01*
G37*
G36*
X154201396Y-93827546D02*
X154374466Y-93899234D01*
X154530230Y-94003312D01*
X154662688Y-94135770D01*
X154766766Y-94291534D01*
X154838454Y-94464604D01*
X154875000Y-94648333D01*
X154875000Y-94835667D01*
X154838454Y-95019396D01*
X154766766Y-95192466D01*
X154662688Y-95348230D01*
X154530230Y-95480688D01*
X154374466Y-95584766D01*
X154201396Y-95656454D01*
X154017667Y-95693000D01*
X153830333Y-95693000D01*
X153646604Y-95656454D01*
X153473534Y-95584766D01*
X153317770Y-95480688D01*
X153185312Y-95348230D01*
X153081234Y-95192466D01*
X153009546Y-95019396D01*
X152973000Y-94835667D01*
X152973000Y-94648333D01*
X153009546Y-94464604D01*
X153081234Y-94291534D01*
X153185312Y-94135770D01*
X153317770Y-94003312D01*
X153473534Y-93899234D01*
X153646604Y-93827546D01*
X153830333Y-93791000D01*
X154017667Y-93791000D01*
X154201396Y-93827546D01*
X154201396Y-93827546D01*
G37*
G36*
X189761396Y-93827546D02*
X189934466Y-93899234D01*
X190090230Y-94003312D01*
X190222688Y-94135770D01*
X190326766Y-94291534D01*
X190398454Y-94464604D01*
X190435000Y-94648333D01*
X190435000Y-94835667D01*
X190398454Y-95019396D01*
X190326766Y-95192466D01*
X190222688Y-95348230D01*
X190090230Y-95480688D01*
X189934466Y-95584766D01*
X189761396Y-95656454D01*
X189577667Y-95693000D01*
X189390333Y-95693000D01*
X189206604Y-95656454D01*
X189033534Y-95584766D01*
X188877770Y-95480688D01*
X188745312Y-95348230D01*
X188641234Y-95192466D01*
X188569546Y-95019396D01*
X188533000Y-94835667D01*
X188533000Y-94648333D01*
X188569546Y-94464604D01*
X188641234Y-94291534D01*
X188745312Y-94135770D01*
X188877770Y-94003312D01*
X189033534Y-93899234D01*
X189206604Y-93827546D01*
X189390333Y-93791000D01*
X189577667Y-93791000D01*
X189761396Y-93827546D01*
X189761396Y-93827546D01*
G37*
G36*
X133631000Y-95601000D02*
X132029000Y-95601000D01*
X132029000Y-94899000D01*
X133631000Y-94899000D01*
X133631000Y-95601000D01*
X133631000Y-95601000D01*
G37*
G36*
X126531000Y-95601000D02*
X124929000Y-95601000D01*
X124929000Y-94899000D01*
X126531000Y-94899000D01*
X126531000Y-95601000D01*
X126531000Y-95601000D01*
G37*
G36*
X143191000Y-95566000D02*
X141289000Y-95566000D01*
X141289000Y-93664000D01*
X143191000Y-93664000D01*
X143191000Y-95566000D01*
X143191000Y-95566000D01*
G37*
G36*
X150303000Y-95566000D02*
X148401000Y-95566000D01*
X148401000Y-93664000D01*
X150303000Y-93664000D01*
X150303000Y-95566000D01*
X150303000Y-95566000D01*
G37*
G36*
X147089396Y-93700546D02*
X147262466Y-93772234D01*
X147418230Y-93876312D01*
X147550688Y-94008770D01*
X147654766Y-94164534D01*
X147726454Y-94337604D01*
X147763000Y-94521333D01*
X147763000Y-94708667D01*
X147726454Y-94892396D01*
X147654766Y-95065466D01*
X147550688Y-95221230D01*
X147418230Y-95353688D01*
X147262466Y-95457766D01*
X147089396Y-95529454D01*
X146905667Y-95566000D01*
X146718333Y-95566000D01*
X146534604Y-95529454D01*
X146361534Y-95457766D01*
X146205770Y-95353688D01*
X146073312Y-95221230D01*
X145969234Y-95065466D01*
X145897546Y-94892396D01*
X145861000Y-94708667D01*
X145861000Y-94521333D01*
X145897546Y-94337604D01*
X145969234Y-94164534D01*
X146073312Y-94008770D01*
X146205770Y-93876312D01*
X146361534Y-93772234D01*
X146534604Y-93700546D01*
X146718333Y-93664000D01*
X146905667Y-93664000D01*
X147089396Y-93700546D01*
X147089396Y-93700546D01*
G37*
G36*
X139977396Y-93700546D02*
X140150466Y-93772234D01*
X140306230Y-93876312D01*
X140438688Y-94008770D01*
X140542766Y-94164534D01*
X140614454Y-94337604D01*
X140651000Y-94521333D01*
X140651000Y-94708667D01*
X140614454Y-94892396D01*
X140542766Y-95065466D01*
X140438688Y-95221230D01*
X140306230Y-95353688D01*
X140150466Y-95457766D01*
X139977396Y-95529454D01*
X139793667Y-95566000D01*
X139606333Y-95566000D01*
X139422604Y-95529454D01*
X139249534Y-95457766D01*
X139093770Y-95353688D01*
X138961312Y-95221230D01*
X138857234Y-95065466D01*
X138785546Y-94892396D01*
X138749000Y-94708667D01*
X138749000Y-94521333D01*
X138785546Y-94337604D01*
X138857234Y-94164534D01*
X138961312Y-94008770D01*
X139093770Y-93876312D01*
X139249534Y-93772234D01*
X139422604Y-93700546D01*
X139606333Y-93664000D01*
X139793667Y-93664000D01*
X139977396Y-93700546D01*
X139977396Y-93700546D01*
G37*
G36*
X120027000Y-94627000D02*
X118225000Y-94627000D01*
X118225000Y-92825000D01*
X120027000Y-92825000D01*
X120027000Y-94627000D01*
X120027000Y-94627000D01*
G37*
G36*
X137037000Y-94513000D02*
X136135000Y-94513000D01*
X136135000Y-93511000D01*
X137037000Y-93511000D01*
X137037000Y-94513000D01*
X137037000Y-94513000D01*
G37*
G36*
X135137000Y-94513000D02*
X134235000Y-94513000D01*
X134235000Y-93511000D01*
X135137000Y-93511000D01*
X135137000Y-94513000D01*
X135137000Y-94513000D01*
G37*
G36*
X133631000Y-94331000D02*
X132029000Y-94331000D01*
X132029000Y-93629000D01*
X133631000Y-93629000D01*
X133631000Y-94331000D01*
X133631000Y-94331000D01*
G37*
G36*
X126531000Y-94331000D02*
X124929000Y-94331000D01*
X124929000Y-93629000D01*
X126531000Y-93629000D01*
X126531000Y-94331000D01*
X126531000Y-94331000D01*
G37*
G36*
X133631000Y-93061000D02*
X132029000Y-93061000D01*
X132029000Y-92359000D01*
X133631000Y-92359000D01*
X133631000Y-93061000D01*
X133631000Y-93061000D01*
G37*
G36*
X126531000Y-93061000D02*
X124929000Y-93061000D01*
X124929000Y-92359000D01*
X126531000Y-92359000D01*
X126531000Y-93061000D01*
X126531000Y-93061000D01*
G37*
G36*
X140168966Y-91455565D02*
X140207637Y-91467296D01*
X140243279Y-91486348D01*
X140274517Y-91511983D01*
X140300152Y-91543221D01*
X140319204Y-91578863D01*
X140330935Y-91617534D01*
X140335500Y-91663888D01*
X140335500Y-92740112D01*
X140330935Y-92786466D01*
X140319204Y-92825137D01*
X140300152Y-92860779D01*
X140274517Y-92892017D01*
X140243279Y-92917652D01*
X140207637Y-92936704D01*
X140168966Y-92948435D01*
X140122612Y-92953000D01*
X139471388Y-92953000D01*
X139425034Y-92948435D01*
X139386363Y-92936704D01*
X139350721Y-92917652D01*
X139319483Y-92892017D01*
X139293848Y-92860779D01*
X139274796Y-92825137D01*
X139263065Y-92786466D01*
X139258500Y-92740112D01*
X139258500Y-91663888D01*
X139263065Y-91617534D01*
X139274796Y-91578863D01*
X139293848Y-91543221D01*
X139319483Y-91511983D01*
X139350721Y-91486348D01*
X139386363Y-91467296D01*
X139425034Y-91455565D01*
X139471388Y-91451000D01*
X140122612Y-91451000D01*
X140168966Y-91455565D01*
X140168966Y-91455565D01*
G37*
G36*
X138293966Y-91455565D02*
X138332637Y-91467296D01*
X138368279Y-91486348D01*
X138399517Y-91511983D01*
X138425152Y-91543221D01*
X138444204Y-91578863D01*
X138455935Y-91617534D01*
X138460500Y-91663888D01*
X138460500Y-92740112D01*
X138455935Y-92786466D01*
X138444204Y-92825137D01*
X138425152Y-92860779D01*
X138399517Y-92892017D01*
X138368279Y-92917652D01*
X138332637Y-92936704D01*
X138293966Y-92948435D01*
X138247612Y-92953000D01*
X137596388Y-92953000D01*
X137550034Y-92948435D01*
X137511363Y-92936704D01*
X137475721Y-92917652D01*
X137444483Y-92892017D01*
X137418848Y-92860779D01*
X137399796Y-92825137D01*
X137388065Y-92786466D01*
X137383500Y-92740112D01*
X137383500Y-91663888D01*
X137388065Y-91617534D01*
X137399796Y-91578863D01*
X137418848Y-91543221D01*
X137444483Y-91511983D01*
X137475721Y-91486348D01*
X137511363Y-91467296D01*
X137550034Y-91455565D01*
X137596388Y-91451000D01*
X138247612Y-91451000D01*
X138293966Y-91455565D01*
X138293966Y-91455565D01*
G37*
G36*
X119236443Y-90291519D02*
X119302627Y-90298037D01*
X119415853Y-90332384D01*
X119472467Y-90349557D01*
X119611087Y-90423652D01*
X119628991Y-90433222D01*
X119664729Y-90462552D01*
X119766186Y-90545814D01*
X119849448Y-90647271D01*
X119878778Y-90683009D01*
X119878779Y-90683011D01*
X119962443Y-90839533D01*
X119975926Y-90883983D01*
X120013963Y-91009373D01*
X120031359Y-91186000D01*
X120013963Y-91362627D01*
X119987155Y-91451000D01*
X119962443Y-91532467D01*
X119937643Y-91578863D01*
X119878778Y-91688991D01*
X119853124Y-91720250D01*
X119766186Y-91826186D01*
X119676242Y-91900000D01*
X119628991Y-91938778D01*
X119628989Y-91938779D01*
X119472467Y-92022443D01*
X119415853Y-92039616D01*
X119302627Y-92073963D01*
X119236443Y-92080481D01*
X119170260Y-92087000D01*
X119081740Y-92087000D01*
X119015557Y-92080481D01*
X118949373Y-92073963D01*
X118836147Y-92039616D01*
X118779533Y-92022443D01*
X118623011Y-91938779D01*
X118623009Y-91938778D01*
X118575758Y-91900000D01*
X118485814Y-91826186D01*
X118398876Y-91720250D01*
X118373222Y-91688991D01*
X118314357Y-91578863D01*
X118289557Y-91532467D01*
X118264845Y-91451000D01*
X118238037Y-91362627D01*
X118220641Y-91186000D01*
X118238037Y-91009373D01*
X118276074Y-90883983D01*
X118289557Y-90839533D01*
X118373221Y-90683011D01*
X118373222Y-90683009D01*
X118402552Y-90647271D01*
X118485814Y-90545814D01*
X118587271Y-90462552D01*
X118623009Y-90433222D01*
X118640913Y-90423652D01*
X118779533Y-90349557D01*
X118836147Y-90332384D01*
X118949373Y-90298037D01*
X119015557Y-90291519D01*
X119081740Y-90285000D01*
X119170260Y-90285000D01*
X119236443Y-90291519D01*
X119236443Y-90291519D01*
G37*
G36*
X122758466Y-90827565D02*
X122797137Y-90839296D01*
X122832779Y-90858348D01*
X122864017Y-90883983D01*
X122889652Y-90915221D01*
X122908704Y-90950863D01*
X122920435Y-90989534D01*
X122925000Y-91035888D01*
X122925000Y-91687112D01*
X122920435Y-91733466D01*
X122908704Y-91772137D01*
X122889652Y-91807779D01*
X122864017Y-91839017D01*
X122832779Y-91864652D01*
X122797137Y-91883704D01*
X122758466Y-91895435D01*
X122712112Y-91900000D01*
X121635888Y-91900000D01*
X121589534Y-91895435D01*
X121550863Y-91883704D01*
X121515221Y-91864652D01*
X121483983Y-91839017D01*
X121458348Y-91807779D01*
X121439296Y-91772137D01*
X121427565Y-91733466D01*
X121423000Y-91687112D01*
X121423000Y-91035888D01*
X121427565Y-90989534D01*
X121439296Y-90950863D01*
X121458348Y-90915221D01*
X121483983Y-90883983D01*
X121515221Y-90858348D01*
X121550863Y-90839296D01*
X121589534Y-90827565D01*
X121635888Y-90823000D01*
X122712112Y-90823000D01*
X122758466Y-90827565D01*
X122758466Y-90827565D01*
G37*
G36*
X133631000Y-91791000D02*
X132029000Y-91791000D01*
X132029000Y-91089000D01*
X133631000Y-91089000D01*
X133631000Y-91791000D01*
X133631000Y-91791000D01*
G37*
G36*
X126531000Y-91791000D02*
X124929000Y-91791000D01*
X124929000Y-91089000D01*
X126531000Y-91089000D01*
X126531000Y-91791000D01*
X126531000Y-91791000D01*
G37*
G36*
X126531000Y-90521000D02*
X124929000Y-90521000D01*
X124929000Y-89819000D01*
X126531000Y-89819000D01*
X126531000Y-90521000D01*
X126531000Y-90521000D01*
G37*
G36*
X133631000Y-90521000D02*
X132029000Y-90521000D01*
X132029000Y-89819000D01*
X133631000Y-89819000D01*
X133631000Y-90521000D01*
X133631000Y-90521000D01*
G37*
G36*
X122758466Y-88952565D02*
X122797137Y-88964296D01*
X122832779Y-88983348D01*
X122864017Y-89008983D01*
X122889652Y-89040221D01*
X122908704Y-89075863D01*
X122920435Y-89114534D01*
X122925000Y-89160888D01*
X122925000Y-89812112D01*
X122920435Y-89858466D01*
X122908704Y-89897137D01*
X122889652Y-89932779D01*
X122864017Y-89964017D01*
X122832779Y-89989652D01*
X122797137Y-90008704D01*
X122758466Y-90020435D01*
X122712112Y-90025000D01*
X121635888Y-90025000D01*
X121589534Y-90020435D01*
X121550863Y-90008704D01*
X121515221Y-89989652D01*
X121483983Y-89964017D01*
X121458348Y-89932779D01*
X121439296Y-89897137D01*
X121427565Y-89858466D01*
X121423000Y-89812112D01*
X121423000Y-89160888D01*
X121427565Y-89114534D01*
X121439296Y-89075863D01*
X121458348Y-89040221D01*
X121483983Y-89008983D01*
X121515221Y-88983348D01*
X121550863Y-88964296D01*
X121589534Y-88952565D01*
X121635888Y-88948000D01*
X122712112Y-88948000D01*
X122758466Y-88952565D01*
X122758466Y-88952565D01*
G37*
G36*
X136087000Y-89909000D02*
X135185000Y-89909000D01*
X135185000Y-88907000D01*
X136087000Y-88907000D01*
X136087000Y-89909000D01*
X136087000Y-89909000D01*
G37*
G36*
X119236442Y-87751518D02*
X119302627Y-87758037D01*
X119415853Y-87792384D01*
X119472467Y-87809557D01*
X119611087Y-87883652D01*
X119628991Y-87893222D01*
X119646262Y-87907396D01*
X119766186Y-88005814D01*
X119827450Y-88080466D01*
X119878778Y-88143009D01*
X119878779Y-88143011D01*
X119962443Y-88299533D01*
X119962443Y-88299534D01*
X120013963Y-88469373D01*
X120031359Y-88646000D01*
X120013963Y-88822627D01*
X119988369Y-88907000D01*
X119962443Y-88992467D01*
X119922249Y-89067663D01*
X119878778Y-89148991D01*
X119849448Y-89184729D01*
X119766186Y-89286186D01*
X119664729Y-89369448D01*
X119628991Y-89398778D01*
X119628989Y-89398779D01*
X119472467Y-89482443D01*
X119415853Y-89499616D01*
X119302627Y-89533963D01*
X119236442Y-89540482D01*
X119170260Y-89547000D01*
X119081740Y-89547000D01*
X119015558Y-89540482D01*
X118949373Y-89533963D01*
X118836147Y-89499616D01*
X118779533Y-89482443D01*
X118623011Y-89398779D01*
X118623009Y-89398778D01*
X118587271Y-89369448D01*
X118485814Y-89286186D01*
X118402552Y-89184729D01*
X118373222Y-89148991D01*
X118329751Y-89067663D01*
X118289557Y-88992467D01*
X118263631Y-88907000D01*
X118238037Y-88822627D01*
X118220641Y-88646000D01*
X118238037Y-88469373D01*
X118289557Y-88299534D01*
X118289557Y-88299533D01*
X118373221Y-88143011D01*
X118373222Y-88143009D01*
X118424550Y-88080466D01*
X118485814Y-88005814D01*
X118605738Y-87907396D01*
X118623009Y-87893222D01*
X118640913Y-87883652D01*
X118779533Y-87809557D01*
X118836147Y-87792384D01*
X118949373Y-87758037D01*
X119015558Y-87751518D01*
X119081740Y-87745000D01*
X119170260Y-87745000D01*
X119236442Y-87751518D01*
X119236442Y-87751518D01*
G37*
G36*
X126531000Y-89251000D02*
X124929000Y-89251000D01*
X124929000Y-88549000D01*
X126531000Y-88549000D01*
X126531000Y-89251000D01*
X126531000Y-89251000D01*
G37*
G36*
X133631000Y-89251000D02*
X132029000Y-89251000D01*
X132029000Y-88549000D01*
X133631000Y-88549000D01*
X133631000Y-89251000D01*
X133631000Y-89251000D01*
G37*
G36*
X164527000Y-88581000D02*
X162625000Y-88581000D01*
X162625000Y-86679000D01*
X164527000Y-86679000D01*
X164527000Y-88581000D01*
X164527000Y-88581000D01*
G37*
G36*
X175537396Y-86715546D02*
X175710466Y-86787234D01*
X175866230Y-86891312D01*
X175998688Y-87023770D01*
X176102766Y-87179534D01*
X176174454Y-87352604D01*
X176211000Y-87536333D01*
X176211000Y-87723667D01*
X176174454Y-87907396D01*
X176102766Y-88080466D01*
X175998688Y-88236230D01*
X175866230Y-88368688D01*
X175710466Y-88472766D01*
X175537396Y-88544454D01*
X175353667Y-88581000D01*
X175166333Y-88581000D01*
X174982604Y-88544454D01*
X174809534Y-88472766D01*
X174653770Y-88368688D01*
X174521312Y-88236230D01*
X174417234Y-88080466D01*
X174345546Y-87907396D01*
X174309000Y-87723667D01*
X174309000Y-87536333D01*
X174345546Y-87352604D01*
X174417234Y-87179534D01*
X174521312Y-87023770D01*
X174653770Y-86891312D01*
X174809534Y-86787234D01*
X174982604Y-86715546D01*
X175166333Y-86679000D01*
X175353667Y-86679000D01*
X175537396Y-86715546D01*
X175537396Y-86715546D01*
G37*
G36*
X168425396Y-86715546D02*
X168598466Y-86787234D01*
X168754230Y-86891312D01*
X168886688Y-87023770D01*
X168990766Y-87179534D01*
X169062454Y-87352604D01*
X169099000Y-87536333D01*
X169099000Y-87723667D01*
X169062454Y-87907396D01*
X168990766Y-88080466D01*
X168886688Y-88236230D01*
X168754230Y-88368688D01*
X168598466Y-88472766D01*
X168425396Y-88544454D01*
X168241667Y-88581000D01*
X168054333Y-88581000D01*
X167870604Y-88544454D01*
X167697534Y-88472766D01*
X167541770Y-88368688D01*
X167409312Y-88236230D01*
X167305234Y-88080466D01*
X167233546Y-87907396D01*
X167197000Y-87723667D01*
X167197000Y-87536333D01*
X167233546Y-87352604D01*
X167305234Y-87179534D01*
X167409312Y-87023770D01*
X167541770Y-86891312D01*
X167697534Y-86787234D01*
X167870604Y-86715546D01*
X168054333Y-86679000D01*
X168241667Y-86679000D01*
X168425396Y-86715546D01*
X168425396Y-86715546D01*
G37*
G36*
X161313396Y-86715546D02*
X161486466Y-86787234D01*
X161642230Y-86891312D01*
X161774688Y-87023770D01*
X161878766Y-87179534D01*
X161950454Y-87352604D01*
X161987000Y-87536333D01*
X161987000Y-87723667D01*
X161950454Y-87907396D01*
X161878766Y-88080466D01*
X161774688Y-88236230D01*
X161642230Y-88368688D01*
X161486466Y-88472766D01*
X161313396Y-88544454D01*
X161129667Y-88581000D01*
X160942333Y-88581000D01*
X160758604Y-88544454D01*
X160585534Y-88472766D01*
X160429770Y-88368688D01*
X160297312Y-88236230D01*
X160193234Y-88080466D01*
X160121546Y-87907396D01*
X160085000Y-87723667D01*
X160085000Y-87536333D01*
X160121546Y-87352604D01*
X160193234Y-87179534D01*
X160297312Y-87023770D01*
X160429770Y-86891312D01*
X160585534Y-86787234D01*
X160758604Y-86715546D01*
X160942333Y-86679000D01*
X161129667Y-86679000D01*
X161313396Y-86715546D01*
X161313396Y-86715546D01*
G37*
G36*
X171639000Y-88581000D02*
X169737000Y-88581000D01*
X169737000Y-86679000D01*
X171639000Y-86679000D01*
X171639000Y-88581000D01*
X171639000Y-88581000D01*
G37*
G36*
X147089396Y-86715546D02*
X147262466Y-86787234D01*
X147418230Y-86891312D01*
X147550688Y-87023770D01*
X147654766Y-87179534D01*
X147726454Y-87352604D01*
X147763000Y-87536333D01*
X147763000Y-87723667D01*
X147726454Y-87907396D01*
X147654766Y-88080466D01*
X147550688Y-88236230D01*
X147418230Y-88368688D01*
X147262466Y-88472766D01*
X147089396Y-88544454D01*
X146905667Y-88581000D01*
X146718333Y-88581000D01*
X146534604Y-88544454D01*
X146361534Y-88472766D01*
X146205770Y-88368688D01*
X146073312Y-88236230D01*
X145969234Y-88080466D01*
X145897546Y-87907396D01*
X145861000Y-87723667D01*
X145861000Y-87536333D01*
X145897546Y-87352604D01*
X145969234Y-87179534D01*
X146073312Y-87023770D01*
X146205770Y-86891312D01*
X146361534Y-86787234D01*
X146534604Y-86715546D01*
X146718333Y-86679000D01*
X146905667Y-86679000D01*
X147089396Y-86715546D01*
X147089396Y-86715546D01*
G37*
G36*
X150303000Y-88581000D02*
X148401000Y-88581000D01*
X148401000Y-86679000D01*
X150303000Y-86679000D01*
X150303000Y-88581000D01*
X150303000Y-88581000D01*
G37*
G36*
X189761396Y-86715546D02*
X189934466Y-86787234D01*
X190090230Y-86891312D01*
X190222688Y-87023770D01*
X190326766Y-87179534D01*
X190398454Y-87352604D01*
X190435000Y-87536333D01*
X190435000Y-87723667D01*
X190398454Y-87907396D01*
X190326766Y-88080466D01*
X190222688Y-88236230D01*
X190090230Y-88368688D01*
X189934466Y-88472766D01*
X189761396Y-88544454D01*
X189577667Y-88581000D01*
X189390333Y-88581000D01*
X189206604Y-88544454D01*
X189033534Y-88472766D01*
X188877770Y-88368688D01*
X188745312Y-88236230D01*
X188641234Y-88080466D01*
X188569546Y-87907396D01*
X188533000Y-87723667D01*
X188533000Y-87536333D01*
X188569546Y-87352604D01*
X188641234Y-87179534D01*
X188745312Y-87023770D01*
X188877770Y-86891312D01*
X189033534Y-86787234D01*
X189206604Y-86715546D01*
X189390333Y-86679000D01*
X189577667Y-86679000D01*
X189761396Y-86715546D01*
X189761396Y-86715546D01*
G37*
G36*
X178751000Y-88581000D02*
X176849000Y-88581000D01*
X176849000Y-86679000D01*
X178751000Y-86679000D01*
X178751000Y-88581000D01*
X178751000Y-88581000D01*
G37*
G36*
X154201396Y-86715546D02*
X154374466Y-86787234D01*
X154530230Y-86891312D01*
X154662688Y-87023770D01*
X154766766Y-87179534D01*
X154838454Y-87352604D01*
X154875000Y-87536333D01*
X154875000Y-87723667D01*
X154838454Y-87907396D01*
X154766766Y-88080466D01*
X154662688Y-88236230D01*
X154530230Y-88368688D01*
X154374466Y-88472766D01*
X154201396Y-88544454D01*
X154017667Y-88581000D01*
X153830333Y-88581000D01*
X153646604Y-88544454D01*
X153473534Y-88472766D01*
X153317770Y-88368688D01*
X153185312Y-88236230D01*
X153081234Y-88080466D01*
X153009546Y-87907396D01*
X152973000Y-87723667D01*
X152973000Y-87536333D01*
X153009546Y-87352604D01*
X153081234Y-87179534D01*
X153185312Y-87023770D01*
X153317770Y-86891312D01*
X153473534Y-86787234D01*
X153646604Y-86715546D01*
X153830333Y-86679000D01*
X154017667Y-86679000D01*
X154201396Y-86715546D01*
X154201396Y-86715546D01*
G37*
G36*
X185863000Y-88581000D02*
X183961000Y-88581000D01*
X183961000Y-86679000D01*
X185863000Y-86679000D01*
X185863000Y-88581000D01*
X185863000Y-88581000D01*
G37*
G36*
X182649396Y-86715546D02*
X182822466Y-86787234D01*
X182978230Y-86891312D01*
X183110688Y-87023770D01*
X183214766Y-87179534D01*
X183286454Y-87352604D01*
X183323000Y-87536333D01*
X183323000Y-87723667D01*
X183286454Y-87907396D01*
X183214766Y-88080466D01*
X183110688Y-88236230D01*
X182978230Y-88368688D01*
X182822466Y-88472766D01*
X182649396Y-88544454D01*
X182465667Y-88581000D01*
X182278333Y-88581000D01*
X182094604Y-88544454D01*
X181921534Y-88472766D01*
X181765770Y-88368688D01*
X181633312Y-88236230D01*
X181529234Y-88080466D01*
X181457546Y-87907396D01*
X181421000Y-87723667D01*
X181421000Y-87536333D01*
X181457546Y-87352604D01*
X181529234Y-87179534D01*
X181633312Y-87023770D01*
X181765770Y-86891312D01*
X181921534Y-86787234D01*
X182094604Y-86715546D01*
X182278333Y-86679000D01*
X182465667Y-86679000D01*
X182649396Y-86715546D01*
X182649396Y-86715546D01*
G37*
G36*
X157415000Y-88581000D02*
X155513000Y-88581000D01*
X155513000Y-86679000D01*
X157415000Y-86679000D01*
X157415000Y-88581000D01*
X157415000Y-88581000D01*
G37*
G36*
X139977396Y-86715546D02*
X140150466Y-86787234D01*
X140306230Y-86891312D01*
X140438688Y-87023770D01*
X140542766Y-87179534D01*
X140614454Y-87352604D01*
X140651000Y-87536333D01*
X140651000Y-87723667D01*
X140614454Y-87907396D01*
X140542766Y-88080466D01*
X140438688Y-88236230D01*
X140306230Y-88368688D01*
X140150466Y-88472766D01*
X139977396Y-88544454D01*
X139793667Y-88581000D01*
X139606333Y-88581000D01*
X139422604Y-88544454D01*
X139249534Y-88472766D01*
X139093770Y-88368688D01*
X138961312Y-88236230D01*
X138857234Y-88080466D01*
X138785546Y-87907396D01*
X138749000Y-87723667D01*
X138749000Y-87536333D01*
X138785546Y-87352604D01*
X138857234Y-87179534D01*
X138961312Y-87023770D01*
X139093770Y-86891312D01*
X139249534Y-86787234D01*
X139422604Y-86715546D01*
X139606333Y-86679000D01*
X139793667Y-86679000D01*
X139977396Y-86715546D01*
X139977396Y-86715546D01*
G37*
G36*
X143191000Y-88581000D02*
X141289000Y-88581000D01*
X141289000Y-86679000D01*
X143191000Y-86679000D01*
X143191000Y-88581000D01*
X143191000Y-88581000D01*
G37*
G36*
X192975000Y-88581000D02*
X191073000Y-88581000D01*
X191073000Y-86679000D01*
X192975000Y-86679000D01*
X192975000Y-88581000D01*
X192975000Y-88581000D01*
G37*
G36*
X122758466Y-87193065D02*
X122797137Y-87204796D01*
X122832779Y-87223848D01*
X122864017Y-87249483D01*
X122889652Y-87280721D01*
X122908704Y-87316363D01*
X122920435Y-87355034D01*
X122925000Y-87401388D01*
X122925000Y-88052612D01*
X122920435Y-88098966D01*
X122908704Y-88137637D01*
X122889652Y-88173279D01*
X122864017Y-88204517D01*
X122832779Y-88230152D01*
X122797137Y-88249204D01*
X122758466Y-88260935D01*
X122712112Y-88265500D01*
X121635888Y-88265500D01*
X121589534Y-88260935D01*
X121550863Y-88249204D01*
X121515221Y-88230152D01*
X121483983Y-88204517D01*
X121458348Y-88173279D01*
X121439296Y-88137637D01*
X121427565Y-88098966D01*
X121423000Y-88052612D01*
X121423000Y-87401388D01*
X121427565Y-87355034D01*
X121439296Y-87316363D01*
X121458348Y-87280721D01*
X121483983Y-87249483D01*
X121515221Y-87223848D01*
X121550863Y-87204796D01*
X121589534Y-87193065D01*
X121635888Y-87188500D01*
X122712112Y-87188500D01*
X122758466Y-87193065D01*
X122758466Y-87193065D01*
G37*
G36*
X133631000Y-87981000D02*
X132029000Y-87981000D01*
X132029000Y-87279000D01*
X133631000Y-87279000D01*
X133631000Y-87981000D01*
X133631000Y-87981000D01*
G37*
G36*
X126531000Y-87981000D02*
X124929000Y-87981000D01*
X124929000Y-87279000D01*
X126531000Y-87279000D01*
X126531000Y-87981000D01*
X126531000Y-87981000D01*
G37*
G36*
X135137000Y-87909000D02*
X134235000Y-87909000D01*
X134235000Y-86907000D01*
X135137000Y-86907000D01*
X135137000Y-87909000D01*
X135137000Y-87909000D01*
G37*
G36*
X137037000Y-87909000D02*
X136135000Y-87909000D01*
X136135000Y-86907000D01*
X137037000Y-86907000D01*
X137037000Y-87909000D01*
X137037000Y-87909000D01*
G37*
G36*
X119236443Y-85211519D02*
X119302627Y-85218037D01*
X119415853Y-85252384D01*
X119472467Y-85269557D01*
X119593020Y-85333995D01*
X119628991Y-85353222D01*
X119654897Y-85374483D01*
X119766186Y-85465814D01*
X119819043Y-85530222D01*
X119878778Y-85603009D01*
X119878779Y-85603011D01*
X119962443Y-85759533D01*
X119962443Y-85759534D01*
X120013963Y-85929373D01*
X120031359Y-86106000D01*
X120013963Y-86282627D01*
X120009215Y-86298279D01*
X119962443Y-86452467D01*
X119888348Y-86591087D01*
X119878778Y-86608991D01*
X119849448Y-86644729D01*
X119766186Y-86746186D01*
X119664729Y-86829448D01*
X119628991Y-86858778D01*
X119628989Y-86858779D01*
X119472467Y-86942443D01*
X119415853Y-86959616D01*
X119302627Y-86993963D01*
X119236442Y-87000482D01*
X119170260Y-87007000D01*
X119081740Y-87007000D01*
X119015558Y-87000482D01*
X118949373Y-86993963D01*
X118836147Y-86959616D01*
X118779533Y-86942443D01*
X118623011Y-86858779D01*
X118623009Y-86858778D01*
X118587271Y-86829448D01*
X118485814Y-86746186D01*
X118402552Y-86644729D01*
X118373222Y-86608991D01*
X118363652Y-86591087D01*
X118289557Y-86452467D01*
X118242785Y-86298279D01*
X118238037Y-86282627D01*
X118220641Y-86106000D01*
X118238037Y-85929373D01*
X118289557Y-85759534D01*
X118289557Y-85759533D01*
X118373221Y-85603011D01*
X118373222Y-85603009D01*
X118432957Y-85530222D01*
X118485814Y-85465814D01*
X118597103Y-85374483D01*
X118623009Y-85353222D01*
X118658980Y-85333995D01*
X118779533Y-85269557D01*
X118836147Y-85252384D01*
X118949373Y-85218037D01*
X119015557Y-85211519D01*
X119081740Y-85205000D01*
X119170260Y-85205000D01*
X119236443Y-85211519D01*
X119236443Y-85211519D01*
G37*
G36*
X126531000Y-86711000D02*
X124929000Y-86711000D01*
X124929000Y-86009000D01*
X126531000Y-86009000D01*
X126531000Y-86711000D01*
X126531000Y-86711000D01*
G37*
G36*
X133631000Y-86711000D02*
X132029000Y-86711000D01*
X132029000Y-86009000D01*
X133631000Y-86009000D01*
X133631000Y-86711000D01*
X133631000Y-86711000D01*
G37*
G36*
X122758466Y-85318065D02*
X122797137Y-85329796D01*
X122832779Y-85348848D01*
X122864017Y-85374483D01*
X122889652Y-85405721D01*
X122908704Y-85441363D01*
X122920435Y-85480034D01*
X122925000Y-85526388D01*
X122925000Y-86177612D01*
X122920435Y-86223966D01*
X122908704Y-86262637D01*
X122889652Y-86298279D01*
X122864017Y-86329517D01*
X122832779Y-86355152D01*
X122797137Y-86374204D01*
X122758466Y-86385935D01*
X122712112Y-86390500D01*
X121635888Y-86390500D01*
X121589534Y-86385935D01*
X121550863Y-86374204D01*
X121515221Y-86355152D01*
X121483983Y-86329517D01*
X121458348Y-86298279D01*
X121439296Y-86262637D01*
X121427565Y-86223966D01*
X121423000Y-86177612D01*
X121423000Y-85526388D01*
X121427565Y-85480034D01*
X121439296Y-85441363D01*
X121458348Y-85405721D01*
X121483983Y-85374483D01*
X121515221Y-85348848D01*
X121550863Y-85329796D01*
X121589534Y-85318065D01*
X121635888Y-85313500D01*
X122712112Y-85313500D01*
X122758466Y-85318065D01*
X122758466Y-85318065D01*
G37*
G36*
X140168966Y-84597565D02*
X140207637Y-84609296D01*
X140243279Y-84628348D01*
X140274517Y-84653983D01*
X140300152Y-84685221D01*
X140319204Y-84720863D01*
X140330935Y-84759534D01*
X140335500Y-84805888D01*
X140335500Y-85882112D01*
X140330935Y-85928466D01*
X140319204Y-85967137D01*
X140300152Y-86002779D01*
X140274517Y-86034017D01*
X140243279Y-86059652D01*
X140207637Y-86078704D01*
X140168966Y-86090435D01*
X140122612Y-86095000D01*
X139471388Y-86095000D01*
X139425034Y-86090435D01*
X139386363Y-86078704D01*
X139350721Y-86059652D01*
X139319483Y-86034017D01*
X139293848Y-86002779D01*
X139274796Y-85967137D01*
X139263065Y-85928466D01*
X139258500Y-85882112D01*
X139258500Y-84805888D01*
X139263065Y-84759534D01*
X139274796Y-84720863D01*
X139293848Y-84685221D01*
X139319483Y-84653983D01*
X139350721Y-84628348D01*
X139386363Y-84609296D01*
X139425034Y-84597565D01*
X139471388Y-84593000D01*
X140122612Y-84593000D01*
X140168966Y-84597565D01*
X140168966Y-84597565D01*
G37*
G36*
X138293966Y-84597565D02*
X138332637Y-84609296D01*
X138368279Y-84628348D01*
X138399517Y-84653983D01*
X138425152Y-84685221D01*
X138444204Y-84720863D01*
X138455935Y-84759534D01*
X138460500Y-84805888D01*
X138460500Y-85882112D01*
X138455935Y-85928466D01*
X138444204Y-85967137D01*
X138425152Y-86002779D01*
X138399517Y-86034017D01*
X138368279Y-86059652D01*
X138332637Y-86078704D01*
X138293966Y-86090435D01*
X138247612Y-86095000D01*
X137596388Y-86095000D01*
X137550034Y-86090435D01*
X137511363Y-86078704D01*
X137475721Y-86059652D01*
X137444483Y-86034017D01*
X137418848Y-86002779D01*
X137399796Y-85967137D01*
X137388065Y-85928466D01*
X137383500Y-85882112D01*
X137383500Y-84805888D01*
X137388065Y-84759534D01*
X137399796Y-84720863D01*
X137418848Y-84685221D01*
X137444483Y-84653983D01*
X137475721Y-84628348D01*
X137511363Y-84609296D01*
X137550034Y-84597565D01*
X137596388Y-84593000D01*
X138247612Y-84593000D01*
X138293966Y-84597565D01*
X138293966Y-84597565D01*
G37*
M02*
