%FSLAX45Y45*%
G04 Gerber Fmt 4.5, Leading zero omitted, Abs format (unit mm)*
G04 Created by KiCad (PCBNEW 5.0.2+dfsg1-1) date Sun 13 Jan 2019 01:36:37 GMT*
%MOMM*%
%LPD*%
G01*
G04 APERTURE LIST*
%ADD10C,0.150000*%
%ADD11C,0.200000*%
%ADD12C,0.300000*%
G04 APERTURE END LIST*
D10*
X11633200Y-8369300D02*
X11620500Y-8382000D01*
X11620500Y-11303000D02*
X11620500Y-8382000D01*
X11747500Y-11430000D02*
X11620500Y-11303000D01*
X19265900Y-11430000D02*
X11747500Y-11430000D01*
X19392900Y-11303000D02*
X19265900Y-11430000D01*
X19392900Y-8394700D02*
X19392900Y-11303000D01*
X19253200Y-8255000D02*
X19392900Y-8394700D01*
X11747500Y-8255000D02*
X19253200Y-8255000D01*
X11633200Y-8369300D02*
X11747500Y-8255000D01*
D11*
D12*
X11899428Y-11903214D02*
X11899428Y-11603214D01*
X11970857Y-11603214D01*
X12013714Y-11617500D01*
X12042286Y-11646071D01*
X12056571Y-11674643D01*
X12070857Y-11731786D01*
X12070857Y-11774643D01*
X12056571Y-11831786D01*
X12042286Y-11860357D01*
X12013714Y-11888929D01*
X11970857Y-11903214D01*
X11899428Y-11903214D01*
X12199428Y-11903214D02*
X12199428Y-11703214D01*
X12199428Y-11760357D02*
X12213714Y-11731786D01*
X12228000Y-11717500D01*
X12256571Y-11703214D01*
X12285143Y-11703214D01*
X12385143Y-11903214D02*
X12385143Y-11703214D01*
X12385143Y-11603214D02*
X12370857Y-11617500D01*
X12385143Y-11631786D01*
X12399428Y-11617500D01*
X12385143Y-11603214D01*
X12385143Y-11631786D01*
X12570857Y-11903214D02*
X12542286Y-11888929D01*
X12528000Y-11860357D01*
X12528000Y-11603214D01*
X12728000Y-11903214D02*
X12699428Y-11888929D01*
X12685143Y-11860357D01*
X12685143Y-11603214D01*
X13070857Y-11903214D02*
X13070857Y-11603214D01*
X13170857Y-11817500D01*
X13270857Y-11603214D01*
X13270857Y-11903214D01*
X13542286Y-11903214D02*
X13542286Y-11746071D01*
X13528000Y-11717500D01*
X13499428Y-11703214D01*
X13442286Y-11703214D01*
X13413714Y-11717500D01*
X13542286Y-11888929D02*
X13513714Y-11903214D01*
X13442286Y-11903214D01*
X13413714Y-11888929D01*
X13399428Y-11860357D01*
X13399428Y-11831786D01*
X13413714Y-11803214D01*
X13442286Y-11788929D01*
X13513714Y-11788929D01*
X13542286Y-11774643D01*
X13685143Y-11703214D02*
X13685143Y-12003214D01*
X13685143Y-11717500D02*
X13713714Y-11703214D01*
X13770857Y-11703214D01*
X13799428Y-11717500D01*
X13813714Y-11731786D01*
X13828000Y-11760357D01*
X13828000Y-11846071D01*
X13813714Y-11874643D01*
X13799428Y-11888929D01*
X13770857Y-11903214D01*
X13713714Y-11903214D01*
X13685143Y-11888929D01*
X13956571Y-11874643D02*
X13970857Y-11888929D01*
X13956571Y-11903214D01*
X13942286Y-11888929D01*
X13956571Y-11874643D01*
X13956571Y-11903214D01*
X13956571Y-11717500D02*
X13970857Y-11731786D01*
X13956571Y-11746071D01*
X13942286Y-11731786D01*
X13956571Y-11717500D01*
X13956571Y-11746071D01*
M02*
