M48
;DRILL file {KiCad 5.0.2+dfsg1-1} date Sun 13 Jan 2019 01:36:32 GMT
;FORMAT={-:-/ absolute / inch / decimal}
FMAT,2
INCH,TZ
T1C0.0157
T2C0.0354
T3C0.0394
%
G90
G05
T1
X4.755Y-3.795
X4.795Y-3.845
X4.87Y-4.06
X4.92Y-4.06
X4.975Y-4.06
X4.9765Y-3.82
X5.025Y-4.06
X5.05Y-3.43
X5.0651Y-3.82
X5.075Y-4.06
X5.125Y-3.43
X5.125Y-4.06
X5.13Y-3.555
X5.165Y-3.585
X5.175Y-4.06
X5.23Y-3.98
X5.295Y-4.08
X5.3Y-3.645
X5.305Y-3.39
X5.305Y-3.92
X5.31Y-3.325
T2
X6.9Y-3.73
X7.Y-3.73
X6.06Y-4.29
X6.16Y-4.29
X7.46Y-4.29
X7.56Y-4.29
X6.62Y-3.45
X6.72Y-3.45
X7.18Y-3.45
X7.28Y-3.45
X6.34Y-3.73
X6.44Y-3.73
X7.18Y-4.01
X7.28Y-4.01
X6.62Y-4.29
X6.72Y-4.29
X5.78Y-4.01
X5.88Y-4.01
X7.18Y-4.29
X7.28Y-4.29
X5.78Y-3.725
X5.88Y-3.725
X7.46Y-3.73
X7.56Y-3.73
X6.9Y-4.01
X7.Y-4.01
X7.46Y-3.45
X7.56Y-3.45
X7.18Y-3.73
X7.28Y-3.73
X6.34Y-4.29
X6.44Y-4.29
X6.06Y-4.01
X6.16Y-4.01
X6.62Y-4.01
X6.72Y-4.01
X5.78Y-4.29
X5.88Y-4.29
X6.06Y-3.45
X6.16Y-3.45
X6.62Y-3.73
X6.72Y-3.73
X5.78Y-3.45
X5.88Y-3.45
X5.5Y-4.29
X5.6Y-4.29
X6.9Y-4.29
X7.Y-4.29
X7.46Y-4.01
X7.56Y-4.01
X5.5Y-3.45
X5.6Y-3.45
X6.06Y-3.73
X6.16Y-3.73
X6.34Y-3.45
X6.44Y-3.45
X6.34Y-4.01
X6.44Y-4.01
X5.5Y-4.01
X5.6Y-4.01
X6.9Y-3.45
X7.Y-3.45
X5.5Y-3.725
X5.6Y-3.725
T3
X4.69Y-3.39
X4.69Y-3.49
X4.69Y-3.59
X4.69Y-3.69
T0
M30
