%FSLAX45Y45*%
G04 Gerber Fmt 4.5, Leading zero omitted, Abs format (unit mm)*
G04 Created by KiCad (PCBNEW 5.0.2+dfsg1-1) date Sun 13 Jan 2019 01:36:37 GMT*
%MOMM*%
%LPD*%
G01*
G04 APERTURE LIST*
%ADD10C,0.150000*%
%ADD11C,0.200000*%
%ADD12C,0.300000*%
G04 APERTURE END LIST*
D10*
X11633200Y-8369300D02*
X11620500Y-8382000D01*
X11620500Y-11303000D02*
X11620500Y-8382000D01*
X11747500Y-11430000D02*
X11620500Y-11303000D01*
X19265900Y-11430000D02*
X11747500Y-11430000D01*
X19392900Y-11303000D02*
X19265900Y-11430000D01*
X19392900Y-8394700D02*
X19392900Y-11303000D01*
X19253200Y-8255000D02*
X19392900Y-8394700D01*
X11747500Y-8255000D02*
X19253200Y-8255000D01*
X11633200Y-8369300D02*
X11747500Y-8255000D01*
D11*
X12057700Y-9619300D02*
X12097700Y-9659300D01*
X12097700Y-9619300D02*
X12057700Y-9659300D01*
X12159300Y-9746300D02*
X12199300Y-9786300D01*
X12199300Y-9746300D02*
X12159300Y-9786300D01*
X12349800Y-10292400D02*
X12389800Y-10332400D01*
X12389800Y-10292400D02*
X12349800Y-10332400D01*
X12476800Y-10292400D02*
X12516800Y-10332400D01*
X12516800Y-10292400D02*
X12476800Y-10332400D01*
X12616500Y-10292400D02*
X12656500Y-10332400D01*
X12656500Y-10292400D02*
X12616500Y-10332400D01*
X12620200Y-9682800D02*
X12660200Y-9722800D01*
X12660200Y-9682800D02*
X12620200Y-9722800D01*
X12743500Y-10292400D02*
X12783500Y-10332400D01*
X12783500Y-10292400D02*
X12743500Y-10332400D01*
X12807000Y-8692200D02*
X12847000Y-8732200D01*
X12847000Y-8692200D02*
X12807000Y-8732200D01*
X12845241Y-9682800D02*
X12885241Y-9722800D01*
X12885241Y-9682800D02*
X12845241Y-9722800D01*
X12870500Y-10292400D02*
X12910500Y-10332400D01*
X12910500Y-10292400D02*
X12870500Y-10332400D01*
X12997500Y-8692200D02*
X13037500Y-8732200D01*
X13037500Y-8692200D02*
X12997500Y-8732200D01*
X12997500Y-10292400D02*
X13037500Y-10332400D01*
X13037500Y-10292400D02*
X12997500Y-10332400D01*
X13010200Y-9009700D02*
X13050200Y-9049700D01*
X13050200Y-9009700D02*
X13010200Y-9049700D01*
X13099100Y-9085900D02*
X13139100Y-9125900D01*
X13139100Y-9085900D02*
X13099100Y-9125900D01*
X13124500Y-10292400D02*
X13164500Y-10332400D01*
X13164500Y-10292400D02*
X13124500Y-10332400D01*
X13264200Y-10089200D02*
X13304200Y-10129200D01*
X13304200Y-10089200D02*
X13264200Y-10129200D01*
X13429300Y-10343200D02*
X13469300Y-10383200D01*
X13469300Y-10343200D02*
X13429300Y-10383200D01*
X13442000Y-9238300D02*
X13482000Y-9278300D01*
X13482000Y-9238300D02*
X13442000Y-9278300D01*
X13454700Y-8590600D02*
X13494700Y-8630600D01*
X13494700Y-8590600D02*
X13454700Y-8630600D01*
X13454700Y-9936800D02*
X13494700Y-9976800D01*
X13494700Y-9936800D02*
X13454700Y-9976800D01*
X13467400Y-8425500D02*
X13507400Y-8465500D01*
X13507400Y-8425500D02*
X13467400Y-8465500D01*
X17571000Y-9474200D02*
G75*
G03X17571000Y-9474200I-45000J0D01*
G01*
X17825000Y-9474200D02*
G75*
G03X17825000Y-9474200I-45000J0D01*
G01*
X15437400Y-10896600D02*
G75*
G03X15437400Y-10896600I-45000J0D01*
G01*
X15691400Y-10896600D02*
G75*
G03X15691400Y-10896600I-45000J0D01*
G01*
X18993400Y-10896600D02*
G75*
G03X18993400Y-10896600I-45000J0D01*
G01*
X19247400Y-10896600D02*
G75*
G03X19247400Y-10896600I-45000J0D01*
G01*
X16859800Y-8763000D02*
G75*
G03X16859800Y-8763000I-45000J0D01*
G01*
X17113800Y-8763000D02*
G75*
G03X17113800Y-8763000I-45000J0D01*
G01*
X18282200Y-8763000D02*
G75*
G03X18282200Y-8763000I-45000J0D01*
G01*
X18536200Y-8763000D02*
G75*
G03X18536200Y-8763000I-45000J0D01*
G01*
X16148600Y-9474200D02*
G75*
G03X16148600Y-9474200I-45000J0D01*
G01*
X16402600Y-9474200D02*
G75*
G03X16402600Y-9474200I-45000J0D01*
G01*
X18282200Y-10185400D02*
G75*
G03X18282200Y-10185400I-45000J0D01*
G01*
X18536200Y-10185400D02*
G75*
G03X18536200Y-10185400I-45000J0D01*
G01*
X16859800Y-10896600D02*
G75*
G03X16859800Y-10896600I-45000J0D01*
G01*
X17113800Y-10896600D02*
G75*
G03X17113800Y-10896600I-45000J0D01*
G01*
X14726200Y-10185400D02*
G75*
G03X14726200Y-10185400I-45000J0D01*
G01*
X14980200Y-10185400D02*
G75*
G03X14980200Y-10185400I-45000J0D01*
G01*
X18282200Y-10896600D02*
G75*
G03X18282200Y-10896600I-45000J0D01*
G01*
X18536200Y-10896600D02*
G75*
G03X18536200Y-10896600I-45000J0D01*
G01*
X14726200Y-9461500D02*
G75*
G03X14726200Y-9461500I-45000J0D01*
G01*
X14980200Y-9461500D02*
G75*
G03X14980200Y-9461500I-45000J0D01*
G01*
X18993400Y-9474200D02*
G75*
G03X18993400Y-9474200I-45000J0D01*
G01*
X19247400Y-9474200D02*
G75*
G03X19247400Y-9474200I-45000J0D01*
G01*
X17571000Y-10185400D02*
G75*
G03X17571000Y-10185400I-45000J0D01*
G01*
X17825000Y-10185400D02*
G75*
G03X17825000Y-10185400I-45000J0D01*
G01*
X18993400Y-8763000D02*
G75*
G03X18993400Y-8763000I-45000J0D01*
G01*
X19247400Y-8763000D02*
G75*
G03X19247400Y-8763000I-45000J0D01*
G01*
X18282200Y-9474200D02*
G75*
G03X18282200Y-9474200I-45000J0D01*
G01*
X18536200Y-9474200D02*
G75*
G03X18536200Y-9474200I-45000J0D01*
G01*
X16148600Y-10896600D02*
G75*
G03X16148600Y-10896600I-45000J0D01*
G01*
X16402600Y-10896600D02*
G75*
G03X16402600Y-10896600I-45000J0D01*
G01*
X15437400Y-10185400D02*
G75*
G03X15437400Y-10185400I-45000J0D01*
G01*
X15691400Y-10185400D02*
G75*
G03X15691400Y-10185400I-45000J0D01*
G01*
X16859800Y-10185400D02*
G75*
G03X16859800Y-10185400I-45000J0D01*
G01*
X17113800Y-10185400D02*
G75*
G03X17113800Y-10185400I-45000J0D01*
G01*
X14726200Y-10896600D02*
G75*
G03X14726200Y-10896600I-45000J0D01*
G01*
X14980200Y-10896600D02*
G75*
G03X14980200Y-10896600I-45000J0D01*
G01*
X15437400Y-8763000D02*
G75*
G03X15437400Y-8763000I-45000J0D01*
G01*
X15691400Y-8763000D02*
G75*
G03X15691400Y-8763000I-45000J0D01*
G01*
X16859800Y-9474200D02*
G75*
G03X16859800Y-9474200I-45000J0D01*
G01*
X17113800Y-9474200D02*
G75*
G03X17113800Y-9474200I-45000J0D01*
G01*
X14726200Y-8763000D02*
G75*
G03X14726200Y-8763000I-45000J0D01*
G01*
X14980200Y-8763000D02*
G75*
G03X14980200Y-8763000I-45000J0D01*
G01*
X14015000Y-10896600D02*
G75*
G03X14015000Y-10896600I-45000J0D01*
G01*
X14269000Y-10896600D02*
G75*
G03X14269000Y-10896600I-45000J0D01*
G01*
X17571000Y-10896600D02*
G75*
G03X17571000Y-10896600I-45000J0D01*
G01*
X17825000Y-10896600D02*
G75*
G03X17825000Y-10896600I-45000J0D01*
G01*
X18993400Y-10185400D02*
G75*
G03X18993400Y-10185400I-45000J0D01*
G01*
X19247400Y-10185400D02*
G75*
G03X19247400Y-10185400I-45000J0D01*
G01*
X14015000Y-8763000D02*
G75*
G03X14015000Y-8763000I-45000J0D01*
G01*
X14269000Y-8763000D02*
G75*
G03X14269000Y-8763000I-45000J0D01*
G01*
X15437400Y-9474200D02*
G75*
G03X15437400Y-9474200I-45000J0D01*
G01*
X15691400Y-9474200D02*
G75*
G03X15691400Y-9474200I-45000J0D01*
G01*
X16148600Y-8763000D02*
G75*
G03X16148600Y-8763000I-45000J0D01*
G01*
X16402600Y-8763000D02*
G75*
G03X16402600Y-8763000I-45000J0D01*
G01*
X16148600Y-10185400D02*
G75*
G03X16148600Y-10185400I-45000J0D01*
G01*
X16402600Y-10185400D02*
G75*
G03X16402600Y-10185400I-45000J0D01*
G01*
X14015000Y-10185400D02*
G75*
G03X14015000Y-10185400I-45000J0D01*
G01*
X14269000Y-10185400D02*
G75*
G03X14269000Y-10185400I-45000J0D01*
G01*
X17571000Y-8763000D02*
G75*
G03X17571000Y-8763000I-45000J0D01*
G01*
X17825000Y-8763000D02*
G75*
G03X17825000Y-8763000I-45000J0D01*
G01*
X14015000Y-9461500D02*
G75*
G03X14015000Y-9461500I-45000J0D01*
G01*
X14269000Y-9461500D02*
G75*
G03X14269000Y-9461500I-45000J0D01*
G01*
X11912600Y-8560600D02*
X11912600Y-8660600D01*
X11862600Y-8610600D02*
X11962600Y-8610600D01*
X11912600Y-8814600D02*
X11912600Y-8914600D01*
X11862600Y-8864600D02*
X11962600Y-8864600D01*
X11912600Y-9068600D02*
X11912600Y-9168600D01*
X11862600Y-9118600D02*
X11962600Y-9118600D01*
X11912600Y-9322600D02*
X11912600Y-9422600D01*
X11862600Y-9372600D02*
X11962600Y-9372600D01*
D12*
X11899428Y-11903214D02*
X11899428Y-11603214D01*
X11970857Y-11603214D01*
X12013714Y-11617500D01*
X12042286Y-11646071D01*
X12056571Y-11674643D01*
X12070857Y-11731786D01*
X12070857Y-11774643D01*
X12056571Y-11831786D01*
X12042286Y-11860357D01*
X12013714Y-11888929D01*
X11970857Y-11903214D01*
X11899428Y-11903214D01*
X12199428Y-11903214D02*
X12199428Y-11703214D01*
X12199428Y-11760357D02*
X12213714Y-11731786D01*
X12228000Y-11717500D01*
X12256571Y-11703214D01*
X12285143Y-11703214D01*
X12385143Y-11903214D02*
X12385143Y-11703214D01*
X12385143Y-11603214D02*
X12370857Y-11617500D01*
X12385143Y-11631786D01*
X12399428Y-11617500D01*
X12385143Y-11603214D01*
X12385143Y-11631786D01*
X12570857Y-11903214D02*
X12542286Y-11888929D01*
X12528000Y-11860357D01*
X12528000Y-11603214D01*
X12728000Y-11903214D02*
X12699428Y-11888929D01*
X12685143Y-11860357D01*
X12685143Y-11603214D01*
X13070857Y-11903214D02*
X13070857Y-11603214D01*
X13170857Y-11817500D01*
X13270857Y-11603214D01*
X13270857Y-11903214D01*
X13542286Y-11903214D02*
X13542286Y-11746071D01*
X13528000Y-11717500D01*
X13499428Y-11703214D01*
X13442286Y-11703214D01*
X13413714Y-11717500D01*
X13542286Y-11888929D02*
X13513714Y-11903214D01*
X13442286Y-11903214D01*
X13413714Y-11888929D01*
X13399428Y-11860357D01*
X13399428Y-11831786D01*
X13413714Y-11803214D01*
X13442286Y-11788929D01*
X13513714Y-11788929D01*
X13542286Y-11774643D01*
X13685143Y-11703214D02*
X13685143Y-12003214D01*
X13685143Y-11717500D02*
X13713714Y-11703214D01*
X13770857Y-11703214D01*
X13799428Y-11717500D01*
X13813714Y-11731786D01*
X13828000Y-11760357D01*
X13828000Y-11846071D01*
X13813714Y-11874643D01*
X13799428Y-11888929D01*
X13770857Y-11903214D01*
X13713714Y-11903214D01*
X13685143Y-11888929D01*
X13956571Y-11874643D02*
X13970857Y-11888929D01*
X13956571Y-11903214D01*
X13942286Y-11888929D01*
X13956571Y-11874643D01*
X13956571Y-11903214D01*
X13956571Y-11717500D02*
X13970857Y-11731786D01*
X13956571Y-11746071D01*
X13942286Y-11731786D01*
X13956571Y-11717500D01*
X13956571Y-11746071D01*
X11573000Y-12377500D02*
X11613000Y-12417500D01*
X11613000Y-12377500D02*
X11573000Y-12417500D01*
X11956571Y-12233214D02*
X11985143Y-12233214D01*
X12013714Y-12247500D01*
X12028000Y-12261786D01*
X12042286Y-12290357D01*
X12056571Y-12347500D01*
X12056571Y-12418929D01*
X12042286Y-12476071D01*
X12028000Y-12504643D01*
X12013714Y-12518929D01*
X11985143Y-12533214D01*
X11956571Y-12533214D01*
X11928000Y-12518929D01*
X11913714Y-12504643D01*
X11899428Y-12476071D01*
X11885143Y-12418929D01*
X11885143Y-12347500D01*
X11899428Y-12290357D01*
X11913714Y-12261786D01*
X11928000Y-12247500D01*
X11956571Y-12233214D01*
X12185143Y-12504643D02*
X12199428Y-12518929D01*
X12185143Y-12533214D01*
X12170857Y-12518929D01*
X12185143Y-12504643D01*
X12185143Y-12533214D01*
X12456571Y-12333214D02*
X12456571Y-12533214D01*
X12385143Y-12218929D02*
X12313714Y-12433214D01*
X12499428Y-12433214D01*
X12670857Y-12233214D02*
X12699428Y-12233214D01*
X12728000Y-12247500D01*
X12742286Y-12261786D01*
X12756571Y-12290357D01*
X12770857Y-12347500D01*
X12770857Y-12418929D01*
X12756571Y-12476071D01*
X12742286Y-12504643D01*
X12728000Y-12518929D01*
X12699428Y-12533214D01*
X12670857Y-12533214D01*
X12642286Y-12518929D01*
X12628000Y-12504643D01*
X12613714Y-12476071D01*
X12599428Y-12418929D01*
X12599428Y-12347500D01*
X12613714Y-12290357D01*
X12628000Y-12261786D01*
X12642286Y-12247500D01*
X12670857Y-12233214D01*
X12899428Y-12533214D02*
X12899428Y-12333214D01*
X12899428Y-12361786D02*
X12913714Y-12347500D01*
X12942286Y-12333214D01*
X12985143Y-12333214D01*
X13013714Y-12347500D01*
X13028000Y-12376071D01*
X13028000Y-12533214D01*
X13028000Y-12376071D02*
X13042286Y-12347500D01*
X13070857Y-12333214D01*
X13113714Y-12333214D01*
X13142286Y-12347500D01*
X13156571Y-12376071D01*
X13156571Y-12533214D01*
X13299428Y-12533214D02*
X13299428Y-12333214D01*
X13299428Y-12361786D02*
X13313714Y-12347500D01*
X13342286Y-12333214D01*
X13385143Y-12333214D01*
X13413714Y-12347500D01*
X13428000Y-12376071D01*
X13428000Y-12533214D01*
X13428000Y-12376071D02*
X13442286Y-12347500D01*
X13470857Y-12333214D01*
X13513714Y-12333214D01*
X13542286Y-12347500D01*
X13556571Y-12376071D01*
X13556571Y-12533214D01*
X14142286Y-12218929D02*
X13885143Y-12604643D01*
X14528000Y-12233214D02*
X14556571Y-12233214D01*
X14585143Y-12247500D01*
X14599428Y-12261786D01*
X14613714Y-12290357D01*
X14628000Y-12347500D01*
X14628000Y-12418929D01*
X14613714Y-12476071D01*
X14599428Y-12504643D01*
X14585143Y-12518929D01*
X14556571Y-12533214D01*
X14528000Y-12533214D01*
X14499428Y-12518929D01*
X14485143Y-12504643D01*
X14470857Y-12476071D01*
X14456571Y-12418929D01*
X14456571Y-12347500D01*
X14470857Y-12290357D01*
X14485143Y-12261786D01*
X14499428Y-12247500D01*
X14528000Y-12233214D01*
X14756571Y-12504643D02*
X14770857Y-12518929D01*
X14756571Y-12533214D01*
X14742286Y-12518929D01*
X14756571Y-12504643D01*
X14756571Y-12533214D01*
X14956571Y-12233214D02*
X14985143Y-12233214D01*
X15013714Y-12247500D01*
X15028000Y-12261786D01*
X15042286Y-12290357D01*
X15056571Y-12347500D01*
X15056571Y-12418929D01*
X15042286Y-12476071D01*
X15028000Y-12504643D01*
X15013714Y-12518929D01*
X14985143Y-12533214D01*
X14956571Y-12533214D01*
X14928000Y-12518929D01*
X14913714Y-12504643D01*
X14899428Y-12476071D01*
X14885143Y-12418929D01*
X14885143Y-12347500D01*
X14899428Y-12290357D01*
X14913714Y-12261786D01*
X14928000Y-12247500D01*
X14956571Y-12233214D01*
X15342286Y-12533214D02*
X15170857Y-12533214D01*
X15256571Y-12533214D02*
X15256571Y-12233214D01*
X15228000Y-12276071D01*
X15199428Y-12304643D01*
X15170857Y-12318929D01*
X15599428Y-12233214D02*
X15542286Y-12233214D01*
X15513714Y-12247500D01*
X15499428Y-12261786D01*
X15470857Y-12304643D01*
X15456571Y-12361786D01*
X15456571Y-12476071D01*
X15470857Y-12504643D01*
X15485143Y-12518929D01*
X15513714Y-12533214D01*
X15570857Y-12533214D01*
X15599428Y-12518929D01*
X15613714Y-12504643D01*
X15628000Y-12476071D01*
X15628000Y-12404643D01*
X15613714Y-12376071D01*
X15599428Y-12361786D01*
X15570857Y-12347500D01*
X15513714Y-12347500D01*
X15485143Y-12361786D01*
X15470857Y-12376071D01*
X15456571Y-12404643D01*
X15742286Y-12233214D02*
X15742286Y-12290357D01*
X15856571Y-12233214D02*
X15856571Y-12290357D01*
X16299428Y-12647500D02*
X16285143Y-12633214D01*
X16256571Y-12590357D01*
X16242286Y-12561786D01*
X16228000Y-12518929D01*
X16213714Y-12447500D01*
X16213714Y-12390357D01*
X16228000Y-12318929D01*
X16242286Y-12276071D01*
X16256571Y-12247500D01*
X16285143Y-12204643D01*
X16299428Y-12190357D01*
X16399428Y-12261786D02*
X16413714Y-12247500D01*
X16442286Y-12233214D01*
X16513714Y-12233214D01*
X16542286Y-12247500D01*
X16556571Y-12261786D01*
X16570857Y-12290357D01*
X16570857Y-12318929D01*
X16556571Y-12361786D01*
X16385143Y-12533214D01*
X16570857Y-12533214D01*
X16856571Y-12533214D02*
X16685143Y-12533214D01*
X16770857Y-12533214D02*
X16770857Y-12233214D01*
X16742286Y-12276071D01*
X16713714Y-12304643D01*
X16685143Y-12318929D01*
X17213714Y-12533214D02*
X17213714Y-12233214D01*
X17342286Y-12533214D02*
X17342286Y-12376071D01*
X17328000Y-12347500D01*
X17299428Y-12333214D01*
X17256571Y-12333214D01*
X17228000Y-12347500D01*
X17213714Y-12361786D01*
X17528000Y-12533214D02*
X17499428Y-12518929D01*
X17485143Y-12504643D01*
X17470857Y-12476071D01*
X17470857Y-12390357D01*
X17485143Y-12361786D01*
X17499428Y-12347500D01*
X17528000Y-12333214D01*
X17570857Y-12333214D01*
X17599428Y-12347500D01*
X17613714Y-12361786D01*
X17628000Y-12390357D01*
X17628000Y-12476071D01*
X17613714Y-12504643D01*
X17599428Y-12518929D01*
X17570857Y-12533214D01*
X17528000Y-12533214D01*
X17799428Y-12533214D02*
X17770857Y-12518929D01*
X17756571Y-12490357D01*
X17756571Y-12233214D01*
X18028000Y-12518929D02*
X17999428Y-12533214D01*
X17942286Y-12533214D01*
X17913714Y-12518929D01*
X17899428Y-12490357D01*
X17899428Y-12376071D01*
X17913714Y-12347500D01*
X17942286Y-12333214D01*
X17999428Y-12333214D01*
X18028000Y-12347500D01*
X18042286Y-12376071D01*
X18042286Y-12404643D01*
X17899428Y-12433214D01*
X18156571Y-12518929D02*
X18185143Y-12533214D01*
X18242286Y-12533214D01*
X18270857Y-12518929D01*
X18285143Y-12490357D01*
X18285143Y-12476071D01*
X18270857Y-12447500D01*
X18242286Y-12433214D01*
X18199428Y-12433214D01*
X18170857Y-12418929D01*
X18156571Y-12390357D01*
X18156571Y-12376071D01*
X18170857Y-12347500D01*
X18199428Y-12333214D01*
X18242286Y-12333214D01*
X18270857Y-12347500D01*
X18385143Y-12647500D02*
X18399428Y-12633214D01*
X18428000Y-12590357D01*
X18442286Y-12561786D01*
X18456571Y-12518929D01*
X18470857Y-12447500D01*
X18470857Y-12390357D01*
X18456571Y-12318929D01*
X18442286Y-12276071D01*
X18428000Y-12247500D01*
X18399428Y-12204643D01*
X18385143Y-12190357D01*
X11613000Y-12793500D02*
G75*
G03X11613000Y-12793500I-45000J0D01*
G01*
X11956571Y-12629214D02*
X11985143Y-12629214D01*
X12013714Y-12643500D01*
X12028000Y-12657786D01*
X12042286Y-12686357D01*
X12056571Y-12743500D01*
X12056571Y-12814929D01*
X12042286Y-12872071D01*
X12028000Y-12900643D01*
X12013714Y-12914929D01*
X11985143Y-12929214D01*
X11956571Y-12929214D01*
X11928000Y-12914929D01*
X11913714Y-12900643D01*
X11899428Y-12872071D01*
X11885143Y-12814929D01*
X11885143Y-12743500D01*
X11899428Y-12686357D01*
X11913714Y-12657786D01*
X11928000Y-12643500D01*
X11956571Y-12629214D01*
X12185143Y-12900643D02*
X12199428Y-12914929D01*
X12185143Y-12929214D01*
X12170857Y-12914929D01*
X12185143Y-12900643D01*
X12185143Y-12929214D01*
X12342286Y-12929214D02*
X12399428Y-12929214D01*
X12428000Y-12914929D01*
X12442286Y-12900643D01*
X12470857Y-12857786D01*
X12485143Y-12800643D01*
X12485143Y-12686357D01*
X12470857Y-12657786D01*
X12456571Y-12643500D01*
X12428000Y-12629214D01*
X12370857Y-12629214D01*
X12342286Y-12643500D01*
X12328000Y-12657786D01*
X12313714Y-12686357D01*
X12313714Y-12757786D01*
X12328000Y-12786357D01*
X12342286Y-12800643D01*
X12370857Y-12814929D01*
X12428000Y-12814929D01*
X12456571Y-12800643D01*
X12470857Y-12786357D01*
X12485143Y-12757786D01*
X12670857Y-12629214D02*
X12699428Y-12629214D01*
X12728000Y-12643500D01*
X12742286Y-12657786D01*
X12756571Y-12686357D01*
X12770857Y-12743500D01*
X12770857Y-12814929D01*
X12756571Y-12872071D01*
X12742286Y-12900643D01*
X12728000Y-12914929D01*
X12699428Y-12929214D01*
X12670857Y-12929214D01*
X12642286Y-12914929D01*
X12628000Y-12900643D01*
X12613714Y-12872071D01*
X12599428Y-12814929D01*
X12599428Y-12743500D01*
X12613714Y-12686357D01*
X12628000Y-12657786D01*
X12642286Y-12643500D01*
X12670857Y-12629214D01*
X12899428Y-12929214D02*
X12899428Y-12729214D01*
X12899428Y-12757786D02*
X12913714Y-12743500D01*
X12942286Y-12729214D01*
X12985143Y-12729214D01*
X13013714Y-12743500D01*
X13028000Y-12772071D01*
X13028000Y-12929214D01*
X13028000Y-12772071D02*
X13042286Y-12743500D01*
X13070857Y-12729214D01*
X13113714Y-12729214D01*
X13142286Y-12743500D01*
X13156571Y-12772071D01*
X13156571Y-12929214D01*
X13299428Y-12929214D02*
X13299428Y-12729214D01*
X13299428Y-12757786D02*
X13313714Y-12743500D01*
X13342286Y-12729214D01*
X13385143Y-12729214D01*
X13413714Y-12743500D01*
X13428000Y-12772071D01*
X13428000Y-12929214D01*
X13428000Y-12772071D02*
X13442286Y-12743500D01*
X13470857Y-12729214D01*
X13513714Y-12729214D01*
X13542286Y-12743500D01*
X13556571Y-12772071D01*
X13556571Y-12929214D01*
X14142286Y-12614929D02*
X13885143Y-13000643D01*
X14528000Y-12629214D02*
X14556571Y-12629214D01*
X14585143Y-12643500D01*
X14599428Y-12657786D01*
X14613714Y-12686357D01*
X14628000Y-12743500D01*
X14628000Y-12814929D01*
X14613714Y-12872071D01*
X14599428Y-12900643D01*
X14585143Y-12914929D01*
X14556571Y-12929214D01*
X14528000Y-12929214D01*
X14499428Y-12914929D01*
X14485143Y-12900643D01*
X14470857Y-12872071D01*
X14456571Y-12814929D01*
X14456571Y-12743500D01*
X14470857Y-12686357D01*
X14485143Y-12657786D01*
X14499428Y-12643500D01*
X14528000Y-12629214D01*
X14756571Y-12900643D02*
X14770857Y-12914929D01*
X14756571Y-12929214D01*
X14742286Y-12914929D01*
X14756571Y-12900643D01*
X14756571Y-12929214D01*
X14956571Y-12629214D02*
X14985143Y-12629214D01*
X15013714Y-12643500D01*
X15028000Y-12657786D01*
X15042286Y-12686357D01*
X15056571Y-12743500D01*
X15056571Y-12814929D01*
X15042286Y-12872071D01*
X15028000Y-12900643D01*
X15013714Y-12914929D01*
X14985143Y-12929214D01*
X14956571Y-12929214D01*
X14928000Y-12914929D01*
X14913714Y-12900643D01*
X14899428Y-12872071D01*
X14885143Y-12814929D01*
X14885143Y-12743500D01*
X14899428Y-12686357D01*
X14913714Y-12657786D01*
X14928000Y-12643500D01*
X14956571Y-12629214D01*
X15156571Y-12629214D02*
X15342286Y-12629214D01*
X15242286Y-12743500D01*
X15285143Y-12743500D01*
X15313714Y-12757786D01*
X15328000Y-12772071D01*
X15342286Y-12800643D01*
X15342286Y-12872071D01*
X15328000Y-12900643D01*
X15313714Y-12914929D01*
X15285143Y-12929214D01*
X15199428Y-12929214D01*
X15170857Y-12914929D01*
X15156571Y-12900643D01*
X15613714Y-12629214D02*
X15470857Y-12629214D01*
X15456571Y-12772071D01*
X15470857Y-12757786D01*
X15499428Y-12743500D01*
X15570857Y-12743500D01*
X15599428Y-12757786D01*
X15613714Y-12772071D01*
X15628000Y-12800643D01*
X15628000Y-12872071D01*
X15613714Y-12900643D01*
X15599428Y-12914929D01*
X15570857Y-12929214D01*
X15499428Y-12929214D01*
X15470857Y-12914929D01*
X15456571Y-12900643D01*
X15742286Y-12629214D02*
X15742286Y-12686357D01*
X15856571Y-12629214D02*
X15856571Y-12686357D01*
X16299428Y-13043500D02*
X16285143Y-13029214D01*
X16256571Y-12986357D01*
X16242286Y-12957786D01*
X16228000Y-12914929D01*
X16213714Y-12843500D01*
X16213714Y-12786357D01*
X16228000Y-12714929D01*
X16242286Y-12672071D01*
X16256571Y-12643500D01*
X16285143Y-12600643D01*
X16299428Y-12586357D01*
X16542286Y-12629214D02*
X16485143Y-12629214D01*
X16456571Y-12643500D01*
X16442286Y-12657786D01*
X16413714Y-12700643D01*
X16399428Y-12757786D01*
X16399428Y-12872071D01*
X16413714Y-12900643D01*
X16428000Y-12914929D01*
X16456571Y-12929214D01*
X16513714Y-12929214D01*
X16542286Y-12914929D01*
X16556571Y-12900643D01*
X16570857Y-12872071D01*
X16570857Y-12800643D01*
X16556571Y-12772071D01*
X16542286Y-12757786D01*
X16513714Y-12743500D01*
X16456571Y-12743500D01*
X16428000Y-12757786D01*
X16413714Y-12772071D01*
X16399428Y-12800643D01*
X16828000Y-12729214D02*
X16828000Y-12929214D01*
X16756571Y-12614929D02*
X16685143Y-12829214D01*
X16870857Y-12829214D01*
X17213714Y-12929214D02*
X17213714Y-12629214D01*
X17342286Y-12929214D02*
X17342286Y-12772071D01*
X17328000Y-12743500D01*
X17299428Y-12729214D01*
X17256571Y-12729214D01*
X17228000Y-12743500D01*
X17213714Y-12757786D01*
X17528000Y-12929214D02*
X17499428Y-12914929D01*
X17485143Y-12900643D01*
X17470857Y-12872071D01*
X17470857Y-12786357D01*
X17485143Y-12757786D01*
X17499428Y-12743500D01*
X17528000Y-12729214D01*
X17570857Y-12729214D01*
X17599428Y-12743500D01*
X17613714Y-12757786D01*
X17628000Y-12786357D01*
X17628000Y-12872071D01*
X17613714Y-12900643D01*
X17599428Y-12914929D01*
X17570857Y-12929214D01*
X17528000Y-12929214D01*
X17799428Y-12929214D02*
X17770857Y-12914929D01*
X17756571Y-12886357D01*
X17756571Y-12629214D01*
X18028000Y-12914929D02*
X17999428Y-12929214D01*
X17942286Y-12929214D01*
X17913714Y-12914929D01*
X17899428Y-12886357D01*
X17899428Y-12772071D01*
X17913714Y-12743500D01*
X17942286Y-12729214D01*
X17999428Y-12729214D01*
X18028000Y-12743500D01*
X18042286Y-12772071D01*
X18042286Y-12800643D01*
X17899428Y-12829214D01*
X18156571Y-12914929D02*
X18185143Y-12929214D01*
X18242286Y-12929214D01*
X18270857Y-12914929D01*
X18285143Y-12886357D01*
X18285143Y-12872071D01*
X18270857Y-12843500D01*
X18242286Y-12829214D01*
X18199428Y-12829214D01*
X18170857Y-12814929D01*
X18156571Y-12786357D01*
X18156571Y-12772071D01*
X18170857Y-12743500D01*
X18199428Y-12729214D01*
X18242286Y-12729214D01*
X18270857Y-12743500D01*
X18385143Y-13043500D02*
X18399428Y-13029214D01*
X18428000Y-12986357D01*
X18442286Y-12957786D01*
X18456571Y-12914929D01*
X18470857Y-12843500D01*
X18470857Y-12786357D01*
X18456571Y-12714929D01*
X18442286Y-12672071D01*
X18428000Y-12643500D01*
X18399428Y-12600643D01*
X18385143Y-12586357D01*
X11563000Y-13139500D02*
X11563000Y-13239500D01*
X11513000Y-13189500D02*
X11613000Y-13189500D01*
X12056571Y-13325214D02*
X11885143Y-13325214D01*
X11970857Y-13325214D02*
X11970857Y-13025214D01*
X11942286Y-13068071D01*
X11913714Y-13096643D01*
X11885143Y-13110929D01*
X12185143Y-13296643D02*
X12199428Y-13310929D01*
X12185143Y-13325214D01*
X12170857Y-13310929D01*
X12185143Y-13296643D01*
X12185143Y-13325214D01*
X12385143Y-13025214D02*
X12413714Y-13025214D01*
X12442286Y-13039500D01*
X12456571Y-13053786D01*
X12470857Y-13082357D01*
X12485143Y-13139500D01*
X12485143Y-13210929D01*
X12470857Y-13268071D01*
X12456571Y-13296643D01*
X12442286Y-13310929D01*
X12413714Y-13325214D01*
X12385143Y-13325214D01*
X12356571Y-13310929D01*
X12342286Y-13296643D01*
X12328000Y-13268071D01*
X12313714Y-13210929D01*
X12313714Y-13139500D01*
X12328000Y-13082357D01*
X12342286Y-13053786D01*
X12356571Y-13039500D01*
X12385143Y-13025214D01*
X12670857Y-13025214D02*
X12699428Y-13025214D01*
X12728000Y-13039500D01*
X12742286Y-13053786D01*
X12756571Y-13082357D01*
X12770857Y-13139500D01*
X12770857Y-13210929D01*
X12756571Y-13268071D01*
X12742286Y-13296643D01*
X12728000Y-13310929D01*
X12699428Y-13325214D01*
X12670857Y-13325214D01*
X12642286Y-13310929D01*
X12628000Y-13296643D01*
X12613714Y-13268071D01*
X12599428Y-13210929D01*
X12599428Y-13139500D01*
X12613714Y-13082357D01*
X12628000Y-13053786D01*
X12642286Y-13039500D01*
X12670857Y-13025214D01*
X12899428Y-13325214D02*
X12899428Y-13125214D01*
X12899428Y-13153786D02*
X12913714Y-13139500D01*
X12942286Y-13125214D01*
X12985143Y-13125214D01*
X13013714Y-13139500D01*
X13028000Y-13168071D01*
X13028000Y-13325214D01*
X13028000Y-13168071D02*
X13042286Y-13139500D01*
X13070857Y-13125214D01*
X13113714Y-13125214D01*
X13142286Y-13139500D01*
X13156571Y-13168071D01*
X13156571Y-13325214D01*
X13299428Y-13325214D02*
X13299428Y-13125214D01*
X13299428Y-13153786D02*
X13313714Y-13139500D01*
X13342286Y-13125214D01*
X13385143Y-13125214D01*
X13413714Y-13139500D01*
X13428000Y-13168071D01*
X13428000Y-13325214D01*
X13428000Y-13168071D02*
X13442286Y-13139500D01*
X13470857Y-13125214D01*
X13513714Y-13125214D01*
X13542286Y-13139500D01*
X13556571Y-13168071D01*
X13556571Y-13325214D01*
X14142286Y-13010929D02*
X13885143Y-13396643D01*
X14528000Y-13025214D02*
X14556571Y-13025214D01*
X14585143Y-13039500D01*
X14599428Y-13053786D01*
X14613714Y-13082357D01*
X14628000Y-13139500D01*
X14628000Y-13210929D01*
X14613714Y-13268071D01*
X14599428Y-13296643D01*
X14585143Y-13310929D01*
X14556571Y-13325214D01*
X14528000Y-13325214D01*
X14499428Y-13310929D01*
X14485143Y-13296643D01*
X14470857Y-13268071D01*
X14456571Y-13210929D01*
X14456571Y-13139500D01*
X14470857Y-13082357D01*
X14485143Y-13053786D01*
X14499428Y-13039500D01*
X14528000Y-13025214D01*
X14756571Y-13296643D02*
X14770857Y-13310929D01*
X14756571Y-13325214D01*
X14742286Y-13310929D01*
X14756571Y-13296643D01*
X14756571Y-13325214D01*
X14956571Y-13025214D02*
X14985143Y-13025214D01*
X15013714Y-13039500D01*
X15028000Y-13053786D01*
X15042286Y-13082357D01*
X15056571Y-13139500D01*
X15056571Y-13210929D01*
X15042286Y-13268071D01*
X15028000Y-13296643D01*
X15013714Y-13310929D01*
X14985143Y-13325214D01*
X14956571Y-13325214D01*
X14928000Y-13310929D01*
X14913714Y-13296643D01*
X14899428Y-13268071D01*
X14885143Y-13210929D01*
X14885143Y-13139500D01*
X14899428Y-13082357D01*
X14913714Y-13053786D01*
X14928000Y-13039500D01*
X14956571Y-13025214D01*
X15156571Y-13025214D02*
X15342286Y-13025214D01*
X15242286Y-13139500D01*
X15285143Y-13139500D01*
X15313714Y-13153786D01*
X15328000Y-13168071D01*
X15342286Y-13196643D01*
X15342286Y-13268071D01*
X15328000Y-13296643D01*
X15313714Y-13310929D01*
X15285143Y-13325214D01*
X15199428Y-13325214D01*
X15170857Y-13310929D01*
X15156571Y-13296643D01*
X15485143Y-13325214D02*
X15542286Y-13325214D01*
X15570857Y-13310929D01*
X15585143Y-13296643D01*
X15613714Y-13253786D01*
X15628000Y-13196643D01*
X15628000Y-13082357D01*
X15613714Y-13053786D01*
X15599428Y-13039500D01*
X15570857Y-13025214D01*
X15513714Y-13025214D01*
X15485143Y-13039500D01*
X15470857Y-13053786D01*
X15456571Y-13082357D01*
X15456571Y-13153786D01*
X15470857Y-13182357D01*
X15485143Y-13196643D01*
X15513714Y-13210929D01*
X15570857Y-13210929D01*
X15599428Y-13196643D01*
X15613714Y-13182357D01*
X15628000Y-13153786D01*
X15742286Y-13025214D02*
X15742286Y-13082357D01*
X15856571Y-13025214D02*
X15856571Y-13082357D01*
X16299428Y-13439500D02*
X16285143Y-13425214D01*
X16256571Y-13382357D01*
X16242286Y-13353786D01*
X16228000Y-13310929D01*
X16213714Y-13239500D01*
X16213714Y-13182357D01*
X16228000Y-13110929D01*
X16242286Y-13068071D01*
X16256571Y-13039500D01*
X16285143Y-12996643D01*
X16299428Y-12982357D01*
X16542286Y-13125214D02*
X16542286Y-13325214D01*
X16470857Y-13010929D02*
X16399428Y-13225214D01*
X16585143Y-13225214D01*
X16928000Y-13325214D02*
X16928000Y-13025214D01*
X17056571Y-13325214D02*
X17056571Y-13168071D01*
X17042286Y-13139500D01*
X17013714Y-13125214D01*
X16970857Y-13125214D01*
X16942286Y-13139500D01*
X16928000Y-13153786D01*
X17242286Y-13325214D02*
X17213714Y-13310929D01*
X17199428Y-13296643D01*
X17185143Y-13268071D01*
X17185143Y-13182357D01*
X17199428Y-13153786D01*
X17213714Y-13139500D01*
X17242286Y-13125214D01*
X17285143Y-13125214D01*
X17313714Y-13139500D01*
X17328000Y-13153786D01*
X17342286Y-13182357D01*
X17342286Y-13268071D01*
X17328000Y-13296643D01*
X17313714Y-13310929D01*
X17285143Y-13325214D01*
X17242286Y-13325214D01*
X17513714Y-13325214D02*
X17485143Y-13310929D01*
X17470857Y-13282357D01*
X17470857Y-13025214D01*
X17742286Y-13310929D02*
X17713714Y-13325214D01*
X17656571Y-13325214D01*
X17628000Y-13310929D01*
X17613714Y-13282357D01*
X17613714Y-13168071D01*
X17628000Y-13139500D01*
X17656571Y-13125214D01*
X17713714Y-13125214D01*
X17742286Y-13139500D01*
X17756571Y-13168071D01*
X17756571Y-13196643D01*
X17613714Y-13225214D01*
X17870857Y-13310929D02*
X17899428Y-13325214D01*
X17956571Y-13325214D01*
X17985143Y-13310929D01*
X17999428Y-13282357D01*
X17999428Y-13268071D01*
X17985143Y-13239500D01*
X17956571Y-13225214D01*
X17913714Y-13225214D01*
X17885143Y-13210929D01*
X17870857Y-13182357D01*
X17870857Y-13168071D01*
X17885143Y-13139500D01*
X17913714Y-13125214D01*
X17956571Y-13125214D01*
X17985143Y-13139500D01*
X18099428Y-13439500D02*
X18113714Y-13425214D01*
X18142286Y-13382357D01*
X18156571Y-13353786D01*
X18170857Y-13310929D01*
X18185143Y-13239500D01*
X18185143Y-13182357D01*
X18170857Y-13110929D01*
X18156571Y-13068071D01*
X18142286Y-13039500D01*
X18113714Y-12996643D01*
X18099428Y-12982357D01*
M02*
