G04 #@! TF.GenerationSoftware,KiCad,Pcbnew,5.0.2+dfsg1-1*
G04 #@! TF.CreationDate,2019-01-13T01:33:18+00:00*
G04 #@! TF.ProjectId,led_matrix_v1,6c65645f-6d61-4747-9269-785f76312e6b,rev?*
G04 #@! TF.SameCoordinates,Original*
G04 #@! TF.FileFunction,Soldermask,Top*
G04 #@! TF.FilePolarity,Negative*
%FSLAX46Y46*%
G04 Gerber Fmt 4.6, Leading zero omitted, Abs format (unit mm)*
G04 Created by KiCad (PCBNEW 5.0.2+dfsg1-1) date Sun 13 Jan 2019 01:33:18 GMT*
%MOMM*%
%LPD*%
G01*
G04 APERTURE LIST*
%ADD10C,0.100000*%
G04 APERTURE END LIST*
D10*
G36*
X157415000Y-109917000D02*
X155513000Y-109917000D01*
X155513000Y-108015000D01*
X157415000Y-108015000D01*
X157415000Y-109917000D01*
X157415000Y-109917000D01*
G37*
G36*
X171639000Y-109917000D02*
X169737000Y-109917000D01*
X169737000Y-108015000D01*
X171639000Y-108015000D01*
X171639000Y-109917000D01*
X171639000Y-109917000D01*
G37*
G36*
X192975000Y-109917000D02*
X191073000Y-109917000D01*
X191073000Y-108015000D01*
X192975000Y-108015000D01*
X192975000Y-109917000D01*
X192975000Y-109917000D01*
G37*
G36*
X182649396Y-108051546D02*
X182822466Y-108123234D01*
X182978230Y-108227312D01*
X183110688Y-108359770D01*
X183214766Y-108515534D01*
X183286454Y-108688604D01*
X183323000Y-108872333D01*
X183323000Y-109059667D01*
X183286454Y-109243396D01*
X183214766Y-109416466D01*
X183110688Y-109572230D01*
X182978230Y-109704688D01*
X182822466Y-109808766D01*
X182649396Y-109880454D01*
X182465667Y-109917000D01*
X182278333Y-109917000D01*
X182094604Y-109880454D01*
X181921534Y-109808766D01*
X181765770Y-109704688D01*
X181633312Y-109572230D01*
X181529234Y-109416466D01*
X181457546Y-109243396D01*
X181421000Y-109059667D01*
X181421000Y-108872333D01*
X181457546Y-108688604D01*
X181529234Y-108515534D01*
X181633312Y-108359770D01*
X181765770Y-108227312D01*
X181921534Y-108123234D01*
X182094604Y-108051546D01*
X182278333Y-108015000D01*
X182465667Y-108015000D01*
X182649396Y-108051546D01*
X182649396Y-108051546D01*
G37*
G36*
X185863000Y-109917000D02*
X183961000Y-109917000D01*
X183961000Y-108015000D01*
X185863000Y-108015000D01*
X185863000Y-109917000D01*
X185863000Y-109917000D01*
G37*
G36*
X178751000Y-109917000D02*
X176849000Y-109917000D01*
X176849000Y-108015000D01*
X178751000Y-108015000D01*
X178751000Y-109917000D01*
X178751000Y-109917000D01*
G37*
G36*
X175537396Y-108051546D02*
X175710466Y-108123234D01*
X175866230Y-108227312D01*
X175998688Y-108359770D01*
X176102766Y-108515534D01*
X176174454Y-108688604D01*
X176211000Y-108872333D01*
X176211000Y-109059667D01*
X176174454Y-109243396D01*
X176102766Y-109416466D01*
X175998688Y-109572230D01*
X175866230Y-109704688D01*
X175710466Y-109808766D01*
X175537396Y-109880454D01*
X175353667Y-109917000D01*
X175166333Y-109917000D01*
X174982604Y-109880454D01*
X174809534Y-109808766D01*
X174653770Y-109704688D01*
X174521312Y-109572230D01*
X174417234Y-109416466D01*
X174345546Y-109243396D01*
X174309000Y-109059667D01*
X174309000Y-108872333D01*
X174345546Y-108688604D01*
X174417234Y-108515534D01*
X174521312Y-108359770D01*
X174653770Y-108227312D01*
X174809534Y-108123234D01*
X174982604Y-108051546D01*
X175166333Y-108015000D01*
X175353667Y-108015000D01*
X175537396Y-108051546D01*
X175537396Y-108051546D01*
G37*
G36*
X168425396Y-108051546D02*
X168598466Y-108123234D01*
X168754230Y-108227312D01*
X168886688Y-108359770D01*
X168990766Y-108515534D01*
X169062454Y-108688604D01*
X169099000Y-108872333D01*
X169099000Y-109059667D01*
X169062454Y-109243396D01*
X168990766Y-109416466D01*
X168886688Y-109572230D01*
X168754230Y-109704688D01*
X168598466Y-109808766D01*
X168425396Y-109880454D01*
X168241667Y-109917000D01*
X168054333Y-109917000D01*
X167870604Y-109880454D01*
X167697534Y-109808766D01*
X167541770Y-109704688D01*
X167409312Y-109572230D01*
X167305234Y-109416466D01*
X167233546Y-109243396D01*
X167197000Y-109059667D01*
X167197000Y-108872333D01*
X167233546Y-108688604D01*
X167305234Y-108515534D01*
X167409312Y-108359770D01*
X167541770Y-108227312D01*
X167697534Y-108123234D01*
X167870604Y-108051546D01*
X168054333Y-108015000D01*
X168241667Y-108015000D01*
X168425396Y-108051546D01*
X168425396Y-108051546D01*
G37*
G36*
X189761396Y-108051546D02*
X189934466Y-108123234D01*
X190090230Y-108227312D01*
X190222688Y-108359770D01*
X190326766Y-108515534D01*
X190398454Y-108688604D01*
X190435000Y-108872333D01*
X190435000Y-109059667D01*
X190398454Y-109243396D01*
X190326766Y-109416466D01*
X190222688Y-109572230D01*
X190090230Y-109704688D01*
X189934466Y-109808766D01*
X189761396Y-109880454D01*
X189577667Y-109917000D01*
X189390333Y-109917000D01*
X189206604Y-109880454D01*
X189033534Y-109808766D01*
X188877770Y-109704688D01*
X188745312Y-109572230D01*
X188641234Y-109416466D01*
X188569546Y-109243396D01*
X188533000Y-109059667D01*
X188533000Y-108872333D01*
X188569546Y-108688604D01*
X188641234Y-108515534D01*
X188745312Y-108359770D01*
X188877770Y-108227312D01*
X189033534Y-108123234D01*
X189206604Y-108051546D01*
X189390333Y-108015000D01*
X189577667Y-108015000D01*
X189761396Y-108051546D01*
X189761396Y-108051546D01*
G37*
G36*
X161313396Y-108051546D02*
X161486466Y-108123234D01*
X161642230Y-108227312D01*
X161774688Y-108359770D01*
X161878766Y-108515534D01*
X161950454Y-108688604D01*
X161987000Y-108872333D01*
X161987000Y-109059667D01*
X161950454Y-109243396D01*
X161878766Y-109416466D01*
X161774688Y-109572230D01*
X161642230Y-109704688D01*
X161486466Y-109808766D01*
X161313396Y-109880454D01*
X161129667Y-109917000D01*
X160942333Y-109917000D01*
X160758604Y-109880454D01*
X160585534Y-109808766D01*
X160429770Y-109704688D01*
X160297312Y-109572230D01*
X160193234Y-109416466D01*
X160121546Y-109243396D01*
X160085000Y-109059667D01*
X160085000Y-108872333D01*
X160121546Y-108688604D01*
X160193234Y-108515534D01*
X160297312Y-108359770D01*
X160429770Y-108227312D01*
X160585534Y-108123234D01*
X160758604Y-108051546D01*
X160942333Y-108015000D01*
X161129667Y-108015000D01*
X161313396Y-108051546D01*
X161313396Y-108051546D01*
G37*
G36*
X139977396Y-108051546D02*
X140150466Y-108123234D01*
X140306230Y-108227312D01*
X140438688Y-108359770D01*
X140542766Y-108515534D01*
X140614454Y-108688604D01*
X140651000Y-108872333D01*
X140651000Y-109059667D01*
X140614454Y-109243396D01*
X140542766Y-109416466D01*
X140438688Y-109572230D01*
X140306230Y-109704688D01*
X140150466Y-109808766D01*
X139977396Y-109880454D01*
X139793667Y-109917000D01*
X139606333Y-109917000D01*
X139422604Y-109880454D01*
X139249534Y-109808766D01*
X139093770Y-109704688D01*
X138961312Y-109572230D01*
X138857234Y-109416466D01*
X138785546Y-109243396D01*
X138749000Y-109059667D01*
X138749000Y-108872333D01*
X138785546Y-108688604D01*
X138857234Y-108515534D01*
X138961312Y-108359770D01*
X139093770Y-108227312D01*
X139249534Y-108123234D01*
X139422604Y-108051546D01*
X139606333Y-108015000D01*
X139793667Y-108015000D01*
X139977396Y-108051546D01*
X139977396Y-108051546D01*
G37*
G36*
X143191000Y-109917000D02*
X141289000Y-109917000D01*
X141289000Y-108015000D01*
X143191000Y-108015000D01*
X143191000Y-109917000D01*
X143191000Y-109917000D01*
G37*
G36*
X150303000Y-109917000D02*
X148401000Y-109917000D01*
X148401000Y-108015000D01*
X150303000Y-108015000D01*
X150303000Y-109917000D01*
X150303000Y-109917000D01*
G37*
G36*
X147089396Y-108051546D02*
X147262466Y-108123234D01*
X147418230Y-108227312D01*
X147550688Y-108359770D01*
X147654766Y-108515534D01*
X147726454Y-108688604D01*
X147763000Y-108872333D01*
X147763000Y-109059667D01*
X147726454Y-109243396D01*
X147654766Y-109416466D01*
X147550688Y-109572230D01*
X147418230Y-109704688D01*
X147262466Y-109808766D01*
X147089396Y-109880454D01*
X146905667Y-109917000D01*
X146718333Y-109917000D01*
X146534604Y-109880454D01*
X146361534Y-109808766D01*
X146205770Y-109704688D01*
X146073312Y-109572230D01*
X145969234Y-109416466D01*
X145897546Y-109243396D01*
X145861000Y-109059667D01*
X145861000Y-108872333D01*
X145897546Y-108688604D01*
X145969234Y-108515534D01*
X146073312Y-108359770D01*
X146205770Y-108227312D01*
X146361534Y-108123234D01*
X146534604Y-108051546D01*
X146718333Y-108015000D01*
X146905667Y-108015000D01*
X147089396Y-108051546D01*
X147089396Y-108051546D01*
G37*
G36*
X154201396Y-108051546D02*
X154374466Y-108123234D01*
X154530230Y-108227312D01*
X154662688Y-108359770D01*
X154766766Y-108515534D01*
X154838454Y-108688604D01*
X154875000Y-108872333D01*
X154875000Y-109059667D01*
X154838454Y-109243396D01*
X154766766Y-109416466D01*
X154662688Y-109572230D01*
X154530230Y-109704688D01*
X154374466Y-109808766D01*
X154201396Y-109880454D01*
X154017667Y-109917000D01*
X153830333Y-109917000D01*
X153646604Y-109880454D01*
X153473534Y-109808766D01*
X153317770Y-109704688D01*
X153185312Y-109572230D01*
X153081234Y-109416466D01*
X153009546Y-109243396D01*
X152973000Y-109059667D01*
X152973000Y-108872333D01*
X153009546Y-108688604D01*
X153081234Y-108515534D01*
X153185312Y-108359770D01*
X153317770Y-108227312D01*
X153473534Y-108123234D01*
X153646604Y-108051546D01*
X153830333Y-108015000D01*
X154017667Y-108015000D01*
X154201396Y-108051546D01*
X154201396Y-108051546D01*
G37*
G36*
X164527000Y-109917000D02*
X162625000Y-109917000D01*
X162625000Y-108015000D01*
X164527000Y-108015000D01*
X164527000Y-109917000D01*
X164527000Y-109917000D01*
G37*
G36*
X131669000Y-109383000D02*
X130967000Y-109383000D01*
X130967000Y-107281000D01*
X131669000Y-107281000D01*
X131669000Y-109383000D01*
X131669000Y-109383000D01*
G37*
G36*
X129129000Y-109383000D02*
X128427000Y-109383000D01*
X128427000Y-107281000D01*
X129129000Y-107281000D01*
X129129000Y-109383000D01*
X129129000Y-109383000D01*
G37*
G36*
X127859000Y-109383000D02*
X127157000Y-109383000D01*
X127157000Y-107281000D01*
X127859000Y-107281000D01*
X127859000Y-109383000D01*
X127859000Y-109383000D01*
G37*
G36*
X126589000Y-109383000D02*
X125887000Y-109383000D01*
X125887000Y-107281000D01*
X126589000Y-107281000D01*
X126589000Y-109383000D01*
X126589000Y-109383000D01*
G37*
G36*
X124049000Y-109383000D02*
X123347000Y-109383000D01*
X123347000Y-107281000D01*
X124049000Y-107281000D01*
X124049000Y-109383000D01*
X124049000Y-109383000D01*
G37*
G36*
X122779000Y-109383000D02*
X122077000Y-109383000D01*
X122077000Y-107281000D01*
X122779000Y-107281000D01*
X122779000Y-109383000D01*
X122779000Y-109383000D01*
G37*
G36*
X130399000Y-109383000D02*
X129697000Y-109383000D01*
X129697000Y-107281000D01*
X130399000Y-107281000D01*
X130399000Y-109383000D01*
X130399000Y-109383000D01*
G37*
G36*
X132939000Y-109383000D02*
X132237000Y-109383000D01*
X132237000Y-107281000D01*
X132939000Y-107281000D01*
X132939000Y-109383000D01*
X132939000Y-109383000D01*
G37*
G36*
X125319000Y-109383000D02*
X124617000Y-109383000D01*
X124617000Y-107281000D01*
X125319000Y-107281000D01*
X125319000Y-109383000D01*
X125319000Y-109383000D01*
G37*
G36*
X119964466Y-107767065D02*
X120003137Y-107778796D01*
X120038779Y-107797848D01*
X120070017Y-107823483D01*
X120095652Y-107854721D01*
X120114704Y-107890363D01*
X120126435Y-107929034D01*
X120131000Y-107975388D01*
X120131000Y-108626612D01*
X120126435Y-108672966D01*
X120114704Y-108711637D01*
X120095652Y-108747279D01*
X120070017Y-108778517D01*
X120038779Y-108804152D01*
X120003137Y-108823204D01*
X119964466Y-108834935D01*
X119918112Y-108839500D01*
X118841888Y-108839500D01*
X118795534Y-108834935D01*
X118756863Y-108823204D01*
X118721221Y-108804152D01*
X118689983Y-108778517D01*
X118664348Y-108747279D01*
X118645296Y-108711637D01*
X118633565Y-108672966D01*
X118629000Y-108626612D01*
X118629000Y-107975388D01*
X118633565Y-107929034D01*
X118645296Y-107890363D01*
X118664348Y-107854721D01*
X118689983Y-107823483D01*
X118721221Y-107797848D01*
X118756863Y-107778796D01*
X118795534Y-107767065D01*
X118841888Y-107762500D01*
X119918112Y-107762500D01*
X119964466Y-107767065D01*
X119964466Y-107767065D01*
G37*
G36*
X137109466Y-106527065D02*
X137148137Y-106538796D01*
X137183779Y-106557848D01*
X137215017Y-106583483D01*
X137240652Y-106614721D01*
X137259704Y-106650363D01*
X137271435Y-106689034D01*
X137276000Y-106735388D01*
X137276000Y-107386612D01*
X137271435Y-107432966D01*
X137259704Y-107471637D01*
X137240652Y-107507279D01*
X137215017Y-107538517D01*
X137183779Y-107564152D01*
X137148137Y-107583204D01*
X137109466Y-107594935D01*
X137063112Y-107599500D01*
X135986888Y-107599500D01*
X135940534Y-107594935D01*
X135901863Y-107583204D01*
X135866221Y-107564152D01*
X135834983Y-107538517D01*
X135809348Y-107507279D01*
X135790296Y-107471637D01*
X135778565Y-107432966D01*
X135774000Y-107386612D01*
X135774000Y-106735388D01*
X135778565Y-106689034D01*
X135790296Y-106650363D01*
X135809348Y-106614721D01*
X135834983Y-106583483D01*
X135866221Y-106557848D01*
X135901863Y-106538796D01*
X135940534Y-106527065D01*
X135986888Y-106522500D01*
X137063112Y-106522500D01*
X137109466Y-106527065D01*
X137109466Y-106527065D01*
G37*
G36*
X119964466Y-105892065D02*
X120003137Y-105903796D01*
X120038779Y-105922848D01*
X120070017Y-105948483D01*
X120095652Y-105979721D01*
X120114704Y-106015363D01*
X120126435Y-106054034D01*
X120131000Y-106100388D01*
X120131000Y-106751612D01*
X120126435Y-106797966D01*
X120114704Y-106836637D01*
X120095652Y-106872279D01*
X120070017Y-106903517D01*
X120038779Y-106929152D01*
X120003137Y-106948204D01*
X119964466Y-106959935D01*
X119918112Y-106964500D01*
X118841888Y-106964500D01*
X118795534Y-106959935D01*
X118756863Y-106948204D01*
X118721221Y-106929152D01*
X118689983Y-106903517D01*
X118664348Y-106872279D01*
X118645296Y-106836637D01*
X118633565Y-106797966D01*
X118629000Y-106751612D01*
X118629000Y-106100388D01*
X118633565Y-106054034D01*
X118645296Y-106015363D01*
X118664348Y-105979721D01*
X118689983Y-105948483D01*
X118721221Y-105922848D01*
X118756863Y-105903796D01*
X118795534Y-105892065D01*
X118841888Y-105887500D01*
X119918112Y-105887500D01*
X119964466Y-105892065D01*
X119964466Y-105892065D01*
G37*
G36*
X137109466Y-104652065D02*
X137148137Y-104663796D01*
X137183779Y-104682848D01*
X137215017Y-104708483D01*
X137240652Y-104739721D01*
X137259704Y-104775363D01*
X137271435Y-104814034D01*
X137276000Y-104860388D01*
X137276000Y-105511612D01*
X137271435Y-105557966D01*
X137259704Y-105596637D01*
X137240652Y-105632279D01*
X137215017Y-105663517D01*
X137183779Y-105689152D01*
X137148137Y-105708204D01*
X137109466Y-105719935D01*
X137063112Y-105724500D01*
X135986888Y-105724500D01*
X135940534Y-105719935D01*
X135901863Y-105708204D01*
X135866221Y-105689152D01*
X135834983Y-105663517D01*
X135809348Y-105632279D01*
X135790296Y-105596637D01*
X135778565Y-105557966D01*
X135774000Y-105511612D01*
X135774000Y-104860388D01*
X135778565Y-104814034D01*
X135790296Y-104775363D01*
X135809348Y-104739721D01*
X135834983Y-104708483D01*
X135866221Y-104682848D01*
X135901863Y-104663796D01*
X135940534Y-104652065D01*
X135986888Y-104647500D01*
X137063112Y-104647500D01*
X137109466Y-104652065D01*
X137109466Y-104652065D01*
G37*
G36*
X119964466Y-103703065D02*
X120003137Y-103714796D01*
X120038779Y-103733848D01*
X120070017Y-103759483D01*
X120095652Y-103790721D01*
X120114704Y-103826363D01*
X120126435Y-103865034D01*
X120131000Y-103911388D01*
X120131000Y-104562612D01*
X120126435Y-104608966D01*
X120114704Y-104647637D01*
X120095652Y-104683279D01*
X120070017Y-104714517D01*
X120038779Y-104740152D01*
X120003137Y-104759204D01*
X119964466Y-104770935D01*
X119918112Y-104775500D01*
X118841888Y-104775500D01*
X118795534Y-104770935D01*
X118756863Y-104759204D01*
X118721221Y-104740152D01*
X118689983Y-104714517D01*
X118664348Y-104683279D01*
X118645296Y-104647637D01*
X118633565Y-104608966D01*
X118629000Y-104562612D01*
X118629000Y-103911388D01*
X118633565Y-103865034D01*
X118645296Y-103826363D01*
X118664348Y-103790721D01*
X118689983Y-103759483D01*
X118721221Y-103733848D01*
X118756863Y-103714796D01*
X118795534Y-103703065D01*
X118841888Y-103698500D01*
X119918112Y-103698500D01*
X119964466Y-103703065D01*
X119964466Y-103703065D01*
G37*
G36*
X119964466Y-101828065D02*
X120003137Y-101839796D01*
X120038779Y-101858848D01*
X120070017Y-101884483D01*
X120095652Y-101915721D01*
X120114704Y-101951363D01*
X120126435Y-101990034D01*
X120131000Y-102036388D01*
X120131000Y-102687612D01*
X120126435Y-102733966D01*
X120114704Y-102772637D01*
X120095652Y-102808279D01*
X120070017Y-102839517D01*
X120038779Y-102865152D01*
X120003137Y-102884204D01*
X119964466Y-102895935D01*
X119918112Y-102900500D01*
X118841888Y-102900500D01*
X118795534Y-102895935D01*
X118756863Y-102884204D01*
X118721221Y-102865152D01*
X118689983Y-102839517D01*
X118664348Y-102808279D01*
X118645296Y-102772637D01*
X118633565Y-102733966D01*
X118629000Y-102687612D01*
X118629000Y-102036388D01*
X118633565Y-101990034D01*
X118645296Y-101951363D01*
X118664348Y-101915721D01*
X118689983Y-101884483D01*
X118721221Y-101858848D01*
X118756863Y-101839796D01*
X118795534Y-101828065D01*
X118841888Y-101823500D01*
X119918112Y-101823500D01*
X119964466Y-101828065D01*
X119964466Y-101828065D01*
G37*
G36*
X192975000Y-102805000D02*
X191073000Y-102805000D01*
X191073000Y-100903000D01*
X192975000Y-100903000D01*
X192975000Y-102805000D01*
X192975000Y-102805000D01*
G37*
G36*
X189761396Y-100939546D02*
X189934466Y-101011234D01*
X190090230Y-101115312D01*
X190222688Y-101247770D01*
X190326766Y-101403534D01*
X190398454Y-101576604D01*
X190435000Y-101760333D01*
X190435000Y-101947667D01*
X190398454Y-102131396D01*
X190326766Y-102304466D01*
X190222688Y-102460230D01*
X190090230Y-102592688D01*
X189934466Y-102696766D01*
X189761396Y-102768454D01*
X189577667Y-102805000D01*
X189390333Y-102805000D01*
X189206604Y-102768454D01*
X189033534Y-102696766D01*
X188877770Y-102592688D01*
X188745312Y-102460230D01*
X188641234Y-102304466D01*
X188569546Y-102131396D01*
X188533000Y-101947667D01*
X188533000Y-101760333D01*
X188569546Y-101576604D01*
X188641234Y-101403534D01*
X188745312Y-101247770D01*
X188877770Y-101115312D01*
X189033534Y-101011234D01*
X189206604Y-100939546D01*
X189390333Y-100903000D01*
X189577667Y-100903000D01*
X189761396Y-100939546D01*
X189761396Y-100939546D01*
G37*
G36*
X185863000Y-102805000D02*
X183961000Y-102805000D01*
X183961000Y-100903000D01*
X185863000Y-100903000D01*
X185863000Y-102805000D01*
X185863000Y-102805000D01*
G37*
G36*
X150303000Y-102805000D02*
X148401000Y-102805000D01*
X148401000Y-100903000D01*
X150303000Y-100903000D01*
X150303000Y-102805000D01*
X150303000Y-102805000D01*
G37*
G36*
X182649396Y-100939546D02*
X182822466Y-101011234D01*
X182978230Y-101115312D01*
X183110688Y-101247770D01*
X183214766Y-101403534D01*
X183286454Y-101576604D01*
X183323000Y-101760333D01*
X183323000Y-101947667D01*
X183286454Y-102131396D01*
X183214766Y-102304466D01*
X183110688Y-102460230D01*
X182978230Y-102592688D01*
X182822466Y-102696766D01*
X182649396Y-102768454D01*
X182465667Y-102805000D01*
X182278333Y-102805000D01*
X182094604Y-102768454D01*
X181921534Y-102696766D01*
X181765770Y-102592688D01*
X181633312Y-102460230D01*
X181529234Y-102304466D01*
X181457546Y-102131396D01*
X181421000Y-101947667D01*
X181421000Y-101760333D01*
X181457546Y-101576604D01*
X181529234Y-101403534D01*
X181633312Y-101247770D01*
X181765770Y-101115312D01*
X181921534Y-101011234D01*
X182094604Y-100939546D01*
X182278333Y-100903000D01*
X182465667Y-100903000D01*
X182649396Y-100939546D01*
X182649396Y-100939546D01*
G37*
G36*
X178751000Y-102805000D02*
X176849000Y-102805000D01*
X176849000Y-100903000D01*
X178751000Y-100903000D01*
X178751000Y-102805000D01*
X178751000Y-102805000D01*
G37*
G36*
X175537396Y-100939546D02*
X175710466Y-101011234D01*
X175866230Y-101115312D01*
X175998688Y-101247770D01*
X176102766Y-101403534D01*
X176174454Y-101576604D01*
X176211000Y-101760333D01*
X176211000Y-101947667D01*
X176174454Y-102131396D01*
X176102766Y-102304466D01*
X175998688Y-102460230D01*
X175866230Y-102592688D01*
X175710466Y-102696766D01*
X175537396Y-102768454D01*
X175353667Y-102805000D01*
X175166333Y-102805000D01*
X174982604Y-102768454D01*
X174809534Y-102696766D01*
X174653770Y-102592688D01*
X174521312Y-102460230D01*
X174417234Y-102304466D01*
X174345546Y-102131396D01*
X174309000Y-101947667D01*
X174309000Y-101760333D01*
X174345546Y-101576604D01*
X174417234Y-101403534D01*
X174521312Y-101247770D01*
X174653770Y-101115312D01*
X174809534Y-101011234D01*
X174982604Y-100939546D01*
X175166333Y-100903000D01*
X175353667Y-100903000D01*
X175537396Y-100939546D01*
X175537396Y-100939546D01*
G37*
G36*
X161313396Y-100939546D02*
X161486466Y-101011234D01*
X161642230Y-101115312D01*
X161774688Y-101247770D01*
X161878766Y-101403534D01*
X161950454Y-101576604D01*
X161987000Y-101760333D01*
X161987000Y-101947667D01*
X161950454Y-102131396D01*
X161878766Y-102304466D01*
X161774688Y-102460230D01*
X161642230Y-102592688D01*
X161486466Y-102696766D01*
X161313396Y-102768454D01*
X161129667Y-102805000D01*
X160942333Y-102805000D01*
X160758604Y-102768454D01*
X160585534Y-102696766D01*
X160429770Y-102592688D01*
X160297312Y-102460230D01*
X160193234Y-102304466D01*
X160121546Y-102131396D01*
X160085000Y-101947667D01*
X160085000Y-101760333D01*
X160121546Y-101576604D01*
X160193234Y-101403534D01*
X160297312Y-101247770D01*
X160429770Y-101115312D01*
X160585534Y-101011234D01*
X160758604Y-100939546D01*
X160942333Y-100903000D01*
X161129667Y-100903000D01*
X161313396Y-100939546D01*
X161313396Y-100939546D01*
G37*
G36*
X168425396Y-100939546D02*
X168598466Y-101011234D01*
X168754230Y-101115312D01*
X168886688Y-101247770D01*
X168990766Y-101403534D01*
X169062454Y-101576604D01*
X169099000Y-101760333D01*
X169099000Y-101947667D01*
X169062454Y-102131396D01*
X168990766Y-102304466D01*
X168886688Y-102460230D01*
X168754230Y-102592688D01*
X168598466Y-102696766D01*
X168425396Y-102768454D01*
X168241667Y-102805000D01*
X168054333Y-102805000D01*
X167870604Y-102768454D01*
X167697534Y-102696766D01*
X167541770Y-102592688D01*
X167409312Y-102460230D01*
X167305234Y-102304466D01*
X167233546Y-102131396D01*
X167197000Y-101947667D01*
X167197000Y-101760333D01*
X167233546Y-101576604D01*
X167305234Y-101403534D01*
X167409312Y-101247770D01*
X167541770Y-101115312D01*
X167697534Y-101011234D01*
X167870604Y-100939546D01*
X168054333Y-100903000D01*
X168241667Y-100903000D01*
X168425396Y-100939546D01*
X168425396Y-100939546D01*
G37*
G36*
X171639000Y-102805000D02*
X169737000Y-102805000D01*
X169737000Y-100903000D01*
X171639000Y-100903000D01*
X171639000Y-102805000D01*
X171639000Y-102805000D01*
G37*
G36*
X154201396Y-100939546D02*
X154374466Y-101011234D01*
X154530230Y-101115312D01*
X154662688Y-101247770D01*
X154766766Y-101403534D01*
X154838454Y-101576604D01*
X154875000Y-101760333D01*
X154875000Y-101947667D01*
X154838454Y-102131396D01*
X154766766Y-102304466D01*
X154662688Y-102460230D01*
X154530230Y-102592688D01*
X154374466Y-102696766D01*
X154201396Y-102768454D01*
X154017667Y-102805000D01*
X153830333Y-102805000D01*
X153646604Y-102768454D01*
X153473534Y-102696766D01*
X153317770Y-102592688D01*
X153185312Y-102460230D01*
X153081234Y-102304466D01*
X153009546Y-102131396D01*
X152973000Y-101947667D01*
X152973000Y-101760333D01*
X153009546Y-101576604D01*
X153081234Y-101403534D01*
X153185312Y-101247770D01*
X153317770Y-101115312D01*
X153473534Y-101011234D01*
X153646604Y-100939546D01*
X153830333Y-100903000D01*
X154017667Y-100903000D01*
X154201396Y-100939546D01*
X154201396Y-100939546D01*
G37*
G36*
X147089396Y-100939546D02*
X147262466Y-101011234D01*
X147418230Y-101115312D01*
X147550688Y-101247770D01*
X147654766Y-101403534D01*
X147726454Y-101576604D01*
X147763000Y-101760333D01*
X147763000Y-101947667D01*
X147726454Y-102131396D01*
X147654766Y-102304466D01*
X147550688Y-102460230D01*
X147418230Y-102592688D01*
X147262466Y-102696766D01*
X147089396Y-102768454D01*
X146905667Y-102805000D01*
X146718333Y-102805000D01*
X146534604Y-102768454D01*
X146361534Y-102696766D01*
X146205770Y-102592688D01*
X146073312Y-102460230D01*
X145969234Y-102304466D01*
X145897546Y-102131396D01*
X145861000Y-101947667D01*
X145861000Y-101760333D01*
X145897546Y-101576604D01*
X145969234Y-101403534D01*
X146073312Y-101247770D01*
X146205770Y-101115312D01*
X146361534Y-101011234D01*
X146534604Y-100939546D01*
X146718333Y-100903000D01*
X146905667Y-100903000D01*
X147089396Y-100939546D01*
X147089396Y-100939546D01*
G37*
G36*
X143191000Y-102805000D02*
X141289000Y-102805000D01*
X141289000Y-100903000D01*
X143191000Y-100903000D01*
X143191000Y-102805000D01*
X143191000Y-102805000D01*
G37*
G36*
X157415000Y-102805000D02*
X155513000Y-102805000D01*
X155513000Y-100903000D01*
X157415000Y-100903000D01*
X157415000Y-102805000D01*
X157415000Y-102805000D01*
G37*
G36*
X139977396Y-100939546D02*
X140150466Y-101011234D01*
X140306230Y-101115312D01*
X140438688Y-101247770D01*
X140542766Y-101403534D01*
X140614454Y-101576604D01*
X140651000Y-101760333D01*
X140651000Y-101947667D01*
X140614454Y-102131396D01*
X140542766Y-102304466D01*
X140438688Y-102460230D01*
X140306230Y-102592688D01*
X140150466Y-102696766D01*
X139977396Y-102768454D01*
X139793667Y-102805000D01*
X139606333Y-102805000D01*
X139422604Y-102768454D01*
X139249534Y-102696766D01*
X139093770Y-102592688D01*
X138961312Y-102460230D01*
X138857234Y-102304466D01*
X138785546Y-102131396D01*
X138749000Y-101947667D01*
X138749000Y-101760333D01*
X138785546Y-101576604D01*
X138857234Y-101403534D01*
X138961312Y-101247770D01*
X139093770Y-101115312D01*
X139249534Y-101011234D01*
X139422604Y-100939546D01*
X139606333Y-100903000D01*
X139793667Y-100903000D01*
X139977396Y-100939546D01*
X139977396Y-100939546D01*
G37*
G36*
X164527000Y-102805000D02*
X162625000Y-102805000D01*
X162625000Y-100903000D01*
X164527000Y-100903000D01*
X164527000Y-102805000D01*
X164527000Y-102805000D01*
G37*
G36*
X137236466Y-99971565D02*
X137275137Y-99983296D01*
X137310779Y-100002348D01*
X137342017Y-100027983D01*
X137367652Y-100059221D01*
X137386704Y-100094863D01*
X137398435Y-100133534D01*
X137403000Y-100179888D01*
X137403000Y-100831112D01*
X137398435Y-100877466D01*
X137386704Y-100916137D01*
X137367652Y-100951779D01*
X137342017Y-100983017D01*
X137310779Y-101008652D01*
X137275137Y-101027704D01*
X137236466Y-101039435D01*
X137190112Y-101044000D01*
X136113888Y-101044000D01*
X136067534Y-101039435D01*
X136028863Y-101027704D01*
X135993221Y-101008652D01*
X135961983Y-100983017D01*
X135936348Y-100951779D01*
X135917296Y-100916137D01*
X135905565Y-100877466D01*
X135901000Y-100831112D01*
X135901000Y-100179888D01*
X135905565Y-100133534D01*
X135917296Y-100094863D01*
X135936348Y-100059221D01*
X135961983Y-100027983D01*
X135993221Y-100002348D01*
X136028863Y-99983296D01*
X136067534Y-99971565D01*
X136113888Y-99967000D01*
X137190112Y-99967000D01*
X137236466Y-99971565D01*
X137236466Y-99971565D01*
G37*
G36*
X119964466Y-99766065D02*
X120003137Y-99777796D01*
X120038779Y-99796848D01*
X120070017Y-99822483D01*
X120095652Y-99853721D01*
X120114704Y-99889363D01*
X120126435Y-99928034D01*
X120131000Y-99974388D01*
X120131000Y-100625612D01*
X120126435Y-100671966D01*
X120114704Y-100710637D01*
X120095652Y-100746279D01*
X120070017Y-100777517D01*
X120038779Y-100803152D01*
X120003137Y-100822204D01*
X119964466Y-100833935D01*
X119918112Y-100838500D01*
X118841888Y-100838500D01*
X118795534Y-100833935D01*
X118756863Y-100822204D01*
X118721221Y-100803152D01*
X118689983Y-100777517D01*
X118664348Y-100746279D01*
X118645296Y-100710637D01*
X118633565Y-100671966D01*
X118629000Y-100625612D01*
X118629000Y-99974388D01*
X118633565Y-99928034D01*
X118645296Y-99889363D01*
X118664348Y-99853721D01*
X118689983Y-99822483D01*
X118721221Y-99796848D01*
X118756863Y-99777796D01*
X118795534Y-99766065D01*
X118841888Y-99761500D01*
X119918112Y-99761500D01*
X119964466Y-99766065D01*
X119964466Y-99766065D01*
G37*
G36*
X124049000Y-99983000D02*
X123347000Y-99983000D01*
X123347000Y-97881000D01*
X124049000Y-97881000D01*
X124049000Y-99983000D01*
X124049000Y-99983000D01*
G37*
G36*
X129129000Y-99983000D02*
X128427000Y-99983000D01*
X128427000Y-97881000D01*
X129129000Y-97881000D01*
X129129000Y-99983000D01*
X129129000Y-99983000D01*
G37*
G36*
X130399000Y-99983000D02*
X129697000Y-99983000D01*
X129697000Y-97881000D01*
X130399000Y-97881000D01*
X130399000Y-99983000D01*
X130399000Y-99983000D01*
G37*
G36*
X131669000Y-99983000D02*
X130967000Y-99983000D01*
X130967000Y-97881000D01*
X131669000Y-97881000D01*
X131669000Y-99983000D01*
X131669000Y-99983000D01*
G37*
G36*
X132939000Y-99983000D02*
X132237000Y-99983000D01*
X132237000Y-97881000D01*
X132939000Y-97881000D01*
X132939000Y-99983000D01*
X132939000Y-99983000D01*
G37*
G36*
X122779000Y-99983000D02*
X122077000Y-99983000D01*
X122077000Y-97881000D01*
X122779000Y-97881000D01*
X122779000Y-99983000D01*
X122779000Y-99983000D01*
G37*
G36*
X127859000Y-99983000D02*
X127157000Y-99983000D01*
X127157000Y-97881000D01*
X127859000Y-97881000D01*
X127859000Y-99983000D01*
X127859000Y-99983000D01*
G37*
G36*
X126589000Y-99983000D02*
X125887000Y-99983000D01*
X125887000Y-97881000D01*
X126589000Y-97881000D01*
X126589000Y-99983000D01*
X126589000Y-99983000D01*
G37*
G36*
X125319000Y-99983000D02*
X124617000Y-99983000D01*
X124617000Y-97881000D01*
X125319000Y-97881000D01*
X125319000Y-99983000D01*
X125319000Y-99983000D01*
G37*
G36*
X137236466Y-98096565D02*
X137275137Y-98108296D01*
X137310779Y-98127348D01*
X137342017Y-98152983D01*
X137367652Y-98184221D01*
X137386704Y-98219863D01*
X137398435Y-98258534D01*
X137403000Y-98304888D01*
X137403000Y-98956112D01*
X137398435Y-99002466D01*
X137386704Y-99041137D01*
X137367652Y-99076779D01*
X137342017Y-99108017D01*
X137310779Y-99133652D01*
X137275137Y-99152704D01*
X137236466Y-99164435D01*
X137190112Y-99169000D01*
X136113888Y-99169000D01*
X136067534Y-99164435D01*
X136028863Y-99152704D01*
X135993221Y-99133652D01*
X135961983Y-99108017D01*
X135936348Y-99076779D01*
X135917296Y-99041137D01*
X135905565Y-99002466D01*
X135901000Y-98956112D01*
X135901000Y-98304888D01*
X135905565Y-98258534D01*
X135917296Y-98219863D01*
X135936348Y-98184221D01*
X135961983Y-98152983D01*
X135993221Y-98127348D01*
X136028863Y-98108296D01*
X136067534Y-98096565D01*
X136113888Y-98092000D01*
X137190112Y-98092000D01*
X137236466Y-98096565D01*
X137236466Y-98096565D01*
G37*
G36*
X119964466Y-97891065D02*
X120003137Y-97902796D01*
X120038779Y-97921848D01*
X120070017Y-97947483D01*
X120095652Y-97978721D01*
X120114704Y-98014363D01*
X120126435Y-98053034D01*
X120131000Y-98099388D01*
X120131000Y-98750612D01*
X120126435Y-98796966D01*
X120114704Y-98835637D01*
X120095652Y-98871279D01*
X120070017Y-98902517D01*
X120038779Y-98928152D01*
X120003137Y-98947204D01*
X119964466Y-98958935D01*
X119918112Y-98963500D01*
X118841888Y-98963500D01*
X118795534Y-98958935D01*
X118756863Y-98947204D01*
X118721221Y-98928152D01*
X118689983Y-98902517D01*
X118664348Y-98871279D01*
X118645296Y-98835637D01*
X118633565Y-98796966D01*
X118629000Y-98750612D01*
X118629000Y-98099388D01*
X118633565Y-98053034D01*
X118645296Y-98014363D01*
X118664348Y-97978721D01*
X118689983Y-97947483D01*
X118721221Y-97921848D01*
X118756863Y-97902796D01*
X118795534Y-97891065D01*
X118841888Y-97886500D01*
X119918112Y-97886500D01*
X119964466Y-97891065D01*
X119964466Y-97891065D01*
G37*
G36*
X164527000Y-95693000D02*
X162625000Y-95693000D01*
X162625000Y-93791000D01*
X164527000Y-93791000D01*
X164527000Y-95693000D01*
X164527000Y-95693000D01*
G37*
G36*
X189761396Y-93827546D02*
X189934466Y-93899234D01*
X190090230Y-94003312D01*
X190222688Y-94135770D01*
X190326766Y-94291534D01*
X190398454Y-94464604D01*
X190435000Y-94648333D01*
X190435000Y-94835667D01*
X190398454Y-95019396D01*
X190326766Y-95192466D01*
X190222688Y-95348230D01*
X190090230Y-95480688D01*
X189934466Y-95584766D01*
X189761396Y-95656454D01*
X189577667Y-95693000D01*
X189390333Y-95693000D01*
X189206604Y-95656454D01*
X189033534Y-95584766D01*
X188877770Y-95480688D01*
X188745312Y-95348230D01*
X188641234Y-95192466D01*
X188569546Y-95019396D01*
X188533000Y-94835667D01*
X188533000Y-94648333D01*
X188569546Y-94464604D01*
X188641234Y-94291534D01*
X188745312Y-94135770D01*
X188877770Y-94003312D01*
X189033534Y-93899234D01*
X189206604Y-93827546D01*
X189390333Y-93791000D01*
X189577667Y-93791000D01*
X189761396Y-93827546D01*
X189761396Y-93827546D01*
G37*
G36*
X182649396Y-93827546D02*
X182822466Y-93899234D01*
X182978230Y-94003312D01*
X183110688Y-94135770D01*
X183214766Y-94291534D01*
X183286454Y-94464604D01*
X183323000Y-94648333D01*
X183323000Y-94835667D01*
X183286454Y-95019396D01*
X183214766Y-95192466D01*
X183110688Y-95348230D01*
X182978230Y-95480688D01*
X182822466Y-95584766D01*
X182649396Y-95656454D01*
X182465667Y-95693000D01*
X182278333Y-95693000D01*
X182094604Y-95656454D01*
X181921534Y-95584766D01*
X181765770Y-95480688D01*
X181633312Y-95348230D01*
X181529234Y-95192466D01*
X181457546Y-95019396D01*
X181421000Y-94835667D01*
X181421000Y-94648333D01*
X181457546Y-94464604D01*
X181529234Y-94291534D01*
X181633312Y-94135770D01*
X181765770Y-94003312D01*
X181921534Y-93899234D01*
X182094604Y-93827546D01*
X182278333Y-93791000D01*
X182465667Y-93791000D01*
X182649396Y-93827546D01*
X182649396Y-93827546D01*
G37*
G36*
X185863000Y-95693000D02*
X183961000Y-95693000D01*
X183961000Y-93791000D01*
X185863000Y-93791000D01*
X185863000Y-95693000D01*
X185863000Y-95693000D01*
G37*
G36*
X192975000Y-95693000D02*
X191073000Y-95693000D01*
X191073000Y-93791000D01*
X192975000Y-93791000D01*
X192975000Y-95693000D01*
X192975000Y-95693000D01*
G37*
G36*
X175537396Y-93827546D02*
X175710466Y-93899234D01*
X175866230Y-94003312D01*
X175998688Y-94135770D01*
X176102766Y-94291534D01*
X176174454Y-94464604D01*
X176211000Y-94648333D01*
X176211000Y-94835667D01*
X176174454Y-95019396D01*
X176102766Y-95192466D01*
X175998688Y-95348230D01*
X175866230Y-95480688D01*
X175710466Y-95584766D01*
X175537396Y-95656454D01*
X175353667Y-95693000D01*
X175166333Y-95693000D01*
X174982604Y-95656454D01*
X174809534Y-95584766D01*
X174653770Y-95480688D01*
X174521312Y-95348230D01*
X174417234Y-95192466D01*
X174345546Y-95019396D01*
X174309000Y-94835667D01*
X174309000Y-94648333D01*
X174345546Y-94464604D01*
X174417234Y-94291534D01*
X174521312Y-94135770D01*
X174653770Y-94003312D01*
X174809534Y-93899234D01*
X174982604Y-93827546D01*
X175166333Y-93791000D01*
X175353667Y-93791000D01*
X175537396Y-93827546D01*
X175537396Y-93827546D01*
G37*
G36*
X178751000Y-95693000D02*
X176849000Y-95693000D01*
X176849000Y-93791000D01*
X178751000Y-93791000D01*
X178751000Y-95693000D01*
X178751000Y-95693000D01*
G37*
G36*
X171639000Y-95693000D02*
X169737000Y-95693000D01*
X169737000Y-93791000D01*
X171639000Y-93791000D01*
X171639000Y-95693000D01*
X171639000Y-95693000D01*
G37*
G36*
X168425396Y-93827546D02*
X168598466Y-93899234D01*
X168754230Y-94003312D01*
X168886688Y-94135770D01*
X168990766Y-94291534D01*
X169062454Y-94464604D01*
X169099000Y-94648333D01*
X169099000Y-94835667D01*
X169062454Y-95019396D01*
X168990766Y-95192466D01*
X168886688Y-95348230D01*
X168754230Y-95480688D01*
X168598466Y-95584766D01*
X168425396Y-95656454D01*
X168241667Y-95693000D01*
X168054333Y-95693000D01*
X167870604Y-95656454D01*
X167697534Y-95584766D01*
X167541770Y-95480688D01*
X167409312Y-95348230D01*
X167305234Y-95192466D01*
X167233546Y-95019396D01*
X167197000Y-94835667D01*
X167197000Y-94648333D01*
X167233546Y-94464604D01*
X167305234Y-94291534D01*
X167409312Y-94135770D01*
X167541770Y-94003312D01*
X167697534Y-93899234D01*
X167870604Y-93827546D01*
X168054333Y-93791000D01*
X168241667Y-93791000D01*
X168425396Y-93827546D01*
X168425396Y-93827546D01*
G37*
G36*
X154201396Y-93827546D02*
X154374466Y-93899234D01*
X154530230Y-94003312D01*
X154662688Y-94135770D01*
X154766766Y-94291534D01*
X154838454Y-94464604D01*
X154875000Y-94648333D01*
X154875000Y-94835667D01*
X154838454Y-95019396D01*
X154766766Y-95192466D01*
X154662688Y-95348230D01*
X154530230Y-95480688D01*
X154374466Y-95584766D01*
X154201396Y-95656454D01*
X154017667Y-95693000D01*
X153830333Y-95693000D01*
X153646604Y-95656454D01*
X153473534Y-95584766D01*
X153317770Y-95480688D01*
X153185312Y-95348230D01*
X153081234Y-95192466D01*
X153009546Y-95019396D01*
X152973000Y-94835667D01*
X152973000Y-94648333D01*
X153009546Y-94464604D01*
X153081234Y-94291534D01*
X153185312Y-94135770D01*
X153317770Y-94003312D01*
X153473534Y-93899234D01*
X153646604Y-93827546D01*
X153830333Y-93791000D01*
X154017667Y-93791000D01*
X154201396Y-93827546D01*
X154201396Y-93827546D01*
G37*
G36*
X161313396Y-93827546D02*
X161486466Y-93899234D01*
X161642230Y-94003312D01*
X161774688Y-94135770D01*
X161878766Y-94291534D01*
X161950454Y-94464604D01*
X161987000Y-94648333D01*
X161987000Y-94835667D01*
X161950454Y-95019396D01*
X161878766Y-95192466D01*
X161774688Y-95348230D01*
X161642230Y-95480688D01*
X161486466Y-95584766D01*
X161313396Y-95656454D01*
X161129667Y-95693000D01*
X160942333Y-95693000D01*
X160758604Y-95656454D01*
X160585534Y-95584766D01*
X160429770Y-95480688D01*
X160297312Y-95348230D01*
X160193234Y-95192466D01*
X160121546Y-95019396D01*
X160085000Y-94835667D01*
X160085000Y-94648333D01*
X160121546Y-94464604D01*
X160193234Y-94291534D01*
X160297312Y-94135770D01*
X160429770Y-94003312D01*
X160585534Y-93899234D01*
X160758604Y-93827546D01*
X160942333Y-93791000D01*
X161129667Y-93791000D01*
X161313396Y-93827546D01*
X161313396Y-93827546D01*
G37*
G36*
X157415000Y-95693000D02*
X155513000Y-95693000D01*
X155513000Y-93791000D01*
X157415000Y-93791000D01*
X157415000Y-95693000D01*
X157415000Y-95693000D01*
G37*
G36*
X150303000Y-95566000D02*
X148401000Y-95566000D01*
X148401000Y-93664000D01*
X150303000Y-93664000D01*
X150303000Y-95566000D01*
X150303000Y-95566000D01*
G37*
G36*
X147089396Y-93700546D02*
X147262466Y-93772234D01*
X147418230Y-93876312D01*
X147550688Y-94008770D01*
X147654766Y-94164534D01*
X147726454Y-94337604D01*
X147763000Y-94521333D01*
X147763000Y-94708667D01*
X147726454Y-94892396D01*
X147654766Y-95065466D01*
X147550688Y-95221230D01*
X147418230Y-95353688D01*
X147262466Y-95457766D01*
X147089396Y-95529454D01*
X146905667Y-95566000D01*
X146718333Y-95566000D01*
X146534604Y-95529454D01*
X146361534Y-95457766D01*
X146205770Y-95353688D01*
X146073312Y-95221230D01*
X145969234Y-95065466D01*
X145897546Y-94892396D01*
X145861000Y-94708667D01*
X145861000Y-94521333D01*
X145897546Y-94337604D01*
X145969234Y-94164534D01*
X146073312Y-94008770D01*
X146205770Y-93876312D01*
X146361534Y-93772234D01*
X146534604Y-93700546D01*
X146718333Y-93664000D01*
X146905667Y-93664000D01*
X147089396Y-93700546D01*
X147089396Y-93700546D01*
G37*
G36*
X143191000Y-95566000D02*
X141289000Y-95566000D01*
X141289000Y-93664000D01*
X143191000Y-93664000D01*
X143191000Y-95566000D01*
X143191000Y-95566000D01*
G37*
G36*
X139977396Y-93700546D02*
X140150466Y-93772234D01*
X140306230Y-93876312D01*
X140438688Y-94008770D01*
X140542766Y-94164534D01*
X140614454Y-94337604D01*
X140651000Y-94521333D01*
X140651000Y-94708667D01*
X140614454Y-94892396D01*
X140542766Y-95065466D01*
X140438688Y-95221230D01*
X140306230Y-95353688D01*
X140150466Y-95457766D01*
X139977396Y-95529454D01*
X139793667Y-95566000D01*
X139606333Y-95566000D01*
X139422604Y-95529454D01*
X139249534Y-95457766D01*
X139093770Y-95353688D01*
X138961312Y-95221230D01*
X138857234Y-95065466D01*
X138785546Y-94892396D01*
X138749000Y-94708667D01*
X138749000Y-94521333D01*
X138785546Y-94337604D01*
X138857234Y-94164534D01*
X138961312Y-94008770D01*
X139093770Y-93876312D01*
X139249534Y-93772234D01*
X139422604Y-93700546D01*
X139606333Y-93664000D01*
X139793667Y-93664000D01*
X139977396Y-93700546D01*
X139977396Y-93700546D01*
G37*
G36*
X126416000Y-95093000D02*
X124814000Y-95093000D01*
X124814000Y-94391000D01*
X126416000Y-94391000D01*
X126416000Y-95093000D01*
X126416000Y-95093000D01*
G37*
G36*
X133516000Y-95093000D02*
X131914000Y-95093000D01*
X131914000Y-94391000D01*
X133516000Y-94391000D01*
X133516000Y-95093000D01*
X133516000Y-95093000D01*
G37*
G36*
X120027000Y-94627000D02*
X118225000Y-94627000D01*
X118225000Y-92825000D01*
X120027000Y-92825000D01*
X120027000Y-94627000D01*
X120027000Y-94627000D01*
G37*
G36*
X137236466Y-92908065D02*
X137275137Y-92919796D01*
X137310779Y-92938848D01*
X137342017Y-92964483D01*
X137367652Y-92995721D01*
X137386704Y-93031363D01*
X137398435Y-93070034D01*
X137403000Y-93116388D01*
X137403000Y-93767612D01*
X137398435Y-93813966D01*
X137386704Y-93852637D01*
X137367652Y-93888279D01*
X137342017Y-93919517D01*
X137310779Y-93945152D01*
X137275137Y-93964204D01*
X137236466Y-93975935D01*
X137190112Y-93980500D01*
X136113888Y-93980500D01*
X136067534Y-93975935D01*
X136028863Y-93964204D01*
X135993221Y-93945152D01*
X135961983Y-93919517D01*
X135936348Y-93888279D01*
X135917296Y-93852637D01*
X135905565Y-93813966D01*
X135901000Y-93767612D01*
X135901000Y-93116388D01*
X135905565Y-93070034D01*
X135917296Y-93031363D01*
X135936348Y-92995721D01*
X135961983Y-92964483D01*
X135993221Y-92938848D01*
X136028863Y-92919796D01*
X136067534Y-92908065D01*
X136113888Y-92903500D01*
X137190112Y-92903500D01*
X137236466Y-92908065D01*
X137236466Y-92908065D01*
G37*
G36*
X126416000Y-93823000D02*
X124814000Y-93823000D01*
X124814000Y-93121000D01*
X126416000Y-93121000D01*
X126416000Y-93823000D01*
X126416000Y-93823000D01*
G37*
G36*
X133516000Y-93823000D02*
X131914000Y-93823000D01*
X131914000Y-93121000D01*
X133516000Y-93121000D01*
X133516000Y-93823000D01*
X133516000Y-93823000D01*
G37*
G36*
X126416000Y-92553000D02*
X124814000Y-92553000D01*
X124814000Y-91851000D01*
X126416000Y-91851000D01*
X126416000Y-92553000D01*
X126416000Y-92553000D01*
G37*
G36*
X133516000Y-92553000D02*
X131914000Y-92553000D01*
X131914000Y-91851000D01*
X133516000Y-91851000D01*
X133516000Y-92553000D01*
X133516000Y-92553000D01*
G37*
G36*
X137236466Y-91033065D02*
X137275137Y-91044796D01*
X137310779Y-91063848D01*
X137342017Y-91089483D01*
X137367652Y-91120721D01*
X137386704Y-91156363D01*
X137398435Y-91195034D01*
X137403000Y-91241388D01*
X137403000Y-91892612D01*
X137398435Y-91938966D01*
X137386704Y-91977637D01*
X137367652Y-92013279D01*
X137342017Y-92044517D01*
X137310779Y-92070152D01*
X137275137Y-92089204D01*
X137236466Y-92100935D01*
X137190112Y-92105500D01*
X136113888Y-92105500D01*
X136067534Y-92100935D01*
X136028863Y-92089204D01*
X135993221Y-92070152D01*
X135961983Y-92044517D01*
X135936348Y-92013279D01*
X135917296Y-91977637D01*
X135905565Y-91938966D01*
X135901000Y-91892612D01*
X135901000Y-91241388D01*
X135905565Y-91195034D01*
X135917296Y-91156363D01*
X135936348Y-91120721D01*
X135961983Y-91089483D01*
X135993221Y-91063848D01*
X136028863Y-91044796D01*
X136067534Y-91033065D01*
X136113888Y-91028500D01*
X137190112Y-91028500D01*
X137236466Y-91033065D01*
X137236466Y-91033065D01*
G37*
G36*
X119236443Y-90291519D02*
X119302627Y-90298037D01*
X119415853Y-90332384D01*
X119472467Y-90349557D01*
X119611087Y-90423652D01*
X119628991Y-90433222D01*
X119664729Y-90462552D01*
X119766186Y-90545814D01*
X119849448Y-90647271D01*
X119878778Y-90683009D01*
X119878779Y-90683011D01*
X119962443Y-90839533D01*
X119962443Y-90839534D01*
X120013963Y-91009373D01*
X120031359Y-91186000D01*
X120013963Y-91362627D01*
X119979616Y-91475853D01*
X119962443Y-91532467D01*
X119888348Y-91671087D01*
X119878778Y-91688991D01*
X119849448Y-91724729D01*
X119766186Y-91826186D01*
X119689916Y-91888778D01*
X119628991Y-91938778D01*
X119628989Y-91938779D01*
X119472467Y-92022443D01*
X119458634Y-92026639D01*
X119302627Y-92073963D01*
X119236443Y-92080481D01*
X119170260Y-92087000D01*
X119081740Y-92087000D01*
X119015557Y-92080481D01*
X118949373Y-92073963D01*
X118793366Y-92026639D01*
X118779533Y-92022443D01*
X118623011Y-91938779D01*
X118623009Y-91938778D01*
X118562084Y-91888778D01*
X118485814Y-91826186D01*
X118402552Y-91724729D01*
X118373222Y-91688991D01*
X118363652Y-91671087D01*
X118289557Y-91532467D01*
X118272384Y-91475853D01*
X118238037Y-91362627D01*
X118220641Y-91186000D01*
X118238037Y-91009373D01*
X118289557Y-90839534D01*
X118289557Y-90839533D01*
X118373221Y-90683011D01*
X118373222Y-90683009D01*
X118402552Y-90647271D01*
X118485814Y-90545814D01*
X118587271Y-90462552D01*
X118623009Y-90433222D01*
X118640913Y-90423652D01*
X118779533Y-90349557D01*
X118836147Y-90332384D01*
X118949373Y-90298037D01*
X119015557Y-90291519D01*
X119081740Y-90285000D01*
X119170260Y-90285000D01*
X119236443Y-90291519D01*
X119236443Y-90291519D01*
G37*
G36*
X126416000Y-91283000D02*
X124814000Y-91283000D01*
X124814000Y-90581000D01*
X126416000Y-90581000D01*
X126416000Y-91283000D01*
X126416000Y-91283000D01*
G37*
G36*
X133516000Y-91283000D02*
X131914000Y-91283000D01*
X131914000Y-90581000D01*
X133516000Y-90581000D01*
X133516000Y-91283000D01*
X133516000Y-91283000D01*
G37*
G36*
X133516000Y-90013000D02*
X131914000Y-90013000D01*
X131914000Y-89311000D01*
X133516000Y-89311000D01*
X133516000Y-90013000D01*
X133516000Y-90013000D01*
G37*
G36*
X126416000Y-90013000D02*
X124814000Y-90013000D01*
X124814000Y-89311000D01*
X126416000Y-89311000D01*
X126416000Y-90013000D01*
X126416000Y-90013000D01*
G37*
G36*
X119236442Y-87751518D02*
X119302627Y-87758037D01*
X119415853Y-87792384D01*
X119472467Y-87809557D01*
X119611087Y-87883652D01*
X119628991Y-87893222D01*
X119646262Y-87907396D01*
X119766186Y-88005814D01*
X119827450Y-88080466D01*
X119878778Y-88143009D01*
X119878779Y-88143011D01*
X119962443Y-88299533D01*
X119962443Y-88299534D01*
X120013963Y-88469373D01*
X120031359Y-88646000D01*
X120013963Y-88822627D01*
X119979616Y-88935853D01*
X119962443Y-88992467D01*
X119888348Y-89131087D01*
X119878778Y-89148991D01*
X119849448Y-89184729D01*
X119766186Y-89286186D01*
X119664729Y-89369448D01*
X119628991Y-89398778D01*
X119628989Y-89398779D01*
X119472467Y-89482443D01*
X119415853Y-89499616D01*
X119302627Y-89533963D01*
X119236442Y-89540482D01*
X119170260Y-89547000D01*
X119081740Y-89547000D01*
X119015558Y-89540482D01*
X118949373Y-89533963D01*
X118836147Y-89499616D01*
X118779533Y-89482443D01*
X118623011Y-89398779D01*
X118623009Y-89398778D01*
X118587271Y-89369448D01*
X118485814Y-89286186D01*
X118402552Y-89184729D01*
X118373222Y-89148991D01*
X118363652Y-89131087D01*
X118289557Y-88992467D01*
X118272384Y-88935853D01*
X118238037Y-88822627D01*
X118220641Y-88646000D01*
X118238037Y-88469373D01*
X118289557Y-88299534D01*
X118289557Y-88299533D01*
X118373221Y-88143011D01*
X118373222Y-88143009D01*
X118424550Y-88080466D01*
X118485814Y-88005814D01*
X118605738Y-87907396D01*
X118623009Y-87893222D01*
X118640913Y-87883652D01*
X118779533Y-87809557D01*
X118836147Y-87792384D01*
X118949373Y-87758037D01*
X119015558Y-87751518D01*
X119081740Y-87745000D01*
X119170260Y-87745000D01*
X119236442Y-87751518D01*
X119236442Y-87751518D01*
G37*
G36*
X126416000Y-88743000D02*
X124814000Y-88743000D01*
X124814000Y-88041000D01*
X126416000Y-88041000D01*
X126416000Y-88743000D01*
X126416000Y-88743000D01*
G37*
G36*
X133516000Y-88743000D02*
X131914000Y-88743000D01*
X131914000Y-88041000D01*
X133516000Y-88041000D01*
X133516000Y-88743000D01*
X133516000Y-88743000D01*
G37*
G36*
X139977396Y-86715546D02*
X140150466Y-86787234D01*
X140306230Y-86891312D01*
X140438688Y-87023770D01*
X140542766Y-87179534D01*
X140614454Y-87352604D01*
X140651000Y-87536333D01*
X140651000Y-87723667D01*
X140614454Y-87907396D01*
X140542766Y-88080466D01*
X140438688Y-88236230D01*
X140306230Y-88368688D01*
X140150466Y-88472766D01*
X139977396Y-88544454D01*
X139793667Y-88581000D01*
X139606333Y-88581000D01*
X139422604Y-88544454D01*
X139249534Y-88472766D01*
X139093770Y-88368688D01*
X138961312Y-88236230D01*
X138857234Y-88080466D01*
X138785546Y-87907396D01*
X138749000Y-87723667D01*
X138749000Y-87536333D01*
X138785546Y-87352604D01*
X138857234Y-87179534D01*
X138961312Y-87023770D01*
X139093770Y-86891312D01*
X139249534Y-86787234D01*
X139422604Y-86715546D01*
X139606333Y-86679000D01*
X139793667Y-86679000D01*
X139977396Y-86715546D01*
X139977396Y-86715546D01*
G37*
G36*
X147089396Y-86715546D02*
X147262466Y-86787234D01*
X147418230Y-86891312D01*
X147550688Y-87023770D01*
X147654766Y-87179534D01*
X147726454Y-87352604D01*
X147763000Y-87536333D01*
X147763000Y-87723667D01*
X147726454Y-87907396D01*
X147654766Y-88080466D01*
X147550688Y-88236230D01*
X147418230Y-88368688D01*
X147262466Y-88472766D01*
X147089396Y-88544454D01*
X146905667Y-88581000D01*
X146718333Y-88581000D01*
X146534604Y-88544454D01*
X146361534Y-88472766D01*
X146205770Y-88368688D01*
X146073312Y-88236230D01*
X145969234Y-88080466D01*
X145897546Y-87907396D01*
X145861000Y-87723667D01*
X145861000Y-87536333D01*
X145897546Y-87352604D01*
X145969234Y-87179534D01*
X146073312Y-87023770D01*
X146205770Y-86891312D01*
X146361534Y-86787234D01*
X146534604Y-86715546D01*
X146718333Y-86679000D01*
X146905667Y-86679000D01*
X147089396Y-86715546D01*
X147089396Y-86715546D01*
G37*
G36*
X154201396Y-86715546D02*
X154374466Y-86787234D01*
X154530230Y-86891312D01*
X154662688Y-87023770D01*
X154766766Y-87179534D01*
X154838454Y-87352604D01*
X154875000Y-87536333D01*
X154875000Y-87723667D01*
X154838454Y-87907396D01*
X154766766Y-88080466D01*
X154662688Y-88236230D01*
X154530230Y-88368688D01*
X154374466Y-88472766D01*
X154201396Y-88544454D01*
X154017667Y-88581000D01*
X153830333Y-88581000D01*
X153646604Y-88544454D01*
X153473534Y-88472766D01*
X153317770Y-88368688D01*
X153185312Y-88236230D01*
X153081234Y-88080466D01*
X153009546Y-87907396D01*
X152973000Y-87723667D01*
X152973000Y-87536333D01*
X153009546Y-87352604D01*
X153081234Y-87179534D01*
X153185312Y-87023770D01*
X153317770Y-86891312D01*
X153473534Y-86787234D01*
X153646604Y-86715546D01*
X153830333Y-86679000D01*
X154017667Y-86679000D01*
X154201396Y-86715546D01*
X154201396Y-86715546D01*
G37*
G36*
X157415000Y-88581000D02*
X155513000Y-88581000D01*
X155513000Y-86679000D01*
X157415000Y-86679000D01*
X157415000Y-88581000D01*
X157415000Y-88581000D01*
G37*
G36*
X161313396Y-86715546D02*
X161486466Y-86787234D01*
X161642230Y-86891312D01*
X161774688Y-87023770D01*
X161878766Y-87179534D01*
X161950454Y-87352604D01*
X161987000Y-87536333D01*
X161987000Y-87723667D01*
X161950454Y-87907396D01*
X161878766Y-88080466D01*
X161774688Y-88236230D01*
X161642230Y-88368688D01*
X161486466Y-88472766D01*
X161313396Y-88544454D01*
X161129667Y-88581000D01*
X160942333Y-88581000D01*
X160758604Y-88544454D01*
X160585534Y-88472766D01*
X160429770Y-88368688D01*
X160297312Y-88236230D01*
X160193234Y-88080466D01*
X160121546Y-87907396D01*
X160085000Y-87723667D01*
X160085000Y-87536333D01*
X160121546Y-87352604D01*
X160193234Y-87179534D01*
X160297312Y-87023770D01*
X160429770Y-86891312D01*
X160585534Y-86787234D01*
X160758604Y-86715546D01*
X160942333Y-86679000D01*
X161129667Y-86679000D01*
X161313396Y-86715546D01*
X161313396Y-86715546D01*
G37*
G36*
X143191000Y-88581000D02*
X141289000Y-88581000D01*
X141289000Y-86679000D01*
X143191000Y-86679000D01*
X143191000Y-88581000D01*
X143191000Y-88581000D01*
G37*
G36*
X164527000Y-88581000D02*
X162625000Y-88581000D01*
X162625000Y-86679000D01*
X164527000Y-86679000D01*
X164527000Y-88581000D01*
X164527000Y-88581000D01*
G37*
G36*
X150303000Y-88581000D02*
X148401000Y-88581000D01*
X148401000Y-86679000D01*
X150303000Y-86679000D01*
X150303000Y-88581000D01*
X150303000Y-88581000D01*
G37*
G36*
X175537396Y-86715546D02*
X175710466Y-86787234D01*
X175866230Y-86891312D01*
X175998688Y-87023770D01*
X176102766Y-87179534D01*
X176174454Y-87352604D01*
X176211000Y-87536333D01*
X176211000Y-87723667D01*
X176174454Y-87907396D01*
X176102766Y-88080466D01*
X175998688Y-88236230D01*
X175866230Y-88368688D01*
X175710466Y-88472766D01*
X175537396Y-88544454D01*
X175353667Y-88581000D01*
X175166333Y-88581000D01*
X174982604Y-88544454D01*
X174809534Y-88472766D01*
X174653770Y-88368688D01*
X174521312Y-88236230D01*
X174417234Y-88080466D01*
X174345546Y-87907396D01*
X174309000Y-87723667D01*
X174309000Y-87536333D01*
X174345546Y-87352604D01*
X174417234Y-87179534D01*
X174521312Y-87023770D01*
X174653770Y-86891312D01*
X174809534Y-86787234D01*
X174982604Y-86715546D01*
X175166333Y-86679000D01*
X175353667Y-86679000D01*
X175537396Y-86715546D01*
X175537396Y-86715546D01*
G37*
G36*
X178751000Y-88581000D02*
X176849000Y-88581000D01*
X176849000Y-86679000D01*
X178751000Y-86679000D01*
X178751000Y-88581000D01*
X178751000Y-88581000D01*
G37*
G36*
X182649396Y-86715546D02*
X182822466Y-86787234D01*
X182978230Y-86891312D01*
X183110688Y-87023770D01*
X183214766Y-87179534D01*
X183286454Y-87352604D01*
X183323000Y-87536333D01*
X183323000Y-87723667D01*
X183286454Y-87907396D01*
X183214766Y-88080466D01*
X183110688Y-88236230D01*
X182978230Y-88368688D01*
X182822466Y-88472766D01*
X182649396Y-88544454D01*
X182465667Y-88581000D01*
X182278333Y-88581000D01*
X182094604Y-88544454D01*
X181921534Y-88472766D01*
X181765770Y-88368688D01*
X181633312Y-88236230D01*
X181529234Y-88080466D01*
X181457546Y-87907396D01*
X181421000Y-87723667D01*
X181421000Y-87536333D01*
X181457546Y-87352604D01*
X181529234Y-87179534D01*
X181633312Y-87023770D01*
X181765770Y-86891312D01*
X181921534Y-86787234D01*
X182094604Y-86715546D01*
X182278333Y-86679000D01*
X182465667Y-86679000D01*
X182649396Y-86715546D01*
X182649396Y-86715546D01*
G37*
G36*
X189761396Y-86715546D02*
X189934466Y-86787234D01*
X190090230Y-86891312D01*
X190222688Y-87023770D01*
X190326766Y-87179534D01*
X190398454Y-87352604D01*
X190435000Y-87536333D01*
X190435000Y-87723667D01*
X190398454Y-87907396D01*
X190326766Y-88080466D01*
X190222688Y-88236230D01*
X190090230Y-88368688D01*
X189934466Y-88472766D01*
X189761396Y-88544454D01*
X189577667Y-88581000D01*
X189390333Y-88581000D01*
X189206604Y-88544454D01*
X189033534Y-88472766D01*
X188877770Y-88368688D01*
X188745312Y-88236230D01*
X188641234Y-88080466D01*
X188569546Y-87907396D01*
X188533000Y-87723667D01*
X188533000Y-87536333D01*
X188569546Y-87352604D01*
X188641234Y-87179534D01*
X188745312Y-87023770D01*
X188877770Y-86891312D01*
X189033534Y-86787234D01*
X189206604Y-86715546D01*
X189390333Y-86679000D01*
X189577667Y-86679000D01*
X189761396Y-86715546D01*
X189761396Y-86715546D01*
G37*
G36*
X192975000Y-88581000D02*
X191073000Y-88581000D01*
X191073000Y-86679000D01*
X192975000Y-86679000D01*
X192975000Y-88581000D01*
X192975000Y-88581000D01*
G37*
G36*
X185863000Y-88581000D02*
X183961000Y-88581000D01*
X183961000Y-86679000D01*
X185863000Y-86679000D01*
X185863000Y-88581000D01*
X185863000Y-88581000D01*
G37*
G36*
X168425396Y-86715546D02*
X168598466Y-86787234D01*
X168754230Y-86891312D01*
X168886688Y-87023770D01*
X168990766Y-87179534D01*
X169062454Y-87352604D01*
X169099000Y-87536333D01*
X169099000Y-87723667D01*
X169062454Y-87907396D01*
X168990766Y-88080466D01*
X168886688Y-88236230D01*
X168754230Y-88368688D01*
X168598466Y-88472766D01*
X168425396Y-88544454D01*
X168241667Y-88581000D01*
X168054333Y-88581000D01*
X167870604Y-88544454D01*
X167697534Y-88472766D01*
X167541770Y-88368688D01*
X167409312Y-88236230D01*
X167305234Y-88080466D01*
X167233546Y-87907396D01*
X167197000Y-87723667D01*
X167197000Y-87536333D01*
X167233546Y-87352604D01*
X167305234Y-87179534D01*
X167409312Y-87023770D01*
X167541770Y-86891312D01*
X167697534Y-86787234D01*
X167870604Y-86715546D01*
X168054333Y-86679000D01*
X168241667Y-86679000D01*
X168425396Y-86715546D01*
X168425396Y-86715546D01*
G37*
G36*
X171639000Y-88581000D02*
X169737000Y-88581000D01*
X169737000Y-86679000D01*
X171639000Y-86679000D01*
X171639000Y-88581000D01*
X171639000Y-88581000D01*
G37*
G36*
X122758466Y-87144565D02*
X122797137Y-87156296D01*
X122832779Y-87175348D01*
X122864017Y-87200983D01*
X122889652Y-87232221D01*
X122908704Y-87267863D01*
X122920435Y-87306534D01*
X122925000Y-87352888D01*
X122925000Y-88004112D01*
X122920435Y-88050466D01*
X122908704Y-88089137D01*
X122889652Y-88124779D01*
X122864017Y-88156017D01*
X122832779Y-88181652D01*
X122797137Y-88200704D01*
X122758466Y-88212435D01*
X122712112Y-88217000D01*
X121635888Y-88217000D01*
X121589534Y-88212435D01*
X121550863Y-88200704D01*
X121515221Y-88181652D01*
X121483983Y-88156017D01*
X121458348Y-88124779D01*
X121439296Y-88089137D01*
X121427565Y-88050466D01*
X121423000Y-88004112D01*
X121423000Y-87352888D01*
X121427565Y-87306534D01*
X121439296Y-87267863D01*
X121458348Y-87232221D01*
X121483983Y-87200983D01*
X121515221Y-87175348D01*
X121550863Y-87156296D01*
X121589534Y-87144565D01*
X121635888Y-87140000D01*
X122712112Y-87140000D01*
X122758466Y-87144565D01*
X122758466Y-87144565D01*
G37*
G36*
X137236466Y-86431065D02*
X137275137Y-86442796D01*
X137310779Y-86461848D01*
X137342017Y-86487483D01*
X137367652Y-86518721D01*
X137386704Y-86554363D01*
X137398435Y-86593034D01*
X137403000Y-86639388D01*
X137403000Y-87290612D01*
X137398435Y-87336966D01*
X137386704Y-87375637D01*
X137367652Y-87411279D01*
X137342017Y-87442517D01*
X137310779Y-87468152D01*
X137275137Y-87487204D01*
X137236466Y-87498935D01*
X137190112Y-87503500D01*
X136113888Y-87503500D01*
X136067534Y-87498935D01*
X136028863Y-87487204D01*
X135993221Y-87468152D01*
X135961983Y-87442517D01*
X135936348Y-87411279D01*
X135917296Y-87375637D01*
X135905565Y-87336966D01*
X135901000Y-87290612D01*
X135901000Y-86639388D01*
X135905565Y-86593034D01*
X135917296Y-86554363D01*
X135936348Y-86518721D01*
X135961983Y-86487483D01*
X135993221Y-86461848D01*
X136028863Y-86442796D01*
X136067534Y-86431065D01*
X136113888Y-86426500D01*
X137190112Y-86426500D01*
X137236466Y-86431065D01*
X137236466Y-86431065D01*
G37*
G36*
X126416000Y-87473000D02*
X124814000Y-87473000D01*
X124814000Y-86771000D01*
X126416000Y-86771000D01*
X126416000Y-87473000D01*
X126416000Y-87473000D01*
G37*
G36*
X133516000Y-87473000D02*
X131914000Y-87473000D01*
X131914000Y-86771000D01*
X133516000Y-86771000D01*
X133516000Y-87473000D01*
X133516000Y-87473000D01*
G37*
G36*
X119236443Y-85211519D02*
X119302627Y-85218037D01*
X119415853Y-85252384D01*
X119472467Y-85269557D01*
X119578031Y-85325983D01*
X119628991Y-85353222D01*
X119664729Y-85382552D01*
X119766186Y-85465814D01*
X119822349Y-85534250D01*
X119878778Y-85603009D01*
X119878779Y-85603011D01*
X119962443Y-85759533D01*
X119962443Y-85759534D01*
X120013963Y-85929373D01*
X120031359Y-86106000D01*
X120013963Y-86282627D01*
X119997522Y-86336826D01*
X119962443Y-86452467D01*
X119888348Y-86591087D01*
X119878778Y-86608991D01*
X119853832Y-86639388D01*
X119766186Y-86746186D01*
X119664729Y-86829448D01*
X119628991Y-86858778D01*
X119628989Y-86858779D01*
X119472467Y-86942443D01*
X119415853Y-86959616D01*
X119302627Y-86993963D01*
X119236442Y-87000482D01*
X119170260Y-87007000D01*
X119081740Y-87007000D01*
X119015558Y-87000482D01*
X118949373Y-86993963D01*
X118836147Y-86959616D01*
X118779533Y-86942443D01*
X118623011Y-86858779D01*
X118623009Y-86858778D01*
X118587271Y-86829448D01*
X118485814Y-86746186D01*
X118398168Y-86639388D01*
X118373222Y-86608991D01*
X118363652Y-86591087D01*
X118289557Y-86452467D01*
X118254478Y-86336826D01*
X118238037Y-86282627D01*
X118220641Y-86106000D01*
X118238037Y-85929373D01*
X118289557Y-85759534D01*
X118289557Y-85759533D01*
X118373221Y-85603011D01*
X118373222Y-85603009D01*
X118429651Y-85534250D01*
X118485814Y-85465814D01*
X118587271Y-85382552D01*
X118623009Y-85353222D01*
X118673969Y-85325983D01*
X118779533Y-85269557D01*
X118836147Y-85252384D01*
X118949373Y-85218037D01*
X119015557Y-85211519D01*
X119081740Y-85205000D01*
X119170260Y-85205000D01*
X119236443Y-85211519D01*
X119236443Y-85211519D01*
G37*
G36*
X122758466Y-85269565D02*
X122797137Y-85281296D01*
X122832779Y-85300348D01*
X122864017Y-85325983D01*
X122889652Y-85357221D01*
X122908704Y-85392863D01*
X122920435Y-85431534D01*
X122925000Y-85477888D01*
X122925000Y-86129112D01*
X122920435Y-86175466D01*
X122908704Y-86214137D01*
X122889652Y-86249779D01*
X122864017Y-86281017D01*
X122832779Y-86306652D01*
X122797137Y-86325704D01*
X122758466Y-86337435D01*
X122712112Y-86342000D01*
X121635888Y-86342000D01*
X121589534Y-86337435D01*
X121550863Y-86325704D01*
X121515221Y-86306652D01*
X121483983Y-86281017D01*
X121458348Y-86249779D01*
X121439296Y-86214137D01*
X121427565Y-86175466D01*
X121423000Y-86129112D01*
X121423000Y-85477888D01*
X121427565Y-85431534D01*
X121439296Y-85392863D01*
X121458348Y-85357221D01*
X121483983Y-85325983D01*
X121515221Y-85300348D01*
X121550863Y-85281296D01*
X121589534Y-85269565D01*
X121635888Y-85265000D01*
X122712112Y-85265000D01*
X122758466Y-85269565D01*
X122758466Y-85269565D01*
G37*
G36*
X126416000Y-86203000D02*
X124814000Y-86203000D01*
X124814000Y-85501000D01*
X126416000Y-85501000D01*
X126416000Y-86203000D01*
X126416000Y-86203000D01*
G37*
G36*
X133516000Y-86203000D02*
X131914000Y-86203000D01*
X131914000Y-85501000D01*
X133516000Y-85501000D01*
X133516000Y-86203000D01*
X133516000Y-86203000D01*
G37*
G36*
X137236466Y-84556065D02*
X137275137Y-84567796D01*
X137310779Y-84586848D01*
X137342017Y-84612483D01*
X137367652Y-84643721D01*
X137386704Y-84679363D01*
X137398435Y-84718034D01*
X137403000Y-84764388D01*
X137403000Y-85415612D01*
X137398435Y-85461966D01*
X137386704Y-85500637D01*
X137367652Y-85536279D01*
X137342017Y-85567517D01*
X137310779Y-85593152D01*
X137275137Y-85612204D01*
X137236466Y-85623935D01*
X137190112Y-85628500D01*
X136113888Y-85628500D01*
X136067534Y-85623935D01*
X136028863Y-85612204D01*
X135993221Y-85593152D01*
X135961983Y-85567517D01*
X135936348Y-85536279D01*
X135917296Y-85500637D01*
X135905565Y-85461966D01*
X135901000Y-85415612D01*
X135901000Y-84764388D01*
X135905565Y-84718034D01*
X135917296Y-84679363D01*
X135936348Y-84643721D01*
X135961983Y-84612483D01*
X135993221Y-84586848D01*
X136028863Y-84567796D01*
X136067534Y-84556065D01*
X136113888Y-84551500D01*
X137190112Y-84551500D01*
X137236466Y-84556065D01*
X137236466Y-84556065D01*
G37*
M02*
