G04 #@! TF.GenerationSoftware,KiCad,Pcbnew,5.0.2+dfsg1-1*
G04 #@! TF.CreationDate,2019-01-13T01:33:18+00:00*
G04 #@! TF.ProjectId,led_matrix_v1,6c65645f-6d61-4747-9269-785f76312e6b,rev?*
G04 #@! TF.SameCoordinates,Original*
G04 #@! TF.FileFunction,Legend,Top*
G04 #@! TF.FilePolarity,Positive*
%FSLAX46Y46*%
G04 Gerber Fmt 4.6, Leading zero omitted, Abs format (unit mm)*
G04 Created by KiCad (PCBNEW 5.0.2+dfsg1-1) date Sun 13 Jan 2019 01:33:18 GMT*
%MOMM*%
%LPD*%
G01*
G04 APERTURE LIST*
%ADD10C,0.250000*%
%ADD11C,0.300000*%
%ADD12C,0.200000*%
%ADD13C,0.120000*%
%ADD14C,0.150000*%
%ADD15C,0.500000*%
G04 APERTURE END LIST*
D10*
X134739142Y-113482380D02*
X134405809Y-113006190D01*
X134167714Y-113482380D02*
X134167714Y-112482380D01*
X134548666Y-112482380D01*
X134643904Y-112530000D01*
X134691523Y-112577619D01*
X134739142Y-112672857D01*
X134739142Y-112815714D01*
X134691523Y-112910952D01*
X134643904Y-112958571D01*
X134548666Y-113006190D01*
X134167714Y-113006190D01*
X135453428Y-112482380D02*
X135453428Y-113196666D01*
X135405809Y-113339523D01*
X135310571Y-113434761D01*
X135167714Y-113482380D01*
X135072476Y-113482380D01*
X135929619Y-113482380D02*
X135929619Y-112482380D01*
X136262952Y-113196666D01*
X136596285Y-112482380D01*
X136596285Y-113482380D01*
D11*
X132334285Y-110303571D02*
X132834285Y-111803571D01*
X133334285Y-110303571D01*
X134620000Y-111803571D02*
X133762857Y-111803571D01*
X134191428Y-111803571D02*
X134191428Y-110303571D01*
X134048571Y-110517857D01*
X133905714Y-110660714D01*
X133762857Y-110732142D01*
X135262857Y-111660714D02*
X135334285Y-111732142D01*
X135262857Y-111803571D01*
X135191428Y-111732142D01*
X135262857Y-111660714D01*
X135262857Y-111803571D01*
X136262857Y-110303571D02*
X136405714Y-110303571D01*
X136548571Y-110375000D01*
X136620000Y-110446428D01*
X136691428Y-110589285D01*
X136762857Y-110875000D01*
X136762857Y-111232142D01*
X136691428Y-111517857D01*
X136620000Y-111660714D01*
X136548571Y-111732142D01*
X136405714Y-111803571D01*
X136262857Y-111803571D01*
X136120000Y-111732142D01*
X136048571Y-111660714D01*
X135977142Y-111517857D01*
X135905714Y-111232142D01*
X135905714Y-110875000D01*
X135977142Y-110589285D01*
X136048571Y-110446428D01*
X136120000Y-110375000D01*
X136262857Y-110303571D01*
X119309142Y-111803571D02*
X118594857Y-111803571D01*
X118594857Y-110303571D01*
X119809142Y-111017857D02*
X120309142Y-111017857D01*
X120523428Y-111803571D02*
X119809142Y-111803571D01*
X119809142Y-110303571D01*
X120523428Y-110303571D01*
X121166285Y-111803571D02*
X121166285Y-110303571D01*
X121523428Y-110303571D01*
X121737714Y-110375000D01*
X121880571Y-110517857D01*
X121952000Y-110660714D01*
X122023428Y-110946428D01*
X122023428Y-111160714D01*
X121952000Y-111446428D01*
X121880571Y-111589285D01*
X121737714Y-111732142D01*
X121523428Y-111803571D01*
X121166285Y-111803571D01*
X123166285Y-111017857D02*
X123380571Y-111089285D01*
X123452000Y-111160714D01*
X123523428Y-111303571D01*
X123523428Y-111517857D01*
X123452000Y-111660714D01*
X123380571Y-111732142D01*
X123237714Y-111803571D01*
X122666285Y-111803571D01*
X122666285Y-110303571D01*
X123166285Y-110303571D01*
X123309142Y-110375000D01*
X123380571Y-110446428D01*
X123452000Y-110589285D01*
X123452000Y-110732142D01*
X123380571Y-110875000D01*
X123309142Y-110946428D01*
X123166285Y-111017857D01*
X122666285Y-111017857D01*
X124452000Y-110303571D02*
X124737714Y-110303571D01*
X124880571Y-110375000D01*
X125023428Y-110517857D01*
X125094857Y-110803571D01*
X125094857Y-111303571D01*
X125023428Y-111589285D01*
X124880571Y-111732142D01*
X124737714Y-111803571D01*
X124452000Y-111803571D01*
X124309142Y-111732142D01*
X124166285Y-111589285D01*
X124094857Y-111303571D01*
X124094857Y-110803571D01*
X124166285Y-110517857D01*
X124309142Y-110375000D01*
X124452000Y-110303571D01*
X125666285Y-111375000D02*
X126380571Y-111375000D01*
X125523428Y-111803571D02*
X126023428Y-110303571D01*
X126523428Y-111803571D01*
X127880571Y-111803571D02*
X127380571Y-111089285D01*
X127023428Y-111803571D02*
X127023428Y-110303571D01*
X127594857Y-110303571D01*
X127737714Y-110375000D01*
X127809142Y-110446428D01*
X127880571Y-110589285D01*
X127880571Y-110803571D01*
X127809142Y-110946428D01*
X127737714Y-111017857D01*
X127594857Y-111089285D01*
X127023428Y-111089285D01*
X128523428Y-111803571D02*
X128523428Y-110303571D01*
X128880571Y-110303571D01*
X129094857Y-110375000D01*
X129237714Y-110517857D01*
X129309142Y-110660714D01*
X129380571Y-110946428D01*
X129380571Y-111160714D01*
X129309142Y-111446428D01*
X129237714Y-111589285D01*
X129094857Y-111732142D01*
X128880571Y-111803571D01*
X128523428Y-111803571D01*
D12*
X117379714Y-88798380D02*
X117417809Y-88836476D01*
X117455904Y-88950761D01*
X117455904Y-89026952D01*
X117417809Y-89141238D01*
X117341619Y-89217428D01*
X117265428Y-89255523D01*
X117113047Y-89293619D01*
X116998761Y-89293619D01*
X116846380Y-89255523D01*
X116770190Y-89217428D01*
X116694000Y-89141238D01*
X116655904Y-89026952D01*
X116655904Y-88950761D01*
X116694000Y-88836476D01*
X116732095Y-88798380D01*
X117455904Y-88455523D02*
X116655904Y-88455523D01*
X117455904Y-87998380D02*
X116998761Y-88341238D01*
X116655904Y-87998380D02*
X117113047Y-88455523D01*
X117455904Y-91395523D02*
X116655904Y-91395523D01*
X116655904Y-91205047D01*
X116694000Y-91090761D01*
X116770190Y-91014571D01*
X116846380Y-90976476D01*
X116998761Y-90938380D01*
X117113047Y-90938380D01*
X117265428Y-90976476D01*
X117341619Y-91014571D01*
X117417809Y-91090761D01*
X117455904Y-91205047D01*
X117455904Y-91395523D01*
X118935523Y-83272380D02*
X118459333Y-83272380D01*
X118411714Y-83748571D01*
X118459333Y-83700952D01*
X118554571Y-83653333D01*
X118792666Y-83653333D01*
X118887904Y-83700952D01*
X118935523Y-83748571D01*
X118983142Y-83843809D01*
X118983142Y-84081904D01*
X118935523Y-84177142D01*
X118887904Y-84224761D01*
X118792666Y-84272380D01*
X118554571Y-84272380D01*
X118459333Y-84224761D01*
X118411714Y-84177142D01*
X119268857Y-83272380D02*
X119602190Y-84272380D01*
X119935523Y-83272380D01*
X118491095Y-95639000D02*
X118395857Y-95591380D01*
X118253000Y-95591380D01*
X118110142Y-95639000D01*
X118014904Y-95734238D01*
X117967285Y-95829476D01*
X117919666Y-96019952D01*
X117919666Y-96162809D01*
X117967285Y-96353285D01*
X118014904Y-96448523D01*
X118110142Y-96543761D01*
X118253000Y-96591380D01*
X118348238Y-96591380D01*
X118491095Y-96543761D01*
X118538714Y-96496142D01*
X118538714Y-96162809D01*
X118348238Y-96162809D01*
X118967285Y-96591380D02*
X118967285Y-95591380D01*
X119538714Y-96591380D01*
X119538714Y-95591380D01*
X120014904Y-96591380D02*
X120014904Y-95591380D01*
X120253000Y-95591380D01*
X120395857Y-95639000D01*
X120491095Y-95734238D01*
X120538714Y-95829476D01*
X120586333Y-96019952D01*
X120586333Y-96162809D01*
X120538714Y-96353285D01*
X120491095Y-96448523D01*
X120395857Y-96543761D01*
X120253000Y-96591380D01*
X120014904Y-96591380D01*
D13*
G04 #@! TO.C,D11*
X152204000Y-108965538D02*
G75*
G03X157754000Y-110510830I2990000J-462D01*
G01*
X152204000Y-108966462D02*
G75*
G02X157754000Y-107421170I2990000J462D01*
G01*
X157694000Y-108966000D02*
G75*
G03X157694000Y-108966000I-2500000J0D01*
G01*
X157754000Y-110511000D02*
X157754000Y-107421000D01*
G04 #@! TO.C,D7*
X150642000Y-110511000D02*
X150642000Y-107421000D01*
X150582000Y-108966000D02*
G75*
G03X150582000Y-108966000I-2500000J0D01*
G01*
X145092000Y-108966462D02*
G75*
G02X150642000Y-107421170I2990000J462D01*
G01*
X145092000Y-108965538D02*
G75*
G03X150642000Y-110510830I2990000J-462D01*
G01*
G04 #@! TO.C,D2*
X143530000Y-96160000D02*
X143530000Y-93070000D01*
X143470000Y-94615000D02*
G75*
G03X143470000Y-94615000I-2500000J0D01*
G01*
X137980000Y-94615462D02*
G75*
G02X143530000Y-93070170I2990000J462D01*
G01*
X137980000Y-94614538D02*
G75*
G03X143530000Y-96159830I2990000J-462D01*
G01*
G04 #@! TO.C,D10*
X157754000Y-96287000D02*
X157754000Y-93197000D01*
X157694000Y-94742000D02*
G75*
G03X157694000Y-94742000I-2500000J0D01*
G01*
X152204000Y-94742462D02*
G75*
G02X157754000Y-93197170I2990000J462D01*
G01*
X152204000Y-94741538D02*
G75*
G03X157754000Y-96286830I2990000J-462D01*
G01*
D14*
G04 #@! TO.C,4022*
X126390000Y-85022000D02*
X126390000Y-85297000D01*
X131940000Y-85022000D02*
X131940000Y-85377000D01*
X131940000Y-95572000D02*
X131940000Y-95217000D01*
X126390000Y-95572000D02*
X126390000Y-95217000D01*
X126390000Y-85022000D02*
X131940000Y-85022000D01*
X126390000Y-95572000D02*
X131940000Y-95572000D01*
X126390000Y-85297000D02*
X124865000Y-85297000D01*
D13*
G04 #@! TO.C,C1*
X121464000Y-86482422D02*
X121464000Y-86999578D01*
X122884000Y-86482422D02*
X122884000Y-86999578D01*
G04 #@! TO.C,C4*
X118670000Y-107622078D02*
X118670000Y-107104922D01*
X120090000Y-107622078D02*
X120090000Y-107104922D01*
G04 #@! TO.C,D1*
X118420000Y-102299500D02*
X118420000Y-104984500D01*
X118420000Y-104984500D02*
X120340000Y-104984500D01*
X120340000Y-104984500D02*
X120340000Y-102299500D01*
G04 #@! TO.C,D3*
X137980000Y-108965538D02*
G75*
G03X143530000Y-110510830I2990000J-462D01*
G01*
X137980000Y-108966462D02*
G75*
G02X143530000Y-107421170I2990000J462D01*
G01*
X143470000Y-108966000D02*
G75*
G03X143470000Y-108966000I-2500000J0D01*
G01*
X143530000Y-110511000D02*
X143530000Y-107421000D01*
G04 #@! TO.C,*
X143530000Y-89175000D02*
X143530000Y-86085000D01*
X143470000Y-87630000D02*
G75*
G03X143470000Y-87630000I-2500000J0D01*
G01*
X137980000Y-87630462D02*
G75*
G02X143530000Y-86085170I2990000J462D01*
G01*
X137980000Y-87629538D02*
G75*
G03X143530000Y-89174830I2990000J-462D01*
G01*
G04 #@! TO.C,+*
X137980000Y-101853538D02*
G75*
G03X143530000Y-103398830I2990000J-462D01*
G01*
X137980000Y-101854462D02*
G75*
G02X143530000Y-100309170I2990000J462D01*
G01*
X143470000Y-101854000D02*
G75*
G03X143470000Y-101854000I-2500000J0D01*
G01*
X143530000Y-103399000D02*
X143530000Y-100309000D01*
G04 #@! TO.C,D6*
X145092000Y-94614538D02*
G75*
G03X150642000Y-96159830I2990000J-462D01*
G01*
X145092000Y-94615462D02*
G75*
G02X150642000Y-93070170I2990000J462D01*
G01*
X150582000Y-94615000D02*
G75*
G03X150582000Y-94615000I-2500000J0D01*
G01*
X150642000Y-96160000D02*
X150642000Y-93070000D01*
G04 #@! TO.C,D8*
X145092000Y-87629538D02*
G75*
G03X150642000Y-89174830I2990000J-462D01*
G01*
X145092000Y-87630462D02*
G75*
G02X150642000Y-86085170I2990000J462D01*
G01*
X150582000Y-87630000D02*
G75*
G03X150582000Y-87630000I-2500000J0D01*
G01*
X150642000Y-89175000D02*
X150642000Y-86085000D01*
G04 #@! TO.C,+*
X145092000Y-101853538D02*
G75*
G03X150642000Y-103398830I2990000J-462D01*
G01*
X145092000Y-101854462D02*
G75*
G02X150642000Y-100309170I2990000J462D01*
G01*
X150582000Y-101854000D02*
G75*
G03X150582000Y-101854000I-2500000J0D01*
G01*
X150642000Y-103399000D02*
X150642000Y-100309000D01*
G04 #@! TO.C,D12*
X157754000Y-89175000D02*
X157754000Y-86085000D01*
X157694000Y-87630000D02*
G75*
G03X157694000Y-87630000I-2500000J0D01*
G01*
X152204000Y-87630462D02*
G75*
G02X157754000Y-86085170I2990000J462D01*
G01*
X152204000Y-87629538D02*
G75*
G03X157754000Y-89174830I2990000J-462D01*
G01*
G04 #@! TO.C,D13*
X157754000Y-103399000D02*
X157754000Y-100309000D01*
X157694000Y-101854000D02*
G75*
G03X157694000Y-101854000I-2500000J0D01*
G01*
X152204000Y-101854462D02*
G75*
G02X157754000Y-100309170I2990000J462D01*
G01*
X152204000Y-101853538D02*
G75*
G03X157754000Y-103398830I2990000J-462D01*
G01*
G04 #@! TO.C,-*
X159316000Y-94741538D02*
G75*
G03X164866000Y-96286830I2990000J-462D01*
G01*
X159316000Y-94742462D02*
G75*
G02X164866000Y-93197170I2990000J462D01*
G01*
X164806000Y-94742000D02*
G75*
G03X164806000Y-94742000I-2500000J0D01*
G01*
X164866000Y-96287000D02*
X164866000Y-93197000D01*
G04 #@! TO.C,D15*
X164866000Y-110511000D02*
X164866000Y-107421000D01*
X164806000Y-108966000D02*
G75*
G03X164806000Y-108966000I-2500000J0D01*
G01*
X159316000Y-108966462D02*
G75*
G02X164866000Y-107421170I2990000J462D01*
G01*
X159316000Y-108965538D02*
G75*
G03X164866000Y-110510830I2990000J-462D01*
G01*
G04 #@! TO.C,D16*
X159316000Y-87629538D02*
G75*
G03X164866000Y-89174830I2990000J-462D01*
G01*
X159316000Y-87630462D02*
G75*
G02X164866000Y-86085170I2990000J462D01*
G01*
X164806000Y-87630000D02*
G75*
G03X164806000Y-87630000I-2500000J0D01*
G01*
X164866000Y-89175000D02*
X164866000Y-86085000D01*
G04 #@! TO.C,D17*
X164866000Y-103399000D02*
X164866000Y-100309000D01*
X164806000Y-101854000D02*
G75*
G03X164806000Y-101854000I-2500000J0D01*
G01*
X159316000Y-101854462D02*
G75*
G02X164866000Y-100309170I2990000J462D01*
G01*
X159316000Y-101853538D02*
G75*
G03X164866000Y-103398830I2990000J-462D01*
G01*
G04 #@! TO.C,D18*
X171978000Y-96287000D02*
X171978000Y-93197000D01*
X171918000Y-94742000D02*
G75*
G03X171918000Y-94742000I-2500000J0D01*
G01*
X166428000Y-94742462D02*
G75*
G02X171978000Y-93197170I2990000J462D01*
G01*
X166428000Y-94741538D02*
G75*
G03X171978000Y-96286830I2990000J-462D01*
G01*
G04 #@! TO.C,D19*
X166428000Y-108965538D02*
G75*
G03X171978000Y-110510830I2990000J-462D01*
G01*
X166428000Y-108966462D02*
G75*
G02X171978000Y-107421170I2990000J462D01*
G01*
X171918000Y-108966000D02*
G75*
G03X171918000Y-108966000I-2500000J0D01*
G01*
X171978000Y-110511000D02*
X171978000Y-107421000D01*
G04 #@! TO.C,D20*
X171978000Y-89175000D02*
X171978000Y-86085000D01*
X171918000Y-87630000D02*
G75*
G03X171918000Y-87630000I-2500000J0D01*
G01*
X166428000Y-87630462D02*
G75*
G02X171978000Y-86085170I2990000J462D01*
G01*
X166428000Y-87629538D02*
G75*
G03X171978000Y-89174830I2990000J-462D01*
G01*
G04 #@! TO.C,D21*
X166428000Y-101853538D02*
G75*
G03X171978000Y-103398830I2990000J-462D01*
G01*
X166428000Y-101854462D02*
G75*
G02X171978000Y-100309170I2990000J462D01*
G01*
X171918000Y-101854000D02*
G75*
G03X171918000Y-101854000I-2500000J0D01*
G01*
X171978000Y-103399000D02*
X171978000Y-100309000D01*
G04 #@! TO.C,D22*
X173540000Y-94741538D02*
G75*
G03X179090000Y-96286830I2990000J-462D01*
G01*
X173540000Y-94742462D02*
G75*
G02X179090000Y-93197170I2990000J462D01*
G01*
X179030000Y-94742000D02*
G75*
G03X179030000Y-94742000I-2500000J0D01*
G01*
X179090000Y-96287000D02*
X179090000Y-93197000D01*
G04 #@! TO.C,D23*
X179090000Y-110511000D02*
X179090000Y-107421000D01*
X179030000Y-108966000D02*
G75*
G03X179030000Y-108966000I-2500000J0D01*
G01*
X173540000Y-108966462D02*
G75*
G02X179090000Y-107421170I2990000J462D01*
G01*
X173540000Y-108965538D02*
G75*
G03X179090000Y-110510830I2990000J-462D01*
G01*
G04 #@! TO.C,D24*
X173540000Y-87629538D02*
G75*
G03X179090000Y-89174830I2990000J-462D01*
G01*
X173540000Y-87630462D02*
G75*
G02X179090000Y-86085170I2990000J462D01*
G01*
X179030000Y-87630000D02*
G75*
G03X179030000Y-87630000I-2500000J0D01*
G01*
X179090000Y-89175000D02*
X179090000Y-86085000D01*
G04 #@! TO.C,D25*
X179090000Y-103399000D02*
X179090000Y-100309000D01*
X179030000Y-101854000D02*
G75*
G03X179030000Y-101854000I-2500000J0D01*
G01*
X173540000Y-101854462D02*
G75*
G02X179090000Y-100309170I2990000J462D01*
G01*
X173540000Y-101853538D02*
G75*
G03X179090000Y-103398830I2990000J-462D01*
G01*
G04 #@! TO.C,D26*
X186202000Y-96287000D02*
X186202000Y-93197000D01*
X186142000Y-94742000D02*
G75*
G03X186142000Y-94742000I-2500000J0D01*
G01*
X180652000Y-94742462D02*
G75*
G02X186202000Y-93197170I2990000J462D01*
G01*
X180652000Y-94741538D02*
G75*
G03X186202000Y-96286830I2990000J-462D01*
G01*
G04 #@! TO.C,D27*
X180652000Y-108965538D02*
G75*
G03X186202000Y-110510830I2990000J-462D01*
G01*
X180652000Y-108966462D02*
G75*
G02X186202000Y-107421170I2990000J462D01*
G01*
X186142000Y-108966000D02*
G75*
G03X186142000Y-108966000I-2500000J0D01*
G01*
X186202000Y-110511000D02*
X186202000Y-107421000D01*
G04 #@! TO.C,D28*
X186202000Y-89175000D02*
X186202000Y-86085000D01*
X186142000Y-87630000D02*
G75*
G03X186142000Y-87630000I-2500000J0D01*
G01*
X180652000Y-87630462D02*
G75*
G02X186202000Y-86085170I2990000J462D01*
G01*
X180652000Y-87629538D02*
G75*
G03X186202000Y-89174830I2990000J-462D01*
G01*
G04 #@! TO.C,D29*
X180652000Y-101853538D02*
G75*
G03X186202000Y-103398830I2990000J-462D01*
G01*
X180652000Y-101854462D02*
G75*
G02X186202000Y-100309170I2990000J462D01*
G01*
X186142000Y-101854000D02*
G75*
G03X186142000Y-101854000I-2500000J0D01*
G01*
X186202000Y-103399000D02*
X186202000Y-100309000D01*
G04 #@! TO.C,D30*
X187764000Y-94741538D02*
G75*
G03X193314000Y-96286830I2990000J-462D01*
G01*
X187764000Y-94742462D02*
G75*
G02X193314000Y-93197170I2990000J462D01*
G01*
X193254000Y-94742000D02*
G75*
G03X193254000Y-94742000I-2500000J0D01*
G01*
X193314000Y-96287000D02*
X193314000Y-93197000D01*
G04 #@! TO.C,D31*
X193314000Y-110511000D02*
X193314000Y-107421000D01*
X193254000Y-108966000D02*
G75*
G03X193254000Y-108966000I-2500000J0D01*
G01*
X187764000Y-108966462D02*
G75*
G02X193314000Y-107421170I2990000J462D01*
G01*
X187764000Y-108965538D02*
G75*
G03X193314000Y-110510830I2990000J-462D01*
G01*
G04 #@! TO.C,D32*
X187764000Y-87629538D02*
G75*
G03X193314000Y-89174830I2990000J-462D01*
G01*
X187764000Y-87630462D02*
G75*
G02X193314000Y-86085170I2990000J462D01*
G01*
X193254000Y-87630000D02*
G75*
G03X193254000Y-87630000I-2500000J0D01*
G01*
X193314000Y-89175000D02*
X193314000Y-86085000D01*
G04 #@! TO.C,D33*
X193314000Y-103399000D02*
X193314000Y-100309000D01*
X193254000Y-101854000D02*
G75*
G03X193254000Y-101854000I-2500000J0D01*
G01*
X187764000Y-101854462D02*
G75*
G02X193314000Y-100309170I2990000J462D01*
G01*
X187764000Y-101853538D02*
G75*
G03X193314000Y-103398830I2990000J-462D01*
G01*
G04 #@! TO.C,J1*
X120456000Y-84776000D02*
X117796000Y-84776000D01*
X120456000Y-92456000D02*
X120456000Y-84776000D01*
X117796000Y-92456000D02*
X117796000Y-84776000D01*
X120456000Y-92456000D02*
X117796000Y-92456000D01*
X120456000Y-93726000D02*
X120456000Y-95056000D01*
X120456000Y-95056000D02*
X119126000Y-95056000D01*
G04 #@! TO.C,R1*
X135942000Y-85768922D02*
X135942000Y-86286078D01*
X137362000Y-85768922D02*
X137362000Y-86286078D01*
G04 #@! TO.C,R4*
X137235000Y-106382078D02*
X137235000Y-105864922D01*
X135815000Y-106382078D02*
X135815000Y-105864922D01*
G04 #@! TO.C,R2*
X135942000Y-92763078D02*
X135942000Y-92245922D01*
X137362000Y-92763078D02*
X137362000Y-92245922D01*
G04 #@! TO.C,R3*
X135942000Y-99309422D02*
X135942000Y-99826578D01*
X137362000Y-99309422D02*
X137362000Y-99826578D01*
G04 #@! TO.C,R10*
X120090000Y-99103922D02*
X120090000Y-99621078D01*
X118670000Y-99103922D02*
X118670000Y-99621078D01*
D14*
G04 #@! TO.C,ULN2804*
X133458000Y-99757000D02*
X133208000Y-99757000D01*
X133458000Y-107507000D02*
X133113000Y-107507000D01*
X121558000Y-107507000D02*
X121903000Y-107507000D01*
X121558000Y-99757000D02*
X121903000Y-99757000D01*
X133458000Y-99757000D02*
X133458000Y-107507000D01*
X121558000Y-99757000D02*
X121558000Y-107507000D01*
X133208000Y-99757000D02*
X133208000Y-97932000D01*
G04 #@! TO.C,4022*
X128690714Y-90900095D02*
X129357380Y-90900095D01*
X128309761Y-91138190D02*
X129024047Y-91376285D01*
X129024047Y-90757238D01*
X128357380Y-90185809D02*
X128357380Y-90090571D01*
X128405000Y-89995333D01*
X128452619Y-89947714D01*
X128547857Y-89900095D01*
X128738333Y-89852476D01*
X128976428Y-89852476D01*
X129166904Y-89900095D01*
X129262142Y-89947714D01*
X129309761Y-89995333D01*
X129357380Y-90090571D01*
X129357380Y-90185809D01*
X129309761Y-90281047D01*
X129262142Y-90328666D01*
X129166904Y-90376285D01*
X128976428Y-90423904D01*
X128738333Y-90423904D01*
X128547857Y-90376285D01*
X128452619Y-90328666D01*
X128405000Y-90281047D01*
X128357380Y-90185809D01*
X128452619Y-89471523D02*
X128405000Y-89423904D01*
X128357380Y-89328666D01*
X128357380Y-89090571D01*
X128405000Y-88995333D01*
X128452619Y-88947714D01*
X128547857Y-88900095D01*
X128643095Y-88900095D01*
X128785952Y-88947714D01*
X129357380Y-89519142D01*
X129357380Y-88900095D01*
X128452619Y-88519142D02*
X128405000Y-88471523D01*
X128357380Y-88376285D01*
X128357380Y-88138190D01*
X128405000Y-88042952D01*
X128452619Y-87995333D01*
X128547857Y-87947714D01*
X128643095Y-87947714D01*
X128785952Y-87995333D01*
X129357380Y-88566761D01*
X129357380Y-87947714D01*
G04 #@! TO.C,C1*
X122404142Y-84113666D02*
X122451761Y-84161285D01*
X122499380Y-84304142D01*
X122499380Y-84399380D01*
X122451761Y-84542238D01*
X122356523Y-84637476D01*
X122261285Y-84685095D01*
X122070809Y-84732714D01*
X121927952Y-84732714D01*
X121737476Y-84685095D01*
X121642238Y-84637476D01*
X121547000Y-84542238D01*
X121499380Y-84399380D01*
X121499380Y-84304142D01*
X121547000Y-84161285D01*
X121594619Y-84113666D01*
X122499380Y-83161285D02*
X122499380Y-83732714D01*
X122499380Y-83447000D02*
X121499380Y-83447000D01*
X121642238Y-83542238D01*
X121737476Y-83637476D01*
X121785095Y-83732714D01*
G04 #@! TO.C,C4*
X118087142Y-107530166D02*
X118134761Y-107577785D01*
X118182380Y-107720642D01*
X118182380Y-107815880D01*
X118134761Y-107958738D01*
X118039523Y-108053976D01*
X117944285Y-108101595D01*
X117753809Y-108149214D01*
X117610952Y-108149214D01*
X117420476Y-108101595D01*
X117325238Y-108053976D01*
X117230000Y-107958738D01*
X117182380Y-107815880D01*
X117182380Y-107720642D01*
X117230000Y-107577785D01*
X117277619Y-107530166D01*
X117515714Y-106673023D02*
X118182380Y-106673023D01*
X117134761Y-106911119D02*
X117849047Y-107149214D01*
X117849047Y-106530166D01*
G04 #@! TO.C,D1*
X118182380Y-104037595D02*
X117182380Y-104037595D01*
X117182380Y-103799500D01*
X117230000Y-103656642D01*
X117325238Y-103561404D01*
X117420476Y-103513785D01*
X117610952Y-103466166D01*
X117753809Y-103466166D01*
X117944285Y-103513785D01*
X118039523Y-103561404D01*
X118134761Y-103656642D01*
X118182380Y-103799500D01*
X118182380Y-104037595D01*
X118182380Y-102513785D02*
X118182380Y-103085214D01*
X118182380Y-102799500D02*
X117182380Y-102799500D01*
X117325238Y-102894738D01*
X117420476Y-102989976D01*
X117468095Y-103085214D01*
G04 #@! TO.C,+*
D15*
X137287095Y-84978857D02*
X138810904Y-84978857D01*
X138049000Y-85740761D02*
X138049000Y-84216952D01*
G04 #@! TO.C,-*
D11*
X142748095Y-90693857D02*
X144271904Y-90693857D01*
G04 #@! TO.C,R1*
D14*
X135199380Y-86018666D02*
X134723190Y-86352000D01*
X135199380Y-86590095D02*
X134199380Y-86590095D01*
X134199380Y-86209142D01*
X134247000Y-86113904D01*
X134294619Y-86066285D01*
X134389857Y-86018666D01*
X134532714Y-86018666D01*
X134627952Y-86066285D01*
X134675571Y-86113904D01*
X134723190Y-86209142D01*
X134723190Y-86590095D01*
X135199380Y-85066285D02*
X135199380Y-85637714D01*
X135199380Y-85352000D02*
X134199380Y-85352000D01*
X134342238Y-85447238D01*
X134437476Y-85542476D01*
X134485095Y-85637714D01*
G04 #@! TO.C,R4*
X135580380Y-107511666D02*
X135104190Y-107845000D01*
X135580380Y-108083095D02*
X134580380Y-108083095D01*
X134580380Y-107702142D01*
X134628000Y-107606904D01*
X134675619Y-107559285D01*
X134770857Y-107511666D01*
X134913714Y-107511666D01*
X135008952Y-107559285D01*
X135056571Y-107606904D01*
X135104190Y-107702142D01*
X135104190Y-108083095D01*
X134913714Y-106654523D02*
X135580380Y-106654523D01*
X134532761Y-106892619D02*
X135247047Y-107130714D01*
X135247047Y-106511666D01*
G04 #@! TO.C,R2*
X135454380Y-92671166D02*
X134978190Y-93004500D01*
X135454380Y-93242595D02*
X134454380Y-93242595D01*
X134454380Y-92861642D01*
X134502000Y-92766404D01*
X134549619Y-92718785D01*
X134644857Y-92671166D01*
X134787714Y-92671166D01*
X134882952Y-92718785D01*
X134930571Y-92766404D01*
X134978190Y-92861642D01*
X134978190Y-93242595D01*
X134549619Y-92290214D02*
X134502000Y-92242595D01*
X134454380Y-92147357D01*
X134454380Y-91909261D01*
X134502000Y-91814023D01*
X134549619Y-91766404D01*
X134644857Y-91718785D01*
X134740095Y-91718785D01*
X134882952Y-91766404D01*
X135454380Y-92337833D01*
X135454380Y-91718785D01*
G04 #@! TO.C,R3*
X135580380Y-99607666D02*
X135104190Y-99941000D01*
X135580380Y-100179095D02*
X134580380Y-100179095D01*
X134580380Y-99798142D01*
X134628000Y-99702904D01*
X134675619Y-99655285D01*
X134770857Y-99607666D01*
X134913714Y-99607666D01*
X135008952Y-99655285D01*
X135056571Y-99702904D01*
X135104190Y-99798142D01*
X135104190Y-100179095D01*
X134580380Y-99274333D02*
X134580380Y-98655285D01*
X134961333Y-98988619D01*
X134961333Y-98845761D01*
X135008952Y-98750523D01*
X135056571Y-98702904D01*
X135151809Y-98655285D01*
X135389904Y-98655285D01*
X135485142Y-98702904D01*
X135532761Y-98750523D01*
X135580380Y-98845761D01*
X135580380Y-99131476D01*
X135532761Y-99226714D01*
X135485142Y-99274333D01*
G04 #@! TO.C,R10*
X118181380Y-100005357D02*
X117705190Y-100338690D01*
X118181380Y-100576785D02*
X117181380Y-100576785D01*
X117181380Y-100195833D01*
X117229000Y-100100595D01*
X117276619Y-100052976D01*
X117371857Y-100005357D01*
X117514714Y-100005357D01*
X117609952Y-100052976D01*
X117657571Y-100100595D01*
X117705190Y-100195833D01*
X117705190Y-100576785D01*
X118181380Y-99052976D02*
X118181380Y-99624404D01*
X118181380Y-99338690D02*
X117181380Y-99338690D01*
X117324238Y-99433928D01*
X117419476Y-99529166D01*
X117467095Y-99624404D01*
X117181380Y-98433928D02*
X117181380Y-98338690D01*
X117229000Y-98243452D01*
X117276619Y-98195833D01*
X117371857Y-98148214D01*
X117562333Y-98100595D01*
X117800428Y-98100595D01*
X117990904Y-98148214D01*
X118086142Y-98195833D01*
X118133761Y-98243452D01*
X118181380Y-98338690D01*
X118181380Y-98433928D01*
X118133761Y-98529166D01*
X118086142Y-98576785D01*
X117990904Y-98624404D01*
X117800428Y-98672023D01*
X117562333Y-98672023D01*
X117371857Y-98624404D01*
X117276619Y-98576785D01*
X117229000Y-98529166D01*
X117181380Y-98433928D01*
G04 #@! TO.C,ULN2804*
X124769952Y-102830380D02*
X124769952Y-103639904D01*
X124817571Y-103735142D01*
X124865190Y-103782761D01*
X124960428Y-103830380D01*
X125150904Y-103830380D01*
X125246142Y-103782761D01*
X125293761Y-103735142D01*
X125341380Y-103639904D01*
X125341380Y-102830380D01*
X126293761Y-103830380D02*
X125817571Y-103830380D01*
X125817571Y-102830380D01*
X126627095Y-103830380D02*
X126627095Y-102830380D01*
X127198523Y-103830380D01*
X127198523Y-102830380D01*
X127627095Y-102925619D02*
X127674714Y-102878000D01*
X127769952Y-102830380D01*
X128008047Y-102830380D01*
X128103285Y-102878000D01*
X128150904Y-102925619D01*
X128198523Y-103020857D01*
X128198523Y-103116095D01*
X128150904Y-103258952D01*
X127579476Y-103830380D01*
X128198523Y-103830380D01*
X128769952Y-103258952D02*
X128674714Y-103211333D01*
X128627095Y-103163714D01*
X128579476Y-103068476D01*
X128579476Y-103020857D01*
X128627095Y-102925619D01*
X128674714Y-102878000D01*
X128769952Y-102830380D01*
X128960428Y-102830380D01*
X129055666Y-102878000D01*
X129103285Y-102925619D01*
X129150904Y-103020857D01*
X129150904Y-103068476D01*
X129103285Y-103163714D01*
X129055666Y-103211333D01*
X128960428Y-103258952D01*
X128769952Y-103258952D01*
X128674714Y-103306571D01*
X128627095Y-103354190D01*
X128579476Y-103449428D01*
X128579476Y-103639904D01*
X128627095Y-103735142D01*
X128674714Y-103782761D01*
X128769952Y-103830380D01*
X128960428Y-103830380D01*
X129055666Y-103782761D01*
X129103285Y-103735142D01*
X129150904Y-103639904D01*
X129150904Y-103449428D01*
X129103285Y-103354190D01*
X129055666Y-103306571D01*
X128960428Y-103258952D01*
X129769952Y-102830380D02*
X129865190Y-102830380D01*
X129960428Y-102878000D01*
X130008047Y-102925619D01*
X130055666Y-103020857D01*
X130103285Y-103211333D01*
X130103285Y-103449428D01*
X130055666Y-103639904D01*
X130008047Y-103735142D01*
X129960428Y-103782761D01*
X129865190Y-103830380D01*
X129769952Y-103830380D01*
X129674714Y-103782761D01*
X129627095Y-103735142D01*
X129579476Y-103639904D01*
X129531857Y-103449428D01*
X129531857Y-103211333D01*
X129579476Y-103020857D01*
X129627095Y-102925619D01*
X129674714Y-102878000D01*
X129769952Y-102830380D01*
X130960428Y-103163714D02*
X130960428Y-103830380D01*
X130722333Y-102782761D02*
X130484238Y-103497047D01*
X131103285Y-103497047D01*
G04 #@! TD*
M02*
