G04 #@! TF.GenerationSoftware,KiCad,Pcbnew,5.0.2+dfsg1-1*
G04 #@! TF.CreationDate,2019-03-28T13:57:09+00:00*
G04 #@! TF.ProjectId,PiZeroInteract,50695a65-726f-4496-9e74-65726163742e,rev?*
G04 #@! TF.SameCoordinates,Original*
G04 #@! TF.FileFunction,Copper,L2,Bot*
G04 #@! TF.FilePolarity,Positive*
%FSLAX46Y46*%
G04 Gerber Fmt 4.6, Leading zero omitted, Abs format (unit mm)*
G04 Created by KiCad (PCBNEW 5.0.2+dfsg1-1) date Thu 28 Mar 2019 13:57:09 GMT*
%MOMM*%
%LPD*%
G01*
G04 APERTURE LIST*
G04 #@! TA.AperFunction,SMDPad,CuDef*
%ADD10R,0.800000X0.900000*%
G04 #@! TD*
G04 #@! TA.AperFunction,SMDPad,CuDef*
%ADD11R,1.000000X1.500000*%
G04 #@! TD*
G04 #@! TA.AperFunction,ComponentPad*
%ADD12R,1.700000X1.700000*%
G04 #@! TD*
G04 #@! TA.AperFunction,ComponentPad*
%ADD13O,1.700000X1.700000*%
G04 #@! TD*
G04 #@! TA.AperFunction,ComponentPad*
%ADD14O,2.000000X1.450000*%
G04 #@! TD*
G04 #@! TA.AperFunction,ComponentPad*
%ADD15O,1.800000X1.150000*%
G04 #@! TD*
G04 #@! TA.AperFunction,SMDPad,CuDef*
%ADD16R,0.900000X0.800000*%
G04 #@! TD*
G04 #@! TA.AperFunction,Conductor*
%ADD17C,0.100000*%
G04 #@! TD*
G04 #@! TA.AperFunction,SMDPad,CuDef*
%ADD18C,0.590000*%
G04 #@! TD*
G04 #@! TA.AperFunction,ViaPad*
%ADD19C,0.800000*%
G04 #@! TD*
G04 #@! TA.AperFunction,Conductor*
%ADD20C,0.250000*%
G04 #@! TD*
G04 APERTURE END LIST*
D10*
G04 #@! TO.P,Q2,3*
G04 #@! TO.N,Net-(Q1-Pad1)*
X132650000Y-76500000D03*
G04 #@! TO.P,Q2,2*
G04 #@! TO.N,+BATT*
X131700000Y-78500000D03*
G04 #@! TO.P,Q2,1*
G04 #@! TO.N,Net-(Q2-Pad1)*
X133600000Y-78500000D03*
G04 #@! TD*
D11*
G04 #@! TO.P,D1,2*
G04 #@! TO.N,+BATT*
X130600000Y-59400000D03*
G04 #@! TO.P,D1,1*
G04 #@! TO.N,Net-(D1-Pad1)*
X129300000Y-59400000D03*
G04 #@! TD*
G04 #@! TO.P,D2,1*
G04 #@! TO.N,Net-(D2-Pad1)*
X137200000Y-57450000D03*
G04 #@! TO.P,D2,2*
G04 #@! TO.N,+BATT*
X138500000Y-57450000D03*
G04 #@! TD*
G04 #@! TO.P,D3,1*
G04 #@! TO.N,Net-(D3-Pad1)*
X122300000Y-57500000D03*
G04 #@! TO.P,D3,2*
G04 #@! TO.N,+BATT*
X123600000Y-57500000D03*
G04 #@! TD*
D12*
G04 #@! TO.P,J1,1*
G04 #@! TO.N,GND*
X134200000Y-56600000D03*
D13*
G04 #@! TO.P,J1,2*
G04 #@! TO.N,/SCL*
X131660000Y-56600000D03*
G04 #@! TO.P,J1,3*
G04 #@! TO.N,/SDA*
X129120000Y-56600000D03*
G04 #@! TO.P,J1,4*
G04 #@! TO.N,+3V3*
X126580000Y-56600000D03*
G04 #@! TD*
D12*
G04 #@! TO.P,J2,1*
G04 #@! TO.N,/SW_SEL*
X117300000Y-63350000D03*
D13*
G04 #@! TO.P,J2,2*
G04 #@! TO.N,GND*
X119840000Y-63350000D03*
G04 #@! TO.P,J2,3*
G04 #@! TO.N,/SW_CNL*
X117300000Y-65890000D03*
G04 #@! TO.P,J2,4*
G04 #@! TO.N,/SW_UP*
X119840000Y-65890000D03*
G04 #@! TO.P,J2,5*
G04 #@! TO.N,Net-(J2-Pad5)*
X117300000Y-68430000D03*
G04 #@! TO.P,J2,6*
G04 #@! TO.N,/SW_DOWN*
X119840000Y-68430000D03*
G04 #@! TO.P,J2,7*
G04 #@! TO.N,Net-(J2-Pad7)*
X117300000Y-70970000D03*
G04 #@! TO.P,J2,8*
G04 #@! TO.N,/SW_LEFT*
X119840000Y-70970000D03*
G04 #@! TO.P,J2,9*
G04 #@! TO.N,/SAFE_SHUTDOWN*
X117300000Y-73510000D03*
G04 #@! TO.P,J2,10*
G04 #@! TO.N,/SW_RIGHT*
X119840000Y-73510000D03*
G04 #@! TO.P,J2,11*
G04 #@! TO.N,Net-(J2-Pad11)*
X117300000Y-76050000D03*
G04 #@! TO.P,J2,12*
G04 #@! TO.N,Net-(J2-Pad12)*
X119840000Y-76050000D03*
G04 #@! TO.P,J2,13*
G04 #@! TO.N,Net-(J2-Pad13)*
X117300000Y-78590000D03*
G04 #@! TO.P,J2,14*
G04 #@! TO.N,Net-(J2-Pad14)*
X119840000Y-78590000D03*
G04 #@! TO.P,J2,15*
G04 #@! TO.N,Net-(J2-Pad15)*
X117300000Y-81130000D03*
G04 #@! TO.P,J2,16*
G04 #@! TO.N,GND*
X119840000Y-81130000D03*
G04 #@! TO.P,J2,17*
G04 #@! TO.N,Net-(J2-Pad17)*
X117300000Y-83670000D03*
G04 #@! TO.P,J2,18*
G04 #@! TO.N,Net-(J2-Pad18)*
X119840000Y-83670000D03*
G04 #@! TO.P,J2,19*
G04 #@! TO.N,Net-(J2-Pad19)*
X117300000Y-86210000D03*
G04 #@! TO.P,J2,20*
G04 #@! TO.N,/TVBG_PIN*
X119840000Y-86210000D03*
G04 #@! TO.P,J2,21*
G04 #@! TO.N,Net-(J2-Pad21)*
X117300000Y-88750000D03*
G04 #@! TO.P,J2,22*
G04 #@! TO.N,Net-(J2-Pad22)*
X119840000Y-88750000D03*
G04 #@! TO.P,J2,23*
G04 #@! TO.N,Net-(J2-Pad23)*
X117300000Y-91290000D03*
G04 #@! TO.P,J2,24*
G04 #@! TO.N,Net-(J2-Pad24)*
X119840000Y-91290000D03*
G04 #@! TO.P,J2,25*
G04 #@! TO.N,Net-(J2-Pad25)*
X117300000Y-93830000D03*
G04 #@! TO.P,J2,26*
G04 #@! TO.N,Net-(J2-Pad26)*
X119840000Y-93830000D03*
G04 #@! TO.P,J2,27*
G04 #@! TO.N,Net-(J2-Pad27)*
X117300000Y-96370000D03*
G04 #@! TO.P,J2,28*
G04 #@! TO.N,Net-(J2-Pad28)*
X119840000Y-96370000D03*
G04 #@! TO.P,J2,29*
G04 #@! TO.N,Net-(J2-Pad29)*
X117300000Y-98910000D03*
G04 #@! TO.P,J2,30*
G04 #@! TO.N,Net-(J2-Pad30)*
X119840000Y-98910000D03*
G04 #@! TO.P,J2,31*
G04 #@! TO.N,Net-(J2-Pad31)*
X117300000Y-101450000D03*
G04 #@! TO.P,J2,32*
G04 #@! TO.N,Net-(J2-Pad32)*
X119840000Y-101450000D03*
G04 #@! TO.P,J2,33*
G04 #@! TO.N,Net-(J2-Pad33)*
X117300000Y-103990000D03*
G04 #@! TO.P,J2,34*
G04 #@! TO.N,Net-(J2-Pad34)*
X119840000Y-103990000D03*
G04 #@! TO.P,J2,35*
G04 #@! TO.N,GND*
X117300000Y-106530000D03*
G04 #@! TO.P,J2,36*
G04 #@! TO.N,/SCL*
X119840000Y-106530000D03*
G04 #@! TO.P,J2,37*
G04 #@! TO.N,+5V*
X117300000Y-109070000D03*
G04 #@! TO.P,J2,38*
G04 #@! TO.N,/SDA*
X119840000Y-109070000D03*
G04 #@! TO.P,J2,39*
G04 #@! TO.N,+5V*
X117300000Y-111610000D03*
G04 #@! TO.P,J2,40*
G04 #@! TO.N,+3V3*
X119840000Y-111610000D03*
G04 #@! TD*
D14*
G04 #@! TO.P,J3,6*
G04 #@! TO.N,Net-(J3-Pad6)*
X138650000Y-117225000D03*
X138650000Y-109775000D03*
D15*
X142450000Y-117375000D03*
X142450000Y-109625000D03*
G04 #@! TD*
D16*
G04 #@! TO.P,Q1,1*
G04 #@! TO.N,Net-(Q1-Pad1)*
X136550000Y-69350000D03*
G04 #@! TO.P,Q1,2*
G04 #@! TO.N,Net-(Q1-Pad2)*
X136550000Y-71250000D03*
G04 #@! TO.P,Q1,3*
G04 #@! TO.N,Net-(D1-Pad1)*
X134550000Y-70300000D03*
G04 #@! TD*
G04 #@! TO.P,Q3,3*
G04 #@! TO.N,Net-(D2-Pad1)*
X138650000Y-70350000D03*
G04 #@! TO.P,Q3,2*
G04 #@! TO.N,Net-(Q3-Pad2)*
X140650000Y-71300000D03*
G04 #@! TO.P,Q3,1*
G04 #@! TO.N,Net-(Q1-Pad1)*
X140650000Y-69400000D03*
G04 #@! TD*
G04 #@! TO.P,Q4,1*
G04 #@! TO.N,Net-(Q1-Pad1)*
X132550000Y-69400000D03*
G04 #@! TO.P,Q4,2*
G04 #@! TO.N,Net-(Q4-Pad2)*
X132550000Y-71300000D03*
G04 #@! TO.P,Q4,3*
G04 #@! TO.N,Net-(D3-Pad1)*
X130550000Y-70350000D03*
G04 #@! TD*
D17*
G04 #@! TO.N,Net-(Q1-Pad2)*
G04 #@! TO.C,R9*
G36*
X136746958Y-72680710D02*
X136761276Y-72682834D01*
X136775317Y-72686351D01*
X136788946Y-72691228D01*
X136802031Y-72697417D01*
X136814447Y-72704858D01*
X136826073Y-72713481D01*
X136836798Y-72723202D01*
X136846519Y-72733927D01*
X136855142Y-72745553D01*
X136862583Y-72757969D01*
X136868772Y-72771054D01*
X136873649Y-72784683D01*
X136877166Y-72798724D01*
X136879290Y-72813042D01*
X136880000Y-72827500D01*
X136880000Y-73172500D01*
X136879290Y-73186958D01*
X136877166Y-73201276D01*
X136873649Y-73215317D01*
X136868772Y-73228946D01*
X136862583Y-73242031D01*
X136855142Y-73254447D01*
X136846519Y-73266073D01*
X136836798Y-73276798D01*
X136826073Y-73286519D01*
X136814447Y-73295142D01*
X136802031Y-73302583D01*
X136788946Y-73308772D01*
X136775317Y-73313649D01*
X136761276Y-73317166D01*
X136746958Y-73319290D01*
X136732500Y-73320000D01*
X136437500Y-73320000D01*
X136423042Y-73319290D01*
X136408724Y-73317166D01*
X136394683Y-73313649D01*
X136381054Y-73308772D01*
X136367969Y-73302583D01*
X136355553Y-73295142D01*
X136343927Y-73286519D01*
X136333202Y-73276798D01*
X136323481Y-73266073D01*
X136314858Y-73254447D01*
X136307417Y-73242031D01*
X136301228Y-73228946D01*
X136296351Y-73215317D01*
X136292834Y-73201276D01*
X136290710Y-73186958D01*
X136290000Y-73172500D01*
X136290000Y-72827500D01*
X136290710Y-72813042D01*
X136292834Y-72798724D01*
X136296351Y-72784683D01*
X136301228Y-72771054D01*
X136307417Y-72757969D01*
X136314858Y-72745553D01*
X136323481Y-72733927D01*
X136333202Y-72723202D01*
X136343927Y-72713481D01*
X136355553Y-72704858D01*
X136367969Y-72697417D01*
X136381054Y-72691228D01*
X136394683Y-72686351D01*
X136408724Y-72682834D01*
X136423042Y-72680710D01*
X136437500Y-72680000D01*
X136732500Y-72680000D01*
X136746958Y-72680710D01*
X136746958Y-72680710D01*
G37*
D18*
G04 #@! TD*
G04 #@! TO.P,R9,1*
G04 #@! TO.N,Net-(Q1-Pad2)*
X136585000Y-73000000D03*
D17*
G04 #@! TO.N,GND*
G04 #@! TO.C,R9*
G36*
X135776958Y-72680710D02*
X135791276Y-72682834D01*
X135805317Y-72686351D01*
X135818946Y-72691228D01*
X135832031Y-72697417D01*
X135844447Y-72704858D01*
X135856073Y-72713481D01*
X135866798Y-72723202D01*
X135876519Y-72733927D01*
X135885142Y-72745553D01*
X135892583Y-72757969D01*
X135898772Y-72771054D01*
X135903649Y-72784683D01*
X135907166Y-72798724D01*
X135909290Y-72813042D01*
X135910000Y-72827500D01*
X135910000Y-73172500D01*
X135909290Y-73186958D01*
X135907166Y-73201276D01*
X135903649Y-73215317D01*
X135898772Y-73228946D01*
X135892583Y-73242031D01*
X135885142Y-73254447D01*
X135876519Y-73266073D01*
X135866798Y-73276798D01*
X135856073Y-73286519D01*
X135844447Y-73295142D01*
X135832031Y-73302583D01*
X135818946Y-73308772D01*
X135805317Y-73313649D01*
X135791276Y-73317166D01*
X135776958Y-73319290D01*
X135762500Y-73320000D01*
X135467500Y-73320000D01*
X135453042Y-73319290D01*
X135438724Y-73317166D01*
X135424683Y-73313649D01*
X135411054Y-73308772D01*
X135397969Y-73302583D01*
X135385553Y-73295142D01*
X135373927Y-73286519D01*
X135363202Y-73276798D01*
X135353481Y-73266073D01*
X135344858Y-73254447D01*
X135337417Y-73242031D01*
X135331228Y-73228946D01*
X135326351Y-73215317D01*
X135322834Y-73201276D01*
X135320710Y-73186958D01*
X135320000Y-73172500D01*
X135320000Y-72827500D01*
X135320710Y-72813042D01*
X135322834Y-72798724D01*
X135326351Y-72784683D01*
X135331228Y-72771054D01*
X135337417Y-72757969D01*
X135344858Y-72745553D01*
X135353481Y-72733927D01*
X135363202Y-72723202D01*
X135373927Y-72713481D01*
X135385553Y-72704858D01*
X135397969Y-72697417D01*
X135411054Y-72691228D01*
X135424683Y-72686351D01*
X135438724Y-72682834D01*
X135453042Y-72680710D01*
X135467500Y-72680000D01*
X135762500Y-72680000D01*
X135776958Y-72680710D01*
X135776958Y-72680710D01*
G37*
D18*
G04 #@! TD*
G04 #@! TO.P,R9,2*
G04 #@! TO.N,GND*
X135615000Y-73000000D03*
D17*
G04 #@! TO.N,Net-(Q3-Pad2)*
G04 #@! TO.C,R10*
G36*
X140796958Y-72730710D02*
X140811276Y-72732834D01*
X140825317Y-72736351D01*
X140838946Y-72741228D01*
X140852031Y-72747417D01*
X140864447Y-72754858D01*
X140876073Y-72763481D01*
X140886798Y-72773202D01*
X140896519Y-72783927D01*
X140905142Y-72795553D01*
X140912583Y-72807969D01*
X140918772Y-72821054D01*
X140923649Y-72834683D01*
X140927166Y-72848724D01*
X140929290Y-72863042D01*
X140930000Y-72877500D01*
X140930000Y-73222500D01*
X140929290Y-73236958D01*
X140927166Y-73251276D01*
X140923649Y-73265317D01*
X140918772Y-73278946D01*
X140912583Y-73292031D01*
X140905142Y-73304447D01*
X140896519Y-73316073D01*
X140886798Y-73326798D01*
X140876073Y-73336519D01*
X140864447Y-73345142D01*
X140852031Y-73352583D01*
X140838946Y-73358772D01*
X140825317Y-73363649D01*
X140811276Y-73367166D01*
X140796958Y-73369290D01*
X140782500Y-73370000D01*
X140487500Y-73370000D01*
X140473042Y-73369290D01*
X140458724Y-73367166D01*
X140444683Y-73363649D01*
X140431054Y-73358772D01*
X140417969Y-73352583D01*
X140405553Y-73345142D01*
X140393927Y-73336519D01*
X140383202Y-73326798D01*
X140373481Y-73316073D01*
X140364858Y-73304447D01*
X140357417Y-73292031D01*
X140351228Y-73278946D01*
X140346351Y-73265317D01*
X140342834Y-73251276D01*
X140340710Y-73236958D01*
X140340000Y-73222500D01*
X140340000Y-72877500D01*
X140340710Y-72863042D01*
X140342834Y-72848724D01*
X140346351Y-72834683D01*
X140351228Y-72821054D01*
X140357417Y-72807969D01*
X140364858Y-72795553D01*
X140373481Y-72783927D01*
X140383202Y-72773202D01*
X140393927Y-72763481D01*
X140405553Y-72754858D01*
X140417969Y-72747417D01*
X140431054Y-72741228D01*
X140444683Y-72736351D01*
X140458724Y-72732834D01*
X140473042Y-72730710D01*
X140487500Y-72730000D01*
X140782500Y-72730000D01*
X140796958Y-72730710D01*
X140796958Y-72730710D01*
G37*
D18*
G04 #@! TD*
G04 #@! TO.P,R10,1*
G04 #@! TO.N,Net-(Q3-Pad2)*
X140635000Y-73050000D03*
D17*
G04 #@! TO.N,GND*
G04 #@! TO.C,R10*
G36*
X139826958Y-72730710D02*
X139841276Y-72732834D01*
X139855317Y-72736351D01*
X139868946Y-72741228D01*
X139882031Y-72747417D01*
X139894447Y-72754858D01*
X139906073Y-72763481D01*
X139916798Y-72773202D01*
X139926519Y-72783927D01*
X139935142Y-72795553D01*
X139942583Y-72807969D01*
X139948772Y-72821054D01*
X139953649Y-72834683D01*
X139957166Y-72848724D01*
X139959290Y-72863042D01*
X139960000Y-72877500D01*
X139960000Y-73222500D01*
X139959290Y-73236958D01*
X139957166Y-73251276D01*
X139953649Y-73265317D01*
X139948772Y-73278946D01*
X139942583Y-73292031D01*
X139935142Y-73304447D01*
X139926519Y-73316073D01*
X139916798Y-73326798D01*
X139906073Y-73336519D01*
X139894447Y-73345142D01*
X139882031Y-73352583D01*
X139868946Y-73358772D01*
X139855317Y-73363649D01*
X139841276Y-73367166D01*
X139826958Y-73369290D01*
X139812500Y-73370000D01*
X139517500Y-73370000D01*
X139503042Y-73369290D01*
X139488724Y-73367166D01*
X139474683Y-73363649D01*
X139461054Y-73358772D01*
X139447969Y-73352583D01*
X139435553Y-73345142D01*
X139423927Y-73336519D01*
X139413202Y-73326798D01*
X139403481Y-73316073D01*
X139394858Y-73304447D01*
X139387417Y-73292031D01*
X139381228Y-73278946D01*
X139376351Y-73265317D01*
X139372834Y-73251276D01*
X139370710Y-73236958D01*
X139370000Y-73222500D01*
X139370000Y-72877500D01*
X139370710Y-72863042D01*
X139372834Y-72848724D01*
X139376351Y-72834683D01*
X139381228Y-72821054D01*
X139387417Y-72807969D01*
X139394858Y-72795553D01*
X139403481Y-72783927D01*
X139413202Y-72773202D01*
X139423927Y-72763481D01*
X139435553Y-72754858D01*
X139447969Y-72747417D01*
X139461054Y-72741228D01*
X139474683Y-72736351D01*
X139488724Y-72732834D01*
X139503042Y-72730710D01*
X139517500Y-72730000D01*
X139812500Y-72730000D01*
X139826958Y-72730710D01*
X139826958Y-72730710D01*
G37*
D18*
G04 #@! TD*
G04 #@! TO.P,R10,2*
G04 #@! TO.N,GND*
X139665000Y-73050000D03*
D17*
G04 #@! TO.N,/TVBG_PIN*
G04 #@! TO.C,R11*
G36*
X133736958Y-81390710D02*
X133751276Y-81392834D01*
X133765317Y-81396351D01*
X133778946Y-81401228D01*
X133792031Y-81407417D01*
X133804447Y-81414858D01*
X133816073Y-81423481D01*
X133826798Y-81433202D01*
X133836519Y-81443927D01*
X133845142Y-81455553D01*
X133852583Y-81467969D01*
X133858772Y-81481054D01*
X133863649Y-81494683D01*
X133867166Y-81508724D01*
X133869290Y-81523042D01*
X133870000Y-81537500D01*
X133870000Y-81832500D01*
X133869290Y-81846958D01*
X133867166Y-81861276D01*
X133863649Y-81875317D01*
X133858772Y-81888946D01*
X133852583Y-81902031D01*
X133845142Y-81914447D01*
X133836519Y-81926073D01*
X133826798Y-81936798D01*
X133816073Y-81946519D01*
X133804447Y-81955142D01*
X133792031Y-81962583D01*
X133778946Y-81968772D01*
X133765317Y-81973649D01*
X133751276Y-81977166D01*
X133736958Y-81979290D01*
X133722500Y-81980000D01*
X133377500Y-81980000D01*
X133363042Y-81979290D01*
X133348724Y-81977166D01*
X133334683Y-81973649D01*
X133321054Y-81968772D01*
X133307969Y-81962583D01*
X133295553Y-81955142D01*
X133283927Y-81946519D01*
X133273202Y-81936798D01*
X133263481Y-81926073D01*
X133254858Y-81914447D01*
X133247417Y-81902031D01*
X133241228Y-81888946D01*
X133236351Y-81875317D01*
X133232834Y-81861276D01*
X133230710Y-81846958D01*
X133230000Y-81832500D01*
X133230000Y-81537500D01*
X133230710Y-81523042D01*
X133232834Y-81508724D01*
X133236351Y-81494683D01*
X133241228Y-81481054D01*
X133247417Y-81467969D01*
X133254858Y-81455553D01*
X133263481Y-81443927D01*
X133273202Y-81433202D01*
X133283927Y-81423481D01*
X133295553Y-81414858D01*
X133307969Y-81407417D01*
X133321054Y-81401228D01*
X133334683Y-81396351D01*
X133348724Y-81392834D01*
X133363042Y-81390710D01*
X133377500Y-81390000D01*
X133722500Y-81390000D01*
X133736958Y-81390710D01*
X133736958Y-81390710D01*
G37*
D18*
G04 #@! TD*
G04 #@! TO.P,R11,1*
G04 #@! TO.N,/TVBG_PIN*
X133550000Y-81685000D03*
D17*
G04 #@! TO.N,Net-(Q2-Pad1)*
G04 #@! TO.C,R11*
G36*
X133736958Y-80420710D02*
X133751276Y-80422834D01*
X133765317Y-80426351D01*
X133778946Y-80431228D01*
X133792031Y-80437417D01*
X133804447Y-80444858D01*
X133816073Y-80453481D01*
X133826798Y-80463202D01*
X133836519Y-80473927D01*
X133845142Y-80485553D01*
X133852583Y-80497969D01*
X133858772Y-80511054D01*
X133863649Y-80524683D01*
X133867166Y-80538724D01*
X133869290Y-80553042D01*
X133870000Y-80567500D01*
X133870000Y-80862500D01*
X133869290Y-80876958D01*
X133867166Y-80891276D01*
X133863649Y-80905317D01*
X133858772Y-80918946D01*
X133852583Y-80932031D01*
X133845142Y-80944447D01*
X133836519Y-80956073D01*
X133826798Y-80966798D01*
X133816073Y-80976519D01*
X133804447Y-80985142D01*
X133792031Y-80992583D01*
X133778946Y-80998772D01*
X133765317Y-81003649D01*
X133751276Y-81007166D01*
X133736958Y-81009290D01*
X133722500Y-81010000D01*
X133377500Y-81010000D01*
X133363042Y-81009290D01*
X133348724Y-81007166D01*
X133334683Y-81003649D01*
X133321054Y-80998772D01*
X133307969Y-80992583D01*
X133295553Y-80985142D01*
X133283927Y-80976519D01*
X133273202Y-80966798D01*
X133263481Y-80956073D01*
X133254858Y-80944447D01*
X133247417Y-80932031D01*
X133241228Y-80918946D01*
X133236351Y-80905317D01*
X133232834Y-80891276D01*
X133230710Y-80876958D01*
X133230000Y-80862500D01*
X133230000Y-80567500D01*
X133230710Y-80553042D01*
X133232834Y-80538724D01*
X133236351Y-80524683D01*
X133241228Y-80511054D01*
X133247417Y-80497969D01*
X133254858Y-80485553D01*
X133263481Y-80473927D01*
X133273202Y-80463202D01*
X133283927Y-80453481D01*
X133295553Y-80444858D01*
X133307969Y-80437417D01*
X133321054Y-80431228D01*
X133334683Y-80426351D01*
X133348724Y-80422834D01*
X133363042Y-80420710D01*
X133377500Y-80420000D01*
X133722500Y-80420000D01*
X133736958Y-80420710D01*
X133736958Y-80420710D01*
G37*
D18*
G04 #@! TD*
G04 #@! TO.P,R11,2*
G04 #@! TO.N,Net-(Q2-Pad1)*
X133550000Y-80715000D03*
D17*
G04 #@! TO.N,Net-(Q4-Pad2)*
G04 #@! TO.C,R12*
G36*
X132696958Y-72680710D02*
X132711276Y-72682834D01*
X132725317Y-72686351D01*
X132738946Y-72691228D01*
X132752031Y-72697417D01*
X132764447Y-72704858D01*
X132776073Y-72713481D01*
X132786798Y-72723202D01*
X132796519Y-72733927D01*
X132805142Y-72745553D01*
X132812583Y-72757969D01*
X132818772Y-72771054D01*
X132823649Y-72784683D01*
X132827166Y-72798724D01*
X132829290Y-72813042D01*
X132830000Y-72827500D01*
X132830000Y-73172500D01*
X132829290Y-73186958D01*
X132827166Y-73201276D01*
X132823649Y-73215317D01*
X132818772Y-73228946D01*
X132812583Y-73242031D01*
X132805142Y-73254447D01*
X132796519Y-73266073D01*
X132786798Y-73276798D01*
X132776073Y-73286519D01*
X132764447Y-73295142D01*
X132752031Y-73302583D01*
X132738946Y-73308772D01*
X132725317Y-73313649D01*
X132711276Y-73317166D01*
X132696958Y-73319290D01*
X132682500Y-73320000D01*
X132387500Y-73320000D01*
X132373042Y-73319290D01*
X132358724Y-73317166D01*
X132344683Y-73313649D01*
X132331054Y-73308772D01*
X132317969Y-73302583D01*
X132305553Y-73295142D01*
X132293927Y-73286519D01*
X132283202Y-73276798D01*
X132273481Y-73266073D01*
X132264858Y-73254447D01*
X132257417Y-73242031D01*
X132251228Y-73228946D01*
X132246351Y-73215317D01*
X132242834Y-73201276D01*
X132240710Y-73186958D01*
X132240000Y-73172500D01*
X132240000Y-72827500D01*
X132240710Y-72813042D01*
X132242834Y-72798724D01*
X132246351Y-72784683D01*
X132251228Y-72771054D01*
X132257417Y-72757969D01*
X132264858Y-72745553D01*
X132273481Y-72733927D01*
X132283202Y-72723202D01*
X132293927Y-72713481D01*
X132305553Y-72704858D01*
X132317969Y-72697417D01*
X132331054Y-72691228D01*
X132344683Y-72686351D01*
X132358724Y-72682834D01*
X132373042Y-72680710D01*
X132387500Y-72680000D01*
X132682500Y-72680000D01*
X132696958Y-72680710D01*
X132696958Y-72680710D01*
G37*
D18*
G04 #@! TD*
G04 #@! TO.P,R12,1*
G04 #@! TO.N,Net-(Q4-Pad2)*
X132535000Y-73000000D03*
D17*
G04 #@! TO.N,GND*
G04 #@! TO.C,R12*
G36*
X131726958Y-72680710D02*
X131741276Y-72682834D01*
X131755317Y-72686351D01*
X131768946Y-72691228D01*
X131782031Y-72697417D01*
X131794447Y-72704858D01*
X131806073Y-72713481D01*
X131816798Y-72723202D01*
X131826519Y-72733927D01*
X131835142Y-72745553D01*
X131842583Y-72757969D01*
X131848772Y-72771054D01*
X131853649Y-72784683D01*
X131857166Y-72798724D01*
X131859290Y-72813042D01*
X131860000Y-72827500D01*
X131860000Y-73172500D01*
X131859290Y-73186958D01*
X131857166Y-73201276D01*
X131853649Y-73215317D01*
X131848772Y-73228946D01*
X131842583Y-73242031D01*
X131835142Y-73254447D01*
X131826519Y-73266073D01*
X131816798Y-73276798D01*
X131806073Y-73286519D01*
X131794447Y-73295142D01*
X131782031Y-73302583D01*
X131768946Y-73308772D01*
X131755317Y-73313649D01*
X131741276Y-73317166D01*
X131726958Y-73319290D01*
X131712500Y-73320000D01*
X131417500Y-73320000D01*
X131403042Y-73319290D01*
X131388724Y-73317166D01*
X131374683Y-73313649D01*
X131361054Y-73308772D01*
X131347969Y-73302583D01*
X131335553Y-73295142D01*
X131323927Y-73286519D01*
X131313202Y-73276798D01*
X131303481Y-73266073D01*
X131294858Y-73254447D01*
X131287417Y-73242031D01*
X131281228Y-73228946D01*
X131276351Y-73215317D01*
X131272834Y-73201276D01*
X131270710Y-73186958D01*
X131270000Y-73172500D01*
X131270000Y-72827500D01*
X131270710Y-72813042D01*
X131272834Y-72798724D01*
X131276351Y-72784683D01*
X131281228Y-72771054D01*
X131287417Y-72757969D01*
X131294858Y-72745553D01*
X131303481Y-72733927D01*
X131313202Y-72723202D01*
X131323927Y-72713481D01*
X131335553Y-72704858D01*
X131347969Y-72697417D01*
X131361054Y-72691228D01*
X131374683Y-72686351D01*
X131388724Y-72682834D01*
X131403042Y-72680710D01*
X131417500Y-72680000D01*
X131712500Y-72680000D01*
X131726958Y-72680710D01*
X131726958Y-72680710D01*
G37*
D18*
G04 #@! TD*
G04 #@! TO.P,R12,2*
G04 #@! TO.N,GND*
X131565000Y-73000000D03*
D19*
G04 #@! TO.N,GND*
X127100000Y-106700000D03*
X125900000Y-106700000D03*
X127100000Y-105500000D03*
X125900000Y-105500000D03*
X138100000Y-105000000D03*
X136700000Y-105000000D03*
X138100000Y-103800000D03*
X136700000Y-103800000D03*
X129100000Y-70000000D03*
X129100000Y-71100000D03*
X142250000Y-95850000D03*
X142250000Y-94850000D03*
X140700000Y-95850000D03*
X140700000Y-94850000D03*
X140700000Y-93850000D03*
X135150000Y-106500000D03*
X134200000Y-106500000D03*
X133200000Y-106500000D03*
X137350000Y-108250000D03*
X132900000Y-108300000D03*
X138350000Y-108200000D03*
X132000000Y-108100000D03*
X132500000Y-110750000D03*
X133550000Y-110750000D03*
X134500000Y-110750000D03*
X135550000Y-110750000D03*
X140200000Y-113900000D03*
X141250000Y-113900000D03*
X142350000Y-113900000D03*
X143250000Y-113500000D03*
X143250000Y-112500000D03*
X141250000Y-115700000D03*
X142400000Y-115700000D03*
X143550000Y-115700000D03*
X138300000Y-115750000D03*
X137250000Y-115800000D03*
X127400000Y-115650000D03*
X127400000Y-116800000D03*
X127400000Y-117950000D03*
X128400000Y-117400000D03*
X128400000Y-116200000D03*
X128400000Y-118650000D03*
X129350000Y-118000000D03*
X129350000Y-116800000D03*
X129400000Y-115600000D03*
X130400000Y-116200000D03*
X130450000Y-117400000D03*
X130500000Y-118650000D03*
X131500000Y-117950000D03*
X131500000Y-116800000D03*
X131500000Y-115600000D03*
X117150000Y-113600000D03*
X117200000Y-114750000D03*
X118300000Y-114050000D03*
X119350000Y-114700000D03*
X120300000Y-115600000D03*
X120300000Y-114200000D03*
X124450000Y-111200000D03*
X125550000Y-111200000D03*
X123900000Y-112100000D03*
X124950000Y-112100000D03*
X126250000Y-112100000D03*
X126650000Y-111150000D03*
X130850000Y-99000000D03*
X131950000Y-99000000D03*
X130850000Y-100000000D03*
X131950000Y-100000000D03*
X132000000Y-101050000D03*
X130850000Y-101050000D03*
X136900000Y-60550000D03*
X136950000Y-61650000D03*
X137000000Y-62800000D03*
X135950000Y-63500000D03*
X135950000Y-62300000D03*
X135950000Y-61100000D03*
X135050000Y-61650000D03*
X135100000Y-62950000D03*
X115900000Y-59800000D03*
X134200000Y-58300000D03*
X133200000Y-58300000D03*
X132250000Y-58300000D03*
X135200000Y-58300000D03*
X126050000Y-69600000D03*
X126050000Y-70600000D03*
X126050000Y-71600000D03*
X125050000Y-70200000D03*
X125050000Y-71250000D03*
X124000000Y-61500000D03*
X125100000Y-61450000D03*
X124500000Y-62550000D03*
X125650000Y-62550000D03*
X125100000Y-63550000D03*
X126300000Y-63500000D03*
X128300000Y-65800000D03*
X129000000Y-63700000D03*
X129550000Y-65800000D03*
X124050000Y-69650000D03*
X123600000Y-68800000D03*
X122850000Y-67950000D03*
X121950000Y-67350000D03*
X122100000Y-69950000D03*
X122150000Y-71850000D03*
X122800000Y-72750000D03*
X121800000Y-72750000D03*
X122750000Y-73700000D03*
X121550000Y-74650000D03*
X121600000Y-75650000D03*
X124800000Y-89550000D03*
X125950000Y-89550000D03*
X127050000Y-89550000D03*
X128200000Y-89550000D03*
X126400000Y-90500000D03*
X127550000Y-90500000D03*
X124150000Y-90500000D03*
X125300000Y-90500000D03*
X124750000Y-91450000D03*
X127000000Y-91450000D03*
X128150000Y-91450000D03*
X125900000Y-91450000D03*
X126450000Y-92400000D03*
X127600000Y-92400000D03*
X124200000Y-92400000D03*
X125350000Y-92400000D03*
X125900000Y-93350000D03*
X127000000Y-93350000D03*
X128150000Y-93350000D03*
X124750000Y-93350000D03*
X126450000Y-94300000D03*
X125350000Y-94300000D03*
X127600000Y-94300000D03*
X124200000Y-94300000D03*
X127000000Y-95250000D03*
X125900000Y-95250000D03*
X128150000Y-95250000D03*
X124750000Y-95250000D03*
X125350000Y-96150000D03*
X124200000Y-96150000D03*
X126450000Y-96150000D03*
X127600000Y-96150000D03*
X125350000Y-88600000D03*
X124200000Y-88600000D03*
X127600000Y-88600000D03*
X126450000Y-88600000D03*
X125900000Y-97050000D03*
X128150000Y-97050000D03*
X124750000Y-97050000D03*
X127000000Y-97050000D03*
X129350000Y-91450000D03*
X129350000Y-97050000D03*
X128800000Y-92400000D03*
X128800000Y-94300000D03*
X129400000Y-89550000D03*
X128800000Y-88600000D03*
X128800000Y-96150000D03*
X129350000Y-95250000D03*
X129350000Y-93350000D03*
X128750000Y-90500000D03*
X143100000Y-103050000D03*
X143100000Y-104050000D03*
X142050000Y-104550000D03*
X139150000Y-99750000D03*
X124300000Y-103600000D03*
X135000000Y-99650000D03*
X135000000Y-100650000D03*
X135900000Y-100100000D03*
X125550000Y-81250000D03*
X124400000Y-81250000D03*
X127800000Y-81250000D03*
X126650000Y-81250000D03*
X129000000Y-81250000D03*
X126500000Y-83300000D03*
X125400000Y-83300000D03*
X124250000Y-83300000D03*
X127650000Y-83300000D03*
X128850000Y-83300000D03*
X127200000Y-82200000D03*
X128400000Y-82200000D03*
X124950000Y-82200000D03*
X123800000Y-82200000D03*
X126050000Y-82200000D03*
X137400000Y-89650000D03*
X138550000Y-89650000D03*
X139650000Y-89650000D03*
X140800000Y-89650000D03*
X139000000Y-90600000D03*
X140150000Y-90600000D03*
X136750000Y-90600000D03*
X137900000Y-90600000D03*
X137350000Y-91550000D03*
X139600000Y-91550000D03*
X140750000Y-91550000D03*
X138500000Y-91550000D03*
X137950000Y-88700000D03*
X136800000Y-88700000D03*
X140200000Y-88700000D03*
X139050000Y-88700000D03*
X141400000Y-88700000D03*
X141350000Y-90600000D03*
X137800000Y-82050000D03*
X138950000Y-82050000D03*
X140050000Y-82050000D03*
X141200000Y-82050000D03*
X139400000Y-83000000D03*
X140550000Y-83000000D03*
X137150000Y-83000000D03*
X138300000Y-83000000D03*
X137750000Y-83950000D03*
X140000000Y-83950000D03*
X141150000Y-83950000D03*
X138900000Y-83950000D03*
X138350000Y-81100000D03*
X137200000Y-81100000D03*
X140600000Y-81100000D03*
X139450000Y-81100000D03*
X142350000Y-83950000D03*
X141800000Y-81100000D03*
X141750000Y-83000000D03*
G04 #@! TO.N,+5V*
X133850000Y-103450000D03*
G04 #@! TO.N,+BATT*
X132950000Y-112050000D03*
G04 #@! TO.N,+VDC*
X129500000Y-105700000D03*
X126500000Y-102600000D03*
X122995000Y-107400000D03*
G04 #@! TO.N,/SCL*
X132100000Y-61850000D03*
G04 #@! TO.N,/SDA*
X127350000Y-60800000D03*
G04 #@! TO.N,+3V3*
X127350000Y-61800000D03*
X126150000Y-76450000D03*
X122650000Y-76450000D03*
X130700000Y-65900000D03*
G04 #@! TO.N,/SW_SEL*
X123650000Y-65750000D03*
G04 #@! TO.N,/SW_CNL*
X122375000Y-64750000D03*
G04 #@! TO.N,/SW_RIGHT*
X125500000Y-75500000D03*
G04 #@! TO.N,Net-(R23-Pad2)*
X123200000Y-100800000D03*
X138600000Y-59850000D03*
X142975000Y-79100000D03*
X142975000Y-76300000D03*
G04 #@! TD*
D20*
G04 #@! TO.N,+5V*
X118790000Y-113100000D02*
X117300000Y-111610000D01*
X129200000Y-103450000D02*
X127624999Y-101874999D01*
X122725001Y-101874999D02*
X121690009Y-102909991D01*
X133850000Y-103450000D02*
X129200000Y-103450000D01*
X127624999Y-101874999D02*
X122725001Y-101874999D01*
X120700000Y-113100000D02*
X118790000Y-113100000D01*
X121690009Y-102909991D02*
X121690009Y-112109991D01*
X121690009Y-112109991D02*
X120700000Y-113100000D01*
G04 #@! TO.N,+BATT*
X142672806Y-111000000D02*
X141622806Y-112050000D01*
X143850000Y-111000000D02*
X142672806Y-111000000D01*
X144029210Y-110820790D02*
X143850000Y-111000000D01*
X141622806Y-112050000D02*
X132950000Y-112050000D01*
X136600000Y-55950000D02*
X136050000Y-56500000D01*
X136050000Y-56500000D02*
X136050000Y-58500000D01*
X136050000Y-58500000D02*
X135450000Y-59100000D01*
X131650000Y-59100000D02*
X131350000Y-59400000D01*
X131350000Y-59400000D02*
X130600000Y-59400000D01*
X135450000Y-59100000D02*
X131650000Y-59100000D01*
X130600000Y-58400000D02*
X130350000Y-58150000D01*
X130600000Y-59400000D02*
X130600000Y-58400000D01*
X124350000Y-57500000D02*
X123600000Y-57500000D01*
X125000000Y-58150000D02*
X124350000Y-57500000D01*
X130350000Y-58150000D02*
X125000000Y-58150000D01*
X131700000Y-78450000D02*
X132650000Y-77500000D01*
X131700000Y-78500000D02*
X131700000Y-78450000D01*
X143329210Y-77500000D02*
X144029210Y-78200000D01*
X132650000Y-77500000D02*
X143329210Y-77500000D01*
X144029210Y-78200000D02*
X144029210Y-110820790D01*
X144029210Y-78200000D02*
X144029210Y-63979210D01*
X144029210Y-63979210D02*
X142200000Y-62150000D01*
X142200000Y-62150000D02*
X140300000Y-62150000D01*
X140300000Y-62150000D02*
X139700000Y-61550000D01*
X138500000Y-58450000D02*
X138500000Y-57450000D01*
X139700000Y-59650000D02*
X138500000Y-58450000D01*
X139700000Y-61550000D02*
X139700000Y-59650000D01*
X138500000Y-56450000D02*
X138150000Y-56100000D01*
X138500000Y-57450000D02*
X138500000Y-56450000D01*
X138150000Y-56100000D02*
X138100000Y-56100000D01*
X137950000Y-55950000D02*
X136600000Y-55950000D01*
X138100000Y-56100000D02*
X137950000Y-55950000D01*
G04 #@! TO.N,+VDC*
X126500000Y-102600000D02*
X126500000Y-102600000D01*
X129500000Y-105700000D02*
X129500000Y-104800000D01*
X127300000Y-102600000D02*
X126500000Y-102600000D01*
X129500000Y-104800000D02*
X127300000Y-102600000D01*
X124000000Y-102600000D02*
X126500000Y-102600000D01*
X124000000Y-102600000D02*
X123300000Y-102600000D01*
X123300000Y-102600000D02*
X122300000Y-103600000D01*
X122300000Y-103600000D02*
X122300000Y-106850000D01*
X122300000Y-106850000D02*
X122850000Y-107400000D01*
X122850000Y-107400000D02*
X122995000Y-107400000D01*
G04 #@! TO.N,Net-(D1-Pad1)*
X129300000Y-60400000D02*
X129500000Y-60600000D01*
X129300000Y-59400000D02*
X129300000Y-60400000D01*
X132786410Y-60600000D02*
X133400000Y-61213590D01*
X129500000Y-60600000D02*
X132786410Y-60600000D01*
X133400000Y-61213590D02*
X133400000Y-66850000D01*
X134550000Y-68000000D02*
X134550000Y-70300000D01*
X133400000Y-66850000D02*
X134550000Y-68000000D01*
G04 #@! TO.N,Net-(D2-Pad1)*
X138650000Y-69700000D02*
X134250000Y-65300000D01*
X138650000Y-70350000D02*
X138650000Y-69700000D01*
X134250000Y-65300000D02*
X134250000Y-60900000D01*
X134250000Y-60900000D02*
X135600000Y-59550000D01*
X135600000Y-59550000D02*
X137000000Y-59550000D01*
X137200000Y-59350000D02*
X137200000Y-57450000D01*
X137000000Y-59550000D02*
X137200000Y-59350000D01*
G04 #@! TO.N,Net-(D3-Pad1)*
X130550000Y-67986410D02*
X132800000Y-65736410D01*
X130550000Y-70350000D02*
X130550000Y-67986410D01*
X132825001Y-62198001D02*
X132825001Y-61275001D01*
X132800000Y-65736410D02*
X132800000Y-62223002D01*
X132800000Y-62223002D02*
X132825001Y-62198001D01*
X132674999Y-61124999D02*
X128925001Y-61124999D01*
X132825001Y-61275001D02*
X132674999Y-61124999D01*
X128073002Y-60450000D02*
X127373002Y-59750000D01*
X128925001Y-61124999D02*
X128250002Y-60450000D01*
X128250002Y-60450000D02*
X128073002Y-60450000D01*
X127373002Y-59750000D02*
X122800000Y-59750000D01*
X122300000Y-59250000D02*
X122300000Y-57500000D01*
X122800000Y-59750000D02*
X122300000Y-59250000D01*
G04 #@! TO.N,/SCL*
X119840000Y-106530000D02*
X118664999Y-105354999D01*
X118664999Y-105354999D02*
X118664999Y-98345999D01*
X121800000Y-78400000D02*
X122650000Y-77550000D01*
X122650000Y-77550000D02*
X126250000Y-77550000D01*
X128050010Y-75749990D02*
X128050010Y-68049990D01*
X126250000Y-77550000D02*
X128050010Y-75749990D01*
X128050010Y-68049990D02*
X129400000Y-66700000D01*
X129400000Y-66700000D02*
X131200000Y-66700000D01*
X131200000Y-66700000D02*
X132100000Y-65800000D01*
X132100000Y-65800000D02*
X132100000Y-61850000D01*
X118475001Y-80755997D02*
X119280998Y-79950000D01*
X118664999Y-98345999D02*
X118475001Y-98156001D01*
X118475001Y-98156001D02*
X118475001Y-80755997D01*
X119280998Y-79950000D02*
X121250000Y-79950000D01*
X121800000Y-79400000D02*
X121800000Y-78400000D01*
X121250000Y-79950000D02*
X121800000Y-79400000D01*
G04 #@! TO.N,/SDA*
X118990001Y-108220001D02*
X119840000Y-109070000D01*
X118664999Y-107894999D02*
X118990001Y-108220001D01*
X116925997Y-107894999D02*
X118664999Y-107894999D01*
X116124999Y-107094001D02*
X116925997Y-107894999D01*
X116124999Y-62239999D02*
X116124999Y-107094001D01*
X117964997Y-60400001D02*
X116124999Y-62239999D01*
X126950001Y-60400001D02*
X117964997Y-60400001D01*
X127350000Y-60800000D02*
X126950001Y-60400001D01*
G04 #@! TO.N,+3V3*
X127600000Y-75000000D02*
X127600000Y-67100000D01*
X122650000Y-76450000D02*
X126150000Y-76450000D01*
X126150000Y-76450000D02*
X127600000Y-75000000D01*
X126150000Y-76450000D02*
X126150000Y-76450000D01*
X122650000Y-76450000D02*
X122650000Y-76450000D01*
X127350000Y-66850000D02*
X127350000Y-61800000D01*
X127600000Y-67100000D02*
X127350000Y-66850000D01*
X130700000Y-65750000D02*
X130700000Y-65750000D01*
X127350000Y-61800000D02*
X128450000Y-62900000D01*
X128450000Y-62900000D02*
X130500000Y-62900000D01*
X130700000Y-63100000D02*
X130700000Y-65900000D01*
X130500000Y-62900000D02*
X130700000Y-63100000D01*
G04 #@! TO.N,/SW_SEL*
X123650000Y-65750000D02*
X123100000Y-65200000D01*
X123100000Y-65200000D02*
X123100000Y-61900000D01*
X123100000Y-61900000D02*
X122350000Y-61150000D01*
X122350000Y-61150000D02*
X118000000Y-61150000D01*
X117300000Y-61850000D02*
X117300000Y-63350000D01*
X118000000Y-61150000D02*
X117300000Y-61850000D01*
G04 #@! TO.N,/SW_CNL*
X118149999Y-65040001D02*
X117300000Y-65890000D01*
X118475001Y-64714999D02*
X118149999Y-65040001D01*
X121774314Y-64714999D02*
X118475001Y-64714999D01*
X121809315Y-64750000D02*
X121774314Y-64714999D01*
X122375000Y-64750000D02*
X121809315Y-64750000D01*
G04 #@! TO.N,/TVBG_PIN*
X133550000Y-84600000D02*
X133550000Y-81685000D01*
X121042081Y-86210000D02*
X121552081Y-85700000D01*
X119840000Y-86210000D02*
X121042081Y-86210000D01*
X121552081Y-85700000D02*
X127100000Y-85700000D01*
X127100000Y-85700000D02*
X127815000Y-84985000D01*
X127815000Y-84985000D02*
X133165000Y-84985000D01*
X133165000Y-84985000D02*
X133550000Y-84600000D01*
G04 #@! TO.N,/SW_RIGHT*
X125300000Y-75500000D02*
X123500000Y-75500000D01*
X121510000Y-73510000D02*
X119840000Y-73510000D01*
X123500000Y-75500000D02*
X121510000Y-73510000D01*
G04 #@! TO.N,Net-(Q1-Pad1)*
X132550000Y-76300000D02*
X133650000Y-75200000D01*
X132600000Y-69400000D02*
X132550000Y-69400000D01*
X133650000Y-70450000D02*
X132600000Y-69400000D01*
X133650000Y-75200000D02*
X133650000Y-70450000D01*
X136500000Y-69400000D02*
X136550000Y-69350000D01*
X140600000Y-69350000D02*
X140650000Y-69400000D01*
X133650000Y-75200000D02*
X133700000Y-75200000D01*
X133700000Y-75200000D02*
X134800000Y-74100000D01*
X134800000Y-74100000D02*
X137250000Y-74100000D01*
X137250000Y-74100000D02*
X137650000Y-73700000D01*
X136600000Y-69350000D02*
X136550000Y-69350000D01*
X137650000Y-70400000D02*
X136600000Y-69350000D01*
X137650000Y-73700000D02*
X137650000Y-70400000D01*
X141350000Y-69400000D02*
X141800000Y-69850000D01*
X140650000Y-69400000D02*
X141350000Y-69400000D01*
X137250000Y-74100000D02*
X141500000Y-74100000D01*
X141800000Y-73800000D02*
X141800000Y-69850000D01*
X141500000Y-74100000D02*
X141800000Y-73800000D01*
G04 #@! TO.N,Net-(Q1-Pad2)*
X136550000Y-72965000D02*
X136585000Y-73000000D01*
X136550000Y-71250000D02*
X136550000Y-72965000D01*
G04 #@! TO.N,Net-(Q2-Pad1)*
X133550000Y-78550000D02*
X133600000Y-78500000D01*
X133550000Y-80715000D02*
X133550000Y-78550000D01*
G04 #@! TO.N,Net-(Q3-Pad2)*
X140650000Y-73035000D02*
X140635000Y-73050000D01*
X140650000Y-71300000D02*
X140650000Y-73035000D01*
G04 #@! TO.N,Net-(Q4-Pad2)*
X132550000Y-72985000D02*
X132535000Y-73000000D01*
X132550000Y-71300000D02*
X132550000Y-72985000D01*
G04 #@! TO.N,Net-(R23-Pad2)*
X127700000Y-100800000D02*
X129700000Y-102800000D01*
X123200000Y-100800000D02*
X127700000Y-100800000D01*
X129700000Y-102800000D02*
X133250000Y-102800000D01*
X133250000Y-102800000D02*
X133600000Y-102450000D01*
X133600000Y-102450000D02*
X142250000Y-102450000D01*
X142250000Y-102450000D02*
X143100000Y-101600000D01*
X143100000Y-101600000D02*
X143100000Y-79225000D01*
X143100000Y-79225000D02*
X142975000Y-79100000D01*
X143374999Y-75900001D02*
X143374999Y-64524999D01*
X142975000Y-76300000D02*
X143374999Y-75900001D01*
X143374999Y-64524999D02*
X141800000Y-62950000D01*
X141800000Y-62950000D02*
X139500000Y-62950000D01*
X138600000Y-62050000D02*
X138600000Y-59850000D01*
X139500000Y-62950000D02*
X138600000Y-62050000D01*
G04 #@! TD*
D17*
G04 #@! TO.N,GND*
G36*
X132876950Y-55433918D02*
X132792000Y-55639007D01*
X132792000Y-56256500D01*
X132931500Y-56396000D01*
X133996000Y-56396000D01*
X133996000Y-56376000D01*
X134404000Y-56376000D01*
X134404000Y-56396000D01*
X135468500Y-56396000D01*
X135608000Y-56256500D01*
X135608000Y-55639007D01*
X135523050Y-55433918D01*
X135414131Y-55325000D01*
X142976844Y-55325000D01*
X143469187Y-55395509D01*
X143900656Y-55591686D01*
X144259720Y-55901076D01*
X144517516Y-56298807D01*
X144656543Y-56763678D01*
X144675000Y-57012055D01*
X144675001Y-117976837D01*
X144604491Y-118469187D01*
X144408314Y-118900656D01*
X144098924Y-119259720D01*
X143701193Y-119517516D01*
X143236321Y-119656543D01*
X142987945Y-119675000D01*
X117023156Y-119675000D01*
X116530813Y-119604491D01*
X116099344Y-119408314D01*
X115740280Y-119098924D01*
X115482484Y-118701193D01*
X115343457Y-118236321D01*
X115325000Y-117987945D01*
X115325000Y-116705391D01*
X116139911Y-116705391D01*
X116144768Y-117323790D01*
X116349674Y-117907275D01*
X116732532Y-118392929D01*
X117252061Y-118728384D01*
X117852240Y-118877469D01*
X118468351Y-118824108D01*
X119033961Y-118574055D01*
X119488079Y-118154273D01*
X119781739Y-117610026D01*
X119845824Y-117225000D01*
X137380899Y-117225000D01*
X137456570Y-117605426D01*
X137672064Y-117927936D01*
X137994574Y-118143430D01*
X138278972Y-118200000D01*
X139021028Y-118200000D01*
X139305426Y-118143430D01*
X139627936Y-117927936D01*
X139843430Y-117605426D01*
X139889264Y-117375000D01*
X141283838Y-117375000D01*
X141347868Y-117696899D01*
X141530209Y-117969791D01*
X141803101Y-118152132D01*
X142043749Y-118200000D01*
X142856251Y-118200000D01*
X143096899Y-118152132D01*
X143369791Y-117969791D01*
X143552132Y-117696899D01*
X143616162Y-117375000D01*
X143552132Y-117053101D01*
X143369791Y-116780209D01*
X143096899Y-116597868D01*
X142856251Y-116550000D01*
X142043749Y-116550000D01*
X141803101Y-116597868D01*
X141530209Y-116780209D01*
X141347868Y-117053101D01*
X141283838Y-117375000D01*
X139889264Y-117375000D01*
X139919101Y-117225000D01*
X139843430Y-116844574D01*
X139713420Y-116650000D01*
X139764018Y-116650000D01*
X139953617Y-116612286D01*
X140168624Y-116468624D01*
X140312286Y-116253617D01*
X140362734Y-116000000D01*
X140312286Y-115746383D01*
X140168624Y-115531376D01*
X139953617Y-115387714D01*
X139764018Y-115350000D01*
X139635982Y-115350000D01*
X139446383Y-115387714D01*
X139231376Y-115531376D01*
X139087714Y-115746383D01*
X139037266Y-116000000D01*
X139087714Y-116253617D01*
X139095148Y-116264743D01*
X139021028Y-116250000D01*
X138278972Y-116250000D01*
X137994574Y-116306570D01*
X137672064Y-116522064D01*
X137456570Y-116844574D01*
X137380899Y-117225000D01*
X119845824Y-117225000D01*
X119883275Y-117000000D01*
X119883043Y-116970419D01*
X119771937Y-116362063D01*
X119469765Y-115822496D01*
X119009109Y-115409898D01*
X118439642Y-115168760D01*
X117822768Y-115125083D01*
X117225005Y-115283577D01*
X116710810Y-115627152D01*
X116335626Y-116118759D01*
X116139911Y-116705391D01*
X115325000Y-116705391D01*
X115325000Y-111610000D01*
X116178450Y-111610000D01*
X116263823Y-112039199D01*
X116506944Y-112403056D01*
X116870801Y-112646177D01*
X117191661Y-112710000D01*
X117408339Y-112710000D01*
X117729199Y-112646177D01*
X117775146Y-112615476D01*
X118498724Y-113339055D01*
X118519641Y-113370359D01*
X118550945Y-113391276D01*
X118550948Y-113391279D01*
X118643681Y-113453241D01*
X118643682Y-113453241D01*
X118643683Y-113453242D01*
X118753069Y-113475000D01*
X118753073Y-113475000D01*
X118789999Y-113482345D01*
X118826925Y-113475000D01*
X120663074Y-113475000D01*
X120700000Y-113482345D01*
X120736926Y-113475000D01*
X120736931Y-113475000D01*
X120846317Y-113453242D01*
X120970359Y-113370359D01*
X120991280Y-113339050D01*
X121929061Y-112401269D01*
X121960368Y-112380350D01*
X122000454Y-112320359D01*
X122043250Y-112256310D01*
X122043250Y-112256309D01*
X122043251Y-112256308D01*
X122065009Y-112146922D01*
X122065009Y-112146918D01*
X122072354Y-112109992D01*
X122065009Y-112073066D01*
X122065009Y-109775000D01*
X137380899Y-109775000D01*
X137456570Y-110155426D01*
X137672064Y-110477936D01*
X137994574Y-110693430D01*
X138278972Y-110750000D01*
X139021028Y-110750000D01*
X139095148Y-110735257D01*
X139087714Y-110746383D01*
X139037266Y-111000000D01*
X139087714Y-111253617D01*
X139231376Y-111468624D01*
X139446383Y-111612286D01*
X139635982Y-111650000D01*
X139764018Y-111650000D01*
X139953617Y-111612286D01*
X140168624Y-111468624D01*
X140312286Y-111253617D01*
X140362734Y-111000000D01*
X140312286Y-110746383D01*
X140168624Y-110531376D01*
X139953617Y-110387714D01*
X139764018Y-110350000D01*
X139713420Y-110350000D01*
X139843430Y-110155426D01*
X139919101Y-109775000D01*
X139889265Y-109625000D01*
X141283838Y-109625000D01*
X141347868Y-109946899D01*
X141530209Y-110219791D01*
X141803101Y-110402132D01*
X142043749Y-110450000D01*
X142856251Y-110450000D01*
X143096899Y-110402132D01*
X143369791Y-110219791D01*
X143552132Y-109946899D01*
X143616162Y-109625000D01*
X143552132Y-109303101D01*
X143369791Y-109030209D01*
X143096899Y-108847868D01*
X142856251Y-108800000D01*
X142043749Y-108800000D01*
X141803101Y-108847868D01*
X141530209Y-109030209D01*
X141347868Y-109303101D01*
X141283838Y-109625000D01*
X139889265Y-109625000D01*
X139843430Y-109394574D01*
X139627936Y-109072064D01*
X139305426Y-108856570D01*
X139021028Y-108800000D01*
X138278972Y-108800000D01*
X137994574Y-108856570D01*
X137672064Y-109072064D01*
X137456570Y-109394574D01*
X137380899Y-109775000D01*
X122065009Y-109775000D01*
X122065009Y-107145338D01*
X122345000Y-107425330D01*
X122345000Y-107529293D01*
X122443957Y-107768195D01*
X122626805Y-107951043D01*
X122865707Y-108050000D01*
X123124293Y-108050000D01*
X123363195Y-107951043D01*
X123546043Y-107768195D01*
X123645000Y-107529293D01*
X123645000Y-107270707D01*
X123546043Y-107031805D01*
X123363195Y-106848957D01*
X123124293Y-106750000D01*
X122865707Y-106750000D01*
X122769981Y-106789651D01*
X122675000Y-106694671D01*
X122675000Y-103755329D01*
X123455330Y-102975000D01*
X125955762Y-102975000D01*
X126131805Y-103151043D01*
X126370707Y-103250000D01*
X126629293Y-103250000D01*
X126868195Y-103151043D01*
X127044238Y-102975000D01*
X127144671Y-102975000D01*
X129125001Y-104955331D01*
X129125001Y-105155761D01*
X128948957Y-105331805D01*
X128850000Y-105570707D01*
X128850000Y-105829293D01*
X128948957Y-106068195D01*
X129131805Y-106251043D01*
X129370707Y-106350000D01*
X129629293Y-106350000D01*
X129868195Y-106251043D01*
X130051043Y-106068195D01*
X130150000Y-105829293D01*
X130150000Y-105570707D01*
X130051043Y-105331805D01*
X129875000Y-105155762D01*
X129875000Y-104836926D01*
X129882345Y-104800000D01*
X129875000Y-104763074D01*
X129875000Y-104763069D01*
X129853242Y-104653683D01*
X129770359Y-104529641D01*
X129739052Y-104508722D01*
X128993073Y-103762744D01*
X129015064Y-103777437D01*
X129053683Y-103803242D01*
X129163069Y-103825000D01*
X129163074Y-103825000D01*
X129200000Y-103832345D01*
X129236926Y-103825000D01*
X133305762Y-103825000D01*
X133481805Y-104001043D01*
X133720707Y-104100000D01*
X133979293Y-104100000D01*
X134218195Y-104001043D01*
X134401043Y-103818195D01*
X134500000Y-103579293D01*
X134500000Y-103320707D01*
X134401043Y-103081805D01*
X134218195Y-102898957D01*
X134039648Y-102825000D01*
X142213074Y-102825000D01*
X142250000Y-102832345D01*
X142286926Y-102825000D01*
X142286931Y-102825000D01*
X142396317Y-102803242D01*
X142520359Y-102720359D01*
X142541279Y-102689050D01*
X143339053Y-101891277D01*
X143370359Y-101870359D01*
X143453242Y-101746317D01*
X143475000Y-101636931D01*
X143475000Y-101636926D01*
X143482345Y-101600000D01*
X143475000Y-101563074D01*
X143475000Y-79519238D01*
X143526043Y-79468195D01*
X143625000Y-79229293D01*
X143625000Y-78970707D01*
X143526043Y-78731805D01*
X143343195Y-78548957D01*
X143104293Y-78450000D01*
X142845707Y-78450000D01*
X142606805Y-78548957D01*
X142423957Y-78731805D01*
X142325000Y-78970707D01*
X142325000Y-79229293D01*
X142423957Y-79468195D01*
X142606805Y-79651043D01*
X142725001Y-79700002D01*
X142725000Y-101444670D01*
X142094671Y-102075000D01*
X133636926Y-102075000D01*
X133600000Y-102067655D01*
X133563074Y-102075000D01*
X133563069Y-102075000D01*
X133453683Y-102096758D01*
X133427804Y-102114050D01*
X133360949Y-102158721D01*
X133360948Y-102158722D01*
X133329641Y-102179641D01*
X133308722Y-102210948D01*
X133094671Y-102425000D01*
X129855330Y-102425000D01*
X127991280Y-100560951D01*
X127970359Y-100529641D01*
X127846317Y-100446758D01*
X127736931Y-100425000D01*
X127736926Y-100425000D01*
X127700000Y-100417655D01*
X127663074Y-100425000D01*
X123744238Y-100425000D01*
X123568195Y-100248957D01*
X123329293Y-100150000D01*
X123070707Y-100150000D01*
X122831805Y-100248957D01*
X122648957Y-100431805D01*
X122550000Y-100670707D01*
X122550000Y-100929293D01*
X122648957Y-101168195D01*
X122831805Y-101351043D01*
X123070707Y-101450000D01*
X123329293Y-101450000D01*
X123568195Y-101351043D01*
X123744238Y-101175000D01*
X127544671Y-101175000D01*
X129408722Y-103039052D01*
X129429641Y-103070359D01*
X129436587Y-103075000D01*
X129355330Y-103075000D01*
X127916279Y-101635950D01*
X127895358Y-101604640D01*
X127771316Y-101521757D01*
X127661930Y-101499999D01*
X127661925Y-101499999D01*
X127624999Y-101492654D01*
X127588073Y-101499999D01*
X122761927Y-101499999D01*
X122725001Y-101492654D01*
X122688075Y-101499999D01*
X122688070Y-101499999D01*
X122578684Y-101521757D01*
X122578682Y-101521758D01*
X122578683Y-101521758D01*
X122485950Y-101583720D01*
X122485949Y-101583721D01*
X122454642Y-101604640D01*
X122433723Y-101635947D01*
X121450959Y-102618711D01*
X121419650Y-102639632D01*
X121398730Y-102670941D01*
X121348365Y-102746318D01*
X121336767Y-102763675D01*
X121315009Y-102873061D01*
X121315009Y-102873065D01*
X121307664Y-102909991D01*
X121315009Y-102946917D01*
X121315010Y-111954660D01*
X120544671Y-112725000D01*
X118945331Y-112725000D01*
X118305476Y-112085146D01*
X118336177Y-112039199D01*
X118421550Y-111610000D01*
X118718450Y-111610000D01*
X118803823Y-112039199D01*
X119046944Y-112403056D01*
X119410801Y-112646177D01*
X119731661Y-112710000D01*
X119948339Y-112710000D01*
X120269199Y-112646177D01*
X120633056Y-112403056D01*
X120876177Y-112039199D01*
X120961550Y-111610000D01*
X120876177Y-111180801D01*
X120633056Y-110816944D01*
X120269199Y-110573823D01*
X119948339Y-110510000D01*
X119731661Y-110510000D01*
X119410801Y-110573823D01*
X119046944Y-110816944D01*
X118803823Y-111180801D01*
X118718450Y-111610000D01*
X118421550Y-111610000D01*
X118336177Y-111180801D01*
X118093056Y-110816944D01*
X117729199Y-110573823D01*
X117408339Y-110510000D01*
X117191661Y-110510000D01*
X116870801Y-110573823D01*
X116506944Y-110816944D01*
X116263823Y-111180801D01*
X116178450Y-111610000D01*
X115325000Y-111610000D01*
X115325000Y-62239999D01*
X115742654Y-62239999D01*
X115749999Y-62276925D01*
X115750000Y-107057070D01*
X115742654Y-107094001D01*
X115771758Y-107240319D01*
X115833720Y-107333051D01*
X115833722Y-107333053D01*
X115854641Y-107364360D01*
X115885947Y-107385278D01*
X116634721Y-108134054D01*
X116655638Y-108165358D01*
X116664791Y-108171474D01*
X116506944Y-108276944D01*
X116263823Y-108640801D01*
X116178450Y-109070000D01*
X116263823Y-109499199D01*
X116506944Y-109863056D01*
X116870801Y-110106177D01*
X117191661Y-110170000D01*
X117408339Y-110170000D01*
X117729199Y-110106177D01*
X118093056Y-109863056D01*
X118336177Y-109499199D01*
X118421550Y-109070000D01*
X118336177Y-108640801D01*
X118093056Y-108276944D01*
X118082662Y-108269999D01*
X118509669Y-108269999D01*
X118750949Y-108511280D01*
X118750955Y-108511284D01*
X118834524Y-108594853D01*
X118803823Y-108640801D01*
X118718450Y-109070000D01*
X118803823Y-109499199D01*
X119046944Y-109863056D01*
X119410801Y-110106177D01*
X119731661Y-110170000D01*
X119948339Y-110170000D01*
X120269199Y-110106177D01*
X120633056Y-109863056D01*
X120876177Y-109499199D01*
X120961550Y-109070000D01*
X120876177Y-108640801D01*
X120633056Y-108276944D01*
X120269199Y-108033823D01*
X119948339Y-107970000D01*
X119731661Y-107970000D01*
X119410801Y-108033823D01*
X119364853Y-108064524D01*
X119281284Y-107980955D01*
X119281280Y-107980949D01*
X118956278Y-107655949D01*
X118935358Y-107624640D01*
X118811316Y-107541757D01*
X118701930Y-107519999D01*
X118701925Y-107519999D01*
X118664999Y-107512654D01*
X118628073Y-107519999D01*
X118275564Y-107519999D01*
X118546998Y-107183839D01*
X118644078Y-106949424D01*
X118551989Y-106734000D01*
X117504000Y-106734000D01*
X117504000Y-106754000D01*
X117096000Y-106754000D01*
X117096000Y-106734000D01*
X117076000Y-106734000D01*
X117076000Y-106326000D01*
X117096000Y-106326000D01*
X117096000Y-105276340D01*
X117504000Y-105276340D01*
X117504000Y-106326000D01*
X118551989Y-106326000D01*
X118644078Y-106110576D01*
X118546998Y-105876161D01*
X118201863Y-105448726D01*
X117719427Y-105185905D01*
X117504000Y-105276340D01*
X117096000Y-105276340D01*
X116880573Y-105185905D01*
X116499999Y-105393234D01*
X116499999Y-104772662D01*
X116506944Y-104783056D01*
X116870801Y-105026177D01*
X117191661Y-105090000D01*
X117408339Y-105090000D01*
X117729199Y-105026177D01*
X118093056Y-104783056D01*
X118289999Y-104488309D01*
X118289999Y-105318073D01*
X118282654Y-105354999D01*
X118289999Y-105391925D01*
X118289999Y-105391929D01*
X118311757Y-105501315D01*
X118394640Y-105625358D01*
X118425949Y-105646279D01*
X118834524Y-106054853D01*
X118803823Y-106100801D01*
X118718450Y-106530000D01*
X118803823Y-106959199D01*
X119046944Y-107323056D01*
X119410801Y-107566177D01*
X119731661Y-107630000D01*
X119948339Y-107630000D01*
X120269199Y-107566177D01*
X120633056Y-107323056D01*
X120876177Y-106959199D01*
X120961550Y-106530000D01*
X120876177Y-106100801D01*
X120633056Y-105736944D01*
X120269199Y-105493823D01*
X119948339Y-105430000D01*
X119731661Y-105430000D01*
X119410801Y-105493823D01*
X119364853Y-105524524D01*
X119039999Y-105199670D01*
X119039999Y-104772662D01*
X119046944Y-104783056D01*
X119410801Y-105026177D01*
X119731661Y-105090000D01*
X119948339Y-105090000D01*
X120269199Y-105026177D01*
X120633056Y-104783056D01*
X120876177Y-104419199D01*
X120961550Y-103990000D01*
X120876177Y-103560801D01*
X120633056Y-103196944D01*
X120269199Y-102953823D01*
X119948339Y-102890000D01*
X119731661Y-102890000D01*
X119410801Y-102953823D01*
X119046944Y-103196944D01*
X119039999Y-103207338D01*
X119039999Y-102232662D01*
X119046944Y-102243056D01*
X119410801Y-102486177D01*
X119731661Y-102550000D01*
X119948339Y-102550000D01*
X120269199Y-102486177D01*
X120633056Y-102243056D01*
X120876177Y-101879199D01*
X120961550Y-101450000D01*
X120876177Y-101020801D01*
X120633056Y-100656944D01*
X120269199Y-100413823D01*
X119948339Y-100350000D01*
X119731661Y-100350000D01*
X119410801Y-100413823D01*
X119046944Y-100656944D01*
X119039999Y-100667338D01*
X119039999Y-99692662D01*
X119046944Y-99703056D01*
X119410801Y-99946177D01*
X119731661Y-100010000D01*
X119948339Y-100010000D01*
X120269199Y-99946177D01*
X120633056Y-99703056D01*
X120876177Y-99339199D01*
X120961550Y-98910000D01*
X120876177Y-98480801D01*
X120633056Y-98116944D01*
X120269199Y-97873823D01*
X119948339Y-97810000D01*
X119731661Y-97810000D01*
X119410801Y-97873823D01*
X119046944Y-98116944D01*
X119004951Y-98179792D01*
X118935358Y-98075640D01*
X118904048Y-98054719D01*
X118850001Y-98000672D01*
X118850001Y-96868309D01*
X119046944Y-97163056D01*
X119410801Y-97406177D01*
X119731661Y-97470000D01*
X119948339Y-97470000D01*
X120269199Y-97406177D01*
X120633056Y-97163056D01*
X120876177Y-96799199D01*
X120961550Y-96370000D01*
X120876177Y-95940801D01*
X120633056Y-95576944D01*
X120269199Y-95333823D01*
X119948339Y-95270000D01*
X119731661Y-95270000D01*
X119410801Y-95333823D01*
X119046944Y-95576944D01*
X118850001Y-95871691D01*
X118850001Y-94328309D01*
X119046944Y-94623056D01*
X119410801Y-94866177D01*
X119731661Y-94930000D01*
X119948339Y-94930000D01*
X120269199Y-94866177D01*
X120633056Y-94623056D01*
X120876177Y-94259199D01*
X120961550Y-93830000D01*
X120876177Y-93400801D01*
X120633056Y-93036944D01*
X120269199Y-92793823D01*
X119948339Y-92730000D01*
X119731661Y-92730000D01*
X119410801Y-92793823D01*
X119046944Y-93036944D01*
X118850001Y-93331691D01*
X118850001Y-91788309D01*
X119046944Y-92083056D01*
X119410801Y-92326177D01*
X119731661Y-92390000D01*
X119948339Y-92390000D01*
X120269199Y-92326177D01*
X120633056Y-92083056D01*
X120876177Y-91719199D01*
X120961550Y-91290000D01*
X120876177Y-90860801D01*
X120633056Y-90496944D01*
X120269199Y-90253823D01*
X119948339Y-90190000D01*
X119731661Y-90190000D01*
X119410801Y-90253823D01*
X119046944Y-90496944D01*
X118850001Y-90791691D01*
X118850001Y-89248309D01*
X119046944Y-89543056D01*
X119410801Y-89786177D01*
X119731661Y-89850000D01*
X119948339Y-89850000D01*
X120269199Y-89786177D01*
X120633056Y-89543056D01*
X120876177Y-89179199D01*
X120961550Y-88750000D01*
X120876177Y-88320801D01*
X120633056Y-87956944D01*
X120269199Y-87713823D01*
X119948339Y-87650000D01*
X119731661Y-87650000D01*
X119410801Y-87713823D01*
X119046944Y-87956944D01*
X118850001Y-88251691D01*
X118850001Y-86708309D01*
X119046944Y-87003056D01*
X119410801Y-87246177D01*
X119731661Y-87310000D01*
X119948339Y-87310000D01*
X120269199Y-87246177D01*
X120633056Y-87003056D01*
X120876177Y-86639199D01*
X120886958Y-86585000D01*
X121005155Y-86585000D01*
X121042081Y-86592345D01*
X121079007Y-86585000D01*
X121079012Y-86585000D01*
X121188398Y-86563242D01*
X121312440Y-86480359D01*
X121333360Y-86449050D01*
X121707411Y-86075000D01*
X127063074Y-86075000D01*
X127100000Y-86082345D01*
X127136926Y-86075000D01*
X127136931Y-86075000D01*
X127246317Y-86053242D01*
X127370359Y-85970359D01*
X127391279Y-85939050D01*
X127970330Y-85360000D01*
X133128074Y-85360000D01*
X133165000Y-85367345D01*
X133201926Y-85360000D01*
X133201931Y-85360000D01*
X133311317Y-85338242D01*
X133435359Y-85255359D01*
X133456279Y-85224050D01*
X133789055Y-84891276D01*
X133820359Y-84870359D01*
X133841276Y-84839055D01*
X133841279Y-84839052D01*
X133903241Y-84746319D01*
X133903241Y-84746318D01*
X133903242Y-84746317D01*
X133925000Y-84636931D01*
X133925000Y-84636927D01*
X133932345Y-84600001D01*
X133925000Y-84563075D01*
X133925000Y-82171854D01*
X134007038Y-82117038D01*
X134094266Y-81986491D01*
X134124897Y-81832500D01*
X134124897Y-81537500D01*
X134094266Y-81383509D01*
X134007038Y-81252962D01*
X133927774Y-81200000D01*
X134007038Y-81147038D01*
X134094266Y-81016491D01*
X134124897Y-80862500D01*
X134124897Y-80567500D01*
X134094266Y-80413509D01*
X134007038Y-80282962D01*
X133925000Y-80228146D01*
X133925000Y-79204897D01*
X134000000Y-79204897D01*
X134097545Y-79185494D01*
X134180239Y-79130239D01*
X134235494Y-79047545D01*
X134254897Y-78950000D01*
X134254897Y-78050000D01*
X134235494Y-77952455D01*
X134183740Y-77875000D01*
X143173881Y-77875000D01*
X143654210Y-78355330D01*
X143654211Y-110625000D01*
X142709731Y-110625000D01*
X142672805Y-110617655D01*
X142635879Y-110625000D01*
X142635875Y-110625000D01*
X142526489Y-110646758D01*
X142526488Y-110646759D01*
X142526487Y-110646759D01*
X142433754Y-110708721D01*
X142433751Y-110708724D01*
X142402447Y-110729641D01*
X142381530Y-110760945D01*
X141467477Y-111675000D01*
X133494238Y-111675000D01*
X133318195Y-111498957D01*
X133079293Y-111400000D01*
X132820707Y-111400000D01*
X132581805Y-111498957D01*
X132398957Y-111681805D01*
X132300000Y-111920707D01*
X132300000Y-112179293D01*
X132398957Y-112418195D01*
X132581805Y-112601043D01*
X132820707Y-112700000D01*
X133079293Y-112700000D01*
X133318195Y-112601043D01*
X133494238Y-112425000D01*
X141585880Y-112425000D01*
X141622806Y-112432345D01*
X141659732Y-112425000D01*
X141659737Y-112425000D01*
X141769123Y-112403242D01*
X141893165Y-112320359D01*
X141914085Y-112289050D01*
X142828137Y-111375000D01*
X143813074Y-111375000D01*
X143850000Y-111382345D01*
X143886926Y-111375000D01*
X143886931Y-111375000D01*
X143996317Y-111353242D01*
X144120359Y-111270359D01*
X144141279Y-111239050D01*
X144268262Y-111112068D01*
X144299569Y-111091149D01*
X144360474Y-111000000D01*
X144382451Y-110967109D01*
X144382451Y-110967108D01*
X144382452Y-110967107D01*
X144404210Y-110857721D01*
X144404210Y-110857717D01*
X144411555Y-110820791D01*
X144404210Y-110783865D01*
X144404210Y-78236925D01*
X144411555Y-78199999D01*
X144404210Y-78163073D01*
X144404210Y-64016136D01*
X144411555Y-63979210D01*
X144404210Y-63942284D01*
X144404210Y-63942279D01*
X144382452Y-63832893D01*
X144299569Y-63708851D01*
X144268262Y-63687932D01*
X142491280Y-61910951D01*
X142470359Y-61879641D01*
X142346317Y-61796758D01*
X142236931Y-61775000D01*
X142236926Y-61775000D01*
X142200000Y-61767655D01*
X142163074Y-61775000D01*
X140455330Y-61775000D01*
X140075000Y-61394671D01*
X140075000Y-59686925D01*
X140082345Y-59649999D01*
X140075000Y-59613073D01*
X140075000Y-59613069D01*
X140053242Y-59503683D01*
X140048321Y-59496318D01*
X139991279Y-59410948D01*
X139991276Y-59410945D01*
X139970359Y-59379641D01*
X139939055Y-59358724D01*
X139029382Y-58449053D01*
X139097545Y-58435494D01*
X139180239Y-58380239D01*
X139235494Y-58297545D01*
X139254897Y-58200000D01*
X139254897Y-58000000D01*
X140048861Y-58000000D01*
X140144357Y-58602935D01*
X140421495Y-59146851D01*
X140853149Y-59578505D01*
X141397065Y-59855643D01*
X142000000Y-59951139D01*
X142602935Y-59855643D01*
X143146851Y-59578505D01*
X143578505Y-59146851D01*
X143855643Y-58602935D01*
X143951139Y-58000000D01*
X143855643Y-57397065D01*
X143578505Y-56853149D01*
X143146851Y-56421495D01*
X142602935Y-56144357D01*
X142000000Y-56048861D01*
X141397065Y-56144357D01*
X140853149Y-56421495D01*
X140421495Y-56853149D01*
X140144357Y-57397065D01*
X140048861Y-58000000D01*
X139254897Y-58000000D01*
X139254897Y-56700000D01*
X139235494Y-56602455D01*
X139180239Y-56519761D01*
X139097545Y-56464506D01*
X139000000Y-56445103D01*
X138881371Y-56445103D01*
X138875000Y-56413074D01*
X138875000Y-56413069D01*
X138853242Y-56303683D01*
X138820189Y-56254216D01*
X138791279Y-56210949D01*
X138791278Y-56210948D01*
X138770359Y-56179641D01*
X138739052Y-56158722D01*
X138441279Y-55860950D01*
X138420359Y-55829641D01*
X138296317Y-55746758D01*
X138272312Y-55741983D01*
X138241280Y-55710951D01*
X138220359Y-55679641D01*
X138096317Y-55596758D01*
X137986931Y-55575000D01*
X137986926Y-55575000D01*
X137950000Y-55567655D01*
X137913074Y-55575000D01*
X136636925Y-55575000D01*
X136599999Y-55567655D01*
X136563073Y-55575000D01*
X136563069Y-55575000D01*
X136453683Y-55596758D01*
X136453682Y-55596759D01*
X136453681Y-55596759D01*
X136360948Y-55658722D01*
X136329641Y-55679641D01*
X136308722Y-55710948D01*
X135810950Y-56208721D01*
X135779641Y-56229641D01*
X135758721Y-56260950D01*
X135729856Y-56304150D01*
X135696758Y-56353684D01*
X135675000Y-56463070D01*
X135675000Y-56463074D01*
X135667655Y-56500000D01*
X135675000Y-56536927D01*
X135675001Y-58344669D01*
X135294671Y-58725000D01*
X131686926Y-58725000D01*
X131649999Y-58717655D01*
X131613073Y-58725000D01*
X131613069Y-58725000D01*
X131503683Y-58746758D01*
X131503682Y-58746759D01*
X131503681Y-58746759D01*
X131410949Y-58808721D01*
X131410948Y-58808722D01*
X131379641Y-58829641D01*
X131358722Y-58860948D01*
X131354897Y-58864773D01*
X131354897Y-58650000D01*
X131335494Y-58552455D01*
X131280239Y-58469761D01*
X131197545Y-58414506D01*
X131100000Y-58395103D01*
X130981371Y-58395103D01*
X130975000Y-58363073D01*
X130975000Y-58363069D01*
X130953242Y-58253683D01*
X130937178Y-58229641D01*
X130891278Y-58160948D01*
X130870359Y-58129641D01*
X130839052Y-58108722D01*
X130641279Y-57910950D01*
X130620359Y-57879641D01*
X130496317Y-57796758D01*
X130386931Y-57775000D01*
X130386926Y-57775000D01*
X130350000Y-57767655D01*
X130313074Y-57775000D01*
X125155330Y-57775000D01*
X124641279Y-57260950D01*
X124620359Y-57229641D01*
X124496317Y-57146758D01*
X124386931Y-57125000D01*
X124386926Y-57125000D01*
X124354897Y-57118629D01*
X124354897Y-56750000D01*
X124335494Y-56652455D01*
X124300445Y-56600000D01*
X125458450Y-56600000D01*
X125543823Y-57029199D01*
X125786944Y-57393056D01*
X126150801Y-57636177D01*
X126471661Y-57700000D01*
X126688339Y-57700000D01*
X127009199Y-57636177D01*
X127373056Y-57393056D01*
X127616177Y-57029199D01*
X127701550Y-56600000D01*
X127998450Y-56600000D01*
X128083823Y-57029199D01*
X128326944Y-57393056D01*
X128690801Y-57636177D01*
X129011661Y-57700000D01*
X129228339Y-57700000D01*
X129549199Y-57636177D01*
X129913056Y-57393056D01*
X130156177Y-57029199D01*
X130241550Y-56600000D01*
X130538450Y-56600000D01*
X130623823Y-57029199D01*
X130866944Y-57393056D01*
X131230801Y-57636177D01*
X131551661Y-57700000D01*
X131768339Y-57700000D01*
X132089199Y-57636177D01*
X132453056Y-57393056D01*
X132696177Y-57029199D01*
X132713223Y-56943500D01*
X132792000Y-56943500D01*
X132792000Y-57560993D01*
X132876950Y-57766082D01*
X133033918Y-57923049D01*
X133239007Y-58008000D01*
X133856500Y-58008000D01*
X133996000Y-57868500D01*
X133996000Y-56804000D01*
X134404000Y-56804000D01*
X134404000Y-57868500D01*
X134543500Y-58008000D01*
X135160993Y-58008000D01*
X135366082Y-57923049D01*
X135523050Y-57766082D01*
X135608000Y-57560993D01*
X135608000Y-56943500D01*
X135468500Y-56804000D01*
X134404000Y-56804000D01*
X133996000Y-56804000D01*
X132931500Y-56804000D01*
X132792000Y-56943500D01*
X132713223Y-56943500D01*
X132781550Y-56600000D01*
X132696177Y-56170801D01*
X132453056Y-55806944D01*
X132089199Y-55563823D01*
X131768339Y-55500000D01*
X131551661Y-55500000D01*
X131230801Y-55563823D01*
X130866944Y-55806944D01*
X130623823Y-56170801D01*
X130538450Y-56600000D01*
X130241550Y-56600000D01*
X130156177Y-56170801D01*
X129913056Y-55806944D01*
X129549199Y-55563823D01*
X129228339Y-55500000D01*
X129011661Y-55500000D01*
X128690801Y-55563823D01*
X128326944Y-55806944D01*
X128083823Y-56170801D01*
X127998450Y-56600000D01*
X127701550Y-56600000D01*
X127616177Y-56170801D01*
X127373056Y-55806944D01*
X127009199Y-55563823D01*
X126688339Y-55500000D01*
X126471661Y-55500000D01*
X126150801Y-55563823D01*
X125786944Y-55806944D01*
X125543823Y-56170801D01*
X125458450Y-56600000D01*
X124300445Y-56600000D01*
X124280239Y-56569761D01*
X124197545Y-56514506D01*
X124100000Y-56495103D01*
X123100000Y-56495103D01*
X123002455Y-56514506D01*
X122950000Y-56549556D01*
X122897545Y-56514506D01*
X122800000Y-56495103D01*
X121800000Y-56495103D01*
X121702455Y-56514506D01*
X121619761Y-56569761D01*
X121564506Y-56652455D01*
X121545103Y-56750000D01*
X121545103Y-58250000D01*
X121564506Y-58347545D01*
X121619761Y-58430239D01*
X121702455Y-58485494D01*
X121800000Y-58504897D01*
X121925000Y-58504897D01*
X121925000Y-59213073D01*
X121917655Y-59250000D01*
X121925000Y-59286926D01*
X121925000Y-59286930D01*
X121946758Y-59396316D01*
X121946759Y-59396317D01*
X121946759Y-59396318D01*
X121951680Y-59403682D01*
X122029641Y-59520359D01*
X122060950Y-59541279D01*
X122508722Y-59989052D01*
X122529641Y-60020359D01*
X122536588Y-60025001D01*
X118001922Y-60025001D01*
X117964996Y-60017656D01*
X117928070Y-60025001D01*
X117928066Y-60025001D01*
X117818680Y-60046759D01*
X117818679Y-60046760D01*
X117818678Y-60046760D01*
X117725946Y-60108722D01*
X117725945Y-60108723D01*
X117694638Y-60129642D01*
X117673719Y-60160949D01*
X115885950Y-61948719D01*
X115854640Y-61969640D01*
X115831894Y-62003682D01*
X115776269Y-62086931D01*
X115771757Y-62093683D01*
X115749999Y-62203069D01*
X115749999Y-62203073D01*
X115742654Y-62239999D01*
X115325000Y-62239999D01*
X115325000Y-58000000D01*
X116014451Y-58000000D01*
X116111631Y-58613568D01*
X116393657Y-59167076D01*
X116832924Y-59606343D01*
X117386432Y-59888369D01*
X118000000Y-59985549D01*
X118613568Y-59888369D01*
X119167076Y-59606343D01*
X119606343Y-59167076D01*
X119888369Y-58613568D01*
X119985549Y-58000000D01*
X119888369Y-57386432D01*
X119606343Y-56832924D01*
X119167076Y-56393657D01*
X118613568Y-56111631D01*
X118000000Y-56014451D01*
X117386432Y-56111631D01*
X116832924Y-56393657D01*
X116393657Y-56832924D01*
X116111631Y-57386432D01*
X116014451Y-58000000D01*
X115325000Y-58000000D01*
X115325000Y-57023156D01*
X115395509Y-56530813D01*
X115591686Y-56099344D01*
X115901076Y-55740280D01*
X116298807Y-55482484D01*
X116763678Y-55343457D01*
X117012055Y-55325000D01*
X132985869Y-55325000D01*
X132876950Y-55433918D01*
X132876950Y-55433918D01*
G37*
X132876950Y-55433918D02*
X132792000Y-55639007D01*
X132792000Y-56256500D01*
X132931500Y-56396000D01*
X133996000Y-56396000D01*
X133996000Y-56376000D01*
X134404000Y-56376000D01*
X134404000Y-56396000D01*
X135468500Y-56396000D01*
X135608000Y-56256500D01*
X135608000Y-55639007D01*
X135523050Y-55433918D01*
X135414131Y-55325000D01*
X142976844Y-55325000D01*
X143469187Y-55395509D01*
X143900656Y-55591686D01*
X144259720Y-55901076D01*
X144517516Y-56298807D01*
X144656543Y-56763678D01*
X144675000Y-57012055D01*
X144675001Y-117976837D01*
X144604491Y-118469187D01*
X144408314Y-118900656D01*
X144098924Y-119259720D01*
X143701193Y-119517516D01*
X143236321Y-119656543D01*
X142987945Y-119675000D01*
X117023156Y-119675000D01*
X116530813Y-119604491D01*
X116099344Y-119408314D01*
X115740280Y-119098924D01*
X115482484Y-118701193D01*
X115343457Y-118236321D01*
X115325000Y-117987945D01*
X115325000Y-116705391D01*
X116139911Y-116705391D01*
X116144768Y-117323790D01*
X116349674Y-117907275D01*
X116732532Y-118392929D01*
X117252061Y-118728384D01*
X117852240Y-118877469D01*
X118468351Y-118824108D01*
X119033961Y-118574055D01*
X119488079Y-118154273D01*
X119781739Y-117610026D01*
X119845824Y-117225000D01*
X137380899Y-117225000D01*
X137456570Y-117605426D01*
X137672064Y-117927936D01*
X137994574Y-118143430D01*
X138278972Y-118200000D01*
X139021028Y-118200000D01*
X139305426Y-118143430D01*
X139627936Y-117927936D01*
X139843430Y-117605426D01*
X139889264Y-117375000D01*
X141283838Y-117375000D01*
X141347868Y-117696899D01*
X141530209Y-117969791D01*
X141803101Y-118152132D01*
X142043749Y-118200000D01*
X142856251Y-118200000D01*
X143096899Y-118152132D01*
X143369791Y-117969791D01*
X143552132Y-117696899D01*
X143616162Y-117375000D01*
X143552132Y-117053101D01*
X143369791Y-116780209D01*
X143096899Y-116597868D01*
X142856251Y-116550000D01*
X142043749Y-116550000D01*
X141803101Y-116597868D01*
X141530209Y-116780209D01*
X141347868Y-117053101D01*
X141283838Y-117375000D01*
X139889264Y-117375000D01*
X139919101Y-117225000D01*
X139843430Y-116844574D01*
X139713420Y-116650000D01*
X139764018Y-116650000D01*
X139953617Y-116612286D01*
X140168624Y-116468624D01*
X140312286Y-116253617D01*
X140362734Y-116000000D01*
X140312286Y-115746383D01*
X140168624Y-115531376D01*
X139953617Y-115387714D01*
X139764018Y-115350000D01*
X139635982Y-115350000D01*
X139446383Y-115387714D01*
X139231376Y-115531376D01*
X139087714Y-115746383D01*
X139037266Y-116000000D01*
X139087714Y-116253617D01*
X139095148Y-116264743D01*
X139021028Y-116250000D01*
X138278972Y-116250000D01*
X137994574Y-116306570D01*
X137672064Y-116522064D01*
X137456570Y-116844574D01*
X137380899Y-117225000D01*
X119845824Y-117225000D01*
X119883275Y-117000000D01*
X119883043Y-116970419D01*
X119771937Y-116362063D01*
X119469765Y-115822496D01*
X119009109Y-115409898D01*
X118439642Y-115168760D01*
X117822768Y-115125083D01*
X117225005Y-115283577D01*
X116710810Y-115627152D01*
X116335626Y-116118759D01*
X116139911Y-116705391D01*
X115325000Y-116705391D01*
X115325000Y-111610000D01*
X116178450Y-111610000D01*
X116263823Y-112039199D01*
X116506944Y-112403056D01*
X116870801Y-112646177D01*
X117191661Y-112710000D01*
X117408339Y-112710000D01*
X117729199Y-112646177D01*
X117775146Y-112615476D01*
X118498724Y-113339055D01*
X118519641Y-113370359D01*
X118550945Y-113391276D01*
X118550948Y-113391279D01*
X118643681Y-113453241D01*
X118643682Y-113453241D01*
X118643683Y-113453242D01*
X118753069Y-113475000D01*
X118753073Y-113475000D01*
X118789999Y-113482345D01*
X118826925Y-113475000D01*
X120663074Y-113475000D01*
X120700000Y-113482345D01*
X120736926Y-113475000D01*
X120736931Y-113475000D01*
X120846317Y-113453242D01*
X120970359Y-113370359D01*
X120991280Y-113339050D01*
X121929061Y-112401269D01*
X121960368Y-112380350D01*
X122000454Y-112320359D01*
X122043250Y-112256310D01*
X122043250Y-112256309D01*
X122043251Y-112256308D01*
X122065009Y-112146922D01*
X122065009Y-112146918D01*
X122072354Y-112109992D01*
X122065009Y-112073066D01*
X122065009Y-109775000D01*
X137380899Y-109775000D01*
X137456570Y-110155426D01*
X137672064Y-110477936D01*
X137994574Y-110693430D01*
X138278972Y-110750000D01*
X139021028Y-110750000D01*
X139095148Y-110735257D01*
X139087714Y-110746383D01*
X139037266Y-111000000D01*
X139087714Y-111253617D01*
X139231376Y-111468624D01*
X139446383Y-111612286D01*
X139635982Y-111650000D01*
X139764018Y-111650000D01*
X139953617Y-111612286D01*
X140168624Y-111468624D01*
X140312286Y-111253617D01*
X140362734Y-111000000D01*
X140312286Y-110746383D01*
X140168624Y-110531376D01*
X139953617Y-110387714D01*
X139764018Y-110350000D01*
X139713420Y-110350000D01*
X139843430Y-110155426D01*
X139919101Y-109775000D01*
X139889265Y-109625000D01*
X141283838Y-109625000D01*
X141347868Y-109946899D01*
X141530209Y-110219791D01*
X141803101Y-110402132D01*
X142043749Y-110450000D01*
X142856251Y-110450000D01*
X143096899Y-110402132D01*
X143369791Y-110219791D01*
X143552132Y-109946899D01*
X143616162Y-109625000D01*
X143552132Y-109303101D01*
X143369791Y-109030209D01*
X143096899Y-108847868D01*
X142856251Y-108800000D01*
X142043749Y-108800000D01*
X141803101Y-108847868D01*
X141530209Y-109030209D01*
X141347868Y-109303101D01*
X141283838Y-109625000D01*
X139889265Y-109625000D01*
X139843430Y-109394574D01*
X139627936Y-109072064D01*
X139305426Y-108856570D01*
X139021028Y-108800000D01*
X138278972Y-108800000D01*
X137994574Y-108856570D01*
X137672064Y-109072064D01*
X137456570Y-109394574D01*
X137380899Y-109775000D01*
X122065009Y-109775000D01*
X122065009Y-107145338D01*
X122345000Y-107425330D01*
X122345000Y-107529293D01*
X122443957Y-107768195D01*
X122626805Y-107951043D01*
X122865707Y-108050000D01*
X123124293Y-108050000D01*
X123363195Y-107951043D01*
X123546043Y-107768195D01*
X123645000Y-107529293D01*
X123645000Y-107270707D01*
X123546043Y-107031805D01*
X123363195Y-106848957D01*
X123124293Y-106750000D01*
X122865707Y-106750000D01*
X122769981Y-106789651D01*
X122675000Y-106694671D01*
X122675000Y-103755329D01*
X123455330Y-102975000D01*
X125955762Y-102975000D01*
X126131805Y-103151043D01*
X126370707Y-103250000D01*
X126629293Y-103250000D01*
X126868195Y-103151043D01*
X127044238Y-102975000D01*
X127144671Y-102975000D01*
X129125001Y-104955331D01*
X129125001Y-105155761D01*
X128948957Y-105331805D01*
X128850000Y-105570707D01*
X128850000Y-105829293D01*
X128948957Y-106068195D01*
X129131805Y-106251043D01*
X129370707Y-106350000D01*
X129629293Y-106350000D01*
X129868195Y-106251043D01*
X130051043Y-106068195D01*
X130150000Y-105829293D01*
X130150000Y-105570707D01*
X130051043Y-105331805D01*
X129875000Y-105155762D01*
X129875000Y-104836926D01*
X129882345Y-104800000D01*
X129875000Y-104763074D01*
X129875000Y-104763069D01*
X129853242Y-104653683D01*
X129770359Y-104529641D01*
X129739052Y-104508722D01*
X128993073Y-103762744D01*
X129015064Y-103777437D01*
X129053683Y-103803242D01*
X129163069Y-103825000D01*
X129163074Y-103825000D01*
X129200000Y-103832345D01*
X129236926Y-103825000D01*
X133305762Y-103825000D01*
X133481805Y-104001043D01*
X133720707Y-104100000D01*
X133979293Y-104100000D01*
X134218195Y-104001043D01*
X134401043Y-103818195D01*
X134500000Y-103579293D01*
X134500000Y-103320707D01*
X134401043Y-103081805D01*
X134218195Y-102898957D01*
X134039648Y-102825000D01*
X142213074Y-102825000D01*
X142250000Y-102832345D01*
X142286926Y-102825000D01*
X142286931Y-102825000D01*
X142396317Y-102803242D01*
X142520359Y-102720359D01*
X142541279Y-102689050D01*
X143339053Y-101891277D01*
X143370359Y-101870359D01*
X143453242Y-101746317D01*
X143475000Y-101636931D01*
X143475000Y-101636926D01*
X143482345Y-101600000D01*
X143475000Y-101563074D01*
X143475000Y-79519238D01*
X143526043Y-79468195D01*
X143625000Y-79229293D01*
X143625000Y-78970707D01*
X143526043Y-78731805D01*
X143343195Y-78548957D01*
X143104293Y-78450000D01*
X142845707Y-78450000D01*
X142606805Y-78548957D01*
X142423957Y-78731805D01*
X142325000Y-78970707D01*
X142325000Y-79229293D01*
X142423957Y-79468195D01*
X142606805Y-79651043D01*
X142725001Y-79700002D01*
X142725000Y-101444670D01*
X142094671Y-102075000D01*
X133636926Y-102075000D01*
X133600000Y-102067655D01*
X133563074Y-102075000D01*
X133563069Y-102075000D01*
X133453683Y-102096758D01*
X133427804Y-102114050D01*
X133360949Y-102158721D01*
X133360948Y-102158722D01*
X133329641Y-102179641D01*
X133308722Y-102210948D01*
X133094671Y-102425000D01*
X129855330Y-102425000D01*
X127991280Y-100560951D01*
X127970359Y-100529641D01*
X127846317Y-100446758D01*
X127736931Y-100425000D01*
X127736926Y-100425000D01*
X127700000Y-100417655D01*
X127663074Y-100425000D01*
X123744238Y-100425000D01*
X123568195Y-100248957D01*
X123329293Y-100150000D01*
X123070707Y-100150000D01*
X122831805Y-100248957D01*
X122648957Y-100431805D01*
X122550000Y-100670707D01*
X122550000Y-100929293D01*
X122648957Y-101168195D01*
X122831805Y-101351043D01*
X123070707Y-101450000D01*
X123329293Y-101450000D01*
X123568195Y-101351043D01*
X123744238Y-101175000D01*
X127544671Y-101175000D01*
X129408722Y-103039052D01*
X129429641Y-103070359D01*
X129436587Y-103075000D01*
X129355330Y-103075000D01*
X127916279Y-101635950D01*
X127895358Y-101604640D01*
X127771316Y-101521757D01*
X127661930Y-101499999D01*
X127661925Y-101499999D01*
X127624999Y-101492654D01*
X127588073Y-101499999D01*
X122761927Y-101499999D01*
X122725001Y-101492654D01*
X122688075Y-101499999D01*
X122688070Y-101499999D01*
X122578684Y-101521757D01*
X122578682Y-101521758D01*
X122578683Y-101521758D01*
X122485950Y-101583720D01*
X122485949Y-101583721D01*
X122454642Y-101604640D01*
X122433723Y-101635947D01*
X121450959Y-102618711D01*
X121419650Y-102639632D01*
X121398730Y-102670941D01*
X121348365Y-102746318D01*
X121336767Y-102763675D01*
X121315009Y-102873061D01*
X121315009Y-102873065D01*
X121307664Y-102909991D01*
X121315009Y-102946917D01*
X121315010Y-111954660D01*
X120544671Y-112725000D01*
X118945331Y-112725000D01*
X118305476Y-112085146D01*
X118336177Y-112039199D01*
X118421550Y-111610000D01*
X118718450Y-111610000D01*
X118803823Y-112039199D01*
X119046944Y-112403056D01*
X119410801Y-112646177D01*
X119731661Y-112710000D01*
X119948339Y-112710000D01*
X120269199Y-112646177D01*
X120633056Y-112403056D01*
X120876177Y-112039199D01*
X120961550Y-111610000D01*
X120876177Y-111180801D01*
X120633056Y-110816944D01*
X120269199Y-110573823D01*
X119948339Y-110510000D01*
X119731661Y-110510000D01*
X119410801Y-110573823D01*
X119046944Y-110816944D01*
X118803823Y-111180801D01*
X118718450Y-111610000D01*
X118421550Y-111610000D01*
X118336177Y-111180801D01*
X118093056Y-110816944D01*
X117729199Y-110573823D01*
X117408339Y-110510000D01*
X117191661Y-110510000D01*
X116870801Y-110573823D01*
X116506944Y-110816944D01*
X116263823Y-111180801D01*
X116178450Y-111610000D01*
X115325000Y-111610000D01*
X115325000Y-62239999D01*
X115742654Y-62239999D01*
X115749999Y-62276925D01*
X115750000Y-107057070D01*
X115742654Y-107094001D01*
X115771758Y-107240319D01*
X115833720Y-107333051D01*
X115833722Y-107333053D01*
X115854641Y-107364360D01*
X115885947Y-107385278D01*
X116634721Y-108134054D01*
X116655638Y-108165358D01*
X116664791Y-108171474D01*
X116506944Y-108276944D01*
X116263823Y-108640801D01*
X116178450Y-109070000D01*
X116263823Y-109499199D01*
X116506944Y-109863056D01*
X116870801Y-110106177D01*
X117191661Y-110170000D01*
X117408339Y-110170000D01*
X117729199Y-110106177D01*
X118093056Y-109863056D01*
X118336177Y-109499199D01*
X118421550Y-109070000D01*
X118336177Y-108640801D01*
X118093056Y-108276944D01*
X118082662Y-108269999D01*
X118509669Y-108269999D01*
X118750949Y-108511280D01*
X118750955Y-108511284D01*
X118834524Y-108594853D01*
X118803823Y-108640801D01*
X118718450Y-109070000D01*
X118803823Y-109499199D01*
X119046944Y-109863056D01*
X119410801Y-110106177D01*
X119731661Y-110170000D01*
X119948339Y-110170000D01*
X120269199Y-110106177D01*
X120633056Y-109863056D01*
X120876177Y-109499199D01*
X120961550Y-109070000D01*
X120876177Y-108640801D01*
X120633056Y-108276944D01*
X120269199Y-108033823D01*
X119948339Y-107970000D01*
X119731661Y-107970000D01*
X119410801Y-108033823D01*
X119364853Y-108064524D01*
X119281284Y-107980955D01*
X119281280Y-107980949D01*
X118956278Y-107655949D01*
X118935358Y-107624640D01*
X118811316Y-107541757D01*
X118701930Y-107519999D01*
X118701925Y-107519999D01*
X118664999Y-107512654D01*
X118628073Y-107519999D01*
X118275564Y-107519999D01*
X118546998Y-107183839D01*
X118644078Y-106949424D01*
X118551989Y-106734000D01*
X117504000Y-106734000D01*
X117504000Y-106754000D01*
X117096000Y-106754000D01*
X117096000Y-106734000D01*
X117076000Y-106734000D01*
X117076000Y-106326000D01*
X117096000Y-106326000D01*
X117096000Y-105276340D01*
X117504000Y-105276340D01*
X117504000Y-106326000D01*
X118551989Y-106326000D01*
X118644078Y-106110576D01*
X118546998Y-105876161D01*
X118201863Y-105448726D01*
X117719427Y-105185905D01*
X117504000Y-105276340D01*
X117096000Y-105276340D01*
X116880573Y-105185905D01*
X116499999Y-105393234D01*
X116499999Y-104772662D01*
X116506944Y-104783056D01*
X116870801Y-105026177D01*
X117191661Y-105090000D01*
X117408339Y-105090000D01*
X117729199Y-105026177D01*
X118093056Y-104783056D01*
X118289999Y-104488309D01*
X118289999Y-105318073D01*
X118282654Y-105354999D01*
X118289999Y-105391925D01*
X118289999Y-105391929D01*
X118311757Y-105501315D01*
X118394640Y-105625358D01*
X118425949Y-105646279D01*
X118834524Y-106054853D01*
X118803823Y-106100801D01*
X118718450Y-106530000D01*
X118803823Y-106959199D01*
X119046944Y-107323056D01*
X119410801Y-107566177D01*
X119731661Y-107630000D01*
X119948339Y-107630000D01*
X120269199Y-107566177D01*
X120633056Y-107323056D01*
X120876177Y-106959199D01*
X120961550Y-106530000D01*
X120876177Y-106100801D01*
X120633056Y-105736944D01*
X120269199Y-105493823D01*
X119948339Y-105430000D01*
X119731661Y-105430000D01*
X119410801Y-105493823D01*
X119364853Y-105524524D01*
X119039999Y-105199670D01*
X119039999Y-104772662D01*
X119046944Y-104783056D01*
X119410801Y-105026177D01*
X119731661Y-105090000D01*
X119948339Y-105090000D01*
X120269199Y-105026177D01*
X120633056Y-104783056D01*
X120876177Y-104419199D01*
X120961550Y-103990000D01*
X120876177Y-103560801D01*
X120633056Y-103196944D01*
X120269199Y-102953823D01*
X119948339Y-102890000D01*
X119731661Y-102890000D01*
X119410801Y-102953823D01*
X119046944Y-103196944D01*
X119039999Y-103207338D01*
X119039999Y-102232662D01*
X119046944Y-102243056D01*
X119410801Y-102486177D01*
X119731661Y-102550000D01*
X119948339Y-102550000D01*
X120269199Y-102486177D01*
X120633056Y-102243056D01*
X120876177Y-101879199D01*
X120961550Y-101450000D01*
X120876177Y-101020801D01*
X120633056Y-100656944D01*
X120269199Y-100413823D01*
X119948339Y-100350000D01*
X119731661Y-100350000D01*
X119410801Y-100413823D01*
X119046944Y-100656944D01*
X119039999Y-100667338D01*
X119039999Y-99692662D01*
X119046944Y-99703056D01*
X119410801Y-99946177D01*
X119731661Y-100010000D01*
X119948339Y-100010000D01*
X120269199Y-99946177D01*
X120633056Y-99703056D01*
X120876177Y-99339199D01*
X120961550Y-98910000D01*
X120876177Y-98480801D01*
X120633056Y-98116944D01*
X120269199Y-97873823D01*
X119948339Y-97810000D01*
X119731661Y-97810000D01*
X119410801Y-97873823D01*
X119046944Y-98116944D01*
X119004951Y-98179792D01*
X118935358Y-98075640D01*
X118904048Y-98054719D01*
X118850001Y-98000672D01*
X118850001Y-96868309D01*
X119046944Y-97163056D01*
X119410801Y-97406177D01*
X119731661Y-97470000D01*
X119948339Y-97470000D01*
X120269199Y-97406177D01*
X120633056Y-97163056D01*
X120876177Y-96799199D01*
X120961550Y-96370000D01*
X120876177Y-95940801D01*
X120633056Y-95576944D01*
X120269199Y-95333823D01*
X119948339Y-95270000D01*
X119731661Y-95270000D01*
X119410801Y-95333823D01*
X119046944Y-95576944D01*
X118850001Y-95871691D01*
X118850001Y-94328309D01*
X119046944Y-94623056D01*
X119410801Y-94866177D01*
X119731661Y-94930000D01*
X119948339Y-94930000D01*
X120269199Y-94866177D01*
X120633056Y-94623056D01*
X120876177Y-94259199D01*
X120961550Y-93830000D01*
X120876177Y-93400801D01*
X120633056Y-93036944D01*
X120269199Y-92793823D01*
X119948339Y-92730000D01*
X119731661Y-92730000D01*
X119410801Y-92793823D01*
X119046944Y-93036944D01*
X118850001Y-93331691D01*
X118850001Y-91788309D01*
X119046944Y-92083056D01*
X119410801Y-92326177D01*
X119731661Y-92390000D01*
X119948339Y-92390000D01*
X120269199Y-92326177D01*
X120633056Y-92083056D01*
X120876177Y-91719199D01*
X120961550Y-91290000D01*
X120876177Y-90860801D01*
X120633056Y-90496944D01*
X120269199Y-90253823D01*
X119948339Y-90190000D01*
X119731661Y-90190000D01*
X119410801Y-90253823D01*
X119046944Y-90496944D01*
X118850001Y-90791691D01*
X118850001Y-89248309D01*
X119046944Y-89543056D01*
X119410801Y-89786177D01*
X119731661Y-89850000D01*
X119948339Y-89850000D01*
X120269199Y-89786177D01*
X120633056Y-89543056D01*
X120876177Y-89179199D01*
X120961550Y-88750000D01*
X120876177Y-88320801D01*
X120633056Y-87956944D01*
X120269199Y-87713823D01*
X119948339Y-87650000D01*
X119731661Y-87650000D01*
X119410801Y-87713823D01*
X119046944Y-87956944D01*
X118850001Y-88251691D01*
X118850001Y-86708309D01*
X119046944Y-87003056D01*
X119410801Y-87246177D01*
X119731661Y-87310000D01*
X119948339Y-87310000D01*
X120269199Y-87246177D01*
X120633056Y-87003056D01*
X120876177Y-86639199D01*
X120886958Y-86585000D01*
X121005155Y-86585000D01*
X121042081Y-86592345D01*
X121079007Y-86585000D01*
X121079012Y-86585000D01*
X121188398Y-86563242D01*
X121312440Y-86480359D01*
X121333360Y-86449050D01*
X121707411Y-86075000D01*
X127063074Y-86075000D01*
X127100000Y-86082345D01*
X127136926Y-86075000D01*
X127136931Y-86075000D01*
X127246317Y-86053242D01*
X127370359Y-85970359D01*
X127391279Y-85939050D01*
X127970330Y-85360000D01*
X133128074Y-85360000D01*
X133165000Y-85367345D01*
X133201926Y-85360000D01*
X133201931Y-85360000D01*
X133311317Y-85338242D01*
X133435359Y-85255359D01*
X133456279Y-85224050D01*
X133789055Y-84891276D01*
X133820359Y-84870359D01*
X133841276Y-84839055D01*
X133841279Y-84839052D01*
X133903241Y-84746319D01*
X133903241Y-84746318D01*
X133903242Y-84746317D01*
X133925000Y-84636931D01*
X133925000Y-84636927D01*
X133932345Y-84600001D01*
X133925000Y-84563075D01*
X133925000Y-82171854D01*
X134007038Y-82117038D01*
X134094266Y-81986491D01*
X134124897Y-81832500D01*
X134124897Y-81537500D01*
X134094266Y-81383509D01*
X134007038Y-81252962D01*
X133927774Y-81200000D01*
X134007038Y-81147038D01*
X134094266Y-81016491D01*
X134124897Y-80862500D01*
X134124897Y-80567500D01*
X134094266Y-80413509D01*
X134007038Y-80282962D01*
X133925000Y-80228146D01*
X133925000Y-79204897D01*
X134000000Y-79204897D01*
X134097545Y-79185494D01*
X134180239Y-79130239D01*
X134235494Y-79047545D01*
X134254897Y-78950000D01*
X134254897Y-78050000D01*
X134235494Y-77952455D01*
X134183740Y-77875000D01*
X143173881Y-77875000D01*
X143654210Y-78355330D01*
X143654211Y-110625000D01*
X142709731Y-110625000D01*
X142672805Y-110617655D01*
X142635879Y-110625000D01*
X142635875Y-110625000D01*
X142526489Y-110646758D01*
X142526488Y-110646759D01*
X142526487Y-110646759D01*
X142433754Y-110708721D01*
X142433751Y-110708724D01*
X142402447Y-110729641D01*
X142381530Y-110760945D01*
X141467477Y-111675000D01*
X133494238Y-111675000D01*
X133318195Y-111498957D01*
X133079293Y-111400000D01*
X132820707Y-111400000D01*
X132581805Y-111498957D01*
X132398957Y-111681805D01*
X132300000Y-111920707D01*
X132300000Y-112179293D01*
X132398957Y-112418195D01*
X132581805Y-112601043D01*
X132820707Y-112700000D01*
X133079293Y-112700000D01*
X133318195Y-112601043D01*
X133494238Y-112425000D01*
X141585880Y-112425000D01*
X141622806Y-112432345D01*
X141659732Y-112425000D01*
X141659737Y-112425000D01*
X141769123Y-112403242D01*
X141893165Y-112320359D01*
X141914085Y-112289050D01*
X142828137Y-111375000D01*
X143813074Y-111375000D01*
X143850000Y-111382345D01*
X143886926Y-111375000D01*
X143886931Y-111375000D01*
X143996317Y-111353242D01*
X144120359Y-111270359D01*
X144141279Y-111239050D01*
X144268262Y-111112068D01*
X144299569Y-111091149D01*
X144360474Y-111000000D01*
X144382451Y-110967109D01*
X144382451Y-110967108D01*
X144382452Y-110967107D01*
X144404210Y-110857721D01*
X144404210Y-110857717D01*
X144411555Y-110820791D01*
X144404210Y-110783865D01*
X144404210Y-78236925D01*
X144411555Y-78199999D01*
X144404210Y-78163073D01*
X144404210Y-64016136D01*
X144411555Y-63979210D01*
X144404210Y-63942284D01*
X144404210Y-63942279D01*
X144382452Y-63832893D01*
X144299569Y-63708851D01*
X144268262Y-63687932D01*
X142491280Y-61910951D01*
X142470359Y-61879641D01*
X142346317Y-61796758D01*
X142236931Y-61775000D01*
X142236926Y-61775000D01*
X142200000Y-61767655D01*
X142163074Y-61775000D01*
X140455330Y-61775000D01*
X140075000Y-61394671D01*
X140075000Y-59686925D01*
X140082345Y-59649999D01*
X140075000Y-59613073D01*
X140075000Y-59613069D01*
X140053242Y-59503683D01*
X140048321Y-59496318D01*
X139991279Y-59410948D01*
X139991276Y-59410945D01*
X139970359Y-59379641D01*
X139939055Y-59358724D01*
X139029382Y-58449053D01*
X139097545Y-58435494D01*
X139180239Y-58380239D01*
X139235494Y-58297545D01*
X139254897Y-58200000D01*
X139254897Y-58000000D01*
X140048861Y-58000000D01*
X140144357Y-58602935D01*
X140421495Y-59146851D01*
X140853149Y-59578505D01*
X141397065Y-59855643D01*
X142000000Y-59951139D01*
X142602935Y-59855643D01*
X143146851Y-59578505D01*
X143578505Y-59146851D01*
X143855643Y-58602935D01*
X143951139Y-58000000D01*
X143855643Y-57397065D01*
X143578505Y-56853149D01*
X143146851Y-56421495D01*
X142602935Y-56144357D01*
X142000000Y-56048861D01*
X141397065Y-56144357D01*
X140853149Y-56421495D01*
X140421495Y-56853149D01*
X140144357Y-57397065D01*
X140048861Y-58000000D01*
X139254897Y-58000000D01*
X139254897Y-56700000D01*
X139235494Y-56602455D01*
X139180239Y-56519761D01*
X139097545Y-56464506D01*
X139000000Y-56445103D01*
X138881371Y-56445103D01*
X138875000Y-56413074D01*
X138875000Y-56413069D01*
X138853242Y-56303683D01*
X138820189Y-56254216D01*
X138791279Y-56210949D01*
X138791278Y-56210948D01*
X138770359Y-56179641D01*
X138739052Y-56158722D01*
X138441279Y-55860950D01*
X138420359Y-55829641D01*
X138296317Y-55746758D01*
X138272312Y-55741983D01*
X138241280Y-55710951D01*
X138220359Y-55679641D01*
X138096317Y-55596758D01*
X137986931Y-55575000D01*
X137986926Y-55575000D01*
X137950000Y-55567655D01*
X137913074Y-55575000D01*
X136636925Y-55575000D01*
X136599999Y-55567655D01*
X136563073Y-55575000D01*
X136563069Y-55575000D01*
X136453683Y-55596758D01*
X136453682Y-55596759D01*
X136453681Y-55596759D01*
X136360948Y-55658722D01*
X136329641Y-55679641D01*
X136308722Y-55710948D01*
X135810950Y-56208721D01*
X135779641Y-56229641D01*
X135758721Y-56260950D01*
X135729856Y-56304150D01*
X135696758Y-56353684D01*
X135675000Y-56463070D01*
X135675000Y-56463074D01*
X135667655Y-56500000D01*
X135675000Y-56536927D01*
X135675001Y-58344669D01*
X135294671Y-58725000D01*
X131686926Y-58725000D01*
X131649999Y-58717655D01*
X131613073Y-58725000D01*
X131613069Y-58725000D01*
X131503683Y-58746758D01*
X131503682Y-58746759D01*
X131503681Y-58746759D01*
X131410949Y-58808721D01*
X131410948Y-58808722D01*
X131379641Y-58829641D01*
X131358722Y-58860948D01*
X131354897Y-58864773D01*
X131354897Y-58650000D01*
X131335494Y-58552455D01*
X131280239Y-58469761D01*
X131197545Y-58414506D01*
X131100000Y-58395103D01*
X130981371Y-58395103D01*
X130975000Y-58363073D01*
X130975000Y-58363069D01*
X130953242Y-58253683D01*
X130937178Y-58229641D01*
X130891278Y-58160948D01*
X130870359Y-58129641D01*
X130839052Y-58108722D01*
X130641279Y-57910950D01*
X130620359Y-57879641D01*
X130496317Y-57796758D01*
X130386931Y-57775000D01*
X130386926Y-57775000D01*
X130350000Y-57767655D01*
X130313074Y-57775000D01*
X125155330Y-57775000D01*
X124641279Y-57260950D01*
X124620359Y-57229641D01*
X124496317Y-57146758D01*
X124386931Y-57125000D01*
X124386926Y-57125000D01*
X124354897Y-57118629D01*
X124354897Y-56750000D01*
X124335494Y-56652455D01*
X124300445Y-56600000D01*
X125458450Y-56600000D01*
X125543823Y-57029199D01*
X125786944Y-57393056D01*
X126150801Y-57636177D01*
X126471661Y-57700000D01*
X126688339Y-57700000D01*
X127009199Y-57636177D01*
X127373056Y-57393056D01*
X127616177Y-57029199D01*
X127701550Y-56600000D01*
X127998450Y-56600000D01*
X128083823Y-57029199D01*
X128326944Y-57393056D01*
X128690801Y-57636177D01*
X129011661Y-57700000D01*
X129228339Y-57700000D01*
X129549199Y-57636177D01*
X129913056Y-57393056D01*
X130156177Y-57029199D01*
X130241550Y-56600000D01*
X130538450Y-56600000D01*
X130623823Y-57029199D01*
X130866944Y-57393056D01*
X131230801Y-57636177D01*
X131551661Y-57700000D01*
X131768339Y-57700000D01*
X132089199Y-57636177D01*
X132453056Y-57393056D01*
X132696177Y-57029199D01*
X132713223Y-56943500D01*
X132792000Y-56943500D01*
X132792000Y-57560993D01*
X132876950Y-57766082D01*
X133033918Y-57923049D01*
X133239007Y-58008000D01*
X133856500Y-58008000D01*
X133996000Y-57868500D01*
X133996000Y-56804000D01*
X134404000Y-56804000D01*
X134404000Y-57868500D01*
X134543500Y-58008000D01*
X135160993Y-58008000D01*
X135366082Y-57923049D01*
X135523050Y-57766082D01*
X135608000Y-57560993D01*
X135608000Y-56943500D01*
X135468500Y-56804000D01*
X134404000Y-56804000D01*
X133996000Y-56804000D01*
X132931500Y-56804000D01*
X132792000Y-56943500D01*
X132713223Y-56943500D01*
X132781550Y-56600000D01*
X132696177Y-56170801D01*
X132453056Y-55806944D01*
X132089199Y-55563823D01*
X131768339Y-55500000D01*
X131551661Y-55500000D01*
X131230801Y-55563823D01*
X130866944Y-55806944D01*
X130623823Y-56170801D01*
X130538450Y-56600000D01*
X130241550Y-56600000D01*
X130156177Y-56170801D01*
X129913056Y-55806944D01*
X129549199Y-55563823D01*
X129228339Y-55500000D01*
X129011661Y-55500000D01*
X128690801Y-55563823D01*
X128326944Y-55806944D01*
X128083823Y-56170801D01*
X127998450Y-56600000D01*
X127701550Y-56600000D01*
X127616177Y-56170801D01*
X127373056Y-55806944D01*
X127009199Y-55563823D01*
X126688339Y-55500000D01*
X126471661Y-55500000D01*
X126150801Y-55563823D01*
X125786944Y-55806944D01*
X125543823Y-56170801D01*
X125458450Y-56600000D01*
X124300445Y-56600000D01*
X124280239Y-56569761D01*
X124197545Y-56514506D01*
X124100000Y-56495103D01*
X123100000Y-56495103D01*
X123002455Y-56514506D01*
X122950000Y-56549556D01*
X122897545Y-56514506D01*
X122800000Y-56495103D01*
X121800000Y-56495103D01*
X121702455Y-56514506D01*
X121619761Y-56569761D01*
X121564506Y-56652455D01*
X121545103Y-56750000D01*
X121545103Y-58250000D01*
X121564506Y-58347545D01*
X121619761Y-58430239D01*
X121702455Y-58485494D01*
X121800000Y-58504897D01*
X121925000Y-58504897D01*
X121925000Y-59213073D01*
X121917655Y-59250000D01*
X121925000Y-59286926D01*
X121925000Y-59286930D01*
X121946758Y-59396316D01*
X121946759Y-59396317D01*
X121946759Y-59396318D01*
X121951680Y-59403682D01*
X122029641Y-59520359D01*
X122060950Y-59541279D01*
X122508722Y-59989052D01*
X122529641Y-60020359D01*
X122536588Y-60025001D01*
X118001922Y-60025001D01*
X117964996Y-60017656D01*
X117928070Y-60025001D01*
X117928066Y-60025001D01*
X117818680Y-60046759D01*
X117818679Y-60046760D01*
X117818678Y-60046760D01*
X117725946Y-60108722D01*
X117725945Y-60108723D01*
X117694638Y-60129642D01*
X117673719Y-60160949D01*
X115885950Y-61948719D01*
X115854640Y-61969640D01*
X115831894Y-62003682D01*
X115776269Y-62086931D01*
X115771757Y-62093683D01*
X115749999Y-62203069D01*
X115749999Y-62203073D01*
X115742654Y-62239999D01*
X115325000Y-62239999D01*
X115325000Y-58000000D01*
X116014451Y-58000000D01*
X116111631Y-58613568D01*
X116393657Y-59167076D01*
X116832924Y-59606343D01*
X117386432Y-59888369D01*
X118000000Y-59985549D01*
X118613568Y-59888369D01*
X119167076Y-59606343D01*
X119606343Y-59167076D01*
X119888369Y-58613568D01*
X119985549Y-58000000D01*
X119888369Y-57386432D01*
X119606343Y-56832924D01*
X119167076Y-56393657D01*
X118613568Y-56111631D01*
X118000000Y-56014451D01*
X117386432Y-56111631D01*
X116832924Y-56393657D01*
X116393657Y-56832924D01*
X116111631Y-57386432D01*
X116014451Y-58000000D01*
X115325000Y-58000000D01*
X115325000Y-57023156D01*
X115395509Y-56530813D01*
X115591686Y-56099344D01*
X115901076Y-55740280D01*
X116298807Y-55482484D01*
X116763678Y-55343457D01*
X117012055Y-55325000D01*
X132985869Y-55325000D01*
X132876950Y-55433918D01*
G36*
X133025001Y-66813069D02*
X133017655Y-66850000D01*
X133046759Y-66996318D01*
X133108721Y-67089050D01*
X133108723Y-67089052D01*
X133129642Y-67120359D01*
X133160948Y-67141278D01*
X134175000Y-68155330D01*
X134175001Y-69645103D01*
X134100000Y-69645103D01*
X134002455Y-69664506D01*
X133919761Y-69719761D01*
X133864506Y-69802455D01*
X133845103Y-69900000D01*
X133845103Y-70114772D01*
X133254897Y-69524567D01*
X133254897Y-69000000D01*
X133235494Y-68902455D01*
X133180239Y-68819761D01*
X133097545Y-68764506D01*
X133000000Y-68745103D01*
X132100000Y-68745103D01*
X132002455Y-68764506D01*
X131919761Y-68819761D01*
X131864506Y-68902455D01*
X131845103Y-69000000D01*
X131845103Y-69800000D01*
X131864506Y-69897545D01*
X131919761Y-69980239D01*
X132002455Y-70035494D01*
X132100000Y-70054897D01*
X132724567Y-70054897D01*
X133275001Y-70605332D01*
X133275000Y-75044670D01*
X132524568Y-75795103D01*
X132250000Y-75795103D01*
X132152455Y-75814506D01*
X132069761Y-75869761D01*
X132014506Y-75952455D01*
X131995103Y-76050000D01*
X131995103Y-76950000D01*
X132014506Y-77047545D01*
X132069761Y-77130239D01*
X132152455Y-77185494D01*
X132250000Y-77204897D01*
X132416672Y-77204897D01*
X132410949Y-77208721D01*
X132410948Y-77208722D01*
X132379641Y-77229641D01*
X132358722Y-77260948D01*
X131824568Y-77795103D01*
X131300000Y-77795103D01*
X131202455Y-77814506D01*
X131119761Y-77869761D01*
X131064506Y-77952455D01*
X131045103Y-78050000D01*
X131045103Y-78950000D01*
X131064506Y-79047545D01*
X131119761Y-79130239D01*
X131202455Y-79185494D01*
X131300000Y-79204897D01*
X132100000Y-79204897D01*
X132197545Y-79185494D01*
X132280239Y-79130239D01*
X132335494Y-79047545D01*
X132354897Y-78950000D01*
X132354897Y-78325432D01*
X132805330Y-77875000D01*
X133016260Y-77875000D01*
X132964506Y-77952455D01*
X132945103Y-78050000D01*
X132945103Y-78950000D01*
X132964506Y-79047545D01*
X133019761Y-79130239D01*
X133102455Y-79185494D01*
X133175001Y-79199924D01*
X133175000Y-80228146D01*
X133092962Y-80282962D01*
X133005734Y-80413509D01*
X132975103Y-80567500D01*
X132975103Y-80862500D01*
X133005734Y-81016491D01*
X133092962Y-81147038D01*
X133172226Y-81200000D01*
X133092962Y-81252962D01*
X133005734Y-81383509D01*
X132975103Y-81537500D01*
X132975103Y-81832500D01*
X133005734Y-81986491D01*
X133092962Y-82117038D01*
X133175001Y-82171854D01*
X133175000Y-84444670D01*
X133009670Y-84610000D01*
X127851926Y-84610000D01*
X127815000Y-84602655D01*
X127778074Y-84610000D01*
X127778069Y-84610000D01*
X127668683Y-84631758D01*
X127630064Y-84657563D01*
X127575949Y-84693721D01*
X127575948Y-84693722D01*
X127544641Y-84714641D01*
X127523722Y-84745948D01*
X126944671Y-85325000D01*
X121589007Y-85325000D01*
X121552081Y-85317655D01*
X121515154Y-85325000D01*
X121515150Y-85325000D01*
X121405764Y-85346758D01*
X121405763Y-85346759D01*
X121405762Y-85346759D01*
X121313030Y-85408721D01*
X121313029Y-85408722D01*
X121281722Y-85429641D01*
X121260803Y-85460948D01*
X120886924Y-85834828D01*
X120876177Y-85780801D01*
X120633056Y-85416944D01*
X120269199Y-85173823D01*
X119948339Y-85110000D01*
X119731661Y-85110000D01*
X119410801Y-85173823D01*
X119046944Y-85416944D01*
X118850001Y-85711691D01*
X118850001Y-84168309D01*
X119046944Y-84463056D01*
X119410801Y-84706177D01*
X119731661Y-84770000D01*
X119948339Y-84770000D01*
X120269199Y-84706177D01*
X120633056Y-84463056D01*
X120876177Y-84099199D01*
X120961550Y-83670000D01*
X120876177Y-83240801D01*
X120633056Y-82876944D01*
X120269199Y-82633823D01*
X119948339Y-82570000D01*
X119731661Y-82570000D01*
X119410801Y-82633823D01*
X119046944Y-82876944D01*
X118850001Y-83171691D01*
X118850001Y-82102121D01*
X118938137Y-82211274D01*
X119420573Y-82474095D01*
X119636000Y-82383660D01*
X119636000Y-81334000D01*
X120044000Y-81334000D01*
X120044000Y-82383660D01*
X120259427Y-82474095D01*
X120741863Y-82211274D01*
X121086998Y-81783839D01*
X121184078Y-81549424D01*
X121091989Y-81334000D01*
X120044000Y-81334000D01*
X119636000Y-81334000D01*
X119616000Y-81334000D01*
X119616000Y-80926000D01*
X119636000Y-80926000D01*
X119636000Y-80906000D01*
X120044000Y-80906000D01*
X120044000Y-80926000D01*
X121091989Y-80926000D01*
X121184078Y-80710576D01*
X121086998Y-80476161D01*
X120964942Y-80325000D01*
X121213074Y-80325000D01*
X121250000Y-80332345D01*
X121286926Y-80325000D01*
X121286931Y-80325000D01*
X121396317Y-80303242D01*
X121520359Y-80220359D01*
X121541279Y-80189050D01*
X122039053Y-79691277D01*
X122070359Y-79670359D01*
X122112464Y-79607345D01*
X122153241Y-79546319D01*
X122153241Y-79546318D01*
X122153242Y-79546317D01*
X122175000Y-79436931D01*
X122175000Y-79436927D01*
X122182345Y-79400001D01*
X122175000Y-79363075D01*
X122175000Y-78555329D01*
X122805330Y-77925000D01*
X126213074Y-77925000D01*
X126250000Y-77932345D01*
X126286926Y-77925000D01*
X126286931Y-77925000D01*
X126396317Y-77903242D01*
X126520359Y-77820359D01*
X126541280Y-77789049D01*
X128289063Y-76041267D01*
X128320369Y-76020349D01*
X128403252Y-75896307D01*
X128425010Y-75786921D01*
X128425010Y-75786916D01*
X128432355Y-75749990D01*
X128425010Y-75713064D01*
X128425010Y-73299500D01*
X130712000Y-73299500D01*
X130712000Y-73430993D01*
X130796951Y-73636082D01*
X130953918Y-73793050D01*
X131159007Y-73878000D01*
X131278000Y-73878000D01*
X131417500Y-73738500D01*
X131417500Y-73160000D01*
X130851500Y-73160000D01*
X130712000Y-73299500D01*
X128425010Y-73299500D01*
X128425010Y-72569007D01*
X130712000Y-72569007D01*
X130712000Y-72700500D01*
X130851500Y-72840000D01*
X131417500Y-72840000D01*
X131417500Y-72261500D01*
X131712500Y-72261500D01*
X131712500Y-72840000D01*
X131789000Y-72840000D01*
X131789000Y-73160000D01*
X131712500Y-73160000D01*
X131712500Y-73738500D01*
X131852000Y-73878000D01*
X131970993Y-73878000D01*
X132176082Y-73793050D01*
X132333049Y-73636082D01*
X132360608Y-73569548D01*
X132387500Y-73574897D01*
X132682500Y-73574897D01*
X132836491Y-73544266D01*
X132967038Y-73457038D01*
X133054266Y-73326491D01*
X133084897Y-73172500D01*
X133084897Y-72827500D01*
X133054266Y-72673509D01*
X132967038Y-72542962D01*
X132925000Y-72514873D01*
X132925000Y-71954897D01*
X133000000Y-71954897D01*
X133097545Y-71935494D01*
X133180239Y-71880239D01*
X133235494Y-71797545D01*
X133254897Y-71700000D01*
X133254897Y-70900000D01*
X133235494Y-70802455D01*
X133180239Y-70719761D01*
X133097545Y-70664506D01*
X133000000Y-70645103D01*
X132100000Y-70645103D01*
X132002455Y-70664506D01*
X131919761Y-70719761D01*
X131864506Y-70802455D01*
X131845103Y-70900000D01*
X131845103Y-71700000D01*
X131864506Y-71797545D01*
X131919761Y-71880239D01*
X132002455Y-71935494D01*
X132100000Y-71954897D01*
X132175000Y-71954897D01*
X132175001Y-72206502D01*
X131970993Y-72122000D01*
X131852000Y-72122000D01*
X131712500Y-72261500D01*
X131417500Y-72261500D01*
X131278000Y-72122000D01*
X131159007Y-72122000D01*
X130953918Y-72206950D01*
X130796951Y-72363918D01*
X130712000Y-72569007D01*
X128425010Y-72569007D01*
X128425010Y-68205319D01*
X129555331Y-67075000D01*
X130931081Y-67075000D01*
X130310949Y-67695132D01*
X130279642Y-67716051D01*
X130258723Y-67747358D01*
X130258721Y-67747360D01*
X130196759Y-67840092D01*
X130167655Y-67986410D01*
X130175001Y-68023341D01*
X130175000Y-69695103D01*
X130100000Y-69695103D01*
X130002455Y-69714506D01*
X129919761Y-69769761D01*
X129864506Y-69852455D01*
X129845103Y-69950000D01*
X129845103Y-70750000D01*
X129864506Y-70847545D01*
X129919761Y-70930239D01*
X130002455Y-70985494D01*
X130100000Y-71004897D01*
X131000000Y-71004897D01*
X131097545Y-70985494D01*
X131180239Y-70930239D01*
X131235494Y-70847545D01*
X131254897Y-70750000D01*
X131254897Y-69950000D01*
X131235494Y-69852455D01*
X131180239Y-69769761D01*
X131097545Y-69714506D01*
X131000000Y-69695103D01*
X130925000Y-69695103D01*
X130925000Y-68141739D01*
X133025001Y-66041739D01*
X133025001Y-66813069D01*
X133025001Y-66813069D01*
G37*
X133025001Y-66813069D02*
X133017655Y-66850000D01*
X133046759Y-66996318D01*
X133108721Y-67089050D01*
X133108723Y-67089052D01*
X133129642Y-67120359D01*
X133160948Y-67141278D01*
X134175000Y-68155330D01*
X134175001Y-69645103D01*
X134100000Y-69645103D01*
X134002455Y-69664506D01*
X133919761Y-69719761D01*
X133864506Y-69802455D01*
X133845103Y-69900000D01*
X133845103Y-70114772D01*
X133254897Y-69524567D01*
X133254897Y-69000000D01*
X133235494Y-68902455D01*
X133180239Y-68819761D01*
X133097545Y-68764506D01*
X133000000Y-68745103D01*
X132100000Y-68745103D01*
X132002455Y-68764506D01*
X131919761Y-68819761D01*
X131864506Y-68902455D01*
X131845103Y-69000000D01*
X131845103Y-69800000D01*
X131864506Y-69897545D01*
X131919761Y-69980239D01*
X132002455Y-70035494D01*
X132100000Y-70054897D01*
X132724567Y-70054897D01*
X133275001Y-70605332D01*
X133275000Y-75044670D01*
X132524568Y-75795103D01*
X132250000Y-75795103D01*
X132152455Y-75814506D01*
X132069761Y-75869761D01*
X132014506Y-75952455D01*
X131995103Y-76050000D01*
X131995103Y-76950000D01*
X132014506Y-77047545D01*
X132069761Y-77130239D01*
X132152455Y-77185494D01*
X132250000Y-77204897D01*
X132416672Y-77204897D01*
X132410949Y-77208721D01*
X132410948Y-77208722D01*
X132379641Y-77229641D01*
X132358722Y-77260948D01*
X131824568Y-77795103D01*
X131300000Y-77795103D01*
X131202455Y-77814506D01*
X131119761Y-77869761D01*
X131064506Y-77952455D01*
X131045103Y-78050000D01*
X131045103Y-78950000D01*
X131064506Y-79047545D01*
X131119761Y-79130239D01*
X131202455Y-79185494D01*
X131300000Y-79204897D01*
X132100000Y-79204897D01*
X132197545Y-79185494D01*
X132280239Y-79130239D01*
X132335494Y-79047545D01*
X132354897Y-78950000D01*
X132354897Y-78325432D01*
X132805330Y-77875000D01*
X133016260Y-77875000D01*
X132964506Y-77952455D01*
X132945103Y-78050000D01*
X132945103Y-78950000D01*
X132964506Y-79047545D01*
X133019761Y-79130239D01*
X133102455Y-79185494D01*
X133175001Y-79199924D01*
X133175000Y-80228146D01*
X133092962Y-80282962D01*
X133005734Y-80413509D01*
X132975103Y-80567500D01*
X132975103Y-80862500D01*
X133005734Y-81016491D01*
X133092962Y-81147038D01*
X133172226Y-81200000D01*
X133092962Y-81252962D01*
X133005734Y-81383509D01*
X132975103Y-81537500D01*
X132975103Y-81832500D01*
X133005734Y-81986491D01*
X133092962Y-82117038D01*
X133175001Y-82171854D01*
X133175000Y-84444670D01*
X133009670Y-84610000D01*
X127851926Y-84610000D01*
X127815000Y-84602655D01*
X127778074Y-84610000D01*
X127778069Y-84610000D01*
X127668683Y-84631758D01*
X127630064Y-84657563D01*
X127575949Y-84693721D01*
X127575948Y-84693722D01*
X127544641Y-84714641D01*
X127523722Y-84745948D01*
X126944671Y-85325000D01*
X121589007Y-85325000D01*
X121552081Y-85317655D01*
X121515154Y-85325000D01*
X121515150Y-85325000D01*
X121405764Y-85346758D01*
X121405763Y-85346759D01*
X121405762Y-85346759D01*
X121313030Y-85408721D01*
X121313029Y-85408722D01*
X121281722Y-85429641D01*
X121260803Y-85460948D01*
X120886924Y-85834828D01*
X120876177Y-85780801D01*
X120633056Y-85416944D01*
X120269199Y-85173823D01*
X119948339Y-85110000D01*
X119731661Y-85110000D01*
X119410801Y-85173823D01*
X119046944Y-85416944D01*
X118850001Y-85711691D01*
X118850001Y-84168309D01*
X119046944Y-84463056D01*
X119410801Y-84706177D01*
X119731661Y-84770000D01*
X119948339Y-84770000D01*
X120269199Y-84706177D01*
X120633056Y-84463056D01*
X120876177Y-84099199D01*
X120961550Y-83670000D01*
X120876177Y-83240801D01*
X120633056Y-82876944D01*
X120269199Y-82633823D01*
X119948339Y-82570000D01*
X119731661Y-82570000D01*
X119410801Y-82633823D01*
X119046944Y-82876944D01*
X118850001Y-83171691D01*
X118850001Y-82102121D01*
X118938137Y-82211274D01*
X119420573Y-82474095D01*
X119636000Y-82383660D01*
X119636000Y-81334000D01*
X120044000Y-81334000D01*
X120044000Y-82383660D01*
X120259427Y-82474095D01*
X120741863Y-82211274D01*
X121086998Y-81783839D01*
X121184078Y-81549424D01*
X121091989Y-81334000D01*
X120044000Y-81334000D01*
X119636000Y-81334000D01*
X119616000Y-81334000D01*
X119616000Y-80926000D01*
X119636000Y-80926000D01*
X119636000Y-80906000D01*
X120044000Y-80906000D01*
X120044000Y-80926000D01*
X121091989Y-80926000D01*
X121184078Y-80710576D01*
X121086998Y-80476161D01*
X120964942Y-80325000D01*
X121213074Y-80325000D01*
X121250000Y-80332345D01*
X121286926Y-80325000D01*
X121286931Y-80325000D01*
X121396317Y-80303242D01*
X121520359Y-80220359D01*
X121541279Y-80189050D01*
X122039053Y-79691277D01*
X122070359Y-79670359D01*
X122112464Y-79607345D01*
X122153241Y-79546319D01*
X122153241Y-79546318D01*
X122153242Y-79546317D01*
X122175000Y-79436931D01*
X122175000Y-79436927D01*
X122182345Y-79400001D01*
X122175000Y-79363075D01*
X122175000Y-78555329D01*
X122805330Y-77925000D01*
X126213074Y-77925000D01*
X126250000Y-77932345D01*
X126286926Y-77925000D01*
X126286931Y-77925000D01*
X126396317Y-77903242D01*
X126520359Y-77820359D01*
X126541280Y-77789049D01*
X128289063Y-76041267D01*
X128320369Y-76020349D01*
X128403252Y-75896307D01*
X128425010Y-75786921D01*
X128425010Y-75786916D01*
X128432355Y-75749990D01*
X128425010Y-75713064D01*
X128425010Y-73299500D01*
X130712000Y-73299500D01*
X130712000Y-73430993D01*
X130796951Y-73636082D01*
X130953918Y-73793050D01*
X131159007Y-73878000D01*
X131278000Y-73878000D01*
X131417500Y-73738500D01*
X131417500Y-73160000D01*
X130851500Y-73160000D01*
X130712000Y-73299500D01*
X128425010Y-73299500D01*
X128425010Y-72569007D01*
X130712000Y-72569007D01*
X130712000Y-72700500D01*
X130851500Y-72840000D01*
X131417500Y-72840000D01*
X131417500Y-72261500D01*
X131712500Y-72261500D01*
X131712500Y-72840000D01*
X131789000Y-72840000D01*
X131789000Y-73160000D01*
X131712500Y-73160000D01*
X131712500Y-73738500D01*
X131852000Y-73878000D01*
X131970993Y-73878000D01*
X132176082Y-73793050D01*
X132333049Y-73636082D01*
X132360608Y-73569548D01*
X132387500Y-73574897D01*
X132682500Y-73574897D01*
X132836491Y-73544266D01*
X132967038Y-73457038D01*
X133054266Y-73326491D01*
X133084897Y-73172500D01*
X133084897Y-72827500D01*
X133054266Y-72673509D01*
X132967038Y-72542962D01*
X132925000Y-72514873D01*
X132925000Y-71954897D01*
X133000000Y-71954897D01*
X133097545Y-71935494D01*
X133180239Y-71880239D01*
X133235494Y-71797545D01*
X133254897Y-71700000D01*
X133254897Y-70900000D01*
X133235494Y-70802455D01*
X133180239Y-70719761D01*
X133097545Y-70664506D01*
X133000000Y-70645103D01*
X132100000Y-70645103D01*
X132002455Y-70664506D01*
X131919761Y-70719761D01*
X131864506Y-70802455D01*
X131845103Y-70900000D01*
X131845103Y-71700000D01*
X131864506Y-71797545D01*
X131919761Y-71880239D01*
X132002455Y-71935494D01*
X132100000Y-71954897D01*
X132175000Y-71954897D01*
X132175001Y-72206502D01*
X131970993Y-72122000D01*
X131852000Y-72122000D01*
X131712500Y-72261500D01*
X131417500Y-72261500D01*
X131278000Y-72122000D01*
X131159007Y-72122000D01*
X130953918Y-72206950D01*
X130796951Y-72363918D01*
X130712000Y-72569007D01*
X128425010Y-72569007D01*
X128425010Y-68205319D01*
X129555331Y-67075000D01*
X130931081Y-67075000D01*
X130310949Y-67695132D01*
X130279642Y-67716051D01*
X130258723Y-67747358D01*
X130258721Y-67747360D01*
X130196759Y-67840092D01*
X130167655Y-67986410D01*
X130175001Y-68023341D01*
X130175000Y-69695103D01*
X130100000Y-69695103D01*
X130002455Y-69714506D01*
X129919761Y-69769761D01*
X129864506Y-69852455D01*
X129845103Y-69950000D01*
X129845103Y-70750000D01*
X129864506Y-70847545D01*
X129919761Y-70930239D01*
X130002455Y-70985494D01*
X130100000Y-71004897D01*
X131000000Y-71004897D01*
X131097545Y-70985494D01*
X131180239Y-70930239D01*
X131235494Y-70847545D01*
X131254897Y-70750000D01*
X131254897Y-69950000D01*
X131235494Y-69852455D01*
X131180239Y-69769761D01*
X131097545Y-69714506D01*
X131000000Y-69695103D01*
X130925000Y-69695103D01*
X130925000Y-68141739D01*
X133025001Y-66041739D01*
X133025001Y-66813069D01*
G36*
X126700000Y-60929293D02*
X126798957Y-61168195D01*
X126930762Y-61300000D01*
X126798957Y-61431805D01*
X126700000Y-61670707D01*
X126700000Y-61929293D01*
X126798957Y-62168195D01*
X126975001Y-62344239D01*
X126975000Y-66813074D01*
X126967655Y-66850000D01*
X126975000Y-66886926D01*
X126975000Y-66886930D01*
X126996758Y-66996316D01*
X127079641Y-67120359D01*
X127110950Y-67141279D01*
X127225001Y-67255331D01*
X127225000Y-74844670D01*
X126269671Y-75800000D01*
X126079290Y-75800000D01*
X126150000Y-75629293D01*
X126150000Y-75370707D01*
X126051043Y-75131805D01*
X125868195Y-74948957D01*
X125629293Y-74850000D01*
X125370707Y-74850000D01*
X125131805Y-74948957D01*
X124955762Y-75125000D01*
X123655330Y-75125000D01*
X121801280Y-73270951D01*
X121780359Y-73239641D01*
X121656317Y-73156758D01*
X121546931Y-73135000D01*
X121546926Y-73135000D01*
X121510000Y-73127655D01*
X121473074Y-73135000D01*
X120886958Y-73135000D01*
X120876177Y-73080801D01*
X120633056Y-72716944D01*
X120269199Y-72473823D01*
X119948339Y-72410000D01*
X119731661Y-72410000D01*
X119410801Y-72473823D01*
X119046944Y-72716944D01*
X118803823Y-73080801D01*
X118718450Y-73510000D01*
X118803823Y-73939199D01*
X119046944Y-74303056D01*
X119410801Y-74546177D01*
X119731661Y-74610000D01*
X119948339Y-74610000D01*
X120269199Y-74546177D01*
X120633056Y-74303056D01*
X120876177Y-73939199D01*
X120886958Y-73885000D01*
X121354671Y-73885000D01*
X123208722Y-75739052D01*
X123229641Y-75770359D01*
X123260948Y-75791278D01*
X123260949Y-75791279D01*
X123353681Y-75853241D01*
X123353682Y-75853241D01*
X123353683Y-75853242D01*
X123463069Y-75875000D01*
X123463073Y-75875000D01*
X123500000Y-75882345D01*
X123536926Y-75875000D01*
X124955762Y-75875000D01*
X125131805Y-76051043D01*
X125189642Y-76075000D01*
X123194238Y-76075000D01*
X123018195Y-75898957D01*
X122779293Y-75800000D01*
X122520707Y-75800000D01*
X122281805Y-75898957D01*
X122098957Y-76081805D01*
X122000000Y-76320707D01*
X122000000Y-76579293D01*
X122098957Y-76818195D01*
X122281805Y-77001043D01*
X122520707Y-77100000D01*
X122779293Y-77100000D01*
X123018195Y-77001043D01*
X123194238Y-76825000D01*
X125605762Y-76825000D01*
X125781805Y-77001043D01*
X126020707Y-77100000D01*
X126169671Y-77100000D01*
X126094671Y-77175000D01*
X122686926Y-77175000D01*
X122650000Y-77167655D01*
X122613074Y-77175000D01*
X122613069Y-77175000D01*
X122503683Y-77196758D01*
X122465064Y-77222563D01*
X122410949Y-77258721D01*
X122410948Y-77258722D01*
X122379641Y-77279641D01*
X122358722Y-77310948D01*
X121560948Y-78108723D01*
X121529642Y-78129641D01*
X121508723Y-78160948D01*
X121508721Y-78160950D01*
X121446759Y-78253682D01*
X121417655Y-78400000D01*
X121425001Y-78436931D01*
X121425000Y-79244670D01*
X121094671Y-79575000D01*
X120345791Y-79575000D01*
X120633056Y-79383056D01*
X120876177Y-79019199D01*
X120961550Y-78590000D01*
X120876177Y-78160801D01*
X120633056Y-77796944D01*
X120269199Y-77553823D01*
X119948339Y-77490000D01*
X119731661Y-77490000D01*
X119410801Y-77553823D01*
X119046944Y-77796944D01*
X118803823Y-78160801D01*
X118718450Y-78590000D01*
X118803823Y-79019199D01*
X119046944Y-79383056D01*
X119334209Y-79575000D01*
X119317924Y-79575000D01*
X119280998Y-79567655D01*
X119244072Y-79575000D01*
X119244067Y-79575000D01*
X119134681Y-79596758D01*
X119134679Y-79596759D01*
X119134680Y-79596759D01*
X119041947Y-79658721D01*
X119041946Y-79658722D01*
X119010639Y-79679641D01*
X118989720Y-79710948D01*
X118235949Y-80464720D01*
X118204643Y-80485638D01*
X118198526Y-80494792D01*
X118093056Y-80336944D01*
X117729199Y-80093823D01*
X117408339Y-80030000D01*
X117191661Y-80030000D01*
X116870801Y-80093823D01*
X116506944Y-80336944D01*
X116499999Y-80347338D01*
X116499999Y-79372662D01*
X116506944Y-79383056D01*
X116870801Y-79626177D01*
X117191661Y-79690000D01*
X117408339Y-79690000D01*
X117729199Y-79626177D01*
X118093056Y-79383056D01*
X118336177Y-79019199D01*
X118421550Y-78590000D01*
X118336177Y-78160801D01*
X118093056Y-77796944D01*
X117729199Y-77553823D01*
X117408339Y-77490000D01*
X117191661Y-77490000D01*
X116870801Y-77553823D01*
X116506944Y-77796944D01*
X116499999Y-77807338D01*
X116499999Y-76832662D01*
X116506944Y-76843056D01*
X116870801Y-77086177D01*
X117191661Y-77150000D01*
X117408339Y-77150000D01*
X117729199Y-77086177D01*
X118093056Y-76843056D01*
X118336177Y-76479199D01*
X118421550Y-76050000D01*
X118718450Y-76050000D01*
X118803823Y-76479199D01*
X119046944Y-76843056D01*
X119410801Y-77086177D01*
X119731661Y-77150000D01*
X119948339Y-77150000D01*
X120269199Y-77086177D01*
X120633056Y-76843056D01*
X120876177Y-76479199D01*
X120961550Y-76050000D01*
X120876177Y-75620801D01*
X120633056Y-75256944D01*
X120269199Y-75013823D01*
X119948339Y-74950000D01*
X119731661Y-74950000D01*
X119410801Y-75013823D01*
X119046944Y-75256944D01*
X118803823Y-75620801D01*
X118718450Y-76050000D01*
X118421550Y-76050000D01*
X118336177Y-75620801D01*
X118093056Y-75256944D01*
X117729199Y-75013823D01*
X117408339Y-74950000D01*
X117191661Y-74950000D01*
X116870801Y-75013823D01*
X116506944Y-75256944D01*
X116499999Y-75267338D01*
X116499999Y-74292662D01*
X116506944Y-74303056D01*
X116870801Y-74546177D01*
X117191661Y-74610000D01*
X117408339Y-74610000D01*
X117729199Y-74546177D01*
X118093056Y-74303056D01*
X118336177Y-73939199D01*
X118421550Y-73510000D01*
X118336177Y-73080801D01*
X118093056Y-72716944D01*
X117729199Y-72473823D01*
X117408339Y-72410000D01*
X117191661Y-72410000D01*
X116870801Y-72473823D01*
X116506944Y-72716944D01*
X116499999Y-72727338D01*
X116499999Y-71752662D01*
X116506944Y-71763056D01*
X116870801Y-72006177D01*
X117191661Y-72070000D01*
X117408339Y-72070000D01*
X117729199Y-72006177D01*
X118093056Y-71763056D01*
X118336177Y-71399199D01*
X118421550Y-70970000D01*
X118718450Y-70970000D01*
X118803823Y-71399199D01*
X119046944Y-71763056D01*
X119410801Y-72006177D01*
X119731661Y-72070000D01*
X119948339Y-72070000D01*
X120269199Y-72006177D01*
X120633056Y-71763056D01*
X120876177Y-71399199D01*
X120961550Y-70970000D01*
X120876177Y-70540801D01*
X120633056Y-70176944D01*
X120269199Y-69933823D01*
X119948339Y-69870000D01*
X119731661Y-69870000D01*
X119410801Y-69933823D01*
X119046944Y-70176944D01*
X118803823Y-70540801D01*
X118718450Y-70970000D01*
X118421550Y-70970000D01*
X118336177Y-70540801D01*
X118093056Y-70176944D01*
X117729199Y-69933823D01*
X117408339Y-69870000D01*
X117191661Y-69870000D01*
X116870801Y-69933823D01*
X116506944Y-70176944D01*
X116499999Y-70187338D01*
X116499999Y-69212662D01*
X116506944Y-69223056D01*
X116870801Y-69466177D01*
X117191661Y-69530000D01*
X117408339Y-69530000D01*
X117729199Y-69466177D01*
X118093056Y-69223056D01*
X118336177Y-68859199D01*
X118421550Y-68430000D01*
X118718450Y-68430000D01*
X118803823Y-68859199D01*
X119046944Y-69223056D01*
X119410801Y-69466177D01*
X119731661Y-69530000D01*
X119948339Y-69530000D01*
X120269199Y-69466177D01*
X120633056Y-69223056D01*
X120876177Y-68859199D01*
X120961550Y-68430000D01*
X120876177Y-68000801D01*
X120633056Y-67636944D01*
X120269199Y-67393823D01*
X119948339Y-67330000D01*
X119731661Y-67330000D01*
X119410801Y-67393823D01*
X119046944Y-67636944D01*
X118803823Y-68000801D01*
X118718450Y-68430000D01*
X118421550Y-68430000D01*
X118336177Y-68000801D01*
X118093056Y-67636944D01*
X117729199Y-67393823D01*
X117408339Y-67330000D01*
X117191661Y-67330000D01*
X116870801Y-67393823D01*
X116506944Y-67636944D01*
X116499999Y-67647338D01*
X116499999Y-66672662D01*
X116506944Y-66683056D01*
X116870801Y-66926177D01*
X117191661Y-66990000D01*
X117408339Y-66990000D01*
X117729199Y-66926177D01*
X118093056Y-66683056D01*
X118336177Y-66319199D01*
X118421550Y-65890000D01*
X118336177Y-65460801D01*
X118305476Y-65414854D01*
X118441278Y-65279052D01*
X118441279Y-65279050D01*
X118630331Y-65089999D01*
X119057338Y-65089999D01*
X119046944Y-65096944D01*
X118803823Y-65460801D01*
X118718450Y-65890000D01*
X118803823Y-66319199D01*
X119046944Y-66683056D01*
X119410801Y-66926177D01*
X119731661Y-66990000D01*
X119948339Y-66990000D01*
X120269199Y-66926177D01*
X120633056Y-66683056D01*
X120876177Y-66319199D01*
X120961550Y-65890000D01*
X120876177Y-65460801D01*
X120633056Y-65096944D01*
X120622662Y-65089999D01*
X121643179Y-65089999D01*
X121662998Y-65103242D01*
X121772384Y-65125000D01*
X121772389Y-65125000D01*
X121809315Y-65132345D01*
X121833330Y-65127568D01*
X122006805Y-65301043D01*
X122245707Y-65400000D01*
X122504293Y-65400000D01*
X122738167Y-65303126D01*
X122746758Y-65346316D01*
X122746759Y-65346317D01*
X122746759Y-65346318D01*
X122794425Y-65417655D01*
X122829641Y-65470359D01*
X122860950Y-65491279D01*
X123000000Y-65630329D01*
X123000000Y-65879293D01*
X123098957Y-66118195D01*
X123281805Y-66301043D01*
X123520707Y-66400000D01*
X123779293Y-66400000D01*
X124018195Y-66301043D01*
X124201043Y-66118195D01*
X124300000Y-65879293D01*
X124300000Y-65620707D01*
X124201043Y-65381805D01*
X124018195Y-65198957D01*
X123779293Y-65100000D01*
X123530329Y-65100000D01*
X123475000Y-65044671D01*
X123475000Y-61936925D01*
X123482345Y-61899999D01*
X123475000Y-61863073D01*
X123475000Y-61863069D01*
X123453242Y-61753683D01*
X123453241Y-61753681D01*
X123391279Y-61660948D01*
X123391276Y-61660945D01*
X123370359Y-61629641D01*
X123339055Y-61608724D01*
X122641279Y-60910950D01*
X122620359Y-60879641D01*
X122496317Y-60796758D01*
X122386936Y-60775001D01*
X126700000Y-60775001D01*
X126700000Y-60929293D01*
X126700000Y-60929293D01*
G37*
X126700000Y-60929293D02*
X126798957Y-61168195D01*
X126930762Y-61300000D01*
X126798957Y-61431805D01*
X126700000Y-61670707D01*
X126700000Y-61929293D01*
X126798957Y-62168195D01*
X126975001Y-62344239D01*
X126975000Y-66813074D01*
X126967655Y-66850000D01*
X126975000Y-66886926D01*
X126975000Y-66886930D01*
X126996758Y-66996316D01*
X127079641Y-67120359D01*
X127110950Y-67141279D01*
X127225001Y-67255331D01*
X127225000Y-74844670D01*
X126269671Y-75800000D01*
X126079290Y-75800000D01*
X126150000Y-75629293D01*
X126150000Y-75370707D01*
X126051043Y-75131805D01*
X125868195Y-74948957D01*
X125629293Y-74850000D01*
X125370707Y-74850000D01*
X125131805Y-74948957D01*
X124955762Y-75125000D01*
X123655330Y-75125000D01*
X121801280Y-73270951D01*
X121780359Y-73239641D01*
X121656317Y-73156758D01*
X121546931Y-73135000D01*
X121546926Y-73135000D01*
X121510000Y-73127655D01*
X121473074Y-73135000D01*
X120886958Y-73135000D01*
X120876177Y-73080801D01*
X120633056Y-72716944D01*
X120269199Y-72473823D01*
X119948339Y-72410000D01*
X119731661Y-72410000D01*
X119410801Y-72473823D01*
X119046944Y-72716944D01*
X118803823Y-73080801D01*
X118718450Y-73510000D01*
X118803823Y-73939199D01*
X119046944Y-74303056D01*
X119410801Y-74546177D01*
X119731661Y-74610000D01*
X119948339Y-74610000D01*
X120269199Y-74546177D01*
X120633056Y-74303056D01*
X120876177Y-73939199D01*
X120886958Y-73885000D01*
X121354671Y-73885000D01*
X123208722Y-75739052D01*
X123229641Y-75770359D01*
X123260948Y-75791278D01*
X123260949Y-75791279D01*
X123353681Y-75853241D01*
X123353682Y-75853241D01*
X123353683Y-75853242D01*
X123463069Y-75875000D01*
X123463073Y-75875000D01*
X123500000Y-75882345D01*
X123536926Y-75875000D01*
X124955762Y-75875000D01*
X125131805Y-76051043D01*
X125189642Y-76075000D01*
X123194238Y-76075000D01*
X123018195Y-75898957D01*
X122779293Y-75800000D01*
X122520707Y-75800000D01*
X122281805Y-75898957D01*
X122098957Y-76081805D01*
X122000000Y-76320707D01*
X122000000Y-76579293D01*
X122098957Y-76818195D01*
X122281805Y-77001043D01*
X122520707Y-77100000D01*
X122779293Y-77100000D01*
X123018195Y-77001043D01*
X123194238Y-76825000D01*
X125605762Y-76825000D01*
X125781805Y-77001043D01*
X126020707Y-77100000D01*
X126169671Y-77100000D01*
X126094671Y-77175000D01*
X122686926Y-77175000D01*
X122650000Y-77167655D01*
X122613074Y-77175000D01*
X122613069Y-77175000D01*
X122503683Y-77196758D01*
X122465064Y-77222563D01*
X122410949Y-77258721D01*
X122410948Y-77258722D01*
X122379641Y-77279641D01*
X122358722Y-77310948D01*
X121560948Y-78108723D01*
X121529642Y-78129641D01*
X121508723Y-78160948D01*
X121508721Y-78160950D01*
X121446759Y-78253682D01*
X121417655Y-78400000D01*
X121425001Y-78436931D01*
X121425000Y-79244670D01*
X121094671Y-79575000D01*
X120345791Y-79575000D01*
X120633056Y-79383056D01*
X120876177Y-79019199D01*
X120961550Y-78590000D01*
X120876177Y-78160801D01*
X120633056Y-77796944D01*
X120269199Y-77553823D01*
X119948339Y-77490000D01*
X119731661Y-77490000D01*
X119410801Y-77553823D01*
X119046944Y-77796944D01*
X118803823Y-78160801D01*
X118718450Y-78590000D01*
X118803823Y-79019199D01*
X119046944Y-79383056D01*
X119334209Y-79575000D01*
X119317924Y-79575000D01*
X119280998Y-79567655D01*
X119244072Y-79575000D01*
X119244067Y-79575000D01*
X119134681Y-79596758D01*
X119134679Y-79596759D01*
X119134680Y-79596759D01*
X119041947Y-79658721D01*
X119041946Y-79658722D01*
X119010639Y-79679641D01*
X118989720Y-79710948D01*
X118235949Y-80464720D01*
X118204643Y-80485638D01*
X118198526Y-80494792D01*
X118093056Y-80336944D01*
X117729199Y-80093823D01*
X117408339Y-80030000D01*
X117191661Y-80030000D01*
X116870801Y-80093823D01*
X116506944Y-80336944D01*
X116499999Y-80347338D01*
X116499999Y-79372662D01*
X116506944Y-79383056D01*
X116870801Y-79626177D01*
X117191661Y-79690000D01*
X117408339Y-79690000D01*
X117729199Y-79626177D01*
X118093056Y-79383056D01*
X118336177Y-79019199D01*
X118421550Y-78590000D01*
X118336177Y-78160801D01*
X118093056Y-77796944D01*
X117729199Y-77553823D01*
X117408339Y-77490000D01*
X117191661Y-77490000D01*
X116870801Y-77553823D01*
X116506944Y-77796944D01*
X116499999Y-77807338D01*
X116499999Y-76832662D01*
X116506944Y-76843056D01*
X116870801Y-77086177D01*
X117191661Y-77150000D01*
X117408339Y-77150000D01*
X117729199Y-77086177D01*
X118093056Y-76843056D01*
X118336177Y-76479199D01*
X118421550Y-76050000D01*
X118718450Y-76050000D01*
X118803823Y-76479199D01*
X119046944Y-76843056D01*
X119410801Y-77086177D01*
X119731661Y-77150000D01*
X119948339Y-77150000D01*
X120269199Y-77086177D01*
X120633056Y-76843056D01*
X120876177Y-76479199D01*
X120961550Y-76050000D01*
X120876177Y-75620801D01*
X120633056Y-75256944D01*
X120269199Y-75013823D01*
X119948339Y-74950000D01*
X119731661Y-74950000D01*
X119410801Y-75013823D01*
X119046944Y-75256944D01*
X118803823Y-75620801D01*
X118718450Y-76050000D01*
X118421550Y-76050000D01*
X118336177Y-75620801D01*
X118093056Y-75256944D01*
X117729199Y-75013823D01*
X117408339Y-74950000D01*
X117191661Y-74950000D01*
X116870801Y-75013823D01*
X116506944Y-75256944D01*
X116499999Y-75267338D01*
X116499999Y-74292662D01*
X116506944Y-74303056D01*
X116870801Y-74546177D01*
X117191661Y-74610000D01*
X117408339Y-74610000D01*
X117729199Y-74546177D01*
X118093056Y-74303056D01*
X118336177Y-73939199D01*
X118421550Y-73510000D01*
X118336177Y-73080801D01*
X118093056Y-72716944D01*
X117729199Y-72473823D01*
X117408339Y-72410000D01*
X117191661Y-72410000D01*
X116870801Y-72473823D01*
X116506944Y-72716944D01*
X116499999Y-72727338D01*
X116499999Y-71752662D01*
X116506944Y-71763056D01*
X116870801Y-72006177D01*
X117191661Y-72070000D01*
X117408339Y-72070000D01*
X117729199Y-72006177D01*
X118093056Y-71763056D01*
X118336177Y-71399199D01*
X118421550Y-70970000D01*
X118718450Y-70970000D01*
X118803823Y-71399199D01*
X119046944Y-71763056D01*
X119410801Y-72006177D01*
X119731661Y-72070000D01*
X119948339Y-72070000D01*
X120269199Y-72006177D01*
X120633056Y-71763056D01*
X120876177Y-71399199D01*
X120961550Y-70970000D01*
X120876177Y-70540801D01*
X120633056Y-70176944D01*
X120269199Y-69933823D01*
X119948339Y-69870000D01*
X119731661Y-69870000D01*
X119410801Y-69933823D01*
X119046944Y-70176944D01*
X118803823Y-70540801D01*
X118718450Y-70970000D01*
X118421550Y-70970000D01*
X118336177Y-70540801D01*
X118093056Y-70176944D01*
X117729199Y-69933823D01*
X117408339Y-69870000D01*
X117191661Y-69870000D01*
X116870801Y-69933823D01*
X116506944Y-70176944D01*
X116499999Y-70187338D01*
X116499999Y-69212662D01*
X116506944Y-69223056D01*
X116870801Y-69466177D01*
X117191661Y-69530000D01*
X117408339Y-69530000D01*
X117729199Y-69466177D01*
X118093056Y-69223056D01*
X118336177Y-68859199D01*
X118421550Y-68430000D01*
X118718450Y-68430000D01*
X118803823Y-68859199D01*
X119046944Y-69223056D01*
X119410801Y-69466177D01*
X119731661Y-69530000D01*
X119948339Y-69530000D01*
X120269199Y-69466177D01*
X120633056Y-69223056D01*
X120876177Y-68859199D01*
X120961550Y-68430000D01*
X120876177Y-68000801D01*
X120633056Y-67636944D01*
X120269199Y-67393823D01*
X119948339Y-67330000D01*
X119731661Y-67330000D01*
X119410801Y-67393823D01*
X119046944Y-67636944D01*
X118803823Y-68000801D01*
X118718450Y-68430000D01*
X118421550Y-68430000D01*
X118336177Y-68000801D01*
X118093056Y-67636944D01*
X117729199Y-67393823D01*
X117408339Y-67330000D01*
X117191661Y-67330000D01*
X116870801Y-67393823D01*
X116506944Y-67636944D01*
X116499999Y-67647338D01*
X116499999Y-66672662D01*
X116506944Y-66683056D01*
X116870801Y-66926177D01*
X117191661Y-66990000D01*
X117408339Y-66990000D01*
X117729199Y-66926177D01*
X118093056Y-66683056D01*
X118336177Y-66319199D01*
X118421550Y-65890000D01*
X118336177Y-65460801D01*
X118305476Y-65414854D01*
X118441278Y-65279052D01*
X118441279Y-65279050D01*
X118630331Y-65089999D01*
X119057338Y-65089999D01*
X119046944Y-65096944D01*
X118803823Y-65460801D01*
X118718450Y-65890000D01*
X118803823Y-66319199D01*
X119046944Y-66683056D01*
X119410801Y-66926177D01*
X119731661Y-66990000D01*
X119948339Y-66990000D01*
X120269199Y-66926177D01*
X120633056Y-66683056D01*
X120876177Y-66319199D01*
X120961550Y-65890000D01*
X120876177Y-65460801D01*
X120633056Y-65096944D01*
X120622662Y-65089999D01*
X121643179Y-65089999D01*
X121662998Y-65103242D01*
X121772384Y-65125000D01*
X121772389Y-65125000D01*
X121809315Y-65132345D01*
X121833330Y-65127568D01*
X122006805Y-65301043D01*
X122245707Y-65400000D01*
X122504293Y-65400000D01*
X122738167Y-65303126D01*
X122746758Y-65346316D01*
X122746759Y-65346317D01*
X122746759Y-65346318D01*
X122794425Y-65417655D01*
X122829641Y-65470359D01*
X122860950Y-65491279D01*
X123000000Y-65630329D01*
X123000000Y-65879293D01*
X123098957Y-66118195D01*
X123281805Y-66301043D01*
X123520707Y-66400000D01*
X123779293Y-66400000D01*
X124018195Y-66301043D01*
X124201043Y-66118195D01*
X124300000Y-65879293D01*
X124300000Y-65620707D01*
X124201043Y-65381805D01*
X124018195Y-65198957D01*
X123779293Y-65100000D01*
X123530329Y-65100000D01*
X123475000Y-65044671D01*
X123475000Y-61936925D01*
X123482345Y-61899999D01*
X123475000Y-61863073D01*
X123475000Y-61863069D01*
X123453242Y-61753683D01*
X123453241Y-61753681D01*
X123391279Y-61660948D01*
X123391276Y-61660945D01*
X123370359Y-61629641D01*
X123339055Y-61608724D01*
X122641279Y-60910950D01*
X122620359Y-60879641D01*
X122496317Y-60796758D01*
X122386936Y-60775001D01*
X126700000Y-60775001D01*
X126700000Y-60929293D01*
G36*
X137902455Y-58435494D02*
X138000000Y-58454897D01*
X138118629Y-58454897D01*
X138125000Y-58486926D01*
X138125000Y-58486930D01*
X138146758Y-58596316D01*
X138146759Y-58596317D01*
X138146759Y-58596318D01*
X138196232Y-58670359D01*
X138229641Y-58720359D01*
X138260950Y-58741279D01*
X138719670Y-59200000D01*
X138470707Y-59200000D01*
X138231805Y-59298957D01*
X138048957Y-59481805D01*
X137950000Y-59720707D01*
X137950000Y-59979293D01*
X138048957Y-60218195D01*
X138225001Y-60394239D01*
X138225000Y-62013073D01*
X138217655Y-62050000D01*
X138225000Y-62086926D01*
X138225000Y-62086930D01*
X138246758Y-62196316D01*
X138246759Y-62196317D01*
X138246759Y-62196318D01*
X138251270Y-62203069D01*
X138329641Y-62320359D01*
X138360950Y-62341279D01*
X139208724Y-63189055D01*
X139229641Y-63220359D01*
X139260945Y-63241276D01*
X139260948Y-63241279D01*
X139353681Y-63303241D01*
X139353682Y-63303241D01*
X139353683Y-63303242D01*
X139463069Y-63325000D01*
X139463073Y-63325000D01*
X139499999Y-63332345D01*
X139536925Y-63325000D01*
X141644671Y-63325000D01*
X143000000Y-64680330D01*
X142999999Y-75650000D01*
X142845707Y-75650000D01*
X142606805Y-75748957D01*
X142423957Y-75931805D01*
X142325000Y-76170707D01*
X142325000Y-76429293D01*
X142423957Y-76668195D01*
X142606805Y-76851043D01*
X142845707Y-76950000D01*
X143104293Y-76950000D01*
X143343195Y-76851043D01*
X143526043Y-76668195D01*
X143625000Y-76429293D01*
X143625000Y-76183963D01*
X143645358Y-76170360D01*
X143654210Y-76157112D01*
X143654210Y-77294671D01*
X143620489Y-77260950D01*
X143599569Y-77229641D01*
X143475527Y-77146758D01*
X143366141Y-77125000D01*
X143366136Y-77125000D01*
X143329210Y-77117655D01*
X143292284Y-77125000D01*
X133233740Y-77125000D01*
X133285494Y-77047545D01*
X133304897Y-76950000D01*
X133304897Y-76075432D01*
X133822313Y-75558017D01*
X133846317Y-75553242D01*
X133970359Y-75470359D01*
X133991280Y-75439050D01*
X134955330Y-74475000D01*
X137213074Y-74475000D01*
X137250000Y-74482345D01*
X137286926Y-74475000D01*
X141463074Y-74475000D01*
X141500000Y-74482345D01*
X141536926Y-74475000D01*
X141536931Y-74475000D01*
X141646317Y-74453242D01*
X141770359Y-74370359D01*
X141791279Y-74339050D01*
X142039052Y-74091277D01*
X142070359Y-74070359D01*
X142137178Y-73970359D01*
X142153241Y-73946319D01*
X142153241Y-73946318D01*
X142153242Y-73946317D01*
X142175000Y-73836931D01*
X142175000Y-73836927D01*
X142182345Y-73800001D01*
X142175000Y-73763074D01*
X142175000Y-69886925D01*
X142182345Y-69849999D01*
X142175000Y-69813073D01*
X142175000Y-69813069D01*
X142153242Y-69703683D01*
X142153241Y-69703681D01*
X142091279Y-69610949D01*
X142091278Y-69610948D01*
X142070359Y-69579641D01*
X142039052Y-69558722D01*
X141641279Y-69160950D01*
X141620359Y-69129641D01*
X141496317Y-69046758D01*
X141386931Y-69025000D01*
X141386926Y-69025000D01*
X141354897Y-69018629D01*
X141354897Y-69000000D01*
X141335494Y-68902455D01*
X141280239Y-68819761D01*
X141197545Y-68764506D01*
X141100000Y-68745103D01*
X140200000Y-68745103D01*
X140102455Y-68764506D01*
X140019761Y-68819761D01*
X139964506Y-68902455D01*
X139945103Y-69000000D01*
X139945103Y-69800000D01*
X139964506Y-69897545D01*
X140019761Y-69980239D01*
X140102455Y-70035494D01*
X140200000Y-70054897D01*
X141100000Y-70054897D01*
X141197545Y-70035494D01*
X141280239Y-69980239D01*
X141328173Y-69908502D01*
X141425001Y-70005331D01*
X141425000Y-73644670D01*
X141344671Y-73725000D01*
X140394131Y-73725000D01*
X140433049Y-73686082D01*
X140460608Y-73619548D01*
X140487500Y-73624897D01*
X140782500Y-73624897D01*
X140936491Y-73594266D01*
X141067038Y-73507038D01*
X141154266Y-73376491D01*
X141184897Y-73222500D01*
X141184897Y-72877500D01*
X141154266Y-72723509D01*
X141067038Y-72592962D01*
X141025000Y-72564873D01*
X141025000Y-71954897D01*
X141100000Y-71954897D01*
X141197545Y-71935494D01*
X141280239Y-71880239D01*
X141335494Y-71797545D01*
X141354897Y-71700000D01*
X141354897Y-70900000D01*
X141335494Y-70802455D01*
X141280239Y-70719761D01*
X141197545Y-70664506D01*
X141100000Y-70645103D01*
X140200000Y-70645103D01*
X140102455Y-70664506D01*
X140019761Y-70719761D01*
X139964506Y-70802455D01*
X139945103Y-70900000D01*
X139945103Y-71700000D01*
X139964506Y-71797545D01*
X140019761Y-71880239D01*
X140102455Y-71935494D01*
X140200000Y-71954897D01*
X140275000Y-71954897D01*
X140275001Y-72256502D01*
X140070993Y-72172000D01*
X139952000Y-72172000D01*
X139812500Y-72311500D01*
X139812500Y-72890000D01*
X139889000Y-72890000D01*
X139889000Y-73210000D01*
X139812500Y-73210000D01*
X139812500Y-73274000D01*
X139517500Y-73274000D01*
X139517500Y-73210000D01*
X138951500Y-73210000D01*
X138812000Y-73349500D01*
X138812000Y-73480993D01*
X138896951Y-73686082D01*
X138935869Y-73725000D01*
X138027372Y-73725000D01*
X138032345Y-73700001D01*
X138025000Y-73663075D01*
X138025000Y-72619007D01*
X138812000Y-72619007D01*
X138812000Y-72750500D01*
X138951500Y-72890000D01*
X139517500Y-72890000D01*
X139517500Y-72311500D01*
X139378000Y-72172000D01*
X139259007Y-72172000D01*
X139053918Y-72256950D01*
X138896951Y-72413918D01*
X138812000Y-72619007D01*
X138025000Y-72619007D01*
X138025000Y-70933740D01*
X138102455Y-70985494D01*
X138200000Y-71004897D01*
X139100000Y-71004897D01*
X139197545Y-70985494D01*
X139280239Y-70930239D01*
X139335494Y-70847545D01*
X139354897Y-70750000D01*
X139354897Y-69950000D01*
X139335494Y-69852455D01*
X139280239Y-69769761D01*
X139197545Y-69714506D01*
X139100000Y-69695103D01*
X139031371Y-69695103D01*
X139025000Y-69663074D01*
X139025000Y-69663069D01*
X139003242Y-69553683D01*
X138920359Y-69429641D01*
X138889052Y-69408722D01*
X134625000Y-65144671D01*
X134625000Y-61055329D01*
X135755330Y-59925000D01*
X136963074Y-59925000D01*
X137000000Y-59932345D01*
X137036926Y-59925000D01*
X137036931Y-59925000D01*
X137146317Y-59903242D01*
X137270359Y-59820359D01*
X137291280Y-59789049D01*
X137439050Y-59641279D01*
X137470359Y-59620359D01*
X137553242Y-59496317D01*
X137575000Y-59386931D01*
X137575000Y-59386926D01*
X137582345Y-59350000D01*
X137575000Y-59313074D01*
X137575000Y-58454897D01*
X137700000Y-58454897D01*
X137797545Y-58435494D01*
X137850000Y-58400444D01*
X137902455Y-58435494D01*
X137902455Y-58435494D01*
G37*
X137902455Y-58435494D02*
X138000000Y-58454897D01*
X138118629Y-58454897D01*
X138125000Y-58486926D01*
X138125000Y-58486930D01*
X138146758Y-58596316D01*
X138146759Y-58596317D01*
X138146759Y-58596318D01*
X138196232Y-58670359D01*
X138229641Y-58720359D01*
X138260950Y-58741279D01*
X138719670Y-59200000D01*
X138470707Y-59200000D01*
X138231805Y-59298957D01*
X138048957Y-59481805D01*
X137950000Y-59720707D01*
X137950000Y-59979293D01*
X138048957Y-60218195D01*
X138225001Y-60394239D01*
X138225000Y-62013073D01*
X138217655Y-62050000D01*
X138225000Y-62086926D01*
X138225000Y-62086930D01*
X138246758Y-62196316D01*
X138246759Y-62196317D01*
X138246759Y-62196318D01*
X138251270Y-62203069D01*
X138329641Y-62320359D01*
X138360950Y-62341279D01*
X139208724Y-63189055D01*
X139229641Y-63220359D01*
X139260945Y-63241276D01*
X139260948Y-63241279D01*
X139353681Y-63303241D01*
X139353682Y-63303241D01*
X139353683Y-63303242D01*
X139463069Y-63325000D01*
X139463073Y-63325000D01*
X139499999Y-63332345D01*
X139536925Y-63325000D01*
X141644671Y-63325000D01*
X143000000Y-64680330D01*
X142999999Y-75650000D01*
X142845707Y-75650000D01*
X142606805Y-75748957D01*
X142423957Y-75931805D01*
X142325000Y-76170707D01*
X142325000Y-76429293D01*
X142423957Y-76668195D01*
X142606805Y-76851043D01*
X142845707Y-76950000D01*
X143104293Y-76950000D01*
X143343195Y-76851043D01*
X143526043Y-76668195D01*
X143625000Y-76429293D01*
X143625000Y-76183963D01*
X143645358Y-76170360D01*
X143654210Y-76157112D01*
X143654210Y-77294671D01*
X143620489Y-77260950D01*
X143599569Y-77229641D01*
X143475527Y-77146758D01*
X143366141Y-77125000D01*
X143366136Y-77125000D01*
X143329210Y-77117655D01*
X143292284Y-77125000D01*
X133233740Y-77125000D01*
X133285494Y-77047545D01*
X133304897Y-76950000D01*
X133304897Y-76075432D01*
X133822313Y-75558017D01*
X133846317Y-75553242D01*
X133970359Y-75470359D01*
X133991280Y-75439050D01*
X134955330Y-74475000D01*
X137213074Y-74475000D01*
X137250000Y-74482345D01*
X137286926Y-74475000D01*
X141463074Y-74475000D01*
X141500000Y-74482345D01*
X141536926Y-74475000D01*
X141536931Y-74475000D01*
X141646317Y-74453242D01*
X141770359Y-74370359D01*
X141791279Y-74339050D01*
X142039052Y-74091277D01*
X142070359Y-74070359D01*
X142137178Y-73970359D01*
X142153241Y-73946319D01*
X142153241Y-73946318D01*
X142153242Y-73946317D01*
X142175000Y-73836931D01*
X142175000Y-73836927D01*
X142182345Y-73800001D01*
X142175000Y-73763074D01*
X142175000Y-69886925D01*
X142182345Y-69849999D01*
X142175000Y-69813073D01*
X142175000Y-69813069D01*
X142153242Y-69703683D01*
X142153241Y-69703681D01*
X142091279Y-69610949D01*
X142091278Y-69610948D01*
X142070359Y-69579641D01*
X142039052Y-69558722D01*
X141641279Y-69160950D01*
X141620359Y-69129641D01*
X141496317Y-69046758D01*
X141386931Y-69025000D01*
X141386926Y-69025000D01*
X141354897Y-69018629D01*
X141354897Y-69000000D01*
X141335494Y-68902455D01*
X141280239Y-68819761D01*
X141197545Y-68764506D01*
X141100000Y-68745103D01*
X140200000Y-68745103D01*
X140102455Y-68764506D01*
X140019761Y-68819761D01*
X139964506Y-68902455D01*
X139945103Y-69000000D01*
X139945103Y-69800000D01*
X139964506Y-69897545D01*
X140019761Y-69980239D01*
X140102455Y-70035494D01*
X140200000Y-70054897D01*
X141100000Y-70054897D01*
X141197545Y-70035494D01*
X141280239Y-69980239D01*
X141328173Y-69908502D01*
X141425001Y-70005331D01*
X141425000Y-73644670D01*
X141344671Y-73725000D01*
X140394131Y-73725000D01*
X140433049Y-73686082D01*
X140460608Y-73619548D01*
X140487500Y-73624897D01*
X140782500Y-73624897D01*
X140936491Y-73594266D01*
X141067038Y-73507038D01*
X141154266Y-73376491D01*
X141184897Y-73222500D01*
X141184897Y-72877500D01*
X141154266Y-72723509D01*
X141067038Y-72592962D01*
X141025000Y-72564873D01*
X141025000Y-71954897D01*
X141100000Y-71954897D01*
X141197545Y-71935494D01*
X141280239Y-71880239D01*
X141335494Y-71797545D01*
X141354897Y-71700000D01*
X141354897Y-70900000D01*
X141335494Y-70802455D01*
X141280239Y-70719761D01*
X141197545Y-70664506D01*
X141100000Y-70645103D01*
X140200000Y-70645103D01*
X140102455Y-70664506D01*
X140019761Y-70719761D01*
X139964506Y-70802455D01*
X139945103Y-70900000D01*
X139945103Y-71700000D01*
X139964506Y-71797545D01*
X140019761Y-71880239D01*
X140102455Y-71935494D01*
X140200000Y-71954897D01*
X140275000Y-71954897D01*
X140275001Y-72256502D01*
X140070993Y-72172000D01*
X139952000Y-72172000D01*
X139812500Y-72311500D01*
X139812500Y-72890000D01*
X139889000Y-72890000D01*
X139889000Y-73210000D01*
X139812500Y-73210000D01*
X139812500Y-73274000D01*
X139517500Y-73274000D01*
X139517500Y-73210000D01*
X138951500Y-73210000D01*
X138812000Y-73349500D01*
X138812000Y-73480993D01*
X138896951Y-73686082D01*
X138935869Y-73725000D01*
X138027372Y-73725000D01*
X138032345Y-73700001D01*
X138025000Y-73663075D01*
X138025000Y-72619007D01*
X138812000Y-72619007D01*
X138812000Y-72750500D01*
X138951500Y-72890000D01*
X139517500Y-72890000D01*
X139517500Y-72311500D01*
X139378000Y-72172000D01*
X139259007Y-72172000D01*
X139053918Y-72256950D01*
X138896951Y-72413918D01*
X138812000Y-72619007D01*
X138025000Y-72619007D01*
X138025000Y-70933740D01*
X138102455Y-70985494D01*
X138200000Y-71004897D01*
X139100000Y-71004897D01*
X139197545Y-70985494D01*
X139280239Y-70930239D01*
X139335494Y-70847545D01*
X139354897Y-70750000D01*
X139354897Y-69950000D01*
X139335494Y-69852455D01*
X139280239Y-69769761D01*
X139197545Y-69714506D01*
X139100000Y-69695103D01*
X139031371Y-69695103D01*
X139025000Y-69663074D01*
X139025000Y-69663069D01*
X139003242Y-69553683D01*
X138920359Y-69429641D01*
X138889052Y-69408722D01*
X134625000Y-65144671D01*
X134625000Y-61055329D01*
X135755330Y-59925000D01*
X136963074Y-59925000D01*
X137000000Y-59932345D01*
X137036926Y-59925000D01*
X137036931Y-59925000D01*
X137146317Y-59903242D01*
X137270359Y-59820359D01*
X137291280Y-59789049D01*
X137439050Y-59641279D01*
X137470359Y-59620359D01*
X137553242Y-59496317D01*
X137575000Y-59386931D01*
X137575000Y-59386926D01*
X137582345Y-59350000D01*
X137575000Y-59313074D01*
X137575000Y-58454897D01*
X137700000Y-58454897D01*
X137797545Y-58435494D01*
X137850000Y-58400444D01*
X137902455Y-58435494D01*
G36*
X134010948Y-60608722D02*
X133979642Y-60629641D01*
X133958723Y-60660948D01*
X133958721Y-60660950D01*
X133896759Y-60753682D01*
X133867655Y-60900000D01*
X133875001Y-60936931D01*
X133875000Y-65263074D01*
X133867655Y-65300000D01*
X133875000Y-65336926D01*
X133875000Y-65336930D01*
X133896758Y-65446316D01*
X133896759Y-65446317D01*
X133896759Y-65446318D01*
X133912823Y-65470359D01*
X133979641Y-65570359D01*
X134010951Y-65591280D01*
X138128913Y-69709243D01*
X138102455Y-69714506D01*
X138019761Y-69769761D01*
X137964506Y-69852455D01*
X137945103Y-69950000D01*
X137945103Y-70166671D01*
X137941279Y-70160948D01*
X137941276Y-70160945D01*
X137920359Y-70129641D01*
X137889055Y-70108724D01*
X137254897Y-69474567D01*
X137254897Y-68950000D01*
X137235494Y-68852455D01*
X137180239Y-68769761D01*
X137097545Y-68714506D01*
X137000000Y-68695103D01*
X136100000Y-68695103D01*
X136002455Y-68714506D01*
X135919761Y-68769761D01*
X135864506Y-68852455D01*
X135845103Y-68950000D01*
X135845103Y-69750000D01*
X135864506Y-69847545D01*
X135919761Y-69930239D01*
X136002455Y-69985494D01*
X136100000Y-70004897D01*
X136724567Y-70004897D01*
X137275001Y-70555332D01*
X137275000Y-73544670D01*
X137094671Y-73725000D01*
X136294132Y-73725000D01*
X136383049Y-73636082D01*
X136410608Y-73569548D01*
X136437500Y-73574897D01*
X136732500Y-73574897D01*
X136886491Y-73544266D01*
X137017038Y-73457038D01*
X137104266Y-73326491D01*
X137134897Y-73172500D01*
X137134897Y-72827500D01*
X137104266Y-72673509D01*
X137017038Y-72542962D01*
X136925000Y-72481465D01*
X136925000Y-71904897D01*
X137000000Y-71904897D01*
X137097545Y-71885494D01*
X137180239Y-71830239D01*
X137235494Y-71747545D01*
X137254897Y-71650000D01*
X137254897Y-70850000D01*
X137235494Y-70752455D01*
X137180239Y-70669761D01*
X137097545Y-70614506D01*
X137000000Y-70595103D01*
X136100000Y-70595103D01*
X136002455Y-70614506D01*
X135919761Y-70669761D01*
X135864506Y-70752455D01*
X135845103Y-70850000D01*
X135845103Y-71650000D01*
X135864506Y-71747545D01*
X135919761Y-71830239D01*
X136002455Y-71885494D01*
X136100000Y-71904897D01*
X136175000Y-71904897D01*
X136175001Y-72185792D01*
X136020993Y-72122000D01*
X135902000Y-72122000D01*
X135762500Y-72261500D01*
X135762500Y-72840000D01*
X135839000Y-72840000D01*
X135839000Y-73160000D01*
X135762500Y-73160000D01*
X135762500Y-73224000D01*
X135467500Y-73224000D01*
X135467500Y-73160000D01*
X134901500Y-73160000D01*
X134762000Y-73299500D01*
X134762000Y-73430993D01*
X134846951Y-73636082D01*
X134935868Y-73725000D01*
X134836926Y-73725000D01*
X134800000Y-73717655D01*
X134763073Y-73725000D01*
X134763069Y-73725000D01*
X134653683Y-73746758D01*
X134653682Y-73746759D01*
X134653681Y-73746759D01*
X134560949Y-73808721D01*
X134560948Y-73808722D01*
X134529641Y-73829641D01*
X134508722Y-73860948D01*
X134025000Y-74344670D01*
X134025000Y-72569007D01*
X134762000Y-72569007D01*
X134762000Y-72700500D01*
X134901500Y-72840000D01*
X135467500Y-72840000D01*
X135467500Y-72261500D01*
X135328000Y-72122000D01*
X135209007Y-72122000D01*
X135003918Y-72206950D01*
X134846951Y-72363918D01*
X134762000Y-72569007D01*
X134025000Y-72569007D01*
X134025000Y-70939979D01*
X134100000Y-70954897D01*
X135000000Y-70954897D01*
X135097545Y-70935494D01*
X135180239Y-70880239D01*
X135235494Y-70797545D01*
X135254897Y-70700000D01*
X135254897Y-69900000D01*
X135235494Y-69802455D01*
X135180239Y-69719761D01*
X135097545Y-69664506D01*
X135000000Y-69645103D01*
X134925000Y-69645103D01*
X134925000Y-68036926D01*
X134932345Y-68000000D01*
X134925000Y-67963074D01*
X134925000Y-67963069D01*
X134903242Y-67853683D01*
X134820359Y-67729641D01*
X134789053Y-67708723D01*
X133775000Y-66694671D01*
X133775000Y-61250515D01*
X133782345Y-61213589D01*
X133775000Y-61176663D01*
X133775000Y-61176659D01*
X133753242Y-61067273D01*
X133710752Y-61003682D01*
X133691278Y-60974538D01*
X133670359Y-60943231D01*
X133639053Y-60922313D01*
X133077689Y-60360950D01*
X133056769Y-60329641D01*
X132932727Y-60246758D01*
X132823341Y-60225000D01*
X132823336Y-60225000D01*
X132786410Y-60217655D01*
X132749484Y-60225000D01*
X131339979Y-60225000D01*
X131354897Y-60150000D01*
X131354897Y-59781371D01*
X131386926Y-59775000D01*
X131386931Y-59775000D01*
X131496317Y-59753242D01*
X131620359Y-59670359D01*
X131641279Y-59639050D01*
X131805330Y-59475000D01*
X135144670Y-59475000D01*
X134010948Y-60608722D01*
X134010948Y-60608722D01*
G37*
X134010948Y-60608722D02*
X133979642Y-60629641D01*
X133958723Y-60660948D01*
X133958721Y-60660950D01*
X133896759Y-60753682D01*
X133867655Y-60900000D01*
X133875001Y-60936931D01*
X133875000Y-65263074D01*
X133867655Y-65300000D01*
X133875000Y-65336926D01*
X133875000Y-65336930D01*
X133896758Y-65446316D01*
X133896759Y-65446317D01*
X133896759Y-65446318D01*
X133912823Y-65470359D01*
X133979641Y-65570359D01*
X134010951Y-65591280D01*
X138128913Y-69709243D01*
X138102455Y-69714506D01*
X138019761Y-69769761D01*
X137964506Y-69852455D01*
X137945103Y-69950000D01*
X137945103Y-70166671D01*
X137941279Y-70160948D01*
X137941276Y-70160945D01*
X137920359Y-70129641D01*
X137889055Y-70108724D01*
X137254897Y-69474567D01*
X137254897Y-68950000D01*
X137235494Y-68852455D01*
X137180239Y-68769761D01*
X137097545Y-68714506D01*
X137000000Y-68695103D01*
X136100000Y-68695103D01*
X136002455Y-68714506D01*
X135919761Y-68769761D01*
X135864506Y-68852455D01*
X135845103Y-68950000D01*
X135845103Y-69750000D01*
X135864506Y-69847545D01*
X135919761Y-69930239D01*
X136002455Y-69985494D01*
X136100000Y-70004897D01*
X136724567Y-70004897D01*
X137275001Y-70555332D01*
X137275000Y-73544670D01*
X137094671Y-73725000D01*
X136294132Y-73725000D01*
X136383049Y-73636082D01*
X136410608Y-73569548D01*
X136437500Y-73574897D01*
X136732500Y-73574897D01*
X136886491Y-73544266D01*
X137017038Y-73457038D01*
X137104266Y-73326491D01*
X137134897Y-73172500D01*
X137134897Y-72827500D01*
X137104266Y-72673509D01*
X137017038Y-72542962D01*
X136925000Y-72481465D01*
X136925000Y-71904897D01*
X137000000Y-71904897D01*
X137097545Y-71885494D01*
X137180239Y-71830239D01*
X137235494Y-71747545D01*
X137254897Y-71650000D01*
X137254897Y-70850000D01*
X137235494Y-70752455D01*
X137180239Y-70669761D01*
X137097545Y-70614506D01*
X137000000Y-70595103D01*
X136100000Y-70595103D01*
X136002455Y-70614506D01*
X135919761Y-70669761D01*
X135864506Y-70752455D01*
X135845103Y-70850000D01*
X135845103Y-71650000D01*
X135864506Y-71747545D01*
X135919761Y-71830239D01*
X136002455Y-71885494D01*
X136100000Y-71904897D01*
X136175000Y-71904897D01*
X136175001Y-72185792D01*
X136020993Y-72122000D01*
X135902000Y-72122000D01*
X135762500Y-72261500D01*
X135762500Y-72840000D01*
X135839000Y-72840000D01*
X135839000Y-73160000D01*
X135762500Y-73160000D01*
X135762500Y-73224000D01*
X135467500Y-73224000D01*
X135467500Y-73160000D01*
X134901500Y-73160000D01*
X134762000Y-73299500D01*
X134762000Y-73430993D01*
X134846951Y-73636082D01*
X134935868Y-73725000D01*
X134836926Y-73725000D01*
X134800000Y-73717655D01*
X134763073Y-73725000D01*
X134763069Y-73725000D01*
X134653683Y-73746758D01*
X134653682Y-73746759D01*
X134653681Y-73746759D01*
X134560949Y-73808721D01*
X134560948Y-73808722D01*
X134529641Y-73829641D01*
X134508722Y-73860948D01*
X134025000Y-74344670D01*
X134025000Y-72569007D01*
X134762000Y-72569007D01*
X134762000Y-72700500D01*
X134901500Y-72840000D01*
X135467500Y-72840000D01*
X135467500Y-72261500D01*
X135328000Y-72122000D01*
X135209007Y-72122000D01*
X135003918Y-72206950D01*
X134846951Y-72363918D01*
X134762000Y-72569007D01*
X134025000Y-72569007D01*
X134025000Y-70939979D01*
X134100000Y-70954897D01*
X135000000Y-70954897D01*
X135097545Y-70935494D01*
X135180239Y-70880239D01*
X135235494Y-70797545D01*
X135254897Y-70700000D01*
X135254897Y-69900000D01*
X135235494Y-69802455D01*
X135180239Y-69719761D01*
X135097545Y-69664506D01*
X135000000Y-69645103D01*
X134925000Y-69645103D01*
X134925000Y-68036926D01*
X134932345Y-68000000D01*
X134925000Y-67963074D01*
X134925000Y-67963069D01*
X134903242Y-67853683D01*
X134820359Y-67729641D01*
X134789053Y-67708723D01*
X133775000Y-66694671D01*
X133775000Y-61250515D01*
X133782345Y-61213589D01*
X133775000Y-61176663D01*
X133775000Y-61176659D01*
X133753242Y-61067273D01*
X133710752Y-61003682D01*
X133691278Y-60974538D01*
X133670359Y-60943231D01*
X133639053Y-60922313D01*
X133077689Y-60360950D01*
X133056769Y-60329641D01*
X132932727Y-60246758D01*
X132823341Y-60225000D01*
X132823336Y-60225000D01*
X132786410Y-60217655D01*
X132749484Y-60225000D01*
X131339979Y-60225000D01*
X131354897Y-60150000D01*
X131354897Y-59781371D01*
X131386926Y-59775000D01*
X131386931Y-59775000D01*
X131496317Y-59753242D01*
X131620359Y-59670359D01*
X131641279Y-59639050D01*
X131805330Y-59475000D01*
X135144670Y-59475000D01*
X134010948Y-60608722D01*
G36*
X128158722Y-63139052D02*
X128179641Y-63170359D01*
X128210948Y-63191278D01*
X128210949Y-63191279D01*
X128303681Y-63253241D01*
X128303682Y-63253241D01*
X128303683Y-63253242D01*
X128413069Y-63275000D01*
X128413073Y-63275000D01*
X128450000Y-63282345D01*
X128486926Y-63275000D01*
X130325000Y-63275000D01*
X130325001Y-65355761D01*
X130148957Y-65531805D01*
X130050000Y-65770707D01*
X130050000Y-66029293D01*
X130148957Y-66268195D01*
X130205762Y-66325000D01*
X129436925Y-66325000D01*
X129399999Y-66317655D01*
X129363073Y-66325000D01*
X129363069Y-66325000D01*
X129253683Y-66346758D01*
X129253682Y-66346759D01*
X129253681Y-66346759D01*
X129160948Y-66408721D01*
X129160945Y-66408724D01*
X129129641Y-66429641D01*
X129108724Y-66460945D01*
X127975000Y-67594671D01*
X127975000Y-67136925D01*
X127982345Y-67099999D01*
X127975000Y-67063073D01*
X127975000Y-67063069D01*
X127953242Y-66953683D01*
X127908640Y-66886931D01*
X127891278Y-66860948D01*
X127870359Y-66829641D01*
X127839052Y-66808722D01*
X127725000Y-66694671D01*
X127725000Y-62705330D01*
X128158722Y-63139052D01*
X128158722Y-63139052D01*
G37*
X128158722Y-63139052D02*
X128179641Y-63170359D01*
X128210948Y-63191278D01*
X128210949Y-63191279D01*
X128303681Y-63253241D01*
X128303682Y-63253241D01*
X128303683Y-63253242D01*
X128413069Y-63275000D01*
X128413073Y-63275000D01*
X128450000Y-63282345D01*
X128486926Y-63275000D01*
X130325000Y-63275000D01*
X130325001Y-65355761D01*
X130148957Y-65531805D01*
X130050000Y-65770707D01*
X130050000Y-66029293D01*
X130148957Y-66268195D01*
X130205762Y-66325000D01*
X129436925Y-66325000D01*
X129399999Y-66317655D01*
X129363073Y-66325000D01*
X129363069Y-66325000D01*
X129253683Y-66346758D01*
X129253682Y-66346759D01*
X129253681Y-66346759D01*
X129160948Y-66408721D01*
X129160945Y-66408724D01*
X129129641Y-66429641D01*
X129108724Y-66460945D01*
X127975000Y-67594671D01*
X127975000Y-67136925D01*
X127982345Y-67099999D01*
X127975000Y-67063073D01*
X127975000Y-67063069D01*
X127953242Y-66953683D01*
X127908640Y-66886931D01*
X127891278Y-66860948D01*
X127870359Y-66829641D01*
X127839052Y-66808722D01*
X127725000Y-66694671D01*
X127725000Y-62705330D01*
X128158722Y-63139052D01*
G36*
X122725001Y-62055332D02*
X122725000Y-64191420D01*
X122504293Y-64100000D01*
X122245707Y-64100000D01*
X122006805Y-64198957D01*
X121856718Y-64349044D01*
X121811245Y-64339999D01*
X121811240Y-64339999D01*
X121774314Y-64332654D01*
X121737388Y-64339999D01*
X120815564Y-64339999D01*
X121086998Y-64003839D01*
X121184078Y-63769424D01*
X121091989Y-63554000D01*
X120044000Y-63554000D01*
X120044000Y-63574000D01*
X119636000Y-63574000D01*
X119636000Y-63554000D01*
X118588011Y-63554000D01*
X118495922Y-63769424D01*
X118593002Y-64003839D01*
X118864436Y-64339999D01*
X118511926Y-64339999D01*
X118475000Y-64332654D01*
X118438074Y-64339999D01*
X118438070Y-64339999D01*
X118344720Y-64358567D01*
X118385494Y-64297545D01*
X118404897Y-64200000D01*
X118404897Y-62930576D01*
X118495922Y-62930576D01*
X118588011Y-63146000D01*
X119636000Y-63146000D01*
X119636000Y-62096340D01*
X120044000Y-62096340D01*
X120044000Y-63146000D01*
X121091989Y-63146000D01*
X121184078Y-62930576D01*
X121086998Y-62696161D01*
X120741863Y-62268726D01*
X120259427Y-62005905D01*
X120044000Y-62096340D01*
X119636000Y-62096340D01*
X119420573Y-62005905D01*
X118938137Y-62268726D01*
X118593002Y-62696161D01*
X118495922Y-62930576D01*
X118404897Y-62930576D01*
X118404897Y-62500000D01*
X118385494Y-62402455D01*
X118330239Y-62319761D01*
X118247545Y-62264506D01*
X118150000Y-62245103D01*
X117675000Y-62245103D01*
X117675000Y-62005329D01*
X118155330Y-61525000D01*
X122194671Y-61525000D01*
X122725001Y-62055332D01*
X122725001Y-62055332D01*
G37*
X122725001Y-62055332D02*
X122725000Y-64191420D01*
X122504293Y-64100000D01*
X122245707Y-64100000D01*
X122006805Y-64198957D01*
X121856718Y-64349044D01*
X121811245Y-64339999D01*
X121811240Y-64339999D01*
X121774314Y-64332654D01*
X121737388Y-64339999D01*
X120815564Y-64339999D01*
X121086998Y-64003839D01*
X121184078Y-63769424D01*
X121091989Y-63554000D01*
X120044000Y-63554000D01*
X120044000Y-63574000D01*
X119636000Y-63574000D01*
X119636000Y-63554000D01*
X118588011Y-63554000D01*
X118495922Y-63769424D01*
X118593002Y-64003839D01*
X118864436Y-64339999D01*
X118511926Y-64339999D01*
X118475000Y-64332654D01*
X118438074Y-64339999D01*
X118438070Y-64339999D01*
X118344720Y-64358567D01*
X118385494Y-64297545D01*
X118404897Y-64200000D01*
X118404897Y-62930576D01*
X118495922Y-62930576D01*
X118588011Y-63146000D01*
X119636000Y-63146000D01*
X119636000Y-62096340D01*
X120044000Y-62096340D01*
X120044000Y-63146000D01*
X121091989Y-63146000D01*
X121184078Y-62930576D01*
X121086998Y-62696161D01*
X120741863Y-62268726D01*
X120259427Y-62005905D01*
X120044000Y-62096340D01*
X119636000Y-62096340D01*
X119420573Y-62005905D01*
X118938137Y-62268726D01*
X118593002Y-62696161D01*
X118495922Y-62930576D01*
X118404897Y-62930576D01*
X118404897Y-62500000D01*
X118385494Y-62402455D01*
X118330239Y-62319761D01*
X118247545Y-62264506D01*
X118150000Y-62245103D01*
X117675000Y-62245103D01*
X117675000Y-62005329D01*
X118155330Y-61525000D01*
X122194671Y-61525000D01*
X122725001Y-62055332D01*
G04 #@! TD*
M02*
