%FSLAX45Y45*%
G04 Gerber Fmt 4.5, Leading zero omitted, Abs format (unit mm)*
G04 Created by KiCad (PCBNEW 5.0.2+dfsg1-1) date Thu 28 Mar 2019 13:57:38 GMT*
%MOMM*%
%LPD*%
G01*
G04 APERTURE LIST*
%ADD10C,0.150000*%
%ADD11C,0.200000*%
%ADD12C,0.300000*%
G04 APERTURE END LIST*
D10*
X14500000Y-5700000D02*
X14500000Y-11795000D01*
X11700000Y-5500000D02*
X14305000Y-5500000D01*
X11500000Y-11800000D02*
X11500000Y-5700000D01*
X14300000Y-12000000D02*
X11705000Y-12000000D01*
D11*
X14358114Y-5800000D02*
G75*
G03X14358114Y-5800000I-158114J0D01*
G01*
X11951327Y-11700000D02*
G75*
G03X11951327Y-11700000I-151328J0D01*
G01*
X11961555Y-5800000D02*
G75*
G03X11961555Y-5800000I-161555J0D01*
G01*
D10*
X11500000Y-5700000D02*
G75*
G02X11700000Y-5500000I200000J0D01*
G01*
X14300000Y-5500000D02*
G75*
G02X14500000Y-5700000I0J-200000D01*
G01*
X14500000Y-11800000D02*
G75*
G02X14300000Y-12000000I-200000J0D01*
G01*
X11700000Y-12000000D02*
G75*
G02X11500000Y-11800000I0J200000D01*
G01*
D11*
X13930000Y-11060000D02*
X14010000Y-11140000D01*
X14010000Y-11060000D02*
X13930000Y-11140000D01*
X13930000Y-11560000D02*
X14010000Y-11640000D01*
X14010000Y-11560000D02*
X13930000Y-11640000D01*
D12*
X11778928Y-12473214D02*
X11778928Y-12173214D01*
X11850357Y-12173214D01*
X11893214Y-12187500D01*
X11921786Y-12216071D01*
X11936071Y-12244643D01*
X11950357Y-12301786D01*
X11950357Y-12344643D01*
X11936071Y-12401786D01*
X11921786Y-12430357D01*
X11893214Y-12458929D01*
X11850357Y-12473214D01*
X11778928Y-12473214D01*
X12078928Y-12473214D02*
X12078928Y-12273214D01*
X12078928Y-12330357D02*
X12093214Y-12301786D01*
X12107500Y-12287500D01*
X12136071Y-12273214D01*
X12164643Y-12273214D01*
X12264643Y-12473214D02*
X12264643Y-12273214D01*
X12264643Y-12173214D02*
X12250357Y-12187500D01*
X12264643Y-12201786D01*
X12278928Y-12187500D01*
X12264643Y-12173214D01*
X12264643Y-12201786D01*
X12450357Y-12473214D02*
X12421786Y-12458929D01*
X12407500Y-12430357D01*
X12407500Y-12173214D01*
X12607500Y-12473214D02*
X12578928Y-12458929D01*
X12564643Y-12430357D01*
X12564643Y-12173214D01*
X12950357Y-12473214D02*
X12950357Y-12173214D01*
X13050357Y-12387500D01*
X13150357Y-12173214D01*
X13150357Y-12473214D01*
X13421786Y-12473214D02*
X13421786Y-12316071D01*
X13407500Y-12287500D01*
X13378928Y-12273214D01*
X13321786Y-12273214D01*
X13293214Y-12287500D01*
X13421786Y-12458929D02*
X13393214Y-12473214D01*
X13321786Y-12473214D01*
X13293214Y-12458929D01*
X13278928Y-12430357D01*
X13278928Y-12401786D01*
X13293214Y-12373214D01*
X13321786Y-12358929D01*
X13393214Y-12358929D01*
X13421786Y-12344643D01*
X13564643Y-12273214D02*
X13564643Y-12573214D01*
X13564643Y-12287500D02*
X13593214Y-12273214D01*
X13650357Y-12273214D01*
X13678928Y-12287500D01*
X13693214Y-12301786D01*
X13707500Y-12330357D01*
X13707500Y-12416071D01*
X13693214Y-12444643D01*
X13678928Y-12458929D01*
X13650357Y-12473214D01*
X13593214Y-12473214D01*
X13564643Y-12458929D01*
X13836071Y-12444643D02*
X13850357Y-12458929D01*
X13836071Y-12473214D01*
X13821786Y-12458929D01*
X13836071Y-12444643D01*
X13836071Y-12473214D01*
X13836071Y-12287500D02*
X13850357Y-12301786D01*
X13836071Y-12316071D01*
X13821786Y-12301786D01*
X13836071Y-12287500D01*
X13836071Y-12316071D01*
X11412500Y-12927500D02*
X11492500Y-13007500D01*
X11492500Y-12927500D02*
X11412500Y-13007500D01*
X11836071Y-12803214D02*
X11864643Y-12803214D01*
X11893214Y-12817500D01*
X11907500Y-12831786D01*
X11921786Y-12860357D01*
X11936071Y-12917500D01*
X11936071Y-12988929D01*
X11921786Y-13046071D01*
X11907500Y-13074643D01*
X11893214Y-13088929D01*
X11864643Y-13103214D01*
X11836071Y-13103214D01*
X11807500Y-13088929D01*
X11793214Y-13074643D01*
X11778928Y-13046071D01*
X11764643Y-12988929D01*
X11764643Y-12917500D01*
X11778928Y-12860357D01*
X11793214Y-12831786D01*
X11807500Y-12817500D01*
X11836071Y-12803214D01*
X12064643Y-13074643D02*
X12078928Y-13088929D01*
X12064643Y-13103214D01*
X12050357Y-13088929D01*
X12064643Y-13074643D01*
X12064643Y-13103214D01*
X12250357Y-12931786D02*
X12221786Y-12917500D01*
X12207500Y-12903214D01*
X12193214Y-12874643D01*
X12193214Y-12860357D01*
X12207500Y-12831786D01*
X12221786Y-12817500D01*
X12250357Y-12803214D01*
X12307500Y-12803214D01*
X12336071Y-12817500D01*
X12350357Y-12831786D01*
X12364643Y-12860357D01*
X12364643Y-12874643D01*
X12350357Y-12903214D01*
X12336071Y-12917500D01*
X12307500Y-12931786D01*
X12250357Y-12931786D01*
X12221786Y-12946071D01*
X12207500Y-12960357D01*
X12193214Y-12988929D01*
X12193214Y-13046071D01*
X12207500Y-13074643D01*
X12221786Y-13088929D01*
X12250357Y-13103214D01*
X12307500Y-13103214D01*
X12336071Y-13088929D01*
X12350357Y-13074643D01*
X12364643Y-13046071D01*
X12364643Y-12988929D01*
X12350357Y-12960357D01*
X12336071Y-12946071D01*
X12307500Y-12931786D01*
X12550357Y-12803214D02*
X12578928Y-12803214D01*
X12607500Y-12817500D01*
X12621786Y-12831786D01*
X12636071Y-12860357D01*
X12650357Y-12917500D01*
X12650357Y-12988929D01*
X12636071Y-13046071D01*
X12621786Y-13074643D01*
X12607500Y-13088929D01*
X12578928Y-13103214D01*
X12550357Y-13103214D01*
X12521786Y-13088929D01*
X12507500Y-13074643D01*
X12493214Y-13046071D01*
X12478928Y-12988929D01*
X12478928Y-12917500D01*
X12493214Y-12860357D01*
X12507500Y-12831786D01*
X12521786Y-12817500D01*
X12550357Y-12803214D01*
X12778928Y-13103214D02*
X12778928Y-12903214D01*
X12778928Y-12931786D02*
X12793214Y-12917500D01*
X12821786Y-12903214D01*
X12864643Y-12903214D01*
X12893214Y-12917500D01*
X12907500Y-12946071D01*
X12907500Y-13103214D01*
X12907500Y-12946071D02*
X12921786Y-12917500D01*
X12950357Y-12903214D01*
X12993214Y-12903214D01*
X13021786Y-12917500D01*
X13036071Y-12946071D01*
X13036071Y-13103214D01*
X13178928Y-13103214D02*
X13178928Y-12903214D01*
X13178928Y-12931786D02*
X13193214Y-12917500D01*
X13221786Y-12903214D01*
X13264643Y-12903214D01*
X13293214Y-12917500D01*
X13307500Y-12946071D01*
X13307500Y-13103214D01*
X13307500Y-12946071D02*
X13321786Y-12917500D01*
X13350357Y-12903214D01*
X13393214Y-12903214D01*
X13421786Y-12917500D01*
X13436071Y-12946071D01*
X13436071Y-13103214D01*
X14021786Y-12788929D02*
X13764643Y-13174643D01*
X14407500Y-12803214D02*
X14436071Y-12803214D01*
X14464643Y-12817500D01*
X14478928Y-12831786D01*
X14493214Y-12860357D01*
X14507500Y-12917500D01*
X14507500Y-12988929D01*
X14493214Y-13046071D01*
X14478928Y-13074643D01*
X14464643Y-13088929D01*
X14436071Y-13103214D01*
X14407500Y-13103214D01*
X14378928Y-13088929D01*
X14364643Y-13074643D01*
X14350357Y-13046071D01*
X14336071Y-12988929D01*
X14336071Y-12917500D01*
X14350357Y-12860357D01*
X14364643Y-12831786D01*
X14378928Y-12817500D01*
X14407500Y-12803214D01*
X14636071Y-13074643D02*
X14650357Y-13088929D01*
X14636071Y-13103214D01*
X14621786Y-13088929D01*
X14636071Y-13074643D01*
X14636071Y-13103214D01*
X14836071Y-12803214D02*
X14864643Y-12803214D01*
X14893214Y-12817500D01*
X14907500Y-12831786D01*
X14921786Y-12860357D01*
X14936071Y-12917500D01*
X14936071Y-12988929D01*
X14921786Y-13046071D01*
X14907500Y-13074643D01*
X14893214Y-13088929D01*
X14864643Y-13103214D01*
X14836071Y-13103214D01*
X14807500Y-13088929D01*
X14793214Y-13074643D01*
X14778928Y-13046071D01*
X14764643Y-12988929D01*
X14764643Y-12917500D01*
X14778928Y-12860357D01*
X14793214Y-12831786D01*
X14807500Y-12817500D01*
X14836071Y-12803214D01*
X15036071Y-12803214D02*
X15221786Y-12803214D01*
X15121786Y-12917500D01*
X15164643Y-12917500D01*
X15193214Y-12931786D01*
X15207500Y-12946071D01*
X15221786Y-12974643D01*
X15221786Y-13046071D01*
X15207500Y-13074643D01*
X15193214Y-13088929D01*
X15164643Y-13103214D01*
X15078928Y-13103214D01*
X15050357Y-13088929D01*
X15036071Y-13074643D01*
X15507500Y-13103214D02*
X15336071Y-13103214D01*
X15421786Y-13103214D02*
X15421786Y-12803214D01*
X15393214Y-12846071D01*
X15364643Y-12874643D01*
X15336071Y-12888929D01*
X15621786Y-12803214D02*
X15621786Y-12860357D01*
X15736071Y-12803214D02*
X15736071Y-12860357D01*
X16178928Y-13217500D02*
X16164643Y-13203214D01*
X16136071Y-13160357D01*
X16121786Y-13131786D01*
X16107500Y-13088929D01*
X16093214Y-13017500D01*
X16093214Y-12960357D01*
X16107500Y-12888929D01*
X16121786Y-12846071D01*
X16136071Y-12817500D01*
X16164643Y-12774643D01*
X16178928Y-12760357D01*
X16278928Y-12831786D02*
X16293214Y-12817500D01*
X16321786Y-12803214D01*
X16393214Y-12803214D01*
X16421786Y-12817500D01*
X16436071Y-12831786D01*
X16450357Y-12860357D01*
X16450357Y-12888929D01*
X16436071Y-12931786D01*
X16264643Y-13103214D01*
X16450357Y-13103214D01*
X16807500Y-13103214D02*
X16807500Y-12803214D01*
X16936071Y-13103214D02*
X16936071Y-12946071D01*
X16921786Y-12917500D01*
X16893214Y-12903214D01*
X16850357Y-12903214D01*
X16821786Y-12917500D01*
X16807500Y-12931786D01*
X17121786Y-13103214D02*
X17093214Y-13088929D01*
X17078928Y-13074643D01*
X17064643Y-13046071D01*
X17064643Y-12960357D01*
X17078928Y-12931786D01*
X17093214Y-12917500D01*
X17121786Y-12903214D01*
X17164643Y-12903214D01*
X17193214Y-12917500D01*
X17207500Y-12931786D01*
X17221786Y-12960357D01*
X17221786Y-13046071D01*
X17207500Y-13074643D01*
X17193214Y-13088929D01*
X17164643Y-13103214D01*
X17121786Y-13103214D01*
X17393214Y-13103214D02*
X17364643Y-13088929D01*
X17350357Y-13060357D01*
X17350357Y-12803214D01*
X17621786Y-13088929D02*
X17593214Y-13103214D01*
X17536071Y-13103214D01*
X17507500Y-13088929D01*
X17493214Y-13060357D01*
X17493214Y-12946071D01*
X17507500Y-12917500D01*
X17536071Y-12903214D01*
X17593214Y-12903214D01*
X17621786Y-12917500D01*
X17636071Y-12946071D01*
X17636071Y-12974643D01*
X17493214Y-13003214D01*
X17750357Y-13088929D02*
X17778928Y-13103214D01*
X17836071Y-13103214D01*
X17864643Y-13088929D01*
X17878928Y-13060357D01*
X17878928Y-13046071D01*
X17864643Y-13017500D01*
X17836071Y-13003214D01*
X17793214Y-13003214D01*
X17764643Y-12988929D01*
X17750357Y-12960357D01*
X17750357Y-12946071D01*
X17764643Y-12917500D01*
X17793214Y-12903214D01*
X17836071Y-12903214D01*
X17864643Y-12917500D01*
X17978928Y-13217500D02*
X17993214Y-13203214D01*
X18021786Y-13160357D01*
X18036071Y-13131786D01*
X18050357Y-13088929D01*
X18064643Y-13017500D01*
X18064643Y-12960357D01*
X18050357Y-12888929D01*
X18036071Y-12846071D01*
X18021786Y-12817500D01*
X17993214Y-12774643D01*
X17978928Y-12760357D01*
X18521786Y-13217500D02*
X18507500Y-13203214D01*
X18478928Y-13160357D01*
X18464643Y-13131786D01*
X18450357Y-13088929D01*
X18436071Y-13017500D01*
X18436071Y-12960357D01*
X18450357Y-12888929D01*
X18464643Y-12846071D01*
X18478928Y-12817500D01*
X18507500Y-12774643D01*
X18521786Y-12760357D01*
X18636071Y-12903214D02*
X18636071Y-13103214D01*
X18636071Y-12931786D02*
X18650357Y-12917500D01*
X18678928Y-12903214D01*
X18721786Y-12903214D01*
X18750357Y-12917500D01*
X18764643Y-12946071D01*
X18764643Y-13103214D01*
X18950357Y-13103214D02*
X18921786Y-13088929D01*
X18907500Y-13074643D01*
X18893214Y-13046071D01*
X18893214Y-12960357D01*
X18907500Y-12931786D01*
X18921786Y-12917500D01*
X18950357Y-12903214D01*
X18993214Y-12903214D01*
X19021786Y-12917500D01*
X19036071Y-12931786D01*
X19050357Y-12960357D01*
X19050357Y-13046071D01*
X19036071Y-13074643D01*
X19021786Y-13088929D01*
X18993214Y-13103214D01*
X18950357Y-13103214D01*
X19136071Y-12903214D02*
X19250357Y-12903214D01*
X19178928Y-12803214D02*
X19178928Y-13060357D01*
X19193214Y-13088929D01*
X19221786Y-13103214D01*
X19250357Y-13103214D01*
X19578928Y-12903214D02*
X19578928Y-13203214D01*
X19578928Y-12917500D02*
X19607500Y-12903214D01*
X19664643Y-12903214D01*
X19693214Y-12917500D01*
X19707500Y-12931786D01*
X19721786Y-12960357D01*
X19721786Y-13046071D01*
X19707500Y-13074643D01*
X19693214Y-13088929D01*
X19664643Y-13103214D01*
X19607500Y-13103214D01*
X19578928Y-13088929D01*
X19893214Y-13103214D02*
X19864643Y-13088929D01*
X19850357Y-13060357D01*
X19850357Y-12803214D01*
X20136071Y-13103214D02*
X20136071Y-12946071D01*
X20121786Y-12917500D01*
X20093214Y-12903214D01*
X20036071Y-12903214D01*
X20007500Y-12917500D01*
X20136071Y-13088929D02*
X20107500Y-13103214D01*
X20036071Y-13103214D01*
X20007500Y-13088929D01*
X19993214Y-13060357D01*
X19993214Y-13031786D01*
X20007500Y-13003214D01*
X20036071Y-12988929D01*
X20107500Y-12988929D01*
X20136071Y-12974643D01*
X20236071Y-12903214D02*
X20350357Y-12903214D01*
X20278928Y-12803214D02*
X20278928Y-13060357D01*
X20293214Y-13088929D01*
X20321786Y-13103214D01*
X20350357Y-13103214D01*
X20564643Y-13088929D02*
X20536071Y-13103214D01*
X20478928Y-13103214D01*
X20450357Y-13088929D01*
X20436071Y-13060357D01*
X20436071Y-12946071D01*
X20450357Y-12917500D01*
X20478928Y-12903214D01*
X20536071Y-12903214D01*
X20564643Y-12917500D01*
X20578928Y-12946071D01*
X20578928Y-12974643D01*
X20436071Y-13003214D01*
X20836071Y-13103214D02*
X20836071Y-12803214D01*
X20836071Y-13088929D02*
X20807500Y-13103214D01*
X20750357Y-13103214D01*
X20721786Y-13088929D01*
X20707500Y-13074643D01*
X20693214Y-13046071D01*
X20693214Y-12960357D01*
X20707500Y-12931786D01*
X20721786Y-12917500D01*
X20750357Y-12903214D01*
X20807500Y-12903214D01*
X20836071Y-12917500D01*
X20950357Y-13217500D02*
X20964643Y-13203214D01*
X20993214Y-13160357D01*
X21007500Y-13131786D01*
X21021786Y-13088929D01*
X21036071Y-13017500D01*
X21036071Y-12960357D01*
X21021786Y-12888929D01*
X21007500Y-12846071D01*
X20993214Y-12817500D01*
X20964643Y-12774643D01*
X20950357Y-12760357D01*
M02*
