M48
;DRILL file {KiCad 5.0.2+dfsg1-1} date Thu 28 Mar 2019 13:57:33 GMT
;FORMAT={-:-/ absolute / inch / decimal}
FMAT,2
INCH,TZ
T1C0.0157
T2C0.0217
T3C0.0335
T4C0.0394
%
G90
G05
T1
X4.563Y-2.3543
X4.6122Y-4.4724
X4.6142Y-4.5177
X4.6575Y-4.4902
X4.6988Y-4.5157
X4.7362Y-4.4961
X4.7362Y-4.5512
X4.7854Y-2.939
X4.7874Y-2.9783
X4.7953Y-2.8642
X4.8012Y-2.6516
X4.8071Y-2.7539
X4.8091Y-2.8287
X4.8179Y-2.5492
X4.8287Y-3.0098
X4.8327Y-2.9016
X4.8346Y-2.8642
X4.8366Y-2.6752
X4.8423Y-4.2283
X4.8504Y-3.9685
X4.8661Y-2.7087
X4.8681Y-2.5886
X4.874Y-3.2362
X4.878Y-4.4134
X4.8819Y-2.4213
X4.8839Y-2.7421
X4.8878Y-3.563
X4.8898Y-3.4882
X4.8898Y-3.6378
X4.8898Y-3.7126
X4.8898Y-3.7854
X4.8917Y-3.2795
X4.8937Y-4.0787
X4.8976Y-3.1988
X4.8996Y-4.378
X4.9016Y-2.4626
X4.9114Y-3.6004
X4.9114Y-3.6752
X4.9114Y-3.75
X4.9114Y-3.8209
X4.9134Y-3.5256
X4.9193Y-3.2362
X4.9193Y-4.4134
X4.9232Y-2.7638
X4.9232Y-2.8051
X4.9252Y-2.4193
X4.9252Y-2.502
X4.9331Y-3.563
X4.935Y-3.4882
X4.935Y-3.6378
X4.935Y-3.7126
X4.935Y-3.7854
X4.937Y-3.2795
X4.9409Y-2.9724
X4.9429Y-3.1988
X4.9429Y-4.378
X4.9469Y-2.4626
X4.9567Y-3.6004
X4.9567Y-3.6752
X4.9567Y-3.75
X4.9567Y-3.8209
X4.9567Y-4.1535
X4.9567Y-4.2008
X4.9587Y-3.5256
X4.9626Y-2.7402
X4.9626Y-2.7795
X4.9626Y-2.8189
X4.9626Y-3.2362
X4.9665Y-3.0098
X4.9705Y-4.4134
X4.9724Y-2.5
X4.9764Y-3.563
X4.9783Y-3.4882
X4.9783Y-3.6378
X4.9783Y-3.7126
X4.9783Y-3.7854
X4.9803Y-3.2795
X4.9803Y-4.0394
X4.9862Y-3.1988
X4.9862Y-4.376
X5.Y-3.6004
X5.Y-3.6752
X5.Y-3.75
X5.Y-3.8209
X5.002Y-3.5256
X5.0039Y-4.1535
X5.0039Y-4.2008
X5.0079Y-3.2362
X5.0138Y-2.3937
X5.0138Y-2.4331
X5.0157Y-4.5531
X5.0157Y-4.5984
X5.0157Y-4.6437
X5.0217Y-3.563
X5.0236Y-3.4882
X5.0236Y-3.6378
X5.0236Y-3.7126
X5.0236Y-3.7854
X5.0256Y-3.2795
X5.0315Y-3.1988
X5.0453Y-3.6004
X5.0453Y-3.6752
X5.0453Y-3.75
X5.0453Y-3.8209
X5.0472Y-3.5256
X5.0512Y-2.5906
X5.0551Y-3.2362
X5.0551Y-4.5748
X5.0551Y-4.622
X5.0551Y-4.6713
X5.0689Y-3.563
X5.0709Y-3.4882
X5.0709Y-3.6378
X5.0709Y-3.7126
X5.0709Y-3.7854
X5.0728Y-3.2795
X5.0787Y-2.5079
X5.0787Y-3.1988
X5.0827Y-2.7559
X5.0827Y-2.7992
X5.0925Y-3.6004
X5.0925Y-3.6752
X5.0925Y-3.75
X5.0925Y-3.8209
X5.0925Y-4.5984
X5.0925Y-4.6457
X5.0945Y-3.5256
X5.0945Y-4.5512
X5.0984Y-4.1614
X5.1004Y-2.5906
X5.1339Y-4.5748
X5.1358Y-4.622
X5.1378Y-4.6713
X5.1457Y-2.5945
X5.1516Y-3.8976
X5.1516Y-3.937
X5.1516Y-3.9783
X5.1772Y-4.5512
X5.1772Y-4.5984
X5.1772Y-4.6437
X5.1949Y-3.8976
X5.1949Y-3.937
X5.1969Y-3.9783
X5.1969Y-4.2559
X5.2008Y-2.435
X5.2067Y-2.2953
X5.2165Y-4.3602
X5.2323Y-4.2638
X5.2343Y-4.4114
X5.2441Y-2.2953
X5.2441Y-4.1929
X5.2579Y-4.3602
X5.2697Y-4.0728
X5.2835Y-2.2953
X5.2835Y-4.1929
X5.2953Y-4.3602
X5.315Y-3.9232
X5.315Y-3.9626
X5.3169Y-2.4272
X5.3189Y-2.4783
X5.3209Y-4.1929
X5.3228Y-2.2953
X5.3366Y-4.3602
X5.3504Y-3.9409
X5.3524Y-2.4055
X5.3524Y-2.4528
X5.3524Y-2.5
X5.3819Y-4.0866
X5.3819Y-4.1339
X5.3839Y-3.5669
X5.3858Y-3.4921
X5.3898Y-2.3839
X5.3917Y-2.4272
X5.3937Y-2.4724
X5.3996Y-3.2677
X5.4016Y-3.1929
X5.4035Y-4.5591
X5.4075Y-3.6043
X5.4075Y-4.2618
X5.4094Y-3.5295
X5.4232Y-3.3051
X5.4252Y-3.2303
X5.4291Y-3.5669
X5.4311Y-3.4921
X5.437Y-4.0866
X5.437Y-4.1339
X5.4449Y-3.2677
X5.4449Y-4.5571
X5.4469Y-3.1929
X5.4469Y-4.2598
X5.4528Y-3.6043
X5.4547Y-3.5295
X5.4567Y-2.3563
X5.4685Y-3.3051
X5.4705Y-3.2303
X5.4724Y-3.5669
X5.4744Y-3.4921
X5.4783Y-3.9272
X5.4882Y-3.2677
X5.4902Y-3.1929
X5.4961Y-3.6043
X5.498Y-3.5295
X5.5118Y-3.3051
X5.5138Y-3.2303
X5.5177Y-3.5669
X5.5197Y-3.4921
X5.5197Y-4.4843
X5.5335Y-3.2677
X5.5354Y-3.1929
X5.5394Y-3.6949
X5.5394Y-3.7343
X5.5394Y-3.7736
X5.5413Y-3.6043
X5.5433Y-3.5295
X5.5571Y-3.3051
X5.5591Y-3.2303
X5.561Y-4.4843
X5.561Y-4.5551
X5.565Y-3.5669
X5.5669Y-3.4921
X5.5807Y-3.2677
X5.5827Y-3.1929
X5.5925Y-4.1161
X5.6004Y-3.7343
X5.6004Y-3.7736
X5.6043Y-3.3051
X5.6043Y-4.4843
X5.6063Y-4.5551
X5.6289Y-3.0039
X5.6289Y-3.1142
X5.6339Y-4.0571
X5.6339Y-4.0965
X5.6398Y-4.4291
X5.6398Y-4.4685
X5.6516Y-4.5551
T4
X4.6181Y-2.4941
X4.6181Y-2.5941
X4.6181Y-2.6941
X4.6181Y-2.7941
X4.6181Y-2.8941
X4.6181Y-2.9941
X4.6181Y-3.0941
X4.6181Y-3.1941
X4.6181Y-3.2941
X4.6181Y-3.3941
X4.6181Y-3.4941
X4.6181Y-3.5941
X4.6181Y-3.6941
X4.6181Y-3.7941
X4.6181Y-3.8941
X4.6181Y-3.9941
X4.6181Y-4.0941
X4.6181Y-4.1941
X4.6181Y-4.2941
X4.6181Y-4.3941
X4.7181Y-2.4941
X4.7181Y-2.5941
X4.7181Y-2.6941
X4.7181Y-2.7941
X4.7181Y-2.8941
X4.7181Y-2.9941
X4.7181Y-3.0941
X4.7181Y-3.1941
X4.7181Y-3.2941
X4.7181Y-3.3941
X4.7181Y-3.4941
X4.7181Y-3.5941
X4.7181Y-3.6941
X4.7181Y-3.7941
X4.7181Y-3.8941
X4.7181Y-3.9941
X4.7181Y-4.0941
X4.7181Y-4.1941
X4.7181Y-4.2941
X4.7181Y-4.3941
X4.9835Y-2.2283
X5.0835Y-2.2283
X5.1835Y-2.2283
X5.2835Y-2.2283
T2
X5.5955Y-4.3159G85X5.6211Y-4.3159
G05
X5.5955Y-4.6211G85X5.6211Y-4.6211
G05
T3
X5.4478Y-4.3219G85X5.4695Y-4.3219
G05
X5.4478Y-4.6152G85X5.4695Y-4.6152
G05
T0
M30
