G04 #@! TF.GenerationSoftware,KiCad,Pcbnew,5.0.2+dfsg1-1*
G04 #@! TF.CreationDate,2019-03-28T13:57:09+00:00*
G04 #@! TF.ProjectId,PiZeroInteract,50695a65-726f-4496-9e74-65726163742e,rev?*
G04 #@! TF.SameCoordinates,Original*
G04 #@! TF.FileFunction,Paste,Bot*
G04 #@! TF.FilePolarity,Positive*
%FSLAX46Y46*%
G04 Gerber Fmt 4.6, Leading zero omitted, Abs format (unit mm)*
G04 Created by KiCad (PCBNEW 5.0.2+dfsg1-1) date Thu 28 Mar 2019 13:57:09 GMT*
%MOMM*%
%LPD*%
G01*
G04 APERTURE LIST*
%ADD10R,0.800000X0.900000*%
%ADD11R,0.900000X0.800000*%
%ADD12C,0.100000*%
%ADD13C,0.590000*%
G04 APERTURE END LIST*
D10*
G04 #@! TO.C,Q2*
X132650000Y-76500000D03*
X131700000Y-78500000D03*
X133600000Y-78500000D03*
G04 #@! TD*
D11*
G04 #@! TO.C,Q1*
X136550000Y-69350000D03*
X136550000Y-71250000D03*
X134550000Y-70300000D03*
G04 #@! TD*
G04 #@! TO.C,Q3*
X138650000Y-70350000D03*
X140650000Y-71300000D03*
X140650000Y-69400000D03*
G04 #@! TD*
G04 #@! TO.C,Q4*
X132550000Y-69400000D03*
X132550000Y-71300000D03*
X130550000Y-70350000D03*
G04 #@! TD*
D12*
G04 #@! TO.C,R9*
G36*
X136746958Y-72680710D02*
X136761276Y-72682834D01*
X136775317Y-72686351D01*
X136788946Y-72691228D01*
X136802031Y-72697417D01*
X136814447Y-72704858D01*
X136826073Y-72713481D01*
X136836798Y-72723202D01*
X136846519Y-72733927D01*
X136855142Y-72745553D01*
X136862583Y-72757969D01*
X136868772Y-72771054D01*
X136873649Y-72784683D01*
X136877166Y-72798724D01*
X136879290Y-72813042D01*
X136880000Y-72827500D01*
X136880000Y-73172500D01*
X136879290Y-73186958D01*
X136877166Y-73201276D01*
X136873649Y-73215317D01*
X136868772Y-73228946D01*
X136862583Y-73242031D01*
X136855142Y-73254447D01*
X136846519Y-73266073D01*
X136836798Y-73276798D01*
X136826073Y-73286519D01*
X136814447Y-73295142D01*
X136802031Y-73302583D01*
X136788946Y-73308772D01*
X136775317Y-73313649D01*
X136761276Y-73317166D01*
X136746958Y-73319290D01*
X136732500Y-73320000D01*
X136437500Y-73320000D01*
X136423042Y-73319290D01*
X136408724Y-73317166D01*
X136394683Y-73313649D01*
X136381054Y-73308772D01*
X136367969Y-73302583D01*
X136355553Y-73295142D01*
X136343927Y-73286519D01*
X136333202Y-73276798D01*
X136323481Y-73266073D01*
X136314858Y-73254447D01*
X136307417Y-73242031D01*
X136301228Y-73228946D01*
X136296351Y-73215317D01*
X136292834Y-73201276D01*
X136290710Y-73186958D01*
X136290000Y-73172500D01*
X136290000Y-72827500D01*
X136290710Y-72813042D01*
X136292834Y-72798724D01*
X136296351Y-72784683D01*
X136301228Y-72771054D01*
X136307417Y-72757969D01*
X136314858Y-72745553D01*
X136323481Y-72733927D01*
X136333202Y-72723202D01*
X136343927Y-72713481D01*
X136355553Y-72704858D01*
X136367969Y-72697417D01*
X136381054Y-72691228D01*
X136394683Y-72686351D01*
X136408724Y-72682834D01*
X136423042Y-72680710D01*
X136437500Y-72680000D01*
X136732500Y-72680000D01*
X136746958Y-72680710D01*
X136746958Y-72680710D01*
G37*
D13*
X136585000Y-73000000D03*
D12*
G36*
X135776958Y-72680710D02*
X135791276Y-72682834D01*
X135805317Y-72686351D01*
X135818946Y-72691228D01*
X135832031Y-72697417D01*
X135844447Y-72704858D01*
X135856073Y-72713481D01*
X135866798Y-72723202D01*
X135876519Y-72733927D01*
X135885142Y-72745553D01*
X135892583Y-72757969D01*
X135898772Y-72771054D01*
X135903649Y-72784683D01*
X135907166Y-72798724D01*
X135909290Y-72813042D01*
X135910000Y-72827500D01*
X135910000Y-73172500D01*
X135909290Y-73186958D01*
X135907166Y-73201276D01*
X135903649Y-73215317D01*
X135898772Y-73228946D01*
X135892583Y-73242031D01*
X135885142Y-73254447D01*
X135876519Y-73266073D01*
X135866798Y-73276798D01*
X135856073Y-73286519D01*
X135844447Y-73295142D01*
X135832031Y-73302583D01*
X135818946Y-73308772D01*
X135805317Y-73313649D01*
X135791276Y-73317166D01*
X135776958Y-73319290D01*
X135762500Y-73320000D01*
X135467500Y-73320000D01*
X135453042Y-73319290D01*
X135438724Y-73317166D01*
X135424683Y-73313649D01*
X135411054Y-73308772D01*
X135397969Y-73302583D01*
X135385553Y-73295142D01*
X135373927Y-73286519D01*
X135363202Y-73276798D01*
X135353481Y-73266073D01*
X135344858Y-73254447D01*
X135337417Y-73242031D01*
X135331228Y-73228946D01*
X135326351Y-73215317D01*
X135322834Y-73201276D01*
X135320710Y-73186958D01*
X135320000Y-73172500D01*
X135320000Y-72827500D01*
X135320710Y-72813042D01*
X135322834Y-72798724D01*
X135326351Y-72784683D01*
X135331228Y-72771054D01*
X135337417Y-72757969D01*
X135344858Y-72745553D01*
X135353481Y-72733927D01*
X135363202Y-72723202D01*
X135373927Y-72713481D01*
X135385553Y-72704858D01*
X135397969Y-72697417D01*
X135411054Y-72691228D01*
X135424683Y-72686351D01*
X135438724Y-72682834D01*
X135453042Y-72680710D01*
X135467500Y-72680000D01*
X135762500Y-72680000D01*
X135776958Y-72680710D01*
X135776958Y-72680710D01*
G37*
D13*
X135615000Y-73000000D03*
G04 #@! TD*
D12*
G04 #@! TO.C,R10*
G36*
X140796958Y-72730710D02*
X140811276Y-72732834D01*
X140825317Y-72736351D01*
X140838946Y-72741228D01*
X140852031Y-72747417D01*
X140864447Y-72754858D01*
X140876073Y-72763481D01*
X140886798Y-72773202D01*
X140896519Y-72783927D01*
X140905142Y-72795553D01*
X140912583Y-72807969D01*
X140918772Y-72821054D01*
X140923649Y-72834683D01*
X140927166Y-72848724D01*
X140929290Y-72863042D01*
X140930000Y-72877500D01*
X140930000Y-73222500D01*
X140929290Y-73236958D01*
X140927166Y-73251276D01*
X140923649Y-73265317D01*
X140918772Y-73278946D01*
X140912583Y-73292031D01*
X140905142Y-73304447D01*
X140896519Y-73316073D01*
X140886798Y-73326798D01*
X140876073Y-73336519D01*
X140864447Y-73345142D01*
X140852031Y-73352583D01*
X140838946Y-73358772D01*
X140825317Y-73363649D01*
X140811276Y-73367166D01*
X140796958Y-73369290D01*
X140782500Y-73370000D01*
X140487500Y-73370000D01*
X140473042Y-73369290D01*
X140458724Y-73367166D01*
X140444683Y-73363649D01*
X140431054Y-73358772D01*
X140417969Y-73352583D01*
X140405553Y-73345142D01*
X140393927Y-73336519D01*
X140383202Y-73326798D01*
X140373481Y-73316073D01*
X140364858Y-73304447D01*
X140357417Y-73292031D01*
X140351228Y-73278946D01*
X140346351Y-73265317D01*
X140342834Y-73251276D01*
X140340710Y-73236958D01*
X140340000Y-73222500D01*
X140340000Y-72877500D01*
X140340710Y-72863042D01*
X140342834Y-72848724D01*
X140346351Y-72834683D01*
X140351228Y-72821054D01*
X140357417Y-72807969D01*
X140364858Y-72795553D01*
X140373481Y-72783927D01*
X140383202Y-72773202D01*
X140393927Y-72763481D01*
X140405553Y-72754858D01*
X140417969Y-72747417D01*
X140431054Y-72741228D01*
X140444683Y-72736351D01*
X140458724Y-72732834D01*
X140473042Y-72730710D01*
X140487500Y-72730000D01*
X140782500Y-72730000D01*
X140796958Y-72730710D01*
X140796958Y-72730710D01*
G37*
D13*
X140635000Y-73050000D03*
D12*
G36*
X139826958Y-72730710D02*
X139841276Y-72732834D01*
X139855317Y-72736351D01*
X139868946Y-72741228D01*
X139882031Y-72747417D01*
X139894447Y-72754858D01*
X139906073Y-72763481D01*
X139916798Y-72773202D01*
X139926519Y-72783927D01*
X139935142Y-72795553D01*
X139942583Y-72807969D01*
X139948772Y-72821054D01*
X139953649Y-72834683D01*
X139957166Y-72848724D01*
X139959290Y-72863042D01*
X139960000Y-72877500D01*
X139960000Y-73222500D01*
X139959290Y-73236958D01*
X139957166Y-73251276D01*
X139953649Y-73265317D01*
X139948772Y-73278946D01*
X139942583Y-73292031D01*
X139935142Y-73304447D01*
X139926519Y-73316073D01*
X139916798Y-73326798D01*
X139906073Y-73336519D01*
X139894447Y-73345142D01*
X139882031Y-73352583D01*
X139868946Y-73358772D01*
X139855317Y-73363649D01*
X139841276Y-73367166D01*
X139826958Y-73369290D01*
X139812500Y-73370000D01*
X139517500Y-73370000D01*
X139503042Y-73369290D01*
X139488724Y-73367166D01*
X139474683Y-73363649D01*
X139461054Y-73358772D01*
X139447969Y-73352583D01*
X139435553Y-73345142D01*
X139423927Y-73336519D01*
X139413202Y-73326798D01*
X139403481Y-73316073D01*
X139394858Y-73304447D01*
X139387417Y-73292031D01*
X139381228Y-73278946D01*
X139376351Y-73265317D01*
X139372834Y-73251276D01*
X139370710Y-73236958D01*
X139370000Y-73222500D01*
X139370000Y-72877500D01*
X139370710Y-72863042D01*
X139372834Y-72848724D01*
X139376351Y-72834683D01*
X139381228Y-72821054D01*
X139387417Y-72807969D01*
X139394858Y-72795553D01*
X139403481Y-72783927D01*
X139413202Y-72773202D01*
X139423927Y-72763481D01*
X139435553Y-72754858D01*
X139447969Y-72747417D01*
X139461054Y-72741228D01*
X139474683Y-72736351D01*
X139488724Y-72732834D01*
X139503042Y-72730710D01*
X139517500Y-72730000D01*
X139812500Y-72730000D01*
X139826958Y-72730710D01*
X139826958Y-72730710D01*
G37*
D13*
X139665000Y-73050000D03*
G04 #@! TD*
D12*
G04 #@! TO.C,R11*
G36*
X133736958Y-81390710D02*
X133751276Y-81392834D01*
X133765317Y-81396351D01*
X133778946Y-81401228D01*
X133792031Y-81407417D01*
X133804447Y-81414858D01*
X133816073Y-81423481D01*
X133826798Y-81433202D01*
X133836519Y-81443927D01*
X133845142Y-81455553D01*
X133852583Y-81467969D01*
X133858772Y-81481054D01*
X133863649Y-81494683D01*
X133867166Y-81508724D01*
X133869290Y-81523042D01*
X133870000Y-81537500D01*
X133870000Y-81832500D01*
X133869290Y-81846958D01*
X133867166Y-81861276D01*
X133863649Y-81875317D01*
X133858772Y-81888946D01*
X133852583Y-81902031D01*
X133845142Y-81914447D01*
X133836519Y-81926073D01*
X133826798Y-81936798D01*
X133816073Y-81946519D01*
X133804447Y-81955142D01*
X133792031Y-81962583D01*
X133778946Y-81968772D01*
X133765317Y-81973649D01*
X133751276Y-81977166D01*
X133736958Y-81979290D01*
X133722500Y-81980000D01*
X133377500Y-81980000D01*
X133363042Y-81979290D01*
X133348724Y-81977166D01*
X133334683Y-81973649D01*
X133321054Y-81968772D01*
X133307969Y-81962583D01*
X133295553Y-81955142D01*
X133283927Y-81946519D01*
X133273202Y-81936798D01*
X133263481Y-81926073D01*
X133254858Y-81914447D01*
X133247417Y-81902031D01*
X133241228Y-81888946D01*
X133236351Y-81875317D01*
X133232834Y-81861276D01*
X133230710Y-81846958D01*
X133230000Y-81832500D01*
X133230000Y-81537500D01*
X133230710Y-81523042D01*
X133232834Y-81508724D01*
X133236351Y-81494683D01*
X133241228Y-81481054D01*
X133247417Y-81467969D01*
X133254858Y-81455553D01*
X133263481Y-81443927D01*
X133273202Y-81433202D01*
X133283927Y-81423481D01*
X133295553Y-81414858D01*
X133307969Y-81407417D01*
X133321054Y-81401228D01*
X133334683Y-81396351D01*
X133348724Y-81392834D01*
X133363042Y-81390710D01*
X133377500Y-81390000D01*
X133722500Y-81390000D01*
X133736958Y-81390710D01*
X133736958Y-81390710D01*
G37*
D13*
X133550000Y-81685000D03*
D12*
G36*
X133736958Y-80420710D02*
X133751276Y-80422834D01*
X133765317Y-80426351D01*
X133778946Y-80431228D01*
X133792031Y-80437417D01*
X133804447Y-80444858D01*
X133816073Y-80453481D01*
X133826798Y-80463202D01*
X133836519Y-80473927D01*
X133845142Y-80485553D01*
X133852583Y-80497969D01*
X133858772Y-80511054D01*
X133863649Y-80524683D01*
X133867166Y-80538724D01*
X133869290Y-80553042D01*
X133870000Y-80567500D01*
X133870000Y-80862500D01*
X133869290Y-80876958D01*
X133867166Y-80891276D01*
X133863649Y-80905317D01*
X133858772Y-80918946D01*
X133852583Y-80932031D01*
X133845142Y-80944447D01*
X133836519Y-80956073D01*
X133826798Y-80966798D01*
X133816073Y-80976519D01*
X133804447Y-80985142D01*
X133792031Y-80992583D01*
X133778946Y-80998772D01*
X133765317Y-81003649D01*
X133751276Y-81007166D01*
X133736958Y-81009290D01*
X133722500Y-81010000D01*
X133377500Y-81010000D01*
X133363042Y-81009290D01*
X133348724Y-81007166D01*
X133334683Y-81003649D01*
X133321054Y-80998772D01*
X133307969Y-80992583D01*
X133295553Y-80985142D01*
X133283927Y-80976519D01*
X133273202Y-80966798D01*
X133263481Y-80956073D01*
X133254858Y-80944447D01*
X133247417Y-80932031D01*
X133241228Y-80918946D01*
X133236351Y-80905317D01*
X133232834Y-80891276D01*
X133230710Y-80876958D01*
X133230000Y-80862500D01*
X133230000Y-80567500D01*
X133230710Y-80553042D01*
X133232834Y-80538724D01*
X133236351Y-80524683D01*
X133241228Y-80511054D01*
X133247417Y-80497969D01*
X133254858Y-80485553D01*
X133263481Y-80473927D01*
X133273202Y-80463202D01*
X133283927Y-80453481D01*
X133295553Y-80444858D01*
X133307969Y-80437417D01*
X133321054Y-80431228D01*
X133334683Y-80426351D01*
X133348724Y-80422834D01*
X133363042Y-80420710D01*
X133377500Y-80420000D01*
X133722500Y-80420000D01*
X133736958Y-80420710D01*
X133736958Y-80420710D01*
G37*
D13*
X133550000Y-80715000D03*
G04 #@! TD*
D12*
G04 #@! TO.C,R12*
G36*
X132696958Y-72680710D02*
X132711276Y-72682834D01*
X132725317Y-72686351D01*
X132738946Y-72691228D01*
X132752031Y-72697417D01*
X132764447Y-72704858D01*
X132776073Y-72713481D01*
X132786798Y-72723202D01*
X132796519Y-72733927D01*
X132805142Y-72745553D01*
X132812583Y-72757969D01*
X132818772Y-72771054D01*
X132823649Y-72784683D01*
X132827166Y-72798724D01*
X132829290Y-72813042D01*
X132830000Y-72827500D01*
X132830000Y-73172500D01*
X132829290Y-73186958D01*
X132827166Y-73201276D01*
X132823649Y-73215317D01*
X132818772Y-73228946D01*
X132812583Y-73242031D01*
X132805142Y-73254447D01*
X132796519Y-73266073D01*
X132786798Y-73276798D01*
X132776073Y-73286519D01*
X132764447Y-73295142D01*
X132752031Y-73302583D01*
X132738946Y-73308772D01*
X132725317Y-73313649D01*
X132711276Y-73317166D01*
X132696958Y-73319290D01*
X132682500Y-73320000D01*
X132387500Y-73320000D01*
X132373042Y-73319290D01*
X132358724Y-73317166D01*
X132344683Y-73313649D01*
X132331054Y-73308772D01*
X132317969Y-73302583D01*
X132305553Y-73295142D01*
X132293927Y-73286519D01*
X132283202Y-73276798D01*
X132273481Y-73266073D01*
X132264858Y-73254447D01*
X132257417Y-73242031D01*
X132251228Y-73228946D01*
X132246351Y-73215317D01*
X132242834Y-73201276D01*
X132240710Y-73186958D01*
X132240000Y-73172500D01*
X132240000Y-72827500D01*
X132240710Y-72813042D01*
X132242834Y-72798724D01*
X132246351Y-72784683D01*
X132251228Y-72771054D01*
X132257417Y-72757969D01*
X132264858Y-72745553D01*
X132273481Y-72733927D01*
X132283202Y-72723202D01*
X132293927Y-72713481D01*
X132305553Y-72704858D01*
X132317969Y-72697417D01*
X132331054Y-72691228D01*
X132344683Y-72686351D01*
X132358724Y-72682834D01*
X132373042Y-72680710D01*
X132387500Y-72680000D01*
X132682500Y-72680000D01*
X132696958Y-72680710D01*
X132696958Y-72680710D01*
G37*
D13*
X132535000Y-73000000D03*
D12*
G36*
X131726958Y-72680710D02*
X131741276Y-72682834D01*
X131755317Y-72686351D01*
X131768946Y-72691228D01*
X131782031Y-72697417D01*
X131794447Y-72704858D01*
X131806073Y-72713481D01*
X131816798Y-72723202D01*
X131826519Y-72733927D01*
X131835142Y-72745553D01*
X131842583Y-72757969D01*
X131848772Y-72771054D01*
X131853649Y-72784683D01*
X131857166Y-72798724D01*
X131859290Y-72813042D01*
X131860000Y-72827500D01*
X131860000Y-73172500D01*
X131859290Y-73186958D01*
X131857166Y-73201276D01*
X131853649Y-73215317D01*
X131848772Y-73228946D01*
X131842583Y-73242031D01*
X131835142Y-73254447D01*
X131826519Y-73266073D01*
X131816798Y-73276798D01*
X131806073Y-73286519D01*
X131794447Y-73295142D01*
X131782031Y-73302583D01*
X131768946Y-73308772D01*
X131755317Y-73313649D01*
X131741276Y-73317166D01*
X131726958Y-73319290D01*
X131712500Y-73320000D01*
X131417500Y-73320000D01*
X131403042Y-73319290D01*
X131388724Y-73317166D01*
X131374683Y-73313649D01*
X131361054Y-73308772D01*
X131347969Y-73302583D01*
X131335553Y-73295142D01*
X131323927Y-73286519D01*
X131313202Y-73276798D01*
X131303481Y-73266073D01*
X131294858Y-73254447D01*
X131287417Y-73242031D01*
X131281228Y-73228946D01*
X131276351Y-73215317D01*
X131272834Y-73201276D01*
X131270710Y-73186958D01*
X131270000Y-73172500D01*
X131270000Y-72827500D01*
X131270710Y-72813042D01*
X131272834Y-72798724D01*
X131276351Y-72784683D01*
X131281228Y-72771054D01*
X131287417Y-72757969D01*
X131294858Y-72745553D01*
X131303481Y-72733927D01*
X131313202Y-72723202D01*
X131323927Y-72713481D01*
X131335553Y-72704858D01*
X131347969Y-72697417D01*
X131361054Y-72691228D01*
X131374683Y-72686351D01*
X131388724Y-72682834D01*
X131403042Y-72680710D01*
X131417500Y-72680000D01*
X131712500Y-72680000D01*
X131726958Y-72680710D01*
X131726958Y-72680710D01*
G37*
D13*
X131565000Y-73000000D03*
G04 #@! TD*
M02*
