G04 #@! TF.GenerationSoftware,KiCad,Pcbnew,5.0.2+dfsg1-1*
G04 #@! TF.CreationDate,2019-03-28T13:57:09+00:00*
G04 #@! TF.ProjectId,PiZeroInteract,50695a65-726f-4496-9e74-65726163742e,rev?*
G04 #@! TF.SameCoordinates,Original*
G04 #@! TF.FileFunction,Paste,Top*
G04 #@! TF.FilePolarity,Positive*
%FSLAX46Y46*%
G04 Gerber Fmt 4.6, Leading zero omitted, Abs format (unit mm)*
G04 Created by KiCad (PCBNEW 5.0.2+dfsg1-1) date Thu 28 Mar 2019 13:57:09 GMT*
%MOMM*%
%LPD*%
G01*
G04 APERTURE LIST*
%ADD10R,1.400000X1.600000*%
%ADD11C,0.100000*%
%ADD12C,1.125000*%
%ADD13C,0.590000*%
%ADD14C,0.875000*%
%ADD15C,1.600000*%
%ADD16R,1.300000X0.450000*%
%ADD17R,1.400000X3.400000*%
%ADD18R,2.300000X5.600000*%
%ADD19R,0.600000X0.500000*%
%ADD20R,0.800000X0.350000*%
%ADD21R,0.350000X0.800000*%
%ADD22R,1.050000X1.050000*%
%ADD23C,1.010000*%
%ADD24C,0.250000*%
G04 APERTURE END LIST*
D10*
G04 #@! TO.C,NAV_CNL1*
X137900000Y-66500000D03*
X137900000Y-73700000D03*
X140900000Y-66500000D03*
X140900000Y-73700000D03*
G04 #@! TD*
D11*
G04 #@! TO.C,L1*
G36*
X129599505Y-98501204D02*
X129623773Y-98504804D01*
X129647572Y-98510765D01*
X129670671Y-98519030D01*
X129692850Y-98529520D01*
X129713893Y-98542132D01*
X129733599Y-98556747D01*
X129751777Y-98573223D01*
X129768253Y-98591401D01*
X129782868Y-98611107D01*
X129795480Y-98632150D01*
X129805970Y-98654329D01*
X129814235Y-98677428D01*
X129820196Y-98701227D01*
X129823796Y-98725495D01*
X129825000Y-98749999D01*
X129825000Y-101650001D01*
X129823796Y-101674505D01*
X129820196Y-101698773D01*
X129814235Y-101722572D01*
X129805970Y-101745671D01*
X129795480Y-101767850D01*
X129782868Y-101788893D01*
X129768253Y-101808599D01*
X129751777Y-101826777D01*
X129733599Y-101843253D01*
X129713893Y-101857868D01*
X129692850Y-101870480D01*
X129670671Y-101880970D01*
X129647572Y-101889235D01*
X129623773Y-101895196D01*
X129599505Y-101898796D01*
X129575001Y-101900000D01*
X128949999Y-101900000D01*
X128925495Y-101898796D01*
X128901227Y-101895196D01*
X128877428Y-101889235D01*
X128854329Y-101880970D01*
X128832150Y-101870480D01*
X128811107Y-101857868D01*
X128791401Y-101843253D01*
X128773223Y-101826777D01*
X128756747Y-101808599D01*
X128742132Y-101788893D01*
X128729520Y-101767850D01*
X128719030Y-101745671D01*
X128710765Y-101722572D01*
X128704804Y-101698773D01*
X128701204Y-101674505D01*
X128700000Y-101650001D01*
X128700000Y-98749999D01*
X128701204Y-98725495D01*
X128704804Y-98701227D01*
X128710765Y-98677428D01*
X128719030Y-98654329D01*
X128729520Y-98632150D01*
X128742132Y-98611107D01*
X128756747Y-98591401D01*
X128773223Y-98573223D01*
X128791401Y-98556747D01*
X128811107Y-98542132D01*
X128832150Y-98529520D01*
X128854329Y-98519030D01*
X128877428Y-98510765D01*
X128901227Y-98504804D01*
X128925495Y-98501204D01*
X128949999Y-98500000D01*
X129575001Y-98500000D01*
X129599505Y-98501204D01*
X129599505Y-98501204D01*
G37*
D12*
X129262500Y-100200000D03*
D11*
G36*
X133874505Y-98501204D02*
X133898773Y-98504804D01*
X133922572Y-98510765D01*
X133945671Y-98519030D01*
X133967850Y-98529520D01*
X133988893Y-98542132D01*
X134008599Y-98556747D01*
X134026777Y-98573223D01*
X134043253Y-98591401D01*
X134057868Y-98611107D01*
X134070480Y-98632150D01*
X134080970Y-98654329D01*
X134089235Y-98677428D01*
X134095196Y-98701227D01*
X134098796Y-98725495D01*
X134100000Y-98749999D01*
X134100000Y-101650001D01*
X134098796Y-101674505D01*
X134095196Y-101698773D01*
X134089235Y-101722572D01*
X134080970Y-101745671D01*
X134070480Y-101767850D01*
X134057868Y-101788893D01*
X134043253Y-101808599D01*
X134026777Y-101826777D01*
X134008599Y-101843253D01*
X133988893Y-101857868D01*
X133967850Y-101870480D01*
X133945671Y-101880970D01*
X133922572Y-101889235D01*
X133898773Y-101895196D01*
X133874505Y-101898796D01*
X133850001Y-101900000D01*
X133224999Y-101900000D01*
X133200495Y-101898796D01*
X133176227Y-101895196D01*
X133152428Y-101889235D01*
X133129329Y-101880970D01*
X133107150Y-101870480D01*
X133086107Y-101857868D01*
X133066401Y-101843253D01*
X133048223Y-101826777D01*
X133031747Y-101808599D01*
X133017132Y-101788893D01*
X133004520Y-101767850D01*
X132994030Y-101745671D01*
X132985765Y-101722572D01*
X132979804Y-101698773D01*
X132976204Y-101674505D01*
X132975000Y-101650001D01*
X132975000Y-98749999D01*
X132976204Y-98725495D01*
X132979804Y-98701227D01*
X132985765Y-98677428D01*
X132994030Y-98654329D01*
X133004520Y-98632150D01*
X133017132Y-98611107D01*
X133031747Y-98591401D01*
X133048223Y-98573223D01*
X133066401Y-98556747D01*
X133086107Y-98542132D01*
X133107150Y-98529520D01*
X133129329Y-98519030D01*
X133152428Y-98510765D01*
X133176227Y-98504804D01*
X133200495Y-98501204D01*
X133224999Y-98500000D01*
X133850001Y-98500000D01*
X133874505Y-98501204D01*
X133874505Y-98501204D01*
G37*
D12*
X133537500Y-100200000D03*
G04 #@! TD*
D11*
G04 #@! TO.C,R15*
G36*
X127386958Y-101190710D02*
X127401276Y-101192834D01*
X127415317Y-101196351D01*
X127428946Y-101201228D01*
X127442031Y-101207417D01*
X127454447Y-101214858D01*
X127466073Y-101223481D01*
X127476798Y-101233202D01*
X127486519Y-101243927D01*
X127495142Y-101255553D01*
X127502583Y-101267969D01*
X127508772Y-101281054D01*
X127513649Y-101294683D01*
X127517166Y-101308724D01*
X127519290Y-101323042D01*
X127520000Y-101337500D01*
X127520000Y-101632500D01*
X127519290Y-101646958D01*
X127517166Y-101661276D01*
X127513649Y-101675317D01*
X127508772Y-101688946D01*
X127502583Y-101702031D01*
X127495142Y-101714447D01*
X127486519Y-101726073D01*
X127476798Y-101736798D01*
X127466073Y-101746519D01*
X127454447Y-101755142D01*
X127442031Y-101762583D01*
X127428946Y-101768772D01*
X127415317Y-101773649D01*
X127401276Y-101777166D01*
X127386958Y-101779290D01*
X127372500Y-101780000D01*
X127027500Y-101780000D01*
X127013042Y-101779290D01*
X126998724Y-101777166D01*
X126984683Y-101773649D01*
X126971054Y-101768772D01*
X126957969Y-101762583D01*
X126945553Y-101755142D01*
X126933927Y-101746519D01*
X126923202Y-101736798D01*
X126913481Y-101726073D01*
X126904858Y-101714447D01*
X126897417Y-101702031D01*
X126891228Y-101688946D01*
X126886351Y-101675317D01*
X126882834Y-101661276D01*
X126880710Y-101646958D01*
X126880000Y-101632500D01*
X126880000Y-101337500D01*
X126880710Y-101323042D01*
X126882834Y-101308724D01*
X126886351Y-101294683D01*
X126891228Y-101281054D01*
X126897417Y-101267969D01*
X126904858Y-101255553D01*
X126913481Y-101243927D01*
X126923202Y-101233202D01*
X126933927Y-101223481D01*
X126945553Y-101214858D01*
X126957969Y-101207417D01*
X126971054Y-101201228D01*
X126984683Y-101196351D01*
X126998724Y-101192834D01*
X127013042Y-101190710D01*
X127027500Y-101190000D01*
X127372500Y-101190000D01*
X127386958Y-101190710D01*
X127386958Y-101190710D01*
G37*
D13*
X127200000Y-101485000D03*
D11*
G36*
X127386958Y-100220710D02*
X127401276Y-100222834D01*
X127415317Y-100226351D01*
X127428946Y-100231228D01*
X127442031Y-100237417D01*
X127454447Y-100244858D01*
X127466073Y-100253481D01*
X127476798Y-100263202D01*
X127486519Y-100273927D01*
X127495142Y-100285553D01*
X127502583Y-100297969D01*
X127508772Y-100311054D01*
X127513649Y-100324683D01*
X127517166Y-100338724D01*
X127519290Y-100353042D01*
X127520000Y-100367500D01*
X127520000Y-100662500D01*
X127519290Y-100676958D01*
X127517166Y-100691276D01*
X127513649Y-100705317D01*
X127508772Y-100718946D01*
X127502583Y-100732031D01*
X127495142Y-100744447D01*
X127486519Y-100756073D01*
X127476798Y-100766798D01*
X127466073Y-100776519D01*
X127454447Y-100785142D01*
X127442031Y-100792583D01*
X127428946Y-100798772D01*
X127415317Y-100803649D01*
X127401276Y-100807166D01*
X127386958Y-100809290D01*
X127372500Y-100810000D01*
X127027500Y-100810000D01*
X127013042Y-100809290D01*
X126998724Y-100807166D01*
X126984683Y-100803649D01*
X126971054Y-100798772D01*
X126957969Y-100792583D01*
X126945553Y-100785142D01*
X126933927Y-100776519D01*
X126923202Y-100766798D01*
X126913481Y-100756073D01*
X126904858Y-100744447D01*
X126897417Y-100732031D01*
X126891228Y-100718946D01*
X126886351Y-100705317D01*
X126882834Y-100691276D01*
X126880710Y-100676958D01*
X126880000Y-100662500D01*
X126880000Y-100367500D01*
X126880710Y-100353042D01*
X126882834Y-100338724D01*
X126886351Y-100324683D01*
X126891228Y-100311054D01*
X126897417Y-100297969D01*
X126904858Y-100285553D01*
X126913481Y-100273927D01*
X126923202Y-100263202D01*
X126933927Y-100253481D01*
X126945553Y-100244858D01*
X126957969Y-100237417D01*
X126971054Y-100231228D01*
X126984683Y-100226351D01*
X126998724Y-100222834D01*
X127013042Y-100220710D01*
X127027500Y-100220000D01*
X127372500Y-100220000D01*
X127386958Y-100220710D01*
X127386958Y-100220710D01*
G37*
D13*
X127200000Y-100515000D03*
G04 #@! TD*
D11*
G04 #@! TO.C,C4*
G36*
X131077691Y-106263553D02*
X131098926Y-106266703D01*
X131119750Y-106271919D01*
X131139962Y-106279151D01*
X131159368Y-106288330D01*
X131177781Y-106299366D01*
X131195024Y-106312154D01*
X131210930Y-106326570D01*
X131225346Y-106342476D01*
X131238134Y-106359719D01*
X131249170Y-106378132D01*
X131258349Y-106397538D01*
X131265581Y-106417750D01*
X131270797Y-106438574D01*
X131273947Y-106459809D01*
X131275000Y-106481250D01*
X131275000Y-106918750D01*
X131273947Y-106940191D01*
X131270797Y-106961426D01*
X131265581Y-106982250D01*
X131258349Y-107002462D01*
X131249170Y-107021868D01*
X131238134Y-107040281D01*
X131225346Y-107057524D01*
X131210930Y-107073430D01*
X131195024Y-107087846D01*
X131177781Y-107100634D01*
X131159368Y-107111670D01*
X131139962Y-107120849D01*
X131119750Y-107128081D01*
X131098926Y-107133297D01*
X131077691Y-107136447D01*
X131056250Y-107137500D01*
X130543750Y-107137500D01*
X130522309Y-107136447D01*
X130501074Y-107133297D01*
X130480250Y-107128081D01*
X130460038Y-107120849D01*
X130440632Y-107111670D01*
X130422219Y-107100634D01*
X130404976Y-107087846D01*
X130389070Y-107073430D01*
X130374654Y-107057524D01*
X130361866Y-107040281D01*
X130350830Y-107021868D01*
X130341651Y-107002462D01*
X130334419Y-106982250D01*
X130329203Y-106961426D01*
X130326053Y-106940191D01*
X130325000Y-106918750D01*
X130325000Y-106481250D01*
X130326053Y-106459809D01*
X130329203Y-106438574D01*
X130334419Y-106417750D01*
X130341651Y-106397538D01*
X130350830Y-106378132D01*
X130361866Y-106359719D01*
X130374654Y-106342476D01*
X130389070Y-106326570D01*
X130404976Y-106312154D01*
X130422219Y-106299366D01*
X130440632Y-106288330D01*
X130460038Y-106279151D01*
X130480250Y-106271919D01*
X130501074Y-106266703D01*
X130522309Y-106263553D01*
X130543750Y-106262500D01*
X131056250Y-106262500D01*
X131077691Y-106263553D01*
X131077691Y-106263553D01*
G37*
D14*
X130800000Y-106700000D03*
D11*
G36*
X131077691Y-104688553D02*
X131098926Y-104691703D01*
X131119750Y-104696919D01*
X131139962Y-104704151D01*
X131159368Y-104713330D01*
X131177781Y-104724366D01*
X131195024Y-104737154D01*
X131210930Y-104751570D01*
X131225346Y-104767476D01*
X131238134Y-104784719D01*
X131249170Y-104803132D01*
X131258349Y-104822538D01*
X131265581Y-104842750D01*
X131270797Y-104863574D01*
X131273947Y-104884809D01*
X131275000Y-104906250D01*
X131275000Y-105343750D01*
X131273947Y-105365191D01*
X131270797Y-105386426D01*
X131265581Y-105407250D01*
X131258349Y-105427462D01*
X131249170Y-105446868D01*
X131238134Y-105465281D01*
X131225346Y-105482524D01*
X131210930Y-105498430D01*
X131195024Y-105512846D01*
X131177781Y-105525634D01*
X131159368Y-105536670D01*
X131139962Y-105545849D01*
X131119750Y-105553081D01*
X131098926Y-105558297D01*
X131077691Y-105561447D01*
X131056250Y-105562500D01*
X130543750Y-105562500D01*
X130522309Y-105561447D01*
X130501074Y-105558297D01*
X130480250Y-105553081D01*
X130460038Y-105545849D01*
X130440632Y-105536670D01*
X130422219Y-105525634D01*
X130404976Y-105512846D01*
X130389070Y-105498430D01*
X130374654Y-105482524D01*
X130361866Y-105465281D01*
X130350830Y-105446868D01*
X130341651Y-105427462D01*
X130334419Y-105407250D01*
X130329203Y-105386426D01*
X130326053Y-105365191D01*
X130325000Y-105343750D01*
X130325000Y-104906250D01*
X130326053Y-104884809D01*
X130329203Y-104863574D01*
X130334419Y-104842750D01*
X130341651Y-104822538D01*
X130350830Y-104803132D01*
X130361866Y-104784719D01*
X130374654Y-104767476D01*
X130389070Y-104751570D01*
X130404976Y-104737154D01*
X130422219Y-104724366D01*
X130440632Y-104713330D01*
X130460038Y-104704151D01*
X130480250Y-104696919D01*
X130501074Y-104691703D01*
X130522309Y-104688553D01*
X130543750Y-104687500D01*
X131056250Y-104687500D01*
X131077691Y-104688553D01*
X131077691Y-104688553D01*
G37*
D14*
X130800000Y-105125000D03*
G04 #@! TD*
D11*
G04 #@! TO.C,C1*
G36*
X134465191Y-107726053D02*
X134486426Y-107729203D01*
X134507250Y-107734419D01*
X134527462Y-107741651D01*
X134546868Y-107750830D01*
X134565281Y-107761866D01*
X134582524Y-107774654D01*
X134598430Y-107789070D01*
X134612846Y-107804976D01*
X134625634Y-107822219D01*
X134636670Y-107840632D01*
X134645849Y-107860038D01*
X134653081Y-107880250D01*
X134658297Y-107901074D01*
X134661447Y-107922309D01*
X134662500Y-107943750D01*
X134662500Y-108456250D01*
X134661447Y-108477691D01*
X134658297Y-108498926D01*
X134653081Y-108519750D01*
X134645849Y-108539962D01*
X134636670Y-108559368D01*
X134625634Y-108577781D01*
X134612846Y-108595024D01*
X134598430Y-108610930D01*
X134582524Y-108625346D01*
X134565281Y-108638134D01*
X134546868Y-108649170D01*
X134527462Y-108658349D01*
X134507250Y-108665581D01*
X134486426Y-108670797D01*
X134465191Y-108673947D01*
X134443750Y-108675000D01*
X134006250Y-108675000D01*
X133984809Y-108673947D01*
X133963574Y-108670797D01*
X133942750Y-108665581D01*
X133922538Y-108658349D01*
X133903132Y-108649170D01*
X133884719Y-108638134D01*
X133867476Y-108625346D01*
X133851570Y-108610930D01*
X133837154Y-108595024D01*
X133824366Y-108577781D01*
X133813330Y-108559368D01*
X133804151Y-108539962D01*
X133796919Y-108519750D01*
X133791703Y-108498926D01*
X133788553Y-108477691D01*
X133787500Y-108456250D01*
X133787500Y-107943750D01*
X133788553Y-107922309D01*
X133791703Y-107901074D01*
X133796919Y-107880250D01*
X133804151Y-107860038D01*
X133813330Y-107840632D01*
X133824366Y-107822219D01*
X133837154Y-107804976D01*
X133851570Y-107789070D01*
X133867476Y-107774654D01*
X133884719Y-107761866D01*
X133903132Y-107750830D01*
X133922538Y-107741651D01*
X133942750Y-107734419D01*
X133963574Y-107729203D01*
X133984809Y-107726053D01*
X134006250Y-107725000D01*
X134443750Y-107725000D01*
X134465191Y-107726053D01*
X134465191Y-107726053D01*
G37*
D14*
X134225000Y-108200000D03*
D11*
G36*
X136040191Y-107726053D02*
X136061426Y-107729203D01*
X136082250Y-107734419D01*
X136102462Y-107741651D01*
X136121868Y-107750830D01*
X136140281Y-107761866D01*
X136157524Y-107774654D01*
X136173430Y-107789070D01*
X136187846Y-107804976D01*
X136200634Y-107822219D01*
X136211670Y-107840632D01*
X136220849Y-107860038D01*
X136228081Y-107880250D01*
X136233297Y-107901074D01*
X136236447Y-107922309D01*
X136237500Y-107943750D01*
X136237500Y-108456250D01*
X136236447Y-108477691D01*
X136233297Y-108498926D01*
X136228081Y-108519750D01*
X136220849Y-108539962D01*
X136211670Y-108559368D01*
X136200634Y-108577781D01*
X136187846Y-108595024D01*
X136173430Y-108610930D01*
X136157524Y-108625346D01*
X136140281Y-108638134D01*
X136121868Y-108649170D01*
X136102462Y-108658349D01*
X136082250Y-108665581D01*
X136061426Y-108670797D01*
X136040191Y-108673947D01*
X136018750Y-108675000D01*
X135581250Y-108675000D01*
X135559809Y-108673947D01*
X135538574Y-108670797D01*
X135517750Y-108665581D01*
X135497538Y-108658349D01*
X135478132Y-108649170D01*
X135459719Y-108638134D01*
X135442476Y-108625346D01*
X135426570Y-108610930D01*
X135412154Y-108595024D01*
X135399366Y-108577781D01*
X135388330Y-108559368D01*
X135379151Y-108539962D01*
X135371919Y-108519750D01*
X135366703Y-108498926D01*
X135363553Y-108477691D01*
X135362500Y-108456250D01*
X135362500Y-107943750D01*
X135363553Y-107922309D01*
X135366703Y-107901074D01*
X135371919Y-107880250D01*
X135379151Y-107860038D01*
X135388330Y-107840632D01*
X135399366Y-107822219D01*
X135412154Y-107804976D01*
X135426570Y-107789070D01*
X135442476Y-107774654D01*
X135459719Y-107761866D01*
X135478132Y-107750830D01*
X135497538Y-107741651D01*
X135517750Y-107734419D01*
X135538574Y-107729203D01*
X135559809Y-107726053D01*
X135581250Y-107725000D01*
X136018750Y-107725000D01*
X136040191Y-107726053D01*
X136040191Y-107726053D01*
G37*
D14*
X135800000Y-108200000D03*
G04 #@! TD*
D11*
G04 #@! TO.C,C2*
G36*
X126727691Y-98226053D02*
X126748926Y-98229203D01*
X126769750Y-98234419D01*
X126789962Y-98241651D01*
X126809368Y-98250830D01*
X126827781Y-98261866D01*
X126845024Y-98274654D01*
X126860930Y-98289070D01*
X126875346Y-98304976D01*
X126888134Y-98322219D01*
X126899170Y-98340632D01*
X126908349Y-98360038D01*
X126915581Y-98380250D01*
X126920797Y-98401074D01*
X126923947Y-98422309D01*
X126925000Y-98443750D01*
X126925000Y-98956250D01*
X126923947Y-98977691D01*
X126920797Y-98998926D01*
X126915581Y-99019750D01*
X126908349Y-99039962D01*
X126899170Y-99059368D01*
X126888134Y-99077781D01*
X126875346Y-99095024D01*
X126860930Y-99110930D01*
X126845024Y-99125346D01*
X126827781Y-99138134D01*
X126809368Y-99149170D01*
X126789962Y-99158349D01*
X126769750Y-99165581D01*
X126748926Y-99170797D01*
X126727691Y-99173947D01*
X126706250Y-99175000D01*
X126268750Y-99175000D01*
X126247309Y-99173947D01*
X126226074Y-99170797D01*
X126205250Y-99165581D01*
X126185038Y-99158349D01*
X126165632Y-99149170D01*
X126147219Y-99138134D01*
X126129976Y-99125346D01*
X126114070Y-99110930D01*
X126099654Y-99095024D01*
X126086866Y-99077781D01*
X126075830Y-99059368D01*
X126066651Y-99039962D01*
X126059419Y-99019750D01*
X126054203Y-98998926D01*
X126051053Y-98977691D01*
X126050000Y-98956250D01*
X126050000Y-98443750D01*
X126051053Y-98422309D01*
X126054203Y-98401074D01*
X126059419Y-98380250D01*
X126066651Y-98360038D01*
X126075830Y-98340632D01*
X126086866Y-98322219D01*
X126099654Y-98304976D01*
X126114070Y-98289070D01*
X126129976Y-98274654D01*
X126147219Y-98261866D01*
X126165632Y-98250830D01*
X126185038Y-98241651D01*
X126205250Y-98234419D01*
X126226074Y-98229203D01*
X126247309Y-98226053D01*
X126268750Y-98225000D01*
X126706250Y-98225000D01*
X126727691Y-98226053D01*
X126727691Y-98226053D01*
G37*
D14*
X126487500Y-98700000D03*
D11*
G36*
X125152691Y-98226053D02*
X125173926Y-98229203D01*
X125194750Y-98234419D01*
X125214962Y-98241651D01*
X125234368Y-98250830D01*
X125252781Y-98261866D01*
X125270024Y-98274654D01*
X125285930Y-98289070D01*
X125300346Y-98304976D01*
X125313134Y-98322219D01*
X125324170Y-98340632D01*
X125333349Y-98360038D01*
X125340581Y-98380250D01*
X125345797Y-98401074D01*
X125348947Y-98422309D01*
X125350000Y-98443750D01*
X125350000Y-98956250D01*
X125348947Y-98977691D01*
X125345797Y-98998926D01*
X125340581Y-99019750D01*
X125333349Y-99039962D01*
X125324170Y-99059368D01*
X125313134Y-99077781D01*
X125300346Y-99095024D01*
X125285930Y-99110930D01*
X125270024Y-99125346D01*
X125252781Y-99138134D01*
X125234368Y-99149170D01*
X125214962Y-99158349D01*
X125194750Y-99165581D01*
X125173926Y-99170797D01*
X125152691Y-99173947D01*
X125131250Y-99175000D01*
X124693750Y-99175000D01*
X124672309Y-99173947D01*
X124651074Y-99170797D01*
X124630250Y-99165581D01*
X124610038Y-99158349D01*
X124590632Y-99149170D01*
X124572219Y-99138134D01*
X124554976Y-99125346D01*
X124539070Y-99110930D01*
X124524654Y-99095024D01*
X124511866Y-99077781D01*
X124500830Y-99059368D01*
X124491651Y-99039962D01*
X124484419Y-99019750D01*
X124479203Y-98998926D01*
X124476053Y-98977691D01*
X124475000Y-98956250D01*
X124475000Y-98443750D01*
X124476053Y-98422309D01*
X124479203Y-98401074D01*
X124484419Y-98380250D01*
X124491651Y-98360038D01*
X124500830Y-98340632D01*
X124511866Y-98322219D01*
X124524654Y-98304976D01*
X124539070Y-98289070D01*
X124554976Y-98274654D01*
X124572219Y-98261866D01*
X124590632Y-98250830D01*
X124610038Y-98241651D01*
X124630250Y-98234419D01*
X124651074Y-98229203D01*
X124672309Y-98226053D01*
X124693750Y-98225000D01*
X125131250Y-98225000D01*
X125152691Y-98226053D01*
X125152691Y-98226053D01*
G37*
D14*
X124912500Y-98700000D03*
G04 #@! TD*
D11*
G04 #@! TO.C,C3*
G36*
X138174504Y-97501204D02*
X138198773Y-97504804D01*
X138222571Y-97510765D01*
X138245671Y-97519030D01*
X138267849Y-97529520D01*
X138288893Y-97542133D01*
X138308598Y-97556747D01*
X138326777Y-97573223D01*
X138343253Y-97591402D01*
X138357867Y-97611107D01*
X138370480Y-97632151D01*
X138380970Y-97654329D01*
X138389235Y-97677429D01*
X138395196Y-97701227D01*
X138398796Y-97725496D01*
X138400000Y-97750000D01*
X138400000Y-99850000D01*
X138398796Y-99874504D01*
X138395196Y-99898773D01*
X138389235Y-99922571D01*
X138380970Y-99945671D01*
X138370480Y-99967849D01*
X138357867Y-99988893D01*
X138343253Y-100008598D01*
X138326777Y-100026777D01*
X138308598Y-100043253D01*
X138288893Y-100057867D01*
X138267849Y-100070480D01*
X138245671Y-100080970D01*
X138222571Y-100089235D01*
X138198773Y-100095196D01*
X138174504Y-100098796D01*
X138150000Y-100100000D01*
X137050000Y-100100000D01*
X137025496Y-100098796D01*
X137001227Y-100095196D01*
X136977429Y-100089235D01*
X136954329Y-100080970D01*
X136932151Y-100070480D01*
X136911107Y-100057867D01*
X136891402Y-100043253D01*
X136873223Y-100026777D01*
X136856747Y-100008598D01*
X136842133Y-99988893D01*
X136829520Y-99967849D01*
X136819030Y-99945671D01*
X136810765Y-99922571D01*
X136804804Y-99898773D01*
X136801204Y-99874504D01*
X136800000Y-99850000D01*
X136800000Y-97750000D01*
X136801204Y-97725496D01*
X136804804Y-97701227D01*
X136810765Y-97677429D01*
X136819030Y-97654329D01*
X136829520Y-97632151D01*
X136842133Y-97611107D01*
X136856747Y-97591402D01*
X136873223Y-97573223D01*
X136891402Y-97556747D01*
X136911107Y-97542133D01*
X136932151Y-97529520D01*
X136954329Y-97519030D01*
X136977429Y-97510765D01*
X137001227Y-97504804D01*
X137025496Y-97501204D01*
X137050000Y-97500000D01*
X138150000Y-97500000D01*
X138174504Y-97501204D01*
X138174504Y-97501204D01*
G37*
D15*
X137600000Y-98800000D03*
D11*
G36*
X138174504Y-93901204D02*
X138198773Y-93904804D01*
X138222571Y-93910765D01*
X138245671Y-93919030D01*
X138267849Y-93929520D01*
X138288893Y-93942133D01*
X138308598Y-93956747D01*
X138326777Y-93973223D01*
X138343253Y-93991402D01*
X138357867Y-94011107D01*
X138370480Y-94032151D01*
X138380970Y-94054329D01*
X138389235Y-94077429D01*
X138395196Y-94101227D01*
X138398796Y-94125496D01*
X138400000Y-94150000D01*
X138400000Y-96250000D01*
X138398796Y-96274504D01*
X138395196Y-96298773D01*
X138389235Y-96322571D01*
X138380970Y-96345671D01*
X138370480Y-96367849D01*
X138357867Y-96388893D01*
X138343253Y-96408598D01*
X138326777Y-96426777D01*
X138308598Y-96443253D01*
X138288893Y-96457867D01*
X138267849Y-96470480D01*
X138245671Y-96480970D01*
X138222571Y-96489235D01*
X138198773Y-96495196D01*
X138174504Y-96498796D01*
X138150000Y-96500000D01*
X137050000Y-96500000D01*
X137025496Y-96498796D01*
X137001227Y-96495196D01*
X136977429Y-96489235D01*
X136954329Y-96480970D01*
X136932151Y-96470480D01*
X136911107Y-96457867D01*
X136891402Y-96443253D01*
X136873223Y-96426777D01*
X136856747Y-96408598D01*
X136842133Y-96388893D01*
X136829520Y-96367849D01*
X136819030Y-96345671D01*
X136810765Y-96322571D01*
X136804804Y-96298773D01*
X136801204Y-96274504D01*
X136800000Y-96250000D01*
X136800000Y-94150000D01*
X136801204Y-94125496D01*
X136804804Y-94101227D01*
X136810765Y-94077429D01*
X136819030Y-94054329D01*
X136829520Y-94032151D01*
X136842133Y-94011107D01*
X136856747Y-93991402D01*
X136873223Y-93973223D01*
X136891402Y-93956747D01*
X136911107Y-93942133D01*
X136932151Y-93929520D01*
X136954329Y-93919030D01*
X136977429Y-93910765D01*
X137001227Y-93904804D01*
X137025496Y-93901204D01*
X137050000Y-93900000D01*
X138150000Y-93900000D01*
X138174504Y-93901204D01*
X138174504Y-93901204D01*
G37*
D15*
X137600000Y-95200000D03*
G04 #@! TD*
D11*
G04 #@! TO.C,C5*
G36*
X133977691Y-96451053D02*
X133998926Y-96454203D01*
X134019750Y-96459419D01*
X134039962Y-96466651D01*
X134059368Y-96475830D01*
X134077781Y-96486866D01*
X134095024Y-96499654D01*
X134110930Y-96514070D01*
X134125346Y-96529976D01*
X134138134Y-96547219D01*
X134149170Y-96565632D01*
X134158349Y-96585038D01*
X134165581Y-96605250D01*
X134170797Y-96626074D01*
X134173947Y-96647309D01*
X134175000Y-96668750D01*
X134175000Y-97106250D01*
X134173947Y-97127691D01*
X134170797Y-97148926D01*
X134165581Y-97169750D01*
X134158349Y-97189962D01*
X134149170Y-97209368D01*
X134138134Y-97227781D01*
X134125346Y-97245024D01*
X134110930Y-97260930D01*
X134095024Y-97275346D01*
X134077781Y-97288134D01*
X134059368Y-97299170D01*
X134039962Y-97308349D01*
X134019750Y-97315581D01*
X133998926Y-97320797D01*
X133977691Y-97323947D01*
X133956250Y-97325000D01*
X133443750Y-97325000D01*
X133422309Y-97323947D01*
X133401074Y-97320797D01*
X133380250Y-97315581D01*
X133360038Y-97308349D01*
X133340632Y-97299170D01*
X133322219Y-97288134D01*
X133304976Y-97275346D01*
X133289070Y-97260930D01*
X133274654Y-97245024D01*
X133261866Y-97227781D01*
X133250830Y-97209368D01*
X133241651Y-97189962D01*
X133234419Y-97169750D01*
X133229203Y-97148926D01*
X133226053Y-97127691D01*
X133225000Y-97106250D01*
X133225000Y-96668750D01*
X133226053Y-96647309D01*
X133229203Y-96626074D01*
X133234419Y-96605250D01*
X133241651Y-96585038D01*
X133250830Y-96565632D01*
X133261866Y-96547219D01*
X133274654Y-96529976D01*
X133289070Y-96514070D01*
X133304976Y-96499654D01*
X133322219Y-96486866D01*
X133340632Y-96475830D01*
X133360038Y-96466651D01*
X133380250Y-96459419D01*
X133401074Y-96454203D01*
X133422309Y-96451053D01*
X133443750Y-96450000D01*
X133956250Y-96450000D01*
X133977691Y-96451053D01*
X133977691Y-96451053D01*
G37*
D14*
X133700000Y-96887500D03*
D11*
G36*
X133977691Y-94876053D02*
X133998926Y-94879203D01*
X134019750Y-94884419D01*
X134039962Y-94891651D01*
X134059368Y-94900830D01*
X134077781Y-94911866D01*
X134095024Y-94924654D01*
X134110930Y-94939070D01*
X134125346Y-94954976D01*
X134138134Y-94972219D01*
X134149170Y-94990632D01*
X134158349Y-95010038D01*
X134165581Y-95030250D01*
X134170797Y-95051074D01*
X134173947Y-95072309D01*
X134175000Y-95093750D01*
X134175000Y-95531250D01*
X134173947Y-95552691D01*
X134170797Y-95573926D01*
X134165581Y-95594750D01*
X134158349Y-95614962D01*
X134149170Y-95634368D01*
X134138134Y-95652781D01*
X134125346Y-95670024D01*
X134110930Y-95685930D01*
X134095024Y-95700346D01*
X134077781Y-95713134D01*
X134059368Y-95724170D01*
X134039962Y-95733349D01*
X134019750Y-95740581D01*
X133998926Y-95745797D01*
X133977691Y-95748947D01*
X133956250Y-95750000D01*
X133443750Y-95750000D01*
X133422309Y-95748947D01*
X133401074Y-95745797D01*
X133380250Y-95740581D01*
X133360038Y-95733349D01*
X133340632Y-95724170D01*
X133322219Y-95713134D01*
X133304976Y-95700346D01*
X133289070Y-95685930D01*
X133274654Y-95670024D01*
X133261866Y-95652781D01*
X133250830Y-95634368D01*
X133241651Y-95614962D01*
X133234419Y-95594750D01*
X133229203Y-95573926D01*
X133226053Y-95552691D01*
X133225000Y-95531250D01*
X133225000Y-95093750D01*
X133226053Y-95072309D01*
X133229203Y-95051074D01*
X133234419Y-95030250D01*
X133241651Y-95010038D01*
X133250830Y-94990632D01*
X133261866Y-94972219D01*
X133274654Y-94954976D01*
X133289070Y-94939070D01*
X133304976Y-94924654D01*
X133322219Y-94911866D01*
X133340632Y-94900830D01*
X133360038Y-94891651D01*
X133380250Y-94884419D01*
X133401074Y-94879203D01*
X133422309Y-94876053D01*
X133443750Y-94875000D01*
X133956250Y-94875000D01*
X133977691Y-94876053D01*
X133977691Y-94876053D01*
G37*
D14*
X133700000Y-95312500D03*
G04 #@! TD*
D11*
G04 #@! TO.C,C6*
G36*
X131027691Y-109226053D02*
X131048926Y-109229203D01*
X131069750Y-109234419D01*
X131089962Y-109241651D01*
X131109368Y-109250830D01*
X131127781Y-109261866D01*
X131145024Y-109274654D01*
X131160930Y-109289070D01*
X131175346Y-109304976D01*
X131188134Y-109322219D01*
X131199170Y-109340632D01*
X131208349Y-109360038D01*
X131215581Y-109380250D01*
X131220797Y-109401074D01*
X131223947Y-109422309D01*
X131225000Y-109443750D01*
X131225000Y-109956250D01*
X131223947Y-109977691D01*
X131220797Y-109998926D01*
X131215581Y-110019750D01*
X131208349Y-110039962D01*
X131199170Y-110059368D01*
X131188134Y-110077781D01*
X131175346Y-110095024D01*
X131160930Y-110110930D01*
X131145024Y-110125346D01*
X131127781Y-110138134D01*
X131109368Y-110149170D01*
X131089962Y-110158349D01*
X131069750Y-110165581D01*
X131048926Y-110170797D01*
X131027691Y-110173947D01*
X131006250Y-110175000D01*
X130568750Y-110175000D01*
X130547309Y-110173947D01*
X130526074Y-110170797D01*
X130505250Y-110165581D01*
X130485038Y-110158349D01*
X130465632Y-110149170D01*
X130447219Y-110138134D01*
X130429976Y-110125346D01*
X130414070Y-110110930D01*
X130399654Y-110095024D01*
X130386866Y-110077781D01*
X130375830Y-110059368D01*
X130366651Y-110039962D01*
X130359419Y-110019750D01*
X130354203Y-109998926D01*
X130351053Y-109977691D01*
X130350000Y-109956250D01*
X130350000Y-109443750D01*
X130351053Y-109422309D01*
X130354203Y-109401074D01*
X130359419Y-109380250D01*
X130366651Y-109360038D01*
X130375830Y-109340632D01*
X130386866Y-109322219D01*
X130399654Y-109304976D01*
X130414070Y-109289070D01*
X130429976Y-109274654D01*
X130447219Y-109261866D01*
X130465632Y-109250830D01*
X130485038Y-109241651D01*
X130505250Y-109234419D01*
X130526074Y-109229203D01*
X130547309Y-109226053D01*
X130568750Y-109225000D01*
X131006250Y-109225000D01*
X131027691Y-109226053D01*
X131027691Y-109226053D01*
G37*
D14*
X130787500Y-109700000D03*
D11*
G36*
X129452691Y-109226053D02*
X129473926Y-109229203D01*
X129494750Y-109234419D01*
X129514962Y-109241651D01*
X129534368Y-109250830D01*
X129552781Y-109261866D01*
X129570024Y-109274654D01*
X129585930Y-109289070D01*
X129600346Y-109304976D01*
X129613134Y-109322219D01*
X129624170Y-109340632D01*
X129633349Y-109360038D01*
X129640581Y-109380250D01*
X129645797Y-109401074D01*
X129648947Y-109422309D01*
X129650000Y-109443750D01*
X129650000Y-109956250D01*
X129648947Y-109977691D01*
X129645797Y-109998926D01*
X129640581Y-110019750D01*
X129633349Y-110039962D01*
X129624170Y-110059368D01*
X129613134Y-110077781D01*
X129600346Y-110095024D01*
X129585930Y-110110930D01*
X129570024Y-110125346D01*
X129552781Y-110138134D01*
X129534368Y-110149170D01*
X129514962Y-110158349D01*
X129494750Y-110165581D01*
X129473926Y-110170797D01*
X129452691Y-110173947D01*
X129431250Y-110175000D01*
X128993750Y-110175000D01*
X128972309Y-110173947D01*
X128951074Y-110170797D01*
X128930250Y-110165581D01*
X128910038Y-110158349D01*
X128890632Y-110149170D01*
X128872219Y-110138134D01*
X128854976Y-110125346D01*
X128839070Y-110110930D01*
X128824654Y-110095024D01*
X128811866Y-110077781D01*
X128800830Y-110059368D01*
X128791651Y-110039962D01*
X128784419Y-110019750D01*
X128779203Y-109998926D01*
X128776053Y-109977691D01*
X128775000Y-109956250D01*
X128775000Y-109443750D01*
X128776053Y-109422309D01*
X128779203Y-109401074D01*
X128784419Y-109380250D01*
X128791651Y-109360038D01*
X128800830Y-109340632D01*
X128811866Y-109322219D01*
X128824654Y-109304976D01*
X128839070Y-109289070D01*
X128854976Y-109274654D01*
X128872219Y-109261866D01*
X128890632Y-109250830D01*
X128910038Y-109241651D01*
X128930250Y-109234419D01*
X128951074Y-109229203D01*
X128972309Y-109226053D01*
X128993750Y-109225000D01*
X129431250Y-109225000D01*
X129452691Y-109226053D01*
X129452691Y-109226053D01*
G37*
D14*
X129212500Y-109700000D03*
G04 #@! TD*
D11*
G04 #@! TO.C,CHARGE2LED1*
G36*
X121977691Y-117751053D02*
X121998926Y-117754203D01*
X122019750Y-117759419D01*
X122039962Y-117766651D01*
X122059368Y-117775830D01*
X122077781Y-117786866D01*
X122095024Y-117799654D01*
X122110930Y-117814070D01*
X122125346Y-117829976D01*
X122138134Y-117847219D01*
X122149170Y-117865632D01*
X122158349Y-117885038D01*
X122165581Y-117905250D01*
X122170797Y-117926074D01*
X122173947Y-117947309D01*
X122175000Y-117968750D01*
X122175000Y-118406250D01*
X122173947Y-118427691D01*
X122170797Y-118448926D01*
X122165581Y-118469750D01*
X122158349Y-118489962D01*
X122149170Y-118509368D01*
X122138134Y-118527781D01*
X122125346Y-118545024D01*
X122110930Y-118560930D01*
X122095024Y-118575346D01*
X122077781Y-118588134D01*
X122059368Y-118599170D01*
X122039962Y-118608349D01*
X122019750Y-118615581D01*
X121998926Y-118620797D01*
X121977691Y-118623947D01*
X121956250Y-118625000D01*
X121443750Y-118625000D01*
X121422309Y-118623947D01*
X121401074Y-118620797D01*
X121380250Y-118615581D01*
X121360038Y-118608349D01*
X121340632Y-118599170D01*
X121322219Y-118588134D01*
X121304976Y-118575346D01*
X121289070Y-118560930D01*
X121274654Y-118545024D01*
X121261866Y-118527781D01*
X121250830Y-118509368D01*
X121241651Y-118489962D01*
X121234419Y-118469750D01*
X121229203Y-118448926D01*
X121226053Y-118427691D01*
X121225000Y-118406250D01*
X121225000Y-117968750D01*
X121226053Y-117947309D01*
X121229203Y-117926074D01*
X121234419Y-117905250D01*
X121241651Y-117885038D01*
X121250830Y-117865632D01*
X121261866Y-117847219D01*
X121274654Y-117829976D01*
X121289070Y-117814070D01*
X121304976Y-117799654D01*
X121322219Y-117786866D01*
X121340632Y-117775830D01*
X121360038Y-117766651D01*
X121380250Y-117759419D01*
X121401074Y-117754203D01*
X121422309Y-117751053D01*
X121443750Y-117750000D01*
X121956250Y-117750000D01*
X121977691Y-117751053D01*
X121977691Y-117751053D01*
G37*
D14*
X121700000Y-118187500D03*
D11*
G36*
X121977691Y-116176053D02*
X121998926Y-116179203D01*
X122019750Y-116184419D01*
X122039962Y-116191651D01*
X122059368Y-116200830D01*
X122077781Y-116211866D01*
X122095024Y-116224654D01*
X122110930Y-116239070D01*
X122125346Y-116254976D01*
X122138134Y-116272219D01*
X122149170Y-116290632D01*
X122158349Y-116310038D01*
X122165581Y-116330250D01*
X122170797Y-116351074D01*
X122173947Y-116372309D01*
X122175000Y-116393750D01*
X122175000Y-116831250D01*
X122173947Y-116852691D01*
X122170797Y-116873926D01*
X122165581Y-116894750D01*
X122158349Y-116914962D01*
X122149170Y-116934368D01*
X122138134Y-116952781D01*
X122125346Y-116970024D01*
X122110930Y-116985930D01*
X122095024Y-117000346D01*
X122077781Y-117013134D01*
X122059368Y-117024170D01*
X122039962Y-117033349D01*
X122019750Y-117040581D01*
X121998926Y-117045797D01*
X121977691Y-117048947D01*
X121956250Y-117050000D01*
X121443750Y-117050000D01*
X121422309Y-117048947D01*
X121401074Y-117045797D01*
X121380250Y-117040581D01*
X121360038Y-117033349D01*
X121340632Y-117024170D01*
X121322219Y-117013134D01*
X121304976Y-117000346D01*
X121289070Y-116985930D01*
X121274654Y-116970024D01*
X121261866Y-116952781D01*
X121250830Y-116934368D01*
X121241651Y-116914962D01*
X121234419Y-116894750D01*
X121229203Y-116873926D01*
X121226053Y-116852691D01*
X121225000Y-116831250D01*
X121225000Y-116393750D01*
X121226053Y-116372309D01*
X121229203Y-116351074D01*
X121234419Y-116330250D01*
X121241651Y-116310038D01*
X121250830Y-116290632D01*
X121261866Y-116272219D01*
X121274654Y-116254976D01*
X121289070Y-116239070D01*
X121304976Y-116224654D01*
X121322219Y-116211866D01*
X121340632Y-116200830D01*
X121360038Y-116191651D01*
X121380250Y-116184419D01*
X121401074Y-116179203D01*
X121422309Y-116176053D01*
X121443750Y-116175000D01*
X121956250Y-116175000D01*
X121977691Y-116176053D01*
X121977691Y-116176053D01*
G37*
D14*
X121700000Y-116612500D03*
G04 #@! TD*
D11*
G04 #@! TO.C,CHARGING_LED1*
G36*
X143027691Y-60526053D02*
X143048926Y-60529203D01*
X143069750Y-60534419D01*
X143089962Y-60541651D01*
X143109368Y-60550830D01*
X143127781Y-60561866D01*
X143145024Y-60574654D01*
X143160930Y-60589070D01*
X143175346Y-60604976D01*
X143188134Y-60622219D01*
X143199170Y-60640632D01*
X143208349Y-60660038D01*
X143215581Y-60680250D01*
X143220797Y-60701074D01*
X143223947Y-60722309D01*
X143225000Y-60743750D01*
X143225000Y-61256250D01*
X143223947Y-61277691D01*
X143220797Y-61298926D01*
X143215581Y-61319750D01*
X143208349Y-61339962D01*
X143199170Y-61359368D01*
X143188134Y-61377781D01*
X143175346Y-61395024D01*
X143160930Y-61410930D01*
X143145024Y-61425346D01*
X143127781Y-61438134D01*
X143109368Y-61449170D01*
X143089962Y-61458349D01*
X143069750Y-61465581D01*
X143048926Y-61470797D01*
X143027691Y-61473947D01*
X143006250Y-61475000D01*
X142568750Y-61475000D01*
X142547309Y-61473947D01*
X142526074Y-61470797D01*
X142505250Y-61465581D01*
X142485038Y-61458349D01*
X142465632Y-61449170D01*
X142447219Y-61438134D01*
X142429976Y-61425346D01*
X142414070Y-61410930D01*
X142399654Y-61395024D01*
X142386866Y-61377781D01*
X142375830Y-61359368D01*
X142366651Y-61339962D01*
X142359419Y-61319750D01*
X142354203Y-61298926D01*
X142351053Y-61277691D01*
X142350000Y-61256250D01*
X142350000Y-60743750D01*
X142351053Y-60722309D01*
X142354203Y-60701074D01*
X142359419Y-60680250D01*
X142366651Y-60660038D01*
X142375830Y-60640632D01*
X142386866Y-60622219D01*
X142399654Y-60604976D01*
X142414070Y-60589070D01*
X142429976Y-60574654D01*
X142447219Y-60561866D01*
X142465632Y-60550830D01*
X142485038Y-60541651D01*
X142505250Y-60534419D01*
X142526074Y-60529203D01*
X142547309Y-60526053D01*
X142568750Y-60525000D01*
X143006250Y-60525000D01*
X143027691Y-60526053D01*
X143027691Y-60526053D01*
G37*
D14*
X142787500Y-61000000D03*
D11*
G36*
X141452691Y-60526053D02*
X141473926Y-60529203D01*
X141494750Y-60534419D01*
X141514962Y-60541651D01*
X141534368Y-60550830D01*
X141552781Y-60561866D01*
X141570024Y-60574654D01*
X141585930Y-60589070D01*
X141600346Y-60604976D01*
X141613134Y-60622219D01*
X141624170Y-60640632D01*
X141633349Y-60660038D01*
X141640581Y-60680250D01*
X141645797Y-60701074D01*
X141648947Y-60722309D01*
X141650000Y-60743750D01*
X141650000Y-61256250D01*
X141648947Y-61277691D01*
X141645797Y-61298926D01*
X141640581Y-61319750D01*
X141633349Y-61339962D01*
X141624170Y-61359368D01*
X141613134Y-61377781D01*
X141600346Y-61395024D01*
X141585930Y-61410930D01*
X141570024Y-61425346D01*
X141552781Y-61438134D01*
X141534368Y-61449170D01*
X141514962Y-61458349D01*
X141494750Y-61465581D01*
X141473926Y-61470797D01*
X141452691Y-61473947D01*
X141431250Y-61475000D01*
X140993750Y-61475000D01*
X140972309Y-61473947D01*
X140951074Y-61470797D01*
X140930250Y-61465581D01*
X140910038Y-61458349D01*
X140890632Y-61449170D01*
X140872219Y-61438134D01*
X140854976Y-61425346D01*
X140839070Y-61410930D01*
X140824654Y-61395024D01*
X140811866Y-61377781D01*
X140800830Y-61359368D01*
X140791651Y-61339962D01*
X140784419Y-61319750D01*
X140779203Y-61298926D01*
X140776053Y-61277691D01*
X140775000Y-61256250D01*
X140775000Y-60743750D01*
X140776053Y-60722309D01*
X140779203Y-60701074D01*
X140784419Y-60680250D01*
X140791651Y-60660038D01*
X140800830Y-60640632D01*
X140811866Y-60622219D01*
X140824654Y-60604976D01*
X140839070Y-60589070D01*
X140854976Y-60574654D01*
X140872219Y-60561866D01*
X140890632Y-60550830D01*
X140910038Y-60541651D01*
X140930250Y-60534419D01*
X140951074Y-60529203D01*
X140972309Y-60526053D01*
X140993750Y-60525000D01*
X141431250Y-60525000D01*
X141452691Y-60526053D01*
X141452691Y-60526053D01*
G37*
D14*
X141212500Y-61000000D03*
G04 #@! TD*
D16*
G04 #@! TO.C,J3*
X138600000Y-114800000D03*
X138600000Y-114150000D03*
X138600000Y-113500000D03*
X138600000Y-112850000D03*
X138600000Y-112200000D03*
G04 #@! TD*
D17*
G04 #@! TO.C,J4*
X128500000Y-112500000D03*
X131000000Y-112500000D03*
D18*
X124700000Y-115660000D03*
X134800000Y-115660000D03*
G04 #@! TD*
D11*
G04 #@! TO.C,LOW_BAT_LED1*
G36*
X141552691Y-62826053D02*
X141573926Y-62829203D01*
X141594750Y-62834419D01*
X141614962Y-62841651D01*
X141634368Y-62850830D01*
X141652781Y-62861866D01*
X141670024Y-62874654D01*
X141685930Y-62889070D01*
X141700346Y-62904976D01*
X141713134Y-62922219D01*
X141724170Y-62940632D01*
X141733349Y-62960038D01*
X141740581Y-62980250D01*
X141745797Y-63001074D01*
X141748947Y-63022309D01*
X141750000Y-63043750D01*
X141750000Y-63556250D01*
X141748947Y-63577691D01*
X141745797Y-63598926D01*
X141740581Y-63619750D01*
X141733349Y-63639962D01*
X141724170Y-63659368D01*
X141713134Y-63677781D01*
X141700346Y-63695024D01*
X141685930Y-63710930D01*
X141670024Y-63725346D01*
X141652781Y-63738134D01*
X141634368Y-63749170D01*
X141614962Y-63758349D01*
X141594750Y-63765581D01*
X141573926Y-63770797D01*
X141552691Y-63773947D01*
X141531250Y-63775000D01*
X141093750Y-63775000D01*
X141072309Y-63773947D01*
X141051074Y-63770797D01*
X141030250Y-63765581D01*
X141010038Y-63758349D01*
X140990632Y-63749170D01*
X140972219Y-63738134D01*
X140954976Y-63725346D01*
X140939070Y-63710930D01*
X140924654Y-63695024D01*
X140911866Y-63677781D01*
X140900830Y-63659368D01*
X140891651Y-63639962D01*
X140884419Y-63619750D01*
X140879203Y-63598926D01*
X140876053Y-63577691D01*
X140875000Y-63556250D01*
X140875000Y-63043750D01*
X140876053Y-63022309D01*
X140879203Y-63001074D01*
X140884419Y-62980250D01*
X140891651Y-62960038D01*
X140900830Y-62940632D01*
X140911866Y-62922219D01*
X140924654Y-62904976D01*
X140939070Y-62889070D01*
X140954976Y-62874654D01*
X140972219Y-62861866D01*
X140990632Y-62850830D01*
X141010038Y-62841651D01*
X141030250Y-62834419D01*
X141051074Y-62829203D01*
X141072309Y-62826053D01*
X141093750Y-62825000D01*
X141531250Y-62825000D01*
X141552691Y-62826053D01*
X141552691Y-62826053D01*
G37*
D14*
X141312500Y-63300000D03*
D11*
G36*
X143127691Y-62826053D02*
X143148926Y-62829203D01*
X143169750Y-62834419D01*
X143189962Y-62841651D01*
X143209368Y-62850830D01*
X143227781Y-62861866D01*
X143245024Y-62874654D01*
X143260930Y-62889070D01*
X143275346Y-62904976D01*
X143288134Y-62922219D01*
X143299170Y-62940632D01*
X143308349Y-62960038D01*
X143315581Y-62980250D01*
X143320797Y-63001074D01*
X143323947Y-63022309D01*
X143325000Y-63043750D01*
X143325000Y-63556250D01*
X143323947Y-63577691D01*
X143320797Y-63598926D01*
X143315581Y-63619750D01*
X143308349Y-63639962D01*
X143299170Y-63659368D01*
X143288134Y-63677781D01*
X143275346Y-63695024D01*
X143260930Y-63710930D01*
X143245024Y-63725346D01*
X143227781Y-63738134D01*
X143209368Y-63749170D01*
X143189962Y-63758349D01*
X143169750Y-63765581D01*
X143148926Y-63770797D01*
X143127691Y-63773947D01*
X143106250Y-63775000D01*
X142668750Y-63775000D01*
X142647309Y-63773947D01*
X142626074Y-63770797D01*
X142605250Y-63765581D01*
X142585038Y-63758349D01*
X142565632Y-63749170D01*
X142547219Y-63738134D01*
X142529976Y-63725346D01*
X142514070Y-63710930D01*
X142499654Y-63695024D01*
X142486866Y-63677781D01*
X142475830Y-63659368D01*
X142466651Y-63639962D01*
X142459419Y-63619750D01*
X142454203Y-63598926D01*
X142451053Y-63577691D01*
X142450000Y-63556250D01*
X142450000Y-63043750D01*
X142451053Y-63022309D01*
X142454203Y-63001074D01*
X142459419Y-62980250D01*
X142466651Y-62960038D01*
X142475830Y-62940632D01*
X142486866Y-62922219D01*
X142499654Y-62904976D01*
X142514070Y-62889070D01*
X142529976Y-62874654D01*
X142547219Y-62861866D01*
X142565632Y-62850830D01*
X142585038Y-62841651D01*
X142605250Y-62834419D01*
X142626074Y-62829203D01*
X142647309Y-62826053D01*
X142668750Y-62825000D01*
X143106250Y-62825000D01*
X143127691Y-62826053D01*
X143127691Y-62826053D01*
G37*
D14*
X142887500Y-63300000D03*
G04 #@! TD*
D10*
G04 #@! TO.C,NAV_DOWN1*
X131900000Y-83400000D03*
X131900000Y-90600000D03*
X134900000Y-83400000D03*
X134900000Y-90600000D03*
G04 #@! TD*
G04 #@! TO.C,NAV_LEFT1*
X128900000Y-86300000D03*
X128900000Y-79100000D03*
X125900000Y-86300000D03*
X125900000Y-79100000D03*
G04 #@! TD*
G04 #@! TO.C,NAV_RIGHT1*
X138000000Y-79100000D03*
X138000000Y-86300000D03*
X141000000Y-79100000D03*
X141000000Y-86300000D03*
G04 #@! TD*
G04 #@! TO.C,NAV_SEL1*
X129000000Y-73700000D03*
X129000000Y-66500000D03*
X126000000Y-73700000D03*
X126000000Y-66500000D03*
G04 #@! TD*
G04 #@! TO.C,NAV_UP1*
X134900000Y-81000000D03*
X134900000Y-73800000D03*
X131900000Y-81000000D03*
X131900000Y-73800000D03*
G04 #@! TD*
D11*
G04 #@! TO.C,POWER_LED1*
G36*
X143177691Y-90863553D02*
X143198926Y-90866703D01*
X143219750Y-90871919D01*
X143239962Y-90879151D01*
X143259368Y-90888330D01*
X143277781Y-90899366D01*
X143295024Y-90912154D01*
X143310930Y-90926570D01*
X143325346Y-90942476D01*
X143338134Y-90959719D01*
X143349170Y-90978132D01*
X143358349Y-90997538D01*
X143365581Y-91017750D01*
X143370797Y-91038574D01*
X143373947Y-91059809D01*
X143375000Y-91081250D01*
X143375000Y-91518750D01*
X143373947Y-91540191D01*
X143370797Y-91561426D01*
X143365581Y-91582250D01*
X143358349Y-91602462D01*
X143349170Y-91621868D01*
X143338134Y-91640281D01*
X143325346Y-91657524D01*
X143310930Y-91673430D01*
X143295024Y-91687846D01*
X143277781Y-91700634D01*
X143259368Y-91711670D01*
X143239962Y-91720849D01*
X143219750Y-91728081D01*
X143198926Y-91733297D01*
X143177691Y-91736447D01*
X143156250Y-91737500D01*
X142643750Y-91737500D01*
X142622309Y-91736447D01*
X142601074Y-91733297D01*
X142580250Y-91728081D01*
X142560038Y-91720849D01*
X142540632Y-91711670D01*
X142522219Y-91700634D01*
X142504976Y-91687846D01*
X142489070Y-91673430D01*
X142474654Y-91657524D01*
X142461866Y-91640281D01*
X142450830Y-91621868D01*
X142441651Y-91602462D01*
X142434419Y-91582250D01*
X142429203Y-91561426D01*
X142426053Y-91540191D01*
X142425000Y-91518750D01*
X142425000Y-91081250D01*
X142426053Y-91059809D01*
X142429203Y-91038574D01*
X142434419Y-91017750D01*
X142441651Y-90997538D01*
X142450830Y-90978132D01*
X142461866Y-90959719D01*
X142474654Y-90942476D01*
X142489070Y-90926570D01*
X142504976Y-90912154D01*
X142522219Y-90899366D01*
X142540632Y-90888330D01*
X142560038Y-90879151D01*
X142580250Y-90871919D01*
X142601074Y-90866703D01*
X142622309Y-90863553D01*
X142643750Y-90862500D01*
X143156250Y-90862500D01*
X143177691Y-90863553D01*
X143177691Y-90863553D01*
G37*
D14*
X142900000Y-91300000D03*
D11*
G36*
X143177691Y-92438553D02*
X143198926Y-92441703D01*
X143219750Y-92446919D01*
X143239962Y-92454151D01*
X143259368Y-92463330D01*
X143277781Y-92474366D01*
X143295024Y-92487154D01*
X143310930Y-92501570D01*
X143325346Y-92517476D01*
X143338134Y-92534719D01*
X143349170Y-92553132D01*
X143358349Y-92572538D01*
X143365581Y-92592750D01*
X143370797Y-92613574D01*
X143373947Y-92634809D01*
X143375000Y-92656250D01*
X143375000Y-93093750D01*
X143373947Y-93115191D01*
X143370797Y-93136426D01*
X143365581Y-93157250D01*
X143358349Y-93177462D01*
X143349170Y-93196868D01*
X143338134Y-93215281D01*
X143325346Y-93232524D01*
X143310930Y-93248430D01*
X143295024Y-93262846D01*
X143277781Y-93275634D01*
X143259368Y-93286670D01*
X143239962Y-93295849D01*
X143219750Y-93303081D01*
X143198926Y-93308297D01*
X143177691Y-93311447D01*
X143156250Y-93312500D01*
X142643750Y-93312500D01*
X142622309Y-93311447D01*
X142601074Y-93308297D01*
X142580250Y-93303081D01*
X142560038Y-93295849D01*
X142540632Y-93286670D01*
X142522219Y-93275634D01*
X142504976Y-93262846D01*
X142489070Y-93248430D01*
X142474654Y-93232524D01*
X142461866Y-93215281D01*
X142450830Y-93196868D01*
X142441651Y-93177462D01*
X142434419Y-93157250D01*
X142429203Y-93136426D01*
X142426053Y-93115191D01*
X142425000Y-93093750D01*
X142425000Y-92656250D01*
X142426053Y-92634809D01*
X142429203Y-92613574D01*
X142434419Y-92592750D01*
X142441651Y-92572538D01*
X142450830Y-92553132D01*
X142461866Y-92534719D01*
X142474654Y-92517476D01*
X142489070Y-92501570D01*
X142504976Y-92487154D01*
X142522219Y-92474366D01*
X142540632Y-92463330D01*
X142560038Y-92454151D01*
X142580250Y-92446919D01*
X142601074Y-92441703D01*
X142622309Y-92438553D01*
X142643750Y-92437500D01*
X143156250Y-92437500D01*
X143177691Y-92438553D01*
X143177691Y-92438553D01*
G37*
D14*
X142900000Y-92875000D03*
G04 #@! TD*
D19*
G04 #@! TO.C,Q5*
X141600000Y-99700000D03*
X141600000Y-100700000D03*
X142900000Y-100200000D03*
G04 #@! TD*
D11*
G04 #@! TO.C,R1*
G36*
X133096958Y-68130710D02*
X133111276Y-68132834D01*
X133125317Y-68136351D01*
X133138946Y-68141228D01*
X133152031Y-68147417D01*
X133164447Y-68154858D01*
X133176073Y-68163481D01*
X133186798Y-68173202D01*
X133196519Y-68183927D01*
X133205142Y-68195553D01*
X133212583Y-68207969D01*
X133218772Y-68221054D01*
X133223649Y-68234683D01*
X133227166Y-68248724D01*
X133229290Y-68263042D01*
X133230000Y-68277500D01*
X133230000Y-68622500D01*
X133229290Y-68636958D01*
X133227166Y-68651276D01*
X133223649Y-68665317D01*
X133218772Y-68678946D01*
X133212583Y-68692031D01*
X133205142Y-68704447D01*
X133196519Y-68716073D01*
X133186798Y-68726798D01*
X133176073Y-68736519D01*
X133164447Y-68745142D01*
X133152031Y-68752583D01*
X133138946Y-68758772D01*
X133125317Y-68763649D01*
X133111276Y-68767166D01*
X133096958Y-68769290D01*
X133082500Y-68770000D01*
X132787500Y-68770000D01*
X132773042Y-68769290D01*
X132758724Y-68767166D01*
X132744683Y-68763649D01*
X132731054Y-68758772D01*
X132717969Y-68752583D01*
X132705553Y-68745142D01*
X132693927Y-68736519D01*
X132683202Y-68726798D01*
X132673481Y-68716073D01*
X132664858Y-68704447D01*
X132657417Y-68692031D01*
X132651228Y-68678946D01*
X132646351Y-68665317D01*
X132642834Y-68651276D01*
X132640710Y-68636958D01*
X132640000Y-68622500D01*
X132640000Y-68277500D01*
X132640710Y-68263042D01*
X132642834Y-68248724D01*
X132646351Y-68234683D01*
X132651228Y-68221054D01*
X132657417Y-68207969D01*
X132664858Y-68195553D01*
X132673481Y-68183927D01*
X132683202Y-68173202D01*
X132693927Y-68163481D01*
X132705553Y-68154858D01*
X132717969Y-68147417D01*
X132731054Y-68141228D01*
X132744683Y-68136351D01*
X132758724Y-68132834D01*
X132773042Y-68130710D01*
X132787500Y-68130000D01*
X133082500Y-68130000D01*
X133096958Y-68130710D01*
X133096958Y-68130710D01*
G37*
D13*
X132935000Y-68450000D03*
D11*
G36*
X132126958Y-68130710D02*
X132141276Y-68132834D01*
X132155317Y-68136351D01*
X132168946Y-68141228D01*
X132182031Y-68147417D01*
X132194447Y-68154858D01*
X132206073Y-68163481D01*
X132216798Y-68173202D01*
X132226519Y-68183927D01*
X132235142Y-68195553D01*
X132242583Y-68207969D01*
X132248772Y-68221054D01*
X132253649Y-68234683D01*
X132257166Y-68248724D01*
X132259290Y-68263042D01*
X132260000Y-68277500D01*
X132260000Y-68622500D01*
X132259290Y-68636958D01*
X132257166Y-68651276D01*
X132253649Y-68665317D01*
X132248772Y-68678946D01*
X132242583Y-68692031D01*
X132235142Y-68704447D01*
X132226519Y-68716073D01*
X132216798Y-68726798D01*
X132206073Y-68736519D01*
X132194447Y-68745142D01*
X132182031Y-68752583D01*
X132168946Y-68758772D01*
X132155317Y-68763649D01*
X132141276Y-68767166D01*
X132126958Y-68769290D01*
X132112500Y-68770000D01*
X131817500Y-68770000D01*
X131803042Y-68769290D01*
X131788724Y-68767166D01*
X131774683Y-68763649D01*
X131761054Y-68758772D01*
X131747969Y-68752583D01*
X131735553Y-68745142D01*
X131723927Y-68736519D01*
X131713202Y-68726798D01*
X131703481Y-68716073D01*
X131694858Y-68704447D01*
X131687417Y-68692031D01*
X131681228Y-68678946D01*
X131676351Y-68665317D01*
X131672834Y-68651276D01*
X131670710Y-68636958D01*
X131670000Y-68622500D01*
X131670000Y-68277500D01*
X131670710Y-68263042D01*
X131672834Y-68248724D01*
X131676351Y-68234683D01*
X131681228Y-68221054D01*
X131687417Y-68207969D01*
X131694858Y-68195553D01*
X131703481Y-68183927D01*
X131713202Y-68173202D01*
X131723927Y-68163481D01*
X131735553Y-68154858D01*
X131747969Y-68147417D01*
X131761054Y-68141228D01*
X131774683Y-68136351D01*
X131788724Y-68132834D01*
X131803042Y-68130710D01*
X131817500Y-68130000D01*
X132112500Y-68130000D01*
X132126958Y-68130710D01*
X132126958Y-68130710D01*
G37*
D13*
X131965000Y-68450000D03*
G04 #@! TD*
D11*
G04 #@! TO.C,R2*
G36*
X128996958Y-76180710D02*
X129011276Y-76182834D01*
X129025317Y-76186351D01*
X129038946Y-76191228D01*
X129052031Y-76197417D01*
X129064447Y-76204858D01*
X129076073Y-76213481D01*
X129086798Y-76223202D01*
X129096519Y-76233927D01*
X129105142Y-76245553D01*
X129112583Y-76257969D01*
X129118772Y-76271054D01*
X129123649Y-76284683D01*
X129127166Y-76298724D01*
X129129290Y-76313042D01*
X129130000Y-76327500D01*
X129130000Y-76672500D01*
X129129290Y-76686958D01*
X129127166Y-76701276D01*
X129123649Y-76715317D01*
X129118772Y-76728946D01*
X129112583Y-76742031D01*
X129105142Y-76754447D01*
X129096519Y-76766073D01*
X129086798Y-76776798D01*
X129076073Y-76786519D01*
X129064447Y-76795142D01*
X129052031Y-76802583D01*
X129038946Y-76808772D01*
X129025317Y-76813649D01*
X129011276Y-76817166D01*
X128996958Y-76819290D01*
X128982500Y-76820000D01*
X128687500Y-76820000D01*
X128673042Y-76819290D01*
X128658724Y-76817166D01*
X128644683Y-76813649D01*
X128631054Y-76808772D01*
X128617969Y-76802583D01*
X128605553Y-76795142D01*
X128593927Y-76786519D01*
X128583202Y-76776798D01*
X128573481Y-76766073D01*
X128564858Y-76754447D01*
X128557417Y-76742031D01*
X128551228Y-76728946D01*
X128546351Y-76715317D01*
X128542834Y-76701276D01*
X128540710Y-76686958D01*
X128540000Y-76672500D01*
X128540000Y-76327500D01*
X128540710Y-76313042D01*
X128542834Y-76298724D01*
X128546351Y-76284683D01*
X128551228Y-76271054D01*
X128557417Y-76257969D01*
X128564858Y-76245553D01*
X128573481Y-76233927D01*
X128583202Y-76223202D01*
X128593927Y-76213481D01*
X128605553Y-76204858D01*
X128617969Y-76197417D01*
X128631054Y-76191228D01*
X128644683Y-76186351D01*
X128658724Y-76182834D01*
X128673042Y-76180710D01*
X128687500Y-76180000D01*
X128982500Y-76180000D01*
X128996958Y-76180710D01*
X128996958Y-76180710D01*
G37*
D13*
X128835000Y-76500000D03*
D11*
G36*
X128026958Y-76180710D02*
X128041276Y-76182834D01*
X128055317Y-76186351D01*
X128068946Y-76191228D01*
X128082031Y-76197417D01*
X128094447Y-76204858D01*
X128106073Y-76213481D01*
X128116798Y-76223202D01*
X128126519Y-76233927D01*
X128135142Y-76245553D01*
X128142583Y-76257969D01*
X128148772Y-76271054D01*
X128153649Y-76284683D01*
X128157166Y-76298724D01*
X128159290Y-76313042D01*
X128160000Y-76327500D01*
X128160000Y-76672500D01*
X128159290Y-76686958D01*
X128157166Y-76701276D01*
X128153649Y-76715317D01*
X128148772Y-76728946D01*
X128142583Y-76742031D01*
X128135142Y-76754447D01*
X128126519Y-76766073D01*
X128116798Y-76776798D01*
X128106073Y-76786519D01*
X128094447Y-76795142D01*
X128082031Y-76802583D01*
X128068946Y-76808772D01*
X128055317Y-76813649D01*
X128041276Y-76817166D01*
X128026958Y-76819290D01*
X128012500Y-76820000D01*
X127717500Y-76820000D01*
X127703042Y-76819290D01*
X127688724Y-76817166D01*
X127674683Y-76813649D01*
X127661054Y-76808772D01*
X127647969Y-76802583D01*
X127635553Y-76795142D01*
X127623927Y-76786519D01*
X127613202Y-76776798D01*
X127603481Y-76766073D01*
X127594858Y-76754447D01*
X127587417Y-76742031D01*
X127581228Y-76728946D01*
X127576351Y-76715317D01*
X127572834Y-76701276D01*
X127570710Y-76686958D01*
X127570000Y-76672500D01*
X127570000Y-76327500D01*
X127570710Y-76313042D01*
X127572834Y-76298724D01*
X127576351Y-76284683D01*
X127581228Y-76271054D01*
X127587417Y-76257969D01*
X127594858Y-76245553D01*
X127603481Y-76233927D01*
X127613202Y-76223202D01*
X127623927Y-76213481D01*
X127635553Y-76204858D01*
X127647969Y-76197417D01*
X127661054Y-76191228D01*
X127674683Y-76186351D01*
X127688724Y-76182834D01*
X127703042Y-76180710D01*
X127717500Y-76180000D01*
X128012500Y-76180000D01*
X128026958Y-76180710D01*
X128026958Y-76180710D01*
G37*
D13*
X127865000Y-76500000D03*
G04 #@! TD*
D11*
G04 #@! TO.C,R3*
G36*
X123086958Y-79040710D02*
X123101276Y-79042834D01*
X123115317Y-79046351D01*
X123128946Y-79051228D01*
X123142031Y-79057417D01*
X123154447Y-79064858D01*
X123166073Y-79073481D01*
X123176798Y-79083202D01*
X123186519Y-79093927D01*
X123195142Y-79105553D01*
X123202583Y-79117969D01*
X123208772Y-79131054D01*
X123213649Y-79144683D01*
X123217166Y-79158724D01*
X123219290Y-79173042D01*
X123220000Y-79187500D01*
X123220000Y-79482500D01*
X123219290Y-79496958D01*
X123217166Y-79511276D01*
X123213649Y-79525317D01*
X123208772Y-79538946D01*
X123202583Y-79552031D01*
X123195142Y-79564447D01*
X123186519Y-79576073D01*
X123176798Y-79586798D01*
X123166073Y-79596519D01*
X123154447Y-79605142D01*
X123142031Y-79612583D01*
X123128946Y-79618772D01*
X123115317Y-79623649D01*
X123101276Y-79627166D01*
X123086958Y-79629290D01*
X123072500Y-79630000D01*
X122727500Y-79630000D01*
X122713042Y-79629290D01*
X122698724Y-79627166D01*
X122684683Y-79623649D01*
X122671054Y-79618772D01*
X122657969Y-79612583D01*
X122645553Y-79605142D01*
X122633927Y-79596519D01*
X122623202Y-79586798D01*
X122613481Y-79576073D01*
X122604858Y-79564447D01*
X122597417Y-79552031D01*
X122591228Y-79538946D01*
X122586351Y-79525317D01*
X122582834Y-79511276D01*
X122580710Y-79496958D01*
X122580000Y-79482500D01*
X122580000Y-79187500D01*
X122580710Y-79173042D01*
X122582834Y-79158724D01*
X122586351Y-79144683D01*
X122591228Y-79131054D01*
X122597417Y-79117969D01*
X122604858Y-79105553D01*
X122613481Y-79093927D01*
X122623202Y-79083202D01*
X122633927Y-79073481D01*
X122645553Y-79064858D01*
X122657969Y-79057417D01*
X122671054Y-79051228D01*
X122684683Y-79046351D01*
X122698724Y-79042834D01*
X122713042Y-79040710D01*
X122727500Y-79040000D01*
X123072500Y-79040000D01*
X123086958Y-79040710D01*
X123086958Y-79040710D01*
G37*
D13*
X122900000Y-79335000D03*
D11*
G36*
X123086958Y-78070710D02*
X123101276Y-78072834D01*
X123115317Y-78076351D01*
X123128946Y-78081228D01*
X123142031Y-78087417D01*
X123154447Y-78094858D01*
X123166073Y-78103481D01*
X123176798Y-78113202D01*
X123186519Y-78123927D01*
X123195142Y-78135553D01*
X123202583Y-78147969D01*
X123208772Y-78161054D01*
X123213649Y-78174683D01*
X123217166Y-78188724D01*
X123219290Y-78203042D01*
X123220000Y-78217500D01*
X123220000Y-78512500D01*
X123219290Y-78526958D01*
X123217166Y-78541276D01*
X123213649Y-78555317D01*
X123208772Y-78568946D01*
X123202583Y-78582031D01*
X123195142Y-78594447D01*
X123186519Y-78606073D01*
X123176798Y-78616798D01*
X123166073Y-78626519D01*
X123154447Y-78635142D01*
X123142031Y-78642583D01*
X123128946Y-78648772D01*
X123115317Y-78653649D01*
X123101276Y-78657166D01*
X123086958Y-78659290D01*
X123072500Y-78660000D01*
X122727500Y-78660000D01*
X122713042Y-78659290D01*
X122698724Y-78657166D01*
X122684683Y-78653649D01*
X122671054Y-78648772D01*
X122657969Y-78642583D01*
X122645553Y-78635142D01*
X122633927Y-78626519D01*
X122623202Y-78616798D01*
X122613481Y-78606073D01*
X122604858Y-78594447D01*
X122597417Y-78582031D01*
X122591228Y-78568946D01*
X122586351Y-78555317D01*
X122582834Y-78541276D01*
X122580710Y-78526958D01*
X122580000Y-78512500D01*
X122580000Y-78217500D01*
X122580710Y-78203042D01*
X122582834Y-78188724D01*
X122586351Y-78174683D01*
X122591228Y-78161054D01*
X122597417Y-78147969D01*
X122604858Y-78135553D01*
X122613481Y-78123927D01*
X122623202Y-78113202D01*
X122633927Y-78103481D01*
X122645553Y-78094858D01*
X122657969Y-78087417D01*
X122671054Y-78081228D01*
X122684683Y-78076351D01*
X122698724Y-78072834D01*
X122713042Y-78070710D01*
X122727500Y-78070000D01*
X123072500Y-78070000D01*
X123086958Y-78070710D01*
X123086958Y-78070710D01*
G37*
D13*
X122900000Y-78365000D03*
G04 #@! TD*
D11*
G04 #@! TO.C,R4*
G36*
X134426958Y-68030710D02*
X134441276Y-68032834D01*
X134455317Y-68036351D01*
X134468946Y-68041228D01*
X134482031Y-68047417D01*
X134494447Y-68054858D01*
X134506073Y-68063481D01*
X134516798Y-68073202D01*
X134526519Y-68083927D01*
X134535142Y-68095553D01*
X134542583Y-68107969D01*
X134548772Y-68121054D01*
X134553649Y-68134683D01*
X134557166Y-68148724D01*
X134559290Y-68163042D01*
X134560000Y-68177500D01*
X134560000Y-68522500D01*
X134559290Y-68536958D01*
X134557166Y-68551276D01*
X134553649Y-68565317D01*
X134548772Y-68578946D01*
X134542583Y-68592031D01*
X134535142Y-68604447D01*
X134526519Y-68616073D01*
X134516798Y-68626798D01*
X134506073Y-68636519D01*
X134494447Y-68645142D01*
X134482031Y-68652583D01*
X134468946Y-68658772D01*
X134455317Y-68663649D01*
X134441276Y-68667166D01*
X134426958Y-68669290D01*
X134412500Y-68670000D01*
X134117500Y-68670000D01*
X134103042Y-68669290D01*
X134088724Y-68667166D01*
X134074683Y-68663649D01*
X134061054Y-68658772D01*
X134047969Y-68652583D01*
X134035553Y-68645142D01*
X134023927Y-68636519D01*
X134013202Y-68626798D01*
X134003481Y-68616073D01*
X133994858Y-68604447D01*
X133987417Y-68592031D01*
X133981228Y-68578946D01*
X133976351Y-68565317D01*
X133972834Y-68551276D01*
X133970710Y-68536958D01*
X133970000Y-68522500D01*
X133970000Y-68177500D01*
X133970710Y-68163042D01*
X133972834Y-68148724D01*
X133976351Y-68134683D01*
X133981228Y-68121054D01*
X133987417Y-68107969D01*
X133994858Y-68095553D01*
X134003481Y-68083927D01*
X134013202Y-68073202D01*
X134023927Y-68063481D01*
X134035553Y-68054858D01*
X134047969Y-68047417D01*
X134061054Y-68041228D01*
X134074683Y-68036351D01*
X134088724Y-68032834D01*
X134103042Y-68030710D01*
X134117500Y-68030000D01*
X134412500Y-68030000D01*
X134426958Y-68030710D01*
X134426958Y-68030710D01*
G37*
D13*
X134265000Y-68350000D03*
D11*
G36*
X135396958Y-68030710D02*
X135411276Y-68032834D01*
X135425317Y-68036351D01*
X135438946Y-68041228D01*
X135452031Y-68047417D01*
X135464447Y-68054858D01*
X135476073Y-68063481D01*
X135486798Y-68073202D01*
X135496519Y-68083927D01*
X135505142Y-68095553D01*
X135512583Y-68107969D01*
X135518772Y-68121054D01*
X135523649Y-68134683D01*
X135527166Y-68148724D01*
X135529290Y-68163042D01*
X135530000Y-68177500D01*
X135530000Y-68522500D01*
X135529290Y-68536958D01*
X135527166Y-68551276D01*
X135523649Y-68565317D01*
X135518772Y-68578946D01*
X135512583Y-68592031D01*
X135505142Y-68604447D01*
X135496519Y-68616073D01*
X135486798Y-68626798D01*
X135476073Y-68636519D01*
X135464447Y-68645142D01*
X135452031Y-68652583D01*
X135438946Y-68658772D01*
X135425317Y-68663649D01*
X135411276Y-68667166D01*
X135396958Y-68669290D01*
X135382500Y-68670000D01*
X135087500Y-68670000D01*
X135073042Y-68669290D01*
X135058724Y-68667166D01*
X135044683Y-68663649D01*
X135031054Y-68658772D01*
X135017969Y-68652583D01*
X135005553Y-68645142D01*
X134993927Y-68636519D01*
X134983202Y-68626798D01*
X134973481Y-68616073D01*
X134964858Y-68604447D01*
X134957417Y-68592031D01*
X134951228Y-68578946D01*
X134946351Y-68565317D01*
X134942834Y-68551276D01*
X134940710Y-68536958D01*
X134940000Y-68522500D01*
X134940000Y-68177500D01*
X134940710Y-68163042D01*
X134942834Y-68148724D01*
X134946351Y-68134683D01*
X134951228Y-68121054D01*
X134957417Y-68107969D01*
X134964858Y-68095553D01*
X134973481Y-68083927D01*
X134983202Y-68073202D01*
X134993927Y-68063481D01*
X135005553Y-68054858D01*
X135017969Y-68047417D01*
X135031054Y-68041228D01*
X135044683Y-68036351D01*
X135058724Y-68032834D01*
X135073042Y-68030710D01*
X135087500Y-68030000D01*
X135382500Y-68030000D01*
X135396958Y-68030710D01*
X135396958Y-68030710D01*
G37*
D13*
X135235000Y-68350000D03*
G04 #@! TD*
D11*
G04 #@! TO.C,R5*
G36*
X131176958Y-66580710D02*
X131191276Y-66582834D01*
X131205317Y-66586351D01*
X131218946Y-66591228D01*
X131232031Y-66597417D01*
X131244447Y-66604858D01*
X131256073Y-66613481D01*
X131266798Y-66623202D01*
X131276519Y-66633927D01*
X131285142Y-66645553D01*
X131292583Y-66657969D01*
X131298772Y-66671054D01*
X131303649Y-66684683D01*
X131307166Y-66698724D01*
X131309290Y-66713042D01*
X131310000Y-66727500D01*
X131310000Y-67072500D01*
X131309290Y-67086958D01*
X131307166Y-67101276D01*
X131303649Y-67115317D01*
X131298772Y-67128946D01*
X131292583Y-67142031D01*
X131285142Y-67154447D01*
X131276519Y-67166073D01*
X131266798Y-67176798D01*
X131256073Y-67186519D01*
X131244447Y-67195142D01*
X131232031Y-67202583D01*
X131218946Y-67208772D01*
X131205317Y-67213649D01*
X131191276Y-67217166D01*
X131176958Y-67219290D01*
X131162500Y-67220000D01*
X130867500Y-67220000D01*
X130853042Y-67219290D01*
X130838724Y-67217166D01*
X130824683Y-67213649D01*
X130811054Y-67208772D01*
X130797969Y-67202583D01*
X130785553Y-67195142D01*
X130773927Y-67186519D01*
X130763202Y-67176798D01*
X130753481Y-67166073D01*
X130744858Y-67154447D01*
X130737417Y-67142031D01*
X130731228Y-67128946D01*
X130726351Y-67115317D01*
X130722834Y-67101276D01*
X130720710Y-67086958D01*
X130720000Y-67072500D01*
X130720000Y-66727500D01*
X130720710Y-66713042D01*
X130722834Y-66698724D01*
X130726351Y-66684683D01*
X130731228Y-66671054D01*
X130737417Y-66657969D01*
X130744858Y-66645553D01*
X130753481Y-66633927D01*
X130763202Y-66623202D01*
X130773927Y-66613481D01*
X130785553Y-66604858D01*
X130797969Y-66597417D01*
X130811054Y-66591228D01*
X130824683Y-66586351D01*
X130838724Y-66582834D01*
X130853042Y-66580710D01*
X130867500Y-66580000D01*
X131162500Y-66580000D01*
X131176958Y-66580710D01*
X131176958Y-66580710D01*
G37*
D13*
X131015000Y-66900000D03*
D11*
G36*
X132146958Y-66580710D02*
X132161276Y-66582834D01*
X132175317Y-66586351D01*
X132188946Y-66591228D01*
X132202031Y-66597417D01*
X132214447Y-66604858D01*
X132226073Y-66613481D01*
X132236798Y-66623202D01*
X132246519Y-66633927D01*
X132255142Y-66645553D01*
X132262583Y-66657969D01*
X132268772Y-66671054D01*
X132273649Y-66684683D01*
X132277166Y-66698724D01*
X132279290Y-66713042D01*
X132280000Y-66727500D01*
X132280000Y-67072500D01*
X132279290Y-67086958D01*
X132277166Y-67101276D01*
X132273649Y-67115317D01*
X132268772Y-67128946D01*
X132262583Y-67142031D01*
X132255142Y-67154447D01*
X132246519Y-67166073D01*
X132236798Y-67176798D01*
X132226073Y-67186519D01*
X132214447Y-67195142D01*
X132202031Y-67202583D01*
X132188946Y-67208772D01*
X132175317Y-67213649D01*
X132161276Y-67217166D01*
X132146958Y-67219290D01*
X132132500Y-67220000D01*
X131837500Y-67220000D01*
X131823042Y-67219290D01*
X131808724Y-67217166D01*
X131794683Y-67213649D01*
X131781054Y-67208772D01*
X131767969Y-67202583D01*
X131755553Y-67195142D01*
X131743927Y-67186519D01*
X131733202Y-67176798D01*
X131723481Y-67166073D01*
X131714858Y-67154447D01*
X131707417Y-67142031D01*
X131701228Y-67128946D01*
X131696351Y-67115317D01*
X131692834Y-67101276D01*
X131690710Y-67086958D01*
X131690000Y-67072500D01*
X131690000Y-66727500D01*
X131690710Y-66713042D01*
X131692834Y-66698724D01*
X131696351Y-66684683D01*
X131701228Y-66671054D01*
X131707417Y-66657969D01*
X131714858Y-66645553D01*
X131723481Y-66633927D01*
X131733202Y-66623202D01*
X131743927Y-66613481D01*
X131755553Y-66604858D01*
X131767969Y-66597417D01*
X131781054Y-66591228D01*
X131794683Y-66586351D01*
X131808724Y-66582834D01*
X131823042Y-66580710D01*
X131837500Y-66580000D01*
X132132500Y-66580000D01*
X132146958Y-66580710D01*
X132146958Y-66580710D01*
G37*
D13*
X131985000Y-66900000D03*
G04 #@! TD*
D11*
G04 #@! TO.C,R6*
G36*
X133776958Y-66630710D02*
X133791276Y-66632834D01*
X133805317Y-66636351D01*
X133818946Y-66641228D01*
X133832031Y-66647417D01*
X133844447Y-66654858D01*
X133856073Y-66663481D01*
X133866798Y-66673202D01*
X133876519Y-66683927D01*
X133885142Y-66695553D01*
X133892583Y-66707969D01*
X133898772Y-66721054D01*
X133903649Y-66734683D01*
X133907166Y-66748724D01*
X133909290Y-66763042D01*
X133910000Y-66777500D01*
X133910000Y-67122500D01*
X133909290Y-67136958D01*
X133907166Y-67151276D01*
X133903649Y-67165317D01*
X133898772Y-67178946D01*
X133892583Y-67192031D01*
X133885142Y-67204447D01*
X133876519Y-67216073D01*
X133866798Y-67226798D01*
X133856073Y-67236519D01*
X133844447Y-67245142D01*
X133832031Y-67252583D01*
X133818946Y-67258772D01*
X133805317Y-67263649D01*
X133791276Y-67267166D01*
X133776958Y-67269290D01*
X133762500Y-67270000D01*
X133467500Y-67270000D01*
X133453042Y-67269290D01*
X133438724Y-67267166D01*
X133424683Y-67263649D01*
X133411054Y-67258772D01*
X133397969Y-67252583D01*
X133385553Y-67245142D01*
X133373927Y-67236519D01*
X133363202Y-67226798D01*
X133353481Y-67216073D01*
X133344858Y-67204447D01*
X133337417Y-67192031D01*
X133331228Y-67178946D01*
X133326351Y-67165317D01*
X133322834Y-67151276D01*
X133320710Y-67136958D01*
X133320000Y-67122500D01*
X133320000Y-66777500D01*
X133320710Y-66763042D01*
X133322834Y-66748724D01*
X133326351Y-66734683D01*
X133331228Y-66721054D01*
X133337417Y-66707969D01*
X133344858Y-66695553D01*
X133353481Y-66683927D01*
X133363202Y-66673202D01*
X133373927Y-66663481D01*
X133385553Y-66654858D01*
X133397969Y-66647417D01*
X133411054Y-66641228D01*
X133424683Y-66636351D01*
X133438724Y-66632834D01*
X133453042Y-66630710D01*
X133467500Y-66630000D01*
X133762500Y-66630000D01*
X133776958Y-66630710D01*
X133776958Y-66630710D01*
G37*
D13*
X133615000Y-66950000D03*
D11*
G36*
X134746958Y-66630710D02*
X134761276Y-66632834D01*
X134775317Y-66636351D01*
X134788946Y-66641228D01*
X134802031Y-66647417D01*
X134814447Y-66654858D01*
X134826073Y-66663481D01*
X134836798Y-66673202D01*
X134846519Y-66683927D01*
X134855142Y-66695553D01*
X134862583Y-66707969D01*
X134868772Y-66721054D01*
X134873649Y-66734683D01*
X134877166Y-66748724D01*
X134879290Y-66763042D01*
X134880000Y-66777500D01*
X134880000Y-67122500D01*
X134879290Y-67136958D01*
X134877166Y-67151276D01*
X134873649Y-67165317D01*
X134868772Y-67178946D01*
X134862583Y-67192031D01*
X134855142Y-67204447D01*
X134846519Y-67216073D01*
X134836798Y-67226798D01*
X134826073Y-67236519D01*
X134814447Y-67245142D01*
X134802031Y-67252583D01*
X134788946Y-67258772D01*
X134775317Y-67263649D01*
X134761276Y-67267166D01*
X134746958Y-67269290D01*
X134732500Y-67270000D01*
X134437500Y-67270000D01*
X134423042Y-67269290D01*
X134408724Y-67267166D01*
X134394683Y-67263649D01*
X134381054Y-67258772D01*
X134367969Y-67252583D01*
X134355553Y-67245142D01*
X134343927Y-67236519D01*
X134333202Y-67226798D01*
X134323481Y-67216073D01*
X134314858Y-67204447D01*
X134307417Y-67192031D01*
X134301228Y-67178946D01*
X134296351Y-67165317D01*
X134292834Y-67151276D01*
X134290710Y-67136958D01*
X134290000Y-67122500D01*
X134290000Y-66777500D01*
X134290710Y-66763042D01*
X134292834Y-66748724D01*
X134296351Y-66734683D01*
X134301228Y-66721054D01*
X134307417Y-66707969D01*
X134314858Y-66695553D01*
X134323481Y-66683927D01*
X134333202Y-66673202D01*
X134343927Y-66663481D01*
X134355553Y-66654858D01*
X134367969Y-66647417D01*
X134381054Y-66641228D01*
X134394683Y-66636351D01*
X134408724Y-66632834D01*
X134423042Y-66630710D01*
X134437500Y-66630000D01*
X134732500Y-66630000D01*
X134746958Y-66630710D01*
X134746958Y-66630710D01*
G37*
D13*
X134585000Y-66950000D03*
G04 #@! TD*
D11*
G04 #@! TO.C,R7*
G36*
X131086958Y-61725710D02*
X131101276Y-61727834D01*
X131115317Y-61731351D01*
X131128946Y-61736228D01*
X131142031Y-61742417D01*
X131154447Y-61749858D01*
X131166073Y-61758481D01*
X131176798Y-61768202D01*
X131186519Y-61778927D01*
X131195142Y-61790553D01*
X131202583Y-61802969D01*
X131208772Y-61816054D01*
X131213649Y-61829683D01*
X131217166Y-61843724D01*
X131219290Y-61858042D01*
X131220000Y-61872500D01*
X131220000Y-62167500D01*
X131219290Y-62181958D01*
X131217166Y-62196276D01*
X131213649Y-62210317D01*
X131208772Y-62223946D01*
X131202583Y-62237031D01*
X131195142Y-62249447D01*
X131186519Y-62261073D01*
X131176798Y-62271798D01*
X131166073Y-62281519D01*
X131154447Y-62290142D01*
X131142031Y-62297583D01*
X131128946Y-62303772D01*
X131115317Y-62308649D01*
X131101276Y-62312166D01*
X131086958Y-62314290D01*
X131072500Y-62315000D01*
X130727500Y-62315000D01*
X130713042Y-62314290D01*
X130698724Y-62312166D01*
X130684683Y-62308649D01*
X130671054Y-62303772D01*
X130657969Y-62297583D01*
X130645553Y-62290142D01*
X130633927Y-62281519D01*
X130623202Y-62271798D01*
X130613481Y-62261073D01*
X130604858Y-62249447D01*
X130597417Y-62237031D01*
X130591228Y-62223946D01*
X130586351Y-62210317D01*
X130582834Y-62196276D01*
X130580710Y-62181958D01*
X130580000Y-62167500D01*
X130580000Y-61872500D01*
X130580710Y-61858042D01*
X130582834Y-61843724D01*
X130586351Y-61829683D01*
X130591228Y-61816054D01*
X130597417Y-61802969D01*
X130604858Y-61790553D01*
X130613481Y-61778927D01*
X130623202Y-61768202D01*
X130633927Y-61758481D01*
X130645553Y-61749858D01*
X130657969Y-61742417D01*
X130671054Y-61736228D01*
X130684683Y-61731351D01*
X130698724Y-61727834D01*
X130713042Y-61725710D01*
X130727500Y-61725000D01*
X131072500Y-61725000D01*
X131086958Y-61725710D01*
X131086958Y-61725710D01*
G37*
D13*
X130900000Y-62020000D03*
D11*
G36*
X131086958Y-60755710D02*
X131101276Y-60757834D01*
X131115317Y-60761351D01*
X131128946Y-60766228D01*
X131142031Y-60772417D01*
X131154447Y-60779858D01*
X131166073Y-60788481D01*
X131176798Y-60798202D01*
X131186519Y-60808927D01*
X131195142Y-60820553D01*
X131202583Y-60832969D01*
X131208772Y-60846054D01*
X131213649Y-60859683D01*
X131217166Y-60873724D01*
X131219290Y-60888042D01*
X131220000Y-60902500D01*
X131220000Y-61197500D01*
X131219290Y-61211958D01*
X131217166Y-61226276D01*
X131213649Y-61240317D01*
X131208772Y-61253946D01*
X131202583Y-61267031D01*
X131195142Y-61279447D01*
X131186519Y-61291073D01*
X131176798Y-61301798D01*
X131166073Y-61311519D01*
X131154447Y-61320142D01*
X131142031Y-61327583D01*
X131128946Y-61333772D01*
X131115317Y-61338649D01*
X131101276Y-61342166D01*
X131086958Y-61344290D01*
X131072500Y-61345000D01*
X130727500Y-61345000D01*
X130713042Y-61344290D01*
X130698724Y-61342166D01*
X130684683Y-61338649D01*
X130671054Y-61333772D01*
X130657969Y-61327583D01*
X130645553Y-61320142D01*
X130633927Y-61311519D01*
X130623202Y-61301798D01*
X130613481Y-61291073D01*
X130604858Y-61279447D01*
X130597417Y-61267031D01*
X130591228Y-61253946D01*
X130586351Y-61240317D01*
X130582834Y-61226276D01*
X130580710Y-61211958D01*
X130580000Y-61197500D01*
X130580000Y-60902500D01*
X130580710Y-60888042D01*
X130582834Y-60873724D01*
X130586351Y-60859683D01*
X130591228Y-60846054D01*
X130597417Y-60832969D01*
X130604858Y-60820553D01*
X130613481Y-60808927D01*
X130623202Y-60798202D01*
X130633927Y-60788481D01*
X130645553Y-60779858D01*
X130657969Y-60772417D01*
X130671054Y-60766228D01*
X130684683Y-60761351D01*
X130698724Y-60757834D01*
X130713042Y-60755710D01*
X130727500Y-60755000D01*
X131072500Y-60755000D01*
X131086958Y-60755710D01*
X131086958Y-60755710D01*
G37*
D13*
X130900000Y-61050000D03*
G04 #@! TD*
D11*
G04 #@! TO.C,R8*
G36*
X129736958Y-60720710D02*
X129751276Y-60722834D01*
X129765317Y-60726351D01*
X129778946Y-60731228D01*
X129792031Y-60737417D01*
X129804447Y-60744858D01*
X129816073Y-60753481D01*
X129826798Y-60763202D01*
X129836519Y-60773927D01*
X129845142Y-60785553D01*
X129852583Y-60797969D01*
X129858772Y-60811054D01*
X129863649Y-60824683D01*
X129867166Y-60838724D01*
X129869290Y-60853042D01*
X129870000Y-60867500D01*
X129870000Y-61162500D01*
X129869290Y-61176958D01*
X129867166Y-61191276D01*
X129863649Y-61205317D01*
X129858772Y-61218946D01*
X129852583Y-61232031D01*
X129845142Y-61244447D01*
X129836519Y-61256073D01*
X129826798Y-61266798D01*
X129816073Y-61276519D01*
X129804447Y-61285142D01*
X129792031Y-61292583D01*
X129778946Y-61298772D01*
X129765317Y-61303649D01*
X129751276Y-61307166D01*
X129736958Y-61309290D01*
X129722500Y-61310000D01*
X129377500Y-61310000D01*
X129363042Y-61309290D01*
X129348724Y-61307166D01*
X129334683Y-61303649D01*
X129321054Y-61298772D01*
X129307969Y-61292583D01*
X129295553Y-61285142D01*
X129283927Y-61276519D01*
X129273202Y-61266798D01*
X129263481Y-61256073D01*
X129254858Y-61244447D01*
X129247417Y-61232031D01*
X129241228Y-61218946D01*
X129236351Y-61205317D01*
X129232834Y-61191276D01*
X129230710Y-61176958D01*
X129230000Y-61162500D01*
X129230000Y-60867500D01*
X129230710Y-60853042D01*
X129232834Y-60838724D01*
X129236351Y-60824683D01*
X129241228Y-60811054D01*
X129247417Y-60797969D01*
X129254858Y-60785553D01*
X129263481Y-60773927D01*
X129273202Y-60763202D01*
X129283927Y-60753481D01*
X129295553Y-60744858D01*
X129307969Y-60737417D01*
X129321054Y-60731228D01*
X129334683Y-60726351D01*
X129348724Y-60722834D01*
X129363042Y-60720710D01*
X129377500Y-60720000D01*
X129722500Y-60720000D01*
X129736958Y-60720710D01*
X129736958Y-60720710D01*
G37*
D13*
X129550000Y-61015000D03*
D11*
G36*
X129736958Y-61690710D02*
X129751276Y-61692834D01*
X129765317Y-61696351D01*
X129778946Y-61701228D01*
X129792031Y-61707417D01*
X129804447Y-61714858D01*
X129816073Y-61723481D01*
X129826798Y-61733202D01*
X129836519Y-61743927D01*
X129845142Y-61755553D01*
X129852583Y-61767969D01*
X129858772Y-61781054D01*
X129863649Y-61794683D01*
X129867166Y-61808724D01*
X129869290Y-61823042D01*
X129870000Y-61837500D01*
X129870000Y-62132500D01*
X129869290Y-62146958D01*
X129867166Y-62161276D01*
X129863649Y-62175317D01*
X129858772Y-62188946D01*
X129852583Y-62202031D01*
X129845142Y-62214447D01*
X129836519Y-62226073D01*
X129826798Y-62236798D01*
X129816073Y-62246519D01*
X129804447Y-62255142D01*
X129792031Y-62262583D01*
X129778946Y-62268772D01*
X129765317Y-62273649D01*
X129751276Y-62277166D01*
X129736958Y-62279290D01*
X129722500Y-62280000D01*
X129377500Y-62280000D01*
X129363042Y-62279290D01*
X129348724Y-62277166D01*
X129334683Y-62273649D01*
X129321054Y-62268772D01*
X129307969Y-62262583D01*
X129295553Y-62255142D01*
X129283927Y-62246519D01*
X129273202Y-62236798D01*
X129263481Y-62226073D01*
X129254858Y-62214447D01*
X129247417Y-62202031D01*
X129241228Y-62188946D01*
X129236351Y-62175317D01*
X129232834Y-62161276D01*
X129230710Y-62146958D01*
X129230000Y-62132500D01*
X129230000Y-61837500D01*
X129230710Y-61823042D01*
X129232834Y-61808724D01*
X129236351Y-61794683D01*
X129241228Y-61781054D01*
X129247417Y-61767969D01*
X129254858Y-61755553D01*
X129263481Y-61743927D01*
X129273202Y-61733202D01*
X129283927Y-61723481D01*
X129295553Y-61714858D01*
X129307969Y-61707417D01*
X129321054Y-61701228D01*
X129334683Y-61696351D01*
X129348724Y-61692834D01*
X129363042Y-61690710D01*
X129377500Y-61690000D01*
X129722500Y-61690000D01*
X129736958Y-61690710D01*
X129736958Y-61690710D01*
G37*
D13*
X129550000Y-61985000D03*
G04 #@! TD*
D11*
G04 #@! TO.C,R13*
G36*
X142786958Y-105920710D02*
X142801276Y-105922834D01*
X142815317Y-105926351D01*
X142828946Y-105931228D01*
X142842031Y-105937417D01*
X142854447Y-105944858D01*
X142866073Y-105953481D01*
X142876798Y-105963202D01*
X142886519Y-105973927D01*
X142895142Y-105985553D01*
X142902583Y-105997969D01*
X142908772Y-106011054D01*
X142913649Y-106024683D01*
X142917166Y-106038724D01*
X142919290Y-106053042D01*
X142920000Y-106067500D01*
X142920000Y-106362500D01*
X142919290Y-106376958D01*
X142917166Y-106391276D01*
X142913649Y-106405317D01*
X142908772Y-106418946D01*
X142902583Y-106432031D01*
X142895142Y-106444447D01*
X142886519Y-106456073D01*
X142876798Y-106466798D01*
X142866073Y-106476519D01*
X142854447Y-106485142D01*
X142842031Y-106492583D01*
X142828946Y-106498772D01*
X142815317Y-106503649D01*
X142801276Y-106507166D01*
X142786958Y-106509290D01*
X142772500Y-106510000D01*
X142427500Y-106510000D01*
X142413042Y-106509290D01*
X142398724Y-106507166D01*
X142384683Y-106503649D01*
X142371054Y-106498772D01*
X142357969Y-106492583D01*
X142345553Y-106485142D01*
X142333927Y-106476519D01*
X142323202Y-106466798D01*
X142313481Y-106456073D01*
X142304858Y-106444447D01*
X142297417Y-106432031D01*
X142291228Y-106418946D01*
X142286351Y-106405317D01*
X142282834Y-106391276D01*
X142280710Y-106376958D01*
X142280000Y-106362500D01*
X142280000Y-106067500D01*
X142280710Y-106053042D01*
X142282834Y-106038724D01*
X142286351Y-106024683D01*
X142291228Y-106011054D01*
X142297417Y-105997969D01*
X142304858Y-105985553D01*
X142313481Y-105973927D01*
X142323202Y-105963202D01*
X142333927Y-105953481D01*
X142345553Y-105944858D01*
X142357969Y-105937417D01*
X142371054Y-105931228D01*
X142384683Y-105926351D01*
X142398724Y-105922834D01*
X142413042Y-105920710D01*
X142427500Y-105920000D01*
X142772500Y-105920000D01*
X142786958Y-105920710D01*
X142786958Y-105920710D01*
G37*
D13*
X142600000Y-106215000D03*
D11*
G36*
X142786958Y-106890710D02*
X142801276Y-106892834D01*
X142815317Y-106896351D01*
X142828946Y-106901228D01*
X142842031Y-106907417D01*
X142854447Y-106914858D01*
X142866073Y-106923481D01*
X142876798Y-106933202D01*
X142886519Y-106943927D01*
X142895142Y-106955553D01*
X142902583Y-106967969D01*
X142908772Y-106981054D01*
X142913649Y-106994683D01*
X142917166Y-107008724D01*
X142919290Y-107023042D01*
X142920000Y-107037500D01*
X142920000Y-107332500D01*
X142919290Y-107346958D01*
X142917166Y-107361276D01*
X142913649Y-107375317D01*
X142908772Y-107388946D01*
X142902583Y-107402031D01*
X142895142Y-107414447D01*
X142886519Y-107426073D01*
X142876798Y-107436798D01*
X142866073Y-107446519D01*
X142854447Y-107455142D01*
X142842031Y-107462583D01*
X142828946Y-107468772D01*
X142815317Y-107473649D01*
X142801276Y-107477166D01*
X142786958Y-107479290D01*
X142772500Y-107480000D01*
X142427500Y-107480000D01*
X142413042Y-107479290D01*
X142398724Y-107477166D01*
X142384683Y-107473649D01*
X142371054Y-107468772D01*
X142357969Y-107462583D01*
X142345553Y-107455142D01*
X142333927Y-107446519D01*
X142323202Y-107436798D01*
X142313481Y-107426073D01*
X142304858Y-107414447D01*
X142297417Y-107402031D01*
X142291228Y-107388946D01*
X142286351Y-107375317D01*
X142282834Y-107361276D01*
X142280710Y-107346958D01*
X142280000Y-107332500D01*
X142280000Y-107037500D01*
X142280710Y-107023042D01*
X142282834Y-107008724D01*
X142286351Y-106994683D01*
X142291228Y-106981054D01*
X142297417Y-106967969D01*
X142304858Y-106955553D01*
X142313481Y-106943927D01*
X142323202Y-106933202D01*
X142333927Y-106923481D01*
X142345553Y-106914858D01*
X142357969Y-106907417D01*
X142371054Y-106901228D01*
X142384683Y-106896351D01*
X142398724Y-106892834D01*
X142413042Y-106890710D01*
X142427500Y-106890000D01*
X142772500Y-106890000D01*
X142786958Y-106890710D01*
X142786958Y-106890710D01*
G37*
D13*
X142600000Y-107185000D03*
G04 #@! TD*
D11*
G04 #@! TO.C,R14*
G36*
X141486958Y-105920710D02*
X141501276Y-105922834D01*
X141515317Y-105926351D01*
X141528946Y-105931228D01*
X141542031Y-105937417D01*
X141554447Y-105944858D01*
X141566073Y-105953481D01*
X141576798Y-105963202D01*
X141586519Y-105973927D01*
X141595142Y-105985553D01*
X141602583Y-105997969D01*
X141608772Y-106011054D01*
X141613649Y-106024683D01*
X141617166Y-106038724D01*
X141619290Y-106053042D01*
X141620000Y-106067500D01*
X141620000Y-106362500D01*
X141619290Y-106376958D01*
X141617166Y-106391276D01*
X141613649Y-106405317D01*
X141608772Y-106418946D01*
X141602583Y-106432031D01*
X141595142Y-106444447D01*
X141586519Y-106456073D01*
X141576798Y-106466798D01*
X141566073Y-106476519D01*
X141554447Y-106485142D01*
X141542031Y-106492583D01*
X141528946Y-106498772D01*
X141515317Y-106503649D01*
X141501276Y-106507166D01*
X141486958Y-106509290D01*
X141472500Y-106510000D01*
X141127500Y-106510000D01*
X141113042Y-106509290D01*
X141098724Y-106507166D01*
X141084683Y-106503649D01*
X141071054Y-106498772D01*
X141057969Y-106492583D01*
X141045553Y-106485142D01*
X141033927Y-106476519D01*
X141023202Y-106466798D01*
X141013481Y-106456073D01*
X141004858Y-106444447D01*
X140997417Y-106432031D01*
X140991228Y-106418946D01*
X140986351Y-106405317D01*
X140982834Y-106391276D01*
X140980710Y-106376958D01*
X140980000Y-106362500D01*
X140980000Y-106067500D01*
X140980710Y-106053042D01*
X140982834Y-106038724D01*
X140986351Y-106024683D01*
X140991228Y-106011054D01*
X140997417Y-105997969D01*
X141004858Y-105985553D01*
X141013481Y-105973927D01*
X141023202Y-105963202D01*
X141033927Y-105953481D01*
X141045553Y-105944858D01*
X141057969Y-105937417D01*
X141071054Y-105931228D01*
X141084683Y-105926351D01*
X141098724Y-105922834D01*
X141113042Y-105920710D01*
X141127500Y-105920000D01*
X141472500Y-105920000D01*
X141486958Y-105920710D01*
X141486958Y-105920710D01*
G37*
D13*
X141300000Y-106215000D03*
D11*
G36*
X141486958Y-106890710D02*
X141501276Y-106892834D01*
X141515317Y-106896351D01*
X141528946Y-106901228D01*
X141542031Y-106907417D01*
X141554447Y-106914858D01*
X141566073Y-106923481D01*
X141576798Y-106933202D01*
X141586519Y-106943927D01*
X141595142Y-106955553D01*
X141602583Y-106967969D01*
X141608772Y-106981054D01*
X141613649Y-106994683D01*
X141617166Y-107008724D01*
X141619290Y-107023042D01*
X141620000Y-107037500D01*
X141620000Y-107332500D01*
X141619290Y-107346958D01*
X141617166Y-107361276D01*
X141613649Y-107375317D01*
X141608772Y-107388946D01*
X141602583Y-107402031D01*
X141595142Y-107414447D01*
X141586519Y-107426073D01*
X141576798Y-107436798D01*
X141566073Y-107446519D01*
X141554447Y-107455142D01*
X141542031Y-107462583D01*
X141528946Y-107468772D01*
X141515317Y-107473649D01*
X141501276Y-107477166D01*
X141486958Y-107479290D01*
X141472500Y-107480000D01*
X141127500Y-107480000D01*
X141113042Y-107479290D01*
X141098724Y-107477166D01*
X141084683Y-107473649D01*
X141071054Y-107468772D01*
X141057969Y-107462583D01*
X141045553Y-107455142D01*
X141033927Y-107446519D01*
X141023202Y-107436798D01*
X141013481Y-107426073D01*
X141004858Y-107414447D01*
X140997417Y-107402031D01*
X140991228Y-107388946D01*
X140986351Y-107375317D01*
X140982834Y-107361276D01*
X140980710Y-107346958D01*
X140980000Y-107332500D01*
X140980000Y-107037500D01*
X140980710Y-107023042D01*
X140982834Y-107008724D01*
X140986351Y-106994683D01*
X140991228Y-106981054D01*
X140997417Y-106967969D01*
X141004858Y-106955553D01*
X141013481Y-106943927D01*
X141023202Y-106933202D01*
X141033927Y-106923481D01*
X141045553Y-106914858D01*
X141057969Y-106907417D01*
X141071054Y-106901228D01*
X141084683Y-106896351D01*
X141098724Y-106892834D01*
X141113042Y-106890710D01*
X141127500Y-106890000D01*
X141472500Y-106890000D01*
X141486958Y-106890710D01*
X141486958Y-106890710D01*
G37*
D13*
X141300000Y-107185000D03*
G04 #@! TD*
D11*
G04 #@! TO.C,R16*
G36*
X127431958Y-109380710D02*
X127446276Y-109382834D01*
X127460317Y-109386351D01*
X127473946Y-109391228D01*
X127487031Y-109397417D01*
X127499447Y-109404858D01*
X127511073Y-109413481D01*
X127521798Y-109423202D01*
X127531519Y-109433927D01*
X127540142Y-109445553D01*
X127547583Y-109457969D01*
X127553772Y-109471054D01*
X127558649Y-109484683D01*
X127562166Y-109498724D01*
X127564290Y-109513042D01*
X127565000Y-109527500D01*
X127565000Y-109872500D01*
X127564290Y-109886958D01*
X127562166Y-109901276D01*
X127558649Y-109915317D01*
X127553772Y-109928946D01*
X127547583Y-109942031D01*
X127540142Y-109954447D01*
X127531519Y-109966073D01*
X127521798Y-109976798D01*
X127511073Y-109986519D01*
X127499447Y-109995142D01*
X127487031Y-110002583D01*
X127473946Y-110008772D01*
X127460317Y-110013649D01*
X127446276Y-110017166D01*
X127431958Y-110019290D01*
X127417500Y-110020000D01*
X127122500Y-110020000D01*
X127108042Y-110019290D01*
X127093724Y-110017166D01*
X127079683Y-110013649D01*
X127066054Y-110008772D01*
X127052969Y-110002583D01*
X127040553Y-109995142D01*
X127028927Y-109986519D01*
X127018202Y-109976798D01*
X127008481Y-109966073D01*
X126999858Y-109954447D01*
X126992417Y-109942031D01*
X126986228Y-109928946D01*
X126981351Y-109915317D01*
X126977834Y-109901276D01*
X126975710Y-109886958D01*
X126975000Y-109872500D01*
X126975000Y-109527500D01*
X126975710Y-109513042D01*
X126977834Y-109498724D01*
X126981351Y-109484683D01*
X126986228Y-109471054D01*
X126992417Y-109457969D01*
X126999858Y-109445553D01*
X127008481Y-109433927D01*
X127018202Y-109423202D01*
X127028927Y-109413481D01*
X127040553Y-109404858D01*
X127052969Y-109397417D01*
X127066054Y-109391228D01*
X127079683Y-109386351D01*
X127093724Y-109382834D01*
X127108042Y-109380710D01*
X127122500Y-109380000D01*
X127417500Y-109380000D01*
X127431958Y-109380710D01*
X127431958Y-109380710D01*
G37*
D13*
X127270000Y-109700000D03*
D11*
G36*
X126461958Y-109380710D02*
X126476276Y-109382834D01*
X126490317Y-109386351D01*
X126503946Y-109391228D01*
X126517031Y-109397417D01*
X126529447Y-109404858D01*
X126541073Y-109413481D01*
X126551798Y-109423202D01*
X126561519Y-109433927D01*
X126570142Y-109445553D01*
X126577583Y-109457969D01*
X126583772Y-109471054D01*
X126588649Y-109484683D01*
X126592166Y-109498724D01*
X126594290Y-109513042D01*
X126595000Y-109527500D01*
X126595000Y-109872500D01*
X126594290Y-109886958D01*
X126592166Y-109901276D01*
X126588649Y-109915317D01*
X126583772Y-109928946D01*
X126577583Y-109942031D01*
X126570142Y-109954447D01*
X126561519Y-109966073D01*
X126551798Y-109976798D01*
X126541073Y-109986519D01*
X126529447Y-109995142D01*
X126517031Y-110002583D01*
X126503946Y-110008772D01*
X126490317Y-110013649D01*
X126476276Y-110017166D01*
X126461958Y-110019290D01*
X126447500Y-110020000D01*
X126152500Y-110020000D01*
X126138042Y-110019290D01*
X126123724Y-110017166D01*
X126109683Y-110013649D01*
X126096054Y-110008772D01*
X126082969Y-110002583D01*
X126070553Y-109995142D01*
X126058927Y-109986519D01*
X126048202Y-109976798D01*
X126038481Y-109966073D01*
X126029858Y-109954447D01*
X126022417Y-109942031D01*
X126016228Y-109928946D01*
X126011351Y-109915317D01*
X126007834Y-109901276D01*
X126005710Y-109886958D01*
X126005000Y-109872500D01*
X126005000Y-109527500D01*
X126005710Y-109513042D01*
X126007834Y-109498724D01*
X126011351Y-109484683D01*
X126016228Y-109471054D01*
X126022417Y-109457969D01*
X126029858Y-109445553D01*
X126038481Y-109433927D01*
X126048202Y-109423202D01*
X126058927Y-109413481D01*
X126070553Y-109404858D01*
X126082969Y-109397417D01*
X126096054Y-109391228D01*
X126109683Y-109386351D01*
X126123724Y-109382834D01*
X126138042Y-109380710D01*
X126152500Y-109380000D01*
X126447500Y-109380000D01*
X126461958Y-109380710D01*
X126461958Y-109380710D01*
G37*
D13*
X126300000Y-109700000D03*
G04 #@! TD*
D11*
G04 #@! TO.C,R17*
G36*
X125346958Y-109380710D02*
X125361276Y-109382834D01*
X125375317Y-109386351D01*
X125388946Y-109391228D01*
X125402031Y-109397417D01*
X125414447Y-109404858D01*
X125426073Y-109413481D01*
X125436798Y-109423202D01*
X125446519Y-109433927D01*
X125455142Y-109445553D01*
X125462583Y-109457969D01*
X125468772Y-109471054D01*
X125473649Y-109484683D01*
X125477166Y-109498724D01*
X125479290Y-109513042D01*
X125480000Y-109527500D01*
X125480000Y-109872500D01*
X125479290Y-109886958D01*
X125477166Y-109901276D01*
X125473649Y-109915317D01*
X125468772Y-109928946D01*
X125462583Y-109942031D01*
X125455142Y-109954447D01*
X125446519Y-109966073D01*
X125436798Y-109976798D01*
X125426073Y-109986519D01*
X125414447Y-109995142D01*
X125402031Y-110002583D01*
X125388946Y-110008772D01*
X125375317Y-110013649D01*
X125361276Y-110017166D01*
X125346958Y-110019290D01*
X125332500Y-110020000D01*
X125037500Y-110020000D01*
X125023042Y-110019290D01*
X125008724Y-110017166D01*
X124994683Y-110013649D01*
X124981054Y-110008772D01*
X124967969Y-110002583D01*
X124955553Y-109995142D01*
X124943927Y-109986519D01*
X124933202Y-109976798D01*
X124923481Y-109966073D01*
X124914858Y-109954447D01*
X124907417Y-109942031D01*
X124901228Y-109928946D01*
X124896351Y-109915317D01*
X124892834Y-109901276D01*
X124890710Y-109886958D01*
X124890000Y-109872500D01*
X124890000Y-109527500D01*
X124890710Y-109513042D01*
X124892834Y-109498724D01*
X124896351Y-109484683D01*
X124901228Y-109471054D01*
X124907417Y-109457969D01*
X124914858Y-109445553D01*
X124923481Y-109433927D01*
X124933202Y-109423202D01*
X124943927Y-109413481D01*
X124955553Y-109404858D01*
X124967969Y-109397417D01*
X124981054Y-109391228D01*
X124994683Y-109386351D01*
X125008724Y-109382834D01*
X125023042Y-109380710D01*
X125037500Y-109380000D01*
X125332500Y-109380000D01*
X125346958Y-109380710D01*
X125346958Y-109380710D01*
G37*
D13*
X125185000Y-109700000D03*
D11*
G36*
X124376958Y-109380710D02*
X124391276Y-109382834D01*
X124405317Y-109386351D01*
X124418946Y-109391228D01*
X124432031Y-109397417D01*
X124444447Y-109404858D01*
X124456073Y-109413481D01*
X124466798Y-109423202D01*
X124476519Y-109433927D01*
X124485142Y-109445553D01*
X124492583Y-109457969D01*
X124498772Y-109471054D01*
X124503649Y-109484683D01*
X124507166Y-109498724D01*
X124509290Y-109513042D01*
X124510000Y-109527500D01*
X124510000Y-109872500D01*
X124509290Y-109886958D01*
X124507166Y-109901276D01*
X124503649Y-109915317D01*
X124498772Y-109928946D01*
X124492583Y-109942031D01*
X124485142Y-109954447D01*
X124476519Y-109966073D01*
X124466798Y-109976798D01*
X124456073Y-109986519D01*
X124444447Y-109995142D01*
X124432031Y-110002583D01*
X124418946Y-110008772D01*
X124405317Y-110013649D01*
X124391276Y-110017166D01*
X124376958Y-110019290D01*
X124362500Y-110020000D01*
X124067500Y-110020000D01*
X124053042Y-110019290D01*
X124038724Y-110017166D01*
X124024683Y-110013649D01*
X124011054Y-110008772D01*
X123997969Y-110002583D01*
X123985553Y-109995142D01*
X123973927Y-109986519D01*
X123963202Y-109976798D01*
X123953481Y-109966073D01*
X123944858Y-109954447D01*
X123937417Y-109942031D01*
X123931228Y-109928946D01*
X123926351Y-109915317D01*
X123922834Y-109901276D01*
X123920710Y-109886958D01*
X123920000Y-109872500D01*
X123920000Y-109527500D01*
X123920710Y-109513042D01*
X123922834Y-109498724D01*
X123926351Y-109484683D01*
X123931228Y-109471054D01*
X123937417Y-109457969D01*
X123944858Y-109445553D01*
X123953481Y-109433927D01*
X123963202Y-109423202D01*
X123973927Y-109413481D01*
X123985553Y-109404858D01*
X123997969Y-109397417D01*
X124011054Y-109391228D01*
X124024683Y-109386351D01*
X124038724Y-109382834D01*
X124053042Y-109380710D01*
X124067500Y-109380000D01*
X124362500Y-109380000D01*
X124376958Y-109380710D01*
X124376958Y-109380710D01*
G37*
D13*
X124215000Y-109700000D03*
G04 #@! TD*
D11*
G04 #@! TO.C,R18*
G36*
X124486958Y-100220710D02*
X124501276Y-100222834D01*
X124515317Y-100226351D01*
X124528946Y-100231228D01*
X124542031Y-100237417D01*
X124554447Y-100244858D01*
X124566073Y-100253481D01*
X124576798Y-100263202D01*
X124586519Y-100273927D01*
X124595142Y-100285553D01*
X124602583Y-100297969D01*
X124608772Y-100311054D01*
X124613649Y-100324683D01*
X124617166Y-100338724D01*
X124619290Y-100353042D01*
X124620000Y-100367500D01*
X124620000Y-100662500D01*
X124619290Y-100676958D01*
X124617166Y-100691276D01*
X124613649Y-100705317D01*
X124608772Y-100718946D01*
X124602583Y-100732031D01*
X124595142Y-100744447D01*
X124586519Y-100756073D01*
X124576798Y-100766798D01*
X124566073Y-100776519D01*
X124554447Y-100785142D01*
X124542031Y-100792583D01*
X124528946Y-100798772D01*
X124515317Y-100803649D01*
X124501276Y-100807166D01*
X124486958Y-100809290D01*
X124472500Y-100810000D01*
X124127500Y-100810000D01*
X124113042Y-100809290D01*
X124098724Y-100807166D01*
X124084683Y-100803649D01*
X124071054Y-100798772D01*
X124057969Y-100792583D01*
X124045553Y-100785142D01*
X124033927Y-100776519D01*
X124023202Y-100766798D01*
X124013481Y-100756073D01*
X124004858Y-100744447D01*
X123997417Y-100732031D01*
X123991228Y-100718946D01*
X123986351Y-100705317D01*
X123982834Y-100691276D01*
X123980710Y-100676958D01*
X123980000Y-100662500D01*
X123980000Y-100367500D01*
X123980710Y-100353042D01*
X123982834Y-100338724D01*
X123986351Y-100324683D01*
X123991228Y-100311054D01*
X123997417Y-100297969D01*
X124004858Y-100285553D01*
X124013481Y-100273927D01*
X124023202Y-100263202D01*
X124033927Y-100253481D01*
X124045553Y-100244858D01*
X124057969Y-100237417D01*
X124071054Y-100231228D01*
X124084683Y-100226351D01*
X124098724Y-100222834D01*
X124113042Y-100220710D01*
X124127500Y-100220000D01*
X124472500Y-100220000D01*
X124486958Y-100220710D01*
X124486958Y-100220710D01*
G37*
D13*
X124300000Y-100515000D03*
D11*
G36*
X124486958Y-101190710D02*
X124501276Y-101192834D01*
X124515317Y-101196351D01*
X124528946Y-101201228D01*
X124542031Y-101207417D01*
X124554447Y-101214858D01*
X124566073Y-101223481D01*
X124576798Y-101233202D01*
X124586519Y-101243927D01*
X124595142Y-101255553D01*
X124602583Y-101267969D01*
X124608772Y-101281054D01*
X124613649Y-101294683D01*
X124617166Y-101308724D01*
X124619290Y-101323042D01*
X124620000Y-101337500D01*
X124620000Y-101632500D01*
X124619290Y-101646958D01*
X124617166Y-101661276D01*
X124613649Y-101675317D01*
X124608772Y-101688946D01*
X124602583Y-101702031D01*
X124595142Y-101714447D01*
X124586519Y-101726073D01*
X124576798Y-101736798D01*
X124566073Y-101746519D01*
X124554447Y-101755142D01*
X124542031Y-101762583D01*
X124528946Y-101768772D01*
X124515317Y-101773649D01*
X124501276Y-101777166D01*
X124486958Y-101779290D01*
X124472500Y-101780000D01*
X124127500Y-101780000D01*
X124113042Y-101779290D01*
X124098724Y-101777166D01*
X124084683Y-101773649D01*
X124071054Y-101768772D01*
X124057969Y-101762583D01*
X124045553Y-101755142D01*
X124033927Y-101746519D01*
X124023202Y-101736798D01*
X124013481Y-101726073D01*
X124004858Y-101714447D01*
X123997417Y-101702031D01*
X123991228Y-101688946D01*
X123986351Y-101675317D01*
X123982834Y-101661276D01*
X123980710Y-101646958D01*
X123980000Y-101632500D01*
X123980000Y-101337500D01*
X123980710Y-101323042D01*
X123982834Y-101308724D01*
X123986351Y-101294683D01*
X123991228Y-101281054D01*
X123997417Y-101267969D01*
X124004858Y-101255553D01*
X124013481Y-101243927D01*
X124023202Y-101233202D01*
X124033927Y-101223481D01*
X124045553Y-101214858D01*
X124057969Y-101207417D01*
X124071054Y-101201228D01*
X124084683Y-101196351D01*
X124098724Y-101192834D01*
X124113042Y-101190710D01*
X124127500Y-101190000D01*
X124472500Y-101190000D01*
X124486958Y-101190710D01*
X124486958Y-101190710D01*
G37*
D13*
X124300000Y-101485000D03*
G04 #@! TD*
D11*
G04 #@! TO.C,R19*
G36*
X125886958Y-100220710D02*
X125901276Y-100222834D01*
X125915317Y-100226351D01*
X125928946Y-100231228D01*
X125942031Y-100237417D01*
X125954447Y-100244858D01*
X125966073Y-100253481D01*
X125976798Y-100263202D01*
X125986519Y-100273927D01*
X125995142Y-100285553D01*
X126002583Y-100297969D01*
X126008772Y-100311054D01*
X126013649Y-100324683D01*
X126017166Y-100338724D01*
X126019290Y-100353042D01*
X126020000Y-100367500D01*
X126020000Y-100662500D01*
X126019290Y-100676958D01*
X126017166Y-100691276D01*
X126013649Y-100705317D01*
X126008772Y-100718946D01*
X126002583Y-100732031D01*
X125995142Y-100744447D01*
X125986519Y-100756073D01*
X125976798Y-100766798D01*
X125966073Y-100776519D01*
X125954447Y-100785142D01*
X125942031Y-100792583D01*
X125928946Y-100798772D01*
X125915317Y-100803649D01*
X125901276Y-100807166D01*
X125886958Y-100809290D01*
X125872500Y-100810000D01*
X125527500Y-100810000D01*
X125513042Y-100809290D01*
X125498724Y-100807166D01*
X125484683Y-100803649D01*
X125471054Y-100798772D01*
X125457969Y-100792583D01*
X125445553Y-100785142D01*
X125433927Y-100776519D01*
X125423202Y-100766798D01*
X125413481Y-100756073D01*
X125404858Y-100744447D01*
X125397417Y-100732031D01*
X125391228Y-100718946D01*
X125386351Y-100705317D01*
X125382834Y-100691276D01*
X125380710Y-100676958D01*
X125380000Y-100662500D01*
X125380000Y-100367500D01*
X125380710Y-100353042D01*
X125382834Y-100338724D01*
X125386351Y-100324683D01*
X125391228Y-100311054D01*
X125397417Y-100297969D01*
X125404858Y-100285553D01*
X125413481Y-100273927D01*
X125423202Y-100263202D01*
X125433927Y-100253481D01*
X125445553Y-100244858D01*
X125457969Y-100237417D01*
X125471054Y-100231228D01*
X125484683Y-100226351D01*
X125498724Y-100222834D01*
X125513042Y-100220710D01*
X125527500Y-100220000D01*
X125872500Y-100220000D01*
X125886958Y-100220710D01*
X125886958Y-100220710D01*
G37*
D13*
X125700000Y-100515000D03*
D11*
G36*
X125886958Y-101190710D02*
X125901276Y-101192834D01*
X125915317Y-101196351D01*
X125928946Y-101201228D01*
X125942031Y-101207417D01*
X125954447Y-101214858D01*
X125966073Y-101223481D01*
X125976798Y-101233202D01*
X125986519Y-101243927D01*
X125995142Y-101255553D01*
X126002583Y-101267969D01*
X126008772Y-101281054D01*
X126013649Y-101294683D01*
X126017166Y-101308724D01*
X126019290Y-101323042D01*
X126020000Y-101337500D01*
X126020000Y-101632500D01*
X126019290Y-101646958D01*
X126017166Y-101661276D01*
X126013649Y-101675317D01*
X126008772Y-101688946D01*
X126002583Y-101702031D01*
X125995142Y-101714447D01*
X125986519Y-101726073D01*
X125976798Y-101736798D01*
X125966073Y-101746519D01*
X125954447Y-101755142D01*
X125942031Y-101762583D01*
X125928946Y-101768772D01*
X125915317Y-101773649D01*
X125901276Y-101777166D01*
X125886958Y-101779290D01*
X125872500Y-101780000D01*
X125527500Y-101780000D01*
X125513042Y-101779290D01*
X125498724Y-101777166D01*
X125484683Y-101773649D01*
X125471054Y-101768772D01*
X125457969Y-101762583D01*
X125445553Y-101755142D01*
X125433927Y-101746519D01*
X125423202Y-101736798D01*
X125413481Y-101726073D01*
X125404858Y-101714447D01*
X125397417Y-101702031D01*
X125391228Y-101688946D01*
X125386351Y-101675317D01*
X125382834Y-101661276D01*
X125380710Y-101646958D01*
X125380000Y-101632500D01*
X125380000Y-101337500D01*
X125380710Y-101323042D01*
X125382834Y-101308724D01*
X125386351Y-101294683D01*
X125391228Y-101281054D01*
X125397417Y-101267969D01*
X125404858Y-101255553D01*
X125413481Y-101243927D01*
X125423202Y-101233202D01*
X125433927Y-101223481D01*
X125445553Y-101214858D01*
X125457969Y-101207417D01*
X125471054Y-101201228D01*
X125484683Y-101196351D01*
X125498724Y-101192834D01*
X125513042Y-101190710D01*
X125527500Y-101190000D01*
X125872500Y-101190000D01*
X125886958Y-101190710D01*
X125886958Y-101190710D01*
G37*
D13*
X125700000Y-101485000D03*
G04 #@! TD*
D11*
G04 #@! TO.C,R20*
G36*
X141686958Y-97505710D02*
X141701276Y-97507834D01*
X141715317Y-97511351D01*
X141728946Y-97516228D01*
X141742031Y-97522417D01*
X141754447Y-97529858D01*
X141766073Y-97538481D01*
X141776798Y-97548202D01*
X141786519Y-97558927D01*
X141795142Y-97570553D01*
X141802583Y-97582969D01*
X141808772Y-97596054D01*
X141813649Y-97609683D01*
X141817166Y-97623724D01*
X141819290Y-97638042D01*
X141820000Y-97652500D01*
X141820000Y-97947500D01*
X141819290Y-97961958D01*
X141817166Y-97976276D01*
X141813649Y-97990317D01*
X141808772Y-98003946D01*
X141802583Y-98017031D01*
X141795142Y-98029447D01*
X141786519Y-98041073D01*
X141776798Y-98051798D01*
X141766073Y-98061519D01*
X141754447Y-98070142D01*
X141742031Y-98077583D01*
X141728946Y-98083772D01*
X141715317Y-98088649D01*
X141701276Y-98092166D01*
X141686958Y-98094290D01*
X141672500Y-98095000D01*
X141327500Y-98095000D01*
X141313042Y-98094290D01*
X141298724Y-98092166D01*
X141284683Y-98088649D01*
X141271054Y-98083772D01*
X141257969Y-98077583D01*
X141245553Y-98070142D01*
X141233927Y-98061519D01*
X141223202Y-98051798D01*
X141213481Y-98041073D01*
X141204858Y-98029447D01*
X141197417Y-98017031D01*
X141191228Y-98003946D01*
X141186351Y-97990317D01*
X141182834Y-97976276D01*
X141180710Y-97961958D01*
X141180000Y-97947500D01*
X141180000Y-97652500D01*
X141180710Y-97638042D01*
X141182834Y-97623724D01*
X141186351Y-97609683D01*
X141191228Y-97596054D01*
X141197417Y-97582969D01*
X141204858Y-97570553D01*
X141213481Y-97558927D01*
X141223202Y-97548202D01*
X141233927Y-97538481D01*
X141245553Y-97529858D01*
X141257969Y-97522417D01*
X141271054Y-97516228D01*
X141284683Y-97511351D01*
X141298724Y-97507834D01*
X141313042Y-97505710D01*
X141327500Y-97505000D01*
X141672500Y-97505000D01*
X141686958Y-97505710D01*
X141686958Y-97505710D01*
G37*
D13*
X141500000Y-97800000D03*
D11*
G36*
X141686958Y-96535710D02*
X141701276Y-96537834D01*
X141715317Y-96541351D01*
X141728946Y-96546228D01*
X141742031Y-96552417D01*
X141754447Y-96559858D01*
X141766073Y-96568481D01*
X141776798Y-96578202D01*
X141786519Y-96588927D01*
X141795142Y-96600553D01*
X141802583Y-96612969D01*
X141808772Y-96626054D01*
X141813649Y-96639683D01*
X141817166Y-96653724D01*
X141819290Y-96668042D01*
X141820000Y-96682500D01*
X141820000Y-96977500D01*
X141819290Y-96991958D01*
X141817166Y-97006276D01*
X141813649Y-97020317D01*
X141808772Y-97033946D01*
X141802583Y-97047031D01*
X141795142Y-97059447D01*
X141786519Y-97071073D01*
X141776798Y-97081798D01*
X141766073Y-97091519D01*
X141754447Y-97100142D01*
X141742031Y-97107583D01*
X141728946Y-97113772D01*
X141715317Y-97118649D01*
X141701276Y-97122166D01*
X141686958Y-97124290D01*
X141672500Y-97125000D01*
X141327500Y-97125000D01*
X141313042Y-97124290D01*
X141298724Y-97122166D01*
X141284683Y-97118649D01*
X141271054Y-97113772D01*
X141257969Y-97107583D01*
X141245553Y-97100142D01*
X141233927Y-97091519D01*
X141223202Y-97081798D01*
X141213481Y-97071073D01*
X141204858Y-97059447D01*
X141197417Y-97047031D01*
X141191228Y-97033946D01*
X141186351Y-97020317D01*
X141182834Y-97006276D01*
X141180710Y-96991958D01*
X141180000Y-96977500D01*
X141180000Y-96682500D01*
X141180710Y-96668042D01*
X141182834Y-96653724D01*
X141186351Y-96639683D01*
X141191228Y-96626054D01*
X141197417Y-96612969D01*
X141204858Y-96600553D01*
X141213481Y-96588927D01*
X141223202Y-96578202D01*
X141233927Y-96568481D01*
X141245553Y-96559858D01*
X141257969Y-96552417D01*
X141271054Y-96546228D01*
X141284683Y-96541351D01*
X141298724Y-96537834D01*
X141313042Y-96535710D01*
X141327500Y-96535000D01*
X141672500Y-96535000D01*
X141686958Y-96535710D01*
X141686958Y-96535710D01*
G37*
D13*
X141500000Y-96830000D03*
G04 #@! TD*
D11*
G04 #@! TO.C,R21*
G36*
X142786958Y-97475710D02*
X142801276Y-97477834D01*
X142815317Y-97481351D01*
X142828946Y-97486228D01*
X142842031Y-97492417D01*
X142854447Y-97499858D01*
X142866073Y-97508481D01*
X142876798Y-97518202D01*
X142886519Y-97528927D01*
X142895142Y-97540553D01*
X142902583Y-97552969D01*
X142908772Y-97566054D01*
X142913649Y-97579683D01*
X142917166Y-97593724D01*
X142919290Y-97608042D01*
X142920000Y-97622500D01*
X142920000Y-97917500D01*
X142919290Y-97931958D01*
X142917166Y-97946276D01*
X142913649Y-97960317D01*
X142908772Y-97973946D01*
X142902583Y-97987031D01*
X142895142Y-97999447D01*
X142886519Y-98011073D01*
X142876798Y-98021798D01*
X142866073Y-98031519D01*
X142854447Y-98040142D01*
X142842031Y-98047583D01*
X142828946Y-98053772D01*
X142815317Y-98058649D01*
X142801276Y-98062166D01*
X142786958Y-98064290D01*
X142772500Y-98065000D01*
X142427500Y-98065000D01*
X142413042Y-98064290D01*
X142398724Y-98062166D01*
X142384683Y-98058649D01*
X142371054Y-98053772D01*
X142357969Y-98047583D01*
X142345553Y-98040142D01*
X142333927Y-98031519D01*
X142323202Y-98021798D01*
X142313481Y-98011073D01*
X142304858Y-97999447D01*
X142297417Y-97987031D01*
X142291228Y-97973946D01*
X142286351Y-97960317D01*
X142282834Y-97946276D01*
X142280710Y-97931958D01*
X142280000Y-97917500D01*
X142280000Y-97622500D01*
X142280710Y-97608042D01*
X142282834Y-97593724D01*
X142286351Y-97579683D01*
X142291228Y-97566054D01*
X142297417Y-97552969D01*
X142304858Y-97540553D01*
X142313481Y-97528927D01*
X142323202Y-97518202D01*
X142333927Y-97508481D01*
X142345553Y-97499858D01*
X142357969Y-97492417D01*
X142371054Y-97486228D01*
X142384683Y-97481351D01*
X142398724Y-97477834D01*
X142413042Y-97475710D01*
X142427500Y-97475000D01*
X142772500Y-97475000D01*
X142786958Y-97475710D01*
X142786958Y-97475710D01*
G37*
D13*
X142600000Y-97770000D03*
D11*
G36*
X142786958Y-96505710D02*
X142801276Y-96507834D01*
X142815317Y-96511351D01*
X142828946Y-96516228D01*
X142842031Y-96522417D01*
X142854447Y-96529858D01*
X142866073Y-96538481D01*
X142876798Y-96548202D01*
X142886519Y-96558927D01*
X142895142Y-96570553D01*
X142902583Y-96582969D01*
X142908772Y-96596054D01*
X142913649Y-96609683D01*
X142917166Y-96623724D01*
X142919290Y-96638042D01*
X142920000Y-96652500D01*
X142920000Y-96947500D01*
X142919290Y-96961958D01*
X142917166Y-96976276D01*
X142913649Y-96990317D01*
X142908772Y-97003946D01*
X142902583Y-97017031D01*
X142895142Y-97029447D01*
X142886519Y-97041073D01*
X142876798Y-97051798D01*
X142866073Y-97061519D01*
X142854447Y-97070142D01*
X142842031Y-97077583D01*
X142828946Y-97083772D01*
X142815317Y-97088649D01*
X142801276Y-97092166D01*
X142786958Y-97094290D01*
X142772500Y-97095000D01*
X142427500Y-97095000D01*
X142413042Y-97094290D01*
X142398724Y-97092166D01*
X142384683Y-97088649D01*
X142371054Y-97083772D01*
X142357969Y-97077583D01*
X142345553Y-97070142D01*
X142333927Y-97061519D01*
X142323202Y-97051798D01*
X142313481Y-97041073D01*
X142304858Y-97029447D01*
X142297417Y-97017031D01*
X142291228Y-97003946D01*
X142286351Y-96990317D01*
X142282834Y-96976276D01*
X142280710Y-96961958D01*
X142280000Y-96947500D01*
X142280000Y-96652500D01*
X142280710Y-96638042D01*
X142282834Y-96623724D01*
X142286351Y-96609683D01*
X142291228Y-96596054D01*
X142297417Y-96582969D01*
X142304858Y-96570553D01*
X142313481Y-96558927D01*
X142323202Y-96548202D01*
X142333927Y-96538481D01*
X142345553Y-96529858D01*
X142357969Y-96522417D01*
X142371054Y-96516228D01*
X142384683Y-96511351D01*
X142398724Y-96507834D01*
X142413042Y-96505710D01*
X142427500Y-96505000D01*
X142772500Y-96505000D01*
X142786958Y-96505710D01*
X142786958Y-96505710D01*
G37*
D13*
X142600000Y-96800000D03*
G04 #@! TD*
D11*
G04 #@! TO.C,R22*
G36*
X121986958Y-114740710D02*
X122001276Y-114742834D01*
X122015317Y-114746351D01*
X122028946Y-114751228D01*
X122042031Y-114757417D01*
X122054447Y-114764858D01*
X122066073Y-114773481D01*
X122076798Y-114783202D01*
X122086519Y-114793927D01*
X122095142Y-114805553D01*
X122102583Y-114817969D01*
X122108772Y-114831054D01*
X122113649Y-114844683D01*
X122117166Y-114858724D01*
X122119290Y-114873042D01*
X122120000Y-114887500D01*
X122120000Y-115182500D01*
X122119290Y-115196958D01*
X122117166Y-115211276D01*
X122113649Y-115225317D01*
X122108772Y-115238946D01*
X122102583Y-115252031D01*
X122095142Y-115264447D01*
X122086519Y-115276073D01*
X122076798Y-115286798D01*
X122066073Y-115296519D01*
X122054447Y-115305142D01*
X122042031Y-115312583D01*
X122028946Y-115318772D01*
X122015317Y-115323649D01*
X122001276Y-115327166D01*
X121986958Y-115329290D01*
X121972500Y-115330000D01*
X121627500Y-115330000D01*
X121613042Y-115329290D01*
X121598724Y-115327166D01*
X121584683Y-115323649D01*
X121571054Y-115318772D01*
X121557969Y-115312583D01*
X121545553Y-115305142D01*
X121533927Y-115296519D01*
X121523202Y-115286798D01*
X121513481Y-115276073D01*
X121504858Y-115264447D01*
X121497417Y-115252031D01*
X121491228Y-115238946D01*
X121486351Y-115225317D01*
X121482834Y-115211276D01*
X121480710Y-115196958D01*
X121480000Y-115182500D01*
X121480000Y-114887500D01*
X121480710Y-114873042D01*
X121482834Y-114858724D01*
X121486351Y-114844683D01*
X121491228Y-114831054D01*
X121497417Y-114817969D01*
X121504858Y-114805553D01*
X121513481Y-114793927D01*
X121523202Y-114783202D01*
X121533927Y-114773481D01*
X121545553Y-114764858D01*
X121557969Y-114757417D01*
X121571054Y-114751228D01*
X121584683Y-114746351D01*
X121598724Y-114742834D01*
X121613042Y-114740710D01*
X121627500Y-114740000D01*
X121972500Y-114740000D01*
X121986958Y-114740710D01*
X121986958Y-114740710D01*
G37*
D13*
X121800000Y-115035000D03*
D11*
G36*
X121986958Y-113770710D02*
X122001276Y-113772834D01*
X122015317Y-113776351D01*
X122028946Y-113781228D01*
X122042031Y-113787417D01*
X122054447Y-113794858D01*
X122066073Y-113803481D01*
X122076798Y-113813202D01*
X122086519Y-113823927D01*
X122095142Y-113835553D01*
X122102583Y-113847969D01*
X122108772Y-113861054D01*
X122113649Y-113874683D01*
X122117166Y-113888724D01*
X122119290Y-113903042D01*
X122120000Y-113917500D01*
X122120000Y-114212500D01*
X122119290Y-114226958D01*
X122117166Y-114241276D01*
X122113649Y-114255317D01*
X122108772Y-114268946D01*
X122102583Y-114282031D01*
X122095142Y-114294447D01*
X122086519Y-114306073D01*
X122076798Y-114316798D01*
X122066073Y-114326519D01*
X122054447Y-114335142D01*
X122042031Y-114342583D01*
X122028946Y-114348772D01*
X122015317Y-114353649D01*
X122001276Y-114357166D01*
X121986958Y-114359290D01*
X121972500Y-114360000D01*
X121627500Y-114360000D01*
X121613042Y-114359290D01*
X121598724Y-114357166D01*
X121584683Y-114353649D01*
X121571054Y-114348772D01*
X121557969Y-114342583D01*
X121545553Y-114335142D01*
X121533927Y-114326519D01*
X121523202Y-114316798D01*
X121513481Y-114306073D01*
X121504858Y-114294447D01*
X121497417Y-114282031D01*
X121491228Y-114268946D01*
X121486351Y-114255317D01*
X121482834Y-114241276D01*
X121480710Y-114226958D01*
X121480000Y-114212500D01*
X121480000Y-113917500D01*
X121480710Y-113903042D01*
X121482834Y-113888724D01*
X121486351Y-113874683D01*
X121491228Y-113861054D01*
X121497417Y-113847969D01*
X121504858Y-113835553D01*
X121513481Y-113823927D01*
X121523202Y-113813202D01*
X121533927Y-113803481D01*
X121545553Y-113794858D01*
X121557969Y-113787417D01*
X121571054Y-113781228D01*
X121584683Y-113776351D01*
X121598724Y-113772834D01*
X121613042Y-113770710D01*
X121627500Y-113770000D01*
X121972500Y-113770000D01*
X121986958Y-113770710D01*
X121986958Y-113770710D01*
G37*
D13*
X121800000Y-114065000D03*
G04 #@! TD*
D11*
G04 #@! TO.C,R23*
G36*
X138691958Y-60680710D02*
X138706276Y-60682834D01*
X138720317Y-60686351D01*
X138733946Y-60691228D01*
X138747031Y-60697417D01*
X138759447Y-60704858D01*
X138771073Y-60713481D01*
X138781798Y-60723202D01*
X138791519Y-60733927D01*
X138800142Y-60745553D01*
X138807583Y-60757969D01*
X138813772Y-60771054D01*
X138818649Y-60784683D01*
X138822166Y-60798724D01*
X138824290Y-60813042D01*
X138825000Y-60827500D01*
X138825000Y-61172500D01*
X138824290Y-61186958D01*
X138822166Y-61201276D01*
X138818649Y-61215317D01*
X138813772Y-61228946D01*
X138807583Y-61242031D01*
X138800142Y-61254447D01*
X138791519Y-61266073D01*
X138781798Y-61276798D01*
X138771073Y-61286519D01*
X138759447Y-61295142D01*
X138747031Y-61302583D01*
X138733946Y-61308772D01*
X138720317Y-61313649D01*
X138706276Y-61317166D01*
X138691958Y-61319290D01*
X138677500Y-61320000D01*
X138382500Y-61320000D01*
X138368042Y-61319290D01*
X138353724Y-61317166D01*
X138339683Y-61313649D01*
X138326054Y-61308772D01*
X138312969Y-61302583D01*
X138300553Y-61295142D01*
X138288927Y-61286519D01*
X138278202Y-61276798D01*
X138268481Y-61266073D01*
X138259858Y-61254447D01*
X138252417Y-61242031D01*
X138246228Y-61228946D01*
X138241351Y-61215317D01*
X138237834Y-61201276D01*
X138235710Y-61186958D01*
X138235000Y-61172500D01*
X138235000Y-60827500D01*
X138235710Y-60813042D01*
X138237834Y-60798724D01*
X138241351Y-60784683D01*
X138246228Y-60771054D01*
X138252417Y-60757969D01*
X138259858Y-60745553D01*
X138268481Y-60733927D01*
X138278202Y-60723202D01*
X138288927Y-60713481D01*
X138300553Y-60704858D01*
X138312969Y-60697417D01*
X138326054Y-60691228D01*
X138339683Y-60686351D01*
X138353724Y-60682834D01*
X138368042Y-60680710D01*
X138382500Y-60680000D01*
X138677500Y-60680000D01*
X138691958Y-60680710D01*
X138691958Y-60680710D01*
G37*
D13*
X138530000Y-61000000D03*
D11*
G36*
X139661958Y-60680710D02*
X139676276Y-60682834D01*
X139690317Y-60686351D01*
X139703946Y-60691228D01*
X139717031Y-60697417D01*
X139729447Y-60704858D01*
X139741073Y-60713481D01*
X139751798Y-60723202D01*
X139761519Y-60733927D01*
X139770142Y-60745553D01*
X139777583Y-60757969D01*
X139783772Y-60771054D01*
X139788649Y-60784683D01*
X139792166Y-60798724D01*
X139794290Y-60813042D01*
X139795000Y-60827500D01*
X139795000Y-61172500D01*
X139794290Y-61186958D01*
X139792166Y-61201276D01*
X139788649Y-61215317D01*
X139783772Y-61228946D01*
X139777583Y-61242031D01*
X139770142Y-61254447D01*
X139761519Y-61266073D01*
X139751798Y-61276798D01*
X139741073Y-61286519D01*
X139729447Y-61295142D01*
X139717031Y-61302583D01*
X139703946Y-61308772D01*
X139690317Y-61313649D01*
X139676276Y-61317166D01*
X139661958Y-61319290D01*
X139647500Y-61320000D01*
X139352500Y-61320000D01*
X139338042Y-61319290D01*
X139323724Y-61317166D01*
X139309683Y-61313649D01*
X139296054Y-61308772D01*
X139282969Y-61302583D01*
X139270553Y-61295142D01*
X139258927Y-61286519D01*
X139248202Y-61276798D01*
X139238481Y-61266073D01*
X139229858Y-61254447D01*
X139222417Y-61242031D01*
X139216228Y-61228946D01*
X139211351Y-61215317D01*
X139207834Y-61201276D01*
X139205710Y-61186958D01*
X139205000Y-61172500D01*
X139205000Y-60827500D01*
X139205710Y-60813042D01*
X139207834Y-60798724D01*
X139211351Y-60784683D01*
X139216228Y-60771054D01*
X139222417Y-60757969D01*
X139229858Y-60745553D01*
X139238481Y-60733927D01*
X139248202Y-60723202D01*
X139258927Y-60713481D01*
X139270553Y-60704858D01*
X139282969Y-60697417D01*
X139296054Y-60691228D01*
X139309683Y-60686351D01*
X139323724Y-60682834D01*
X139338042Y-60680710D01*
X139352500Y-60680000D01*
X139647500Y-60680000D01*
X139661958Y-60680710D01*
X139661958Y-60680710D01*
G37*
D13*
X139500000Y-61000000D03*
G04 #@! TD*
D11*
G04 #@! TO.C,R24*
G36*
X138676958Y-62980710D02*
X138691276Y-62982834D01*
X138705317Y-62986351D01*
X138718946Y-62991228D01*
X138732031Y-62997417D01*
X138744447Y-63004858D01*
X138756073Y-63013481D01*
X138766798Y-63023202D01*
X138776519Y-63033927D01*
X138785142Y-63045553D01*
X138792583Y-63057969D01*
X138798772Y-63071054D01*
X138803649Y-63084683D01*
X138807166Y-63098724D01*
X138809290Y-63113042D01*
X138810000Y-63127500D01*
X138810000Y-63472500D01*
X138809290Y-63486958D01*
X138807166Y-63501276D01*
X138803649Y-63515317D01*
X138798772Y-63528946D01*
X138792583Y-63542031D01*
X138785142Y-63554447D01*
X138776519Y-63566073D01*
X138766798Y-63576798D01*
X138756073Y-63586519D01*
X138744447Y-63595142D01*
X138732031Y-63602583D01*
X138718946Y-63608772D01*
X138705317Y-63613649D01*
X138691276Y-63617166D01*
X138676958Y-63619290D01*
X138662500Y-63620000D01*
X138367500Y-63620000D01*
X138353042Y-63619290D01*
X138338724Y-63617166D01*
X138324683Y-63613649D01*
X138311054Y-63608772D01*
X138297969Y-63602583D01*
X138285553Y-63595142D01*
X138273927Y-63586519D01*
X138263202Y-63576798D01*
X138253481Y-63566073D01*
X138244858Y-63554447D01*
X138237417Y-63542031D01*
X138231228Y-63528946D01*
X138226351Y-63515317D01*
X138222834Y-63501276D01*
X138220710Y-63486958D01*
X138220000Y-63472500D01*
X138220000Y-63127500D01*
X138220710Y-63113042D01*
X138222834Y-63098724D01*
X138226351Y-63084683D01*
X138231228Y-63071054D01*
X138237417Y-63057969D01*
X138244858Y-63045553D01*
X138253481Y-63033927D01*
X138263202Y-63023202D01*
X138273927Y-63013481D01*
X138285553Y-63004858D01*
X138297969Y-62997417D01*
X138311054Y-62991228D01*
X138324683Y-62986351D01*
X138338724Y-62982834D01*
X138353042Y-62980710D01*
X138367500Y-62980000D01*
X138662500Y-62980000D01*
X138676958Y-62980710D01*
X138676958Y-62980710D01*
G37*
D13*
X138515000Y-63300000D03*
D11*
G36*
X139646958Y-62980710D02*
X139661276Y-62982834D01*
X139675317Y-62986351D01*
X139688946Y-62991228D01*
X139702031Y-62997417D01*
X139714447Y-63004858D01*
X139726073Y-63013481D01*
X139736798Y-63023202D01*
X139746519Y-63033927D01*
X139755142Y-63045553D01*
X139762583Y-63057969D01*
X139768772Y-63071054D01*
X139773649Y-63084683D01*
X139777166Y-63098724D01*
X139779290Y-63113042D01*
X139780000Y-63127500D01*
X139780000Y-63472500D01*
X139779290Y-63486958D01*
X139777166Y-63501276D01*
X139773649Y-63515317D01*
X139768772Y-63528946D01*
X139762583Y-63542031D01*
X139755142Y-63554447D01*
X139746519Y-63566073D01*
X139736798Y-63576798D01*
X139726073Y-63586519D01*
X139714447Y-63595142D01*
X139702031Y-63602583D01*
X139688946Y-63608772D01*
X139675317Y-63613649D01*
X139661276Y-63617166D01*
X139646958Y-63619290D01*
X139632500Y-63620000D01*
X139337500Y-63620000D01*
X139323042Y-63619290D01*
X139308724Y-63617166D01*
X139294683Y-63613649D01*
X139281054Y-63608772D01*
X139267969Y-63602583D01*
X139255553Y-63595142D01*
X139243927Y-63586519D01*
X139233202Y-63576798D01*
X139223481Y-63566073D01*
X139214858Y-63554447D01*
X139207417Y-63542031D01*
X139201228Y-63528946D01*
X139196351Y-63515317D01*
X139192834Y-63501276D01*
X139190710Y-63486958D01*
X139190000Y-63472500D01*
X139190000Y-63127500D01*
X139190710Y-63113042D01*
X139192834Y-63098724D01*
X139196351Y-63084683D01*
X139201228Y-63071054D01*
X139207417Y-63057969D01*
X139214858Y-63045553D01*
X139223481Y-63033927D01*
X139233202Y-63023202D01*
X139243927Y-63013481D01*
X139255553Y-63004858D01*
X139267969Y-62997417D01*
X139281054Y-62991228D01*
X139294683Y-62986351D01*
X139308724Y-62982834D01*
X139323042Y-62980710D01*
X139337500Y-62980000D01*
X139632500Y-62980000D01*
X139646958Y-62980710D01*
X139646958Y-62980710D01*
G37*
D13*
X139485000Y-63300000D03*
G04 #@! TD*
D11*
G04 #@! TO.C,R25*
G36*
X142986958Y-88005710D02*
X143001276Y-88007834D01*
X143015317Y-88011351D01*
X143028946Y-88016228D01*
X143042031Y-88022417D01*
X143054447Y-88029858D01*
X143066073Y-88038481D01*
X143076798Y-88048202D01*
X143086519Y-88058927D01*
X143095142Y-88070553D01*
X143102583Y-88082969D01*
X143108772Y-88096054D01*
X143113649Y-88109683D01*
X143117166Y-88123724D01*
X143119290Y-88138042D01*
X143120000Y-88152500D01*
X143120000Y-88447500D01*
X143119290Y-88461958D01*
X143117166Y-88476276D01*
X143113649Y-88490317D01*
X143108772Y-88503946D01*
X143102583Y-88517031D01*
X143095142Y-88529447D01*
X143086519Y-88541073D01*
X143076798Y-88551798D01*
X143066073Y-88561519D01*
X143054447Y-88570142D01*
X143042031Y-88577583D01*
X143028946Y-88583772D01*
X143015317Y-88588649D01*
X143001276Y-88592166D01*
X142986958Y-88594290D01*
X142972500Y-88595000D01*
X142627500Y-88595000D01*
X142613042Y-88594290D01*
X142598724Y-88592166D01*
X142584683Y-88588649D01*
X142571054Y-88583772D01*
X142557969Y-88577583D01*
X142545553Y-88570142D01*
X142533927Y-88561519D01*
X142523202Y-88551798D01*
X142513481Y-88541073D01*
X142504858Y-88529447D01*
X142497417Y-88517031D01*
X142491228Y-88503946D01*
X142486351Y-88490317D01*
X142482834Y-88476276D01*
X142480710Y-88461958D01*
X142480000Y-88447500D01*
X142480000Y-88152500D01*
X142480710Y-88138042D01*
X142482834Y-88123724D01*
X142486351Y-88109683D01*
X142491228Y-88096054D01*
X142497417Y-88082969D01*
X142504858Y-88070553D01*
X142513481Y-88058927D01*
X142523202Y-88048202D01*
X142533927Y-88038481D01*
X142545553Y-88029858D01*
X142557969Y-88022417D01*
X142571054Y-88016228D01*
X142584683Y-88011351D01*
X142598724Y-88007834D01*
X142613042Y-88005710D01*
X142627500Y-88005000D01*
X142972500Y-88005000D01*
X142986958Y-88005710D01*
X142986958Y-88005710D01*
G37*
D13*
X142800000Y-88300000D03*
D11*
G36*
X142986958Y-88975710D02*
X143001276Y-88977834D01*
X143015317Y-88981351D01*
X143028946Y-88986228D01*
X143042031Y-88992417D01*
X143054447Y-88999858D01*
X143066073Y-89008481D01*
X143076798Y-89018202D01*
X143086519Y-89028927D01*
X143095142Y-89040553D01*
X143102583Y-89052969D01*
X143108772Y-89066054D01*
X143113649Y-89079683D01*
X143117166Y-89093724D01*
X143119290Y-89108042D01*
X143120000Y-89122500D01*
X143120000Y-89417500D01*
X143119290Y-89431958D01*
X143117166Y-89446276D01*
X143113649Y-89460317D01*
X143108772Y-89473946D01*
X143102583Y-89487031D01*
X143095142Y-89499447D01*
X143086519Y-89511073D01*
X143076798Y-89521798D01*
X143066073Y-89531519D01*
X143054447Y-89540142D01*
X143042031Y-89547583D01*
X143028946Y-89553772D01*
X143015317Y-89558649D01*
X143001276Y-89562166D01*
X142986958Y-89564290D01*
X142972500Y-89565000D01*
X142627500Y-89565000D01*
X142613042Y-89564290D01*
X142598724Y-89562166D01*
X142584683Y-89558649D01*
X142571054Y-89553772D01*
X142557969Y-89547583D01*
X142545553Y-89540142D01*
X142533927Y-89531519D01*
X142523202Y-89521798D01*
X142513481Y-89511073D01*
X142504858Y-89499447D01*
X142497417Y-89487031D01*
X142491228Y-89473946D01*
X142486351Y-89460317D01*
X142482834Y-89446276D01*
X142480710Y-89431958D01*
X142480000Y-89417500D01*
X142480000Y-89122500D01*
X142480710Y-89108042D01*
X142482834Y-89093724D01*
X142486351Y-89079683D01*
X142491228Y-89066054D01*
X142497417Y-89052969D01*
X142504858Y-89040553D01*
X142513481Y-89028927D01*
X142523202Y-89018202D01*
X142533927Y-89008481D01*
X142545553Y-88999858D01*
X142557969Y-88992417D01*
X142571054Y-88986228D01*
X142584683Y-88981351D01*
X142598724Y-88977834D01*
X142613042Y-88975710D01*
X142627500Y-88975000D01*
X142972500Y-88975000D01*
X142986958Y-88975710D01*
X142986958Y-88975710D01*
G37*
D13*
X142800000Y-89270000D03*
G04 #@! TD*
D20*
G04 #@! TO.C,U1*
X135400000Y-103550000D03*
X135400000Y-104200000D03*
X135400000Y-104850000D03*
X135400000Y-105500000D03*
D21*
X136425000Y-106525000D03*
X137075000Y-106525000D03*
X137725000Y-106525000D03*
X138375000Y-106525000D03*
D20*
X139400000Y-105500000D03*
X139400000Y-104850000D03*
X139400000Y-104200000D03*
X139400000Y-103550000D03*
D21*
X138375000Y-102525000D03*
X137725000Y-102525000D03*
X137075000Y-102525000D03*
X136425000Y-102525000D03*
D22*
X136775000Y-105150000D03*
X138025000Y-105150000D03*
X136775000Y-103900000D03*
X138025000Y-103900000D03*
G04 #@! TD*
D11*
G04 #@! TO.C,U2*
G36*
X127442004Y-105071204D02*
X127466273Y-105074804D01*
X127490071Y-105080765D01*
X127513171Y-105089030D01*
X127535349Y-105099520D01*
X127556393Y-105112133D01*
X127576098Y-105126747D01*
X127594277Y-105143223D01*
X127610753Y-105161402D01*
X127625367Y-105181107D01*
X127637980Y-105202151D01*
X127648470Y-105224329D01*
X127656735Y-105247429D01*
X127662696Y-105271227D01*
X127666296Y-105295496D01*
X127667500Y-105320000D01*
X127667500Y-105830000D01*
X127666296Y-105854504D01*
X127662696Y-105878773D01*
X127656735Y-105902571D01*
X127648470Y-105925671D01*
X127637980Y-105947849D01*
X127625367Y-105968893D01*
X127610753Y-105988598D01*
X127594277Y-106006777D01*
X127576098Y-106023253D01*
X127556393Y-106037867D01*
X127535349Y-106050480D01*
X127513171Y-106060970D01*
X127490071Y-106069235D01*
X127466273Y-106075196D01*
X127442004Y-106078796D01*
X127417500Y-106080000D01*
X126907500Y-106080000D01*
X126882996Y-106078796D01*
X126858727Y-106075196D01*
X126834929Y-106069235D01*
X126811829Y-106060970D01*
X126789651Y-106050480D01*
X126768607Y-106037867D01*
X126748902Y-106023253D01*
X126730723Y-106006777D01*
X126714247Y-105988598D01*
X126699633Y-105968893D01*
X126687020Y-105947849D01*
X126676530Y-105925671D01*
X126668265Y-105902571D01*
X126662304Y-105878773D01*
X126658704Y-105854504D01*
X126657500Y-105830000D01*
X126657500Y-105320000D01*
X126658704Y-105295496D01*
X126662304Y-105271227D01*
X126668265Y-105247429D01*
X126676530Y-105224329D01*
X126687020Y-105202151D01*
X126699633Y-105181107D01*
X126714247Y-105161402D01*
X126730723Y-105143223D01*
X126748902Y-105126747D01*
X126768607Y-105112133D01*
X126789651Y-105099520D01*
X126811829Y-105089030D01*
X126834929Y-105080765D01*
X126858727Y-105074804D01*
X126882996Y-105071204D01*
X126907500Y-105070000D01*
X127417500Y-105070000D01*
X127442004Y-105071204D01*
X127442004Y-105071204D01*
G37*
D23*
X127162500Y-105575000D03*
D11*
G36*
X126192004Y-105071204D02*
X126216273Y-105074804D01*
X126240071Y-105080765D01*
X126263171Y-105089030D01*
X126285349Y-105099520D01*
X126306393Y-105112133D01*
X126326098Y-105126747D01*
X126344277Y-105143223D01*
X126360753Y-105161402D01*
X126375367Y-105181107D01*
X126387980Y-105202151D01*
X126398470Y-105224329D01*
X126406735Y-105247429D01*
X126412696Y-105271227D01*
X126416296Y-105295496D01*
X126417500Y-105320000D01*
X126417500Y-105830000D01*
X126416296Y-105854504D01*
X126412696Y-105878773D01*
X126406735Y-105902571D01*
X126398470Y-105925671D01*
X126387980Y-105947849D01*
X126375367Y-105968893D01*
X126360753Y-105988598D01*
X126344277Y-106006777D01*
X126326098Y-106023253D01*
X126306393Y-106037867D01*
X126285349Y-106050480D01*
X126263171Y-106060970D01*
X126240071Y-106069235D01*
X126216273Y-106075196D01*
X126192004Y-106078796D01*
X126167500Y-106080000D01*
X125657500Y-106080000D01*
X125632996Y-106078796D01*
X125608727Y-106075196D01*
X125584929Y-106069235D01*
X125561829Y-106060970D01*
X125539651Y-106050480D01*
X125518607Y-106037867D01*
X125498902Y-106023253D01*
X125480723Y-106006777D01*
X125464247Y-105988598D01*
X125449633Y-105968893D01*
X125437020Y-105947849D01*
X125426530Y-105925671D01*
X125418265Y-105902571D01*
X125412304Y-105878773D01*
X125408704Y-105854504D01*
X125407500Y-105830000D01*
X125407500Y-105320000D01*
X125408704Y-105295496D01*
X125412304Y-105271227D01*
X125418265Y-105247429D01*
X125426530Y-105224329D01*
X125437020Y-105202151D01*
X125449633Y-105181107D01*
X125464247Y-105161402D01*
X125480723Y-105143223D01*
X125498902Y-105126747D01*
X125518607Y-105112133D01*
X125539651Y-105099520D01*
X125561829Y-105089030D01*
X125584929Y-105080765D01*
X125608727Y-105074804D01*
X125632996Y-105071204D01*
X125657500Y-105070000D01*
X126167500Y-105070000D01*
X126192004Y-105071204D01*
X126192004Y-105071204D01*
G37*
D23*
X125912500Y-105575000D03*
D11*
G36*
X127442004Y-106321204D02*
X127466273Y-106324804D01*
X127490071Y-106330765D01*
X127513171Y-106339030D01*
X127535349Y-106349520D01*
X127556393Y-106362133D01*
X127576098Y-106376747D01*
X127594277Y-106393223D01*
X127610753Y-106411402D01*
X127625367Y-106431107D01*
X127637980Y-106452151D01*
X127648470Y-106474329D01*
X127656735Y-106497429D01*
X127662696Y-106521227D01*
X127666296Y-106545496D01*
X127667500Y-106570000D01*
X127667500Y-107080000D01*
X127666296Y-107104504D01*
X127662696Y-107128773D01*
X127656735Y-107152571D01*
X127648470Y-107175671D01*
X127637980Y-107197849D01*
X127625367Y-107218893D01*
X127610753Y-107238598D01*
X127594277Y-107256777D01*
X127576098Y-107273253D01*
X127556393Y-107287867D01*
X127535349Y-107300480D01*
X127513171Y-107310970D01*
X127490071Y-107319235D01*
X127466273Y-107325196D01*
X127442004Y-107328796D01*
X127417500Y-107330000D01*
X126907500Y-107330000D01*
X126882996Y-107328796D01*
X126858727Y-107325196D01*
X126834929Y-107319235D01*
X126811829Y-107310970D01*
X126789651Y-107300480D01*
X126768607Y-107287867D01*
X126748902Y-107273253D01*
X126730723Y-107256777D01*
X126714247Y-107238598D01*
X126699633Y-107218893D01*
X126687020Y-107197849D01*
X126676530Y-107175671D01*
X126668265Y-107152571D01*
X126662304Y-107128773D01*
X126658704Y-107104504D01*
X126657500Y-107080000D01*
X126657500Y-106570000D01*
X126658704Y-106545496D01*
X126662304Y-106521227D01*
X126668265Y-106497429D01*
X126676530Y-106474329D01*
X126687020Y-106452151D01*
X126699633Y-106431107D01*
X126714247Y-106411402D01*
X126730723Y-106393223D01*
X126748902Y-106376747D01*
X126768607Y-106362133D01*
X126789651Y-106349520D01*
X126811829Y-106339030D01*
X126834929Y-106330765D01*
X126858727Y-106324804D01*
X126882996Y-106321204D01*
X126907500Y-106320000D01*
X127417500Y-106320000D01*
X127442004Y-106321204D01*
X127442004Y-106321204D01*
G37*
D23*
X127162500Y-106825000D03*
D11*
G36*
X126192004Y-106321204D02*
X126216273Y-106324804D01*
X126240071Y-106330765D01*
X126263171Y-106339030D01*
X126285349Y-106349520D01*
X126306393Y-106362133D01*
X126326098Y-106376747D01*
X126344277Y-106393223D01*
X126360753Y-106411402D01*
X126375367Y-106431107D01*
X126387980Y-106452151D01*
X126398470Y-106474329D01*
X126406735Y-106497429D01*
X126412696Y-106521227D01*
X126416296Y-106545496D01*
X126417500Y-106570000D01*
X126417500Y-107080000D01*
X126416296Y-107104504D01*
X126412696Y-107128773D01*
X126406735Y-107152571D01*
X126398470Y-107175671D01*
X126387980Y-107197849D01*
X126375367Y-107218893D01*
X126360753Y-107238598D01*
X126344277Y-107256777D01*
X126326098Y-107273253D01*
X126306393Y-107287867D01*
X126285349Y-107300480D01*
X126263171Y-107310970D01*
X126240071Y-107319235D01*
X126216273Y-107325196D01*
X126192004Y-107328796D01*
X126167500Y-107330000D01*
X125657500Y-107330000D01*
X125632996Y-107328796D01*
X125608727Y-107325196D01*
X125584929Y-107319235D01*
X125561829Y-107310970D01*
X125539651Y-107300480D01*
X125518607Y-107287867D01*
X125498902Y-107273253D01*
X125480723Y-107256777D01*
X125464247Y-107238598D01*
X125449633Y-107218893D01*
X125437020Y-107197849D01*
X125426530Y-107175671D01*
X125418265Y-107152571D01*
X125412304Y-107128773D01*
X125408704Y-107104504D01*
X125407500Y-107080000D01*
X125407500Y-106570000D01*
X125408704Y-106545496D01*
X125412304Y-106521227D01*
X125418265Y-106497429D01*
X125426530Y-106474329D01*
X125437020Y-106452151D01*
X125449633Y-106431107D01*
X125464247Y-106411402D01*
X125480723Y-106393223D01*
X125498902Y-106376747D01*
X125518607Y-106362133D01*
X125539651Y-106349520D01*
X125561829Y-106339030D01*
X125584929Y-106330765D01*
X125608727Y-106324804D01*
X125632996Y-106321204D01*
X125657500Y-106320000D01*
X126167500Y-106320000D01*
X126192004Y-106321204D01*
X126192004Y-106321204D01*
G37*
D23*
X125912500Y-106825000D03*
D11*
G36*
X127606126Y-103850301D02*
X127612193Y-103851201D01*
X127618143Y-103852691D01*
X127623918Y-103854758D01*
X127629462Y-103857380D01*
X127634723Y-103860533D01*
X127639650Y-103864187D01*
X127644194Y-103868306D01*
X127648313Y-103872850D01*
X127651967Y-103877777D01*
X127655120Y-103883038D01*
X127657742Y-103888582D01*
X127659809Y-103894357D01*
X127661299Y-103900307D01*
X127662199Y-103906374D01*
X127662500Y-103912500D01*
X127662500Y-104612500D01*
X127662199Y-104618626D01*
X127661299Y-104624693D01*
X127659809Y-104630643D01*
X127657742Y-104636418D01*
X127655120Y-104641962D01*
X127651967Y-104647223D01*
X127648313Y-104652150D01*
X127644194Y-104656694D01*
X127639650Y-104660813D01*
X127634723Y-104664467D01*
X127629462Y-104667620D01*
X127623918Y-104670242D01*
X127618143Y-104672309D01*
X127612193Y-104673799D01*
X127606126Y-104674699D01*
X127600000Y-104675000D01*
X127475000Y-104675000D01*
X127468874Y-104674699D01*
X127462807Y-104673799D01*
X127456857Y-104672309D01*
X127451082Y-104670242D01*
X127445538Y-104667620D01*
X127440277Y-104664467D01*
X127435350Y-104660813D01*
X127430806Y-104656694D01*
X127426687Y-104652150D01*
X127423033Y-104647223D01*
X127419880Y-104641962D01*
X127417258Y-104636418D01*
X127415191Y-104630643D01*
X127413701Y-104624693D01*
X127412801Y-104618626D01*
X127412500Y-104612500D01*
X127412500Y-103912500D01*
X127412801Y-103906374D01*
X127413701Y-103900307D01*
X127415191Y-103894357D01*
X127417258Y-103888582D01*
X127419880Y-103883038D01*
X127423033Y-103877777D01*
X127426687Y-103872850D01*
X127430806Y-103868306D01*
X127435350Y-103864187D01*
X127440277Y-103860533D01*
X127445538Y-103857380D01*
X127451082Y-103854758D01*
X127456857Y-103852691D01*
X127462807Y-103851201D01*
X127468874Y-103850301D01*
X127475000Y-103850000D01*
X127600000Y-103850000D01*
X127606126Y-103850301D01*
X127606126Y-103850301D01*
G37*
D24*
X127537500Y-104262500D03*
D11*
G36*
X127106126Y-103850301D02*
X127112193Y-103851201D01*
X127118143Y-103852691D01*
X127123918Y-103854758D01*
X127129462Y-103857380D01*
X127134723Y-103860533D01*
X127139650Y-103864187D01*
X127144194Y-103868306D01*
X127148313Y-103872850D01*
X127151967Y-103877777D01*
X127155120Y-103883038D01*
X127157742Y-103888582D01*
X127159809Y-103894357D01*
X127161299Y-103900307D01*
X127162199Y-103906374D01*
X127162500Y-103912500D01*
X127162500Y-104612500D01*
X127162199Y-104618626D01*
X127161299Y-104624693D01*
X127159809Y-104630643D01*
X127157742Y-104636418D01*
X127155120Y-104641962D01*
X127151967Y-104647223D01*
X127148313Y-104652150D01*
X127144194Y-104656694D01*
X127139650Y-104660813D01*
X127134723Y-104664467D01*
X127129462Y-104667620D01*
X127123918Y-104670242D01*
X127118143Y-104672309D01*
X127112193Y-104673799D01*
X127106126Y-104674699D01*
X127100000Y-104675000D01*
X126975000Y-104675000D01*
X126968874Y-104674699D01*
X126962807Y-104673799D01*
X126956857Y-104672309D01*
X126951082Y-104670242D01*
X126945538Y-104667620D01*
X126940277Y-104664467D01*
X126935350Y-104660813D01*
X126930806Y-104656694D01*
X126926687Y-104652150D01*
X126923033Y-104647223D01*
X126919880Y-104641962D01*
X126917258Y-104636418D01*
X126915191Y-104630643D01*
X126913701Y-104624693D01*
X126912801Y-104618626D01*
X126912500Y-104612500D01*
X126912500Y-103912500D01*
X126912801Y-103906374D01*
X126913701Y-103900307D01*
X126915191Y-103894357D01*
X126917258Y-103888582D01*
X126919880Y-103883038D01*
X126923033Y-103877777D01*
X126926687Y-103872850D01*
X126930806Y-103868306D01*
X126935350Y-103864187D01*
X126940277Y-103860533D01*
X126945538Y-103857380D01*
X126951082Y-103854758D01*
X126956857Y-103852691D01*
X126962807Y-103851201D01*
X126968874Y-103850301D01*
X126975000Y-103850000D01*
X127100000Y-103850000D01*
X127106126Y-103850301D01*
X127106126Y-103850301D01*
G37*
D24*
X127037500Y-104262500D03*
D11*
G36*
X126606126Y-103850301D02*
X126612193Y-103851201D01*
X126618143Y-103852691D01*
X126623918Y-103854758D01*
X126629462Y-103857380D01*
X126634723Y-103860533D01*
X126639650Y-103864187D01*
X126644194Y-103868306D01*
X126648313Y-103872850D01*
X126651967Y-103877777D01*
X126655120Y-103883038D01*
X126657742Y-103888582D01*
X126659809Y-103894357D01*
X126661299Y-103900307D01*
X126662199Y-103906374D01*
X126662500Y-103912500D01*
X126662500Y-104612500D01*
X126662199Y-104618626D01*
X126661299Y-104624693D01*
X126659809Y-104630643D01*
X126657742Y-104636418D01*
X126655120Y-104641962D01*
X126651967Y-104647223D01*
X126648313Y-104652150D01*
X126644194Y-104656694D01*
X126639650Y-104660813D01*
X126634723Y-104664467D01*
X126629462Y-104667620D01*
X126623918Y-104670242D01*
X126618143Y-104672309D01*
X126612193Y-104673799D01*
X126606126Y-104674699D01*
X126600000Y-104675000D01*
X126475000Y-104675000D01*
X126468874Y-104674699D01*
X126462807Y-104673799D01*
X126456857Y-104672309D01*
X126451082Y-104670242D01*
X126445538Y-104667620D01*
X126440277Y-104664467D01*
X126435350Y-104660813D01*
X126430806Y-104656694D01*
X126426687Y-104652150D01*
X126423033Y-104647223D01*
X126419880Y-104641962D01*
X126417258Y-104636418D01*
X126415191Y-104630643D01*
X126413701Y-104624693D01*
X126412801Y-104618626D01*
X126412500Y-104612500D01*
X126412500Y-103912500D01*
X126412801Y-103906374D01*
X126413701Y-103900307D01*
X126415191Y-103894357D01*
X126417258Y-103888582D01*
X126419880Y-103883038D01*
X126423033Y-103877777D01*
X126426687Y-103872850D01*
X126430806Y-103868306D01*
X126435350Y-103864187D01*
X126440277Y-103860533D01*
X126445538Y-103857380D01*
X126451082Y-103854758D01*
X126456857Y-103852691D01*
X126462807Y-103851201D01*
X126468874Y-103850301D01*
X126475000Y-103850000D01*
X126600000Y-103850000D01*
X126606126Y-103850301D01*
X126606126Y-103850301D01*
G37*
D24*
X126537500Y-104262500D03*
D11*
G36*
X126106126Y-103850301D02*
X126112193Y-103851201D01*
X126118143Y-103852691D01*
X126123918Y-103854758D01*
X126129462Y-103857380D01*
X126134723Y-103860533D01*
X126139650Y-103864187D01*
X126144194Y-103868306D01*
X126148313Y-103872850D01*
X126151967Y-103877777D01*
X126155120Y-103883038D01*
X126157742Y-103888582D01*
X126159809Y-103894357D01*
X126161299Y-103900307D01*
X126162199Y-103906374D01*
X126162500Y-103912500D01*
X126162500Y-104612500D01*
X126162199Y-104618626D01*
X126161299Y-104624693D01*
X126159809Y-104630643D01*
X126157742Y-104636418D01*
X126155120Y-104641962D01*
X126151967Y-104647223D01*
X126148313Y-104652150D01*
X126144194Y-104656694D01*
X126139650Y-104660813D01*
X126134723Y-104664467D01*
X126129462Y-104667620D01*
X126123918Y-104670242D01*
X126118143Y-104672309D01*
X126112193Y-104673799D01*
X126106126Y-104674699D01*
X126100000Y-104675000D01*
X125975000Y-104675000D01*
X125968874Y-104674699D01*
X125962807Y-104673799D01*
X125956857Y-104672309D01*
X125951082Y-104670242D01*
X125945538Y-104667620D01*
X125940277Y-104664467D01*
X125935350Y-104660813D01*
X125930806Y-104656694D01*
X125926687Y-104652150D01*
X125923033Y-104647223D01*
X125919880Y-104641962D01*
X125917258Y-104636418D01*
X125915191Y-104630643D01*
X125913701Y-104624693D01*
X125912801Y-104618626D01*
X125912500Y-104612500D01*
X125912500Y-103912500D01*
X125912801Y-103906374D01*
X125913701Y-103900307D01*
X125915191Y-103894357D01*
X125917258Y-103888582D01*
X125919880Y-103883038D01*
X125923033Y-103877777D01*
X125926687Y-103872850D01*
X125930806Y-103868306D01*
X125935350Y-103864187D01*
X125940277Y-103860533D01*
X125945538Y-103857380D01*
X125951082Y-103854758D01*
X125956857Y-103852691D01*
X125962807Y-103851201D01*
X125968874Y-103850301D01*
X125975000Y-103850000D01*
X126100000Y-103850000D01*
X126106126Y-103850301D01*
X126106126Y-103850301D01*
G37*
D24*
X126037500Y-104262500D03*
D11*
G36*
X125606126Y-103850301D02*
X125612193Y-103851201D01*
X125618143Y-103852691D01*
X125623918Y-103854758D01*
X125629462Y-103857380D01*
X125634723Y-103860533D01*
X125639650Y-103864187D01*
X125644194Y-103868306D01*
X125648313Y-103872850D01*
X125651967Y-103877777D01*
X125655120Y-103883038D01*
X125657742Y-103888582D01*
X125659809Y-103894357D01*
X125661299Y-103900307D01*
X125662199Y-103906374D01*
X125662500Y-103912500D01*
X125662500Y-104612500D01*
X125662199Y-104618626D01*
X125661299Y-104624693D01*
X125659809Y-104630643D01*
X125657742Y-104636418D01*
X125655120Y-104641962D01*
X125651967Y-104647223D01*
X125648313Y-104652150D01*
X125644194Y-104656694D01*
X125639650Y-104660813D01*
X125634723Y-104664467D01*
X125629462Y-104667620D01*
X125623918Y-104670242D01*
X125618143Y-104672309D01*
X125612193Y-104673799D01*
X125606126Y-104674699D01*
X125600000Y-104675000D01*
X125475000Y-104675000D01*
X125468874Y-104674699D01*
X125462807Y-104673799D01*
X125456857Y-104672309D01*
X125451082Y-104670242D01*
X125445538Y-104667620D01*
X125440277Y-104664467D01*
X125435350Y-104660813D01*
X125430806Y-104656694D01*
X125426687Y-104652150D01*
X125423033Y-104647223D01*
X125419880Y-104641962D01*
X125417258Y-104636418D01*
X125415191Y-104630643D01*
X125413701Y-104624693D01*
X125412801Y-104618626D01*
X125412500Y-104612500D01*
X125412500Y-103912500D01*
X125412801Y-103906374D01*
X125413701Y-103900307D01*
X125415191Y-103894357D01*
X125417258Y-103888582D01*
X125419880Y-103883038D01*
X125423033Y-103877777D01*
X125426687Y-103872850D01*
X125430806Y-103868306D01*
X125435350Y-103864187D01*
X125440277Y-103860533D01*
X125445538Y-103857380D01*
X125451082Y-103854758D01*
X125456857Y-103852691D01*
X125462807Y-103851201D01*
X125468874Y-103850301D01*
X125475000Y-103850000D01*
X125600000Y-103850000D01*
X125606126Y-103850301D01*
X125606126Y-103850301D01*
G37*
D24*
X125537500Y-104262500D03*
D11*
G36*
X124956126Y-105075301D02*
X124962193Y-105076201D01*
X124968143Y-105077691D01*
X124973918Y-105079758D01*
X124979462Y-105082380D01*
X124984723Y-105085533D01*
X124989650Y-105089187D01*
X124994194Y-105093306D01*
X124998313Y-105097850D01*
X125001967Y-105102777D01*
X125005120Y-105108038D01*
X125007742Y-105113582D01*
X125009809Y-105119357D01*
X125011299Y-105125307D01*
X125012199Y-105131374D01*
X125012500Y-105137500D01*
X125012500Y-105262500D01*
X125012199Y-105268626D01*
X125011299Y-105274693D01*
X125009809Y-105280643D01*
X125007742Y-105286418D01*
X125005120Y-105291962D01*
X125001967Y-105297223D01*
X124998313Y-105302150D01*
X124994194Y-105306694D01*
X124989650Y-105310813D01*
X124984723Y-105314467D01*
X124979462Y-105317620D01*
X124973918Y-105320242D01*
X124968143Y-105322309D01*
X124962193Y-105323799D01*
X124956126Y-105324699D01*
X124950000Y-105325000D01*
X124250000Y-105325000D01*
X124243874Y-105324699D01*
X124237807Y-105323799D01*
X124231857Y-105322309D01*
X124226082Y-105320242D01*
X124220538Y-105317620D01*
X124215277Y-105314467D01*
X124210350Y-105310813D01*
X124205806Y-105306694D01*
X124201687Y-105302150D01*
X124198033Y-105297223D01*
X124194880Y-105291962D01*
X124192258Y-105286418D01*
X124190191Y-105280643D01*
X124188701Y-105274693D01*
X124187801Y-105268626D01*
X124187500Y-105262500D01*
X124187500Y-105137500D01*
X124187801Y-105131374D01*
X124188701Y-105125307D01*
X124190191Y-105119357D01*
X124192258Y-105113582D01*
X124194880Y-105108038D01*
X124198033Y-105102777D01*
X124201687Y-105097850D01*
X124205806Y-105093306D01*
X124210350Y-105089187D01*
X124215277Y-105085533D01*
X124220538Y-105082380D01*
X124226082Y-105079758D01*
X124231857Y-105077691D01*
X124237807Y-105076201D01*
X124243874Y-105075301D01*
X124250000Y-105075000D01*
X124950000Y-105075000D01*
X124956126Y-105075301D01*
X124956126Y-105075301D01*
G37*
D24*
X124600000Y-105200000D03*
D11*
G36*
X124956126Y-105575301D02*
X124962193Y-105576201D01*
X124968143Y-105577691D01*
X124973918Y-105579758D01*
X124979462Y-105582380D01*
X124984723Y-105585533D01*
X124989650Y-105589187D01*
X124994194Y-105593306D01*
X124998313Y-105597850D01*
X125001967Y-105602777D01*
X125005120Y-105608038D01*
X125007742Y-105613582D01*
X125009809Y-105619357D01*
X125011299Y-105625307D01*
X125012199Y-105631374D01*
X125012500Y-105637500D01*
X125012500Y-105762500D01*
X125012199Y-105768626D01*
X125011299Y-105774693D01*
X125009809Y-105780643D01*
X125007742Y-105786418D01*
X125005120Y-105791962D01*
X125001967Y-105797223D01*
X124998313Y-105802150D01*
X124994194Y-105806694D01*
X124989650Y-105810813D01*
X124984723Y-105814467D01*
X124979462Y-105817620D01*
X124973918Y-105820242D01*
X124968143Y-105822309D01*
X124962193Y-105823799D01*
X124956126Y-105824699D01*
X124950000Y-105825000D01*
X124250000Y-105825000D01*
X124243874Y-105824699D01*
X124237807Y-105823799D01*
X124231857Y-105822309D01*
X124226082Y-105820242D01*
X124220538Y-105817620D01*
X124215277Y-105814467D01*
X124210350Y-105810813D01*
X124205806Y-105806694D01*
X124201687Y-105802150D01*
X124198033Y-105797223D01*
X124194880Y-105791962D01*
X124192258Y-105786418D01*
X124190191Y-105780643D01*
X124188701Y-105774693D01*
X124187801Y-105768626D01*
X124187500Y-105762500D01*
X124187500Y-105637500D01*
X124187801Y-105631374D01*
X124188701Y-105625307D01*
X124190191Y-105619357D01*
X124192258Y-105613582D01*
X124194880Y-105608038D01*
X124198033Y-105602777D01*
X124201687Y-105597850D01*
X124205806Y-105593306D01*
X124210350Y-105589187D01*
X124215277Y-105585533D01*
X124220538Y-105582380D01*
X124226082Y-105579758D01*
X124231857Y-105577691D01*
X124237807Y-105576201D01*
X124243874Y-105575301D01*
X124250000Y-105575000D01*
X124950000Y-105575000D01*
X124956126Y-105575301D01*
X124956126Y-105575301D01*
G37*
D24*
X124600000Y-105700000D03*
D11*
G36*
X124956126Y-106075301D02*
X124962193Y-106076201D01*
X124968143Y-106077691D01*
X124973918Y-106079758D01*
X124979462Y-106082380D01*
X124984723Y-106085533D01*
X124989650Y-106089187D01*
X124994194Y-106093306D01*
X124998313Y-106097850D01*
X125001967Y-106102777D01*
X125005120Y-106108038D01*
X125007742Y-106113582D01*
X125009809Y-106119357D01*
X125011299Y-106125307D01*
X125012199Y-106131374D01*
X125012500Y-106137500D01*
X125012500Y-106262500D01*
X125012199Y-106268626D01*
X125011299Y-106274693D01*
X125009809Y-106280643D01*
X125007742Y-106286418D01*
X125005120Y-106291962D01*
X125001967Y-106297223D01*
X124998313Y-106302150D01*
X124994194Y-106306694D01*
X124989650Y-106310813D01*
X124984723Y-106314467D01*
X124979462Y-106317620D01*
X124973918Y-106320242D01*
X124968143Y-106322309D01*
X124962193Y-106323799D01*
X124956126Y-106324699D01*
X124950000Y-106325000D01*
X124250000Y-106325000D01*
X124243874Y-106324699D01*
X124237807Y-106323799D01*
X124231857Y-106322309D01*
X124226082Y-106320242D01*
X124220538Y-106317620D01*
X124215277Y-106314467D01*
X124210350Y-106310813D01*
X124205806Y-106306694D01*
X124201687Y-106302150D01*
X124198033Y-106297223D01*
X124194880Y-106291962D01*
X124192258Y-106286418D01*
X124190191Y-106280643D01*
X124188701Y-106274693D01*
X124187801Y-106268626D01*
X124187500Y-106262500D01*
X124187500Y-106137500D01*
X124187801Y-106131374D01*
X124188701Y-106125307D01*
X124190191Y-106119357D01*
X124192258Y-106113582D01*
X124194880Y-106108038D01*
X124198033Y-106102777D01*
X124201687Y-106097850D01*
X124205806Y-106093306D01*
X124210350Y-106089187D01*
X124215277Y-106085533D01*
X124220538Y-106082380D01*
X124226082Y-106079758D01*
X124231857Y-106077691D01*
X124237807Y-106076201D01*
X124243874Y-106075301D01*
X124250000Y-106075000D01*
X124950000Y-106075000D01*
X124956126Y-106075301D01*
X124956126Y-106075301D01*
G37*
D24*
X124600000Y-106200000D03*
D11*
G36*
X124956126Y-106575301D02*
X124962193Y-106576201D01*
X124968143Y-106577691D01*
X124973918Y-106579758D01*
X124979462Y-106582380D01*
X124984723Y-106585533D01*
X124989650Y-106589187D01*
X124994194Y-106593306D01*
X124998313Y-106597850D01*
X125001967Y-106602777D01*
X125005120Y-106608038D01*
X125007742Y-106613582D01*
X125009809Y-106619357D01*
X125011299Y-106625307D01*
X125012199Y-106631374D01*
X125012500Y-106637500D01*
X125012500Y-106762500D01*
X125012199Y-106768626D01*
X125011299Y-106774693D01*
X125009809Y-106780643D01*
X125007742Y-106786418D01*
X125005120Y-106791962D01*
X125001967Y-106797223D01*
X124998313Y-106802150D01*
X124994194Y-106806694D01*
X124989650Y-106810813D01*
X124984723Y-106814467D01*
X124979462Y-106817620D01*
X124973918Y-106820242D01*
X124968143Y-106822309D01*
X124962193Y-106823799D01*
X124956126Y-106824699D01*
X124950000Y-106825000D01*
X124250000Y-106825000D01*
X124243874Y-106824699D01*
X124237807Y-106823799D01*
X124231857Y-106822309D01*
X124226082Y-106820242D01*
X124220538Y-106817620D01*
X124215277Y-106814467D01*
X124210350Y-106810813D01*
X124205806Y-106806694D01*
X124201687Y-106802150D01*
X124198033Y-106797223D01*
X124194880Y-106791962D01*
X124192258Y-106786418D01*
X124190191Y-106780643D01*
X124188701Y-106774693D01*
X124187801Y-106768626D01*
X124187500Y-106762500D01*
X124187500Y-106637500D01*
X124187801Y-106631374D01*
X124188701Y-106625307D01*
X124190191Y-106619357D01*
X124192258Y-106613582D01*
X124194880Y-106608038D01*
X124198033Y-106602777D01*
X124201687Y-106597850D01*
X124205806Y-106593306D01*
X124210350Y-106589187D01*
X124215277Y-106585533D01*
X124220538Y-106582380D01*
X124226082Y-106579758D01*
X124231857Y-106577691D01*
X124237807Y-106576201D01*
X124243874Y-106575301D01*
X124250000Y-106575000D01*
X124950000Y-106575000D01*
X124956126Y-106575301D01*
X124956126Y-106575301D01*
G37*
D24*
X124600000Y-106700000D03*
D11*
G36*
X124956126Y-107075301D02*
X124962193Y-107076201D01*
X124968143Y-107077691D01*
X124973918Y-107079758D01*
X124979462Y-107082380D01*
X124984723Y-107085533D01*
X124989650Y-107089187D01*
X124994194Y-107093306D01*
X124998313Y-107097850D01*
X125001967Y-107102777D01*
X125005120Y-107108038D01*
X125007742Y-107113582D01*
X125009809Y-107119357D01*
X125011299Y-107125307D01*
X125012199Y-107131374D01*
X125012500Y-107137500D01*
X125012500Y-107262500D01*
X125012199Y-107268626D01*
X125011299Y-107274693D01*
X125009809Y-107280643D01*
X125007742Y-107286418D01*
X125005120Y-107291962D01*
X125001967Y-107297223D01*
X124998313Y-107302150D01*
X124994194Y-107306694D01*
X124989650Y-107310813D01*
X124984723Y-107314467D01*
X124979462Y-107317620D01*
X124973918Y-107320242D01*
X124968143Y-107322309D01*
X124962193Y-107323799D01*
X124956126Y-107324699D01*
X124950000Y-107325000D01*
X124250000Y-107325000D01*
X124243874Y-107324699D01*
X124237807Y-107323799D01*
X124231857Y-107322309D01*
X124226082Y-107320242D01*
X124220538Y-107317620D01*
X124215277Y-107314467D01*
X124210350Y-107310813D01*
X124205806Y-107306694D01*
X124201687Y-107302150D01*
X124198033Y-107297223D01*
X124194880Y-107291962D01*
X124192258Y-107286418D01*
X124190191Y-107280643D01*
X124188701Y-107274693D01*
X124187801Y-107268626D01*
X124187500Y-107262500D01*
X124187500Y-107137500D01*
X124187801Y-107131374D01*
X124188701Y-107125307D01*
X124190191Y-107119357D01*
X124192258Y-107113582D01*
X124194880Y-107108038D01*
X124198033Y-107102777D01*
X124201687Y-107097850D01*
X124205806Y-107093306D01*
X124210350Y-107089187D01*
X124215277Y-107085533D01*
X124220538Y-107082380D01*
X124226082Y-107079758D01*
X124231857Y-107077691D01*
X124237807Y-107076201D01*
X124243874Y-107075301D01*
X124250000Y-107075000D01*
X124950000Y-107075000D01*
X124956126Y-107075301D01*
X124956126Y-107075301D01*
G37*
D24*
X124600000Y-107200000D03*
D11*
G36*
X125606126Y-107725301D02*
X125612193Y-107726201D01*
X125618143Y-107727691D01*
X125623918Y-107729758D01*
X125629462Y-107732380D01*
X125634723Y-107735533D01*
X125639650Y-107739187D01*
X125644194Y-107743306D01*
X125648313Y-107747850D01*
X125651967Y-107752777D01*
X125655120Y-107758038D01*
X125657742Y-107763582D01*
X125659809Y-107769357D01*
X125661299Y-107775307D01*
X125662199Y-107781374D01*
X125662500Y-107787500D01*
X125662500Y-108487500D01*
X125662199Y-108493626D01*
X125661299Y-108499693D01*
X125659809Y-108505643D01*
X125657742Y-108511418D01*
X125655120Y-108516962D01*
X125651967Y-108522223D01*
X125648313Y-108527150D01*
X125644194Y-108531694D01*
X125639650Y-108535813D01*
X125634723Y-108539467D01*
X125629462Y-108542620D01*
X125623918Y-108545242D01*
X125618143Y-108547309D01*
X125612193Y-108548799D01*
X125606126Y-108549699D01*
X125600000Y-108550000D01*
X125475000Y-108550000D01*
X125468874Y-108549699D01*
X125462807Y-108548799D01*
X125456857Y-108547309D01*
X125451082Y-108545242D01*
X125445538Y-108542620D01*
X125440277Y-108539467D01*
X125435350Y-108535813D01*
X125430806Y-108531694D01*
X125426687Y-108527150D01*
X125423033Y-108522223D01*
X125419880Y-108516962D01*
X125417258Y-108511418D01*
X125415191Y-108505643D01*
X125413701Y-108499693D01*
X125412801Y-108493626D01*
X125412500Y-108487500D01*
X125412500Y-107787500D01*
X125412801Y-107781374D01*
X125413701Y-107775307D01*
X125415191Y-107769357D01*
X125417258Y-107763582D01*
X125419880Y-107758038D01*
X125423033Y-107752777D01*
X125426687Y-107747850D01*
X125430806Y-107743306D01*
X125435350Y-107739187D01*
X125440277Y-107735533D01*
X125445538Y-107732380D01*
X125451082Y-107729758D01*
X125456857Y-107727691D01*
X125462807Y-107726201D01*
X125468874Y-107725301D01*
X125475000Y-107725000D01*
X125600000Y-107725000D01*
X125606126Y-107725301D01*
X125606126Y-107725301D01*
G37*
D24*
X125537500Y-108137500D03*
D11*
G36*
X126106126Y-107725301D02*
X126112193Y-107726201D01*
X126118143Y-107727691D01*
X126123918Y-107729758D01*
X126129462Y-107732380D01*
X126134723Y-107735533D01*
X126139650Y-107739187D01*
X126144194Y-107743306D01*
X126148313Y-107747850D01*
X126151967Y-107752777D01*
X126155120Y-107758038D01*
X126157742Y-107763582D01*
X126159809Y-107769357D01*
X126161299Y-107775307D01*
X126162199Y-107781374D01*
X126162500Y-107787500D01*
X126162500Y-108487500D01*
X126162199Y-108493626D01*
X126161299Y-108499693D01*
X126159809Y-108505643D01*
X126157742Y-108511418D01*
X126155120Y-108516962D01*
X126151967Y-108522223D01*
X126148313Y-108527150D01*
X126144194Y-108531694D01*
X126139650Y-108535813D01*
X126134723Y-108539467D01*
X126129462Y-108542620D01*
X126123918Y-108545242D01*
X126118143Y-108547309D01*
X126112193Y-108548799D01*
X126106126Y-108549699D01*
X126100000Y-108550000D01*
X125975000Y-108550000D01*
X125968874Y-108549699D01*
X125962807Y-108548799D01*
X125956857Y-108547309D01*
X125951082Y-108545242D01*
X125945538Y-108542620D01*
X125940277Y-108539467D01*
X125935350Y-108535813D01*
X125930806Y-108531694D01*
X125926687Y-108527150D01*
X125923033Y-108522223D01*
X125919880Y-108516962D01*
X125917258Y-108511418D01*
X125915191Y-108505643D01*
X125913701Y-108499693D01*
X125912801Y-108493626D01*
X125912500Y-108487500D01*
X125912500Y-107787500D01*
X125912801Y-107781374D01*
X125913701Y-107775307D01*
X125915191Y-107769357D01*
X125917258Y-107763582D01*
X125919880Y-107758038D01*
X125923033Y-107752777D01*
X125926687Y-107747850D01*
X125930806Y-107743306D01*
X125935350Y-107739187D01*
X125940277Y-107735533D01*
X125945538Y-107732380D01*
X125951082Y-107729758D01*
X125956857Y-107727691D01*
X125962807Y-107726201D01*
X125968874Y-107725301D01*
X125975000Y-107725000D01*
X126100000Y-107725000D01*
X126106126Y-107725301D01*
X126106126Y-107725301D01*
G37*
D24*
X126037500Y-108137500D03*
D11*
G36*
X126606126Y-107725301D02*
X126612193Y-107726201D01*
X126618143Y-107727691D01*
X126623918Y-107729758D01*
X126629462Y-107732380D01*
X126634723Y-107735533D01*
X126639650Y-107739187D01*
X126644194Y-107743306D01*
X126648313Y-107747850D01*
X126651967Y-107752777D01*
X126655120Y-107758038D01*
X126657742Y-107763582D01*
X126659809Y-107769357D01*
X126661299Y-107775307D01*
X126662199Y-107781374D01*
X126662500Y-107787500D01*
X126662500Y-108487500D01*
X126662199Y-108493626D01*
X126661299Y-108499693D01*
X126659809Y-108505643D01*
X126657742Y-108511418D01*
X126655120Y-108516962D01*
X126651967Y-108522223D01*
X126648313Y-108527150D01*
X126644194Y-108531694D01*
X126639650Y-108535813D01*
X126634723Y-108539467D01*
X126629462Y-108542620D01*
X126623918Y-108545242D01*
X126618143Y-108547309D01*
X126612193Y-108548799D01*
X126606126Y-108549699D01*
X126600000Y-108550000D01*
X126475000Y-108550000D01*
X126468874Y-108549699D01*
X126462807Y-108548799D01*
X126456857Y-108547309D01*
X126451082Y-108545242D01*
X126445538Y-108542620D01*
X126440277Y-108539467D01*
X126435350Y-108535813D01*
X126430806Y-108531694D01*
X126426687Y-108527150D01*
X126423033Y-108522223D01*
X126419880Y-108516962D01*
X126417258Y-108511418D01*
X126415191Y-108505643D01*
X126413701Y-108499693D01*
X126412801Y-108493626D01*
X126412500Y-108487500D01*
X126412500Y-107787500D01*
X126412801Y-107781374D01*
X126413701Y-107775307D01*
X126415191Y-107769357D01*
X126417258Y-107763582D01*
X126419880Y-107758038D01*
X126423033Y-107752777D01*
X126426687Y-107747850D01*
X126430806Y-107743306D01*
X126435350Y-107739187D01*
X126440277Y-107735533D01*
X126445538Y-107732380D01*
X126451082Y-107729758D01*
X126456857Y-107727691D01*
X126462807Y-107726201D01*
X126468874Y-107725301D01*
X126475000Y-107725000D01*
X126600000Y-107725000D01*
X126606126Y-107725301D01*
X126606126Y-107725301D01*
G37*
D24*
X126537500Y-108137500D03*
D11*
G36*
X127106126Y-107725301D02*
X127112193Y-107726201D01*
X127118143Y-107727691D01*
X127123918Y-107729758D01*
X127129462Y-107732380D01*
X127134723Y-107735533D01*
X127139650Y-107739187D01*
X127144194Y-107743306D01*
X127148313Y-107747850D01*
X127151967Y-107752777D01*
X127155120Y-107758038D01*
X127157742Y-107763582D01*
X127159809Y-107769357D01*
X127161299Y-107775307D01*
X127162199Y-107781374D01*
X127162500Y-107787500D01*
X127162500Y-108487500D01*
X127162199Y-108493626D01*
X127161299Y-108499693D01*
X127159809Y-108505643D01*
X127157742Y-108511418D01*
X127155120Y-108516962D01*
X127151967Y-108522223D01*
X127148313Y-108527150D01*
X127144194Y-108531694D01*
X127139650Y-108535813D01*
X127134723Y-108539467D01*
X127129462Y-108542620D01*
X127123918Y-108545242D01*
X127118143Y-108547309D01*
X127112193Y-108548799D01*
X127106126Y-108549699D01*
X127100000Y-108550000D01*
X126975000Y-108550000D01*
X126968874Y-108549699D01*
X126962807Y-108548799D01*
X126956857Y-108547309D01*
X126951082Y-108545242D01*
X126945538Y-108542620D01*
X126940277Y-108539467D01*
X126935350Y-108535813D01*
X126930806Y-108531694D01*
X126926687Y-108527150D01*
X126923033Y-108522223D01*
X126919880Y-108516962D01*
X126917258Y-108511418D01*
X126915191Y-108505643D01*
X126913701Y-108499693D01*
X126912801Y-108493626D01*
X126912500Y-108487500D01*
X126912500Y-107787500D01*
X126912801Y-107781374D01*
X126913701Y-107775307D01*
X126915191Y-107769357D01*
X126917258Y-107763582D01*
X126919880Y-107758038D01*
X126923033Y-107752777D01*
X126926687Y-107747850D01*
X126930806Y-107743306D01*
X126935350Y-107739187D01*
X126940277Y-107735533D01*
X126945538Y-107732380D01*
X126951082Y-107729758D01*
X126956857Y-107727691D01*
X126962807Y-107726201D01*
X126968874Y-107725301D01*
X126975000Y-107725000D01*
X127100000Y-107725000D01*
X127106126Y-107725301D01*
X127106126Y-107725301D01*
G37*
D24*
X127037500Y-108137500D03*
D11*
G36*
X127606126Y-107725301D02*
X127612193Y-107726201D01*
X127618143Y-107727691D01*
X127623918Y-107729758D01*
X127629462Y-107732380D01*
X127634723Y-107735533D01*
X127639650Y-107739187D01*
X127644194Y-107743306D01*
X127648313Y-107747850D01*
X127651967Y-107752777D01*
X127655120Y-107758038D01*
X127657742Y-107763582D01*
X127659809Y-107769357D01*
X127661299Y-107775307D01*
X127662199Y-107781374D01*
X127662500Y-107787500D01*
X127662500Y-108487500D01*
X127662199Y-108493626D01*
X127661299Y-108499693D01*
X127659809Y-108505643D01*
X127657742Y-108511418D01*
X127655120Y-108516962D01*
X127651967Y-108522223D01*
X127648313Y-108527150D01*
X127644194Y-108531694D01*
X127639650Y-108535813D01*
X127634723Y-108539467D01*
X127629462Y-108542620D01*
X127623918Y-108545242D01*
X127618143Y-108547309D01*
X127612193Y-108548799D01*
X127606126Y-108549699D01*
X127600000Y-108550000D01*
X127475000Y-108550000D01*
X127468874Y-108549699D01*
X127462807Y-108548799D01*
X127456857Y-108547309D01*
X127451082Y-108545242D01*
X127445538Y-108542620D01*
X127440277Y-108539467D01*
X127435350Y-108535813D01*
X127430806Y-108531694D01*
X127426687Y-108527150D01*
X127423033Y-108522223D01*
X127419880Y-108516962D01*
X127417258Y-108511418D01*
X127415191Y-108505643D01*
X127413701Y-108499693D01*
X127412801Y-108493626D01*
X127412500Y-108487500D01*
X127412500Y-107787500D01*
X127412801Y-107781374D01*
X127413701Y-107775307D01*
X127415191Y-107769357D01*
X127417258Y-107763582D01*
X127419880Y-107758038D01*
X127423033Y-107752777D01*
X127426687Y-107747850D01*
X127430806Y-107743306D01*
X127435350Y-107739187D01*
X127440277Y-107735533D01*
X127445538Y-107732380D01*
X127451082Y-107729758D01*
X127456857Y-107727691D01*
X127462807Y-107726201D01*
X127468874Y-107725301D01*
X127475000Y-107725000D01*
X127600000Y-107725000D01*
X127606126Y-107725301D01*
X127606126Y-107725301D01*
G37*
D24*
X127537500Y-108137500D03*
D11*
G36*
X128831126Y-107075301D02*
X128837193Y-107076201D01*
X128843143Y-107077691D01*
X128848918Y-107079758D01*
X128854462Y-107082380D01*
X128859723Y-107085533D01*
X128864650Y-107089187D01*
X128869194Y-107093306D01*
X128873313Y-107097850D01*
X128876967Y-107102777D01*
X128880120Y-107108038D01*
X128882742Y-107113582D01*
X128884809Y-107119357D01*
X128886299Y-107125307D01*
X128887199Y-107131374D01*
X128887500Y-107137500D01*
X128887500Y-107262500D01*
X128887199Y-107268626D01*
X128886299Y-107274693D01*
X128884809Y-107280643D01*
X128882742Y-107286418D01*
X128880120Y-107291962D01*
X128876967Y-107297223D01*
X128873313Y-107302150D01*
X128869194Y-107306694D01*
X128864650Y-107310813D01*
X128859723Y-107314467D01*
X128854462Y-107317620D01*
X128848918Y-107320242D01*
X128843143Y-107322309D01*
X128837193Y-107323799D01*
X128831126Y-107324699D01*
X128825000Y-107325000D01*
X128125000Y-107325000D01*
X128118874Y-107324699D01*
X128112807Y-107323799D01*
X128106857Y-107322309D01*
X128101082Y-107320242D01*
X128095538Y-107317620D01*
X128090277Y-107314467D01*
X128085350Y-107310813D01*
X128080806Y-107306694D01*
X128076687Y-107302150D01*
X128073033Y-107297223D01*
X128069880Y-107291962D01*
X128067258Y-107286418D01*
X128065191Y-107280643D01*
X128063701Y-107274693D01*
X128062801Y-107268626D01*
X128062500Y-107262500D01*
X128062500Y-107137500D01*
X128062801Y-107131374D01*
X128063701Y-107125307D01*
X128065191Y-107119357D01*
X128067258Y-107113582D01*
X128069880Y-107108038D01*
X128073033Y-107102777D01*
X128076687Y-107097850D01*
X128080806Y-107093306D01*
X128085350Y-107089187D01*
X128090277Y-107085533D01*
X128095538Y-107082380D01*
X128101082Y-107079758D01*
X128106857Y-107077691D01*
X128112807Y-107076201D01*
X128118874Y-107075301D01*
X128125000Y-107075000D01*
X128825000Y-107075000D01*
X128831126Y-107075301D01*
X128831126Y-107075301D01*
G37*
D24*
X128475000Y-107200000D03*
D11*
G36*
X128831126Y-106575301D02*
X128837193Y-106576201D01*
X128843143Y-106577691D01*
X128848918Y-106579758D01*
X128854462Y-106582380D01*
X128859723Y-106585533D01*
X128864650Y-106589187D01*
X128869194Y-106593306D01*
X128873313Y-106597850D01*
X128876967Y-106602777D01*
X128880120Y-106608038D01*
X128882742Y-106613582D01*
X128884809Y-106619357D01*
X128886299Y-106625307D01*
X128887199Y-106631374D01*
X128887500Y-106637500D01*
X128887500Y-106762500D01*
X128887199Y-106768626D01*
X128886299Y-106774693D01*
X128884809Y-106780643D01*
X128882742Y-106786418D01*
X128880120Y-106791962D01*
X128876967Y-106797223D01*
X128873313Y-106802150D01*
X128869194Y-106806694D01*
X128864650Y-106810813D01*
X128859723Y-106814467D01*
X128854462Y-106817620D01*
X128848918Y-106820242D01*
X128843143Y-106822309D01*
X128837193Y-106823799D01*
X128831126Y-106824699D01*
X128825000Y-106825000D01*
X128125000Y-106825000D01*
X128118874Y-106824699D01*
X128112807Y-106823799D01*
X128106857Y-106822309D01*
X128101082Y-106820242D01*
X128095538Y-106817620D01*
X128090277Y-106814467D01*
X128085350Y-106810813D01*
X128080806Y-106806694D01*
X128076687Y-106802150D01*
X128073033Y-106797223D01*
X128069880Y-106791962D01*
X128067258Y-106786418D01*
X128065191Y-106780643D01*
X128063701Y-106774693D01*
X128062801Y-106768626D01*
X128062500Y-106762500D01*
X128062500Y-106637500D01*
X128062801Y-106631374D01*
X128063701Y-106625307D01*
X128065191Y-106619357D01*
X128067258Y-106613582D01*
X128069880Y-106608038D01*
X128073033Y-106602777D01*
X128076687Y-106597850D01*
X128080806Y-106593306D01*
X128085350Y-106589187D01*
X128090277Y-106585533D01*
X128095538Y-106582380D01*
X128101082Y-106579758D01*
X128106857Y-106577691D01*
X128112807Y-106576201D01*
X128118874Y-106575301D01*
X128125000Y-106575000D01*
X128825000Y-106575000D01*
X128831126Y-106575301D01*
X128831126Y-106575301D01*
G37*
D24*
X128475000Y-106700000D03*
D11*
G36*
X128831126Y-106075301D02*
X128837193Y-106076201D01*
X128843143Y-106077691D01*
X128848918Y-106079758D01*
X128854462Y-106082380D01*
X128859723Y-106085533D01*
X128864650Y-106089187D01*
X128869194Y-106093306D01*
X128873313Y-106097850D01*
X128876967Y-106102777D01*
X128880120Y-106108038D01*
X128882742Y-106113582D01*
X128884809Y-106119357D01*
X128886299Y-106125307D01*
X128887199Y-106131374D01*
X128887500Y-106137500D01*
X128887500Y-106262500D01*
X128887199Y-106268626D01*
X128886299Y-106274693D01*
X128884809Y-106280643D01*
X128882742Y-106286418D01*
X128880120Y-106291962D01*
X128876967Y-106297223D01*
X128873313Y-106302150D01*
X128869194Y-106306694D01*
X128864650Y-106310813D01*
X128859723Y-106314467D01*
X128854462Y-106317620D01*
X128848918Y-106320242D01*
X128843143Y-106322309D01*
X128837193Y-106323799D01*
X128831126Y-106324699D01*
X128825000Y-106325000D01*
X128125000Y-106325000D01*
X128118874Y-106324699D01*
X128112807Y-106323799D01*
X128106857Y-106322309D01*
X128101082Y-106320242D01*
X128095538Y-106317620D01*
X128090277Y-106314467D01*
X128085350Y-106310813D01*
X128080806Y-106306694D01*
X128076687Y-106302150D01*
X128073033Y-106297223D01*
X128069880Y-106291962D01*
X128067258Y-106286418D01*
X128065191Y-106280643D01*
X128063701Y-106274693D01*
X128062801Y-106268626D01*
X128062500Y-106262500D01*
X128062500Y-106137500D01*
X128062801Y-106131374D01*
X128063701Y-106125307D01*
X128065191Y-106119357D01*
X128067258Y-106113582D01*
X128069880Y-106108038D01*
X128073033Y-106102777D01*
X128076687Y-106097850D01*
X128080806Y-106093306D01*
X128085350Y-106089187D01*
X128090277Y-106085533D01*
X128095538Y-106082380D01*
X128101082Y-106079758D01*
X128106857Y-106077691D01*
X128112807Y-106076201D01*
X128118874Y-106075301D01*
X128125000Y-106075000D01*
X128825000Y-106075000D01*
X128831126Y-106075301D01*
X128831126Y-106075301D01*
G37*
D24*
X128475000Y-106200000D03*
D11*
G36*
X128831126Y-105575301D02*
X128837193Y-105576201D01*
X128843143Y-105577691D01*
X128848918Y-105579758D01*
X128854462Y-105582380D01*
X128859723Y-105585533D01*
X128864650Y-105589187D01*
X128869194Y-105593306D01*
X128873313Y-105597850D01*
X128876967Y-105602777D01*
X128880120Y-105608038D01*
X128882742Y-105613582D01*
X128884809Y-105619357D01*
X128886299Y-105625307D01*
X128887199Y-105631374D01*
X128887500Y-105637500D01*
X128887500Y-105762500D01*
X128887199Y-105768626D01*
X128886299Y-105774693D01*
X128884809Y-105780643D01*
X128882742Y-105786418D01*
X128880120Y-105791962D01*
X128876967Y-105797223D01*
X128873313Y-105802150D01*
X128869194Y-105806694D01*
X128864650Y-105810813D01*
X128859723Y-105814467D01*
X128854462Y-105817620D01*
X128848918Y-105820242D01*
X128843143Y-105822309D01*
X128837193Y-105823799D01*
X128831126Y-105824699D01*
X128825000Y-105825000D01*
X128125000Y-105825000D01*
X128118874Y-105824699D01*
X128112807Y-105823799D01*
X128106857Y-105822309D01*
X128101082Y-105820242D01*
X128095538Y-105817620D01*
X128090277Y-105814467D01*
X128085350Y-105810813D01*
X128080806Y-105806694D01*
X128076687Y-105802150D01*
X128073033Y-105797223D01*
X128069880Y-105791962D01*
X128067258Y-105786418D01*
X128065191Y-105780643D01*
X128063701Y-105774693D01*
X128062801Y-105768626D01*
X128062500Y-105762500D01*
X128062500Y-105637500D01*
X128062801Y-105631374D01*
X128063701Y-105625307D01*
X128065191Y-105619357D01*
X128067258Y-105613582D01*
X128069880Y-105608038D01*
X128073033Y-105602777D01*
X128076687Y-105597850D01*
X128080806Y-105593306D01*
X128085350Y-105589187D01*
X128090277Y-105585533D01*
X128095538Y-105582380D01*
X128101082Y-105579758D01*
X128106857Y-105577691D01*
X128112807Y-105576201D01*
X128118874Y-105575301D01*
X128125000Y-105575000D01*
X128825000Y-105575000D01*
X128831126Y-105575301D01*
X128831126Y-105575301D01*
G37*
D24*
X128475000Y-105700000D03*
D11*
G36*
X128831126Y-105075301D02*
X128837193Y-105076201D01*
X128843143Y-105077691D01*
X128848918Y-105079758D01*
X128854462Y-105082380D01*
X128859723Y-105085533D01*
X128864650Y-105089187D01*
X128869194Y-105093306D01*
X128873313Y-105097850D01*
X128876967Y-105102777D01*
X128880120Y-105108038D01*
X128882742Y-105113582D01*
X128884809Y-105119357D01*
X128886299Y-105125307D01*
X128887199Y-105131374D01*
X128887500Y-105137500D01*
X128887500Y-105262500D01*
X128887199Y-105268626D01*
X128886299Y-105274693D01*
X128884809Y-105280643D01*
X128882742Y-105286418D01*
X128880120Y-105291962D01*
X128876967Y-105297223D01*
X128873313Y-105302150D01*
X128869194Y-105306694D01*
X128864650Y-105310813D01*
X128859723Y-105314467D01*
X128854462Y-105317620D01*
X128848918Y-105320242D01*
X128843143Y-105322309D01*
X128837193Y-105323799D01*
X128831126Y-105324699D01*
X128825000Y-105325000D01*
X128125000Y-105325000D01*
X128118874Y-105324699D01*
X128112807Y-105323799D01*
X128106857Y-105322309D01*
X128101082Y-105320242D01*
X128095538Y-105317620D01*
X128090277Y-105314467D01*
X128085350Y-105310813D01*
X128080806Y-105306694D01*
X128076687Y-105302150D01*
X128073033Y-105297223D01*
X128069880Y-105291962D01*
X128067258Y-105286418D01*
X128065191Y-105280643D01*
X128063701Y-105274693D01*
X128062801Y-105268626D01*
X128062500Y-105262500D01*
X128062500Y-105137500D01*
X128062801Y-105131374D01*
X128063701Y-105125307D01*
X128065191Y-105119357D01*
X128067258Y-105113582D01*
X128069880Y-105108038D01*
X128073033Y-105102777D01*
X128076687Y-105097850D01*
X128080806Y-105093306D01*
X128085350Y-105089187D01*
X128090277Y-105085533D01*
X128095538Y-105082380D01*
X128101082Y-105079758D01*
X128106857Y-105077691D01*
X128112807Y-105076201D01*
X128118874Y-105075301D01*
X128125000Y-105075000D01*
X128825000Y-105075000D01*
X128831126Y-105075301D01*
X128831126Y-105075301D01*
G37*
D24*
X128475000Y-105200000D03*
G04 #@! TD*
M02*
