G04 #@! TF.GenerationSoftware,KiCad,Pcbnew,5.0.2+dfsg1-1*
G04 #@! TF.CreationDate,2019-03-28T13:57:09+00:00*
G04 #@! TF.ProjectId,PiZeroInteract,50695a65-726f-4496-9e74-65726163742e,rev?*
G04 #@! TF.SameCoordinates,Original*
G04 #@! TF.FileFunction,Soldermask,Top*
G04 #@! TF.FilePolarity,Negative*
%FSLAX46Y46*%
G04 Gerber Fmt 4.6, Leading zero omitted, Abs format (unit mm)*
G04 Created by KiCad (PCBNEW 5.0.2+dfsg1-1) date Thu 28 Mar 2019 13:57:09 GMT*
%MOMM*%
%LPD*%
G01*
G04 APERTURE LIST*
%ADD10C,0.100000*%
G04 APERTURE END LIST*
D10*
G36*
X122079591Y-117703085D02*
X122113569Y-117713393D01*
X122144887Y-117730133D01*
X122172339Y-117752661D01*
X122194867Y-117780113D01*
X122211607Y-117811431D01*
X122221915Y-117845409D01*
X122226000Y-117886890D01*
X122226000Y-118488110D01*
X122221915Y-118529591D01*
X122211607Y-118563569D01*
X122194867Y-118594887D01*
X122172339Y-118622339D01*
X122144887Y-118644867D01*
X122113569Y-118661607D01*
X122079591Y-118671915D01*
X122038110Y-118676000D01*
X121361890Y-118676000D01*
X121320409Y-118671915D01*
X121286431Y-118661607D01*
X121255113Y-118644867D01*
X121227661Y-118622339D01*
X121205133Y-118594887D01*
X121188393Y-118563569D01*
X121178085Y-118529591D01*
X121174000Y-118488110D01*
X121174000Y-117886890D01*
X121178085Y-117845409D01*
X121188393Y-117811431D01*
X121205133Y-117780113D01*
X121227661Y-117752661D01*
X121255113Y-117730133D01*
X121286431Y-117713393D01*
X121320409Y-117703085D01*
X121361890Y-117699000D01*
X122038110Y-117699000D01*
X122079591Y-117703085D01*
X122079591Y-117703085D01*
G37*
G36*
X136001000Y-118511000D02*
X133599000Y-118511000D01*
X133599000Y-112809000D01*
X136001000Y-112809000D01*
X136001000Y-118511000D01*
X136001000Y-118511000D01*
G37*
G36*
X125901000Y-118511000D02*
X123499000Y-118511000D01*
X123499000Y-112809000D01*
X125901000Y-112809000D01*
X125901000Y-118511000D01*
X125901000Y-118511000D01*
G37*
G36*
X139788413Y-115555525D02*
X139863456Y-115578290D01*
X139873425Y-115581314D01*
X139951774Y-115623193D01*
X140020448Y-115679552D01*
X140076807Y-115748226D01*
X140118686Y-115826575D01*
X140118687Y-115826579D01*
X140144475Y-115911587D01*
X140153182Y-116000000D01*
X140144475Y-116088413D01*
X140129313Y-116138393D01*
X140118686Y-116173425D01*
X140076807Y-116251774D01*
X140020448Y-116320448D01*
X139951774Y-116376807D01*
X139873425Y-116418686D01*
X139863456Y-116421710D01*
X139788413Y-116444475D01*
X139722158Y-116451000D01*
X139677842Y-116451000D01*
X139611589Y-116444475D01*
X139576511Y-116433833D01*
X139555476Y-116427453D01*
X139531449Y-116422673D01*
X139506945Y-116422673D01*
X139482911Y-116427453D01*
X139460272Y-116436830D01*
X139439897Y-116450444D01*
X139422570Y-116467770D01*
X139408956Y-116488145D01*
X139399578Y-116510784D01*
X139394797Y-116534817D01*
X139394797Y-116559321D01*
X139399577Y-116583355D01*
X139408954Y-116605994D01*
X139422568Y-116626369D01*
X139439895Y-116643696D01*
X139476368Y-116673630D01*
X139573341Y-116791790D01*
X139573342Y-116791792D01*
X139645399Y-116926601D01*
X139665373Y-116992448D01*
X139689772Y-117072881D01*
X139704754Y-117225000D01*
X139689772Y-117377119D01*
X139645398Y-117523401D01*
X139573341Y-117658210D01*
X139476369Y-117776369D01*
X139358210Y-117873341D01*
X139223401Y-117945398D01*
X139223399Y-117945399D01*
X139104352Y-117981511D01*
X139077119Y-117989772D01*
X138963118Y-118001000D01*
X138336882Y-118001000D01*
X138222881Y-117989772D01*
X138195648Y-117981511D01*
X138076601Y-117945399D01*
X138076599Y-117945398D01*
X137941790Y-117873341D01*
X137823631Y-117776369D01*
X137726659Y-117658210D01*
X137654602Y-117523401D01*
X137610228Y-117377119D01*
X137595246Y-117225000D01*
X137610228Y-117072881D01*
X137634627Y-116992448D01*
X137654601Y-116926601D01*
X137726658Y-116791792D01*
X137726659Y-116791790D01*
X137823631Y-116673631D01*
X137941790Y-116576659D01*
X138076599Y-116504602D01*
X138076601Y-116504601D01*
X138222878Y-116460229D01*
X138222881Y-116460228D01*
X138336882Y-116449000D01*
X138963118Y-116449000D01*
X139077119Y-116460228D01*
X139077122Y-116460229D01*
X139223399Y-116504601D01*
X139223401Y-116504602D01*
X139230792Y-116506844D01*
X139239246Y-116510345D01*
X139263279Y-116515123D01*
X139287784Y-116515121D01*
X139311817Y-116510338D01*
X139334455Y-116500959D01*
X139354828Y-116487344D01*
X139372154Y-116470015D01*
X139385766Y-116449639D01*
X139395142Y-116426999D01*
X139399920Y-116402966D01*
X139399918Y-116378461D01*
X139395135Y-116354428D01*
X139385756Y-116331790D01*
X139372150Y-116311429D01*
X139338486Y-116270409D01*
X139323193Y-116251775D01*
X139298252Y-116205113D01*
X139281314Y-116173425D01*
X139270687Y-116138393D01*
X139255525Y-116088413D01*
X139246818Y-116000000D01*
X139255525Y-115911587D01*
X139281313Y-115826579D01*
X139281314Y-115826575D01*
X139323193Y-115748226D01*
X139379552Y-115679552D01*
X139448226Y-115623193D01*
X139526575Y-115581314D01*
X139536544Y-115578290D01*
X139611587Y-115555525D01*
X139677842Y-115549000D01*
X139722158Y-115549000D01*
X139788413Y-115555525D01*
X139788413Y-115555525D01*
G37*
G36*
X142897714Y-116758058D02*
X142897717Y-116758059D01*
X143015719Y-116793854D01*
X143015721Y-116793855D01*
X143124471Y-116851983D01*
X143219790Y-116930210D01*
X143298017Y-117025529D01*
X143356145Y-117134279D01*
X143391942Y-117252286D01*
X143404028Y-117375000D01*
X143391942Y-117497714D01*
X143356145Y-117615721D01*
X143298017Y-117724471D01*
X143219790Y-117819790D01*
X143124471Y-117898017D01*
X143124469Y-117898018D01*
X143015719Y-117956146D01*
X142919683Y-117985278D01*
X142897714Y-117991942D01*
X142805747Y-118001000D01*
X142094253Y-118001000D01*
X142002286Y-117991942D01*
X141980317Y-117985278D01*
X141884281Y-117956146D01*
X141775531Y-117898018D01*
X141775529Y-117898017D01*
X141680210Y-117819790D01*
X141601983Y-117724471D01*
X141543855Y-117615721D01*
X141508058Y-117497714D01*
X141495972Y-117375000D01*
X141508058Y-117252286D01*
X141543855Y-117134279D01*
X141601983Y-117025529D01*
X141680210Y-116930210D01*
X141775529Y-116851983D01*
X141884279Y-116793855D01*
X141884281Y-116793854D01*
X142002283Y-116758059D01*
X142002286Y-116758058D01*
X142094253Y-116749000D01*
X142805747Y-116749000D01*
X142897714Y-116758058D01*
X142897714Y-116758058D01*
G37*
G36*
X122079591Y-116128085D02*
X122113569Y-116138393D01*
X122144887Y-116155133D01*
X122172339Y-116177661D01*
X122194867Y-116205113D01*
X122211607Y-116236431D01*
X122221915Y-116270409D01*
X122226000Y-116311890D01*
X122226000Y-116913110D01*
X122221915Y-116954591D01*
X122211607Y-116988569D01*
X122194867Y-117019887D01*
X122172339Y-117047339D01*
X122144887Y-117069867D01*
X122113569Y-117086607D01*
X122079591Y-117096915D01*
X122038110Y-117101000D01*
X121361890Y-117101000D01*
X121320409Y-117096915D01*
X121286431Y-117086607D01*
X121255113Y-117069867D01*
X121227661Y-117047339D01*
X121205133Y-117019887D01*
X121188393Y-116988569D01*
X121178085Y-116954591D01*
X121174000Y-116913110D01*
X121174000Y-116311890D01*
X121178085Y-116270409D01*
X121188393Y-116236431D01*
X121205133Y-116205113D01*
X121227661Y-116177661D01*
X121255113Y-116155133D01*
X121286431Y-116138393D01*
X121320409Y-116128085D01*
X121361890Y-116124000D01*
X122038110Y-116124000D01*
X122079591Y-116128085D01*
X122079591Y-116128085D01*
G37*
G36*
X122081938Y-114691716D02*
X122102556Y-114697970D01*
X122121556Y-114708126D01*
X122138208Y-114721792D01*
X122151874Y-114738444D01*
X122162030Y-114757444D01*
X122168284Y-114778062D01*
X122171000Y-114805640D01*
X122171000Y-115264360D01*
X122168284Y-115291938D01*
X122162030Y-115312556D01*
X122151874Y-115331556D01*
X122138208Y-115348208D01*
X122121556Y-115361874D01*
X122102556Y-115372030D01*
X122081938Y-115378284D01*
X122054360Y-115381000D01*
X121545640Y-115381000D01*
X121518062Y-115378284D01*
X121497444Y-115372030D01*
X121478444Y-115361874D01*
X121461792Y-115348208D01*
X121448126Y-115331556D01*
X121437970Y-115312556D01*
X121431716Y-115291938D01*
X121429000Y-115264360D01*
X121429000Y-114805640D01*
X121431716Y-114778062D01*
X121437970Y-114757444D01*
X121448126Y-114738444D01*
X121461792Y-114721792D01*
X121478444Y-114708126D01*
X121497444Y-114697970D01*
X121518062Y-114691716D01*
X121545640Y-114689000D01*
X122054360Y-114689000D01*
X122081938Y-114691716D01*
X122081938Y-114691716D01*
G37*
G36*
X139301000Y-115076000D02*
X137899000Y-115076000D01*
X137899000Y-111924000D01*
X139301000Y-111924000D01*
X139301000Y-115076000D01*
X139301000Y-115076000D01*
G37*
G36*
X122081938Y-113721716D02*
X122102556Y-113727970D01*
X122121556Y-113738126D01*
X122138208Y-113751792D01*
X122151874Y-113768444D01*
X122162030Y-113787444D01*
X122168284Y-113808062D01*
X122171000Y-113835640D01*
X122171000Y-114294360D01*
X122168284Y-114321938D01*
X122162030Y-114342556D01*
X122151874Y-114361556D01*
X122138208Y-114378208D01*
X122121556Y-114391874D01*
X122102556Y-114402030D01*
X122081938Y-114408284D01*
X122054360Y-114411000D01*
X121545640Y-114411000D01*
X121518062Y-114408284D01*
X121497444Y-114402030D01*
X121478444Y-114391874D01*
X121461792Y-114378208D01*
X121448126Y-114361556D01*
X121437970Y-114342556D01*
X121431716Y-114321938D01*
X121429000Y-114294360D01*
X121429000Y-113835640D01*
X121431716Y-113808062D01*
X121437970Y-113787444D01*
X121448126Y-113768444D01*
X121461792Y-113751792D01*
X121478444Y-113738126D01*
X121497444Y-113727970D01*
X121518062Y-113721716D01*
X121545640Y-113719000D01*
X122054360Y-113719000D01*
X122081938Y-113721716D01*
X122081938Y-113721716D01*
G37*
G36*
X131751000Y-114251000D02*
X130249000Y-114251000D01*
X130249000Y-110749000D01*
X131751000Y-110749000D01*
X131751000Y-114251000D01*
X131751000Y-114251000D01*
G37*
G36*
X129251000Y-114251000D02*
X127749000Y-114251000D01*
X127749000Y-110749000D01*
X129251000Y-110749000D01*
X129251000Y-114251000D01*
X129251000Y-114251000D01*
G37*
G36*
X117410443Y-110715519D02*
X117476627Y-110722037D01*
X117565512Y-110749000D01*
X117646467Y-110773557D01*
X117785087Y-110847652D01*
X117802991Y-110857222D01*
X117838729Y-110886552D01*
X117940186Y-110969814D01*
X118023448Y-111071271D01*
X118052778Y-111107009D01*
X118052779Y-111107011D01*
X118136443Y-111263533D01*
X118136443Y-111263534D01*
X118187963Y-111433373D01*
X118205359Y-111610000D01*
X118187963Y-111786627D01*
X118153616Y-111899853D01*
X118136443Y-111956467D01*
X118062348Y-112095087D01*
X118052778Y-112112991D01*
X118023448Y-112148729D01*
X117940186Y-112250186D01*
X117838729Y-112333448D01*
X117802991Y-112362778D01*
X117802989Y-112362779D01*
X117646467Y-112446443D01*
X117589853Y-112463616D01*
X117476627Y-112497963D01*
X117410443Y-112504481D01*
X117344260Y-112511000D01*
X117255740Y-112511000D01*
X117189557Y-112504481D01*
X117123373Y-112497963D01*
X117010147Y-112463616D01*
X116953533Y-112446443D01*
X116797011Y-112362779D01*
X116797009Y-112362778D01*
X116761271Y-112333448D01*
X116659814Y-112250186D01*
X116576552Y-112148729D01*
X116547222Y-112112991D01*
X116537652Y-112095087D01*
X116463557Y-111956467D01*
X116446384Y-111899853D01*
X116412037Y-111786627D01*
X116394641Y-111610000D01*
X116412037Y-111433373D01*
X116463557Y-111263534D01*
X116463557Y-111263533D01*
X116547221Y-111107011D01*
X116547222Y-111107009D01*
X116576552Y-111071271D01*
X116659814Y-110969814D01*
X116761271Y-110886552D01*
X116797009Y-110857222D01*
X116814913Y-110847652D01*
X116953533Y-110773557D01*
X117034488Y-110749000D01*
X117123373Y-110722037D01*
X117189557Y-110715519D01*
X117255740Y-110709000D01*
X117344260Y-110709000D01*
X117410443Y-110715519D01*
X117410443Y-110715519D01*
G37*
G36*
X119950443Y-110715519D02*
X120016627Y-110722037D01*
X120105512Y-110749000D01*
X120186467Y-110773557D01*
X120325087Y-110847652D01*
X120342991Y-110857222D01*
X120378729Y-110886552D01*
X120480186Y-110969814D01*
X120563448Y-111071271D01*
X120592778Y-111107009D01*
X120592779Y-111107011D01*
X120676443Y-111263533D01*
X120676443Y-111263534D01*
X120727963Y-111433373D01*
X120745359Y-111610000D01*
X120727963Y-111786627D01*
X120693616Y-111899853D01*
X120676443Y-111956467D01*
X120602348Y-112095087D01*
X120592778Y-112112991D01*
X120563448Y-112148729D01*
X120480186Y-112250186D01*
X120378729Y-112333448D01*
X120342991Y-112362778D01*
X120342989Y-112362779D01*
X120186467Y-112446443D01*
X120129853Y-112463616D01*
X120016627Y-112497963D01*
X119950443Y-112504481D01*
X119884260Y-112511000D01*
X119795740Y-112511000D01*
X119729557Y-112504481D01*
X119663373Y-112497963D01*
X119550147Y-112463616D01*
X119493533Y-112446443D01*
X119337011Y-112362779D01*
X119337009Y-112362778D01*
X119301271Y-112333448D01*
X119199814Y-112250186D01*
X119116552Y-112148729D01*
X119087222Y-112112991D01*
X119077652Y-112095087D01*
X119003557Y-111956467D01*
X118986384Y-111899853D01*
X118952037Y-111786627D01*
X118934641Y-111610000D01*
X118952037Y-111433373D01*
X119003557Y-111263534D01*
X119003557Y-111263533D01*
X119087221Y-111107011D01*
X119087222Y-111107009D01*
X119116552Y-111071271D01*
X119199814Y-110969814D01*
X119301271Y-110886552D01*
X119337009Y-110857222D01*
X119354913Y-110847652D01*
X119493533Y-110773557D01*
X119574488Y-110749000D01*
X119663373Y-110722037D01*
X119729557Y-110715519D01*
X119795740Y-110709000D01*
X119884260Y-110709000D01*
X119950443Y-110715519D01*
X119950443Y-110715519D01*
G37*
G36*
X139077119Y-109010228D02*
X139077122Y-109010229D01*
X139223399Y-109054601D01*
X139223401Y-109054602D01*
X139358210Y-109126659D01*
X139476369Y-109223631D01*
X139573341Y-109341790D01*
X139573342Y-109341792D01*
X139645399Y-109476601D01*
X139674638Y-109572991D01*
X139689772Y-109622881D01*
X139704754Y-109775000D01*
X139689772Y-109927119D01*
X139689771Y-109927122D01*
X139646127Y-110071000D01*
X139645398Y-110073401D01*
X139573341Y-110208210D01*
X139476368Y-110326370D01*
X139439895Y-110356304D01*
X139422568Y-110373631D01*
X139408954Y-110394006D01*
X139399577Y-110416645D01*
X139394797Y-110440678D01*
X139394797Y-110465183D01*
X139399578Y-110489216D01*
X139408956Y-110511855D01*
X139422570Y-110532229D01*
X139439897Y-110549556D01*
X139460272Y-110563170D01*
X139482911Y-110572547D01*
X139506944Y-110577327D01*
X139531449Y-110577327D01*
X139555476Y-110572547D01*
X139576511Y-110566167D01*
X139611589Y-110555525D01*
X139677842Y-110549000D01*
X139722158Y-110549000D01*
X139788413Y-110555525D01*
X139860281Y-110577327D01*
X139873425Y-110581314D01*
X139951774Y-110623193D01*
X140020448Y-110679552D01*
X140076807Y-110748226D01*
X140118686Y-110826575D01*
X140118687Y-110826579D01*
X140144475Y-110911587D01*
X140153182Y-111000000D01*
X140144475Y-111088413D01*
X140121710Y-111163456D01*
X140118686Y-111173425D01*
X140076807Y-111251774D01*
X140020448Y-111320448D01*
X139951774Y-111376807D01*
X139873425Y-111418686D01*
X139863456Y-111421710D01*
X139788413Y-111444475D01*
X139722158Y-111451000D01*
X139677842Y-111451000D01*
X139611587Y-111444475D01*
X139536544Y-111421710D01*
X139526575Y-111418686D01*
X139448226Y-111376807D01*
X139379552Y-111320448D01*
X139323193Y-111251774D01*
X139281314Y-111173425D01*
X139278290Y-111163456D01*
X139255525Y-111088413D01*
X139246818Y-111000000D01*
X139255525Y-110911587D01*
X139281313Y-110826579D01*
X139281314Y-110826575D01*
X139322779Y-110749000D01*
X139323193Y-110748225D01*
X139355385Y-110709000D01*
X139372150Y-110688571D01*
X139385761Y-110668202D01*
X139395138Y-110645563D01*
X139399919Y-110621529D01*
X139399919Y-110597025D01*
X139395139Y-110572992D01*
X139385762Y-110550352D01*
X139372148Y-110529978D01*
X139354821Y-110512650D01*
X139334447Y-110499036D01*
X139311808Y-110489659D01*
X139287774Y-110484878D01*
X139263270Y-110484878D01*
X139239237Y-110489658D01*
X139230788Y-110493157D01*
X139223401Y-110495398D01*
X139223399Y-110495399D01*
X139101985Y-110532229D01*
X139077119Y-110539772D01*
X138963118Y-110551000D01*
X138336882Y-110551000D01*
X138222881Y-110539772D01*
X138133471Y-110512650D01*
X138076601Y-110495399D01*
X138076599Y-110495398D01*
X137941790Y-110423341D01*
X137823631Y-110326369D01*
X137726659Y-110208210D01*
X137654602Y-110073401D01*
X137653874Y-110071000D01*
X137610229Y-109927122D01*
X137610228Y-109927119D01*
X137595246Y-109775000D01*
X137610228Y-109622881D01*
X137625362Y-109572991D01*
X137654601Y-109476601D01*
X137726658Y-109341792D01*
X137726659Y-109341790D01*
X137823631Y-109223631D01*
X137941790Y-109126659D01*
X138076599Y-109054602D01*
X138076601Y-109054601D01*
X138222878Y-109010229D01*
X138222881Y-109010228D01*
X138336882Y-108999000D01*
X138963118Y-108999000D01*
X139077119Y-109010228D01*
X139077119Y-109010228D01*
G37*
G36*
X142897714Y-109008058D02*
X142904871Y-109010229D01*
X143015719Y-109043854D01*
X143015721Y-109043855D01*
X143124471Y-109101983D01*
X143219790Y-109180210D01*
X143298017Y-109275529D01*
X143331392Y-109337970D01*
X143356146Y-109384281D01*
X143374759Y-109445640D01*
X143391942Y-109502286D01*
X143404028Y-109625000D01*
X143391942Y-109747714D01*
X143391941Y-109747717D01*
X143369172Y-109822779D01*
X143356145Y-109865721D01*
X143298017Y-109974471D01*
X143219790Y-110069790D01*
X143124471Y-110148017D01*
X143124469Y-110148018D01*
X143015719Y-110206146D01*
X142950268Y-110226000D01*
X142897714Y-110241942D01*
X142805747Y-110251000D01*
X142094253Y-110251000D01*
X142002286Y-110241942D01*
X141949732Y-110226000D01*
X141884281Y-110206146D01*
X141775531Y-110148018D01*
X141775529Y-110148017D01*
X141680210Y-110069790D01*
X141601983Y-109974471D01*
X141543855Y-109865721D01*
X141530829Y-109822779D01*
X141508059Y-109747717D01*
X141508058Y-109747714D01*
X141495972Y-109625000D01*
X141508058Y-109502286D01*
X141525241Y-109445640D01*
X141543854Y-109384281D01*
X141568608Y-109337970D01*
X141601983Y-109275529D01*
X141680210Y-109180210D01*
X141775529Y-109101983D01*
X141884279Y-109043855D01*
X141884281Y-109043854D01*
X141995129Y-109010229D01*
X142002286Y-109008058D01*
X142094253Y-108999000D01*
X142805747Y-108999000D01*
X142897714Y-109008058D01*
X142897714Y-109008058D01*
G37*
G36*
X131129591Y-109178085D02*
X131163569Y-109188393D01*
X131194887Y-109205133D01*
X131222339Y-109227661D01*
X131244867Y-109255113D01*
X131261607Y-109286431D01*
X131271915Y-109320409D01*
X131276000Y-109361890D01*
X131276000Y-110038110D01*
X131271915Y-110079591D01*
X131261607Y-110113569D01*
X131244867Y-110144887D01*
X131222339Y-110172339D01*
X131194887Y-110194867D01*
X131163569Y-110211607D01*
X131129591Y-110221915D01*
X131088110Y-110226000D01*
X130486890Y-110226000D01*
X130445409Y-110221915D01*
X130411431Y-110211607D01*
X130380113Y-110194867D01*
X130352661Y-110172339D01*
X130330133Y-110144887D01*
X130313393Y-110113569D01*
X130303085Y-110079591D01*
X130299000Y-110038110D01*
X130299000Y-109361890D01*
X130303085Y-109320409D01*
X130313393Y-109286431D01*
X130330133Y-109255113D01*
X130352661Y-109227661D01*
X130380113Y-109205133D01*
X130411431Y-109188393D01*
X130445409Y-109178085D01*
X130486890Y-109174000D01*
X131088110Y-109174000D01*
X131129591Y-109178085D01*
X131129591Y-109178085D01*
G37*
G36*
X129554591Y-109178085D02*
X129588569Y-109188393D01*
X129619887Y-109205133D01*
X129647339Y-109227661D01*
X129669867Y-109255113D01*
X129686607Y-109286431D01*
X129696915Y-109320409D01*
X129701000Y-109361890D01*
X129701000Y-110038110D01*
X129696915Y-110079591D01*
X129686607Y-110113569D01*
X129669867Y-110144887D01*
X129647339Y-110172339D01*
X129619887Y-110194867D01*
X129588569Y-110211607D01*
X129554591Y-110221915D01*
X129513110Y-110226000D01*
X128911890Y-110226000D01*
X128870409Y-110221915D01*
X128836431Y-110211607D01*
X128805113Y-110194867D01*
X128777661Y-110172339D01*
X128755133Y-110144887D01*
X128738393Y-110113569D01*
X128728085Y-110079591D01*
X128724000Y-110038110D01*
X128724000Y-109361890D01*
X128728085Y-109320409D01*
X128738393Y-109286431D01*
X128755133Y-109255113D01*
X128777661Y-109227661D01*
X128805113Y-109205133D01*
X128836431Y-109188393D01*
X128870409Y-109178085D01*
X128911890Y-109174000D01*
X129513110Y-109174000D01*
X129554591Y-109178085D01*
X129554591Y-109178085D01*
G37*
G36*
X124471938Y-109331716D02*
X124492556Y-109337970D01*
X124511556Y-109348126D01*
X124528208Y-109361792D01*
X124541874Y-109378444D01*
X124552030Y-109397444D01*
X124558284Y-109418062D01*
X124561000Y-109445640D01*
X124561000Y-109954360D01*
X124558284Y-109981938D01*
X124552030Y-110002556D01*
X124541874Y-110021556D01*
X124528208Y-110038208D01*
X124511556Y-110051874D01*
X124492556Y-110062030D01*
X124471938Y-110068284D01*
X124444360Y-110071000D01*
X123985640Y-110071000D01*
X123958062Y-110068284D01*
X123937444Y-110062030D01*
X123918444Y-110051874D01*
X123901792Y-110038208D01*
X123888126Y-110021556D01*
X123877970Y-110002556D01*
X123871716Y-109981938D01*
X123869000Y-109954360D01*
X123869000Y-109445640D01*
X123871716Y-109418062D01*
X123877970Y-109397444D01*
X123888126Y-109378444D01*
X123901792Y-109361792D01*
X123918444Y-109348126D01*
X123937444Y-109337970D01*
X123958062Y-109331716D01*
X123985640Y-109329000D01*
X124444360Y-109329000D01*
X124471938Y-109331716D01*
X124471938Y-109331716D01*
G37*
G36*
X126556938Y-109331716D02*
X126577556Y-109337970D01*
X126596556Y-109348126D01*
X126613208Y-109361792D01*
X126626874Y-109378444D01*
X126637030Y-109397444D01*
X126643284Y-109418062D01*
X126646000Y-109445640D01*
X126646000Y-109954360D01*
X126643284Y-109981938D01*
X126637030Y-110002556D01*
X126626874Y-110021556D01*
X126613208Y-110038208D01*
X126596556Y-110051874D01*
X126577556Y-110062030D01*
X126556938Y-110068284D01*
X126529360Y-110071000D01*
X126070640Y-110071000D01*
X126043062Y-110068284D01*
X126022444Y-110062030D01*
X126003444Y-110051874D01*
X125986792Y-110038208D01*
X125973126Y-110021556D01*
X125962970Y-110002556D01*
X125956716Y-109981938D01*
X125954000Y-109954360D01*
X125954000Y-109445640D01*
X125956716Y-109418062D01*
X125962970Y-109397444D01*
X125973126Y-109378444D01*
X125986792Y-109361792D01*
X126003444Y-109348126D01*
X126022444Y-109337970D01*
X126043062Y-109331716D01*
X126070640Y-109329000D01*
X126529360Y-109329000D01*
X126556938Y-109331716D01*
X126556938Y-109331716D01*
G37*
G36*
X125441938Y-109331716D02*
X125462556Y-109337970D01*
X125481556Y-109348126D01*
X125498208Y-109361792D01*
X125511874Y-109378444D01*
X125522030Y-109397444D01*
X125528284Y-109418062D01*
X125531000Y-109445640D01*
X125531000Y-109954360D01*
X125528284Y-109981938D01*
X125522030Y-110002556D01*
X125511874Y-110021556D01*
X125498208Y-110038208D01*
X125481556Y-110051874D01*
X125462556Y-110062030D01*
X125441938Y-110068284D01*
X125414360Y-110071000D01*
X124955640Y-110071000D01*
X124928062Y-110068284D01*
X124907444Y-110062030D01*
X124888444Y-110051874D01*
X124871792Y-110038208D01*
X124858126Y-110021556D01*
X124847970Y-110002556D01*
X124841716Y-109981938D01*
X124839000Y-109954360D01*
X124839000Y-109445640D01*
X124841716Y-109418062D01*
X124847970Y-109397444D01*
X124858126Y-109378444D01*
X124871792Y-109361792D01*
X124888444Y-109348126D01*
X124907444Y-109337970D01*
X124928062Y-109331716D01*
X124955640Y-109329000D01*
X125414360Y-109329000D01*
X125441938Y-109331716D01*
X125441938Y-109331716D01*
G37*
G36*
X127526938Y-109331716D02*
X127547556Y-109337970D01*
X127566556Y-109348126D01*
X127583208Y-109361792D01*
X127596874Y-109378444D01*
X127607030Y-109397444D01*
X127613284Y-109418062D01*
X127616000Y-109445640D01*
X127616000Y-109954360D01*
X127613284Y-109981938D01*
X127607030Y-110002556D01*
X127596874Y-110021556D01*
X127583208Y-110038208D01*
X127566556Y-110051874D01*
X127547556Y-110062030D01*
X127526938Y-110068284D01*
X127499360Y-110071000D01*
X127040640Y-110071000D01*
X127013062Y-110068284D01*
X126992444Y-110062030D01*
X126973444Y-110051874D01*
X126956792Y-110038208D01*
X126943126Y-110021556D01*
X126932970Y-110002556D01*
X126926716Y-109981938D01*
X126924000Y-109954360D01*
X126924000Y-109445640D01*
X126926716Y-109418062D01*
X126932970Y-109397444D01*
X126943126Y-109378444D01*
X126956792Y-109361792D01*
X126973444Y-109348126D01*
X126992444Y-109337970D01*
X127013062Y-109331716D01*
X127040640Y-109329000D01*
X127499360Y-109329000D01*
X127526938Y-109331716D01*
X127526938Y-109331716D01*
G37*
G36*
X119950442Y-108175518D02*
X120016627Y-108182037D01*
X120129853Y-108216384D01*
X120186467Y-108233557D01*
X120325087Y-108307652D01*
X120342991Y-108317222D01*
X120378729Y-108346552D01*
X120480186Y-108429814D01*
X120548454Y-108513000D01*
X120592778Y-108567009D01*
X120592779Y-108567011D01*
X120676443Y-108723533D01*
X120676443Y-108723534D01*
X120727963Y-108893373D01*
X120745359Y-109070000D01*
X120727963Y-109246627D01*
X120701967Y-109332324D01*
X120676443Y-109416467D01*
X120644301Y-109476599D01*
X120592778Y-109572991D01*
X120563448Y-109608729D01*
X120480186Y-109710186D01*
X120378729Y-109793448D01*
X120342991Y-109822778D01*
X120342989Y-109822779D01*
X120186467Y-109906443D01*
X120129853Y-109923616D01*
X120016627Y-109957963D01*
X119953260Y-109964204D01*
X119884260Y-109971000D01*
X119795740Y-109971000D01*
X119726740Y-109964204D01*
X119663373Y-109957963D01*
X119550147Y-109923616D01*
X119493533Y-109906443D01*
X119337011Y-109822779D01*
X119337009Y-109822778D01*
X119301271Y-109793448D01*
X119199814Y-109710186D01*
X119116552Y-109608729D01*
X119087222Y-109572991D01*
X119035699Y-109476599D01*
X119003557Y-109416467D01*
X118978033Y-109332324D01*
X118952037Y-109246627D01*
X118934641Y-109070000D01*
X118952037Y-108893373D01*
X119003557Y-108723534D01*
X119003557Y-108723533D01*
X119087221Y-108567011D01*
X119087222Y-108567009D01*
X119131546Y-108513000D01*
X119199814Y-108429814D01*
X119301271Y-108346552D01*
X119337009Y-108317222D01*
X119354913Y-108307652D01*
X119493533Y-108233557D01*
X119550147Y-108216384D01*
X119663373Y-108182037D01*
X119729558Y-108175518D01*
X119795740Y-108169000D01*
X119884260Y-108169000D01*
X119950442Y-108175518D01*
X119950442Y-108175518D01*
G37*
G36*
X117410442Y-108175518D02*
X117476627Y-108182037D01*
X117589853Y-108216384D01*
X117646467Y-108233557D01*
X117785087Y-108307652D01*
X117802991Y-108317222D01*
X117838729Y-108346552D01*
X117940186Y-108429814D01*
X118008454Y-108513000D01*
X118052778Y-108567009D01*
X118052779Y-108567011D01*
X118136443Y-108723533D01*
X118136443Y-108723534D01*
X118187963Y-108893373D01*
X118205359Y-109070000D01*
X118187963Y-109246627D01*
X118161967Y-109332324D01*
X118136443Y-109416467D01*
X118104301Y-109476599D01*
X118052778Y-109572991D01*
X118023448Y-109608729D01*
X117940186Y-109710186D01*
X117838729Y-109793448D01*
X117802991Y-109822778D01*
X117802989Y-109822779D01*
X117646467Y-109906443D01*
X117589853Y-109923616D01*
X117476627Y-109957963D01*
X117413260Y-109964204D01*
X117344260Y-109971000D01*
X117255740Y-109971000D01*
X117186740Y-109964204D01*
X117123373Y-109957963D01*
X117010147Y-109923616D01*
X116953533Y-109906443D01*
X116797011Y-109822779D01*
X116797009Y-109822778D01*
X116761271Y-109793448D01*
X116659814Y-109710186D01*
X116576552Y-109608729D01*
X116547222Y-109572991D01*
X116495699Y-109476599D01*
X116463557Y-109416467D01*
X116438033Y-109332324D01*
X116412037Y-109246627D01*
X116394641Y-109070000D01*
X116412037Y-108893373D01*
X116463557Y-108723534D01*
X116463557Y-108723533D01*
X116547221Y-108567011D01*
X116547222Y-108567009D01*
X116591546Y-108513000D01*
X116659814Y-108429814D01*
X116761271Y-108346552D01*
X116797009Y-108317222D01*
X116814913Y-108307652D01*
X116953533Y-108233557D01*
X117010147Y-108216384D01*
X117123373Y-108182037D01*
X117189558Y-108175518D01*
X117255740Y-108169000D01*
X117344260Y-108169000D01*
X117410442Y-108175518D01*
X117410442Y-108175518D01*
G37*
G36*
X136142091Y-107678085D02*
X136176069Y-107688393D01*
X136207387Y-107705133D01*
X136234839Y-107727661D01*
X136257367Y-107755113D01*
X136274107Y-107786431D01*
X136284415Y-107820409D01*
X136288500Y-107861890D01*
X136288500Y-108538110D01*
X136284415Y-108579591D01*
X136274107Y-108613569D01*
X136257367Y-108644887D01*
X136234839Y-108672339D01*
X136207387Y-108694867D01*
X136176069Y-108711607D01*
X136142091Y-108721915D01*
X136100610Y-108726000D01*
X135499390Y-108726000D01*
X135457909Y-108721915D01*
X135423931Y-108711607D01*
X135392613Y-108694867D01*
X135365161Y-108672339D01*
X135342633Y-108644887D01*
X135325893Y-108613569D01*
X135315585Y-108579591D01*
X135311500Y-108538110D01*
X135311500Y-107861890D01*
X135315585Y-107820409D01*
X135325893Y-107786431D01*
X135342633Y-107755113D01*
X135365161Y-107727661D01*
X135392613Y-107705133D01*
X135423931Y-107688393D01*
X135457909Y-107678085D01*
X135499390Y-107674000D01*
X136100610Y-107674000D01*
X136142091Y-107678085D01*
X136142091Y-107678085D01*
G37*
G36*
X134567091Y-107678085D02*
X134601069Y-107688393D01*
X134632387Y-107705133D01*
X134659839Y-107727661D01*
X134682367Y-107755113D01*
X134699107Y-107786431D01*
X134709415Y-107820409D01*
X134713500Y-107861890D01*
X134713500Y-108538110D01*
X134709415Y-108579591D01*
X134699107Y-108613569D01*
X134682367Y-108644887D01*
X134659839Y-108672339D01*
X134632387Y-108694867D01*
X134601069Y-108711607D01*
X134567091Y-108721915D01*
X134525610Y-108726000D01*
X133924390Y-108726000D01*
X133882909Y-108721915D01*
X133848931Y-108711607D01*
X133817613Y-108694867D01*
X133790161Y-108672339D01*
X133767633Y-108644887D01*
X133750893Y-108613569D01*
X133740585Y-108579591D01*
X133736500Y-108538110D01*
X133736500Y-107861890D01*
X133740585Y-107820409D01*
X133750893Y-107786431D01*
X133767633Y-107755113D01*
X133790161Y-107727661D01*
X133817613Y-107705133D01*
X133848931Y-107688393D01*
X133882909Y-107678085D01*
X133924390Y-107674000D01*
X134525610Y-107674000D01*
X134567091Y-107678085D01*
X134567091Y-107678085D01*
G37*
G36*
X125692857Y-103800083D02*
X125697528Y-103801500D01*
X125701830Y-103803800D01*
X125708205Y-103809031D01*
X125728580Y-103822644D01*
X125751219Y-103832020D01*
X125775253Y-103836800D01*
X125799757Y-103836799D01*
X125823791Y-103832017D01*
X125846429Y-103822639D01*
X125866795Y-103809031D01*
X125873170Y-103803800D01*
X125877472Y-103801500D01*
X125882143Y-103800083D01*
X125893141Y-103799000D01*
X126181859Y-103799000D01*
X126192857Y-103800083D01*
X126197528Y-103801500D01*
X126201830Y-103803800D01*
X126208205Y-103809031D01*
X126228580Y-103822644D01*
X126251219Y-103832020D01*
X126275253Y-103836800D01*
X126299757Y-103836799D01*
X126323791Y-103832017D01*
X126346429Y-103822639D01*
X126366795Y-103809031D01*
X126373170Y-103803800D01*
X126377472Y-103801500D01*
X126382143Y-103800083D01*
X126393141Y-103799000D01*
X126681859Y-103799000D01*
X126692857Y-103800083D01*
X126697528Y-103801500D01*
X126701830Y-103803800D01*
X126708205Y-103809031D01*
X126728580Y-103822644D01*
X126751219Y-103832020D01*
X126775253Y-103836800D01*
X126799757Y-103836799D01*
X126823791Y-103832017D01*
X126846429Y-103822639D01*
X126866795Y-103809031D01*
X126873170Y-103803800D01*
X126877472Y-103801500D01*
X126882143Y-103800083D01*
X126893141Y-103799000D01*
X127181859Y-103799000D01*
X127192857Y-103800083D01*
X127197528Y-103801500D01*
X127201830Y-103803800D01*
X127208205Y-103809031D01*
X127228580Y-103822644D01*
X127251219Y-103832020D01*
X127275253Y-103836800D01*
X127299757Y-103836799D01*
X127323791Y-103832017D01*
X127346429Y-103822639D01*
X127366795Y-103809031D01*
X127373170Y-103803800D01*
X127377472Y-103801500D01*
X127382143Y-103800083D01*
X127393141Y-103799000D01*
X127681859Y-103799000D01*
X127692857Y-103800083D01*
X127697528Y-103801500D01*
X127701830Y-103803800D01*
X127705604Y-103806896D01*
X127708700Y-103810670D01*
X127711000Y-103814972D01*
X127712417Y-103819643D01*
X127713500Y-103830641D01*
X127713500Y-104694359D01*
X127712417Y-104705357D01*
X127711000Y-104710028D01*
X127708699Y-104714333D01*
X127702057Y-104722427D01*
X127688444Y-104742802D01*
X127679068Y-104765442D01*
X127674288Y-104789475D01*
X127674290Y-104813980D01*
X127679071Y-104838013D01*
X127688450Y-104860651D01*
X127702065Y-104881025D01*
X127719393Y-104898351D01*
X127739764Y-104911962D01*
X127766969Y-104926503D01*
X127791151Y-104946349D01*
X127810997Y-104970531D01*
X127825538Y-104997736D01*
X127839152Y-105018111D01*
X127856479Y-105035438D01*
X127876853Y-105049052D01*
X127899492Y-105058430D01*
X127923525Y-105063211D01*
X127948030Y-105063211D01*
X127972063Y-105058431D01*
X127994702Y-105049054D01*
X128015073Y-105035443D01*
X128023167Y-105028801D01*
X128027472Y-105026500D01*
X128032143Y-105025083D01*
X128043141Y-105024000D01*
X128906859Y-105024000D01*
X128917857Y-105025083D01*
X128922528Y-105026500D01*
X128926830Y-105028800D01*
X128930604Y-105031896D01*
X128933700Y-105035670D01*
X128936000Y-105039972D01*
X128937417Y-105044643D01*
X128938500Y-105055641D01*
X128938500Y-105344359D01*
X128937417Y-105355357D01*
X128936000Y-105360028D01*
X128933700Y-105364330D01*
X128928469Y-105370705D01*
X128914856Y-105391080D01*
X128905480Y-105413719D01*
X128900700Y-105437753D01*
X128900701Y-105462257D01*
X128905483Y-105486291D01*
X128914861Y-105508929D01*
X128928469Y-105529295D01*
X128933700Y-105535670D01*
X128936000Y-105539972D01*
X128937417Y-105544643D01*
X128938500Y-105555641D01*
X128938500Y-105844359D01*
X128937417Y-105855357D01*
X128936000Y-105860028D01*
X128933700Y-105864330D01*
X128928469Y-105870705D01*
X128914856Y-105891080D01*
X128905480Y-105913719D01*
X128900700Y-105937753D01*
X128900701Y-105962257D01*
X128905483Y-105986291D01*
X128914861Y-106008929D01*
X128928469Y-106029295D01*
X128933700Y-106035670D01*
X128936000Y-106039972D01*
X128937417Y-106044643D01*
X128938500Y-106055641D01*
X128938500Y-106344359D01*
X128937417Y-106355357D01*
X128936000Y-106360028D01*
X128933700Y-106364330D01*
X128928469Y-106370705D01*
X128914856Y-106391080D01*
X128905480Y-106413719D01*
X128900700Y-106437753D01*
X128900701Y-106462257D01*
X128905483Y-106486291D01*
X128914861Y-106508929D01*
X128928469Y-106529295D01*
X128933700Y-106535670D01*
X128936000Y-106539972D01*
X128937417Y-106544643D01*
X128938500Y-106555641D01*
X128938500Y-106844359D01*
X128937417Y-106855357D01*
X128936000Y-106860028D01*
X128933700Y-106864330D01*
X128928469Y-106870705D01*
X128914856Y-106891080D01*
X128905480Y-106913719D01*
X128900700Y-106937753D01*
X128900701Y-106962257D01*
X128905483Y-106986291D01*
X128914861Y-107008929D01*
X128928469Y-107029295D01*
X128933700Y-107035670D01*
X128936000Y-107039972D01*
X128937417Y-107044643D01*
X128938500Y-107055641D01*
X128938500Y-107344359D01*
X128937417Y-107355357D01*
X128936000Y-107360028D01*
X128933700Y-107364330D01*
X128930604Y-107368104D01*
X128926830Y-107371200D01*
X128922528Y-107373500D01*
X128917857Y-107374917D01*
X128906859Y-107376000D01*
X128043141Y-107376000D01*
X128032143Y-107374917D01*
X128027472Y-107373500D01*
X128023167Y-107371199D01*
X128015073Y-107364557D01*
X127994698Y-107350944D01*
X127972058Y-107341568D01*
X127948025Y-107336788D01*
X127923520Y-107336790D01*
X127899487Y-107341571D01*
X127876849Y-107350950D01*
X127856475Y-107364565D01*
X127839149Y-107381893D01*
X127825538Y-107402264D01*
X127810997Y-107429469D01*
X127791151Y-107453651D01*
X127766969Y-107473497D01*
X127739764Y-107488038D01*
X127719389Y-107501652D01*
X127702062Y-107518979D01*
X127688448Y-107539353D01*
X127679070Y-107561992D01*
X127674289Y-107586025D01*
X127674289Y-107610530D01*
X127679069Y-107634563D01*
X127688446Y-107657202D01*
X127702057Y-107677573D01*
X127708699Y-107685667D01*
X127711000Y-107689972D01*
X127712417Y-107694643D01*
X127713500Y-107705641D01*
X127713500Y-108569359D01*
X127712417Y-108580357D01*
X127711000Y-108585028D01*
X127708700Y-108589330D01*
X127705604Y-108593104D01*
X127701830Y-108596200D01*
X127697528Y-108598500D01*
X127692857Y-108599917D01*
X127681859Y-108601000D01*
X127393141Y-108601000D01*
X127382143Y-108599917D01*
X127377472Y-108598500D01*
X127373170Y-108596200D01*
X127366795Y-108590969D01*
X127346420Y-108577356D01*
X127323781Y-108567980D01*
X127299747Y-108563200D01*
X127275243Y-108563201D01*
X127251209Y-108567983D01*
X127228571Y-108577361D01*
X127208205Y-108590969D01*
X127201830Y-108596200D01*
X127197528Y-108598500D01*
X127192857Y-108599917D01*
X127181859Y-108601000D01*
X126893141Y-108601000D01*
X126882143Y-108599917D01*
X126877472Y-108598500D01*
X126873170Y-108596200D01*
X126866795Y-108590969D01*
X126846420Y-108577356D01*
X126823781Y-108567980D01*
X126799747Y-108563200D01*
X126775243Y-108563201D01*
X126751209Y-108567983D01*
X126728571Y-108577361D01*
X126708205Y-108590969D01*
X126701830Y-108596200D01*
X126697528Y-108598500D01*
X126692857Y-108599917D01*
X126681859Y-108601000D01*
X126393141Y-108601000D01*
X126382143Y-108599917D01*
X126377472Y-108598500D01*
X126373170Y-108596200D01*
X126366795Y-108590969D01*
X126346420Y-108577356D01*
X126323781Y-108567980D01*
X126299747Y-108563200D01*
X126275243Y-108563201D01*
X126251209Y-108567983D01*
X126228571Y-108577361D01*
X126208205Y-108590969D01*
X126201830Y-108596200D01*
X126197528Y-108598500D01*
X126192857Y-108599917D01*
X126181859Y-108601000D01*
X125893141Y-108601000D01*
X125882143Y-108599917D01*
X125877472Y-108598500D01*
X125873170Y-108596200D01*
X125866795Y-108590969D01*
X125846420Y-108577356D01*
X125823781Y-108567980D01*
X125799747Y-108563200D01*
X125775243Y-108563201D01*
X125751209Y-108567983D01*
X125728571Y-108577361D01*
X125708205Y-108590969D01*
X125701830Y-108596200D01*
X125697528Y-108598500D01*
X125692857Y-108599917D01*
X125681859Y-108601000D01*
X125393141Y-108601000D01*
X125382143Y-108599917D01*
X125377472Y-108598500D01*
X125373170Y-108596200D01*
X125369396Y-108593104D01*
X125366300Y-108589330D01*
X125364000Y-108585028D01*
X125362583Y-108580357D01*
X125361500Y-108569359D01*
X125361500Y-107705641D01*
X125362583Y-107694643D01*
X125364000Y-107689972D01*
X125366301Y-107685667D01*
X125372943Y-107677573D01*
X125386556Y-107657198D01*
X125395932Y-107634558D01*
X125400712Y-107610525D01*
X125400710Y-107586020D01*
X125395929Y-107561987D01*
X125386550Y-107539349D01*
X125372935Y-107518975D01*
X125355607Y-107501649D01*
X125335236Y-107488038D01*
X125308031Y-107473497D01*
X125283849Y-107453651D01*
X125264003Y-107429469D01*
X125249462Y-107402264D01*
X125235848Y-107381889D01*
X125218521Y-107364562D01*
X125198147Y-107350948D01*
X125175508Y-107341570D01*
X125151475Y-107336789D01*
X125126970Y-107336789D01*
X125102937Y-107341569D01*
X125080298Y-107350946D01*
X125059927Y-107364557D01*
X125051833Y-107371199D01*
X125047528Y-107373500D01*
X125042857Y-107374917D01*
X125031859Y-107376000D01*
X124168141Y-107376000D01*
X124157143Y-107374917D01*
X124152472Y-107373500D01*
X124148170Y-107371200D01*
X124144396Y-107368104D01*
X124141300Y-107364330D01*
X124139000Y-107360028D01*
X124137583Y-107355357D01*
X124136500Y-107344359D01*
X124136500Y-107055641D01*
X124137583Y-107044643D01*
X124139000Y-107039972D01*
X124141300Y-107035670D01*
X124146531Y-107029295D01*
X124160144Y-107008920D01*
X124169520Y-106986281D01*
X124174300Y-106962247D01*
X124174299Y-106937743D01*
X124169517Y-106913709D01*
X124160139Y-106891071D01*
X124146531Y-106870705D01*
X124141300Y-106864330D01*
X124139000Y-106860028D01*
X124137583Y-106855357D01*
X124136500Y-106844359D01*
X124136500Y-106555641D01*
X124137583Y-106544643D01*
X124139000Y-106539972D01*
X124141300Y-106535670D01*
X124146531Y-106529295D01*
X124160144Y-106508920D01*
X124169520Y-106486281D01*
X124174300Y-106462247D01*
X124174299Y-106437743D01*
X124169517Y-106413709D01*
X124160139Y-106391071D01*
X124146531Y-106370705D01*
X124141300Y-106364330D01*
X124139000Y-106360028D01*
X124137583Y-106355357D01*
X124136500Y-106344359D01*
X124136500Y-106055641D01*
X124137583Y-106044643D01*
X124139000Y-106039972D01*
X124141300Y-106035670D01*
X124146531Y-106029295D01*
X124160144Y-106008920D01*
X124169520Y-105986281D01*
X124174300Y-105962247D01*
X124174299Y-105937743D01*
X124169517Y-105913709D01*
X124160139Y-105891071D01*
X124146531Y-105870705D01*
X124141300Y-105864330D01*
X124139000Y-105860028D01*
X124137583Y-105855357D01*
X124136500Y-105844359D01*
X124136500Y-105555641D01*
X124137583Y-105544643D01*
X124139000Y-105539972D01*
X124141300Y-105535670D01*
X124146531Y-105529295D01*
X124160144Y-105508920D01*
X124169520Y-105486281D01*
X124174300Y-105462247D01*
X124174299Y-105437743D01*
X124169517Y-105413709D01*
X124160139Y-105391071D01*
X124146531Y-105370705D01*
X124141300Y-105364330D01*
X124139000Y-105360028D01*
X124137583Y-105355357D01*
X124136500Y-105344359D01*
X124136500Y-105055641D01*
X124137583Y-105044643D01*
X124139000Y-105039972D01*
X124141300Y-105035670D01*
X124144396Y-105031896D01*
X124148170Y-105028800D01*
X124152472Y-105026500D01*
X124157143Y-105025083D01*
X124168141Y-105024000D01*
X125031859Y-105024000D01*
X125042857Y-105025083D01*
X125047528Y-105026500D01*
X125051833Y-105028801D01*
X125059927Y-105035443D01*
X125080302Y-105049056D01*
X125102942Y-105058432D01*
X125126975Y-105063212D01*
X125151480Y-105063210D01*
X125175513Y-105058429D01*
X125198151Y-105049050D01*
X125218525Y-105035435D01*
X125235851Y-105018107D01*
X125249462Y-104997736D01*
X125264003Y-104970531D01*
X125283849Y-104946349D01*
X125308031Y-104926503D01*
X125335236Y-104911962D01*
X125355611Y-104898348D01*
X125372938Y-104881021D01*
X125386552Y-104860647D01*
X125395930Y-104838008D01*
X125400711Y-104813975D01*
X125400711Y-104789470D01*
X125395931Y-104765437D01*
X125386554Y-104742798D01*
X125372943Y-104722427D01*
X125366301Y-104714333D01*
X125364000Y-104710028D01*
X125362583Y-104705357D01*
X125361500Y-104694359D01*
X125361500Y-103830641D01*
X125362583Y-103819643D01*
X125364000Y-103814972D01*
X125366300Y-103810670D01*
X125369396Y-103806896D01*
X125373170Y-103803800D01*
X125377472Y-103801500D01*
X125382143Y-103800083D01*
X125393141Y-103799000D01*
X125681859Y-103799000D01*
X125692857Y-103800083D01*
X125692857Y-103800083D01*
G37*
G36*
X142881938Y-106841716D02*
X142902556Y-106847970D01*
X142921556Y-106858126D01*
X142938208Y-106871792D01*
X142951874Y-106888444D01*
X142962030Y-106907444D01*
X142968284Y-106928062D01*
X142971000Y-106955640D01*
X142971000Y-107414360D01*
X142968284Y-107441938D01*
X142962030Y-107462556D01*
X142951874Y-107481556D01*
X142938208Y-107498208D01*
X142921556Y-107511874D01*
X142902556Y-107522030D01*
X142881938Y-107528284D01*
X142854360Y-107531000D01*
X142345640Y-107531000D01*
X142318062Y-107528284D01*
X142297444Y-107522030D01*
X142278444Y-107511874D01*
X142261792Y-107498208D01*
X142248126Y-107481556D01*
X142237970Y-107462556D01*
X142231716Y-107441938D01*
X142229000Y-107414360D01*
X142229000Y-106955640D01*
X142231716Y-106928062D01*
X142237970Y-106907444D01*
X142248126Y-106888444D01*
X142261792Y-106871792D01*
X142278444Y-106858126D01*
X142297444Y-106847970D01*
X142318062Y-106841716D01*
X142345640Y-106839000D01*
X142854360Y-106839000D01*
X142881938Y-106841716D01*
X142881938Y-106841716D01*
G37*
G36*
X141581938Y-106841716D02*
X141602556Y-106847970D01*
X141621556Y-106858126D01*
X141638208Y-106871792D01*
X141651874Y-106888444D01*
X141662030Y-106907444D01*
X141668284Y-106928062D01*
X141671000Y-106955640D01*
X141671000Y-107414360D01*
X141668284Y-107441938D01*
X141662030Y-107462556D01*
X141651874Y-107481556D01*
X141638208Y-107498208D01*
X141621556Y-107511874D01*
X141602556Y-107522030D01*
X141581938Y-107528284D01*
X141554360Y-107531000D01*
X141045640Y-107531000D01*
X141018062Y-107528284D01*
X140997444Y-107522030D01*
X140978444Y-107511874D01*
X140961792Y-107498208D01*
X140948126Y-107481556D01*
X140937970Y-107462556D01*
X140931716Y-107441938D01*
X140929000Y-107414360D01*
X140929000Y-106955640D01*
X140931716Y-106928062D01*
X140937970Y-106907444D01*
X140948126Y-106888444D01*
X140961792Y-106871792D01*
X140978444Y-106858126D01*
X140997444Y-106847970D01*
X141018062Y-106841716D01*
X141045640Y-106839000D01*
X141554360Y-106839000D01*
X141581938Y-106841716D01*
X141581938Y-106841716D01*
G37*
G36*
X119950442Y-105635518D02*
X120016627Y-105642037D01*
X120129853Y-105676384D01*
X120186467Y-105693557D01*
X120286574Y-105747066D01*
X120342991Y-105777222D01*
X120374602Y-105803165D01*
X120480186Y-105889814D01*
X120558827Y-105985640D01*
X120592778Y-106027009D01*
X120592779Y-106027011D01*
X120676443Y-106183533D01*
X120690566Y-106230092D01*
X120727963Y-106353373D01*
X120745359Y-106530000D01*
X120727963Y-106706627D01*
X120703279Y-106788000D01*
X120676443Y-106876467D01*
X120617745Y-106986281D01*
X120592778Y-107032991D01*
X120574189Y-107055641D01*
X120480186Y-107170186D01*
X120394141Y-107240800D01*
X120342991Y-107282778D01*
X120342989Y-107282779D01*
X120186467Y-107366443D01*
X120158531Y-107374917D01*
X120016627Y-107417963D01*
X119953260Y-107424204D01*
X119884260Y-107431000D01*
X119795740Y-107431000D01*
X119726740Y-107424204D01*
X119663373Y-107417963D01*
X119521469Y-107374917D01*
X119493533Y-107366443D01*
X119337011Y-107282779D01*
X119337009Y-107282778D01*
X119285859Y-107240800D01*
X119199814Y-107170186D01*
X119105811Y-107055641D01*
X119087222Y-107032991D01*
X119062255Y-106986281D01*
X119003557Y-106876467D01*
X118976721Y-106788000D01*
X118952037Y-106706627D01*
X118934641Y-106530000D01*
X118952037Y-106353373D01*
X118989434Y-106230092D01*
X119003557Y-106183533D01*
X119087221Y-106027011D01*
X119087222Y-106027009D01*
X119121173Y-105985640D01*
X119199814Y-105889814D01*
X119305398Y-105803165D01*
X119337009Y-105777222D01*
X119393426Y-105747066D01*
X119493533Y-105693557D01*
X119550147Y-105676384D01*
X119663373Y-105642037D01*
X119729558Y-105635518D01*
X119795740Y-105629000D01*
X119884260Y-105629000D01*
X119950442Y-105635518D01*
X119950442Y-105635518D01*
G37*
G36*
X117410442Y-105635518D02*
X117476627Y-105642037D01*
X117589853Y-105676384D01*
X117646467Y-105693557D01*
X117746574Y-105747066D01*
X117802991Y-105777222D01*
X117834602Y-105803165D01*
X117940186Y-105889814D01*
X118018827Y-105985640D01*
X118052778Y-106027009D01*
X118052779Y-106027011D01*
X118136443Y-106183533D01*
X118150566Y-106230092D01*
X118187963Y-106353373D01*
X118205359Y-106530000D01*
X118187963Y-106706627D01*
X118163279Y-106788000D01*
X118136443Y-106876467D01*
X118077745Y-106986281D01*
X118052778Y-107032991D01*
X118034189Y-107055641D01*
X117940186Y-107170186D01*
X117854141Y-107240800D01*
X117802991Y-107282778D01*
X117802989Y-107282779D01*
X117646467Y-107366443D01*
X117618531Y-107374917D01*
X117476627Y-107417963D01*
X117413260Y-107424204D01*
X117344260Y-107431000D01*
X117255740Y-107431000D01*
X117186740Y-107424204D01*
X117123373Y-107417963D01*
X116981469Y-107374917D01*
X116953533Y-107366443D01*
X116797011Y-107282779D01*
X116797009Y-107282778D01*
X116745859Y-107240800D01*
X116659814Y-107170186D01*
X116565811Y-107055641D01*
X116547222Y-107032991D01*
X116522255Y-106986281D01*
X116463557Y-106876467D01*
X116436721Y-106788000D01*
X116412037Y-106706627D01*
X116394641Y-106530000D01*
X116412037Y-106353373D01*
X116449434Y-106230092D01*
X116463557Y-106183533D01*
X116547221Y-106027011D01*
X116547222Y-106027009D01*
X116581173Y-105985640D01*
X116659814Y-105889814D01*
X116765398Y-105803165D01*
X116797009Y-105777222D01*
X116853426Y-105747066D01*
X116953533Y-105693557D01*
X117010147Y-105676384D01*
X117123373Y-105642037D01*
X117189558Y-105635518D01*
X117255740Y-105629000D01*
X117344260Y-105629000D01*
X117410442Y-105635518D01*
X117410442Y-105635518D01*
G37*
G36*
X131179591Y-106215585D02*
X131213569Y-106225893D01*
X131244887Y-106242633D01*
X131272339Y-106265161D01*
X131294867Y-106292613D01*
X131311607Y-106323931D01*
X131321915Y-106357909D01*
X131326000Y-106399390D01*
X131326000Y-107000610D01*
X131321915Y-107042091D01*
X131311607Y-107076069D01*
X131294867Y-107107387D01*
X131272339Y-107134839D01*
X131244887Y-107157367D01*
X131213569Y-107174107D01*
X131179591Y-107184415D01*
X131138110Y-107188500D01*
X130461890Y-107188500D01*
X130420409Y-107184415D01*
X130386431Y-107174107D01*
X130355113Y-107157367D01*
X130327661Y-107134839D01*
X130305133Y-107107387D01*
X130288393Y-107076069D01*
X130278085Y-107042091D01*
X130274000Y-107000610D01*
X130274000Y-106399390D01*
X130278085Y-106357909D01*
X130288393Y-106323931D01*
X130305133Y-106292613D01*
X130327661Y-106265161D01*
X130355113Y-106242633D01*
X130386431Y-106225893D01*
X130420409Y-106215585D01*
X130461890Y-106211500D01*
X131138110Y-106211500D01*
X131179591Y-106215585D01*
X131179591Y-106215585D01*
G37*
G36*
X138601000Y-103099000D02*
X138603402Y-103123386D01*
X138610515Y-103146835D01*
X138622066Y-103168446D01*
X138637612Y-103187388D01*
X138656554Y-103202934D01*
X138678165Y-103214485D01*
X138701614Y-103221598D01*
X138703242Y-103221758D01*
X138703402Y-103223386D01*
X138710515Y-103246835D01*
X138722066Y-103268446D01*
X138737612Y-103287388D01*
X138756554Y-103302934D01*
X138778165Y-103314485D01*
X138801614Y-103321598D01*
X138826000Y-103324000D01*
X139851000Y-103324000D01*
X139851000Y-105726000D01*
X138826000Y-105726000D01*
X138801614Y-105728402D01*
X138778165Y-105735515D01*
X138756554Y-105747066D01*
X138737612Y-105762612D01*
X138722066Y-105781554D01*
X138710515Y-105803165D01*
X138703402Y-105826614D01*
X138703242Y-105828242D01*
X138701614Y-105828402D01*
X138678165Y-105835515D01*
X138656554Y-105847066D01*
X138637612Y-105862612D01*
X138622066Y-105881554D01*
X138610515Y-105903165D01*
X138603402Y-105926614D01*
X138601000Y-105951000D01*
X138601000Y-106976000D01*
X136199000Y-106976000D01*
X136199000Y-105951000D01*
X136196598Y-105926614D01*
X136189485Y-105903165D01*
X136177934Y-105881554D01*
X136162388Y-105862612D01*
X136143446Y-105847066D01*
X136121835Y-105835515D01*
X136098386Y-105828402D01*
X136096758Y-105828242D01*
X136096598Y-105826614D01*
X136089485Y-105803165D01*
X136077934Y-105781554D01*
X136062388Y-105762612D01*
X136043446Y-105747066D01*
X136021835Y-105735515D01*
X135998386Y-105728402D01*
X135974000Y-105726000D01*
X134949000Y-105726000D01*
X134949000Y-103324000D01*
X135974000Y-103324000D01*
X135998386Y-103321598D01*
X136021835Y-103314485D01*
X136043446Y-103302934D01*
X136062388Y-103287388D01*
X136077934Y-103268446D01*
X136089485Y-103246835D01*
X136096598Y-103223386D01*
X136096758Y-103221758D01*
X136098386Y-103221598D01*
X136121835Y-103214485D01*
X136143446Y-103202934D01*
X136162388Y-103187388D01*
X136177934Y-103168446D01*
X136189485Y-103146835D01*
X136196598Y-103123386D01*
X136199000Y-103099000D01*
X136199000Y-102074000D01*
X138601000Y-102074000D01*
X138601000Y-103099000D01*
X138601000Y-103099000D01*
G37*
G36*
X141581938Y-105871716D02*
X141602556Y-105877970D01*
X141621556Y-105888126D01*
X141638208Y-105901792D01*
X141651874Y-105918444D01*
X141662030Y-105937444D01*
X141668284Y-105958062D01*
X141671000Y-105985640D01*
X141671000Y-106444360D01*
X141668284Y-106471938D01*
X141662030Y-106492556D01*
X141651874Y-106511556D01*
X141638208Y-106528208D01*
X141621556Y-106541874D01*
X141602556Y-106552030D01*
X141581938Y-106558284D01*
X141554360Y-106561000D01*
X141045640Y-106561000D01*
X141018062Y-106558284D01*
X140997444Y-106552030D01*
X140978444Y-106541874D01*
X140961792Y-106528208D01*
X140948126Y-106511556D01*
X140937970Y-106492556D01*
X140931716Y-106471938D01*
X140929000Y-106444360D01*
X140929000Y-105985640D01*
X140931716Y-105958062D01*
X140937970Y-105937444D01*
X140948126Y-105918444D01*
X140961792Y-105901792D01*
X140978444Y-105888126D01*
X140997444Y-105877970D01*
X141018062Y-105871716D01*
X141045640Y-105869000D01*
X141554360Y-105869000D01*
X141581938Y-105871716D01*
X141581938Y-105871716D01*
G37*
G36*
X142881938Y-105871716D02*
X142902556Y-105877970D01*
X142921556Y-105888126D01*
X142938208Y-105901792D01*
X142951874Y-105918444D01*
X142962030Y-105937444D01*
X142968284Y-105958062D01*
X142971000Y-105985640D01*
X142971000Y-106444360D01*
X142968284Y-106471938D01*
X142962030Y-106492556D01*
X142951874Y-106511556D01*
X142938208Y-106528208D01*
X142921556Y-106541874D01*
X142902556Y-106552030D01*
X142881938Y-106558284D01*
X142854360Y-106561000D01*
X142345640Y-106561000D01*
X142318062Y-106558284D01*
X142297444Y-106552030D01*
X142278444Y-106541874D01*
X142261792Y-106528208D01*
X142248126Y-106511556D01*
X142237970Y-106492556D01*
X142231716Y-106471938D01*
X142229000Y-106444360D01*
X142229000Y-105985640D01*
X142231716Y-105958062D01*
X142237970Y-105937444D01*
X142248126Y-105918444D01*
X142261792Y-105901792D01*
X142278444Y-105888126D01*
X142297444Y-105877970D01*
X142318062Y-105871716D01*
X142345640Y-105869000D01*
X142854360Y-105869000D01*
X142881938Y-105871716D01*
X142881938Y-105871716D01*
G37*
G36*
X131179591Y-104640585D02*
X131213569Y-104650893D01*
X131244887Y-104667633D01*
X131272339Y-104690161D01*
X131294867Y-104717613D01*
X131311607Y-104748931D01*
X131321915Y-104782909D01*
X131326000Y-104824390D01*
X131326000Y-105425610D01*
X131321915Y-105467091D01*
X131311607Y-105501069D01*
X131294867Y-105532387D01*
X131272339Y-105559839D01*
X131244887Y-105582367D01*
X131213569Y-105599107D01*
X131179591Y-105609415D01*
X131138110Y-105613500D01*
X130461890Y-105613500D01*
X130420409Y-105609415D01*
X130386431Y-105599107D01*
X130355113Y-105582367D01*
X130327661Y-105559839D01*
X130305133Y-105532387D01*
X130288393Y-105501069D01*
X130278085Y-105467091D01*
X130274000Y-105425610D01*
X130274000Y-104824390D01*
X130278085Y-104782909D01*
X130288393Y-104748931D01*
X130305133Y-104717613D01*
X130327661Y-104690161D01*
X130355113Y-104667633D01*
X130386431Y-104650893D01*
X130420409Y-104640585D01*
X130461890Y-104636500D01*
X131138110Y-104636500D01*
X131179591Y-104640585D01*
X131179591Y-104640585D01*
G37*
G36*
X119950443Y-103095519D02*
X120016627Y-103102037D01*
X120087005Y-103123386D01*
X120186467Y-103153557D01*
X120313761Y-103221598D01*
X120342991Y-103237222D01*
X120354704Y-103246835D01*
X120480186Y-103349814D01*
X120563448Y-103451271D01*
X120592778Y-103487009D01*
X120592779Y-103487011D01*
X120676443Y-103643533D01*
X120676443Y-103643534D01*
X120727963Y-103813373D01*
X120745359Y-103990000D01*
X120727963Y-104166627D01*
X120693616Y-104279853D01*
X120676443Y-104336467D01*
X120628586Y-104426000D01*
X120592778Y-104492991D01*
X120563448Y-104528729D01*
X120480186Y-104630186D01*
X120385320Y-104708039D01*
X120342991Y-104742778D01*
X120342946Y-104742802D01*
X120186467Y-104826443D01*
X120148325Y-104838013D01*
X120016627Y-104877963D01*
X119950443Y-104884481D01*
X119884260Y-104891000D01*
X119795740Y-104891000D01*
X119729557Y-104884481D01*
X119663373Y-104877963D01*
X119531675Y-104838013D01*
X119493533Y-104826443D01*
X119337054Y-104742802D01*
X119337009Y-104742778D01*
X119294680Y-104708039D01*
X119199814Y-104630186D01*
X119116552Y-104528729D01*
X119087222Y-104492991D01*
X119051414Y-104426000D01*
X119003557Y-104336467D01*
X118986384Y-104279853D01*
X118952037Y-104166627D01*
X118934641Y-103990000D01*
X118952037Y-103813373D01*
X119003557Y-103643534D01*
X119003557Y-103643533D01*
X119087221Y-103487011D01*
X119087222Y-103487009D01*
X119116552Y-103451271D01*
X119199814Y-103349814D01*
X119325296Y-103246835D01*
X119337009Y-103237222D01*
X119366239Y-103221598D01*
X119493533Y-103153557D01*
X119592995Y-103123386D01*
X119663373Y-103102037D01*
X119729557Y-103095519D01*
X119795740Y-103089000D01*
X119884260Y-103089000D01*
X119950443Y-103095519D01*
X119950443Y-103095519D01*
G37*
G36*
X117410443Y-103095519D02*
X117476627Y-103102037D01*
X117547005Y-103123386D01*
X117646467Y-103153557D01*
X117773761Y-103221598D01*
X117802991Y-103237222D01*
X117814704Y-103246835D01*
X117940186Y-103349814D01*
X118023448Y-103451271D01*
X118052778Y-103487009D01*
X118052779Y-103487011D01*
X118136443Y-103643533D01*
X118136443Y-103643534D01*
X118187963Y-103813373D01*
X118205359Y-103990000D01*
X118187963Y-104166627D01*
X118153616Y-104279853D01*
X118136443Y-104336467D01*
X118088586Y-104426000D01*
X118052778Y-104492991D01*
X118023448Y-104528729D01*
X117940186Y-104630186D01*
X117845320Y-104708039D01*
X117802991Y-104742778D01*
X117802946Y-104742802D01*
X117646467Y-104826443D01*
X117608325Y-104838013D01*
X117476627Y-104877963D01*
X117410443Y-104884481D01*
X117344260Y-104891000D01*
X117255740Y-104891000D01*
X117189557Y-104884481D01*
X117123373Y-104877963D01*
X116991675Y-104838013D01*
X116953533Y-104826443D01*
X116797054Y-104742802D01*
X116797009Y-104742778D01*
X116754680Y-104708039D01*
X116659814Y-104630186D01*
X116576552Y-104528729D01*
X116547222Y-104492991D01*
X116511414Y-104426000D01*
X116463557Y-104336467D01*
X116446384Y-104279853D01*
X116412037Y-104166627D01*
X116394641Y-103990000D01*
X116412037Y-103813373D01*
X116463557Y-103643534D01*
X116463557Y-103643533D01*
X116547221Y-103487011D01*
X116547222Y-103487009D01*
X116576552Y-103451271D01*
X116659814Y-103349814D01*
X116785296Y-103246835D01*
X116797009Y-103237222D01*
X116826239Y-103221598D01*
X116953533Y-103153557D01*
X117052995Y-103123386D01*
X117123373Y-103102037D01*
X117189557Y-103095519D01*
X117255740Y-103089000D01*
X117344260Y-103089000D01*
X117410443Y-103095519D01*
X117410443Y-103095519D01*
G37*
G36*
X119950443Y-100555519D02*
X120016627Y-100562037D01*
X120129853Y-100596384D01*
X120186467Y-100613557D01*
X120325087Y-100687652D01*
X120342991Y-100697222D01*
X120372879Y-100721751D01*
X120480186Y-100809814D01*
X120563448Y-100911271D01*
X120592778Y-100947009D01*
X120592779Y-100947011D01*
X120676443Y-101103533D01*
X120691196Y-101152169D01*
X120727963Y-101273373D01*
X120745359Y-101450000D01*
X120727963Y-101626627D01*
X120698363Y-101724204D01*
X120676443Y-101796467D01*
X120618405Y-101905047D01*
X120592778Y-101952991D01*
X120563448Y-101988729D01*
X120480186Y-102090186D01*
X120378729Y-102173448D01*
X120342991Y-102202778D01*
X120342989Y-102202779D01*
X120186467Y-102286443D01*
X120129853Y-102303616D01*
X120016627Y-102337963D01*
X119950442Y-102344482D01*
X119884260Y-102351000D01*
X119795740Y-102351000D01*
X119729558Y-102344482D01*
X119663373Y-102337963D01*
X119550147Y-102303616D01*
X119493533Y-102286443D01*
X119337011Y-102202779D01*
X119337009Y-102202778D01*
X119301271Y-102173448D01*
X119199814Y-102090186D01*
X119116552Y-101988729D01*
X119087222Y-101952991D01*
X119061595Y-101905047D01*
X119003557Y-101796467D01*
X118981637Y-101724204D01*
X118952037Y-101626627D01*
X118934641Y-101450000D01*
X118952037Y-101273373D01*
X118988804Y-101152169D01*
X119003557Y-101103533D01*
X119087221Y-100947011D01*
X119087222Y-100947009D01*
X119116552Y-100911271D01*
X119199814Y-100809814D01*
X119307121Y-100721751D01*
X119337009Y-100697222D01*
X119354913Y-100687652D01*
X119493533Y-100613557D01*
X119550147Y-100596384D01*
X119663373Y-100562037D01*
X119729558Y-100555518D01*
X119795740Y-100549000D01*
X119884260Y-100549000D01*
X119950443Y-100555519D01*
X119950443Y-100555519D01*
G37*
G36*
X117410443Y-100555519D02*
X117476627Y-100562037D01*
X117589853Y-100596384D01*
X117646467Y-100613557D01*
X117785087Y-100687652D01*
X117802991Y-100697222D01*
X117832879Y-100721751D01*
X117940186Y-100809814D01*
X118023448Y-100911271D01*
X118052778Y-100947009D01*
X118052779Y-100947011D01*
X118136443Y-101103533D01*
X118151196Y-101152169D01*
X118187963Y-101273373D01*
X118205359Y-101450000D01*
X118187963Y-101626627D01*
X118158363Y-101724204D01*
X118136443Y-101796467D01*
X118078405Y-101905047D01*
X118052778Y-101952991D01*
X118023448Y-101988729D01*
X117940186Y-102090186D01*
X117838729Y-102173448D01*
X117802991Y-102202778D01*
X117802989Y-102202779D01*
X117646467Y-102286443D01*
X117589853Y-102303616D01*
X117476627Y-102337963D01*
X117410442Y-102344482D01*
X117344260Y-102351000D01*
X117255740Y-102351000D01*
X117189558Y-102344482D01*
X117123373Y-102337963D01*
X117010147Y-102303616D01*
X116953533Y-102286443D01*
X116797011Y-102202779D01*
X116797009Y-102202778D01*
X116761271Y-102173448D01*
X116659814Y-102090186D01*
X116576552Y-101988729D01*
X116547222Y-101952991D01*
X116521595Y-101905047D01*
X116463557Y-101796467D01*
X116441637Y-101724204D01*
X116412037Y-101626627D01*
X116394641Y-101450000D01*
X116412037Y-101273373D01*
X116448804Y-101152169D01*
X116463557Y-101103533D01*
X116547221Y-100947011D01*
X116547222Y-100947009D01*
X116576552Y-100911271D01*
X116659814Y-100809814D01*
X116767121Y-100721751D01*
X116797009Y-100697222D01*
X116814913Y-100687652D01*
X116953533Y-100613557D01*
X117010147Y-100596384D01*
X117123373Y-100562037D01*
X117189558Y-100555518D01*
X117255740Y-100549000D01*
X117344260Y-100549000D01*
X117410443Y-100555519D01*
X117410443Y-100555519D01*
G37*
G36*
X133987308Y-98453498D02*
X134025317Y-98465028D01*
X134060348Y-98483753D01*
X134091050Y-98508950D01*
X134116247Y-98539652D01*
X134134972Y-98574683D01*
X134146502Y-98612692D01*
X134151000Y-98658362D01*
X134151000Y-101741638D01*
X134146502Y-101787308D01*
X134134972Y-101825317D01*
X134116247Y-101860348D01*
X134091050Y-101891050D01*
X134060348Y-101916247D01*
X134025317Y-101934972D01*
X133987308Y-101946502D01*
X133941638Y-101951000D01*
X133133362Y-101951000D01*
X133087692Y-101946502D01*
X133049683Y-101934972D01*
X133014652Y-101916247D01*
X132983950Y-101891050D01*
X132958753Y-101860348D01*
X132940028Y-101825317D01*
X132928498Y-101787308D01*
X132924000Y-101741638D01*
X132924000Y-98658362D01*
X132928498Y-98612692D01*
X132940028Y-98574683D01*
X132958753Y-98539652D01*
X132983950Y-98508950D01*
X133014652Y-98483753D01*
X133049683Y-98465028D01*
X133087692Y-98453498D01*
X133133362Y-98449000D01*
X133941638Y-98449000D01*
X133987308Y-98453498D01*
X133987308Y-98453498D01*
G37*
G36*
X129712308Y-98453498D02*
X129750317Y-98465028D01*
X129785348Y-98483753D01*
X129816050Y-98508950D01*
X129841247Y-98539652D01*
X129859972Y-98574683D01*
X129871502Y-98612692D01*
X129876000Y-98658362D01*
X129876000Y-101741638D01*
X129871502Y-101787308D01*
X129859972Y-101825317D01*
X129841247Y-101860348D01*
X129816050Y-101891050D01*
X129785348Y-101916247D01*
X129750317Y-101934972D01*
X129712308Y-101946502D01*
X129666638Y-101951000D01*
X128858362Y-101951000D01*
X128812692Y-101946502D01*
X128774683Y-101934972D01*
X128739652Y-101916247D01*
X128708950Y-101891050D01*
X128683753Y-101860348D01*
X128665028Y-101825317D01*
X128653498Y-101787308D01*
X128649000Y-101741638D01*
X128649000Y-98658362D01*
X128653498Y-98612692D01*
X128665028Y-98574683D01*
X128683753Y-98539652D01*
X128708950Y-98508950D01*
X128739652Y-98483753D01*
X128774683Y-98465028D01*
X128812692Y-98453498D01*
X128858362Y-98449000D01*
X129666638Y-98449000D01*
X129712308Y-98453498D01*
X129712308Y-98453498D01*
G37*
G36*
X124581938Y-101141716D02*
X124602556Y-101147970D01*
X124621556Y-101158126D01*
X124638208Y-101171792D01*
X124651874Y-101188444D01*
X124662030Y-101207444D01*
X124668284Y-101228062D01*
X124671000Y-101255640D01*
X124671000Y-101714360D01*
X124668284Y-101741938D01*
X124662030Y-101762556D01*
X124651874Y-101781556D01*
X124638208Y-101798208D01*
X124621556Y-101811874D01*
X124602556Y-101822030D01*
X124581938Y-101828284D01*
X124554360Y-101831000D01*
X124045640Y-101831000D01*
X124018062Y-101828284D01*
X123997444Y-101822030D01*
X123978444Y-101811874D01*
X123961792Y-101798208D01*
X123948126Y-101781556D01*
X123937970Y-101762556D01*
X123931716Y-101741938D01*
X123929000Y-101714360D01*
X123929000Y-101255640D01*
X123931716Y-101228062D01*
X123937970Y-101207444D01*
X123948126Y-101188444D01*
X123961792Y-101171792D01*
X123978444Y-101158126D01*
X123997444Y-101147970D01*
X124018062Y-101141716D01*
X124045640Y-101139000D01*
X124554360Y-101139000D01*
X124581938Y-101141716D01*
X124581938Y-101141716D01*
G37*
G36*
X127481938Y-101141716D02*
X127502556Y-101147970D01*
X127521556Y-101158126D01*
X127538208Y-101171792D01*
X127551874Y-101188444D01*
X127562030Y-101207444D01*
X127568284Y-101228062D01*
X127571000Y-101255640D01*
X127571000Y-101714360D01*
X127568284Y-101741938D01*
X127562030Y-101762556D01*
X127551874Y-101781556D01*
X127538208Y-101798208D01*
X127521556Y-101811874D01*
X127502556Y-101822030D01*
X127481938Y-101828284D01*
X127454360Y-101831000D01*
X126945640Y-101831000D01*
X126918062Y-101828284D01*
X126897444Y-101822030D01*
X126878444Y-101811874D01*
X126861792Y-101798208D01*
X126848126Y-101781556D01*
X126837970Y-101762556D01*
X126831716Y-101741938D01*
X126829000Y-101714360D01*
X126829000Y-101255640D01*
X126831716Y-101228062D01*
X126837970Y-101207444D01*
X126848126Y-101188444D01*
X126861792Y-101171792D01*
X126878444Y-101158126D01*
X126897444Y-101147970D01*
X126918062Y-101141716D01*
X126945640Y-101139000D01*
X127454360Y-101139000D01*
X127481938Y-101141716D01*
X127481938Y-101141716D01*
G37*
G36*
X125981938Y-101141716D02*
X126002556Y-101147970D01*
X126021556Y-101158126D01*
X126038208Y-101171792D01*
X126051874Y-101188444D01*
X126062030Y-101207444D01*
X126068284Y-101228062D01*
X126071000Y-101255640D01*
X126071000Y-101714360D01*
X126068284Y-101741938D01*
X126062030Y-101762556D01*
X126051874Y-101781556D01*
X126038208Y-101798208D01*
X126021556Y-101811874D01*
X126002556Y-101822030D01*
X125981938Y-101828284D01*
X125954360Y-101831000D01*
X125445640Y-101831000D01*
X125418062Y-101828284D01*
X125397444Y-101822030D01*
X125378444Y-101811874D01*
X125361792Y-101798208D01*
X125348126Y-101781556D01*
X125337970Y-101762556D01*
X125331716Y-101741938D01*
X125329000Y-101714360D01*
X125329000Y-101255640D01*
X125331716Y-101228062D01*
X125337970Y-101207444D01*
X125348126Y-101188444D01*
X125361792Y-101171792D01*
X125378444Y-101158126D01*
X125397444Y-101147970D01*
X125418062Y-101141716D01*
X125445640Y-101139000D01*
X125954360Y-101139000D01*
X125981938Y-101141716D01*
X125981938Y-101141716D01*
G37*
G36*
X141951000Y-101001000D02*
X141249000Y-101001000D01*
X141249000Y-100399000D01*
X141951000Y-100399000D01*
X141951000Y-101001000D01*
X141951000Y-101001000D01*
G37*
G36*
X124581938Y-100171716D02*
X124602556Y-100177970D01*
X124621556Y-100188126D01*
X124638208Y-100201792D01*
X124651874Y-100218444D01*
X124662030Y-100237444D01*
X124668284Y-100258062D01*
X124671000Y-100285640D01*
X124671000Y-100744360D01*
X124668284Y-100771938D01*
X124662030Y-100792556D01*
X124651874Y-100811556D01*
X124638208Y-100828208D01*
X124621556Y-100841874D01*
X124602556Y-100852030D01*
X124581938Y-100858284D01*
X124554360Y-100861000D01*
X124045640Y-100861000D01*
X124018062Y-100858284D01*
X123997444Y-100852030D01*
X123978444Y-100841874D01*
X123961792Y-100828208D01*
X123948126Y-100811556D01*
X123937970Y-100792556D01*
X123931716Y-100771938D01*
X123929000Y-100744360D01*
X123929000Y-100285640D01*
X123931716Y-100258062D01*
X123937970Y-100237444D01*
X123948126Y-100218444D01*
X123961792Y-100201792D01*
X123978444Y-100188126D01*
X123997444Y-100177970D01*
X124018062Y-100171716D01*
X124045640Y-100169000D01*
X124554360Y-100169000D01*
X124581938Y-100171716D01*
X124581938Y-100171716D01*
G37*
G36*
X125981938Y-100171716D02*
X126002556Y-100177970D01*
X126021556Y-100188126D01*
X126038208Y-100201792D01*
X126051874Y-100218444D01*
X126062030Y-100237444D01*
X126068284Y-100258062D01*
X126071000Y-100285640D01*
X126071000Y-100744360D01*
X126068284Y-100771938D01*
X126062030Y-100792556D01*
X126051874Y-100811556D01*
X126038208Y-100828208D01*
X126021556Y-100841874D01*
X126002556Y-100852030D01*
X125981938Y-100858284D01*
X125954360Y-100861000D01*
X125445640Y-100861000D01*
X125418062Y-100858284D01*
X125397444Y-100852030D01*
X125378444Y-100841874D01*
X125361792Y-100828208D01*
X125348126Y-100811556D01*
X125337970Y-100792556D01*
X125331716Y-100771938D01*
X125329000Y-100744360D01*
X125329000Y-100285640D01*
X125331716Y-100258062D01*
X125337970Y-100237444D01*
X125348126Y-100218444D01*
X125361792Y-100201792D01*
X125378444Y-100188126D01*
X125397444Y-100177970D01*
X125418062Y-100171716D01*
X125445640Y-100169000D01*
X125954360Y-100169000D01*
X125981938Y-100171716D01*
X125981938Y-100171716D01*
G37*
G36*
X127481938Y-100171716D02*
X127502556Y-100177970D01*
X127521556Y-100188126D01*
X127538208Y-100201792D01*
X127551874Y-100218444D01*
X127562030Y-100237444D01*
X127568284Y-100258062D01*
X127571000Y-100285640D01*
X127571000Y-100744360D01*
X127568284Y-100771938D01*
X127562030Y-100792556D01*
X127551874Y-100811556D01*
X127538208Y-100828208D01*
X127521556Y-100841874D01*
X127502556Y-100852030D01*
X127481938Y-100858284D01*
X127454360Y-100861000D01*
X126945640Y-100861000D01*
X126918062Y-100858284D01*
X126897444Y-100852030D01*
X126878444Y-100841874D01*
X126861792Y-100828208D01*
X126848126Y-100811556D01*
X126837970Y-100792556D01*
X126831716Y-100771938D01*
X126829000Y-100744360D01*
X126829000Y-100285640D01*
X126831716Y-100258062D01*
X126837970Y-100237444D01*
X126848126Y-100218444D01*
X126861792Y-100201792D01*
X126878444Y-100188126D01*
X126897444Y-100177970D01*
X126918062Y-100171716D01*
X126945640Y-100169000D01*
X127454360Y-100169000D01*
X127481938Y-100171716D01*
X127481938Y-100171716D01*
G37*
G36*
X143251000Y-100501000D02*
X142549000Y-100501000D01*
X142549000Y-99899000D01*
X143251000Y-99899000D01*
X143251000Y-100501000D01*
X143251000Y-100501000D01*
G37*
G36*
X138305996Y-97453051D02*
X138339653Y-97463261D01*
X138370667Y-97479838D01*
X138397852Y-97502148D01*
X138420162Y-97529333D01*
X138436739Y-97560347D01*
X138446949Y-97594004D01*
X138451000Y-97635138D01*
X138451000Y-99964862D01*
X138446949Y-100005996D01*
X138436739Y-100039653D01*
X138420162Y-100070667D01*
X138397852Y-100097852D01*
X138370667Y-100120162D01*
X138339653Y-100136739D01*
X138305996Y-100146949D01*
X138264862Y-100151000D01*
X136935138Y-100151000D01*
X136894004Y-100146949D01*
X136860347Y-100136739D01*
X136829333Y-100120162D01*
X136802148Y-100097852D01*
X136779838Y-100070667D01*
X136763261Y-100039653D01*
X136753051Y-100005996D01*
X136749000Y-99964862D01*
X136749000Y-97635138D01*
X136753051Y-97594004D01*
X136763261Y-97560347D01*
X136779838Y-97529333D01*
X136802148Y-97502148D01*
X136829333Y-97479838D01*
X136860347Y-97463261D01*
X136894004Y-97453051D01*
X136935138Y-97449000D01*
X138264862Y-97449000D01*
X138305996Y-97453051D01*
X138305996Y-97453051D01*
G37*
G36*
X141951000Y-100001000D02*
X141249000Y-100001000D01*
X141249000Y-99399000D01*
X141951000Y-99399000D01*
X141951000Y-100001000D01*
X141951000Y-100001000D01*
G37*
G36*
X119950442Y-98015518D02*
X120016627Y-98022037D01*
X120100752Y-98047556D01*
X120186467Y-98073557D01*
X120297359Y-98132831D01*
X120342991Y-98157222D01*
X120363435Y-98174000D01*
X120480186Y-98269814D01*
X120555750Y-98361890D01*
X120592778Y-98407009D01*
X120592779Y-98407011D01*
X120676443Y-98563533D01*
X120679825Y-98574683D01*
X120727963Y-98733373D01*
X120745359Y-98910000D01*
X120727963Y-99086627D01*
X120698172Y-99184836D01*
X120676443Y-99256467D01*
X120602348Y-99395087D01*
X120592778Y-99412991D01*
X120563448Y-99448729D01*
X120480186Y-99550186D01*
X120378729Y-99633448D01*
X120342991Y-99662778D01*
X120342989Y-99662779D01*
X120186467Y-99746443D01*
X120129853Y-99763616D01*
X120016627Y-99797963D01*
X119950443Y-99804481D01*
X119884260Y-99811000D01*
X119795740Y-99811000D01*
X119729558Y-99804482D01*
X119663373Y-99797963D01*
X119550147Y-99763616D01*
X119493533Y-99746443D01*
X119337011Y-99662779D01*
X119337009Y-99662778D01*
X119301271Y-99633448D01*
X119199814Y-99550186D01*
X119116552Y-99448729D01*
X119087222Y-99412991D01*
X119077652Y-99395087D01*
X119003557Y-99256467D01*
X118981828Y-99184836D01*
X118952037Y-99086627D01*
X118934641Y-98910000D01*
X118952037Y-98733373D01*
X119000175Y-98574683D01*
X119003557Y-98563533D01*
X119087221Y-98407011D01*
X119087222Y-98407009D01*
X119124250Y-98361890D01*
X119199814Y-98269814D01*
X119316565Y-98174000D01*
X119337009Y-98157222D01*
X119382641Y-98132831D01*
X119493533Y-98073557D01*
X119579248Y-98047556D01*
X119663373Y-98022037D01*
X119729558Y-98015518D01*
X119795740Y-98009000D01*
X119884260Y-98009000D01*
X119950442Y-98015518D01*
X119950442Y-98015518D01*
G37*
G36*
X117410442Y-98015518D02*
X117476627Y-98022037D01*
X117560752Y-98047556D01*
X117646467Y-98073557D01*
X117757359Y-98132831D01*
X117802991Y-98157222D01*
X117823435Y-98174000D01*
X117940186Y-98269814D01*
X118015750Y-98361890D01*
X118052778Y-98407009D01*
X118052779Y-98407011D01*
X118136443Y-98563533D01*
X118139825Y-98574683D01*
X118187963Y-98733373D01*
X118205359Y-98910000D01*
X118187963Y-99086627D01*
X118158172Y-99184836D01*
X118136443Y-99256467D01*
X118062348Y-99395087D01*
X118052778Y-99412991D01*
X118023448Y-99448729D01*
X117940186Y-99550186D01*
X117838729Y-99633448D01*
X117802991Y-99662778D01*
X117802989Y-99662779D01*
X117646467Y-99746443D01*
X117589853Y-99763616D01*
X117476627Y-99797963D01*
X117410443Y-99804481D01*
X117344260Y-99811000D01*
X117255740Y-99811000D01*
X117189558Y-99804482D01*
X117123373Y-99797963D01*
X117010147Y-99763616D01*
X116953533Y-99746443D01*
X116797011Y-99662779D01*
X116797009Y-99662778D01*
X116761271Y-99633448D01*
X116659814Y-99550186D01*
X116576552Y-99448729D01*
X116547222Y-99412991D01*
X116537652Y-99395087D01*
X116463557Y-99256467D01*
X116441828Y-99184836D01*
X116412037Y-99086627D01*
X116394641Y-98910000D01*
X116412037Y-98733373D01*
X116460175Y-98574683D01*
X116463557Y-98563533D01*
X116547221Y-98407011D01*
X116547222Y-98407009D01*
X116584250Y-98361890D01*
X116659814Y-98269814D01*
X116776565Y-98174000D01*
X116797009Y-98157222D01*
X116842641Y-98132831D01*
X116953533Y-98073557D01*
X117039248Y-98047556D01*
X117123373Y-98022037D01*
X117189558Y-98015518D01*
X117255740Y-98009000D01*
X117344260Y-98009000D01*
X117410442Y-98015518D01*
X117410442Y-98015518D01*
G37*
G36*
X125254591Y-98178085D02*
X125288569Y-98188393D01*
X125319887Y-98205133D01*
X125347339Y-98227661D01*
X125369867Y-98255113D01*
X125386607Y-98286431D01*
X125396915Y-98320409D01*
X125401000Y-98361890D01*
X125401000Y-99038110D01*
X125396915Y-99079591D01*
X125386607Y-99113569D01*
X125369867Y-99144887D01*
X125347339Y-99172339D01*
X125319887Y-99194867D01*
X125288569Y-99211607D01*
X125254591Y-99221915D01*
X125213110Y-99226000D01*
X124611890Y-99226000D01*
X124570409Y-99221915D01*
X124536431Y-99211607D01*
X124505113Y-99194867D01*
X124477661Y-99172339D01*
X124455133Y-99144887D01*
X124438393Y-99113569D01*
X124428085Y-99079591D01*
X124424000Y-99038110D01*
X124424000Y-98361890D01*
X124428085Y-98320409D01*
X124438393Y-98286431D01*
X124455133Y-98255113D01*
X124477661Y-98227661D01*
X124505113Y-98205133D01*
X124536431Y-98188393D01*
X124570409Y-98178085D01*
X124611890Y-98174000D01*
X125213110Y-98174000D01*
X125254591Y-98178085D01*
X125254591Y-98178085D01*
G37*
G36*
X126829591Y-98178085D02*
X126863569Y-98188393D01*
X126894887Y-98205133D01*
X126922339Y-98227661D01*
X126944867Y-98255113D01*
X126961607Y-98286431D01*
X126971915Y-98320409D01*
X126976000Y-98361890D01*
X126976000Y-99038110D01*
X126971915Y-99079591D01*
X126961607Y-99113569D01*
X126944867Y-99144887D01*
X126922339Y-99172339D01*
X126894887Y-99194867D01*
X126863569Y-99211607D01*
X126829591Y-99221915D01*
X126788110Y-99226000D01*
X126186890Y-99226000D01*
X126145409Y-99221915D01*
X126111431Y-99211607D01*
X126080113Y-99194867D01*
X126052661Y-99172339D01*
X126030133Y-99144887D01*
X126013393Y-99113569D01*
X126003085Y-99079591D01*
X125999000Y-99038110D01*
X125999000Y-98361890D01*
X126003085Y-98320409D01*
X126013393Y-98286431D01*
X126030133Y-98255113D01*
X126052661Y-98227661D01*
X126080113Y-98205133D01*
X126111431Y-98188393D01*
X126145409Y-98178085D01*
X126186890Y-98174000D01*
X126788110Y-98174000D01*
X126829591Y-98178085D01*
X126829591Y-98178085D01*
G37*
G36*
X141781938Y-97456716D02*
X141802556Y-97462970D01*
X141821556Y-97473126D01*
X141838208Y-97486792D01*
X141851874Y-97503444D01*
X141862030Y-97522444D01*
X141868284Y-97543062D01*
X141871000Y-97570640D01*
X141871000Y-98029360D01*
X141868284Y-98056938D01*
X141862030Y-98077556D01*
X141851874Y-98096556D01*
X141838208Y-98113208D01*
X141821556Y-98126874D01*
X141802556Y-98137030D01*
X141781938Y-98143284D01*
X141754360Y-98146000D01*
X141245640Y-98146000D01*
X141218062Y-98143284D01*
X141197444Y-98137030D01*
X141178444Y-98126874D01*
X141161792Y-98113208D01*
X141148126Y-98096556D01*
X141137970Y-98077556D01*
X141131716Y-98056938D01*
X141129000Y-98029360D01*
X141129000Y-97570640D01*
X141131716Y-97543062D01*
X141137970Y-97522444D01*
X141148126Y-97503444D01*
X141161792Y-97486792D01*
X141178444Y-97473126D01*
X141197444Y-97462970D01*
X141218062Y-97456716D01*
X141245640Y-97454000D01*
X141754360Y-97454000D01*
X141781938Y-97456716D01*
X141781938Y-97456716D01*
G37*
G36*
X142881938Y-97426716D02*
X142902556Y-97432970D01*
X142921556Y-97443126D01*
X142938208Y-97456792D01*
X142951874Y-97473444D01*
X142962030Y-97492444D01*
X142968284Y-97513062D01*
X142971000Y-97540640D01*
X142971000Y-97999360D01*
X142968284Y-98026938D01*
X142962030Y-98047556D01*
X142951874Y-98066556D01*
X142938208Y-98083208D01*
X142921556Y-98096874D01*
X142902556Y-98107030D01*
X142881938Y-98113284D01*
X142854360Y-98116000D01*
X142345640Y-98116000D01*
X142318062Y-98113284D01*
X142297444Y-98107030D01*
X142278444Y-98096874D01*
X142261792Y-98083208D01*
X142248126Y-98066556D01*
X142237970Y-98047556D01*
X142231716Y-98026938D01*
X142229000Y-97999360D01*
X142229000Y-97540640D01*
X142231716Y-97513062D01*
X142237970Y-97492444D01*
X142248126Y-97473444D01*
X142261792Y-97456792D01*
X142278444Y-97443126D01*
X142297444Y-97432970D01*
X142318062Y-97426716D01*
X142345640Y-97424000D01*
X142854360Y-97424000D01*
X142881938Y-97426716D01*
X142881938Y-97426716D01*
G37*
G36*
X134079591Y-96403085D02*
X134113569Y-96413393D01*
X134144887Y-96430133D01*
X134172339Y-96452661D01*
X134194867Y-96480113D01*
X134211607Y-96511431D01*
X134221915Y-96545409D01*
X134226000Y-96586890D01*
X134226000Y-97188110D01*
X134221915Y-97229591D01*
X134211607Y-97263569D01*
X134194867Y-97294887D01*
X134172339Y-97322339D01*
X134144887Y-97344867D01*
X134113569Y-97361607D01*
X134079591Y-97371915D01*
X134038110Y-97376000D01*
X133361890Y-97376000D01*
X133320409Y-97371915D01*
X133286431Y-97361607D01*
X133255113Y-97344867D01*
X133227661Y-97322339D01*
X133205133Y-97294887D01*
X133188393Y-97263569D01*
X133178085Y-97229591D01*
X133174000Y-97188110D01*
X133174000Y-96586890D01*
X133178085Y-96545409D01*
X133188393Y-96511431D01*
X133205133Y-96480113D01*
X133227661Y-96452661D01*
X133255113Y-96430133D01*
X133286431Y-96413393D01*
X133320409Y-96403085D01*
X133361890Y-96399000D01*
X134038110Y-96399000D01*
X134079591Y-96403085D01*
X134079591Y-96403085D01*
G37*
G36*
X119950442Y-95475518D02*
X120016627Y-95482037D01*
X120129853Y-95516384D01*
X120186467Y-95533557D01*
X120229857Y-95556750D01*
X120342991Y-95617222D01*
X120378729Y-95646552D01*
X120480186Y-95729814D01*
X120563448Y-95831271D01*
X120592778Y-95867009D01*
X120592779Y-95867011D01*
X120676443Y-96023533D01*
X120676443Y-96023534D01*
X120727963Y-96193373D01*
X120745359Y-96370000D01*
X120727963Y-96546627D01*
X120711578Y-96600640D01*
X120676443Y-96716467D01*
X120602348Y-96855087D01*
X120592778Y-96872991D01*
X120563448Y-96908729D01*
X120480186Y-97010186D01*
X120408271Y-97069204D01*
X120342991Y-97122778D01*
X120342989Y-97122779D01*
X120186467Y-97206443D01*
X120129853Y-97223616D01*
X120016627Y-97257963D01*
X119959707Y-97263569D01*
X119884260Y-97271000D01*
X119795740Y-97271000D01*
X119720293Y-97263569D01*
X119663373Y-97257963D01*
X119550147Y-97223616D01*
X119493533Y-97206443D01*
X119337011Y-97122779D01*
X119337009Y-97122778D01*
X119271729Y-97069204D01*
X119199814Y-97010186D01*
X119116552Y-96908729D01*
X119087222Y-96872991D01*
X119077652Y-96855087D01*
X119003557Y-96716467D01*
X118968422Y-96600640D01*
X118952037Y-96546627D01*
X118934641Y-96370000D01*
X118952037Y-96193373D01*
X119003557Y-96023534D01*
X119003557Y-96023533D01*
X119087221Y-95867011D01*
X119087222Y-95867009D01*
X119116552Y-95831271D01*
X119199814Y-95729814D01*
X119301271Y-95646552D01*
X119337009Y-95617222D01*
X119450143Y-95556750D01*
X119493533Y-95533557D01*
X119550147Y-95516384D01*
X119663373Y-95482037D01*
X119729558Y-95475518D01*
X119795740Y-95469000D01*
X119884260Y-95469000D01*
X119950442Y-95475518D01*
X119950442Y-95475518D01*
G37*
G36*
X117410442Y-95475518D02*
X117476627Y-95482037D01*
X117589853Y-95516384D01*
X117646467Y-95533557D01*
X117689857Y-95556750D01*
X117802991Y-95617222D01*
X117838729Y-95646552D01*
X117940186Y-95729814D01*
X118023448Y-95831271D01*
X118052778Y-95867009D01*
X118052779Y-95867011D01*
X118136443Y-96023533D01*
X118136443Y-96023534D01*
X118187963Y-96193373D01*
X118205359Y-96370000D01*
X118187963Y-96546627D01*
X118171578Y-96600640D01*
X118136443Y-96716467D01*
X118062348Y-96855087D01*
X118052778Y-96872991D01*
X118023448Y-96908729D01*
X117940186Y-97010186D01*
X117868271Y-97069204D01*
X117802991Y-97122778D01*
X117802989Y-97122779D01*
X117646467Y-97206443D01*
X117589853Y-97223616D01*
X117476627Y-97257963D01*
X117419707Y-97263569D01*
X117344260Y-97271000D01*
X117255740Y-97271000D01*
X117180293Y-97263569D01*
X117123373Y-97257963D01*
X117010147Y-97223616D01*
X116953533Y-97206443D01*
X116797011Y-97122779D01*
X116797009Y-97122778D01*
X116731729Y-97069204D01*
X116659814Y-97010186D01*
X116576552Y-96908729D01*
X116547222Y-96872991D01*
X116537652Y-96855087D01*
X116463557Y-96716467D01*
X116428422Y-96600640D01*
X116412037Y-96546627D01*
X116394641Y-96370000D01*
X116412037Y-96193373D01*
X116463557Y-96023534D01*
X116463557Y-96023533D01*
X116547221Y-95867011D01*
X116547222Y-95867009D01*
X116576552Y-95831271D01*
X116659814Y-95729814D01*
X116761271Y-95646552D01*
X116797009Y-95617222D01*
X116910143Y-95556750D01*
X116953533Y-95533557D01*
X117010147Y-95516384D01*
X117123373Y-95482037D01*
X117189558Y-95475518D01*
X117255740Y-95469000D01*
X117344260Y-95469000D01*
X117410442Y-95475518D01*
X117410442Y-95475518D01*
G37*
G36*
X141781938Y-96486716D02*
X141802556Y-96492970D01*
X141821556Y-96503126D01*
X141838208Y-96516792D01*
X141851874Y-96533444D01*
X141862030Y-96552444D01*
X141868284Y-96573062D01*
X141871000Y-96600640D01*
X141871000Y-97059360D01*
X141868284Y-97086938D01*
X141862030Y-97107556D01*
X141851874Y-97126556D01*
X141838208Y-97143208D01*
X141821556Y-97156874D01*
X141802556Y-97167030D01*
X141781938Y-97173284D01*
X141754360Y-97176000D01*
X141245640Y-97176000D01*
X141218062Y-97173284D01*
X141197444Y-97167030D01*
X141178444Y-97156874D01*
X141161792Y-97143208D01*
X141148126Y-97126556D01*
X141137970Y-97107556D01*
X141131716Y-97086938D01*
X141129000Y-97059360D01*
X141129000Y-96600640D01*
X141131716Y-96573062D01*
X141137970Y-96552444D01*
X141148126Y-96533444D01*
X141161792Y-96516792D01*
X141178444Y-96503126D01*
X141197444Y-96492970D01*
X141218062Y-96486716D01*
X141245640Y-96484000D01*
X141754360Y-96484000D01*
X141781938Y-96486716D01*
X141781938Y-96486716D01*
G37*
G36*
X142881938Y-96456716D02*
X142902556Y-96462970D01*
X142921556Y-96473126D01*
X142938208Y-96486792D01*
X142951874Y-96503444D01*
X142962030Y-96522444D01*
X142968284Y-96543062D01*
X142971000Y-96570640D01*
X142971000Y-97029360D01*
X142968284Y-97056938D01*
X142962030Y-97077556D01*
X142951874Y-97096556D01*
X142938208Y-97113208D01*
X142921556Y-97126874D01*
X142902556Y-97137030D01*
X142881938Y-97143284D01*
X142854360Y-97146000D01*
X142345640Y-97146000D01*
X142318062Y-97143284D01*
X142297444Y-97137030D01*
X142278444Y-97126874D01*
X142261792Y-97113208D01*
X142248126Y-97096556D01*
X142237970Y-97077556D01*
X142231716Y-97056938D01*
X142229000Y-97029360D01*
X142229000Y-96570640D01*
X142231716Y-96543062D01*
X142237970Y-96522444D01*
X142248126Y-96503444D01*
X142261792Y-96486792D01*
X142278444Y-96473126D01*
X142297444Y-96462970D01*
X142318062Y-96456716D01*
X142345640Y-96454000D01*
X142854360Y-96454000D01*
X142881938Y-96456716D01*
X142881938Y-96456716D01*
G37*
G36*
X138305996Y-93853051D02*
X138339653Y-93863261D01*
X138370667Y-93879838D01*
X138397852Y-93902148D01*
X138420162Y-93929333D01*
X138436739Y-93960347D01*
X138446949Y-93994004D01*
X138451000Y-94035138D01*
X138451000Y-96364862D01*
X138446949Y-96405996D01*
X138436739Y-96439653D01*
X138420162Y-96470667D01*
X138397852Y-96497852D01*
X138370667Y-96520162D01*
X138339653Y-96536739D01*
X138305996Y-96546949D01*
X138264862Y-96551000D01*
X136935138Y-96551000D01*
X136894004Y-96546949D01*
X136860347Y-96536739D01*
X136829333Y-96520162D01*
X136802148Y-96497852D01*
X136779838Y-96470667D01*
X136763261Y-96439653D01*
X136753051Y-96405996D01*
X136749000Y-96364862D01*
X136749000Y-94035138D01*
X136753051Y-93994004D01*
X136763261Y-93960347D01*
X136779838Y-93929333D01*
X136802148Y-93902148D01*
X136829333Y-93879838D01*
X136860347Y-93863261D01*
X136894004Y-93853051D01*
X136935138Y-93849000D01*
X138264862Y-93849000D01*
X138305996Y-93853051D01*
X138305996Y-93853051D01*
G37*
G36*
X134079591Y-94828085D02*
X134113569Y-94838393D01*
X134144887Y-94855133D01*
X134172339Y-94877661D01*
X134194867Y-94905113D01*
X134211607Y-94936431D01*
X134221915Y-94970409D01*
X134226000Y-95011890D01*
X134226000Y-95613110D01*
X134221915Y-95654591D01*
X134211607Y-95688569D01*
X134194867Y-95719887D01*
X134172339Y-95747339D01*
X134144887Y-95769867D01*
X134113569Y-95786607D01*
X134079591Y-95796915D01*
X134038110Y-95801000D01*
X133361890Y-95801000D01*
X133320409Y-95796915D01*
X133286431Y-95786607D01*
X133255113Y-95769867D01*
X133227661Y-95747339D01*
X133205133Y-95719887D01*
X133188393Y-95688569D01*
X133178085Y-95654591D01*
X133174000Y-95613110D01*
X133174000Y-95011890D01*
X133178085Y-94970409D01*
X133188393Y-94936431D01*
X133205133Y-94905113D01*
X133227661Y-94877661D01*
X133255113Y-94855133D01*
X133286431Y-94838393D01*
X133320409Y-94828085D01*
X133361890Y-94824000D01*
X134038110Y-94824000D01*
X134079591Y-94828085D01*
X134079591Y-94828085D01*
G37*
G36*
X119950443Y-92935519D02*
X120016627Y-92942037D01*
X120129853Y-92976384D01*
X120186467Y-92993557D01*
X120325087Y-93067652D01*
X120342991Y-93077222D01*
X120378729Y-93106552D01*
X120480186Y-93189814D01*
X120563448Y-93291271D01*
X120592778Y-93327009D01*
X120592779Y-93327011D01*
X120676443Y-93483533D01*
X120676443Y-93483534D01*
X120727963Y-93653373D01*
X120745359Y-93830000D01*
X120727963Y-94006627D01*
X120695108Y-94114937D01*
X120676443Y-94176467D01*
X120602348Y-94315087D01*
X120592778Y-94332991D01*
X120563448Y-94368729D01*
X120480186Y-94470186D01*
X120378729Y-94553448D01*
X120342991Y-94582778D01*
X120342989Y-94582779D01*
X120186467Y-94666443D01*
X120129853Y-94683616D01*
X120016627Y-94717963D01*
X119950442Y-94724482D01*
X119884260Y-94731000D01*
X119795740Y-94731000D01*
X119729558Y-94724482D01*
X119663373Y-94717963D01*
X119550147Y-94683616D01*
X119493533Y-94666443D01*
X119337011Y-94582779D01*
X119337009Y-94582778D01*
X119301271Y-94553448D01*
X119199814Y-94470186D01*
X119116552Y-94368729D01*
X119087222Y-94332991D01*
X119077652Y-94315087D01*
X119003557Y-94176467D01*
X118984892Y-94114937D01*
X118952037Y-94006627D01*
X118934641Y-93830000D01*
X118952037Y-93653373D01*
X119003557Y-93483534D01*
X119003557Y-93483533D01*
X119087221Y-93327011D01*
X119087222Y-93327009D01*
X119116552Y-93291271D01*
X119199814Y-93189814D01*
X119301271Y-93106552D01*
X119337009Y-93077222D01*
X119354913Y-93067652D01*
X119493533Y-92993557D01*
X119550147Y-92976384D01*
X119663373Y-92942037D01*
X119729557Y-92935519D01*
X119795740Y-92929000D01*
X119884260Y-92929000D01*
X119950443Y-92935519D01*
X119950443Y-92935519D01*
G37*
G36*
X117410443Y-92935519D02*
X117476627Y-92942037D01*
X117589853Y-92976384D01*
X117646467Y-92993557D01*
X117785087Y-93067652D01*
X117802991Y-93077222D01*
X117838729Y-93106552D01*
X117940186Y-93189814D01*
X118023448Y-93291271D01*
X118052778Y-93327009D01*
X118052779Y-93327011D01*
X118136443Y-93483533D01*
X118136443Y-93483534D01*
X118187963Y-93653373D01*
X118205359Y-93830000D01*
X118187963Y-94006627D01*
X118155108Y-94114937D01*
X118136443Y-94176467D01*
X118062348Y-94315087D01*
X118052778Y-94332991D01*
X118023448Y-94368729D01*
X117940186Y-94470186D01*
X117838729Y-94553448D01*
X117802991Y-94582778D01*
X117802989Y-94582779D01*
X117646467Y-94666443D01*
X117589853Y-94683616D01*
X117476627Y-94717963D01*
X117410442Y-94724482D01*
X117344260Y-94731000D01*
X117255740Y-94731000D01*
X117189558Y-94724482D01*
X117123373Y-94717963D01*
X117010147Y-94683616D01*
X116953533Y-94666443D01*
X116797011Y-94582779D01*
X116797009Y-94582778D01*
X116761271Y-94553448D01*
X116659814Y-94470186D01*
X116576552Y-94368729D01*
X116547222Y-94332991D01*
X116537652Y-94315087D01*
X116463557Y-94176467D01*
X116444892Y-94114937D01*
X116412037Y-94006627D01*
X116394641Y-93830000D01*
X116412037Y-93653373D01*
X116463557Y-93483534D01*
X116463557Y-93483533D01*
X116547221Y-93327011D01*
X116547222Y-93327009D01*
X116576552Y-93291271D01*
X116659814Y-93189814D01*
X116761271Y-93106552D01*
X116797009Y-93077222D01*
X116814913Y-93067652D01*
X116953533Y-92993557D01*
X117010147Y-92976384D01*
X117123373Y-92942037D01*
X117189557Y-92935519D01*
X117255740Y-92929000D01*
X117344260Y-92929000D01*
X117410443Y-92935519D01*
X117410443Y-92935519D01*
G37*
G36*
X143279591Y-92390585D02*
X143313569Y-92400893D01*
X143344887Y-92417633D01*
X143372339Y-92440161D01*
X143394867Y-92467613D01*
X143411607Y-92498931D01*
X143421915Y-92532909D01*
X143426000Y-92574390D01*
X143426000Y-93175610D01*
X143421915Y-93217091D01*
X143411607Y-93251069D01*
X143394867Y-93282387D01*
X143372339Y-93309839D01*
X143344887Y-93332367D01*
X143313569Y-93349107D01*
X143279591Y-93359415D01*
X143238110Y-93363500D01*
X142561890Y-93363500D01*
X142520409Y-93359415D01*
X142486431Y-93349107D01*
X142455113Y-93332367D01*
X142427661Y-93309839D01*
X142405133Y-93282387D01*
X142388393Y-93251069D01*
X142378085Y-93217091D01*
X142374000Y-93175610D01*
X142374000Y-92574390D01*
X142378085Y-92532909D01*
X142388393Y-92498931D01*
X142405133Y-92467613D01*
X142427661Y-92440161D01*
X142455113Y-92417633D01*
X142486431Y-92400893D01*
X142520409Y-92390585D01*
X142561890Y-92386500D01*
X143238110Y-92386500D01*
X143279591Y-92390585D01*
X143279591Y-92390585D01*
G37*
G36*
X117410442Y-90395518D02*
X117476627Y-90402037D01*
X117589853Y-90436384D01*
X117646467Y-90453557D01*
X117785087Y-90527652D01*
X117802991Y-90537222D01*
X117838729Y-90566552D01*
X117940186Y-90649814D01*
X118023448Y-90751271D01*
X118052778Y-90787009D01*
X118052779Y-90787011D01*
X118136443Y-90943533D01*
X118136443Y-90943534D01*
X118187963Y-91113373D01*
X118205359Y-91290000D01*
X118187963Y-91466627D01*
X118164416Y-91544250D01*
X118136443Y-91636467D01*
X118098535Y-91707387D01*
X118052778Y-91792991D01*
X118023448Y-91828729D01*
X117940186Y-91930186D01*
X117838729Y-92013448D01*
X117802991Y-92042778D01*
X117802989Y-92042779D01*
X117646467Y-92126443D01*
X117589853Y-92143616D01*
X117476627Y-92177963D01*
X117410443Y-92184481D01*
X117344260Y-92191000D01*
X117255740Y-92191000D01*
X117189557Y-92184481D01*
X117123373Y-92177963D01*
X117010147Y-92143616D01*
X116953533Y-92126443D01*
X116797011Y-92042779D01*
X116797009Y-92042778D01*
X116761271Y-92013448D01*
X116659814Y-91930186D01*
X116576552Y-91828729D01*
X116547222Y-91792991D01*
X116501465Y-91707387D01*
X116463557Y-91636467D01*
X116435584Y-91544250D01*
X116412037Y-91466627D01*
X116394641Y-91290000D01*
X116412037Y-91113373D01*
X116463557Y-90943534D01*
X116463557Y-90943533D01*
X116547221Y-90787011D01*
X116547222Y-90787009D01*
X116576552Y-90751271D01*
X116659814Y-90649814D01*
X116761271Y-90566552D01*
X116797009Y-90537222D01*
X116814913Y-90527652D01*
X116953533Y-90453557D01*
X117010147Y-90436384D01*
X117123373Y-90402037D01*
X117189558Y-90395518D01*
X117255740Y-90389000D01*
X117344260Y-90389000D01*
X117410442Y-90395518D01*
X117410442Y-90395518D01*
G37*
G36*
X119950442Y-90395518D02*
X120016627Y-90402037D01*
X120129853Y-90436384D01*
X120186467Y-90453557D01*
X120325087Y-90527652D01*
X120342991Y-90537222D01*
X120378729Y-90566552D01*
X120480186Y-90649814D01*
X120563448Y-90751271D01*
X120592778Y-90787009D01*
X120592779Y-90787011D01*
X120676443Y-90943533D01*
X120676443Y-90943534D01*
X120727963Y-91113373D01*
X120745359Y-91290000D01*
X120727963Y-91466627D01*
X120704416Y-91544250D01*
X120676443Y-91636467D01*
X120638535Y-91707387D01*
X120592778Y-91792991D01*
X120563448Y-91828729D01*
X120480186Y-91930186D01*
X120378729Y-92013448D01*
X120342991Y-92042778D01*
X120342989Y-92042779D01*
X120186467Y-92126443D01*
X120129853Y-92143616D01*
X120016627Y-92177963D01*
X119950443Y-92184481D01*
X119884260Y-92191000D01*
X119795740Y-92191000D01*
X119729557Y-92184481D01*
X119663373Y-92177963D01*
X119550147Y-92143616D01*
X119493533Y-92126443D01*
X119337011Y-92042779D01*
X119337009Y-92042778D01*
X119301271Y-92013448D01*
X119199814Y-91930186D01*
X119116552Y-91828729D01*
X119087222Y-91792991D01*
X119041465Y-91707387D01*
X119003557Y-91636467D01*
X118975584Y-91544250D01*
X118952037Y-91466627D01*
X118934641Y-91290000D01*
X118952037Y-91113373D01*
X119003557Y-90943534D01*
X119003557Y-90943533D01*
X119087221Y-90787011D01*
X119087222Y-90787009D01*
X119116552Y-90751271D01*
X119199814Y-90649814D01*
X119301271Y-90566552D01*
X119337009Y-90537222D01*
X119354913Y-90527652D01*
X119493533Y-90453557D01*
X119550147Y-90436384D01*
X119663373Y-90402037D01*
X119729558Y-90395518D01*
X119795740Y-90389000D01*
X119884260Y-90389000D01*
X119950442Y-90395518D01*
X119950442Y-90395518D01*
G37*
G36*
X143279591Y-90815585D02*
X143313569Y-90825893D01*
X143344887Y-90842633D01*
X143372339Y-90865161D01*
X143394867Y-90892613D01*
X143411607Y-90923931D01*
X143421915Y-90957909D01*
X143426000Y-90999390D01*
X143426000Y-91600610D01*
X143421915Y-91642091D01*
X143411607Y-91676069D01*
X143394867Y-91707387D01*
X143372339Y-91734839D01*
X143344887Y-91757367D01*
X143313569Y-91774107D01*
X143279591Y-91784415D01*
X143238110Y-91788500D01*
X142561890Y-91788500D01*
X142520409Y-91784415D01*
X142486431Y-91774107D01*
X142455113Y-91757367D01*
X142427661Y-91734839D01*
X142405133Y-91707387D01*
X142388393Y-91676069D01*
X142378085Y-91642091D01*
X142374000Y-91600610D01*
X142374000Y-90999390D01*
X142378085Y-90957909D01*
X142388393Y-90923931D01*
X142405133Y-90892613D01*
X142427661Y-90865161D01*
X142455113Y-90842633D01*
X142486431Y-90825893D01*
X142520409Y-90815585D01*
X142561890Y-90811500D01*
X143238110Y-90811500D01*
X143279591Y-90815585D01*
X143279591Y-90815585D01*
G37*
G36*
X132651000Y-91451000D02*
X131149000Y-91451000D01*
X131149000Y-89749000D01*
X132651000Y-89749000D01*
X132651000Y-91451000D01*
X132651000Y-91451000D01*
G37*
G36*
X135651000Y-91451000D02*
X134149000Y-91451000D01*
X134149000Y-89749000D01*
X135651000Y-89749000D01*
X135651000Y-91451000D01*
X135651000Y-91451000D01*
G37*
G36*
X117410442Y-87855518D02*
X117476627Y-87862037D01*
X117589853Y-87896384D01*
X117646467Y-87913557D01*
X117757911Y-87973126D01*
X117802991Y-87997222D01*
X117833724Y-88022444D01*
X117940186Y-88109814D01*
X118023448Y-88211271D01*
X118052778Y-88247009D01*
X118052779Y-88247011D01*
X118136443Y-88403533D01*
X118136443Y-88403534D01*
X118187963Y-88573373D01*
X118205359Y-88750000D01*
X118187963Y-88926627D01*
X118165437Y-89000886D01*
X118136443Y-89096467D01*
X118136158Y-89097000D01*
X118052778Y-89252991D01*
X118023448Y-89288729D01*
X117940186Y-89390186D01*
X117838729Y-89473448D01*
X117802991Y-89502778D01*
X117802989Y-89502779D01*
X117646467Y-89586443D01*
X117612080Y-89596874D01*
X117476627Y-89637963D01*
X117410442Y-89644482D01*
X117344260Y-89651000D01*
X117255740Y-89651000D01*
X117189558Y-89644482D01*
X117123373Y-89637963D01*
X116987920Y-89596874D01*
X116953533Y-89586443D01*
X116797011Y-89502779D01*
X116797009Y-89502778D01*
X116761271Y-89473448D01*
X116659814Y-89390186D01*
X116576552Y-89288729D01*
X116547222Y-89252991D01*
X116463842Y-89097000D01*
X116463557Y-89096467D01*
X116434563Y-89000886D01*
X116412037Y-88926627D01*
X116394641Y-88750000D01*
X116412037Y-88573373D01*
X116463557Y-88403534D01*
X116463557Y-88403533D01*
X116547221Y-88247011D01*
X116547222Y-88247009D01*
X116576552Y-88211271D01*
X116659814Y-88109814D01*
X116766276Y-88022444D01*
X116797009Y-87997222D01*
X116842089Y-87973126D01*
X116953533Y-87913557D01*
X117010147Y-87896384D01*
X117123373Y-87862037D01*
X117189558Y-87855518D01*
X117255740Y-87849000D01*
X117344260Y-87849000D01*
X117410442Y-87855518D01*
X117410442Y-87855518D01*
G37*
G36*
X119950442Y-87855518D02*
X120016627Y-87862037D01*
X120129853Y-87896384D01*
X120186467Y-87913557D01*
X120297911Y-87973126D01*
X120342991Y-87997222D01*
X120373724Y-88022444D01*
X120480186Y-88109814D01*
X120563448Y-88211271D01*
X120592778Y-88247009D01*
X120592779Y-88247011D01*
X120676443Y-88403533D01*
X120676443Y-88403534D01*
X120727963Y-88573373D01*
X120745359Y-88750000D01*
X120727963Y-88926627D01*
X120705437Y-89000886D01*
X120676443Y-89096467D01*
X120676158Y-89097000D01*
X120592778Y-89252991D01*
X120563448Y-89288729D01*
X120480186Y-89390186D01*
X120378729Y-89473448D01*
X120342991Y-89502778D01*
X120342989Y-89502779D01*
X120186467Y-89586443D01*
X120152080Y-89596874D01*
X120016627Y-89637963D01*
X119950442Y-89644482D01*
X119884260Y-89651000D01*
X119795740Y-89651000D01*
X119729558Y-89644482D01*
X119663373Y-89637963D01*
X119527920Y-89596874D01*
X119493533Y-89586443D01*
X119337011Y-89502779D01*
X119337009Y-89502778D01*
X119301271Y-89473448D01*
X119199814Y-89390186D01*
X119116552Y-89288729D01*
X119087222Y-89252991D01*
X119003842Y-89097000D01*
X119003557Y-89096467D01*
X118974563Y-89000886D01*
X118952037Y-88926627D01*
X118934641Y-88750000D01*
X118952037Y-88573373D01*
X119003557Y-88403534D01*
X119003557Y-88403533D01*
X119087221Y-88247011D01*
X119087222Y-88247009D01*
X119116552Y-88211271D01*
X119199814Y-88109814D01*
X119306276Y-88022444D01*
X119337009Y-87997222D01*
X119382089Y-87973126D01*
X119493533Y-87913557D01*
X119550147Y-87896384D01*
X119663373Y-87862037D01*
X119729558Y-87855518D01*
X119795740Y-87849000D01*
X119884260Y-87849000D01*
X119950442Y-87855518D01*
X119950442Y-87855518D01*
G37*
G36*
X143081938Y-88926716D02*
X143102556Y-88932970D01*
X143121556Y-88943126D01*
X143138208Y-88956792D01*
X143151874Y-88973444D01*
X143162030Y-88992444D01*
X143168284Y-89013062D01*
X143171000Y-89040640D01*
X143171000Y-89499360D01*
X143168284Y-89526938D01*
X143162030Y-89547556D01*
X143151874Y-89566556D01*
X143138208Y-89583208D01*
X143121556Y-89596874D01*
X143102556Y-89607030D01*
X143081938Y-89613284D01*
X143054360Y-89616000D01*
X142545640Y-89616000D01*
X142518062Y-89613284D01*
X142497444Y-89607030D01*
X142478444Y-89596874D01*
X142461792Y-89583208D01*
X142448126Y-89566556D01*
X142437970Y-89547556D01*
X142431716Y-89526938D01*
X142429000Y-89499360D01*
X142429000Y-89040640D01*
X142431716Y-89013062D01*
X142437970Y-88992444D01*
X142448126Y-88973444D01*
X142461792Y-88956792D01*
X142478444Y-88943126D01*
X142497444Y-88932970D01*
X142518062Y-88926716D01*
X142545640Y-88924000D01*
X143054360Y-88924000D01*
X143081938Y-88926716D01*
X143081938Y-88926716D01*
G37*
G36*
X143081938Y-87956716D02*
X143102556Y-87962970D01*
X143121556Y-87973126D01*
X143138208Y-87986792D01*
X143151874Y-88003444D01*
X143162030Y-88022444D01*
X143168284Y-88043062D01*
X143171000Y-88070640D01*
X143171000Y-88529360D01*
X143168284Y-88556938D01*
X143162030Y-88577556D01*
X143151874Y-88596556D01*
X143138208Y-88613208D01*
X143121556Y-88626874D01*
X143102556Y-88637030D01*
X143081938Y-88643284D01*
X143054360Y-88646000D01*
X142545640Y-88646000D01*
X142518062Y-88643284D01*
X142497444Y-88637030D01*
X142478444Y-88626874D01*
X142461792Y-88613208D01*
X142448126Y-88596556D01*
X142437970Y-88577556D01*
X142431716Y-88556938D01*
X142429000Y-88529360D01*
X142429000Y-88070640D01*
X142431716Y-88043062D01*
X142437970Y-88022444D01*
X142448126Y-88003444D01*
X142461792Y-87986792D01*
X142478444Y-87973126D01*
X142497444Y-87962970D01*
X142518062Y-87956716D01*
X142545640Y-87954000D01*
X143054360Y-87954000D01*
X143081938Y-87956716D01*
X143081938Y-87956716D01*
G37*
G36*
X141751000Y-87151000D02*
X140249000Y-87151000D01*
X140249000Y-85449000D01*
X141751000Y-85449000D01*
X141751000Y-87151000D01*
X141751000Y-87151000D01*
G37*
G36*
X138751000Y-87151000D02*
X137249000Y-87151000D01*
X137249000Y-85449000D01*
X138751000Y-85449000D01*
X138751000Y-87151000D01*
X138751000Y-87151000D01*
G37*
G36*
X129651000Y-87151000D02*
X128149000Y-87151000D01*
X128149000Y-85449000D01*
X129651000Y-85449000D01*
X129651000Y-87151000D01*
X129651000Y-87151000D01*
G37*
G36*
X126651000Y-87151000D02*
X125149000Y-87151000D01*
X125149000Y-85449000D01*
X126651000Y-85449000D01*
X126651000Y-87151000D01*
X126651000Y-87151000D01*
G37*
G36*
X117410442Y-85315518D02*
X117476627Y-85322037D01*
X117589853Y-85356384D01*
X117646467Y-85373557D01*
X117785087Y-85447652D01*
X117802991Y-85457222D01*
X117838729Y-85486552D01*
X117940186Y-85569814D01*
X118023448Y-85671271D01*
X118052778Y-85707009D01*
X118052779Y-85707011D01*
X118136443Y-85863533D01*
X118136443Y-85863534D01*
X118187963Y-86033373D01*
X118205359Y-86210000D01*
X118187963Y-86386627D01*
X118153616Y-86499853D01*
X118136443Y-86556467D01*
X118062348Y-86695087D01*
X118052778Y-86712991D01*
X118023448Y-86748729D01*
X117940186Y-86850186D01*
X117838729Y-86933448D01*
X117802991Y-86962778D01*
X117802989Y-86962779D01*
X117646467Y-87046443D01*
X117589853Y-87063616D01*
X117476627Y-87097963D01*
X117410442Y-87104482D01*
X117344260Y-87111000D01*
X117255740Y-87111000D01*
X117189558Y-87104482D01*
X117123373Y-87097963D01*
X117010147Y-87063616D01*
X116953533Y-87046443D01*
X116797011Y-86962779D01*
X116797009Y-86962778D01*
X116761271Y-86933448D01*
X116659814Y-86850186D01*
X116576552Y-86748729D01*
X116547222Y-86712991D01*
X116537652Y-86695087D01*
X116463557Y-86556467D01*
X116446384Y-86499853D01*
X116412037Y-86386627D01*
X116394641Y-86210000D01*
X116412037Y-86033373D01*
X116463557Y-85863534D01*
X116463557Y-85863533D01*
X116547221Y-85707011D01*
X116547222Y-85707009D01*
X116576552Y-85671271D01*
X116659814Y-85569814D01*
X116761271Y-85486552D01*
X116797009Y-85457222D01*
X116814913Y-85447652D01*
X116953533Y-85373557D01*
X117010147Y-85356384D01*
X117123373Y-85322037D01*
X117189558Y-85315518D01*
X117255740Y-85309000D01*
X117344260Y-85309000D01*
X117410442Y-85315518D01*
X117410442Y-85315518D01*
G37*
G36*
X119950442Y-85315518D02*
X120016627Y-85322037D01*
X120129853Y-85356384D01*
X120186467Y-85373557D01*
X120325087Y-85447652D01*
X120342991Y-85457222D01*
X120378729Y-85486552D01*
X120480186Y-85569814D01*
X120563448Y-85671271D01*
X120592778Y-85707009D01*
X120592779Y-85707011D01*
X120676443Y-85863533D01*
X120676443Y-85863534D01*
X120727963Y-86033373D01*
X120745359Y-86210000D01*
X120727963Y-86386627D01*
X120693616Y-86499853D01*
X120676443Y-86556467D01*
X120602348Y-86695087D01*
X120592778Y-86712991D01*
X120563448Y-86748729D01*
X120480186Y-86850186D01*
X120378729Y-86933448D01*
X120342991Y-86962778D01*
X120342989Y-86962779D01*
X120186467Y-87046443D01*
X120129853Y-87063616D01*
X120016627Y-87097963D01*
X119950442Y-87104482D01*
X119884260Y-87111000D01*
X119795740Y-87111000D01*
X119729558Y-87104482D01*
X119663373Y-87097963D01*
X119550147Y-87063616D01*
X119493533Y-87046443D01*
X119337011Y-86962779D01*
X119337009Y-86962778D01*
X119301271Y-86933448D01*
X119199814Y-86850186D01*
X119116552Y-86748729D01*
X119087222Y-86712991D01*
X119077652Y-86695087D01*
X119003557Y-86556467D01*
X118986384Y-86499853D01*
X118952037Y-86386627D01*
X118934641Y-86210000D01*
X118952037Y-86033373D01*
X119003557Y-85863534D01*
X119003557Y-85863533D01*
X119087221Y-85707011D01*
X119087222Y-85707009D01*
X119116552Y-85671271D01*
X119199814Y-85569814D01*
X119301271Y-85486552D01*
X119337009Y-85457222D01*
X119354913Y-85447652D01*
X119493533Y-85373557D01*
X119550147Y-85356384D01*
X119663373Y-85322037D01*
X119729558Y-85315518D01*
X119795740Y-85309000D01*
X119884260Y-85309000D01*
X119950442Y-85315518D01*
X119950442Y-85315518D01*
G37*
G36*
X119950443Y-82775519D02*
X120016627Y-82782037D01*
X120129853Y-82816384D01*
X120186467Y-82833557D01*
X120325087Y-82907652D01*
X120342991Y-82917222D01*
X120378729Y-82946552D01*
X120480186Y-83029814D01*
X120563448Y-83131271D01*
X120592778Y-83167009D01*
X120592779Y-83167011D01*
X120676443Y-83323533D01*
X120676443Y-83323534D01*
X120727963Y-83493373D01*
X120745359Y-83670000D01*
X120727963Y-83846627D01*
X120693616Y-83959853D01*
X120676443Y-84016467D01*
X120602348Y-84155087D01*
X120592778Y-84172991D01*
X120563448Y-84208729D01*
X120480186Y-84310186D01*
X120378729Y-84393448D01*
X120342991Y-84422778D01*
X120342989Y-84422779D01*
X120186467Y-84506443D01*
X120129853Y-84523616D01*
X120016627Y-84557963D01*
X119950442Y-84564482D01*
X119884260Y-84571000D01*
X119795740Y-84571000D01*
X119729558Y-84564482D01*
X119663373Y-84557963D01*
X119550147Y-84523616D01*
X119493533Y-84506443D01*
X119337011Y-84422779D01*
X119337009Y-84422778D01*
X119301271Y-84393448D01*
X119199814Y-84310186D01*
X119116552Y-84208729D01*
X119087222Y-84172991D01*
X119077652Y-84155087D01*
X119003557Y-84016467D01*
X118986384Y-83959853D01*
X118952037Y-83846627D01*
X118934641Y-83670000D01*
X118952037Y-83493373D01*
X119003557Y-83323534D01*
X119003557Y-83323533D01*
X119087221Y-83167011D01*
X119087222Y-83167009D01*
X119116552Y-83131271D01*
X119199814Y-83029814D01*
X119301271Y-82946552D01*
X119337009Y-82917222D01*
X119354913Y-82907652D01*
X119493533Y-82833557D01*
X119550147Y-82816384D01*
X119663373Y-82782037D01*
X119729557Y-82775519D01*
X119795740Y-82769000D01*
X119884260Y-82769000D01*
X119950443Y-82775519D01*
X119950443Y-82775519D01*
G37*
G36*
X117410443Y-82775519D02*
X117476627Y-82782037D01*
X117589853Y-82816384D01*
X117646467Y-82833557D01*
X117785087Y-82907652D01*
X117802991Y-82917222D01*
X117838729Y-82946552D01*
X117940186Y-83029814D01*
X118023448Y-83131271D01*
X118052778Y-83167009D01*
X118052779Y-83167011D01*
X118136443Y-83323533D01*
X118136443Y-83323534D01*
X118187963Y-83493373D01*
X118205359Y-83670000D01*
X118187963Y-83846627D01*
X118153616Y-83959853D01*
X118136443Y-84016467D01*
X118062348Y-84155087D01*
X118052778Y-84172991D01*
X118023448Y-84208729D01*
X117940186Y-84310186D01*
X117838729Y-84393448D01*
X117802991Y-84422778D01*
X117802989Y-84422779D01*
X117646467Y-84506443D01*
X117589853Y-84523616D01*
X117476627Y-84557963D01*
X117410442Y-84564482D01*
X117344260Y-84571000D01*
X117255740Y-84571000D01*
X117189558Y-84564482D01*
X117123373Y-84557963D01*
X117010147Y-84523616D01*
X116953533Y-84506443D01*
X116797011Y-84422779D01*
X116797009Y-84422778D01*
X116761271Y-84393448D01*
X116659814Y-84310186D01*
X116576552Y-84208729D01*
X116547222Y-84172991D01*
X116537652Y-84155087D01*
X116463557Y-84016467D01*
X116446384Y-83959853D01*
X116412037Y-83846627D01*
X116394641Y-83670000D01*
X116412037Y-83493373D01*
X116463557Y-83323534D01*
X116463557Y-83323533D01*
X116547221Y-83167011D01*
X116547222Y-83167009D01*
X116576552Y-83131271D01*
X116659814Y-83029814D01*
X116761271Y-82946552D01*
X116797009Y-82917222D01*
X116814913Y-82907652D01*
X116953533Y-82833557D01*
X117010147Y-82816384D01*
X117123373Y-82782037D01*
X117189557Y-82775519D01*
X117255740Y-82769000D01*
X117344260Y-82769000D01*
X117410443Y-82775519D01*
X117410443Y-82775519D01*
G37*
G36*
X132651000Y-84251000D02*
X131149000Y-84251000D01*
X131149000Y-82549000D01*
X132651000Y-82549000D01*
X132651000Y-84251000D01*
X132651000Y-84251000D01*
G37*
G36*
X135651000Y-84251000D02*
X134149000Y-84251000D01*
X134149000Y-82549000D01*
X135651000Y-82549000D01*
X135651000Y-84251000D01*
X135651000Y-84251000D01*
G37*
G36*
X117410442Y-80235518D02*
X117476627Y-80242037D01*
X117589853Y-80276384D01*
X117646467Y-80293557D01*
X117785087Y-80367652D01*
X117802991Y-80377222D01*
X117838729Y-80406552D01*
X117940186Y-80489814D01*
X118023448Y-80591271D01*
X118052778Y-80627009D01*
X118052779Y-80627011D01*
X118136443Y-80783533D01*
X118136443Y-80783534D01*
X118187963Y-80953373D01*
X118205359Y-81130000D01*
X118187963Y-81306627D01*
X118153616Y-81419853D01*
X118136443Y-81476467D01*
X118062348Y-81615087D01*
X118052778Y-81632991D01*
X118023448Y-81668729D01*
X117940186Y-81770186D01*
X117841712Y-81851000D01*
X117802991Y-81882778D01*
X117802989Y-81882779D01*
X117646467Y-81966443D01*
X117589853Y-81983616D01*
X117476627Y-82017963D01*
X117410443Y-82024481D01*
X117344260Y-82031000D01*
X117255740Y-82031000D01*
X117189557Y-82024481D01*
X117123373Y-82017963D01*
X117010147Y-81983616D01*
X116953533Y-81966443D01*
X116797011Y-81882779D01*
X116797009Y-81882778D01*
X116758288Y-81851000D01*
X116659814Y-81770186D01*
X116576552Y-81668729D01*
X116547222Y-81632991D01*
X116537652Y-81615087D01*
X116463557Y-81476467D01*
X116446384Y-81419853D01*
X116412037Y-81306627D01*
X116394641Y-81130000D01*
X116412037Y-80953373D01*
X116463557Y-80783534D01*
X116463557Y-80783533D01*
X116547221Y-80627011D01*
X116547222Y-80627009D01*
X116576552Y-80591271D01*
X116659814Y-80489814D01*
X116761271Y-80406552D01*
X116797009Y-80377222D01*
X116814913Y-80367652D01*
X116953533Y-80293557D01*
X117010147Y-80276384D01*
X117123373Y-80242037D01*
X117189558Y-80235518D01*
X117255740Y-80229000D01*
X117344260Y-80229000D01*
X117410442Y-80235518D01*
X117410442Y-80235518D01*
G37*
G36*
X119950442Y-80235518D02*
X120016627Y-80242037D01*
X120129853Y-80276384D01*
X120186467Y-80293557D01*
X120325087Y-80367652D01*
X120342991Y-80377222D01*
X120378729Y-80406552D01*
X120480186Y-80489814D01*
X120563448Y-80591271D01*
X120592778Y-80627009D01*
X120592779Y-80627011D01*
X120676443Y-80783533D01*
X120676443Y-80783534D01*
X120727963Y-80953373D01*
X120745359Y-81130000D01*
X120727963Y-81306627D01*
X120693616Y-81419853D01*
X120676443Y-81476467D01*
X120602348Y-81615087D01*
X120592778Y-81632991D01*
X120563448Y-81668729D01*
X120480186Y-81770186D01*
X120381712Y-81851000D01*
X120342991Y-81882778D01*
X120342989Y-81882779D01*
X120186467Y-81966443D01*
X120129853Y-81983616D01*
X120016627Y-82017963D01*
X119950443Y-82024481D01*
X119884260Y-82031000D01*
X119795740Y-82031000D01*
X119729557Y-82024481D01*
X119663373Y-82017963D01*
X119550147Y-81983616D01*
X119493533Y-81966443D01*
X119337011Y-81882779D01*
X119337009Y-81882778D01*
X119298288Y-81851000D01*
X119199814Y-81770186D01*
X119116552Y-81668729D01*
X119087222Y-81632991D01*
X119077652Y-81615087D01*
X119003557Y-81476467D01*
X118986384Y-81419853D01*
X118952037Y-81306627D01*
X118934641Y-81130000D01*
X118952037Y-80953373D01*
X119003557Y-80783534D01*
X119003557Y-80783533D01*
X119087221Y-80627011D01*
X119087222Y-80627009D01*
X119116552Y-80591271D01*
X119199814Y-80489814D01*
X119301271Y-80406552D01*
X119337009Y-80377222D01*
X119354913Y-80367652D01*
X119493533Y-80293557D01*
X119550147Y-80276384D01*
X119663373Y-80242037D01*
X119729558Y-80235518D01*
X119795740Y-80229000D01*
X119884260Y-80229000D01*
X119950442Y-80235518D01*
X119950442Y-80235518D01*
G37*
G36*
X132651000Y-81851000D02*
X131149000Y-81851000D01*
X131149000Y-80149000D01*
X132651000Y-80149000D01*
X132651000Y-81851000D01*
X132651000Y-81851000D01*
G37*
G36*
X135651000Y-81851000D02*
X134149000Y-81851000D01*
X134149000Y-80149000D01*
X135651000Y-80149000D01*
X135651000Y-81851000D01*
X135651000Y-81851000D01*
G37*
G36*
X141751000Y-79951000D02*
X140249000Y-79951000D01*
X140249000Y-78249000D01*
X141751000Y-78249000D01*
X141751000Y-79951000D01*
X141751000Y-79951000D01*
G37*
G36*
X138751000Y-79951000D02*
X137249000Y-79951000D01*
X137249000Y-78249000D01*
X138751000Y-78249000D01*
X138751000Y-79951000D01*
X138751000Y-79951000D01*
G37*
G36*
X126651000Y-79951000D02*
X125149000Y-79951000D01*
X125149000Y-78249000D01*
X126651000Y-78249000D01*
X126651000Y-79951000D01*
X126651000Y-79951000D01*
G37*
G36*
X129651000Y-79951000D02*
X128149000Y-79951000D01*
X128149000Y-78249000D01*
X129651000Y-78249000D01*
X129651000Y-79951000D01*
X129651000Y-79951000D01*
G37*
G36*
X123181938Y-78991716D02*
X123202556Y-78997970D01*
X123221556Y-79008126D01*
X123238208Y-79021792D01*
X123251874Y-79038444D01*
X123262030Y-79057444D01*
X123268284Y-79078062D01*
X123271000Y-79105640D01*
X123271000Y-79564360D01*
X123268284Y-79591938D01*
X123262030Y-79612556D01*
X123251874Y-79631556D01*
X123238208Y-79648208D01*
X123221556Y-79661874D01*
X123202556Y-79672030D01*
X123181938Y-79678284D01*
X123154360Y-79681000D01*
X122645640Y-79681000D01*
X122618062Y-79678284D01*
X122597444Y-79672030D01*
X122578444Y-79661874D01*
X122561792Y-79648208D01*
X122548126Y-79631556D01*
X122537970Y-79612556D01*
X122531716Y-79591938D01*
X122529000Y-79564360D01*
X122529000Y-79105640D01*
X122531716Y-79078062D01*
X122537970Y-79057444D01*
X122548126Y-79038444D01*
X122561792Y-79021792D01*
X122578444Y-79008126D01*
X122597444Y-78997970D01*
X122618062Y-78991716D01*
X122645640Y-78989000D01*
X123154360Y-78989000D01*
X123181938Y-78991716D01*
X123181938Y-78991716D01*
G37*
G36*
X117410442Y-77695518D02*
X117476627Y-77702037D01*
X117589853Y-77736384D01*
X117646467Y-77753557D01*
X117785087Y-77827652D01*
X117802991Y-77837222D01*
X117838729Y-77866552D01*
X117940186Y-77949814D01*
X118020892Y-78048156D01*
X118052778Y-78087009D01*
X118057523Y-78095886D01*
X118136443Y-78243533D01*
X118136443Y-78243534D01*
X118187963Y-78413373D01*
X118205359Y-78590000D01*
X118187963Y-78766627D01*
X118153616Y-78879853D01*
X118136443Y-78936467D01*
X118090835Y-79021792D01*
X118052778Y-79092991D01*
X118042397Y-79105640D01*
X117940186Y-79230186D01*
X117838729Y-79313448D01*
X117802991Y-79342778D01*
X117802989Y-79342779D01*
X117646467Y-79426443D01*
X117589853Y-79443616D01*
X117476627Y-79477963D01*
X117410442Y-79484482D01*
X117344260Y-79491000D01*
X117255740Y-79491000D01*
X117189558Y-79484482D01*
X117123373Y-79477963D01*
X117010147Y-79443616D01*
X116953533Y-79426443D01*
X116797011Y-79342779D01*
X116797009Y-79342778D01*
X116761271Y-79313448D01*
X116659814Y-79230186D01*
X116557603Y-79105640D01*
X116547222Y-79092991D01*
X116509165Y-79021792D01*
X116463557Y-78936467D01*
X116446384Y-78879853D01*
X116412037Y-78766627D01*
X116394641Y-78590000D01*
X116412037Y-78413373D01*
X116463557Y-78243534D01*
X116463557Y-78243533D01*
X116542477Y-78095886D01*
X116547222Y-78087009D01*
X116579108Y-78048156D01*
X116659814Y-77949814D01*
X116761271Y-77866552D01*
X116797009Y-77837222D01*
X116814913Y-77827652D01*
X116953533Y-77753557D01*
X117010147Y-77736384D01*
X117123373Y-77702037D01*
X117189558Y-77695518D01*
X117255740Y-77689000D01*
X117344260Y-77689000D01*
X117410442Y-77695518D01*
X117410442Y-77695518D01*
G37*
G36*
X119950442Y-77695518D02*
X120016627Y-77702037D01*
X120129853Y-77736384D01*
X120186467Y-77753557D01*
X120325087Y-77827652D01*
X120342991Y-77837222D01*
X120378729Y-77866552D01*
X120480186Y-77949814D01*
X120560892Y-78048156D01*
X120592778Y-78087009D01*
X120597523Y-78095886D01*
X120676443Y-78243533D01*
X120676443Y-78243534D01*
X120727963Y-78413373D01*
X120745359Y-78590000D01*
X120727963Y-78766627D01*
X120693616Y-78879853D01*
X120676443Y-78936467D01*
X120630835Y-79021792D01*
X120592778Y-79092991D01*
X120582397Y-79105640D01*
X120480186Y-79230186D01*
X120378729Y-79313448D01*
X120342991Y-79342778D01*
X120342989Y-79342779D01*
X120186467Y-79426443D01*
X120129853Y-79443616D01*
X120016627Y-79477963D01*
X119950442Y-79484482D01*
X119884260Y-79491000D01*
X119795740Y-79491000D01*
X119729558Y-79484482D01*
X119663373Y-79477963D01*
X119550147Y-79443616D01*
X119493533Y-79426443D01*
X119337011Y-79342779D01*
X119337009Y-79342778D01*
X119301271Y-79313448D01*
X119199814Y-79230186D01*
X119097603Y-79105640D01*
X119087222Y-79092991D01*
X119049165Y-79021792D01*
X119003557Y-78936467D01*
X118986384Y-78879853D01*
X118952037Y-78766627D01*
X118934641Y-78590000D01*
X118952037Y-78413373D01*
X119003557Y-78243534D01*
X119003557Y-78243533D01*
X119082477Y-78095886D01*
X119087222Y-78087009D01*
X119119108Y-78048156D01*
X119199814Y-77949814D01*
X119301271Y-77866552D01*
X119337009Y-77837222D01*
X119354913Y-77827652D01*
X119493533Y-77753557D01*
X119550147Y-77736384D01*
X119663373Y-77702037D01*
X119729558Y-77695518D01*
X119795740Y-77689000D01*
X119884260Y-77689000D01*
X119950442Y-77695518D01*
X119950442Y-77695518D01*
G37*
G36*
X123181938Y-78021716D02*
X123202556Y-78027970D01*
X123221556Y-78038126D01*
X123238208Y-78051792D01*
X123251874Y-78068444D01*
X123262030Y-78087444D01*
X123268284Y-78108062D01*
X123271000Y-78135640D01*
X123271000Y-78594360D01*
X123268284Y-78621938D01*
X123262030Y-78642556D01*
X123251874Y-78661556D01*
X123238208Y-78678208D01*
X123221556Y-78691874D01*
X123202556Y-78702030D01*
X123181938Y-78708284D01*
X123154360Y-78711000D01*
X122645640Y-78711000D01*
X122618062Y-78708284D01*
X122597444Y-78702030D01*
X122578444Y-78691874D01*
X122561792Y-78678208D01*
X122548126Y-78661556D01*
X122537970Y-78642556D01*
X122531716Y-78621938D01*
X122529000Y-78594360D01*
X122529000Y-78135640D01*
X122531716Y-78108062D01*
X122537970Y-78087444D01*
X122548126Y-78068444D01*
X122561792Y-78051792D01*
X122578444Y-78038126D01*
X122597444Y-78027970D01*
X122618062Y-78021716D01*
X122645640Y-78019000D01*
X123154360Y-78019000D01*
X123181938Y-78021716D01*
X123181938Y-78021716D01*
G37*
G36*
X117410443Y-75155519D02*
X117476627Y-75162037D01*
X117589853Y-75196384D01*
X117646467Y-75213557D01*
X117785087Y-75287652D01*
X117802991Y-75297222D01*
X117838729Y-75326552D01*
X117940186Y-75409814D01*
X118023448Y-75511271D01*
X118052778Y-75547009D01*
X118052779Y-75547011D01*
X118136443Y-75703533D01*
X118136443Y-75703534D01*
X118187963Y-75873373D01*
X118205359Y-76050000D01*
X118187963Y-76226627D01*
X118182195Y-76245640D01*
X118136443Y-76396467D01*
X118062348Y-76535087D01*
X118052778Y-76552991D01*
X118023448Y-76588729D01*
X117940186Y-76690186D01*
X117849993Y-76764204D01*
X117802991Y-76802778D01*
X117802989Y-76802779D01*
X117646467Y-76886443D01*
X117589853Y-76903616D01*
X117476627Y-76937963D01*
X117410442Y-76944482D01*
X117344260Y-76951000D01*
X117255740Y-76951000D01*
X117189558Y-76944482D01*
X117123373Y-76937963D01*
X117010147Y-76903616D01*
X116953533Y-76886443D01*
X116797011Y-76802779D01*
X116797009Y-76802778D01*
X116750007Y-76764204D01*
X116659814Y-76690186D01*
X116576552Y-76588729D01*
X116547222Y-76552991D01*
X116537652Y-76535087D01*
X116463557Y-76396467D01*
X116417805Y-76245640D01*
X116412037Y-76226627D01*
X116394641Y-76050000D01*
X116412037Y-75873373D01*
X116463557Y-75703534D01*
X116463557Y-75703533D01*
X116547221Y-75547011D01*
X116547222Y-75547009D01*
X116576552Y-75511271D01*
X116659814Y-75409814D01*
X116761271Y-75326552D01*
X116797009Y-75297222D01*
X116814913Y-75287652D01*
X116953533Y-75213557D01*
X117010147Y-75196384D01*
X117123373Y-75162037D01*
X117189557Y-75155519D01*
X117255740Y-75149000D01*
X117344260Y-75149000D01*
X117410443Y-75155519D01*
X117410443Y-75155519D01*
G37*
G36*
X119950443Y-75155519D02*
X120016627Y-75162037D01*
X120129853Y-75196384D01*
X120186467Y-75213557D01*
X120325087Y-75287652D01*
X120342991Y-75297222D01*
X120378729Y-75326552D01*
X120480186Y-75409814D01*
X120563448Y-75511271D01*
X120592778Y-75547009D01*
X120592779Y-75547011D01*
X120676443Y-75703533D01*
X120676443Y-75703534D01*
X120727963Y-75873373D01*
X120745359Y-76050000D01*
X120727963Y-76226627D01*
X120722195Y-76245640D01*
X120676443Y-76396467D01*
X120602348Y-76535087D01*
X120592778Y-76552991D01*
X120563448Y-76588729D01*
X120480186Y-76690186D01*
X120389993Y-76764204D01*
X120342991Y-76802778D01*
X120342989Y-76802779D01*
X120186467Y-76886443D01*
X120129853Y-76903616D01*
X120016627Y-76937963D01*
X119950442Y-76944482D01*
X119884260Y-76951000D01*
X119795740Y-76951000D01*
X119729558Y-76944482D01*
X119663373Y-76937963D01*
X119550147Y-76903616D01*
X119493533Y-76886443D01*
X119337011Y-76802779D01*
X119337009Y-76802778D01*
X119290007Y-76764204D01*
X119199814Y-76690186D01*
X119116552Y-76588729D01*
X119087222Y-76552991D01*
X119077652Y-76535087D01*
X119003557Y-76396467D01*
X118957805Y-76245640D01*
X118952037Y-76226627D01*
X118934641Y-76050000D01*
X118952037Y-75873373D01*
X119003557Y-75703534D01*
X119003557Y-75703533D01*
X119087221Y-75547011D01*
X119087222Y-75547009D01*
X119116552Y-75511271D01*
X119199814Y-75409814D01*
X119301271Y-75326552D01*
X119337009Y-75297222D01*
X119354913Y-75287652D01*
X119493533Y-75213557D01*
X119550147Y-75196384D01*
X119663373Y-75162037D01*
X119729557Y-75155519D01*
X119795740Y-75149000D01*
X119884260Y-75149000D01*
X119950443Y-75155519D01*
X119950443Y-75155519D01*
G37*
G36*
X129091938Y-76131716D02*
X129112556Y-76137970D01*
X129131556Y-76148126D01*
X129148208Y-76161792D01*
X129161874Y-76178444D01*
X129172030Y-76197444D01*
X129178284Y-76218062D01*
X129181000Y-76245640D01*
X129181000Y-76754360D01*
X129178284Y-76781938D01*
X129172030Y-76802556D01*
X129161874Y-76821556D01*
X129148208Y-76838208D01*
X129131556Y-76851874D01*
X129112556Y-76862030D01*
X129091938Y-76868284D01*
X129064360Y-76871000D01*
X128605640Y-76871000D01*
X128578062Y-76868284D01*
X128557444Y-76862030D01*
X128538444Y-76851874D01*
X128521792Y-76838208D01*
X128508126Y-76821556D01*
X128497970Y-76802556D01*
X128491716Y-76781938D01*
X128489000Y-76754360D01*
X128489000Y-76245640D01*
X128491716Y-76218062D01*
X128497970Y-76197444D01*
X128508126Y-76178444D01*
X128521792Y-76161792D01*
X128538444Y-76148126D01*
X128557444Y-76137970D01*
X128578062Y-76131716D01*
X128605640Y-76129000D01*
X129064360Y-76129000D01*
X129091938Y-76131716D01*
X129091938Y-76131716D01*
G37*
G36*
X128121938Y-76131716D02*
X128142556Y-76137970D01*
X128161556Y-76148126D01*
X128178208Y-76161792D01*
X128191874Y-76178444D01*
X128202030Y-76197444D01*
X128208284Y-76218062D01*
X128211000Y-76245640D01*
X128211000Y-76754360D01*
X128208284Y-76781938D01*
X128202030Y-76802556D01*
X128191874Y-76821556D01*
X128178208Y-76838208D01*
X128161556Y-76851874D01*
X128142556Y-76862030D01*
X128121938Y-76868284D01*
X128094360Y-76871000D01*
X127635640Y-76871000D01*
X127608062Y-76868284D01*
X127587444Y-76862030D01*
X127568444Y-76851874D01*
X127551792Y-76838208D01*
X127538126Y-76821556D01*
X127527970Y-76802556D01*
X127521716Y-76781938D01*
X127519000Y-76754360D01*
X127519000Y-76245640D01*
X127521716Y-76218062D01*
X127527970Y-76197444D01*
X127538126Y-76178444D01*
X127551792Y-76161792D01*
X127568444Y-76148126D01*
X127587444Y-76137970D01*
X127608062Y-76131716D01*
X127635640Y-76129000D01*
X128094360Y-76129000D01*
X128121938Y-76131716D01*
X128121938Y-76131716D01*
G37*
G36*
X135651000Y-74651000D02*
X134149000Y-74651000D01*
X134149000Y-72949000D01*
X135651000Y-72949000D01*
X135651000Y-74651000D01*
X135651000Y-74651000D01*
G37*
G36*
X132651000Y-74651000D02*
X131149000Y-74651000D01*
X131149000Y-72949000D01*
X132651000Y-72949000D01*
X132651000Y-74651000D01*
X132651000Y-74651000D01*
G37*
G36*
X129751000Y-74551000D02*
X128249000Y-74551000D01*
X128249000Y-72849000D01*
X129751000Y-72849000D01*
X129751000Y-74551000D01*
X129751000Y-74551000D01*
G37*
G36*
X141651000Y-74551000D02*
X140149000Y-74551000D01*
X140149000Y-72849000D01*
X141651000Y-72849000D01*
X141651000Y-74551000D01*
X141651000Y-74551000D01*
G37*
G36*
X138651000Y-74551000D02*
X137149000Y-74551000D01*
X137149000Y-72849000D01*
X138651000Y-72849000D01*
X138651000Y-74551000D01*
X138651000Y-74551000D01*
G37*
G36*
X126751000Y-74551000D02*
X125249000Y-74551000D01*
X125249000Y-72849000D01*
X126751000Y-72849000D01*
X126751000Y-74551000D01*
X126751000Y-74551000D01*
G37*
G36*
X119950442Y-72615518D02*
X120016627Y-72622037D01*
X120129853Y-72656384D01*
X120186467Y-72673557D01*
X120325087Y-72747652D01*
X120342991Y-72757222D01*
X120378729Y-72786552D01*
X120480186Y-72869814D01*
X120545171Y-72949000D01*
X120592778Y-73007009D01*
X120592779Y-73007011D01*
X120676443Y-73163533D01*
X120676443Y-73163534D01*
X120727963Y-73333373D01*
X120745359Y-73510000D01*
X120727963Y-73686627D01*
X120693616Y-73799853D01*
X120676443Y-73856467D01*
X120602348Y-73995087D01*
X120592778Y-74012991D01*
X120563448Y-74048729D01*
X120480186Y-74150186D01*
X120378729Y-74233448D01*
X120342991Y-74262778D01*
X120342989Y-74262779D01*
X120186467Y-74346443D01*
X120129853Y-74363616D01*
X120016627Y-74397963D01*
X119950443Y-74404481D01*
X119884260Y-74411000D01*
X119795740Y-74411000D01*
X119729557Y-74404481D01*
X119663373Y-74397963D01*
X119550147Y-74363616D01*
X119493533Y-74346443D01*
X119337011Y-74262779D01*
X119337009Y-74262778D01*
X119301271Y-74233448D01*
X119199814Y-74150186D01*
X119116552Y-74048729D01*
X119087222Y-74012991D01*
X119077652Y-73995087D01*
X119003557Y-73856467D01*
X118986384Y-73799853D01*
X118952037Y-73686627D01*
X118934641Y-73510000D01*
X118952037Y-73333373D01*
X119003557Y-73163534D01*
X119003557Y-73163533D01*
X119087221Y-73007011D01*
X119087222Y-73007009D01*
X119134829Y-72949000D01*
X119199814Y-72869814D01*
X119301271Y-72786552D01*
X119337009Y-72757222D01*
X119354913Y-72747652D01*
X119493533Y-72673557D01*
X119550147Y-72656384D01*
X119663373Y-72622037D01*
X119729558Y-72615518D01*
X119795740Y-72609000D01*
X119884260Y-72609000D01*
X119950442Y-72615518D01*
X119950442Y-72615518D01*
G37*
G36*
X117410442Y-72615518D02*
X117476627Y-72622037D01*
X117589853Y-72656384D01*
X117646467Y-72673557D01*
X117785087Y-72747652D01*
X117802991Y-72757222D01*
X117838729Y-72786552D01*
X117940186Y-72869814D01*
X118005171Y-72949000D01*
X118052778Y-73007009D01*
X118052779Y-73007011D01*
X118136443Y-73163533D01*
X118136443Y-73163534D01*
X118187963Y-73333373D01*
X118205359Y-73510000D01*
X118187963Y-73686627D01*
X118153616Y-73799853D01*
X118136443Y-73856467D01*
X118062348Y-73995087D01*
X118052778Y-74012991D01*
X118023448Y-74048729D01*
X117940186Y-74150186D01*
X117838729Y-74233448D01*
X117802991Y-74262778D01*
X117802989Y-74262779D01*
X117646467Y-74346443D01*
X117589853Y-74363616D01*
X117476627Y-74397963D01*
X117410443Y-74404481D01*
X117344260Y-74411000D01*
X117255740Y-74411000D01*
X117189557Y-74404481D01*
X117123373Y-74397963D01*
X117010147Y-74363616D01*
X116953533Y-74346443D01*
X116797011Y-74262779D01*
X116797009Y-74262778D01*
X116761271Y-74233448D01*
X116659814Y-74150186D01*
X116576552Y-74048729D01*
X116547222Y-74012991D01*
X116537652Y-73995087D01*
X116463557Y-73856467D01*
X116446384Y-73799853D01*
X116412037Y-73686627D01*
X116394641Y-73510000D01*
X116412037Y-73333373D01*
X116463557Y-73163534D01*
X116463557Y-73163533D01*
X116547221Y-73007011D01*
X116547222Y-73007009D01*
X116594829Y-72949000D01*
X116659814Y-72869814D01*
X116761271Y-72786552D01*
X116797009Y-72757222D01*
X116814913Y-72747652D01*
X116953533Y-72673557D01*
X117010147Y-72656384D01*
X117123373Y-72622037D01*
X117189558Y-72615518D01*
X117255740Y-72609000D01*
X117344260Y-72609000D01*
X117410442Y-72615518D01*
X117410442Y-72615518D01*
G37*
G36*
X119950443Y-70075519D02*
X120016627Y-70082037D01*
X120129853Y-70116384D01*
X120186467Y-70133557D01*
X120325087Y-70207652D01*
X120342991Y-70217222D01*
X120378729Y-70246552D01*
X120480186Y-70329814D01*
X120563448Y-70431271D01*
X120592778Y-70467009D01*
X120592779Y-70467011D01*
X120676443Y-70623533D01*
X120676443Y-70623534D01*
X120727963Y-70793373D01*
X120745359Y-70970000D01*
X120727963Y-71146627D01*
X120693616Y-71259853D01*
X120676443Y-71316467D01*
X120602348Y-71455087D01*
X120592778Y-71472991D01*
X120563448Y-71508729D01*
X120480186Y-71610186D01*
X120378729Y-71693448D01*
X120342991Y-71722778D01*
X120342989Y-71722779D01*
X120186467Y-71806443D01*
X120129853Y-71823616D01*
X120016627Y-71857963D01*
X119950443Y-71864481D01*
X119884260Y-71871000D01*
X119795740Y-71871000D01*
X119729557Y-71864481D01*
X119663373Y-71857963D01*
X119550147Y-71823616D01*
X119493533Y-71806443D01*
X119337011Y-71722779D01*
X119337009Y-71722778D01*
X119301271Y-71693448D01*
X119199814Y-71610186D01*
X119116552Y-71508729D01*
X119087222Y-71472991D01*
X119077652Y-71455087D01*
X119003557Y-71316467D01*
X118986384Y-71259853D01*
X118952037Y-71146627D01*
X118934641Y-70970000D01*
X118952037Y-70793373D01*
X119003557Y-70623534D01*
X119003557Y-70623533D01*
X119087221Y-70467011D01*
X119087222Y-70467009D01*
X119116552Y-70431271D01*
X119199814Y-70329814D01*
X119301271Y-70246552D01*
X119337009Y-70217222D01*
X119354913Y-70207652D01*
X119493533Y-70133557D01*
X119550147Y-70116384D01*
X119663373Y-70082037D01*
X119729557Y-70075519D01*
X119795740Y-70069000D01*
X119884260Y-70069000D01*
X119950443Y-70075519D01*
X119950443Y-70075519D01*
G37*
G36*
X117410443Y-70075519D02*
X117476627Y-70082037D01*
X117589853Y-70116384D01*
X117646467Y-70133557D01*
X117785087Y-70207652D01*
X117802991Y-70217222D01*
X117838729Y-70246552D01*
X117940186Y-70329814D01*
X118023448Y-70431271D01*
X118052778Y-70467009D01*
X118052779Y-70467011D01*
X118136443Y-70623533D01*
X118136443Y-70623534D01*
X118187963Y-70793373D01*
X118205359Y-70970000D01*
X118187963Y-71146627D01*
X118153616Y-71259853D01*
X118136443Y-71316467D01*
X118062348Y-71455087D01*
X118052778Y-71472991D01*
X118023448Y-71508729D01*
X117940186Y-71610186D01*
X117838729Y-71693448D01*
X117802991Y-71722778D01*
X117802989Y-71722779D01*
X117646467Y-71806443D01*
X117589853Y-71823616D01*
X117476627Y-71857963D01*
X117410443Y-71864481D01*
X117344260Y-71871000D01*
X117255740Y-71871000D01*
X117189557Y-71864481D01*
X117123373Y-71857963D01*
X117010147Y-71823616D01*
X116953533Y-71806443D01*
X116797011Y-71722779D01*
X116797009Y-71722778D01*
X116761271Y-71693448D01*
X116659814Y-71610186D01*
X116576552Y-71508729D01*
X116547222Y-71472991D01*
X116537652Y-71455087D01*
X116463557Y-71316467D01*
X116446384Y-71259853D01*
X116412037Y-71146627D01*
X116394641Y-70970000D01*
X116412037Y-70793373D01*
X116463557Y-70623534D01*
X116463557Y-70623533D01*
X116547221Y-70467011D01*
X116547222Y-70467009D01*
X116576552Y-70431271D01*
X116659814Y-70329814D01*
X116761271Y-70246552D01*
X116797009Y-70217222D01*
X116814913Y-70207652D01*
X116953533Y-70133557D01*
X117010147Y-70116384D01*
X117123373Y-70082037D01*
X117189557Y-70075519D01*
X117255740Y-70069000D01*
X117344260Y-70069000D01*
X117410443Y-70075519D01*
X117410443Y-70075519D01*
G37*
G36*
X119950443Y-67535519D02*
X120016627Y-67542037D01*
X120129853Y-67576384D01*
X120186467Y-67593557D01*
X120325087Y-67667652D01*
X120342991Y-67677222D01*
X120378729Y-67706552D01*
X120480186Y-67789814D01*
X120563448Y-67891271D01*
X120592778Y-67927009D01*
X120592779Y-67927011D01*
X120676443Y-68083533D01*
X120693616Y-68140147D01*
X120727963Y-68253373D01*
X120745359Y-68430000D01*
X120727963Y-68606627D01*
X120708639Y-68670329D01*
X120676443Y-68776467D01*
X120654416Y-68817676D01*
X120592778Y-68932991D01*
X120563448Y-68968729D01*
X120480186Y-69070186D01*
X120378729Y-69153448D01*
X120342991Y-69182778D01*
X120342989Y-69182779D01*
X120186467Y-69266443D01*
X120129853Y-69283616D01*
X120016627Y-69317963D01*
X119950442Y-69324482D01*
X119884260Y-69331000D01*
X119795740Y-69331000D01*
X119729558Y-69324482D01*
X119663373Y-69317963D01*
X119550147Y-69283616D01*
X119493533Y-69266443D01*
X119337011Y-69182779D01*
X119337009Y-69182778D01*
X119301271Y-69153448D01*
X119199814Y-69070186D01*
X119116552Y-68968729D01*
X119087222Y-68932991D01*
X119025584Y-68817676D01*
X119003557Y-68776467D01*
X118971361Y-68670329D01*
X118952037Y-68606627D01*
X118934641Y-68430000D01*
X118952037Y-68253373D01*
X118986384Y-68140147D01*
X119003557Y-68083533D01*
X119087221Y-67927011D01*
X119087222Y-67927009D01*
X119116552Y-67891271D01*
X119199814Y-67789814D01*
X119301271Y-67706552D01*
X119337009Y-67677222D01*
X119354913Y-67667652D01*
X119493533Y-67593557D01*
X119550147Y-67576384D01*
X119663373Y-67542037D01*
X119729557Y-67535519D01*
X119795740Y-67529000D01*
X119884260Y-67529000D01*
X119950443Y-67535519D01*
X119950443Y-67535519D01*
G37*
G36*
X117410443Y-67535519D02*
X117476627Y-67542037D01*
X117589853Y-67576384D01*
X117646467Y-67593557D01*
X117785087Y-67667652D01*
X117802991Y-67677222D01*
X117838729Y-67706552D01*
X117940186Y-67789814D01*
X118023448Y-67891271D01*
X118052778Y-67927009D01*
X118052779Y-67927011D01*
X118136443Y-68083533D01*
X118153616Y-68140147D01*
X118187963Y-68253373D01*
X118205359Y-68430000D01*
X118187963Y-68606627D01*
X118168639Y-68670329D01*
X118136443Y-68776467D01*
X118114416Y-68817676D01*
X118052778Y-68932991D01*
X118023448Y-68968729D01*
X117940186Y-69070186D01*
X117838729Y-69153448D01*
X117802991Y-69182778D01*
X117802989Y-69182779D01*
X117646467Y-69266443D01*
X117589853Y-69283616D01*
X117476627Y-69317963D01*
X117410442Y-69324482D01*
X117344260Y-69331000D01*
X117255740Y-69331000D01*
X117189558Y-69324482D01*
X117123373Y-69317963D01*
X117010147Y-69283616D01*
X116953533Y-69266443D01*
X116797011Y-69182779D01*
X116797009Y-69182778D01*
X116761271Y-69153448D01*
X116659814Y-69070186D01*
X116576552Y-68968729D01*
X116547222Y-68932991D01*
X116485584Y-68817676D01*
X116463557Y-68776467D01*
X116431361Y-68670329D01*
X116412037Y-68606627D01*
X116394641Y-68430000D01*
X116412037Y-68253373D01*
X116446384Y-68140147D01*
X116463557Y-68083533D01*
X116547221Y-67927011D01*
X116547222Y-67927009D01*
X116576552Y-67891271D01*
X116659814Y-67789814D01*
X116761271Y-67706552D01*
X116797009Y-67677222D01*
X116814913Y-67667652D01*
X116953533Y-67593557D01*
X117010147Y-67576384D01*
X117123373Y-67542037D01*
X117189557Y-67535519D01*
X117255740Y-67529000D01*
X117344260Y-67529000D01*
X117410443Y-67535519D01*
X117410443Y-67535519D01*
G37*
G36*
X132221938Y-68081716D02*
X132242556Y-68087970D01*
X132261556Y-68098126D01*
X132278208Y-68111792D01*
X132291874Y-68128444D01*
X132302030Y-68147444D01*
X132308284Y-68168062D01*
X132311000Y-68195640D01*
X132311000Y-68704360D01*
X132308284Y-68731938D01*
X132302030Y-68752556D01*
X132291874Y-68771556D01*
X132278208Y-68788208D01*
X132261556Y-68801874D01*
X132242556Y-68812030D01*
X132221938Y-68818284D01*
X132194360Y-68821000D01*
X131735640Y-68821000D01*
X131708062Y-68818284D01*
X131687444Y-68812030D01*
X131668444Y-68801874D01*
X131651792Y-68788208D01*
X131638126Y-68771556D01*
X131627970Y-68752556D01*
X131621716Y-68731938D01*
X131619000Y-68704360D01*
X131619000Y-68195640D01*
X131621716Y-68168062D01*
X131627970Y-68147444D01*
X131638126Y-68128444D01*
X131651792Y-68111792D01*
X131668444Y-68098126D01*
X131687444Y-68087970D01*
X131708062Y-68081716D01*
X131735640Y-68079000D01*
X132194360Y-68079000D01*
X132221938Y-68081716D01*
X132221938Y-68081716D01*
G37*
G36*
X133191938Y-68081716D02*
X133212556Y-68087970D01*
X133231556Y-68098126D01*
X133248208Y-68111792D01*
X133261874Y-68128444D01*
X133272030Y-68147444D01*
X133278284Y-68168062D01*
X133281000Y-68195640D01*
X133281000Y-68704360D01*
X133278284Y-68731938D01*
X133272030Y-68752556D01*
X133261874Y-68771556D01*
X133248208Y-68788208D01*
X133231556Y-68801874D01*
X133212556Y-68812030D01*
X133191938Y-68818284D01*
X133164360Y-68821000D01*
X132705640Y-68821000D01*
X132678062Y-68818284D01*
X132657444Y-68812030D01*
X132638444Y-68801874D01*
X132621792Y-68788208D01*
X132608126Y-68771556D01*
X132597970Y-68752556D01*
X132591716Y-68731938D01*
X132589000Y-68704360D01*
X132589000Y-68195640D01*
X132591716Y-68168062D01*
X132597970Y-68147444D01*
X132608126Y-68128444D01*
X132621792Y-68111792D01*
X132638444Y-68098126D01*
X132657444Y-68087970D01*
X132678062Y-68081716D01*
X132705640Y-68079000D01*
X133164360Y-68079000D01*
X133191938Y-68081716D01*
X133191938Y-68081716D01*
G37*
G36*
X134521938Y-67981716D02*
X134542556Y-67987970D01*
X134561556Y-67998126D01*
X134578208Y-68011792D01*
X134591874Y-68028444D01*
X134602030Y-68047444D01*
X134608284Y-68068062D01*
X134611000Y-68095640D01*
X134611000Y-68604360D01*
X134608284Y-68631938D01*
X134602030Y-68652556D01*
X134591874Y-68671556D01*
X134578208Y-68688208D01*
X134561556Y-68701874D01*
X134542556Y-68712030D01*
X134521938Y-68718284D01*
X134494360Y-68721000D01*
X134035640Y-68721000D01*
X134008062Y-68718284D01*
X133987444Y-68712030D01*
X133968444Y-68701874D01*
X133951792Y-68688208D01*
X133938126Y-68671556D01*
X133927970Y-68652556D01*
X133921716Y-68631938D01*
X133919000Y-68604360D01*
X133919000Y-68095640D01*
X133921716Y-68068062D01*
X133927970Y-68047444D01*
X133938126Y-68028444D01*
X133951792Y-68011792D01*
X133968444Y-67998126D01*
X133987444Y-67987970D01*
X134008062Y-67981716D01*
X134035640Y-67979000D01*
X134494360Y-67979000D01*
X134521938Y-67981716D01*
X134521938Y-67981716D01*
G37*
G36*
X135491938Y-67981716D02*
X135512556Y-67987970D01*
X135531556Y-67998126D01*
X135548208Y-68011792D01*
X135561874Y-68028444D01*
X135572030Y-68047444D01*
X135578284Y-68068062D01*
X135581000Y-68095640D01*
X135581000Y-68604360D01*
X135578284Y-68631938D01*
X135572030Y-68652556D01*
X135561874Y-68671556D01*
X135548208Y-68688208D01*
X135531556Y-68701874D01*
X135512556Y-68712030D01*
X135491938Y-68718284D01*
X135464360Y-68721000D01*
X135005640Y-68721000D01*
X134978062Y-68718284D01*
X134957444Y-68712030D01*
X134938444Y-68701874D01*
X134921792Y-68688208D01*
X134908126Y-68671556D01*
X134897970Y-68652556D01*
X134891716Y-68631938D01*
X134889000Y-68604360D01*
X134889000Y-68095640D01*
X134891716Y-68068062D01*
X134897970Y-68047444D01*
X134908126Y-68028444D01*
X134921792Y-68011792D01*
X134938444Y-67998126D01*
X134957444Y-67987970D01*
X134978062Y-67981716D01*
X135005640Y-67979000D01*
X135464360Y-67979000D01*
X135491938Y-67981716D01*
X135491938Y-67981716D01*
G37*
G36*
X141651000Y-67351000D02*
X140149000Y-67351000D01*
X140149000Y-65649000D01*
X141651000Y-65649000D01*
X141651000Y-67351000D01*
X141651000Y-67351000D01*
G37*
G36*
X126751000Y-67351000D02*
X125249000Y-67351000D01*
X125249000Y-65649000D01*
X126751000Y-65649000D01*
X126751000Y-67351000D01*
X126751000Y-67351000D01*
G37*
G36*
X129751000Y-67351000D02*
X128249000Y-67351000D01*
X128249000Y-65649000D01*
X129751000Y-65649000D01*
X129751000Y-67351000D01*
X129751000Y-67351000D01*
G37*
G36*
X138651000Y-67351000D02*
X137149000Y-67351000D01*
X137149000Y-65649000D01*
X138651000Y-65649000D01*
X138651000Y-67351000D01*
X138651000Y-67351000D01*
G37*
G36*
X133871938Y-66581716D02*
X133892556Y-66587970D01*
X133911556Y-66598126D01*
X133928208Y-66611792D01*
X133941874Y-66628444D01*
X133952030Y-66647444D01*
X133958284Y-66668062D01*
X133961000Y-66695640D01*
X133961000Y-67204360D01*
X133958284Y-67231938D01*
X133952030Y-67252556D01*
X133941874Y-67271556D01*
X133928208Y-67288208D01*
X133911556Y-67301874D01*
X133892556Y-67312030D01*
X133871938Y-67318284D01*
X133844360Y-67321000D01*
X133385640Y-67321000D01*
X133358062Y-67318284D01*
X133337444Y-67312030D01*
X133318444Y-67301874D01*
X133301792Y-67288208D01*
X133288126Y-67271556D01*
X133277970Y-67252556D01*
X133271716Y-67231938D01*
X133269000Y-67204360D01*
X133269000Y-66695640D01*
X133271716Y-66668062D01*
X133277970Y-66647444D01*
X133288126Y-66628444D01*
X133301792Y-66611792D01*
X133318444Y-66598126D01*
X133337444Y-66587970D01*
X133358062Y-66581716D01*
X133385640Y-66579000D01*
X133844360Y-66579000D01*
X133871938Y-66581716D01*
X133871938Y-66581716D01*
G37*
G36*
X134841938Y-66581716D02*
X134862556Y-66587970D01*
X134881556Y-66598126D01*
X134898208Y-66611792D01*
X134911874Y-66628444D01*
X134922030Y-66647444D01*
X134928284Y-66668062D01*
X134931000Y-66695640D01*
X134931000Y-67204360D01*
X134928284Y-67231938D01*
X134922030Y-67252556D01*
X134911874Y-67271556D01*
X134898208Y-67288208D01*
X134881556Y-67301874D01*
X134862556Y-67312030D01*
X134841938Y-67318284D01*
X134814360Y-67321000D01*
X134355640Y-67321000D01*
X134328062Y-67318284D01*
X134307444Y-67312030D01*
X134288444Y-67301874D01*
X134271792Y-67288208D01*
X134258126Y-67271556D01*
X134247970Y-67252556D01*
X134241716Y-67231938D01*
X134239000Y-67204360D01*
X134239000Y-66695640D01*
X134241716Y-66668062D01*
X134247970Y-66647444D01*
X134258126Y-66628444D01*
X134271792Y-66611792D01*
X134288444Y-66598126D01*
X134307444Y-66587970D01*
X134328062Y-66581716D01*
X134355640Y-66579000D01*
X134814360Y-66579000D01*
X134841938Y-66581716D01*
X134841938Y-66581716D01*
G37*
G36*
X132241938Y-66531716D02*
X132262556Y-66537970D01*
X132281556Y-66548126D01*
X132298208Y-66561792D01*
X132311874Y-66578444D01*
X132322030Y-66597444D01*
X132328284Y-66618062D01*
X132331000Y-66645640D01*
X132331000Y-67154360D01*
X132328284Y-67181938D01*
X132322030Y-67202556D01*
X132311874Y-67221556D01*
X132298208Y-67238208D01*
X132281556Y-67251874D01*
X132262556Y-67262030D01*
X132241938Y-67268284D01*
X132214360Y-67271000D01*
X131755640Y-67271000D01*
X131728062Y-67268284D01*
X131707444Y-67262030D01*
X131688444Y-67251874D01*
X131671792Y-67238208D01*
X131658126Y-67221556D01*
X131647970Y-67202556D01*
X131641716Y-67181938D01*
X131639000Y-67154360D01*
X131639000Y-66645640D01*
X131641716Y-66618062D01*
X131647970Y-66597444D01*
X131658126Y-66578444D01*
X131671792Y-66561792D01*
X131688444Y-66548126D01*
X131707444Y-66537970D01*
X131728062Y-66531716D01*
X131755640Y-66529000D01*
X132214360Y-66529000D01*
X132241938Y-66531716D01*
X132241938Y-66531716D01*
G37*
G36*
X131271938Y-66531716D02*
X131292556Y-66537970D01*
X131311556Y-66548126D01*
X131328208Y-66561792D01*
X131341874Y-66578444D01*
X131352030Y-66597444D01*
X131358284Y-66618062D01*
X131361000Y-66645640D01*
X131361000Y-67154360D01*
X131358284Y-67181938D01*
X131352030Y-67202556D01*
X131341874Y-67221556D01*
X131328208Y-67238208D01*
X131311556Y-67251874D01*
X131292556Y-67262030D01*
X131271938Y-67268284D01*
X131244360Y-67271000D01*
X130785640Y-67271000D01*
X130758062Y-67268284D01*
X130737444Y-67262030D01*
X130718444Y-67251874D01*
X130701792Y-67238208D01*
X130688126Y-67221556D01*
X130677970Y-67202556D01*
X130671716Y-67181938D01*
X130669000Y-67154360D01*
X130669000Y-66645640D01*
X130671716Y-66618062D01*
X130677970Y-66597444D01*
X130688126Y-66578444D01*
X130701792Y-66561792D01*
X130718444Y-66548126D01*
X130737444Y-66537970D01*
X130758062Y-66531716D01*
X130785640Y-66529000D01*
X131244360Y-66529000D01*
X131271938Y-66531716D01*
X131271938Y-66531716D01*
G37*
G36*
X119950443Y-64995519D02*
X120016627Y-65002037D01*
X120129853Y-65036384D01*
X120186467Y-65053557D01*
X120325087Y-65127652D01*
X120342991Y-65137222D01*
X120378729Y-65166552D01*
X120480186Y-65249814D01*
X120563448Y-65351271D01*
X120592778Y-65387009D01*
X120592779Y-65387011D01*
X120676443Y-65543533D01*
X120676443Y-65543534D01*
X120727963Y-65713373D01*
X120745359Y-65890000D01*
X120727963Y-66066627D01*
X120693616Y-66179853D01*
X120676443Y-66236467D01*
X120602348Y-66375087D01*
X120592778Y-66392991D01*
X120563448Y-66428729D01*
X120480186Y-66530186D01*
X120387944Y-66605886D01*
X120342991Y-66642778D01*
X120342989Y-66642779D01*
X120186467Y-66726443D01*
X120129853Y-66743616D01*
X120016627Y-66777963D01*
X119950443Y-66784481D01*
X119884260Y-66791000D01*
X119795740Y-66791000D01*
X119729557Y-66784481D01*
X119663373Y-66777963D01*
X119550147Y-66743616D01*
X119493533Y-66726443D01*
X119337011Y-66642779D01*
X119337009Y-66642778D01*
X119292056Y-66605886D01*
X119199814Y-66530186D01*
X119116552Y-66428729D01*
X119087222Y-66392991D01*
X119077652Y-66375087D01*
X119003557Y-66236467D01*
X118986384Y-66179853D01*
X118952037Y-66066627D01*
X118934641Y-65890000D01*
X118952037Y-65713373D01*
X119003557Y-65543534D01*
X119003557Y-65543533D01*
X119087221Y-65387011D01*
X119087222Y-65387009D01*
X119116552Y-65351271D01*
X119199814Y-65249814D01*
X119301271Y-65166552D01*
X119337009Y-65137222D01*
X119354913Y-65127652D01*
X119493533Y-65053557D01*
X119550147Y-65036384D01*
X119663373Y-65002037D01*
X119729557Y-64995519D01*
X119795740Y-64989000D01*
X119884260Y-64989000D01*
X119950443Y-64995519D01*
X119950443Y-64995519D01*
G37*
G36*
X117410443Y-64995519D02*
X117476627Y-65002037D01*
X117589853Y-65036384D01*
X117646467Y-65053557D01*
X117785087Y-65127652D01*
X117802991Y-65137222D01*
X117838729Y-65166552D01*
X117940186Y-65249814D01*
X118023448Y-65351271D01*
X118052778Y-65387009D01*
X118052779Y-65387011D01*
X118136443Y-65543533D01*
X118136443Y-65543534D01*
X118187963Y-65713373D01*
X118205359Y-65890000D01*
X118187963Y-66066627D01*
X118153616Y-66179853D01*
X118136443Y-66236467D01*
X118062348Y-66375087D01*
X118052778Y-66392991D01*
X118023448Y-66428729D01*
X117940186Y-66530186D01*
X117847944Y-66605886D01*
X117802991Y-66642778D01*
X117802989Y-66642779D01*
X117646467Y-66726443D01*
X117589853Y-66743616D01*
X117476627Y-66777963D01*
X117410443Y-66784481D01*
X117344260Y-66791000D01*
X117255740Y-66791000D01*
X117189557Y-66784481D01*
X117123373Y-66777963D01*
X117010147Y-66743616D01*
X116953533Y-66726443D01*
X116797011Y-66642779D01*
X116797009Y-66642778D01*
X116752056Y-66605886D01*
X116659814Y-66530186D01*
X116576552Y-66428729D01*
X116547222Y-66392991D01*
X116537652Y-66375087D01*
X116463557Y-66236467D01*
X116446384Y-66179853D01*
X116412037Y-66066627D01*
X116394641Y-65890000D01*
X116412037Y-65713373D01*
X116463557Y-65543534D01*
X116463557Y-65543533D01*
X116547221Y-65387011D01*
X116547222Y-65387009D01*
X116576552Y-65351271D01*
X116659814Y-65249814D01*
X116761271Y-65166552D01*
X116797009Y-65137222D01*
X116814913Y-65127652D01*
X116953533Y-65053557D01*
X117010147Y-65036384D01*
X117123373Y-65002037D01*
X117189557Y-64995519D01*
X117255740Y-64989000D01*
X117344260Y-64989000D01*
X117410443Y-64995519D01*
X117410443Y-64995519D01*
G37*
G36*
X119950442Y-62455518D02*
X120016627Y-62462037D01*
X120129853Y-62496384D01*
X120186467Y-62513557D01*
X120325087Y-62587652D01*
X120342991Y-62597222D01*
X120378729Y-62626552D01*
X120480186Y-62709814D01*
X120544673Y-62788393D01*
X120592778Y-62847009D01*
X120592779Y-62847011D01*
X120676443Y-63003533D01*
X120680850Y-63018062D01*
X120727963Y-63173373D01*
X120745359Y-63350000D01*
X120727963Y-63526627D01*
X120707491Y-63594114D01*
X120676443Y-63696467D01*
X120645444Y-63754461D01*
X120592778Y-63852991D01*
X120563448Y-63888729D01*
X120480186Y-63990186D01*
X120378729Y-64073448D01*
X120342991Y-64102778D01*
X120342989Y-64102779D01*
X120186467Y-64186443D01*
X120129853Y-64203616D01*
X120016627Y-64237963D01*
X119950443Y-64244481D01*
X119884260Y-64251000D01*
X119795740Y-64251000D01*
X119729557Y-64244481D01*
X119663373Y-64237963D01*
X119550147Y-64203616D01*
X119493533Y-64186443D01*
X119337011Y-64102779D01*
X119337009Y-64102778D01*
X119301271Y-64073448D01*
X119199814Y-63990186D01*
X119116552Y-63888729D01*
X119087222Y-63852991D01*
X119034556Y-63754461D01*
X119003557Y-63696467D01*
X118972509Y-63594114D01*
X118952037Y-63526627D01*
X118934641Y-63350000D01*
X118952037Y-63173373D01*
X118999150Y-63018062D01*
X119003557Y-63003533D01*
X119087221Y-62847011D01*
X119087222Y-62847009D01*
X119135327Y-62788393D01*
X119199814Y-62709814D01*
X119301271Y-62626552D01*
X119337009Y-62597222D01*
X119354913Y-62587652D01*
X119493533Y-62513557D01*
X119550147Y-62496384D01*
X119663373Y-62462037D01*
X119729558Y-62455518D01*
X119795740Y-62449000D01*
X119884260Y-62449000D01*
X119950442Y-62455518D01*
X119950442Y-62455518D01*
G37*
G36*
X118201000Y-64251000D02*
X116399000Y-64251000D01*
X116399000Y-62449000D01*
X118201000Y-62449000D01*
X118201000Y-64251000D01*
X118201000Y-64251000D01*
G37*
G36*
X143229591Y-62778085D02*
X143263569Y-62788393D01*
X143294887Y-62805133D01*
X143322339Y-62827661D01*
X143344867Y-62855113D01*
X143361607Y-62886431D01*
X143371915Y-62920409D01*
X143376000Y-62961890D01*
X143376000Y-63638110D01*
X143371915Y-63679591D01*
X143361607Y-63713569D01*
X143344867Y-63744887D01*
X143322339Y-63772339D01*
X143294887Y-63794867D01*
X143263569Y-63811607D01*
X143229591Y-63821915D01*
X143188110Y-63826000D01*
X142586890Y-63826000D01*
X142545409Y-63821915D01*
X142511431Y-63811607D01*
X142480113Y-63794867D01*
X142452661Y-63772339D01*
X142430133Y-63744887D01*
X142413393Y-63713569D01*
X142403085Y-63679591D01*
X142399000Y-63638110D01*
X142399000Y-62961890D01*
X142403085Y-62920409D01*
X142413393Y-62886431D01*
X142430133Y-62855113D01*
X142452661Y-62827661D01*
X142480113Y-62805133D01*
X142511431Y-62788393D01*
X142545409Y-62778085D01*
X142586890Y-62774000D01*
X143188110Y-62774000D01*
X143229591Y-62778085D01*
X143229591Y-62778085D01*
G37*
G36*
X141654591Y-62778085D02*
X141688569Y-62788393D01*
X141719887Y-62805133D01*
X141747339Y-62827661D01*
X141769867Y-62855113D01*
X141786607Y-62886431D01*
X141796915Y-62920409D01*
X141801000Y-62961890D01*
X141801000Y-63638110D01*
X141796915Y-63679591D01*
X141786607Y-63713569D01*
X141769867Y-63744887D01*
X141747339Y-63772339D01*
X141719887Y-63794867D01*
X141688569Y-63811607D01*
X141654591Y-63821915D01*
X141613110Y-63826000D01*
X141011890Y-63826000D01*
X140970409Y-63821915D01*
X140936431Y-63811607D01*
X140905113Y-63794867D01*
X140877661Y-63772339D01*
X140855133Y-63744887D01*
X140838393Y-63713569D01*
X140828085Y-63679591D01*
X140824000Y-63638110D01*
X140824000Y-62961890D01*
X140828085Y-62920409D01*
X140838393Y-62886431D01*
X140855133Y-62855113D01*
X140877661Y-62827661D01*
X140905113Y-62805133D01*
X140936431Y-62788393D01*
X140970409Y-62778085D01*
X141011890Y-62774000D01*
X141613110Y-62774000D01*
X141654591Y-62778085D01*
X141654591Y-62778085D01*
G37*
G36*
X139741938Y-62931716D02*
X139762556Y-62937970D01*
X139781556Y-62948126D01*
X139798208Y-62961792D01*
X139811874Y-62978444D01*
X139822030Y-62997444D01*
X139828284Y-63018062D01*
X139831000Y-63045640D01*
X139831000Y-63554360D01*
X139828284Y-63581938D01*
X139822030Y-63602556D01*
X139811874Y-63621556D01*
X139798208Y-63638208D01*
X139781556Y-63651874D01*
X139762556Y-63662030D01*
X139741938Y-63668284D01*
X139714360Y-63671000D01*
X139255640Y-63671000D01*
X139228062Y-63668284D01*
X139207444Y-63662030D01*
X139188444Y-63651874D01*
X139171792Y-63638208D01*
X139158126Y-63621556D01*
X139147970Y-63602556D01*
X139141716Y-63581938D01*
X139139000Y-63554360D01*
X139139000Y-63045640D01*
X139141716Y-63018062D01*
X139147970Y-62997444D01*
X139158126Y-62978444D01*
X139171792Y-62961792D01*
X139188444Y-62948126D01*
X139207444Y-62937970D01*
X139228062Y-62931716D01*
X139255640Y-62929000D01*
X139714360Y-62929000D01*
X139741938Y-62931716D01*
X139741938Y-62931716D01*
G37*
G36*
X138771938Y-62931716D02*
X138792556Y-62937970D01*
X138811556Y-62948126D01*
X138828208Y-62961792D01*
X138841874Y-62978444D01*
X138852030Y-62997444D01*
X138858284Y-63018062D01*
X138861000Y-63045640D01*
X138861000Y-63554360D01*
X138858284Y-63581938D01*
X138852030Y-63602556D01*
X138841874Y-63621556D01*
X138828208Y-63638208D01*
X138811556Y-63651874D01*
X138792556Y-63662030D01*
X138771938Y-63668284D01*
X138744360Y-63671000D01*
X138285640Y-63671000D01*
X138258062Y-63668284D01*
X138237444Y-63662030D01*
X138218444Y-63651874D01*
X138201792Y-63638208D01*
X138188126Y-63621556D01*
X138177970Y-63602556D01*
X138171716Y-63581938D01*
X138169000Y-63554360D01*
X138169000Y-63045640D01*
X138171716Y-63018062D01*
X138177970Y-62997444D01*
X138188126Y-62978444D01*
X138201792Y-62961792D01*
X138218444Y-62948126D01*
X138237444Y-62937970D01*
X138258062Y-62931716D01*
X138285640Y-62929000D01*
X138744360Y-62929000D01*
X138771938Y-62931716D01*
X138771938Y-62931716D01*
G37*
G36*
X131181938Y-61676716D02*
X131202556Y-61682970D01*
X131221556Y-61693126D01*
X131238208Y-61706792D01*
X131251874Y-61723444D01*
X131262030Y-61742444D01*
X131268284Y-61763062D01*
X131271000Y-61790640D01*
X131271000Y-62249360D01*
X131268284Y-62276938D01*
X131262030Y-62297556D01*
X131251874Y-62316556D01*
X131238208Y-62333208D01*
X131221556Y-62346874D01*
X131202556Y-62357030D01*
X131181938Y-62363284D01*
X131154360Y-62366000D01*
X130645640Y-62366000D01*
X130618062Y-62363284D01*
X130597444Y-62357030D01*
X130578444Y-62346874D01*
X130561792Y-62333208D01*
X130548126Y-62316556D01*
X130537970Y-62297556D01*
X130531716Y-62276938D01*
X130529000Y-62249360D01*
X130529000Y-61790640D01*
X130531716Y-61763062D01*
X130537970Y-61742444D01*
X130548126Y-61723444D01*
X130561792Y-61706792D01*
X130578444Y-61693126D01*
X130597444Y-61682970D01*
X130618062Y-61676716D01*
X130645640Y-61674000D01*
X131154360Y-61674000D01*
X131181938Y-61676716D01*
X131181938Y-61676716D01*
G37*
G36*
X129831938Y-61641716D02*
X129852556Y-61647970D01*
X129871556Y-61658126D01*
X129888208Y-61671792D01*
X129901874Y-61688444D01*
X129912030Y-61707444D01*
X129918284Y-61728062D01*
X129921000Y-61755640D01*
X129921000Y-62214360D01*
X129918284Y-62241938D01*
X129912030Y-62262556D01*
X129901874Y-62281556D01*
X129888208Y-62298208D01*
X129871556Y-62311874D01*
X129852556Y-62322030D01*
X129831938Y-62328284D01*
X129804360Y-62331000D01*
X129295640Y-62331000D01*
X129268062Y-62328284D01*
X129247444Y-62322030D01*
X129228444Y-62311874D01*
X129211792Y-62298208D01*
X129198126Y-62281556D01*
X129187970Y-62262556D01*
X129181716Y-62241938D01*
X129179000Y-62214360D01*
X129179000Y-61755640D01*
X129181716Y-61728062D01*
X129187970Y-61707444D01*
X129198126Y-61688444D01*
X129211792Y-61671792D01*
X129228444Y-61658126D01*
X129247444Y-61647970D01*
X129268062Y-61641716D01*
X129295640Y-61639000D01*
X129804360Y-61639000D01*
X129831938Y-61641716D01*
X129831938Y-61641716D01*
G37*
G36*
X141554591Y-60478085D02*
X141588569Y-60488393D01*
X141619887Y-60505133D01*
X141647339Y-60527661D01*
X141669867Y-60555113D01*
X141686607Y-60586431D01*
X141696915Y-60620409D01*
X141701000Y-60661890D01*
X141701000Y-61338110D01*
X141696915Y-61379591D01*
X141686607Y-61413569D01*
X141669867Y-61444887D01*
X141647339Y-61472339D01*
X141619887Y-61494867D01*
X141588569Y-61511607D01*
X141554591Y-61521915D01*
X141513110Y-61526000D01*
X140911890Y-61526000D01*
X140870409Y-61521915D01*
X140836431Y-61511607D01*
X140805113Y-61494867D01*
X140777661Y-61472339D01*
X140755133Y-61444887D01*
X140738393Y-61413569D01*
X140728085Y-61379591D01*
X140724000Y-61338110D01*
X140724000Y-60661890D01*
X140728085Y-60620409D01*
X140738393Y-60586431D01*
X140755133Y-60555113D01*
X140777661Y-60527661D01*
X140805113Y-60505133D01*
X140836431Y-60488393D01*
X140870409Y-60478085D01*
X140911890Y-60474000D01*
X141513110Y-60474000D01*
X141554591Y-60478085D01*
X141554591Y-60478085D01*
G37*
G36*
X143129591Y-60478085D02*
X143163569Y-60488393D01*
X143194887Y-60505133D01*
X143222339Y-60527661D01*
X143244867Y-60555113D01*
X143261607Y-60586431D01*
X143271915Y-60620409D01*
X143276000Y-60661890D01*
X143276000Y-61338110D01*
X143271915Y-61379591D01*
X143261607Y-61413569D01*
X143244867Y-61444887D01*
X143222339Y-61472339D01*
X143194887Y-61494867D01*
X143163569Y-61511607D01*
X143129591Y-61521915D01*
X143088110Y-61526000D01*
X142486890Y-61526000D01*
X142445409Y-61521915D01*
X142411431Y-61511607D01*
X142380113Y-61494867D01*
X142352661Y-61472339D01*
X142330133Y-61444887D01*
X142313393Y-61413569D01*
X142303085Y-61379591D01*
X142299000Y-61338110D01*
X142299000Y-60661890D01*
X142303085Y-60620409D01*
X142313393Y-60586431D01*
X142330133Y-60555113D01*
X142352661Y-60527661D01*
X142380113Y-60505133D01*
X142411431Y-60488393D01*
X142445409Y-60478085D01*
X142486890Y-60474000D01*
X143088110Y-60474000D01*
X143129591Y-60478085D01*
X143129591Y-60478085D01*
G37*
G36*
X131181938Y-60706716D02*
X131202556Y-60712970D01*
X131221556Y-60723126D01*
X131238208Y-60736792D01*
X131251874Y-60753444D01*
X131262030Y-60772444D01*
X131268284Y-60793062D01*
X131271000Y-60820640D01*
X131271000Y-61279360D01*
X131268284Y-61306938D01*
X131262030Y-61327556D01*
X131251874Y-61346556D01*
X131238208Y-61363208D01*
X131221556Y-61376874D01*
X131202556Y-61387030D01*
X131181938Y-61393284D01*
X131154360Y-61396000D01*
X130645640Y-61396000D01*
X130618062Y-61393284D01*
X130597444Y-61387030D01*
X130578444Y-61376874D01*
X130561792Y-61363208D01*
X130548126Y-61346556D01*
X130537970Y-61327556D01*
X130531716Y-61306938D01*
X130529000Y-61279360D01*
X130529000Y-60820640D01*
X130531716Y-60793062D01*
X130537970Y-60772444D01*
X130548126Y-60753444D01*
X130561792Y-60736792D01*
X130578444Y-60723126D01*
X130597444Y-60712970D01*
X130618062Y-60706716D01*
X130645640Y-60704000D01*
X131154360Y-60704000D01*
X131181938Y-60706716D01*
X131181938Y-60706716D01*
G37*
G36*
X139756938Y-60631716D02*
X139777556Y-60637970D01*
X139796556Y-60648126D01*
X139813208Y-60661792D01*
X139826874Y-60678444D01*
X139837030Y-60697444D01*
X139843284Y-60718062D01*
X139846000Y-60745640D01*
X139846000Y-61254360D01*
X139843284Y-61281938D01*
X139837030Y-61302556D01*
X139826874Y-61321556D01*
X139813208Y-61338208D01*
X139796556Y-61351874D01*
X139777556Y-61362030D01*
X139756938Y-61368284D01*
X139729360Y-61371000D01*
X139270640Y-61371000D01*
X139243062Y-61368284D01*
X139222444Y-61362030D01*
X139203444Y-61351874D01*
X139186792Y-61338208D01*
X139173126Y-61321556D01*
X139162970Y-61302556D01*
X139156716Y-61281938D01*
X139154000Y-61254360D01*
X139154000Y-60745640D01*
X139156716Y-60718062D01*
X139162970Y-60697444D01*
X139173126Y-60678444D01*
X139186792Y-60661792D01*
X139203444Y-60648126D01*
X139222444Y-60637970D01*
X139243062Y-60631716D01*
X139270640Y-60629000D01*
X139729360Y-60629000D01*
X139756938Y-60631716D01*
X139756938Y-60631716D01*
G37*
G36*
X138786938Y-60631716D02*
X138807556Y-60637970D01*
X138826556Y-60648126D01*
X138843208Y-60661792D01*
X138856874Y-60678444D01*
X138867030Y-60697444D01*
X138873284Y-60718062D01*
X138876000Y-60745640D01*
X138876000Y-61254360D01*
X138873284Y-61281938D01*
X138867030Y-61302556D01*
X138856874Y-61321556D01*
X138843208Y-61338208D01*
X138826556Y-61351874D01*
X138807556Y-61362030D01*
X138786938Y-61368284D01*
X138759360Y-61371000D01*
X138300640Y-61371000D01*
X138273062Y-61368284D01*
X138252444Y-61362030D01*
X138233444Y-61351874D01*
X138216792Y-61338208D01*
X138203126Y-61321556D01*
X138192970Y-61302556D01*
X138186716Y-61281938D01*
X138184000Y-61254360D01*
X138184000Y-60745640D01*
X138186716Y-60718062D01*
X138192970Y-60697444D01*
X138203126Y-60678444D01*
X138216792Y-60661792D01*
X138233444Y-60648126D01*
X138252444Y-60637970D01*
X138273062Y-60631716D01*
X138300640Y-60629000D01*
X138759360Y-60629000D01*
X138786938Y-60631716D01*
X138786938Y-60631716D01*
G37*
G36*
X129831938Y-60671716D02*
X129852556Y-60677970D01*
X129871556Y-60688126D01*
X129888208Y-60701792D01*
X129901874Y-60718444D01*
X129912030Y-60737444D01*
X129918284Y-60758062D01*
X129921000Y-60785640D01*
X129921000Y-61244360D01*
X129918284Y-61271938D01*
X129912030Y-61292556D01*
X129901874Y-61311556D01*
X129888208Y-61328208D01*
X129871556Y-61341874D01*
X129852556Y-61352030D01*
X129831938Y-61358284D01*
X129804360Y-61361000D01*
X129295640Y-61361000D01*
X129268062Y-61358284D01*
X129247444Y-61352030D01*
X129228444Y-61341874D01*
X129211792Y-61328208D01*
X129198126Y-61311556D01*
X129187970Y-61292556D01*
X129181716Y-61271938D01*
X129179000Y-61244360D01*
X129179000Y-60785640D01*
X129181716Y-60758062D01*
X129187970Y-60737444D01*
X129198126Y-60718444D01*
X129211792Y-60701792D01*
X129228444Y-60688126D01*
X129247444Y-60677970D01*
X129268062Y-60671716D01*
X129295640Y-60669000D01*
X129804360Y-60669000D01*
X129831938Y-60671716D01*
X129831938Y-60671716D01*
G37*
G36*
X123351000Y-58001000D02*
X120949000Y-58001000D01*
X120949000Y-56399000D01*
X123351000Y-56399000D01*
X123351000Y-58001000D01*
X123351000Y-58001000D01*
G37*
G36*
X135101000Y-57501000D02*
X133299000Y-57501000D01*
X133299000Y-55699000D01*
X135101000Y-55699000D01*
X135101000Y-57501000D01*
X135101000Y-57501000D01*
G37*
G36*
X131770443Y-55705519D02*
X131836627Y-55712037D01*
X131949853Y-55746384D01*
X132006467Y-55763557D01*
X132145087Y-55837652D01*
X132162991Y-55847222D01*
X132198729Y-55876552D01*
X132300186Y-55959814D01*
X132383448Y-56061271D01*
X132412778Y-56097009D01*
X132412779Y-56097011D01*
X132496443Y-56253533D01*
X132496443Y-56253534D01*
X132547963Y-56423373D01*
X132565359Y-56600000D01*
X132547963Y-56776627D01*
X132513616Y-56889853D01*
X132496443Y-56946467D01*
X132422348Y-57085087D01*
X132412778Y-57102991D01*
X132383448Y-57138729D01*
X132300186Y-57240186D01*
X132198729Y-57323448D01*
X132162991Y-57352778D01*
X132162989Y-57352779D01*
X132006467Y-57436443D01*
X131949853Y-57453616D01*
X131836627Y-57487963D01*
X131770442Y-57494482D01*
X131704260Y-57501000D01*
X131615740Y-57501000D01*
X131549558Y-57494482D01*
X131483373Y-57487963D01*
X131370147Y-57453616D01*
X131313533Y-57436443D01*
X131157011Y-57352779D01*
X131157009Y-57352778D01*
X131121271Y-57323448D01*
X131019814Y-57240186D01*
X130936552Y-57138729D01*
X130907222Y-57102991D01*
X130897652Y-57085087D01*
X130823557Y-56946467D01*
X130806384Y-56889853D01*
X130772037Y-56776627D01*
X130754641Y-56600000D01*
X130772037Y-56423373D01*
X130823557Y-56253534D01*
X130823557Y-56253533D01*
X130907221Y-56097011D01*
X130907222Y-56097009D01*
X130936552Y-56061271D01*
X131019814Y-55959814D01*
X131121271Y-55876552D01*
X131157009Y-55847222D01*
X131174913Y-55837652D01*
X131313533Y-55763557D01*
X131370147Y-55746384D01*
X131483373Y-55712037D01*
X131549557Y-55705519D01*
X131615740Y-55699000D01*
X131704260Y-55699000D01*
X131770443Y-55705519D01*
X131770443Y-55705519D01*
G37*
G36*
X129230443Y-55705519D02*
X129296627Y-55712037D01*
X129409853Y-55746384D01*
X129466467Y-55763557D01*
X129605087Y-55837652D01*
X129622991Y-55847222D01*
X129658729Y-55876552D01*
X129760186Y-55959814D01*
X129843448Y-56061271D01*
X129872778Y-56097009D01*
X129872779Y-56097011D01*
X129956443Y-56253533D01*
X129956443Y-56253534D01*
X130007963Y-56423373D01*
X130025359Y-56600000D01*
X130007963Y-56776627D01*
X129973616Y-56889853D01*
X129956443Y-56946467D01*
X129882348Y-57085087D01*
X129872778Y-57102991D01*
X129843448Y-57138729D01*
X129760186Y-57240186D01*
X129658729Y-57323448D01*
X129622991Y-57352778D01*
X129622989Y-57352779D01*
X129466467Y-57436443D01*
X129409853Y-57453616D01*
X129296627Y-57487963D01*
X129230442Y-57494482D01*
X129164260Y-57501000D01*
X129075740Y-57501000D01*
X129009558Y-57494482D01*
X128943373Y-57487963D01*
X128830147Y-57453616D01*
X128773533Y-57436443D01*
X128617011Y-57352779D01*
X128617009Y-57352778D01*
X128581271Y-57323448D01*
X128479814Y-57240186D01*
X128396552Y-57138729D01*
X128367222Y-57102991D01*
X128357652Y-57085087D01*
X128283557Y-56946467D01*
X128266384Y-56889853D01*
X128232037Y-56776627D01*
X128214641Y-56600000D01*
X128232037Y-56423373D01*
X128283557Y-56253534D01*
X128283557Y-56253533D01*
X128367221Y-56097011D01*
X128367222Y-56097009D01*
X128396552Y-56061271D01*
X128479814Y-55959814D01*
X128581271Y-55876552D01*
X128617009Y-55847222D01*
X128634913Y-55837652D01*
X128773533Y-55763557D01*
X128830147Y-55746384D01*
X128943373Y-55712037D01*
X129009557Y-55705519D01*
X129075740Y-55699000D01*
X129164260Y-55699000D01*
X129230443Y-55705519D01*
X129230443Y-55705519D01*
G37*
G36*
X126690443Y-55705519D02*
X126756627Y-55712037D01*
X126869853Y-55746384D01*
X126926467Y-55763557D01*
X127065087Y-55837652D01*
X127082991Y-55847222D01*
X127118729Y-55876552D01*
X127220186Y-55959814D01*
X127303448Y-56061271D01*
X127332778Y-56097009D01*
X127332779Y-56097011D01*
X127416443Y-56253533D01*
X127416443Y-56253534D01*
X127467963Y-56423373D01*
X127485359Y-56600000D01*
X127467963Y-56776627D01*
X127433616Y-56889853D01*
X127416443Y-56946467D01*
X127342348Y-57085087D01*
X127332778Y-57102991D01*
X127303448Y-57138729D01*
X127220186Y-57240186D01*
X127118729Y-57323448D01*
X127082991Y-57352778D01*
X127082989Y-57352779D01*
X126926467Y-57436443D01*
X126869853Y-57453616D01*
X126756627Y-57487963D01*
X126690442Y-57494482D01*
X126624260Y-57501000D01*
X126535740Y-57501000D01*
X126469558Y-57494482D01*
X126403373Y-57487963D01*
X126290147Y-57453616D01*
X126233533Y-57436443D01*
X126077011Y-57352779D01*
X126077009Y-57352778D01*
X126041271Y-57323448D01*
X125939814Y-57240186D01*
X125856552Y-57138729D01*
X125827222Y-57102991D01*
X125817652Y-57085087D01*
X125743557Y-56946467D01*
X125726384Y-56889853D01*
X125692037Y-56776627D01*
X125674641Y-56600000D01*
X125692037Y-56423373D01*
X125743557Y-56253534D01*
X125743557Y-56253533D01*
X125827221Y-56097011D01*
X125827222Y-56097009D01*
X125856552Y-56061271D01*
X125939814Y-55959814D01*
X126041271Y-55876552D01*
X126077009Y-55847222D01*
X126094913Y-55837652D01*
X126233533Y-55763557D01*
X126290147Y-55746384D01*
X126403373Y-55712037D01*
X126469557Y-55705519D01*
X126535740Y-55699000D01*
X126624260Y-55699000D01*
X126690443Y-55705519D01*
X126690443Y-55705519D01*
G37*
M02*
