G04 #@! TF.GenerationSoftware,KiCad,Pcbnew,5.0.2+dfsg1-1*
G04 #@! TF.CreationDate,2019-03-28T13:57:09+00:00*
G04 #@! TF.ProjectId,PiZeroInteract,50695a65-726f-4496-9e74-65726163742e,rev?*
G04 #@! TF.SameCoordinates,Original*
G04 #@! TF.FileFunction,Soldermask,Bot*
G04 #@! TF.FilePolarity,Negative*
%FSLAX46Y46*%
G04 Gerber Fmt 4.6, Leading zero omitted, Abs format (unit mm)*
G04 Created by KiCad (PCBNEW 5.0.2+dfsg1-1) date Thu 28 Mar 2019 13:57:09 GMT*
%MOMM*%
%LPD*%
G01*
G04 APERTURE LIST*
%ADD10C,0.100000*%
G04 APERTURE END LIST*
D10*
G36*
X139788413Y-115555525D02*
X139863456Y-115578290D01*
X139873425Y-115581314D01*
X139951774Y-115623193D01*
X140020448Y-115679552D01*
X140076807Y-115748226D01*
X140118686Y-115826575D01*
X140118687Y-115826579D01*
X140144475Y-115911587D01*
X140153182Y-116000000D01*
X140144475Y-116088413D01*
X140121710Y-116163456D01*
X140118686Y-116173425D01*
X140076807Y-116251774D01*
X140020448Y-116320448D01*
X139951774Y-116376807D01*
X139873425Y-116418686D01*
X139863456Y-116421710D01*
X139788413Y-116444475D01*
X139722158Y-116451000D01*
X139677842Y-116451000D01*
X139611589Y-116444475D01*
X139576511Y-116433833D01*
X139555476Y-116427453D01*
X139531449Y-116422673D01*
X139506945Y-116422673D01*
X139482911Y-116427453D01*
X139460272Y-116436830D01*
X139439897Y-116450444D01*
X139422570Y-116467770D01*
X139408956Y-116488145D01*
X139399578Y-116510784D01*
X139394797Y-116534817D01*
X139394797Y-116559321D01*
X139399577Y-116583355D01*
X139408954Y-116605994D01*
X139422568Y-116626369D01*
X139439895Y-116643696D01*
X139476368Y-116673630D01*
X139573341Y-116791790D01*
X139573342Y-116791792D01*
X139645399Y-116926601D01*
X139675408Y-117025529D01*
X139689772Y-117072881D01*
X139704754Y-117225000D01*
X139689772Y-117377119D01*
X139645398Y-117523401D01*
X139573341Y-117658210D01*
X139476369Y-117776369D01*
X139358210Y-117873341D01*
X139312043Y-117898018D01*
X139223399Y-117945399D01*
X139104352Y-117981511D01*
X139077119Y-117989772D01*
X138963118Y-118001000D01*
X138336882Y-118001000D01*
X138222881Y-117989772D01*
X138195648Y-117981511D01*
X138076601Y-117945399D01*
X137987957Y-117898018D01*
X137941790Y-117873341D01*
X137823631Y-117776369D01*
X137726659Y-117658210D01*
X137654602Y-117523401D01*
X137610228Y-117377119D01*
X137595246Y-117225000D01*
X137610228Y-117072881D01*
X137624592Y-117025529D01*
X137654601Y-116926601D01*
X137726658Y-116791792D01*
X137726659Y-116791790D01*
X137823631Y-116673631D01*
X137941790Y-116576659D01*
X138076599Y-116504602D01*
X138076601Y-116504601D01*
X138222878Y-116460229D01*
X138222881Y-116460228D01*
X138336882Y-116449000D01*
X138963118Y-116449000D01*
X139077119Y-116460228D01*
X139077122Y-116460229D01*
X139223399Y-116504601D01*
X139223401Y-116504602D01*
X139230792Y-116506844D01*
X139239246Y-116510345D01*
X139263279Y-116515123D01*
X139287784Y-116515121D01*
X139311817Y-116510338D01*
X139334455Y-116500959D01*
X139354828Y-116487344D01*
X139372154Y-116470015D01*
X139385766Y-116449639D01*
X139395142Y-116426999D01*
X139399920Y-116402966D01*
X139399918Y-116378461D01*
X139395135Y-116354428D01*
X139385756Y-116331790D01*
X139372150Y-116311429D01*
X139348504Y-116282615D01*
X139323193Y-116251775D01*
X139309809Y-116226735D01*
X139281314Y-116173425D01*
X139278290Y-116163456D01*
X139255525Y-116088413D01*
X139246818Y-116000000D01*
X139255525Y-115911587D01*
X139281313Y-115826579D01*
X139281314Y-115826575D01*
X139323193Y-115748226D01*
X139379552Y-115679552D01*
X139448226Y-115623193D01*
X139526575Y-115581314D01*
X139536544Y-115578290D01*
X139611587Y-115555525D01*
X139677842Y-115549000D01*
X139722158Y-115549000D01*
X139788413Y-115555525D01*
X139788413Y-115555525D01*
G37*
G36*
X142897714Y-116758058D02*
X142897717Y-116758059D01*
X143015719Y-116793854D01*
X143015721Y-116793855D01*
X143124471Y-116851983D01*
X143219790Y-116930210D01*
X143298017Y-117025529D01*
X143356145Y-117134279D01*
X143391942Y-117252286D01*
X143404028Y-117375000D01*
X143391942Y-117497714D01*
X143356145Y-117615721D01*
X143298017Y-117724471D01*
X143219790Y-117819790D01*
X143124471Y-117898017D01*
X143124469Y-117898018D01*
X143015719Y-117956146D01*
X142919683Y-117985278D01*
X142897714Y-117991942D01*
X142805747Y-118001000D01*
X142094253Y-118001000D01*
X142002286Y-117991942D01*
X141980317Y-117985278D01*
X141884281Y-117956146D01*
X141775531Y-117898018D01*
X141775529Y-117898017D01*
X141680210Y-117819790D01*
X141601983Y-117724471D01*
X141543855Y-117615721D01*
X141508058Y-117497714D01*
X141495972Y-117375000D01*
X141508058Y-117252286D01*
X141543855Y-117134279D01*
X141601983Y-117025529D01*
X141680210Y-116930210D01*
X141775529Y-116851983D01*
X141884279Y-116793855D01*
X141884281Y-116793854D01*
X142002283Y-116758059D01*
X142002286Y-116758058D01*
X142094253Y-116749000D01*
X142805747Y-116749000D01*
X142897714Y-116758058D01*
X142897714Y-116758058D01*
G37*
G36*
X117410443Y-110715519D02*
X117476627Y-110722037D01*
X117589853Y-110756384D01*
X117646467Y-110773557D01*
X117785087Y-110847652D01*
X117802991Y-110857222D01*
X117838729Y-110886552D01*
X117940186Y-110969814D01*
X118023448Y-111071271D01*
X118052778Y-111107009D01*
X118052779Y-111107011D01*
X118136443Y-111263533D01*
X118136443Y-111263534D01*
X118187963Y-111433373D01*
X118205359Y-111610000D01*
X118187963Y-111786627D01*
X118153616Y-111899853D01*
X118136443Y-111956467D01*
X118062348Y-112095087D01*
X118052778Y-112112991D01*
X118023448Y-112148729D01*
X117940186Y-112250186D01*
X117838729Y-112333448D01*
X117802991Y-112362778D01*
X117802989Y-112362779D01*
X117646467Y-112446443D01*
X117589853Y-112463616D01*
X117476627Y-112497963D01*
X117410443Y-112504481D01*
X117344260Y-112511000D01*
X117255740Y-112511000D01*
X117189557Y-112504481D01*
X117123373Y-112497963D01*
X117010147Y-112463616D01*
X116953533Y-112446443D01*
X116797011Y-112362779D01*
X116797009Y-112362778D01*
X116761271Y-112333448D01*
X116659814Y-112250186D01*
X116576552Y-112148729D01*
X116547222Y-112112991D01*
X116537652Y-112095087D01*
X116463557Y-111956467D01*
X116446384Y-111899853D01*
X116412037Y-111786627D01*
X116394641Y-111610000D01*
X116412037Y-111433373D01*
X116463557Y-111263534D01*
X116463557Y-111263533D01*
X116547221Y-111107011D01*
X116547222Y-111107009D01*
X116576552Y-111071271D01*
X116659814Y-110969814D01*
X116761271Y-110886552D01*
X116797009Y-110857222D01*
X116814913Y-110847652D01*
X116953533Y-110773557D01*
X117010147Y-110756384D01*
X117123373Y-110722037D01*
X117189557Y-110715519D01*
X117255740Y-110709000D01*
X117344260Y-110709000D01*
X117410443Y-110715519D01*
X117410443Y-110715519D01*
G37*
G36*
X119950443Y-110715519D02*
X120016627Y-110722037D01*
X120129853Y-110756384D01*
X120186467Y-110773557D01*
X120325087Y-110847652D01*
X120342991Y-110857222D01*
X120378729Y-110886552D01*
X120480186Y-110969814D01*
X120563448Y-111071271D01*
X120592778Y-111107009D01*
X120592779Y-111107011D01*
X120676443Y-111263533D01*
X120676443Y-111263534D01*
X120727963Y-111433373D01*
X120745359Y-111610000D01*
X120727963Y-111786627D01*
X120693616Y-111899853D01*
X120676443Y-111956467D01*
X120602348Y-112095087D01*
X120592778Y-112112991D01*
X120563448Y-112148729D01*
X120480186Y-112250186D01*
X120378729Y-112333448D01*
X120342991Y-112362778D01*
X120342989Y-112362779D01*
X120186467Y-112446443D01*
X120129853Y-112463616D01*
X120016627Y-112497963D01*
X119950443Y-112504481D01*
X119884260Y-112511000D01*
X119795740Y-112511000D01*
X119729557Y-112504481D01*
X119663373Y-112497963D01*
X119550147Y-112463616D01*
X119493533Y-112446443D01*
X119337011Y-112362779D01*
X119337009Y-112362778D01*
X119301271Y-112333448D01*
X119199814Y-112250186D01*
X119116552Y-112148729D01*
X119087222Y-112112991D01*
X119077652Y-112095087D01*
X119003557Y-111956467D01*
X118986384Y-111899853D01*
X118952037Y-111786627D01*
X118934641Y-111610000D01*
X118952037Y-111433373D01*
X119003557Y-111263534D01*
X119003557Y-111263533D01*
X119087221Y-111107011D01*
X119087222Y-111107009D01*
X119116552Y-111071271D01*
X119199814Y-110969814D01*
X119301271Y-110886552D01*
X119337009Y-110857222D01*
X119354913Y-110847652D01*
X119493533Y-110773557D01*
X119550147Y-110756384D01*
X119663373Y-110722037D01*
X119729557Y-110715519D01*
X119795740Y-110709000D01*
X119884260Y-110709000D01*
X119950443Y-110715519D01*
X119950443Y-110715519D01*
G37*
G36*
X139077119Y-109010228D02*
X139077122Y-109010229D01*
X139223399Y-109054601D01*
X139223401Y-109054602D01*
X139358210Y-109126659D01*
X139476369Y-109223631D01*
X139573341Y-109341790D01*
X139573342Y-109341792D01*
X139645399Y-109476601D01*
X139674638Y-109572991D01*
X139689772Y-109622881D01*
X139704754Y-109775000D01*
X139689772Y-109927119D01*
X139689771Y-109927122D01*
X139646494Y-110069790D01*
X139645398Y-110073401D01*
X139573341Y-110208210D01*
X139476368Y-110326370D01*
X139439895Y-110356304D01*
X139422568Y-110373631D01*
X139408954Y-110394006D01*
X139399577Y-110416645D01*
X139394797Y-110440678D01*
X139394797Y-110465183D01*
X139399578Y-110489216D01*
X139408956Y-110511855D01*
X139422570Y-110532229D01*
X139439897Y-110549556D01*
X139460272Y-110563170D01*
X139482911Y-110572547D01*
X139506944Y-110577327D01*
X139531449Y-110577327D01*
X139555476Y-110572547D01*
X139576511Y-110566167D01*
X139611589Y-110555525D01*
X139677842Y-110549000D01*
X139722158Y-110549000D01*
X139788413Y-110555525D01*
X139860281Y-110577327D01*
X139873425Y-110581314D01*
X139951774Y-110623193D01*
X140020448Y-110679552D01*
X140076807Y-110748226D01*
X140118686Y-110826575D01*
X140118687Y-110826579D01*
X140144475Y-110911587D01*
X140153182Y-111000000D01*
X140144475Y-111088413D01*
X140121710Y-111163456D01*
X140118686Y-111173425D01*
X140076807Y-111251774D01*
X140020448Y-111320448D01*
X139951774Y-111376807D01*
X139873425Y-111418686D01*
X139863456Y-111421710D01*
X139788413Y-111444475D01*
X139722158Y-111451000D01*
X139677842Y-111451000D01*
X139611587Y-111444475D01*
X139536544Y-111421710D01*
X139526575Y-111418686D01*
X139448226Y-111376807D01*
X139379552Y-111320448D01*
X139323193Y-111251774D01*
X139281314Y-111173425D01*
X139278290Y-111163456D01*
X139255525Y-111088413D01*
X139246818Y-111000000D01*
X139255525Y-110911587D01*
X139281313Y-110826579D01*
X139281314Y-110826575D01*
X139309809Y-110773265D01*
X139323193Y-110748225D01*
X139355385Y-110709000D01*
X139372150Y-110688571D01*
X139385761Y-110668202D01*
X139395138Y-110645563D01*
X139399919Y-110621529D01*
X139399919Y-110597025D01*
X139395139Y-110572992D01*
X139385762Y-110550352D01*
X139372148Y-110529978D01*
X139354821Y-110512650D01*
X139334447Y-110499036D01*
X139311808Y-110489659D01*
X139287774Y-110484878D01*
X139263270Y-110484878D01*
X139239237Y-110489658D01*
X139230788Y-110493157D01*
X139223401Y-110495398D01*
X139223399Y-110495399D01*
X139101985Y-110532229D01*
X139077119Y-110539772D01*
X138963118Y-110551000D01*
X138336882Y-110551000D01*
X138222881Y-110539772D01*
X138133471Y-110512650D01*
X138076601Y-110495399D01*
X138076599Y-110495398D01*
X137941790Y-110423341D01*
X137823631Y-110326369D01*
X137726659Y-110208210D01*
X137654602Y-110073401D01*
X137653507Y-110069790D01*
X137610229Y-109927122D01*
X137610228Y-109927119D01*
X137595246Y-109775000D01*
X137610228Y-109622881D01*
X137625362Y-109572991D01*
X137654601Y-109476601D01*
X137726658Y-109341792D01*
X137726659Y-109341790D01*
X137823631Y-109223631D01*
X137941790Y-109126659D01*
X138076599Y-109054602D01*
X138076601Y-109054601D01*
X138222878Y-109010229D01*
X138222881Y-109010228D01*
X138336882Y-108999000D01*
X138963118Y-108999000D01*
X139077119Y-109010228D01*
X139077119Y-109010228D01*
G37*
G36*
X142897714Y-109008058D02*
X142904871Y-109010229D01*
X143015719Y-109043854D01*
X143015721Y-109043855D01*
X143124471Y-109101983D01*
X143219790Y-109180210D01*
X143298017Y-109275529D01*
X143356145Y-109384279D01*
X143391942Y-109502286D01*
X143404028Y-109625000D01*
X143391942Y-109747714D01*
X143391941Y-109747717D01*
X143369172Y-109822779D01*
X143356145Y-109865721D01*
X143298017Y-109974471D01*
X143219790Y-110069790D01*
X143124471Y-110148017D01*
X143124469Y-110148018D01*
X143015719Y-110206146D01*
X142919683Y-110235278D01*
X142897714Y-110241942D01*
X142805747Y-110251000D01*
X142094253Y-110251000D01*
X142002286Y-110241942D01*
X141980317Y-110235278D01*
X141884281Y-110206146D01*
X141775531Y-110148018D01*
X141775529Y-110148017D01*
X141680210Y-110069790D01*
X141601983Y-109974471D01*
X141543855Y-109865721D01*
X141530829Y-109822779D01*
X141508059Y-109747717D01*
X141508058Y-109747714D01*
X141495972Y-109625000D01*
X141508058Y-109502286D01*
X141543855Y-109384279D01*
X141601983Y-109275529D01*
X141680210Y-109180210D01*
X141775529Y-109101983D01*
X141884279Y-109043855D01*
X141884281Y-109043854D01*
X141995129Y-109010229D01*
X142002286Y-109008058D01*
X142094253Y-108999000D01*
X142805747Y-108999000D01*
X142897714Y-109008058D01*
X142897714Y-109008058D01*
G37*
G36*
X119950442Y-108175518D02*
X120016627Y-108182037D01*
X120129853Y-108216384D01*
X120186467Y-108233557D01*
X120325087Y-108307652D01*
X120342991Y-108317222D01*
X120378729Y-108346552D01*
X120480186Y-108429814D01*
X120563448Y-108531271D01*
X120592778Y-108567009D01*
X120592779Y-108567011D01*
X120676443Y-108723533D01*
X120676443Y-108723534D01*
X120727963Y-108893373D01*
X120745359Y-109070000D01*
X120727963Y-109246627D01*
X120719195Y-109275531D01*
X120676443Y-109416467D01*
X120644301Y-109476599D01*
X120592778Y-109572991D01*
X120563448Y-109608729D01*
X120480186Y-109710186D01*
X120378729Y-109793448D01*
X120342991Y-109822778D01*
X120342989Y-109822779D01*
X120186467Y-109906443D01*
X120129853Y-109923616D01*
X120016627Y-109957963D01*
X119950443Y-109964481D01*
X119884260Y-109971000D01*
X119795740Y-109971000D01*
X119729557Y-109964481D01*
X119663373Y-109957963D01*
X119550147Y-109923616D01*
X119493533Y-109906443D01*
X119337011Y-109822779D01*
X119337009Y-109822778D01*
X119301271Y-109793448D01*
X119199814Y-109710186D01*
X119116552Y-109608729D01*
X119087222Y-109572991D01*
X119035699Y-109476599D01*
X119003557Y-109416467D01*
X118960805Y-109275531D01*
X118952037Y-109246627D01*
X118934641Y-109070000D01*
X118952037Y-108893373D01*
X119003557Y-108723534D01*
X119003557Y-108723533D01*
X119087221Y-108567011D01*
X119087222Y-108567009D01*
X119116552Y-108531271D01*
X119199814Y-108429814D01*
X119301271Y-108346552D01*
X119337009Y-108317222D01*
X119354913Y-108307652D01*
X119493533Y-108233557D01*
X119550147Y-108216384D01*
X119663373Y-108182037D01*
X119729558Y-108175518D01*
X119795740Y-108169000D01*
X119884260Y-108169000D01*
X119950442Y-108175518D01*
X119950442Y-108175518D01*
G37*
G36*
X117410442Y-108175518D02*
X117476627Y-108182037D01*
X117589853Y-108216384D01*
X117646467Y-108233557D01*
X117785087Y-108307652D01*
X117802991Y-108317222D01*
X117838729Y-108346552D01*
X117940186Y-108429814D01*
X118023448Y-108531271D01*
X118052778Y-108567009D01*
X118052779Y-108567011D01*
X118136443Y-108723533D01*
X118136443Y-108723534D01*
X118187963Y-108893373D01*
X118205359Y-109070000D01*
X118187963Y-109246627D01*
X118179195Y-109275531D01*
X118136443Y-109416467D01*
X118104301Y-109476599D01*
X118052778Y-109572991D01*
X118023448Y-109608729D01*
X117940186Y-109710186D01*
X117838729Y-109793448D01*
X117802991Y-109822778D01*
X117802989Y-109822779D01*
X117646467Y-109906443D01*
X117589853Y-109923616D01*
X117476627Y-109957963D01*
X117410443Y-109964481D01*
X117344260Y-109971000D01*
X117255740Y-109971000D01*
X117189557Y-109964481D01*
X117123373Y-109957963D01*
X117010147Y-109923616D01*
X116953533Y-109906443D01*
X116797011Y-109822779D01*
X116797009Y-109822778D01*
X116761271Y-109793448D01*
X116659814Y-109710186D01*
X116576552Y-109608729D01*
X116547222Y-109572991D01*
X116495699Y-109476599D01*
X116463557Y-109416467D01*
X116420805Y-109275531D01*
X116412037Y-109246627D01*
X116394641Y-109070000D01*
X116412037Y-108893373D01*
X116463557Y-108723534D01*
X116463557Y-108723533D01*
X116547221Y-108567011D01*
X116547222Y-108567009D01*
X116576552Y-108531271D01*
X116659814Y-108429814D01*
X116761271Y-108346552D01*
X116797009Y-108317222D01*
X116814913Y-108307652D01*
X116953533Y-108233557D01*
X117010147Y-108216384D01*
X117123373Y-108182037D01*
X117189558Y-108175518D01*
X117255740Y-108169000D01*
X117344260Y-108169000D01*
X117410442Y-108175518D01*
X117410442Y-108175518D01*
G37*
G36*
X117410442Y-105635518D02*
X117476627Y-105642037D01*
X117589853Y-105676384D01*
X117646467Y-105693557D01*
X117785087Y-105767652D01*
X117802991Y-105777222D01*
X117838729Y-105806552D01*
X117940186Y-105889814D01*
X118023448Y-105991271D01*
X118052778Y-106027009D01*
X118052779Y-106027011D01*
X118136443Y-106183533D01*
X118136443Y-106183534D01*
X118187963Y-106353373D01*
X118205359Y-106530000D01*
X118187963Y-106706627D01*
X118153616Y-106819853D01*
X118136443Y-106876467D01*
X118062348Y-107015087D01*
X118052778Y-107032991D01*
X118023448Y-107068729D01*
X117940186Y-107170186D01*
X117838729Y-107253448D01*
X117802991Y-107282778D01*
X117802989Y-107282779D01*
X117646467Y-107366443D01*
X117589853Y-107383616D01*
X117476627Y-107417963D01*
X117410442Y-107424482D01*
X117344260Y-107431000D01*
X117255740Y-107431000D01*
X117189558Y-107424482D01*
X117123373Y-107417963D01*
X117010147Y-107383616D01*
X116953533Y-107366443D01*
X116797011Y-107282779D01*
X116797009Y-107282778D01*
X116761271Y-107253448D01*
X116659814Y-107170186D01*
X116576552Y-107068729D01*
X116547222Y-107032991D01*
X116537652Y-107015087D01*
X116463557Y-106876467D01*
X116446384Y-106819853D01*
X116412037Y-106706627D01*
X116394641Y-106530000D01*
X116412037Y-106353373D01*
X116463557Y-106183534D01*
X116463557Y-106183533D01*
X116547221Y-106027011D01*
X116547222Y-106027009D01*
X116576552Y-105991271D01*
X116659814Y-105889814D01*
X116761271Y-105806552D01*
X116797009Y-105777222D01*
X116814913Y-105767652D01*
X116953533Y-105693557D01*
X117010147Y-105676384D01*
X117123373Y-105642037D01*
X117189558Y-105635518D01*
X117255740Y-105629000D01*
X117344260Y-105629000D01*
X117410442Y-105635518D01*
X117410442Y-105635518D01*
G37*
G36*
X119950442Y-105635518D02*
X120016627Y-105642037D01*
X120129853Y-105676384D01*
X120186467Y-105693557D01*
X120325087Y-105767652D01*
X120342991Y-105777222D01*
X120378729Y-105806552D01*
X120480186Y-105889814D01*
X120563448Y-105991271D01*
X120592778Y-106027009D01*
X120592779Y-106027011D01*
X120676443Y-106183533D01*
X120676443Y-106183534D01*
X120727963Y-106353373D01*
X120745359Y-106530000D01*
X120727963Y-106706627D01*
X120693616Y-106819853D01*
X120676443Y-106876467D01*
X120602348Y-107015087D01*
X120592778Y-107032991D01*
X120563448Y-107068729D01*
X120480186Y-107170186D01*
X120378729Y-107253448D01*
X120342991Y-107282778D01*
X120342989Y-107282779D01*
X120186467Y-107366443D01*
X120129853Y-107383616D01*
X120016627Y-107417963D01*
X119950442Y-107424482D01*
X119884260Y-107431000D01*
X119795740Y-107431000D01*
X119729558Y-107424482D01*
X119663373Y-107417963D01*
X119550147Y-107383616D01*
X119493533Y-107366443D01*
X119337011Y-107282779D01*
X119337009Y-107282778D01*
X119301271Y-107253448D01*
X119199814Y-107170186D01*
X119116552Y-107068729D01*
X119087222Y-107032991D01*
X119077652Y-107015087D01*
X119003557Y-106876467D01*
X118986384Y-106819853D01*
X118952037Y-106706627D01*
X118934641Y-106530000D01*
X118952037Y-106353373D01*
X119003557Y-106183534D01*
X119003557Y-106183533D01*
X119087221Y-106027011D01*
X119087222Y-106027009D01*
X119116552Y-105991271D01*
X119199814Y-105889814D01*
X119301271Y-105806552D01*
X119337009Y-105777222D01*
X119354913Y-105767652D01*
X119493533Y-105693557D01*
X119550147Y-105676384D01*
X119663373Y-105642037D01*
X119729558Y-105635518D01*
X119795740Y-105629000D01*
X119884260Y-105629000D01*
X119950442Y-105635518D01*
X119950442Y-105635518D01*
G37*
G36*
X117410443Y-103095519D02*
X117476627Y-103102037D01*
X117589853Y-103136384D01*
X117646467Y-103153557D01*
X117785087Y-103227652D01*
X117802991Y-103237222D01*
X117838729Y-103266552D01*
X117940186Y-103349814D01*
X118023448Y-103451271D01*
X118052778Y-103487009D01*
X118052779Y-103487011D01*
X118136443Y-103643533D01*
X118136443Y-103643534D01*
X118187963Y-103813373D01*
X118205359Y-103990000D01*
X118187963Y-104166627D01*
X118153616Y-104279853D01*
X118136443Y-104336467D01*
X118062348Y-104475087D01*
X118052778Y-104492991D01*
X118023448Y-104528729D01*
X117940186Y-104630186D01*
X117838729Y-104713448D01*
X117802991Y-104742778D01*
X117802989Y-104742779D01*
X117646467Y-104826443D01*
X117589853Y-104843616D01*
X117476627Y-104877963D01*
X117410443Y-104884481D01*
X117344260Y-104891000D01*
X117255740Y-104891000D01*
X117189557Y-104884481D01*
X117123373Y-104877963D01*
X117010147Y-104843616D01*
X116953533Y-104826443D01*
X116797011Y-104742779D01*
X116797009Y-104742778D01*
X116761271Y-104713448D01*
X116659814Y-104630186D01*
X116576552Y-104528729D01*
X116547222Y-104492991D01*
X116537652Y-104475087D01*
X116463557Y-104336467D01*
X116446384Y-104279853D01*
X116412037Y-104166627D01*
X116394641Y-103990000D01*
X116412037Y-103813373D01*
X116463557Y-103643534D01*
X116463557Y-103643533D01*
X116547221Y-103487011D01*
X116547222Y-103487009D01*
X116576552Y-103451271D01*
X116659814Y-103349814D01*
X116761271Y-103266552D01*
X116797009Y-103237222D01*
X116814913Y-103227652D01*
X116953533Y-103153557D01*
X117010147Y-103136384D01*
X117123373Y-103102037D01*
X117189557Y-103095519D01*
X117255740Y-103089000D01*
X117344260Y-103089000D01*
X117410443Y-103095519D01*
X117410443Y-103095519D01*
G37*
G36*
X119950443Y-103095519D02*
X120016627Y-103102037D01*
X120129853Y-103136384D01*
X120186467Y-103153557D01*
X120325087Y-103227652D01*
X120342991Y-103237222D01*
X120378729Y-103266552D01*
X120480186Y-103349814D01*
X120563448Y-103451271D01*
X120592778Y-103487009D01*
X120592779Y-103487011D01*
X120676443Y-103643533D01*
X120676443Y-103643534D01*
X120727963Y-103813373D01*
X120745359Y-103990000D01*
X120727963Y-104166627D01*
X120693616Y-104279853D01*
X120676443Y-104336467D01*
X120602348Y-104475087D01*
X120592778Y-104492991D01*
X120563448Y-104528729D01*
X120480186Y-104630186D01*
X120378729Y-104713448D01*
X120342991Y-104742778D01*
X120342989Y-104742779D01*
X120186467Y-104826443D01*
X120129853Y-104843616D01*
X120016627Y-104877963D01*
X119950443Y-104884481D01*
X119884260Y-104891000D01*
X119795740Y-104891000D01*
X119729557Y-104884481D01*
X119663373Y-104877963D01*
X119550147Y-104843616D01*
X119493533Y-104826443D01*
X119337011Y-104742779D01*
X119337009Y-104742778D01*
X119301271Y-104713448D01*
X119199814Y-104630186D01*
X119116552Y-104528729D01*
X119087222Y-104492991D01*
X119077652Y-104475087D01*
X119003557Y-104336467D01*
X118986384Y-104279853D01*
X118952037Y-104166627D01*
X118934641Y-103990000D01*
X118952037Y-103813373D01*
X119003557Y-103643534D01*
X119003557Y-103643533D01*
X119087221Y-103487011D01*
X119087222Y-103487009D01*
X119116552Y-103451271D01*
X119199814Y-103349814D01*
X119301271Y-103266552D01*
X119337009Y-103237222D01*
X119354913Y-103227652D01*
X119493533Y-103153557D01*
X119550147Y-103136384D01*
X119663373Y-103102037D01*
X119729557Y-103095519D01*
X119795740Y-103089000D01*
X119884260Y-103089000D01*
X119950443Y-103095519D01*
X119950443Y-103095519D01*
G37*
G36*
X117410443Y-100555519D02*
X117476627Y-100562037D01*
X117589853Y-100596384D01*
X117646467Y-100613557D01*
X117785087Y-100687652D01*
X117802991Y-100697222D01*
X117838729Y-100726552D01*
X117940186Y-100809814D01*
X118023448Y-100911271D01*
X118052778Y-100947009D01*
X118052779Y-100947011D01*
X118136443Y-101103533D01*
X118136443Y-101103534D01*
X118187963Y-101273373D01*
X118205359Y-101450000D01*
X118187963Y-101626627D01*
X118153616Y-101739853D01*
X118136443Y-101796467D01*
X118062348Y-101935087D01*
X118052778Y-101952991D01*
X118023448Y-101988729D01*
X117940186Y-102090186D01*
X117838729Y-102173448D01*
X117802991Y-102202778D01*
X117802989Y-102202779D01*
X117646467Y-102286443D01*
X117589853Y-102303616D01*
X117476627Y-102337963D01*
X117410442Y-102344482D01*
X117344260Y-102351000D01*
X117255740Y-102351000D01*
X117189558Y-102344482D01*
X117123373Y-102337963D01*
X117010147Y-102303616D01*
X116953533Y-102286443D01*
X116797011Y-102202779D01*
X116797009Y-102202778D01*
X116761271Y-102173448D01*
X116659814Y-102090186D01*
X116576552Y-101988729D01*
X116547222Y-101952991D01*
X116537652Y-101935087D01*
X116463557Y-101796467D01*
X116446384Y-101739853D01*
X116412037Y-101626627D01*
X116394641Y-101450000D01*
X116412037Y-101273373D01*
X116463557Y-101103534D01*
X116463557Y-101103533D01*
X116547221Y-100947011D01*
X116547222Y-100947009D01*
X116576552Y-100911271D01*
X116659814Y-100809814D01*
X116761271Y-100726552D01*
X116797009Y-100697222D01*
X116814913Y-100687652D01*
X116953533Y-100613557D01*
X117010147Y-100596384D01*
X117123373Y-100562037D01*
X117189558Y-100555518D01*
X117255740Y-100549000D01*
X117344260Y-100549000D01*
X117410443Y-100555519D01*
X117410443Y-100555519D01*
G37*
G36*
X119950443Y-100555519D02*
X120016627Y-100562037D01*
X120129853Y-100596384D01*
X120186467Y-100613557D01*
X120325087Y-100687652D01*
X120342991Y-100697222D01*
X120378729Y-100726552D01*
X120480186Y-100809814D01*
X120563448Y-100911271D01*
X120592778Y-100947009D01*
X120592779Y-100947011D01*
X120676443Y-101103533D01*
X120676443Y-101103534D01*
X120727963Y-101273373D01*
X120745359Y-101450000D01*
X120727963Y-101626627D01*
X120693616Y-101739853D01*
X120676443Y-101796467D01*
X120602348Y-101935087D01*
X120592778Y-101952991D01*
X120563448Y-101988729D01*
X120480186Y-102090186D01*
X120378729Y-102173448D01*
X120342991Y-102202778D01*
X120342989Y-102202779D01*
X120186467Y-102286443D01*
X120129853Y-102303616D01*
X120016627Y-102337963D01*
X119950442Y-102344482D01*
X119884260Y-102351000D01*
X119795740Y-102351000D01*
X119729558Y-102344482D01*
X119663373Y-102337963D01*
X119550147Y-102303616D01*
X119493533Y-102286443D01*
X119337011Y-102202779D01*
X119337009Y-102202778D01*
X119301271Y-102173448D01*
X119199814Y-102090186D01*
X119116552Y-101988729D01*
X119087222Y-101952991D01*
X119077652Y-101935087D01*
X119003557Y-101796467D01*
X118986384Y-101739853D01*
X118952037Y-101626627D01*
X118934641Y-101450000D01*
X118952037Y-101273373D01*
X119003557Y-101103534D01*
X119003557Y-101103533D01*
X119087221Y-100947011D01*
X119087222Y-100947009D01*
X119116552Y-100911271D01*
X119199814Y-100809814D01*
X119301271Y-100726552D01*
X119337009Y-100697222D01*
X119354913Y-100687652D01*
X119493533Y-100613557D01*
X119550147Y-100596384D01*
X119663373Y-100562037D01*
X119729558Y-100555518D01*
X119795740Y-100549000D01*
X119884260Y-100549000D01*
X119950443Y-100555519D01*
X119950443Y-100555519D01*
G37*
G36*
X119950442Y-98015518D02*
X120016627Y-98022037D01*
X120129853Y-98056384D01*
X120186467Y-98073557D01*
X120325087Y-98147652D01*
X120342991Y-98157222D01*
X120378729Y-98186552D01*
X120480186Y-98269814D01*
X120563448Y-98371271D01*
X120592778Y-98407009D01*
X120592779Y-98407011D01*
X120676443Y-98563533D01*
X120676443Y-98563534D01*
X120727963Y-98733373D01*
X120745359Y-98910000D01*
X120727963Y-99086627D01*
X120693616Y-99199853D01*
X120676443Y-99256467D01*
X120602348Y-99395087D01*
X120592778Y-99412991D01*
X120563448Y-99448729D01*
X120480186Y-99550186D01*
X120378729Y-99633448D01*
X120342991Y-99662778D01*
X120342989Y-99662779D01*
X120186467Y-99746443D01*
X120129853Y-99763616D01*
X120016627Y-99797963D01*
X119950443Y-99804481D01*
X119884260Y-99811000D01*
X119795740Y-99811000D01*
X119729558Y-99804482D01*
X119663373Y-99797963D01*
X119550147Y-99763616D01*
X119493533Y-99746443D01*
X119337011Y-99662779D01*
X119337009Y-99662778D01*
X119301271Y-99633448D01*
X119199814Y-99550186D01*
X119116552Y-99448729D01*
X119087222Y-99412991D01*
X119077652Y-99395087D01*
X119003557Y-99256467D01*
X118986384Y-99199853D01*
X118952037Y-99086627D01*
X118934641Y-98910000D01*
X118952037Y-98733373D01*
X119003557Y-98563534D01*
X119003557Y-98563533D01*
X119087221Y-98407011D01*
X119087222Y-98407009D01*
X119116552Y-98371271D01*
X119199814Y-98269814D01*
X119301271Y-98186552D01*
X119337009Y-98157222D01*
X119354913Y-98147652D01*
X119493533Y-98073557D01*
X119550147Y-98056384D01*
X119663373Y-98022037D01*
X119729558Y-98015518D01*
X119795740Y-98009000D01*
X119884260Y-98009000D01*
X119950442Y-98015518D01*
X119950442Y-98015518D01*
G37*
G36*
X117410442Y-98015518D02*
X117476627Y-98022037D01*
X117589853Y-98056384D01*
X117646467Y-98073557D01*
X117785087Y-98147652D01*
X117802991Y-98157222D01*
X117838729Y-98186552D01*
X117940186Y-98269814D01*
X118023448Y-98371271D01*
X118052778Y-98407009D01*
X118052779Y-98407011D01*
X118136443Y-98563533D01*
X118136443Y-98563534D01*
X118187963Y-98733373D01*
X118205359Y-98910000D01*
X118187963Y-99086627D01*
X118153616Y-99199853D01*
X118136443Y-99256467D01*
X118062348Y-99395087D01*
X118052778Y-99412991D01*
X118023448Y-99448729D01*
X117940186Y-99550186D01*
X117838729Y-99633448D01*
X117802991Y-99662778D01*
X117802989Y-99662779D01*
X117646467Y-99746443D01*
X117589853Y-99763616D01*
X117476627Y-99797963D01*
X117410443Y-99804481D01*
X117344260Y-99811000D01*
X117255740Y-99811000D01*
X117189558Y-99804482D01*
X117123373Y-99797963D01*
X117010147Y-99763616D01*
X116953533Y-99746443D01*
X116797011Y-99662779D01*
X116797009Y-99662778D01*
X116761271Y-99633448D01*
X116659814Y-99550186D01*
X116576552Y-99448729D01*
X116547222Y-99412991D01*
X116537652Y-99395087D01*
X116463557Y-99256467D01*
X116446384Y-99199853D01*
X116412037Y-99086627D01*
X116394641Y-98910000D01*
X116412037Y-98733373D01*
X116463557Y-98563534D01*
X116463557Y-98563533D01*
X116547221Y-98407011D01*
X116547222Y-98407009D01*
X116576552Y-98371271D01*
X116659814Y-98269814D01*
X116761271Y-98186552D01*
X116797009Y-98157222D01*
X116814913Y-98147652D01*
X116953533Y-98073557D01*
X117010147Y-98056384D01*
X117123373Y-98022037D01*
X117189558Y-98015518D01*
X117255740Y-98009000D01*
X117344260Y-98009000D01*
X117410442Y-98015518D01*
X117410442Y-98015518D01*
G37*
G36*
X119950442Y-95475518D02*
X120016627Y-95482037D01*
X120129853Y-95516384D01*
X120186467Y-95533557D01*
X120325087Y-95607652D01*
X120342991Y-95617222D01*
X120378729Y-95646552D01*
X120480186Y-95729814D01*
X120563448Y-95831271D01*
X120592778Y-95867009D01*
X120592779Y-95867011D01*
X120676443Y-96023533D01*
X120676443Y-96023534D01*
X120727963Y-96193373D01*
X120745359Y-96370000D01*
X120727963Y-96546627D01*
X120693616Y-96659853D01*
X120676443Y-96716467D01*
X120602348Y-96855087D01*
X120592778Y-96872991D01*
X120563448Y-96908729D01*
X120480186Y-97010186D01*
X120378729Y-97093448D01*
X120342991Y-97122778D01*
X120342989Y-97122779D01*
X120186467Y-97206443D01*
X120129853Y-97223616D01*
X120016627Y-97257963D01*
X119950443Y-97264481D01*
X119884260Y-97271000D01*
X119795740Y-97271000D01*
X119729557Y-97264481D01*
X119663373Y-97257963D01*
X119550147Y-97223616D01*
X119493533Y-97206443D01*
X119337011Y-97122779D01*
X119337009Y-97122778D01*
X119301271Y-97093448D01*
X119199814Y-97010186D01*
X119116552Y-96908729D01*
X119087222Y-96872991D01*
X119077652Y-96855087D01*
X119003557Y-96716467D01*
X118986384Y-96659853D01*
X118952037Y-96546627D01*
X118934641Y-96370000D01*
X118952037Y-96193373D01*
X119003557Y-96023534D01*
X119003557Y-96023533D01*
X119087221Y-95867011D01*
X119087222Y-95867009D01*
X119116552Y-95831271D01*
X119199814Y-95729814D01*
X119301271Y-95646552D01*
X119337009Y-95617222D01*
X119354913Y-95607652D01*
X119493533Y-95533557D01*
X119550147Y-95516384D01*
X119663373Y-95482037D01*
X119729558Y-95475518D01*
X119795740Y-95469000D01*
X119884260Y-95469000D01*
X119950442Y-95475518D01*
X119950442Y-95475518D01*
G37*
G36*
X117410442Y-95475518D02*
X117476627Y-95482037D01*
X117589853Y-95516384D01*
X117646467Y-95533557D01*
X117785087Y-95607652D01*
X117802991Y-95617222D01*
X117838729Y-95646552D01*
X117940186Y-95729814D01*
X118023448Y-95831271D01*
X118052778Y-95867009D01*
X118052779Y-95867011D01*
X118136443Y-96023533D01*
X118136443Y-96023534D01*
X118187963Y-96193373D01*
X118205359Y-96370000D01*
X118187963Y-96546627D01*
X118153616Y-96659853D01*
X118136443Y-96716467D01*
X118062348Y-96855087D01*
X118052778Y-96872991D01*
X118023448Y-96908729D01*
X117940186Y-97010186D01*
X117838729Y-97093448D01*
X117802991Y-97122778D01*
X117802989Y-97122779D01*
X117646467Y-97206443D01*
X117589853Y-97223616D01*
X117476627Y-97257963D01*
X117410443Y-97264481D01*
X117344260Y-97271000D01*
X117255740Y-97271000D01*
X117189557Y-97264481D01*
X117123373Y-97257963D01*
X117010147Y-97223616D01*
X116953533Y-97206443D01*
X116797011Y-97122779D01*
X116797009Y-97122778D01*
X116761271Y-97093448D01*
X116659814Y-97010186D01*
X116576552Y-96908729D01*
X116547222Y-96872991D01*
X116537652Y-96855087D01*
X116463557Y-96716467D01*
X116446384Y-96659853D01*
X116412037Y-96546627D01*
X116394641Y-96370000D01*
X116412037Y-96193373D01*
X116463557Y-96023534D01*
X116463557Y-96023533D01*
X116547221Y-95867011D01*
X116547222Y-95867009D01*
X116576552Y-95831271D01*
X116659814Y-95729814D01*
X116761271Y-95646552D01*
X116797009Y-95617222D01*
X116814913Y-95607652D01*
X116953533Y-95533557D01*
X117010147Y-95516384D01*
X117123373Y-95482037D01*
X117189558Y-95475518D01*
X117255740Y-95469000D01*
X117344260Y-95469000D01*
X117410442Y-95475518D01*
X117410442Y-95475518D01*
G37*
G36*
X119950443Y-92935519D02*
X120016627Y-92942037D01*
X120129853Y-92976384D01*
X120186467Y-92993557D01*
X120325087Y-93067652D01*
X120342991Y-93077222D01*
X120378729Y-93106552D01*
X120480186Y-93189814D01*
X120563448Y-93291271D01*
X120592778Y-93327009D01*
X120592779Y-93327011D01*
X120676443Y-93483533D01*
X120676443Y-93483534D01*
X120727963Y-93653373D01*
X120745359Y-93830000D01*
X120727963Y-94006627D01*
X120693616Y-94119853D01*
X120676443Y-94176467D01*
X120602348Y-94315087D01*
X120592778Y-94332991D01*
X120563448Y-94368729D01*
X120480186Y-94470186D01*
X120378729Y-94553448D01*
X120342991Y-94582778D01*
X120342989Y-94582779D01*
X120186467Y-94666443D01*
X120129853Y-94683616D01*
X120016627Y-94717963D01*
X119950442Y-94724482D01*
X119884260Y-94731000D01*
X119795740Y-94731000D01*
X119729558Y-94724482D01*
X119663373Y-94717963D01*
X119550147Y-94683616D01*
X119493533Y-94666443D01*
X119337011Y-94582779D01*
X119337009Y-94582778D01*
X119301271Y-94553448D01*
X119199814Y-94470186D01*
X119116552Y-94368729D01*
X119087222Y-94332991D01*
X119077652Y-94315087D01*
X119003557Y-94176467D01*
X118986384Y-94119853D01*
X118952037Y-94006627D01*
X118934641Y-93830000D01*
X118952037Y-93653373D01*
X119003557Y-93483534D01*
X119003557Y-93483533D01*
X119087221Y-93327011D01*
X119087222Y-93327009D01*
X119116552Y-93291271D01*
X119199814Y-93189814D01*
X119301271Y-93106552D01*
X119337009Y-93077222D01*
X119354913Y-93067652D01*
X119493533Y-92993557D01*
X119550147Y-92976384D01*
X119663373Y-92942037D01*
X119729557Y-92935519D01*
X119795740Y-92929000D01*
X119884260Y-92929000D01*
X119950443Y-92935519D01*
X119950443Y-92935519D01*
G37*
G36*
X117410443Y-92935519D02*
X117476627Y-92942037D01*
X117589853Y-92976384D01*
X117646467Y-92993557D01*
X117785087Y-93067652D01*
X117802991Y-93077222D01*
X117838729Y-93106552D01*
X117940186Y-93189814D01*
X118023448Y-93291271D01*
X118052778Y-93327009D01*
X118052779Y-93327011D01*
X118136443Y-93483533D01*
X118136443Y-93483534D01*
X118187963Y-93653373D01*
X118205359Y-93830000D01*
X118187963Y-94006627D01*
X118153616Y-94119853D01*
X118136443Y-94176467D01*
X118062348Y-94315087D01*
X118052778Y-94332991D01*
X118023448Y-94368729D01*
X117940186Y-94470186D01*
X117838729Y-94553448D01*
X117802991Y-94582778D01*
X117802989Y-94582779D01*
X117646467Y-94666443D01*
X117589853Y-94683616D01*
X117476627Y-94717963D01*
X117410442Y-94724482D01*
X117344260Y-94731000D01*
X117255740Y-94731000D01*
X117189558Y-94724482D01*
X117123373Y-94717963D01*
X117010147Y-94683616D01*
X116953533Y-94666443D01*
X116797011Y-94582779D01*
X116797009Y-94582778D01*
X116761271Y-94553448D01*
X116659814Y-94470186D01*
X116576552Y-94368729D01*
X116547222Y-94332991D01*
X116537652Y-94315087D01*
X116463557Y-94176467D01*
X116446384Y-94119853D01*
X116412037Y-94006627D01*
X116394641Y-93830000D01*
X116412037Y-93653373D01*
X116463557Y-93483534D01*
X116463557Y-93483533D01*
X116547221Y-93327011D01*
X116547222Y-93327009D01*
X116576552Y-93291271D01*
X116659814Y-93189814D01*
X116761271Y-93106552D01*
X116797009Y-93077222D01*
X116814913Y-93067652D01*
X116953533Y-92993557D01*
X117010147Y-92976384D01*
X117123373Y-92942037D01*
X117189557Y-92935519D01*
X117255740Y-92929000D01*
X117344260Y-92929000D01*
X117410443Y-92935519D01*
X117410443Y-92935519D01*
G37*
G36*
X119950442Y-90395518D02*
X120016627Y-90402037D01*
X120129853Y-90436384D01*
X120186467Y-90453557D01*
X120325087Y-90527652D01*
X120342991Y-90537222D01*
X120378729Y-90566552D01*
X120480186Y-90649814D01*
X120563448Y-90751271D01*
X120592778Y-90787009D01*
X120592779Y-90787011D01*
X120676443Y-90943533D01*
X120676443Y-90943534D01*
X120727963Y-91113373D01*
X120745359Y-91290000D01*
X120727963Y-91466627D01*
X120693616Y-91579853D01*
X120676443Y-91636467D01*
X120602348Y-91775087D01*
X120592778Y-91792991D01*
X120563448Y-91828729D01*
X120480186Y-91930186D01*
X120378729Y-92013448D01*
X120342991Y-92042778D01*
X120342989Y-92042779D01*
X120186467Y-92126443D01*
X120129853Y-92143616D01*
X120016627Y-92177963D01*
X119950443Y-92184481D01*
X119884260Y-92191000D01*
X119795740Y-92191000D01*
X119729557Y-92184481D01*
X119663373Y-92177963D01*
X119550147Y-92143616D01*
X119493533Y-92126443D01*
X119337011Y-92042779D01*
X119337009Y-92042778D01*
X119301271Y-92013448D01*
X119199814Y-91930186D01*
X119116552Y-91828729D01*
X119087222Y-91792991D01*
X119077652Y-91775087D01*
X119003557Y-91636467D01*
X118986384Y-91579853D01*
X118952037Y-91466627D01*
X118934641Y-91290000D01*
X118952037Y-91113373D01*
X119003557Y-90943534D01*
X119003557Y-90943533D01*
X119087221Y-90787011D01*
X119087222Y-90787009D01*
X119116552Y-90751271D01*
X119199814Y-90649814D01*
X119301271Y-90566552D01*
X119337009Y-90537222D01*
X119354913Y-90527652D01*
X119493533Y-90453557D01*
X119550147Y-90436384D01*
X119663373Y-90402037D01*
X119729558Y-90395518D01*
X119795740Y-90389000D01*
X119884260Y-90389000D01*
X119950442Y-90395518D01*
X119950442Y-90395518D01*
G37*
G36*
X117410442Y-90395518D02*
X117476627Y-90402037D01*
X117589853Y-90436384D01*
X117646467Y-90453557D01*
X117785087Y-90527652D01*
X117802991Y-90537222D01*
X117838729Y-90566552D01*
X117940186Y-90649814D01*
X118023448Y-90751271D01*
X118052778Y-90787009D01*
X118052779Y-90787011D01*
X118136443Y-90943533D01*
X118136443Y-90943534D01*
X118187963Y-91113373D01*
X118205359Y-91290000D01*
X118187963Y-91466627D01*
X118153616Y-91579853D01*
X118136443Y-91636467D01*
X118062348Y-91775087D01*
X118052778Y-91792991D01*
X118023448Y-91828729D01*
X117940186Y-91930186D01*
X117838729Y-92013448D01*
X117802991Y-92042778D01*
X117802989Y-92042779D01*
X117646467Y-92126443D01*
X117589853Y-92143616D01*
X117476627Y-92177963D01*
X117410443Y-92184481D01*
X117344260Y-92191000D01*
X117255740Y-92191000D01*
X117189557Y-92184481D01*
X117123373Y-92177963D01*
X117010147Y-92143616D01*
X116953533Y-92126443D01*
X116797011Y-92042779D01*
X116797009Y-92042778D01*
X116761271Y-92013448D01*
X116659814Y-91930186D01*
X116576552Y-91828729D01*
X116547222Y-91792991D01*
X116537652Y-91775087D01*
X116463557Y-91636467D01*
X116446384Y-91579853D01*
X116412037Y-91466627D01*
X116394641Y-91290000D01*
X116412037Y-91113373D01*
X116463557Y-90943534D01*
X116463557Y-90943533D01*
X116547221Y-90787011D01*
X116547222Y-90787009D01*
X116576552Y-90751271D01*
X116659814Y-90649814D01*
X116761271Y-90566552D01*
X116797009Y-90537222D01*
X116814913Y-90527652D01*
X116953533Y-90453557D01*
X117010147Y-90436384D01*
X117123373Y-90402037D01*
X117189558Y-90395518D01*
X117255740Y-90389000D01*
X117344260Y-90389000D01*
X117410442Y-90395518D01*
X117410442Y-90395518D01*
G37*
G36*
X117410442Y-87855518D02*
X117476627Y-87862037D01*
X117589853Y-87896384D01*
X117646467Y-87913557D01*
X117785087Y-87987652D01*
X117802991Y-87997222D01*
X117838729Y-88026552D01*
X117940186Y-88109814D01*
X118023448Y-88211271D01*
X118052778Y-88247009D01*
X118052779Y-88247011D01*
X118136443Y-88403533D01*
X118136443Y-88403534D01*
X118187963Y-88573373D01*
X118205359Y-88750000D01*
X118187963Y-88926627D01*
X118153616Y-89039853D01*
X118136443Y-89096467D01*
X118062348Y-89235087D01*
X118052778Y-89252991D01*
X118023448Y-89288729D01*
X117940186Y-89390186D01*
X117838729Y-89473448D01*
X117802991Y-89502778D01*
X117802989Y-89502779D01*
X117646467Y-89586443D01*
X117589853Y-89603616D01*
X117476627Y-89637963D01*
X117410442Y-89644482D01*
X117344260Y-89651000D01*
X117255740Y-89651000D01*
X117189558Y-89644482D01*
X117123373Y-89637963D01*
X117010147Y-89603616D01*
X116953533Y-89586443D01*
X116797011Y-89502779D01*
X116797009Y-89502778D01*
X116761271Y-89473448D01*
X116659814Y-89390186D01*
X116576552Y-89288729D01*
X116547222Y-89252991D01*
X116537652Y-89235087D01*
X116463557Y-89096467D01*
X116446384Y-89039853D01*
X116412037Y-88926627D01*
X116394641Y-88750000D01*
X116412037Y-88573373D01*
X116463557Y-88403534D01*
X116463557Y-88403533D01*
X116547221Y-88247011D01*
X116547222Y-88247009D01*
X116576552Y-88211271D01*
X116659814Y-88109814D01*
X116761271Y-88026552D01*
X116797009Y-87997222D01*
X116814913Y-87987652D01*
X116953533Y-87913557D01*
X117010147Y-87896384D01*
X117123373Y-87862037D01*
X117189558Y-87855518D01*
X117255740Y-87849000D01*
X117344260Y-87849000D01*
X117410442Y-87855518D01*
X117410442Y-87855518D01*
G37*
G36*
X119950442Y-87855518D02*
X120016627Y-87862037D01*
X120129853Y-87896384D01*
X120186467Y-87913557D01*
X120325087Y-87987652D01*
X120342991Y-87997222D01*
X120378729Y-88026552D01*
X120480186Y-88109814D01*
X120563448Y-88211271D01*
X120592778Y-88247009D01*
X120592779Y-88247011D01*
X120676443Y-88403533D01*
X120676443Y-88403534D01*
X120727963Y-88573373D01*
X120745359Y-88750000D01*
X120727963Y-88926627D01*
X120693616Y-89039853D01*
X120676443Y-89096467D01*
X120602348Y-89235087D01*
X120592778Y-89252991D01*
X120563448Y-89288729D01*
X120480186Y-89390186D01*
X120378729Y-89473448D01*
X120342991Y-89502778D01*
X120342989Y-89502779D01*
X120186467Y-89586443D01*
X120129853Y-89603616D01*
X120016627Y-89637963D01*
X119950442Y-89644482D01*
X119884260Y-89651000D01*
X119795740Y-89651000D01*
X119729558Y-89644482D01*
X119663373Y-89637963D01*
X119550147Y-89603616D01*
X119493533Y-89586443D01*
X119337011Y-89502779D01*
X119337009Y-89502778D01*
X119301271Y-89473448D01*
X119199814Y-89390186D01*
X119116552Y-89288729D01*
X119087222Y-89252991D01*
X119077652Y-89235087D01*
X119003557Y-89096467D01*
X118986384Y-89039853D01*
X118952037Y-88926627D01*
X118934641Y-88750000D01*
X118952037Y-88573373D01*
X119003557Y-88403534D01*
X119003557Y-88403533D01*
X119087221Y-88247011D01*
X119087222Y-88247009D01*
X119116552Y-88211271D01*
X119199814Y-88109814D01*
X119301271Y-88026552D01*
X119337009Y-87997222D01*
X119354913Y-87987652D01*
X119493533Y-87913557D01*
X119550147Y-87896384D01*
X119663373Y-87862037D01*
X119729558Y-87855518D01*
X119795740Y-87849000D01*
X119884260Y-87849000D01*
X119950442Y-87855518D01*
X119950442Y-87855518D01*
G37*
G36*
X119950442Y-85315518D02*
X120016627Y-85322037D01*
X120129853Y-85356384D01*
X120186467Y-85373557D01*
X120325087Y-85447652D01*
X120342991Y-85457222D01*
X120378729Y-85486552D01*
X120480186Y-85569814D01*
X120563448Y-85671271D01*
X120592778Y-85707009D01*
X120592779Y-85707011D01*
X120676443Y-85863533D01*
X120676443Y-85863534D01*
X120727963Y-86033373D01*
X120745359Y-86210000D01*
X120727963Y-86386627D01*
X120693616Y-86499853D01*
X120676443Y-86556467D01*
X120602348Y-86695087D01*
X120592778Y-86712991D01*
X120563448Y-86748729D01*
X120480186Y-86850186D01*
X120378729Y-86933448D01*
X120342991Y-86962778D01*
X120342989Y-86962779D01*
X120186467Y-87046443D01*
X120129853Y-87063616D01*
X120016627Y-87097963D01*
X119950442Y-87104482D01*
X119884260Y-87111000D01*
X119795740Y-87111000D01*
X119729558Y-87104482D01*
X119663373Y-87097963D01*
X119550147Y-87063616D01*
X119493533Y-87046443D01*
X119337011Y-86962779D01*
X119337009Y-86962778D01*
X119301271Y-86933448D01*
X119199814Y-86850186D01*
X119116552Y-86748729D01*
X119087222Y-86712991D01*
X119077652Y-86695087D01*
X119003557Y-86556467D01*
X118986384Y-86499853D01*
X118952037Y-86386627D01*
X118934641Y-86210000D01*
X118952037Y-86033373D01*
X119003557Y-85863534D01*
X119003557Y-85863533D01*
X119087221Y-85707011D01*
X119087222Y-85707009D01*
X119116552Y-85671271D01*
X119199814Y-85569814D01*
X119301271Y-85486552D01*
X119337009Y-85457222D01*
X119354913Y-85447652D01*
X119493533Y-85373557D01*
X119550147Y-85356384D01*
X119663373Y-85322037D01*
X119729558Y-85315518D01*
X119795740Y-85309000D01*
X119884260Y-85309000D01*
X119950442Y-85315518D01*
X119950442Y-85315518D01*
G37*
G36*
X117410442Y-85315518D02*
X117476627Y-85322037D01*
X117589853Y-85356384D01*
X117646467Y-85373557D01*
X117785087Y-85447652D01*
X117802991Y-85457222D01*
X117838729Y-85486552D01*
X117940186Y-85569814D01*
X118023448Y-85671271D01*
X118052778Y-85707009D01*
X118052779Y-85707011D01*
X118136443Y-85863533D01*
X118136443Y-85863534D01*
X118187963Y-86033373D01*
X118205359Y-86210000D01*
X118187963Y-86386627D01*
X118153616Y-86499853D01*
X118136443Y-86556467D01*
X118062348Y-86695087D01*
X118052778Y-86712991D01*
X118023448Y-86748729D01*
X117940186Y-86850186D01*
X117838729Y-86933448D01*
X117802991Y-86962778D01*
X117802989Y-86962779D01*
X117646467Y-87046443D01*
X117589853Y-87063616D01*
X117476627Y-87097963D01*
X117410442Y-87104482D01*
X117344260Y-87111000D01*
X117255740Y-87111000D01*
X117189558Y-87104482D01*
X117123373Y-87097963D01*
X117010147Y-87063616D01*
X116953533Y-87046443D01*
X116797011Y-86962779D01*
X116797009Y-86962778D01*
X116761271Y-86933448D01*
X116659814Y-86850186D01*
X116576552Y-86748729D01*
X116547222Y-86712991D01*
X116537652Y-86695087D01*
X116463557Y-86556467D01*
X116446384Y-86499853D01*
X116412037Y-86386627D01*
X116394641Y-86210000D01*
X116412037Y-86033373D01*
X116463557Y-85863534D01*
X116463557Y-85863533D01*
X116547221Y-85707011D01*
X116547222Y-85707009D01*
X116576552Y-85671271D01*
X116659814Y-85569814D01*
X116761271Y-85486552D01*
X116797009Y-85457222D01*
X116814913Y-85447652D01*
X116953533Y-85373557D01*
X117010147Y-85356384D01*
X117123373Y-85322037D01*
X117189558Y-85315518D01*
X117255740Y-85309000D01*
X117344260Y-85309000D01*
X117410442Y-85315518D01*
X117410442Y-85315518D01*
G37*
G36*
X119950443Y-82775519D02*
X120016627Y-82782037D01*
X120129853Y-82816384D01*
X120186467Y-82833557D01*
X120325087Y-82907652D01*
X120342991Y-82917222D01*
X120378729Y-82946552D01*
X120480186Y-83029814D01*
X120563448Y-83131271D01*
X120592778Y-83167009D01*
X120592779Y-83167011D01*
X120676443Y-83323533D01*
X120676443Y-83323534D01*
X120727963Y-83493373D01*
X120745359Y-83670000D01*
X120727963Y-83846627D01*
X120693616Y-83959853D01*
X120676443Y-84016467D01*
X120602348Y-84155087D01*
X120592778Y-84172991D01*
X120563448Y-84208729D01*
X120480186Y-84310186D01*
X120378729Y-84393448D01*
X120342991Y-84422778D01*
X120342989Y-84422779D01*
X120186467Y-84506443D01*
X120129853Y-84523616D01*
X120016627Y-84557963D01*
X119950442Y-84564482D01*
X119884260Y-84571000D01*
X119795740Y-84571000D01*
X119729558Y-84564482D01*
X119663373Y-84557963D01*
X119550147Y-84523616D01*
X119493533Y-84506443D01*
X119337011Y-84422779D01*
X119337009Y-84422778D01*
X119301271Y-84393448D01*
X119199814Y-84310186D01*
X119116552Y-84208729D01*
X119087222Y-84172991D01*
X119077652Y-84155087D01*
X119003557Y-84016467D01*
X118986384Y-83959853D01*
X118952037Y-83846627D01*
X118934641Y-83670000D01*
X118952037Y-83493373D01*
X119003557Y-83323534D01*
X119003557Y-83323533D01*
X119087221Y-83167011D01*
X119087222Y-83167009D01*
X119116552Y-83131271D01*
X119199814Y-83029814D01*
X119301271Y-82946552D01*
X119337009Y-82917222D01*
X119354913Y-82907652D01*
X119493533Y-82833557D01*
X119550147Y-82816384D01*
X119663373Y-82782037D01*
X119729557Y-82775519D01*
X119795740Y-82769000D01*
X119884260Y-82769000D01*
X119950443Y-82775519D01*
X119950443Y-82775519D01*
G37*
G36*
X117410443Y-82775519D02*
X117476627Y-82782037D01*
X117589853Y-82816384D01*
X117646467Y-82833557D01*
X117785087Y-82907652D01*
X117802991Y-82917222D01*
X117838729Y-82946552D01*
X117940186Y-83029814D01*
X118023448Y-83131271D01*
X118052778Y-83167009D01*
X118052779Y-83167011D01*
X118136443Y-83323533D01*
X118136443Y-83323534D01*
X118187963Y-83493373D01*
X118205359Y-83670000D01*
X118187963Y-83846627D01*
X118153616Y-83959853D01*
X118136443Y-84016467D01*
X118062348Y-84155087D01*
X118052778Y-84172991D01*
X118023448Y-84208729D01*
X117940186Y-84310186D01*
X117838729Y-84393448D01*
X117802991Y-84422778D01*
X117802989Y-84422779D01*
X117646467Y-84506443D01*
X117589853Y-84523616D01*
X117476627Y-84557963D01*
X117410442Y-84564482D01*
X117344260Y-84571000D01*
X117255740Y-84571000D01*
X117189558Y-84564482D01*
X117123373Y-84557963D01*
X117010147Y-84523616D01*
X116953533Y-84506443D01*
X116797011Y-84422779D01*
X116797009Y-84422778D01*
X116761271Y-84393448D01*
X116659814Y-84310186D01*
X116576552Y-84208729D01*
X116547222Y-84172991D01*
X116537652Y-84155087D01*
X116463557Y-84016467D01*
X116446384Y-83959853D01*
X116412037Y-83846627D01*
X116394641Y-83670000D01*
X116412037Y-83493373D01*
X116463557Y-83323534D01*
X116463557Y-83323533D01*
X116547221Y-83167011D01*
X116547222Y-83167009D01*
X116576552Y-83131271D01*
X116659814Y-83029814D01*
X116761271Y-82946552D01*
X116797009Y-82917222D01*
X116814913Y-82907652D01*
X116953533Y-82833557D01*
X117010147Y-82816384D01*
X117123373Y-82782037D01*
X117189557Y-82775519D01*
X117255740Y-82769000D01*
X117344260Y-82769000D01*
X117410443Y-82775519D01*
X117410443Y-82775519D01*
G37*
G36*
X133831938Y-81341716D02*
X133852556Y-81347970D01*
X133871556Y-81358126D01*
X133888208Y-81371792D01*
X133901874Y-81388444D01*
X133912030Y-81407444D01*
X133918284Y-81428062D01*
X133921000Y-81455640D01*
X133921000Y-81914360D01*
X133918284Y-81941938D01*
X133912030Y-81962556D01*
X133901874Y-81981556D01*
X133888208Y-81998208D01*
X133871556Y-82011874D01*
X133852556Y-82022030D01*
X133831938Y-82028284D01*
X133804360Y-82031000D01*
X133295640Y-82031000D01*
X133268062Y-82028284D01*
X133247444Y-82022030D01*
X133228444Y-82011874D01*
X133211792Y-81998208D01*
X133198126Y-81981556D01*
X133187970Y-81962556D01*
X133181716Y-81941938D01*
X133179000Y-81914360D01*
X133179000Y-81455640D01*
X133181716Y-81428062D01*
X133187970Y-81407444D01*
X133198126Y-81388444D01*
X133211792Y-81371792D01*
X133228444Y-81358126D01*
X133247444Y-81347970D01*
X133268062Y-81341716D01*
X133295640Y-81339000D01*
X133804360Y-81339000D01*
X133831938Y-81341716D01*
X133831938Y-81341716D01*
G37*
G36*
X119950442Y-80235518D02*
X120016627Y-80242037D01*
X120129853Y-80276384D01*
X120186467Y-80293557D01*
X120325087Y-80367652D01*
X120342991Y-80377222D01*
X120356277Y-80388126D01*
X120480186Y-80489814D01*
X120563448Y-80591271D01*
X120592778Y-80627009D01*
X120592779Y-80627011D01*
X120676443Y-80783533D01*
X120676443Y-80783534D01*
X120727963Y-80953373D01*
X120745359Y-81130000D01*
X120727963Y-81306627D01*
X120694820Y-81415886D01*
X120676443Y-81476467D01*
X120675490Y-81478249D01*
X120592778Y-81632991D01*
X120563448Y-81668729D01*
X120480186Y-81770186D01*
X120378729Y-81853448D01*
X120342991Y-81882778D01*
X120342989Y-81882779D01*
X120186467Y-81966443D01*
X120140690Y-81980329D01*
X120016627Y-82017963D01*
X119975333Y-82022030D01*
X119884260Y-82031000D01*
X119795740Y-82031000D01*
X119704667Y-82022030D01*
X119663373Y-82017963D01*
X119539310Y-81980329D01*
X119493533Y-81966443D01*
X119337011Y-81882779D01*
X119337009Y-81882778D01*
X119301271Y-81853448D01*
X119199814Y-81770186D01*
X119116552Y-81668729D01*
X119087222Y-81632991D01*
X119004510Y-81478249D01*
X119003557Y-81476467D01*
X118985180Y-81415886D01*
X118952037Y-81306627D01*
X118934641Y-81130000D01*
X118952037Y-80953373D01*
X119003557Y-80783534D01*
X119003557Y-80783533D01*
X119087221Y-80627011D01*
X119087222Y-80627009D01*
X119116552Y-80591271D01*
X119199814Y-80489814D01*
X119323723Y-80388126D01*
X119337009Y-80377222D01*
X119354913Y-80367652D01*
X119493533Y-80293557D01*
X119550147Y-80276384D01*
X119663373Y-80242037D01*
X119729558Y-80235518D01*
X119795740Y-80229000D01*
X119884260Y-80229000D01*
X119950442Y-80235518D01*
X119950442Y-80235518D01*
G37*
G36*
X117410442Y-80235518D02*
X117476627Y-80242037D01*
X117589853Y-80276384D01*
X117646467Y-80293557D01*
X117785087Y-80367652D01*
X117802991Y-80377222D01*
X117816277Y-80388126D01*
X117940186Y-80489814D01*
X118023448Y-80591271D01*
X118052778Y-80627009D01*
X118052779Y-80627011D01*
X118136443Y-80783533D01*
X118136443Y-80783534D01*
X118187963Y-80953373D01*
X118205359Y-81130000D01*
X118187963Y-81306627D01*
X118154820Y-81415886D01*
X118136443Y-81476467D01*
X118135490Y-81478249D01*
X118052778Y-81632991D01*
X118023448Y-81668729D01*
X117940186Y-81770186D01*
X117838729Y-81853448D01*
X117802991Y-81882778D01*
X117802989Y-81882779D01*
X117646467Y-81966443D01*
X117600690Y-81980329D01*
X117476627Y-82017963D01*
X117435333Y-82022030D01*
X117344260Y-82031000D01*
X117255740Y-82031000D01*
X117164667Y-82022030D01*
X117123373Y-82017963D01*
X116999310Y-81980329D01*
X116953533Y-81966443D01*
X116797011Y-81882779D01*
X116797009Y-81882778D01*
X116761271Y-81853448D01*
X116659814Y-81770186D01*
X116576552Y-81668729D01*
X116547222Y-81632991D01*
X116464510Y-81478249D01*
X116463557Y-81476467D01*
X116445180Y-81415886D01*
X116412037Y-81306627D01*
X116394641Y-81130000D01*
X116412037Y-80953373D01*
X116463557Y-80783534D01*
X116463557Y-80783533D01*
X116547221Y-80627011D01*
X116547222Y-80627009D01*
X116576552Y-80591271D01*
X116659814Y-80489814D01*
X116783723Y-80388126D01*
X116797009Y-80377222D01*
X116814913Y-80367652D01*
X116953533Y-80293557D01*
X117010147Y-80276384D01*
X117123373Y-80242037D01*
X117189558Y-80235518D01*
X117255740Y-80229000D01*
X117344260Y-80229000D01*
X117410442Y-80235518D01*
X117410442Y-80235518D01*
G37*
G36*
X133831938Y-80371716D02*
X133852556Y-80377970D01*
X133871556Y-80388126D01*
X133888208Y-80401792D01*
X133901874Y-80418444D01*
X133912030Y-80437444D01*
X133918284Y-80458062D01*
X133921000Y-80485640D01*
X133921000Y-80944360D01*
X133918284Y-80971938D01*
X133912030Y-80992556D01*
X133901874Y-81011556D01*
X133888208Y-81028208D01*
X133871556Y-81041874D01*
X133852556Y-81052030D01*
X133831938Y-81058284D01*
X133804360Y-81061000D01*
X133295640Y-81061000D01*
X133268062Y-81058284D01*
X133247444Y-81052030D01*
X133228444Y-81041874D01*
X133211792Y-81028208D01*
X133198126Y-81011556D01*
X133187970Y-80992556D01*
X133181716Y-80971938D01*
X133179000Y-80944360D01*
X133179000Y-80485640D01*
X133181716Y-80458062D01*
X133187970Y-80437444D01*
X133198126Y-80418444D01*
X133211792Y-80401792D01*
X133228444Y-80388126D01*
X133247444Y-80377970D01*
X133268062Y-80371716D01*
X133295640Y-80369000D01*
X133804360Y-80369000D01*
X133831938Y-80371716D01*
X133831938Y-80371716D01*
G37*
G36*
X119950442Y-77695518D02*
X120016627Y-77702037D01*
X120129853Y-77736384D01*
X120186467Y-77753557D01*
X120325087Y-77827652D01*
X120342991Y-77837222D01*
X120378729Y-77866552D01*
X120480186Y-77949814D01*
X120563448Y-78051271D01*
X120592778Y-78087009D01*
X120592779Y-78087011D01*
X120676443Y-78243533D01*
X120676443Y-78243534D01*
X120727963Y-78413373D01*
X120745359Y-78590000D01*
X120727963Y-78766627D01*
X120693616Y-78879853D01*
X120676443Y-78936467D01*
X120641949Y-79001000D01*
X120592778Y-79092991D01*
X120563448Y-79128729D01*
X120480186Y-79230186D01*
X120378729Y-79313448D01*
X120342991Y-79342778D01*
X120342989Y-79342779D01*
X120186467Y-79426443D01*
X120129853Y-79443616D01*
X120016627Y-79477963D01*
X119950442Y-79484482D01*
X119884260Y-79491000D01*
X119795740Y-79491000D01*
X119729558Y-79484482D01*
X119663373Y-79477963D01*
X119550147Y-79443616D01*
X119493533Y-79426443D01*
X119337011Y-79342779D01*
X119337009Y-79342778D01*
X119301271Y-79313448D01*
X119199814Y-79230186D01*
X119116552Y-79128729D01*
X119087222Y-79092991D01*
X119038051Y-79001000D01*
X119003557Y-78936467D01*
X118986384Y-78879853D01*
X118952037Y-78766627D01*
X118934641Y-78590000D01*
X118952037Y-78413373D01*
X119003557Y-78243534D01*
X119003557Y-78243533D01*
X119087221Y-78087011D01*
X119087222Y-78087009D01*
X119116552Y-78051271D01*
X119199814Y-77949814D01*
X119301271Y-77866552D01*
X119337009Y-77837222D01*
X119354913Y-77827652D01*
X119493533Y-77753557D01*
X119550147Y-77736384D01*
X119663373Y-77702037D01*
X119729558Y-77695518D01*
X119795740Y-77689000D01*
X119884260Y-77689000D01*
X119950442Y-77695518D01*
X119950442Y-77695518D01*
G37*
G36*
X117410442Y-77695518D02*
X117476627Y-77702037D01*
X117589853Y-77736384D01*
X117646467Y-77753557D01*
X117785087Y-77827652D01*
X117802991Y-77837222D01*
X117838729Y-77866552D01*
X117940186Y-77949814D01*
X118023448Y-78051271D01*
X118052778Y-78087009D01*
X118052779Y-78087011D01*
X118136443Y-78243533D01*
X118136443Y-78243534D01*
X118187963Y-78413373D01*
X118205359Y-78590000D01*
X118187963Y-78766627D01*
X118153616Y-78879853D01*
X118136443Y-78936467D01*
X118101949Y-79001000D01*
X118052778Y-79092991D01*
X118023448Y-79128729D01*
X117940186Y-79230186D01*
X117838729Y-79313448D01*
X117802991Y-79342778D01*
X117802989Y-79342779D01*
X117646467Y-79426443D01*
X117589853Y-79443616D01*
X117476627Y-79477963D01*
X117410442Y-79484482D01*
X117344260Y-79491000D01*
X117255740Y-79491000D01*
X117189558Y-79484482D01*
X117123373Y-79477963D01*
X117010147Y-79443616D01*
X116953533Y-79426443D01*
X116797011Y-79342779D01*
X116797009Y-79342778D01*
X116761271Y-79313448D01*
X116659814Y-79230186D01*
X116576552Y-79128729D01*
X116547222Y-79092991D01*
X116498051Y-79001000D01*
X116463557Y-78936467D01*
X116446384Y-78879853D01*
X116412037Y-78766627D01*
X116394641Y-78590000D01*
X116412037Y-78413373D01*
X116463557Y-78243534D01*
X116463557Y-78243533D01*
X116547221Y-78087011D01*
X116547222Y-78087009D01*
X116576552Y-78051271D01*
X116659814Y-77949814D01*
X116761271Y-77866552D01*
X116797009Y-77837222D01*
X116814913Y-77827652D01*
X116953533Y-77753557D01*
X117010147Y-77736384D01*
X117123373Y-77702037D01*
X117189558Y-77695518D01*
X117255740Y-77689000D01*
X117344260Y-77689000D01*
X117410442Y-77695518D01*
X117410442Y-77695518D01*
G37*
G36*
X132151000Y-79001000D02*
X131249000Y-79001000D01*
X131249000Y-77999000D01*
X132151000Y-77999000D01*
X132151000Y-79001000D01*
X132151000Y-79001000D01*
G37*
G36*
X134051000Y-79001000D02*
X133149000Y-79001000D01*
X133149000Y-77999000D01*
X134051000Y-77999000D01*
X134051000Y-79001000D01*
X134051000Y-79001000D01*
G37*
G36*
X133101000Y-77001000D02*
X132199000Y-77001000D01*
X132199000Y-75999000D01*
X133101000Y-75999000D01*
X133101000Y-77001000D01*
X133101000Y-77001000D01*
G37*
G36*
X119950443Y-75155519D02*
X120016627Y-75162037D01*
X120129853Y-75196384D01*
X120186467Y-75213557D01*
X120325087Y-75287652D01*
X120342991Y-75297222D01*
X120378729Y-75326552D01*
X120480186Y-75409814D01*
X120563448Y-75511271D01*
X120592778Y-75547009D01*
X120592779Y-75547011D01*
X120676443Y-75703533D01*
X120676443Y-75703534D01*
X120727963Y-75873373D01*
X120745359Y-76050000D01*
X120727963Y-76226627D01*
X120693616Y-76339853D01*
X120676443Y-76396467D01*
X120602348Y-76535087D01*
X120592778Y-76552991D01*
X120563448Y-76588729D01*
X120480186Y-76690186D01*
X120378729Y-76773448D01*
X120342991Y-76802778D01*
X120342989Y-76802779D01*
X120186467Y-76886443D01*
X120129853Y-76903616D01*
X120016627Y-76937963D01*
X119950442Y-76944482D01*
X119884260Y-76951000D01*
X119795740Y-76951000D01*
X119729558Y-76944482D01*
X119663373Y-76937963D01*
X119550147Y-76903616D01*
X119493533Y-76886443D01*
X119337011Y-76802779D01*
X119337009Y-76802778D01*
X119301271Y-76773448D01*
X119199814Y-76690186D01*
X119116552Y-76588729D01*
X119087222Y-76552991D01*
X119077652Y-76535087D01*
X119003557Y-76396467D01*
X118986384Y-76339853D01*
X118952037Y-76226627D01*
X118934641Y-76050000D01*
X118952037Y-75873373D01*
X119003557Y-75703534D01*
X119003557Y-75703533D01*
X119087221Y-75547011D01*
X119087222Y-75547009D01*
X119116552Y-75511271D01*
X119199814Y-75409814D01*
X119301271Y-75326552D01*
X119337009Y-75297222D01*
X119354913Y-75287652D01*
X119493533Y-75213557D01*
X119550147Y-75196384D01*
X119663373Y-75162037D01*
X119729557Y-75155519D01*
X119795740Y-75149000D01*
X119884260Y-75149000D01*
X119950443Y-75155519D01*
X119950443Y-75155519D01*
G37*
G36*
X117410443Y-75155519D02*
X117476627Y-75162037D01*
X117589853Y-75196384D01*
X117646467Y-75213557D01*
X117785087Y-75287652D01*
X117802991Y-75297222D01*
X117838729Y-75326552D01*
X117940186Y-75409814D01*
X118023448Y-75511271D01*
X118052778Y-75547009D01*
X118052779Y-75547011D01*
X118136443Y-75703533D01*
X118136443Y-75703534D01*
X118187963Y-75873373D01*
X118205359Y-76050000D01*
X118187963Y-76226627D01*
X118153616Y-76339853D01*
X118136443Y-76396467D01*
X118062348Y-76535087D01*
X118052778Y-76552991D01*
X118023448Y-76588729D01*
X117940186Y-76690186D01*
X117838729Y-76773448D01*
X117802991Y-76802778D01*
X117802989Y-76802779D01*
X117646467Y-76886443D01*
X117589853Y-76903616D01*
X117476627Y-76937963D01*
X117410442Y-76944482D01*
X117344260Y-76951000D01*
X117255740Y-76951000D01*
X117189558Y-76944482D01*
X117123373Y-76937963D01*
X117010147Y-76903616D01*
X116953533Y-76886443D01*
X116797011Y-76802779D01*
X116797009Y-76802778D01*
X116761271Y-76773448D01*
X116659814Y-76690186D01*
X116576552Y-76588729D01*
X116547222Y-76552991D01*
X116537652Y-76535087D01*
X116463557Y-76396467D01*
X116446384Y-76339853D01*
X116412037Y-76226627D01*
X116394641Y-76050000D01*
X116412037Y-75873373D01*
X116463557Y-75703534D01*
X116463557Y-75703533D01*
X116547221Y-75547011D01*
X116547222Y-75547009D01*
X116576552Y-75511271D01*
X116659814Y-75409814D01*
X116761271Y-75326552D01*
X116797009Y-75297222D01*
X116814913Y-75287652D01*
X116953533Y-75213557D01*
X117010147Y-75196384D01*
X117123373Y-75162037D01*
X117189557Y-75155519D01*
X117255740Y-75149000D01*
X117344260Y-75149000D01*
X117410443Y-75155519D01*
X117410443Y-75155519D01*
G37*
G36*
X117410442Y-72615518D02*
X117476627Y-72622037D01*
X117542993Y-72642169D01*
X117646467Y-72673557D01*
X117749152Y-72728444D01*
X117802991Y-72757222D01*
X117816199Y-72768062D01*
X117940186Y-72869814D01*
X118023448Y-72971271D01*
X118052778Y-73007009D01*
X118052779Y-73007011D01*
X118136443Y-73163533D01*
X118136443Y-73163534D01*
X118187963Y-73333373D01*
X118205359Y-73510000D01*
X118187963Y-73686627D01*
X118153616Y-73799853D01*
X118136443Y-73856467D01*
X118062348Y-73995087D01*
X118052778Y-74012991D01*
X118023448Y-74048729D01*
X117940186Y-74150186D01*
X117838729Y-74233448D01*
X117802991Y-74262778D01*
X117802989Y-74262779D01*
X117646467Y-74346443D01*
X117589853Y-74363616D01*
X117476627Y-74397963D01*
X117410443Y-74404481D01*
X117344260Y-74411000D01*
X117255740Y-74411000D01*
X117189557Y-74404481D01*
X117123373Y-74397963D01*
X117010147Y-74363616D01*
X116953533Y-74346443D01*
X116797011Y-74262779D01*
X116797009Y-74262778D01*
X116761271Y-74233448D01*
X116659814Y-74150186D01*
X116576552Y-74048729D01*
X116547222Y-74012991D01*
X116537652Y-73995087D01*
X116463557Y-73856467D01*
X116446384Y-73799853D01*
X116412037Y-73686627D01*
X116394641Y-73510000D01*
X116412037Y-73333373D01*
X116463557Y-73163534D01*
X116463557Y-73163533D01*
X116547221Y-73007011D01*
X116547222Y-73007009D01*
X116576552Y-72971271D01*
X116659814Y-72869814D01*
X116783801Y-72768062D01*
X116797009Y-72757222D01*
X116850848Y-72728444D01*
X116953533Y-72673557D01*
X117057007Y-72642169D01*
X117123373Y-72622037D01*
X117189558Y-72615518D01*
X117255740Y-72609000D01*
X117344260Y-72609000D01*
X117410442Y-72615518D01*
X117410442Y-72615518D01*
G37*
G36*
X119950442Y-72615518D02*
X120016627Y-72622037D01*
X120082993Y-72642169D01*
X120186467Y-72673557D01*
X120289152Y-72728444D01*
X120342991Y-72757222D01*
X120356199Y-72768062D01*
X120480186Y-72869814D01*
X120563448Y-72971271D01*
X120592778Y-73007009D01*
X120592779Y-73007011D01*
X120676443Y-73163533D01*
X120676443Y-73163534D01*
X120727963Y-73333373D01*
X120745359Y-73510000D01*
X120727963Y-73686627D01*
X120693616Y-73799853D01*
X120676443Y-73856467D01*
X120602348Y-73995087D01*
X120592778Y-74012991D01*
X120563448Y-74048729D01*
X120480186Y-74150186D01*
X120378729Y-74233448D01*
X120342991Y-74262778D01*
X120342989Y-74262779D01*
X120186467Y-74346443D01*
X120129853Y-74363616D01*
X120016627Y-74397963D01*
X119950443Y-74404481D01*
X119884260Y-74411000D01*
X119795740Y-74411000D01*
X119729557Y-74404481D01*
X119663373Y-74397963D01*
X119550147Y-74363616D01*
X119493533Y-74346443D01*
X119337011Y-74262779D01*
X119337009Y-74262778D01*
X119301271Y-74233448D01*
X119199814Y-74150186D01*
X119116552Y-74048729D01*
X119087222Y-74012991D01*
X119077652Y-73995087D01*
X119003557Y-73856467D01*
X118986384Y-73799853D01*
X118952037Y-73686627D01*
X118934641Y-73510000D01*
X118952037Y-73333373D01*
X119003557Y-73163534D01*
X119003557Y-73163533D01*
X119087221Y-73007011D01*
X119087222Y-73007009D01*
X119116552Y-72971271D01*
X119199814Y-72869814D01*
X119323801Y-72768062D01*
X119337009Y-72757222D01*
X119390848Y-72728444D01*
X119493533Y-72673557D01*
X119597007Y-72642169D01*
X119663373Y-72622037D01*
X119729558Y-72615518D01*
X119795740Y-72609000D01*
X119884260Y-72609000D01*
X119950442Y-72615518D01*
X119950442Y-72615518D01*
G37*
G36*
X139921938Y-72681716D02*
X139942556Y-72687970D01*
X139961556Y-72698126D01*
X139978208Y-72711792D01*
X139991874Y-72728444D01*
X140002030Y-72747444D01*
X140008284Y-72768062D01*
X140011000Y-72795640D01*
X140011000Y-73304360D01*
X140008284Y-73331938D01*
X140002030Y-73352556D01*
X139991874Y-73371556D01*
X139978208Y-73388208D01*
X139961556Y-73401874D01*
X139942556Y-73412030D01*
X139921938Y-73418284D01*
X139894360Y-73421000D01*
X139435640Y-73421000D01*
X139408062Y-73418284D01*
X139387444Y-73412030D01*
X139368444Y-73401874D01*
X139351792Y-73388208D01*
X139338126Y-73371556D01*
X139327970Y-73352556D01*
X139321716Y-73331938D01*
X139319000Y-73304360D01*
X139319000Y-72795640D01*
X139321716Y-72768062D01*
X139327970Y-72747444D01*
X139338126Y-72728444D01*
X139351792Y-72711792D01*
X139368444Y-72698126D01*
X139387444Y-72687970D01*
X139408062Y-72681716D01*
X139435640Y-72679000D01*
X139894360Y-72679000D01*
X139921938Y-72681716D01*
X139921938Y-72681716D01*
G37*
G36*
X140891938Y-72681716D02*
X140912556Y-72687970D01*
X140931556Y-72698126D01*
X140948208Y-72711792D01*
X140961874Y-72728444D01*
X140972030Y-72747444D01*
X140978284Y-72768062D01*
X140981000Y-72795640D01*
X140981000Y-73304360D01*
X140978284Y-73331938D01*
X140972030Y-73352556D01*
X140961874Y-73371556D01*
X140948208Y-73388208D01*
X140931556Y-73401874D01*
X140912556Y-73412030D01*
X140891938Y-73418284D01*
X140864360Y-73421000D01*
X140405640Y-73421000D01*
X140378062Y-73418284D01*
X140357444Y-73412030D01*
X140338444Y-73401874D01*
X140321792Y-73388208D01*
X140308126Y-73371556D01*
X140297970Y-73352556D01*
X140291716Y-73331938D01*
X140289000Y-73304360D01*
X140289000Y-72795640D01*
X140291716Y-72768062D01*
X140297970Y-72747444D01*
X140308126Y-72728444D01*
X140321792Y-72711792D01*
X140338444Y-72698126D01*
X140357444Y-72687970D01*
X140378062Y-72681716D01*
X140405640Y-72679000D01*
X140864360Y-72679000D01*
X140891938Y-72681716D01*
X140891938Y-72681716D01*
G37*
G36*
X136841938Y-72631716D02*
X136862556Y-72637970D01*
X136881556Y-72648126D01*
X136898208Y-72661792D01*
X136911874Y-72678444D01*
X136922030Y-72697444D01*
X136928284Y-72718062D01*
X136931000Y-72745640D01*
X136931000Y-73254360D01*
X136928284Y-73281938D01*
X136922030Y-73302556D01*
X136911874Y-73321556D01*
X136898208Y-73338208D01*
X136881556Y-73351874D01*
X136862556Y-73362030D01*
X136841938Y-73368284D01*
X136814360Y-73371000D01*
X136355640Y-73371000D01*
X136328062Y-73368284D01*
X136307444Y-73362030D01*
X136288444Y-73351874D01*
X136271792Y-73338208D01*
X136258126Y-73321556D01*
X136247970Y-73302556D01*
X136241716Y-73281938D01*
X136239000Y-73254360D01*
X136239000Y-72745640D01*
X136241716Y-72718062D01*
X136247970Y-72697444D01*
X136258126Y-72678444D01*
X136271792Y-72661792D01*
X136288444Y-72648126D01*
X136307444Y-72637970D01*
X136328062Y-72631716D01*
X136355640Y-72629000D01*
X136814360Y-72629000D01*
X136841938Y-72631716D01*
X136841938Y-72631716D01*
G37*
G36*
X132791938Y-72631716D02*
X132812556Y-72637970D01*
X132831556Y-72648126D01*
X132848208Y-72661792D01*
X132861874Y-72678444D01*
X132872030Y-72697444D01*
X132878284Y-72718062D01*
X132881000Y-72745640D01*
X132881000Y-73254360D01*
X132878284Y-73281938D01*
X132872030Y-73302556D01*
X132861874Y-73321556D01*
X132848208Y-73338208D01*
X132831556Y-73351874D01*
X132812556Y-73362030D01*
X132791938Y-73368284D01*
X132764360Y-73371000D01*
X132305640Y-73371000D01*
X132278062Y-73368284D01*
X132257444Y-73362030D01*
X132238444Y-73351874D01*
X132221792Y-73338208D01*
X132208126Y-73321556D01*
X132197970Y-73302556D01*
X132191716Y-73281938D01*
X132189000Y-73254360D01*
X132189000Y-72745640D01*
X132191716Y-72718062D01*
X132197970Y-72697444D01*
X132208126Y-72678444D01*
X132221792Y-72661792D01*
X132238444Y-72648126D01*
X132257444Y-72637970D01*
X132278062Y-72631716D01*
X132305640Y-72629000D01*
X132764360Y-72629000D01*
X132791938Y-72631716D01*
X132791938Y-72631716D01*
G37*
G36*
X135871938Y-72631716D02*
X135892556Y-72637970D01*
X135911556Y-72648126D01*
X135928208Y-72661792D01*
X135941874Y-72678444D01*
X135952030Y-72697444D01*
X135958284Y-72718062D01*
X135961000Y-72745640D01*
X135961000Y-73254360D01*
X135958284Y-73281938D01*
X135952030Y-73302556D01*
X135941874Y-73321556D01*
X135928208Y-73338208D01*
X135911556Y-73351874D01*
X135892556Y-73362030D01*
X135871938Y-73368284D01*
X135844360Y-73371000D01*
X135385640Y-73371000D01*
X135358062Y-73368284D01*
X135337444Y-73362030D01*
X135318444Y-73351874D01*
X135301792Y-73338208D01*
X135288126Y-73321556D01*
X135277970Y-73302556D01*
X135271716Y-73281938D01*
X135269000Y-73254360D01*
X135269000Y-72745640D01*
X135271716Y-72718062D01*
X135277970Y-72697444D01*
X135288126Y-72678444D01*
X135301792Y-72661792D01*
X135318444Y-72648126D01*
X135337444Y-72637970D01*
X135358062Y-72631716D01*
X135385640Y-72629000D01*
X135844360Y-72629000D01*
X135871938Y-72631716D01*
X135871938Y-72631716D01*
G37*
G36*
X131821938Y-72631716D02*
X131842556Y-72637970D01*
X131861556Y-72648126D01*
X131878208Y-72661792D01*
X131891874Y-72678444D01*
X131902030Y-72697444D01*
X131908284Y-72718062D01*
X131911000Y-72745640D01*
X131911000Y-73254360D01*
X131908284Y-73281938D01*
X131902030Y-73302556D01*
X131891874Y-73321556D01*
X131878208Y-73338208D01*
X131861556Y-73351874D01*
X131842556Y-73362030D01*
X131821938Y-73368284D01*
X131794360Y-73371000D01*
X131335640Y-73371000D01*
X131308062Y-73368284D01*
X131287444Y-73362030D01*
X131268444Y-73351874D01*
X131251792Y-73338208D01*
X131238126Y-73321556D01*
X131227970Y-73302556D01*
X131221716Y-73281938D01*
X131219000Y-73254360D01*
X131219000Y-72745640D01*
X131221716Y-72718062D01*
X131227970Y-72697444D01*
X131238126Y-72678444D01*
X131251792Y-72661792D01*
X131268444Y-72648126D01*
X131287444Y-72637970D01*
X131308062Y-72631716D01*
X131335640Y-72629000D01*
X131794360Y-72629000D01*
X131821938Y-72631716D01*
X131821938Y-72631716D01*
G37*
G36*
X117410443Y-70075519D02*
X117476627Y-70082037D01*
X117589853Y-70116384D01*
X117646467Y-70133557D01*
X117785087Y-70207652D01*
X117802991Y-70217222D01*
X117838729Y-70246552D01*
X117940186Y-70329814D01*
X118023448Y-70431271D01*
X118052778Y-70467009D01*
X118052779Y-70467011D01*
X118136443Y-70623533D01*
X118136443Y-70623534D01*
X118187963Y-70793373D01*
X118205359Y-70970000D01*
X118187963Y-71146627D01*
X118153616Y-71259853D01*
X118136443Y-71316467D01*
X118062348Y-71455087D01*
X118052778Y-71472991D01*
X118023448Y-71508729D01*
X117940186Y-71610186D01*
X117838729Y-71693448D01*
X117802991Y-71722778D01*
X117802989Y-71722779D01*
X117646467Y-71806443D01*
X117589853Y-71823616D01*
X117476627Y-71857963D01*
X117410443Y-71864481D01*
X117344260Y-71871000D01*
X117255740Y-71871000D01*
X117189557Y-71864481D01*
X117123373Y-71857963D01*
X117010147Y-71823616D01*
X116953533Y-71806443D01*
X116797011Y-71722779D01*
X116797009Y-71722778D01*
X116761271Y-71693448D01*
X116659814Y-71610186D01*
X116576552Y-71508729D01*
X116547222Y-71472991D01*
X116537652Y-71455087D01*
X116463557Y-71316467D01*
X116446384Y-71259853D01*
X116412037Y-71146627D01*
X116394641Y-70970000D01*
X116412037Y-70793373D01*
X116463557Y-70623534D01*
X116463557Y-70623533D01*
X116547221Y-70467011D01*
X116547222Y-70467009D01*
X116576552Y-70431271D01*
X116659814Y-70329814D01*
X116761271Y-70246552D01*
X116797009Y-70217222D01*
X116814913Y-70207652D01*
X116953533Y-70133557D01*
X117010147Y-70116384D01*
X117123373Y-70082037D01*
X117189557Y-70075519D01*
X117255740Y-70069000D01*
X117344260Y-70069000D01*
X117410443Y-70075519D01*
X117410443Y-70075519D01*
G37*
G36*
X119950443Y-70075519D02*
X120016627Y-70082037D01*
X120129853Y-70116384D01*
X120186467Y-70133557D01*
X120325087Y-70207652D01*
X120342991Y-70217222D01*
X120378729Y-70246552D01*
X120480186Y-70329814D01*
X120563448Y-70431271D01*
X120592778Y-70467009D01*
X120592779Y-70467011D01*
X120676443Y-70623533D01*
X120676443Y-70623534D01*
X120727963Y-70793373D01*
X120745359Y-70970000D01*
X120727963Y-71146627D01*
X120693616Y-71259853D01*
X120676443Y-71316467D01*
X120602348Y-71455087D01*
X120592778Y-71472991D01*
X120563448Y-71508729D01*
X120480186Y-71610186D01*
X120378729Y-71693448D01*
X120342991Y-71722778D01*
X120342989Y-71722779D01*
X120186467Y-71806443D01*
X120129853Y-71823616D01*
X120016627Y-71857963D01*
X119950443Y-71864481D01*
X119884260Y-71871000D01*
X119795740Y-71871000D01*
X119729557Y-71864481D01*
X119663373Y-71857963D01*
X119550147Y-71823616D01*
X119493533Y-71806443D01*
X119337011Y-71722779D01*
X119337009Y-71722778D01*
X119301271Y-71693448D01*
X119199814Y-71610186D01*
X119116552Y-71508729D01*
X119087222Y-71472991D01*
X119077652Y-71455087D01*
X119003557Y-71316467D01*
X118986384Y-71259853D01*
X118952037Y-71146627D01*
X118934641Y-70970000D01*
X118952037Y-70793373D01*
X119003557Y-70623534D01*
X119003557Y-70623533D01*
X119087221Y-70467011D01*
X119087222Y-70467009D01*
X119116552Y-70431271D01*
X119199814Y-70329814D01*
X119301271Y-70246552D01*
X119337009Y-70217222D01*
X119354913Y-70207652D01*
X119493533Y-70133557D01*
X119550147Y-70116384D01*
X119663373Y-70082037D01*
X119729557Y-70075519D01*
X119795740Y-70069000D01*
X119884260Y-70069000D01*
X119950443Y-70075519D01*
X119950443Y-70075519D01*
G37*
G36*
X133051000Y-71751000D02*
X132049000Y-71751000D01*
X132049000Y-70849000D01*
X133051000Y-70849000D01*
X133051000Y-71751000D01*
X133051000Y-71751000D01*
G37*
G36*
X141151000Y-71751000D02*
X140149000Y-71751000D01*
X140149000Y-70849000D01*
X141151000Y-70849000D01*
X141151000Y-71751000D01*
X141151000Y-71751000D01*
G37*
G36*
X137051000Y-71701000D02*
X136049000Y-71701000D01*
X136049000Y-70799000D01*
X137051000Y-70799000D01*
X137051000Y-71701000D01*
X137051000Y-71701000D01*
G37*
G36*
X131051000Y-70801000D02*
X130049000Y-70801000D01*
X130049000Y-69899000D01*
X131051000Y-69899000D01*
X131051000Y-70801000D01*
X131051000Y-70801000D01*
G37*
G36*
X139151000Y-70801000D02*
X138149000Y-70801000D01*
X138149000Y-69899000D01*
X139151000Y-69899000D01*
X139151000Y-70801000D01*
X139151000Y-70801000D01*
G37*
G36*
X135051000Y-70751000D02*
X134049000Y-70751000D01*
X134049000Y-69849000D01*
X135051000Y-69849000D01*
X135051000Y-70751000D01*
X135051000Y-70751000D01*
G37*
G36*
X141151000Y-69851000D02*
X140149000Y-69851000D01*
X140149000Y-68949000D01*
X141151000Y-68949000D01*
X141151000Y-69851000D01*
X141151000Y-69851000D01*
G37*
G36*
X133051000Y-69851000D02*
X132049000Y-69851000D01*
X132049000Y-68949000D01*
X133051000Y-68949000D01*
X133051000Y-69851000D01*
X133051000Y-69851000D01*
G37*
G36*
X137051000Y-69801000D02*
X136049000Y-69801000D01*
X136049000Y-68899000D01*
X137051000Y-68899000D01*
X137051000Y-69801000D01*
X137051000Y-69801000D01*
G37*
G36*
X119950443Y-67535519D02*
X120016627Y-67542037D01*
X120129853Y-67576384D01*
X120186467Y-67593557D01*
X120325087Y-67667652D01*
X120342991Y-67677222D01*
X120378729Y-67706552D01*
X120480186Y-67789814D01*
X120563448Y-67891271D01*
X120592778Y-67927009D01*
X120592779Y-67927011D01*
X120676443Y-68083533D01*
X120676443Y-68083534D01*
X120727963Y-68253373D01*
X120745359Y-68430000D01*
X120727963Y-68606627D01*
X120693616Y-68719853D01*
X120676443Y-68776467D01*
X120610947Y-68899000D01*
X120592778Y-68932991D01*
X120563448Y-68968729D01*
X120480186Y-69070186D01*
X120378729Y-69153448D01*
X120342991Y-69182778D01*
X120342989Y-69182779D01*
X120186467Y-69266443D01*
X120129853Y-69283616D01*
X120016627Y-69317963D01*
X119950442Y-69324482D01*
X119884260Y-69331000D01*
X119795740Y-69331000D01*
X119729558Y-69324482D01*
X119663373Y-69317963D01*
X119550147Y-69283616D01*
X119493533Y-69266443D01*
X119337011Y-69182779D01*
X119337009Y-69182778D01*
X119301271Y-69153448D01*
X119199814Y-69070186D01*
X119116552Y-68968729D01*
X119087222Y-68932991D01*
X119069053Y-68899000D01*
X119003557Y-68776467D01*
X118986384Y-68719853D01*
X118952037Y-68606627D01*
X118934641Y-68430000D01*
X118952037Y-68253373D01*
X119003557Y-68083534D01*
X119003557Y-68083533D01*
X119087221Y-67927011D01*
X119087222Y-67927009D01*
X119116552Y-67891271D01*
X119199814Y-67789814D01*
X119301271Y-67706552D01*
X119337009Y-67677222D01*
X119354913Y-67667652D01*
X119493533Y-67593557D01*
X119550147Y-67576384D01*
X119663373Y-67542037D01*
X119729557Y-67535519D01*
X119795740Y-67529000D01*
X119884260Y-67529000D01*
X119950443Y-67535519D01*
X119950443Y-67535519D01*
G37*
G36*
X117410443Y-67535519D02*
X117476627Y-67542037D01*
X117589853Y-67576384D01*
X117646467Y-67593557D01*
X117785087Y-67667652D01*
X117802991Y-67677222D01*
X117838729Y-67706552D01*
X117940186Y-67789814D01*
X118023448Y-67891271D01*
X118052778Y-67927009D01*
X118052779Y-67927011D01*
X118136443Y-68083533D01*
X118136443Y-68083534D01*
X118187963Y-68253373D01*
X118205359Y-68430000D01*
X118187963Y-68606627D01*
X118153616Y-68719853D01*
X118136443Y-68776467D01*
X118070947Y-68899000D01*
X118052778Y-68932991D01*
X118023448Y-68968729D01*
X117940186Y-69070186D01*
X117838729Y-69153448D01*
X117802991Y-69182778D01*
X117802989Y-69182779D01*
X117646467Y-69266443D01*
X117589853Y-69283616D01*
X117476627Y-69317963D01*
X117410442Y-69324482D01*
X117344260Y-69331000D01*
X117255740Y-69331000D01*
X117189558Y-69324482D01*
X117123373Y-69317963D01*
X117010147Y-69283616D01*
X116953533Y-69266443D01*
X116797011Y-69182779D01*
X116797009Y-69182778D01*
X116761271Y-69153448D01*
X116659814Y-69070186D01*
X116576552Y-68968729D01*
X116547222Y-68932991D01*
X116529053Y-68899000D01*
X116463557Y-68776467D01*
X116446384Y-68719853D01*
X116412037Y-68606627D01*
X116394641Y-68430000D01*
X116412037Y-68253373D01*
X116463557Y-68083534D01*
X116463557Y-68083533D01*
X116547221Y-67927011D01*
X116547222Y-67927009D01*
X116576552Y-67891271D01*
X116659814Y-67789814D01*
X116761271Y-67706552D01*
X116797009Y-67677222D01*
X116814913Y-67667652D01*
X116953533Y-67593557D01*
X117010147Y-67576384D01*
X117123373Y-67542037D01*
X117189557Y-67535519D01*
X117255740Y-67529000D01*
X117344260Y-67529000D01*
X117410443Y-67535519D01*
X117410443Y-67535519D01*
G37*
G36*
X117410443Y-64995519D02*
X117476627Y-65002037D01*
X117589853Y-65036384D01*
X117646467Y-65053557D01*
X117785087Y-65127652D01*
X117802991Y-65137222D01*
X117838729Y-65166552D01*
X117940186Y-65249814D01*
X118023448Y-65351271D01*
X118052778Y-65387009D01*
X118052779Y-65387011D01*
X118136443Y-65543533D01*
X118136443Y-65543534D01*
X118187963Y-65713373D01*
X118205359Y-65890000D01*
X118187963Y-66066627D01*
X118153616Y-66179853D01*
X118136443Y-66236467D01*
X118062348Y-66375087D01*
X118052778Y-66392991D01*
X118023448Y-66428729D01*
X117940186Y-66530186D01*
X117838729Y-66613448D01*
X117802991Y-66642778D01*
X117802989Y-66642779D01*
X117646467Y-66726443D01*
X117589853Y-66743616D01*
X117476627Y-66777963D01*
X117410443Y-66784481D01*
X117344260Y-66791000D01*
X117255740Y-66791000D01*
X117189557Y-66784481D01*
X117123373Y-66777963D01*
X117010147Y-66743616D01*
X116953533Y-66726443D01*
X116797011Y-66642779D01*
X116797009Y-66642778D01*
X116761271Y-66613448D01*
X116659814Y-66530186D01*
X116576552Y-66428729D01*
X116547222Y-66392991D01*
X116537652Y-66375087D01*
X116463557Y-66236467D01*
X116446384Y-66179853D01*
X116412037Y-66066627D01*
X116394641Y-65890000D01*
X116412037Y-65713373D01*
X116463557Y-65543534D01*
X116463557Y-65543533D01*
X116547221Y-65387011D01*
X116547222Y-65387009D01*
X116576552Y-65351271D01*
X116659814Y-65249814D01*
X116761271Y-65166552D01*
X116797009Y-65137222D01*
X116814913Y-65127652D01*
X116953533Y-65053557D01*
X117010147Y-65036384D01*
X117123373Y-65002037D01*
X117189557Y-64995519D01*
X117255740Y-64989000D01*
X117344260Y-64989000D01*
X117410443Y-64995519D01*
X117410443Y-64995519D01*
G37*
G36*
X119950443Y-64995519D02*
X120016627Y-65002037D01*
X120129853Y-65036384D01*
X120186467Y-65053557D01*
X120325087Y-65127652D01*
X120342991Y-65137222D01*
X120378729Y-65166552D01*
X120480186Y-65249814D01*
X120563448Y-65351271D01*
X120592778Y-65387009D01*
X120592779Y-65387011D01*
X120676443Y-65543533D01*
X120676443Y-65543534D01*
X120727963Y-65713373D01*
X120745359Y-65890000D01*
X120727963Y-66066627D01*
X120693616Y-66179853D01*
X120676443Y-66236467D01*
X120602348Y-66375087D01*
X120592778Y-66392991D01*
X120563448Y-66428729D01*
X120480186Y-66530186D01*
X120378729Y-66613448D01*
X120342991Y-66642778D01*
X120342989Y-66642779D01*
X120186467Y-66726443D01*
X120129853Y-66743616D01*
X120016627Y-66777963D01*
X119950443Y-66784481D01*
X119884260Y-66791000D01*
X119795740Y-66791000D01*
X119729557Y-66784481D01*
X119663373Y-66777963D01*
X119550147Y-66743616D01*
X119493533Y-66726443D01*
X119337011Y-66642779D01*
X119337009Y-66642778D01*
X119301271Y-66613448D01*
X119199814Y-66530186D01*
X119116552Y-66428729D01*
X119087222Y-66392991D01*
X119077652Y-66375087D01*
X119003557Y-66236467D01*
X118986384Y-66179853D01*
X118952037Y-66066627D01*
X118934641Y-65890000D01*
X118952037Y-65713373D01*
X119003557Y-65543534D01*
X119003557Y-65543533D01*
X119087221Y-65387011D01*
X119087222Y-65387009D01*
X119116552Y-65351271D01*
X119199814Y-65249814D01*
X119301271Y-65166552D01*
X119337009Y-65137222D01*
X119354913Y-65127652D01*
X119493533Y-65053557D01*
X119550147Y-65036384D01*
X119663373Y-65002037D01*
X119729557Y-64995519D01*
X119795740Y-64989000D01*
X119884260Y-64989000D01*
X119950443Y-64995519D01*
X119950443Y-64995519D01*
G37*
G36*
X119950442Y-62455518D02*
X120016627Y-62462037D01*
X120129853Y-62496384D01*
X120186467Y-62513557D01*
X120325087Y-62587652D01*
X120342991Y-62597222D01*
X120378729Y-62626552D01*
X120480186Y-62709814D01*
X120563448Y-62811271D01*
X120592778Y-62847009D01*
X120592779Y-62847011D01*
X120676443Y-63003533D01*
X120676443Y-63003534D01*
X120727963Y-63173373D01*
X120745359Y-63350000D01*
X120727963Y-63526627D01*
X120693616Y-63639853D01*
X120676443Y-63696467D01*
X120602348Y-63835087D01*
X120592778Y-63852991D01*
X120563448Y-63888729D01*
X120480186Y-63990186D01*
X120378729Y-64073448D01*
X120342991Y-64102778D01*
X120342989Y-64102779D01*
X120186467Y-64186443D01*
X120129853Y-64203616D01*
X120016627Y-64237963D01*
X119950443Y-64244481D01*
X119884260Y-64251000D01*
X119795740Y-64251000D01*
X119729557Y-64244481D01*
X119663373Y-64237963D01*
X119550147Y-64203616D01*
X119493533Y-64186443D01*
X119337011Y-64102779D01*
X119337009Y-64102778D01*
X119301271Y-64073448D01*
X119199814Y-63990186D01*
X119116552Y-63888729D01*
X119087222Y-63852991D01*
X119077652Y-63835087D01*
X119003557Y-63696467D01*
X118986384Y-63639853D01*
X118952037Y-63526627D01*
X118934641Y-63350000D01*
X118952037Y-63173373D01*
X119003557Y-63003534D01*
X119003557Y-63003533D01*
X119087221Y-62847011D01*
X119087222Y-62847009D01*
X119116552Y-62811271D01*
X119199814Y-62709814D01*
X119301271Y-62626552D01*
X119337009Y-62597222D01*
X119354913Y-62587652D01*
X119493533Y-62513557D01*
X119550147Y-62496384D01*
X119663373Y-62462037D01*
X119729558Y-62455518D01*
X119795740Y-62449000D01*
X119884260Y-62449000D01*
X119950442Y-62455518D01*
X119950442Y-62455518D01*
G37*
G36*
X118201000Y-64251000D02*
X116399000Y-64251000D01*
X116399000Y-62449000D01*
X118201000Y-62449000D01*
X118201000Y-64251000D01*
X118201000Y-64251000D01*
G37*
G36*
X131151000Y-60201000D02*
X128749000Y-60201000D01*
X128749000Y-58599000D01*
X131151000Y-58599000D01*
X131151000Y-60201000D01*
X131151000Y-60201000D01*
G37*
G36*
X124151000Y-58301000D02*
X121749000Y-58301000D01*
X121749000Y-56699000D01*
X124151000Y-56699000D01*
X124151000Y-58301000D01*
X124151000Y-58301000D01*
G37*
G36*
X139051000Y-58251000D02*
X136649000Y-58251000D01*
X136649000Y-56649000D01*
X139051000Y-56649000D01*
X139051000Y-58251000D01*
X139051000Y-58251000D01*
G37*
G36*
X126690443Y-55705519D02*
X126756627Y-55712037D01*
X126869853Y-55746384D01*
X126926467Y-55763557D01*
X127065087Y-55837652D01*
X127082991Y-55847222D01*
X127118729Y-55876552D01*
X127220186Y-55959814D01*
X127303448Y-56061271D01*
X127332778Y-56097009D01*
X127332779Y-56097011D01*
X127416443Y-56253533D01*
X127416443Y-56253534D01*
X127467963Y-56423373D01*
X127485359Y-56600000D01*
X127467963Y-56776627D01*
X127433616Y-56889853D01*
X127416443Y-56946467D01*
X127342348Y-57085087D01*
X127332778Y-57102991D01*
X127303448Y-57138729D01*
X127220186Y-57240186D01*
X127118729Y-57323448D01*
X127082991Y-57352778D01*
X127082989Y-57352779D01*
X126926467Y-57436443D01*
X126869853Y-57453616D01*
X126756627Y-57487963D01*
X126690442Y-57494482D01*
X126624260Y-57501000D01*
X126535740Y-57501000D01*
X126469558Y-57494482D01*
X126403373Y-57487963D01*
X126290147Y-57453616D01*
X126233533Y-57436443D01*
X126077011Y-57352779D01*
X126077009Y-57352778D01*
X126041271Y-57323448D01*
X125939814Y-57240186D01*
X125856552Y-57138729D01*
X125827222Y-57102991D01*
X125817652Y-57085087D01*
X125743557Y-56946467D01*
X125726384Y-56889853D01*
X125692037Y-56776627D01*
X125674641Y-56600000D01*
X125692037Y-56423373D01*
X125743557Y-56253534D01*
X125743557Y-56253533D01*
X125827221Y-56097011D01*
X125827222Y-56097009D01*
X125856552Y-56061271D01*
X125939814Y-55959814D01*
X126041271Y-55876552D01*
X126077009Y-55847222D01*
X126094913Y-55837652D01*
X126233533Y-55763557D01*
X126290147Y-55746384D01*
X126403373Y-55712037D01*
X126469557Y-55705519D01*
X126535740Y-55699000D01*
X126624260Y-55699000D01*
X126690443Y-55705519D01*
X126690443Y-55705519D01*
G37*
G36*
X129230443Y-55705519D02*
X129296627Y-55712037D01*
X129409853Y-55746384D01*
X129466467Y-55763557D01*
X129605087Y-55837652D01*
X129622991Y-55847222D01*
X129658729Y-55876552D01*
X129760186Y-55959814D01*
X129843448Y-56061271D01*
X129872778Y-56097009D01*
X129872779Y-56097011D01*
X129956443Y-56253533D01*
X129956443Y-56253534D01*
X130007963Y-56423373D01*
X130025359Y-56600000D01*
X130007963Y-56776627D01*
X129973616Y-56889853D01*
X129956443Y-56946467D01*
X129882348Y-57085087D01*
X129872778Y-57102991D01*
X129843448Y-57138729D01*
X129760186Y-57240186D01*
X129658729Y-57323448D01*
X129622991Y-57352778D01*
X129622989Y-57352779D01*
X129466467Y-57436443D01*
X129409853Y-57453616D01*
X129296627Y-57487963D01*
X129230442Y-57494482D01*
X129164260Y-57501000D01*
X129075740Y-57501000D01*
X129009558Y-57494482D01*
X128943373Y-57487963D01*
X128830147Y-57453616D01*
X128773533Y-57436443D01*
X128617011Y-57352779D01*
X128617009Y-57352778D01*
X128581271Y-57323448D01*
X128479814Y-57240186D01*
X128396552Y-57138729D01*
X128367222Y-57102991D01*
X128357652Y-57085087D01*
X128283557Y-56946467D01*
X128266384Y-56889853D01*
X128232037Y-56776627D01*
X128214641Y-56600000D01*
X128232037Y-56423373D01*
X128283557Y-56253534D01*
X128283557Y-56253533D01*
X128367221Y-56097011D01*
X128367222Y-56097009D01*
X128396552Y-56061271D01*
X128479814Y-55959814D01*
X128581271Y-55876552D01*
X128617009Y-55847222D01*
X128634913Y-55837652D01*
X128773533Y-55763557D01*
X128830147Y-55746384D01*
X128943373Y-55712037D01*
X129009557Y-55705519D01*
X129075740Y-55699000D01*
X129164260Y-55699000D01*
X129230443Y-55705519D01*
X129230443Y-55705519D01*
G37*
G36*
X131770443Y-55705519D02*
X131836627Y-55712037D01*
X131949853Y-55746384D01*
X132006467Y-55763557D01*
X132145087Y-55837652D01*
X132162991Y-55847222D01*
X132198729Y-55876552D01*
X132300186Y-55959814D01*
X132383448Y-56061271D01*
X132412778Y-56097009D01*
X132412779Y-56097011D01*
X132496443Y-56253533D01*
X132496443Y-56253534D01*
X132547963Y-56423373D01*
X132565359Y-56600000D01*
X132547963Y-56776627D01*
X132513616Y-56889853D01*
X132496443Y-56946467D01*
X132422348Y-57085087D01*
X132412778Y-57102991D01*
X132383448Y-57138729D01*
X132300186Y-57240186D01*
X132198729Y-57323448D01*
X132162991Y-57352778D01*
X132162989Y-57352779D01*
X132006467Y-57436443D01*
X131949853Y-57453616D01*
X131836627Y-57487963D01*
X131770442Y-57494482D01*
X131704260Y-57501000D01*
X131615740Y-57501000D01*
X131549558Y-57494482D01*
X131483373Y-57487963D01*
X131370147Y-57453616D01*
X131313533Y-57436443D01*
X131157011Y-57352779D01*
X131157009Y-57352778D01*
X131121271Y-57323448D01*
X131019814Y-57240186D01*
X130936552Y-57138729D01*
X130907222Y-57102991D01*
X130897652Y-57085087D01*
X130823557Y-56946467D01*
X130806384Y-56889853D01*
X130772037Y-56776627D01*
X130754641Y-56600000D01*
X130772037Y-56423373D01*
X130823557Y-56253534D01*
X130823557Y-56253533D01*
X130907221Y-56097011D01*
X130907222Y-56097009D01*
X130936552Y-56061271D01*
X131019814Y-55959814D01*
X131121271Y-55876552D01*
X131157009Y-55847222D01*
X131174913Y-55837652D01*
X131313533Y-55763557D01*
X131370147Y-55746384D01*
X131483373Y-55712037D01*
X131549557Y-55705519D01*
X131615740Y-55699000D01*
X131704260Y-55699000D01*
X131770443Y-55705519D01*
X131770443Y-55705519D01*
G37*
G36*
X135101000Y-57501000D02*
X133299000Y-57501000D01*
X133299000Y-55699000D01*
X135101000Y-55699000D01*
X135101000Y-57501000D01*
X135101000Y-57501000D01*
G37*
M02*
