G04 #@! TF.GenerationSoftware,KiCad,Pcbnew,5.0.2+dfsg1-1*
G04 #@! TF.CreationDate,2019-03-28T13:57:09+00:00*
G04 #@! TF.ProjectId,PiZeroInteract,50695a65-726f-4496-9e74-65726163742e,rev?*
G04 #@! TF.SameCoordinates,Original*
G04 #@! TF.FileFunction,Legend,Top*
G04 #@! TF.FilePolarity,Positive*
%FSLAX46Y46*%
G04 Gerber Fmt 4.6, Leading zero omitted, Abs format (unit mm)*
G04 Created by KiCad (PCBNEW 5.0.2+dfsg1-1) date Thu 28 Mar 2019 13:57:09 GMT*
%MOMM*%
%LPD*%
G01*
G04 APERTURE LIST*
%ADD10C,0.120000*%
%ADD11C,0.150000*%
G04 APERTURE END LIST*
D10*
G04 #@! TO.C,NAV_CNL1*
X137030000Y-72470000D02*
X137030000Y-67730000D01*
X137030000Y-72470000D02*
X137430000Y-72470000D01*
X137030000Y-67730000D02*
X137430000Y-67730000D01*
X141770000Y-72470000D02*
X141370000Y-72470000D01*
X141770000Y-72470000D02*
X141770000Y-67730000D01*
X141770000Y-67730000D02*
X141370000Y-67730000D01*
X140430000Y-67730000D02*
X138370000Y-67730000D01*
X140430000Y-72470000D02*
X138370000Y-72470000D01*
G04 #@! TO.C,L1*
X130013748Y-98490000D02*
X132786252Y-98490000D01*
X130013748Y-101910000D02*
X132786252Y-101910000D01*
G04 #@! TO.C,C4*
X130290000Y-105749721D02*
X130290000Y-106075279D01*
X131310000Y-105749721D02*
X131310000Y-106075279D01*
G04 #@! TO.C,C1*
X134849721Y-107690000D02*
X135175279Y-107690000D01*
X134849721Y-108710000D02*
X135175279Y-108710000D01*
G04 #@! TO.C,C2*
X125862779Y-99210000D02*
X125537221Y-99210000D01*
X125862779Y-98190000D02*
X125537221Y-98190000D01*
G04 #@! TO.C,C3*
X139860000Y-94740000D02*
X138660000Y-94740000D01*
X135340000Y-94740000D02*
X136540000Y-94740000D01*
X135340000Y-98195563D02*
X135340000Y-94740000D01*
X139860000Y-98195563D02*
X139860000Y-94740000D01*
X138795563Y-99260000D02*
X138660000Y-99260000D01*
X136404437Y-99260000D02*
X136540000Y-99260000D01*
X136404437Y-99260000D02*
X135340000Y-98195563D01*
X138795563Y-99260000D02*
X139860000Y-98195563D01*
X136040000Y-100000000D02*
X136040000Y-99500000D01*
X135790000Y-99750000D02*
X136290000Y-99750000D01*
G04 #@! TO.C,C5*
X133190000Y-95937221D02*
X133190000Y-96262779D01*
X134210000Y-95937221D02*
X134210000Y-96262779D01*
G04 #@! TO.C,C6*
X130162779Y-110210000D02*
X129837221Y-110210000D01*
X130162779Y-109190000D02*
X129837221Y-109190000D01*
G04 #@! TO.C,CHARGE2LED1*
X120965000Y-115915000D02*
X120965000Y-118200000D01*
X122435000Y-115915000D02*
X120965000Y-115915000D01*
X122435000Y-118200000D02*
X122435000Y-115915000D01*
G04 #@! TO.C,CHARGING_LED1*
X140515000Y-61735000D02*
X142800000Y-61735000D01*
X140515000Y-60265000D02*
X140515000Y-61735000D01*
X142800000Y-60265000D02*
X140515000Y-60265000D01*
G04 #@! TO.C,J1*
X125250000Y-55270000D02*
X125250000Y-57930000D01*
X132930000Y-55270000D02*
X125250000Y-55270000D01*
X132930000Y-57930000D02*
X125250000Y-57930000D01*
X132930000Y-55270000D02*
X132930000Y-57930000D01*
X134200000Y-55270000D02*
X135530000Y-55270000D01*
X135530000Y-55270000D02*
X135530000Y-56600000D01*
G04 #@! TO.C,J2*
X115970000Y-112940000D02*
X121170000Y-112940000D01*
X115970000Y-64620000D02*
X115970000Y-112940000D01*
X121170000Y-62020000D02*
X121170000Y-112940000D01*
X115970000Y-64620000D02*
X118570000Y-64620000D01*
X118570000Y-64620000D02*
X118570000Y-62020000D01*
X118570000Y-62020000D02*
X121170000Y-62020000D01*
X115970000Y-63350000D02*
X115970000Y-62020000D01*
X115970000Y-62020000D02*
X117300000Y-62020000D01*
D11*
G04 #@! TO.C,J3*
X139850000Y-117650000D02*
X141250000Y-117650000D01*
X143650000Y-117650000D02*
X143800000Y-117650000D01*
X143800000Y-117650000D02*
X143800000Y-117350000D01*
X143800000Y-117350000D02*
X144250000Y-117350000D01*
X144250000Y-109650000D02*
X143800000Y-109650000D01*
X143800000Y-109650000D02*
X143800000Y-109350000D01*
X143800000Y-109350000D02*
X143650000Y-109350000D01*
X141250000Y-109350000D02*
X139850000Y-109350000D01*
X137675000Y-114575000D02*
X137675000Y-115300000D01*
X137675000Y-115300000D02*
X138100000Y-115300000D01*
X138100000Y-115300000D02*
X138100000Y-116300000D01*
X138100000Y-111700000D02*
X138100000Y-110700000D01*
D10*
G04 #@! TO.C,J4*
X131800000Y-112900000D02*
X133500000Y-112900000D01*
X129300000Y-112900000D02*
X130200000Y-112900000D01*
X126000000Y-112900000D02*
X127700000Y-112900000D01*
X133500000Y-118510000D02*
X125000000Y-118510000D01*
G04 #@! TO.C,JP1*
X120750000Y-58200000D02*
X120750000Y-56200000D01*
X123550000Y-58200000D02*
X120750000Y-58200000D01*
X123550000Y-56200000D02*
X123550000Y-58200000D01*
X120750000Y-56200000D02*
X123550000Y-56200000D01*
G04 #@! TO.C,LOW_BAT_LED1*
X142900000Y-62565000D02*
X140615000Y-62565000D01*
X140615000Y-62565000D02*
X140615000Y-64035000D01*
X140615000Y-64035000D02*
X142900000Y-64035000D01*
G04 #@! TO.C,NAV_DOWN1*
X131030000Y-89370000D02*
X131030000Y-84630000D01*
X131030000Y-89370000D02*
X131430000Y-89370000D01*
X131030000Y-84630000D02*
X131430000Y-84630000D01*
X135770000Y-89370000D02*
X135370000Y-89370000D01*
X135770000Y-89370000D02*
X135770000Y-84630000D01*
X135770000Y-84630000D02*
X135370000Y-84630000D01*
X134430000Y-84630000D02*
X132370000Y-84630000D01*
X134430000Y-89370000D02*
X132370000Y-89370000D01*
G04 #@! TO.C,NAV_LEFT1*
X128430000Y-85070000D02*
X126370000Y-85070000D01*
X128430000Y-80330000D02*
X126370000Y-80330000D01*
X129770000Y-80330000D02*
X129370000Y-80330000D01*
X129770000Y-85070000D02*
X129770000Y-80330000D01*
X129770000Y-85070000D02*
X129370000Y-85070000D01*
X125030000Y-80330000D02*
X125430000Y-80330000D01*
X125030000Y-85070000D02*
X125430000Y-85070000D01*
X125030000Y-85070000D02*
X125030000Y-80330000D01*
G04 #@! TO.C,NAV_RIGHT1*
X137130000Y-85070000D02*
X137130000Y-80330000D01*
X137130000Y-85070000D02*
X137530000Y-85070000D01*
X137130000Y-80330000D02*
X137530000Y-80330000D01*
X141870000Y-85070000D02*
X141470000Y-85070000D01*
X141870000Y-85070000D02*
X141870000Y-80330000D01*
X141870000Y-80330000D02*
X141470000Y-80330000D01*
X140530000Y-80330000D02*
X138470000Y-80330000D01*
X140530000Y-85070000D02*
X138470000Y-85070000D01*
G04 #@! TO.C,NAV_SEL1*
X128530000Y-72470000D02*
X126470000Y-72470000D01*
X128530000Y-67730000D02*
X126470000Y-67730000D01*
X129870000Y-67730000D02*
X129470000Y-67730000D01*
X129870000Y-72470000D02*
X129870000Y-67730000D01*
X129870000Y-72470000D02*
X129470000Y-72470000D01*
X125130000Y-67730000D02*
X125530000Y-67730000D01*
X125130000Y-72470000D02*
X125530000Y-72470000D01*
X125130000Y-72470000D02*
X125130000Y-67730000D01*
G04 #@! TO.C,NAV_UP1*
X134430000Y-79770000D02*
X132370000Y-79770000D01*
X134430000Y-75030000D02*
X132370000Y-75030000D01*
X135770000Y-75030000D02*
X135370000Y-75030000D01*
X135770000Y-79770000D02*
X135770000Y-75030000D01*
X135770000Y-79770000D02*
X135370000Y-79770000D01*
X131030000Y-75030000D02*
X131430000Y-75030000D01*
X131030000Y-79770000D02*
X131430000Y-79770000D01*
X131030000Y-79770000D02*
X131030000Y-75030000D01*
G04 #@! TO.C,POWER_LED1*
X143635000Y-92887500D02*
X143635000Y-90602500D01*
X143635000Y-90602500D02*
X142165000Y-90602500D01*
X142165000Y-90602500D02*
X142165000Y-92887500D01*
G04 #@! TO.C,Q5*
X142760000Y-101160000D02*
X142760000Y-100850000D01*
X142760000Y-99240000D02*
X142760000Y-99550000D01*
X142760000Y-99240000D02*
X141350000Y-99240000D01*
X142760000Y-101160000D02*
X141600000Y-101160000D01*
G04 #@! TO.C,U1*
X139460000Y-102465000D02*
X139460000Y-103115000D01*
X135340000Y-106585000D02*
X135340000Y-105935000D01*
X139460000Y-106585000D02*
X139460000Y-105935000D01*
X135340000Y-106585000D02*
X135990000Y-106585000D01*
X139460000Y-106585000D02*
X138810000Y-106585000D01*
X139460000Y-102465000D02*
X138810000Y-102465000D01*
X135340000Y-102465000D02*
X135990000Y-102465000D01*
G04 #@! TO.C,U2*
X128647500Y-107585000D02*
X128647500Y-108310000D01*
X128647500Y-108310000D02*
X127922500Y-108310000D01*
X124427500Y-104815000D02*
X124427500Y-104090000D01*
X124427500Y-104090000D02*
X125152500Y-104090000D01*
X124427500Y-107585000D02*
X124427500Y-108310000D01*
X124427500Y-108310000D02*
X125152500Y-108310000D01*
X128647500Y-104815000D02*
X128647500Y-104090000D01*
G04 #@! TO.C,NAV_CNL1*
D11*
X136652380Y-73528571D02*
X135652380Y-73528571D01*
X136652380Y-72957142D01*
X135652380Y-72957142D01*
X136366666Y-72528571D02*
X136366666Y-72052380D01*
X136652380Y-72623809D02*
X135652380Y-72290476D01*
X136652380Y-71957142D01*
X135652380Y-71766666D02*
X136652380Y-71433333D01*
X135652380Y-71100000D01*
X136747619Y-71004761D02*
X136747619Y-70242857D01*
X136557142Y-69433333D02*
X136604761Y-69480952D01*
X136652380Y-69623809D01*
X136652380Y-69719047D01*
X136604761Y-69861904D01*
X136509523Y-69957142D01*
X136414285Y-70004761D01*
X136223809Y-70052380D01*
X136080952Y-70052380D01*
X135890476Y-70004761D01*
X135795238Y-69957142D01*
X135700000Y-69861904D01*
X135652380Y-69719047D01*
X135652380Y-69623809D01*
X135700000Y-69480952D01*
X135747619Y-69433333D01*
X136652380Y-69004761D02*
X135652380Y-69004761D01*
X136652380Y-68433333D01*
X135652380Y-68433333D01*
X136652380Y-67480952D02*
X136652380Y-67957142D01*
X135652380Y-67957142D01*
X136652380Y-66623809D02*
X136652380Y-67195238D01*
X136652380Y-66909523D02*
X135652380Y-66909523D01*
X135795238Y-67004761D01*
X135890476Y-67100000D01*
X135938095Y-67195238D01*
G04 #@! TO.C,L1*
X131233333Y-98002380D02*
X130757142Y-98002380D01*
X130757142Y-97002380D01*
X132090476Y-98002380D02*
X131519047Y-98002380D01*
X131804761Y-98002380D02*
X131804761Y-97002380D01*
X131709523Y-97145238D01*
X131614285Y-97240476D01*
X131519047Y-97288095D01*
G04 #@! TO.C,R15*
X126482380Y-101642857D02*
X126006190Y-101976190D01*
X126482380Y-102214285D02*
X125482380Y-102214285D01*
X125482380Y-101833333D01*
X125530000Y-101738095D01*
X125577619Y-101690476D01*
X125672857Y-101642857D01*
X125815714Y-101642857D01*
X125910952Y-101690476D01*
X125958571Y-101738095D01*
X126006190Y-101833333D01*
X126006190Y-102214285D01*
X126482380Y-100690476D02*
X126482380Y-101261904D01*
X126482380Y-100976190D02*
X125482380Y-100976190D01*
X125625238Y-101071428D01*
X125720476Y-101166666D01*
X125768095Y-101261904D01*
X125482380Y-99785714D02*
X125482380Y-100261904D01*
X125958571Y-100309523D01*
X125910952Y-100261904D01*
X125863333Y-100166666D01*
X125863333Y-99928571D01*
X125910952Y-99833333D01*
X125958571Y-99785714D01*
X126053809Y-99738095D01*
X126291904Y-99738095D01*
X126387142Y-99785714D01*
X126434761Y-99833333D01*
X126482380Y-99928571D01*
X126482380Y-100166666D01*
X126434761Y-100261904D01*
X126387142Y-100309523D01*
G04 #@! TO.C,C4*
X132587142Y-106079166D02*
X132634761Y-106126785D01*
X132682380Y-106269642D01*
X132682380Y-106364880D01*
X132634761Y-106507738D01*
X132539523Y-106602976D01*
X132444285Y-106650595D01*
X132253809Y-106698214D01*
X132110952Y-106698214D01*
X131920476Y-106650595D01*
X131825238Y-106602976D01*
X131730000Y-106507738D01*
X131682380Y-106364880D01*
X131682380Y-106269642D01*
X131730000Y-106126785D01*
X131777619Y-106079166D01*
X132015714Y-105222023D02*
X132682380Y-105222023D01*
X131634761Y-105460119D02*
X132349047Y-105698214D01*
X132349047Y-105079166D01*
G04 #@! TO.C,C1*
X134845833Y-107127142D02*
X134798214Y-107174761D01*
X134655357Y-107222380D01*
X134560119Y-107222380D01*
X134417261Y-107174761D01*
X134322023Y-107079523D01*
X134274404Y-106984285D01*
X134226785Y-106793809D01*
X134226785Y-106650952D01*
X134274404Y-106460476D01*
X134322023Y-106365238D01*
X134417261Y-106270000D01*
X134560119Y-106222380D01*
X134655357Y-106222380D01*
X134798214Y-106270000D01*
X134845833Y-106317619D01*
X135798214Y-107222380D02*
X135226785Y-107222380D01*
X135512500Y-107222380D02*
X135512500Y-106222380D01*
X135417261Y-106365238D01*
X135322023Y-106460476D01*
X135226785Y-106508095D01*
G04 #@! TO.C,C2*
X125533333Y-100487142D02*
X125485714Y-100534761D01*
X125342857Y-100582380D01*
X125247619Y-100582380D01*
X125104761Y-100534761D01*
X125009523Y-100439523D01*
X124961904Y-100344285D01*
X124914285Y-100153809D01*
X124914285Y-100010952D01*
X124961904Y-99820476D01*
X125009523Y-99725238D01*
X125104761Y-99630000D01*
X125247619Y-99582380D01*
X125342857Y-99582380D01*
X125485714Y-99630000D01*
X125533333Y-99677619D01*
X125914285Y-99677619D02*
X125961904Y-99630000D01*
X126057142Y-99582380D01*
X126295238Y-99582380D01*
X126390476Y-99630000D01*
X126438095Y-99677619D01*
X126485714Y-99772857D01*
X126485714Y-99868095D01*
X126438095Y-100010952D01*
X125866666Y-100582380D01*
X126485714Y-100582380D01*
G04 #@! TO.C,C3*
X134757142Y-97166666D02*
X134804761Y-97214285D01*
X134852380Y-97357142D01*
X134852380Y-97452380D01*
X134804761Y-97595238D01*
X134709523Y-97690476D01*
X134614285Y-97738095D01*
X134423809Y-97785714D01*
X134280952Y-97785714D01*
X134090476Y-97738095D01*
X133995238Y-97690476D01*
X133900000Y-97595238D01*
X133852380Y-97452380D01*
X133852380Y-97357142D01*
X133900000Y-97214285D01*
X133947619Y-97166666D01*
X133852380Y-96833333D02*
X133852380Y-96214285D01*
X134233333Y-96547619D01*
X134233333Y-96404761D01*
X134280952Y-96309523D01*
X134328571Y-96261904D01*
X134423809Y-96214285D01*
X134661904Y-96214285D01*
X134757142Y-96261904D01*
X134804761Y-96309523D01*
X134852380Y-96404761D01*
X134852380Y-96690476D01*
X134804761Y-96785714D01*
X134757142Y-96833333D01*
G04 #@! TO.C,C5*
X135487142Y-96266666D02*
X135534761Y-96314285D01*
X135582380Y-96457142D01*
X135582380Y-96552380D01*
X135534761Y-96695238D01*
X135439523Y-96790476D01*
X135344285Y-96838095D01*
X135153809Y-96885714D01*
X135010952Y-96885714D01*
X134820476Y-96838095D01*
X134725238Y-96790476D01*
X134630000Y-96695238D01*
X134582380Y-96552380D01*
X134582380Y-96457142D01*
X134630000Y-96314285D01*
X134677619Y-96266666D01*
X134582380Y-95361904D02*
X134582380Y-95838095D01*
X135058571Y-95885714D01*
X135010952Y-95838095D01*
X134963333Y-95742857D01*
X134963333Y-95504761D01*
X135010952Y-95409523D01*
X135058571Y-95361904D01*
X135153809Y-95314285D01*
X135391904Y-95314285D01*
X135487142Y-95361904D01*
X135534761Y-95409523D01*
X135582380Y-95504761D01*
X135582380Y-95742857D01*
X135534761Y-95838095D01*
X135487142Y-95885714D01*
G04 #@! TO.C,C6*
X129833333Y-111487142D02*
X129785714Y-111534761D01*
X129642857Y-111582380D01*
X129547619Y-111582380D01*
X129404761Y-111534761D01*
X129309523Y-111439523D01*
X129261904Y-111344285D01*
X129214285Y-111153809D01*
X129214285Y-111010952D01*
X129261904Y-110820476D01*
X129309523Y-110725238D01*
X129404761Y-110630000D01*
X129547619Y-110582380D01*
X129642857Y-110582380D01*
X129785714Y-110630000D01*
X129833333Y-110677619D01*
X130690476Y-110582380D02*
X130500000Y-110582380D01*
X130404761Y-110630000D01*
X130357142Y-110677619D01*
X130261904Y-110820476D01*
X130214285Y-111010952D01*
X130214285Y-111391904D01*
X130261904Y-111487142D01*
X130309523Y-111534761D01*
X130404761Y-111582380D01*
X130595238Y-111582380D01*
X130690476Y-111534761D01*
X130738095Y-111487142D01*
X130785714Y-111391904D01*
X130785714Y-111153809D01*
X130738095Y-111058571D01*
X130690476Y-111010952D01*
X130595238Y-110963333D01*
X130404761Y-110963333D01*
X130309523Y-111010952D01*
X130261904Y-111058571D01*
X130214285Y-111153809D01*
G04 #@! TO.C,CHARGE2LED1*
X123487142Y-121804761D02*
X123534761Y-121852380D01*
X123582380Y-121995238D01*
X123582380Y-122090476D01*
X123534761Y-122233333D01*
X123439523Y-122328571D01*
X123344285Y-122376190D01*
X123153809Y-122423809D01*
X123010952Y-122423809D01*
X122820476Y-122376190D01*
X122725238Y-122328571D01*
X122630000Y-122233333D01*
X122582380Y-122090476D01*
X122582380Y-121995238D01*
X122630000Y-121852380D01*
X122677619Y-121804761D01*
X123582380Y-121376190D02*
X122582380Y-121376190D01*
X123058571Y-121376190D02*
X123058571Y-120804761D01*
X123582380Y-120804761D02*
X122582380Y-120804761D01*
X123296666Y-120376190D02*
X123296666Y-119900000D01*
X123582380Y-120471428D02*
X122582380Y-120138095D01*
X123582380Y-119804761D01*
X123582380Y-118900000D02*
X123106190Y-119233333D01*
X123582380Y-119471428D02*
X122582380Y-119471428D01*
X122582380Y-119090476D01*
X122630000Y-118995238D01*
X122677619Y-118947619D01*
X122772857Y-118900000D01*
X122915714Y-118900000D01*
X123010952Y-118947619D01*
X123058571Y-118995238D01*
X123106190Y-119090476D01*
X123106190Y-119471428D01*
X122630000Y-117947619D02*
X122582380Y-118042857D01*
X122582380Y-118185714D01*
X122630000Y-118328571D01*
X122725238Y-118423809D01*
X122820476Y-118471428D01*
X123010952Y-118519047D01*
X123153809Y-118519047D01*
X123344285Y-118471428D01*
X123439523Y-118423809D01*
X123534761Y-118328571D01*
X123582380Y-118185714D01*
X123582380Y-118090476D01*
X123534761Y-117947619D01*
X123487142Y-117900000D01*
X123153809Y-117900000D01*
X123153809Y-118090476D01*
X123058571Y-117471428D02*
X123058571Y-117138095D01*
X123582380Y-116995238D02*
X123582380Y-117471428D01*
X122582380Y-117471428D01*
X122582380Y-116995238D01*
X122677619Y-116614285D02*
X122630000Y-116566666D01*
X122582380Y-116471428D01*
X122582380Y-116233333D01*
X122630000Y-116138095D01*
X122677619Y-116090476D01*
X122772857Y-116042857D01*
X122868095Y-116042857D01*
X123010952Y-116090476D01*
X123582380Y-116661904D01*
X123582380Y-116042857D01*
X123582380Y-115138095D02*
X123582380Y-115614285D01*
X122582380Y-115614285D01*
X123058571Y-114804761D02*
X123058571Y-114471428D01*
X123582380Y-114328571D02*
X123582380Y-114804761D01*
X122582380Y-114804761D01*
X122582380Y-114328571D01*
X123582380Y-113900000D02*
X122582380Y-113900000D01*
X122582380Y-113661904D01*
X122630000Y-113519047D01*
X122725238Y-113423809D01*
X122820476Y-113376190D01*
X123010952Y-113328571D01*
X123153809Y-113328571D01*
X123344285Y-113376190D01*
X123439523Y-113423809D01*
X123534761Y-113519047D01*
X123582380Y-113661904D01*
X123582380Y-113900000D01*
X123582380Y-112376190D02*
X123582380Y-112947619D01*
X123582380Y-112661904D02*
X122582380Y-112661904D01*
X122725238Y-112757142D01*
X122820476Y-112852380D01*
X122868095Y-112947619D01*
G04 #@! TO.C,CHARGING_LED1*
X136880952Y-59927142D02*
X136833333Y-59974761D01*
X136690476Y-60022380D01*
X136595238Y-60022380D01*
X136452380Y-59974761D01*
X136357142Y-59879523D01*
X136309523Y-59784285D01*
X136261904Y-59593809D01*
X136261904Y-59450952D01*
X136309523Y-59260476D01*
X136357142Y-59165238D01*
X136452380Y-59070000D01*
X136595238Y-59022380D01*
X136690476Y-59022380D01*
X136833333Y-59070000D01*
X136880952Y-59117619D01*
X137309523Y-60022380D02*
X137309523Y-59022380D01*
X137309523Y-59498571D02*
X137880952Y-59498571D01*
X137880952Y-60022380D02*
X137880952Y-59022380D01*
X138309523Y-59736666D02*
X138785714Y-59736666D01*
X138214285Y-60022380D02*
X138547619Y-59022380D01*
X138880952Y-60022380D01*
X139785714Y-60022380D02*
X139452380Y-59546190D01*
X139214285Y-60022380D02*
X139214285Y-59022380D01*
X139595238Y-59022380D01*
X139690476Y-59070000D01*
X139738095Y-59117619D01*
X139785714Y-59212857D01*
X139785714Y-59355714D01*
X139738095Y-59450952D01*
X139690476Y-59498571D01*
X139595238Y-59546190D01*
X139214285Y-59546190D01*
X140738095Y-59070000D02*
X140642857Y-59022380D01*
X140500000Y-59022380D01*
X140357142Y-59070000D01*
X140261904Y-59165238D01*
X140214285Y-59260476D01*
X140166666Y-59450952D01*
X140166666Y-59593809D01*
X140214285Y-59784285D01*
X140261904Y-59879523D01*
X140357142Y-59974761D01*
X140500000Y-60022380D01*
X140595238Y-60022380D01*
X140738095Y-59974761D01*
X140785714Y-59927142D01*
X140785714Y-59593809D01*
X140595238Y-59593809D01*
X141214285Y-60022380D02*
X141214285Y-59022380D01*
X141690476Y-60022380D02*
X141690476Y-59022380D01*
X142261904Y-60022380D01*
X142261904Y-59022380D01*
X143261904Y-59070000D02*
X143166666Y-59022380D01*
X143023809Y-59022380D01*
X142880952Y-59070000D01*
X142785714Y-59165238D01*
X142738095Y-59260476D01*
X142690476Y-59450952D01*
X142690476Y-59593809D01*
X142738095Y-59784285D01*
X142785714Y-59879523D01*
X142880952Y-59974761D01*
X143023809Y-60022380D01*
X143119047Y-60022380D01*
X143261904Y-59974761D01*
X143309523Y-59927142D01*
X143309523Y-59593809D01*
X143119047Y-59593809D01*
X143500000Y-60117619D02*
X144261904Y-60117619D01*
X144976190Y-60022380D02*
X144500000Y-60022380D01*
X144500000Y-59022380D01*
X145309523Y-59498571D02*
X145642857Y-59498571D01*
X145785714Y-60022380D02*
X145309523Y-60022380D01*
X145309523Y-59022380D01*
X145785714Y-59022380D01*
X146214285Y-60022380D02*
X146214285Y-59022380D01*
X146452380Y-59022380D01*
X146595238Y-59070000D01*
X146690476Y-59165238D01*
X146738095Y-59260476D01*
X146785714Y-59450952D01*
X146785714Y-59593809D01*
X146738095Y-59784285D01*
X146690476Y-59879523D01*
X146595238Y-59974761D01*
X146452380Y-60022380D01*
X146214285Y-60022380D01*
X147738095Y-60022380D02*
X147166666Y-60022380D01*
X147452380Y-60022380D02*
X147452380Y-59022380D01*
X147357142Y-59165238D01*
X147261904Y-59260476D01*
X147166666Y-59308095D01*
G04 #@! TO.C,J1*
X135982380Y-56933333D02*
X136696666Y-56933333D01*
X136839523Y-56980952D01*
X136934761Y-57076190D01*
X136982380Y-57219047D01*
X136982380Y-57314285D01*
X136982380Y-55933333D02*
X136982380Y-56504761D01*
X136982380Y-56219047D02*
X135982380Y-56219047D01*
X136125238Y-56314285D01*
X136220476Y-56409523D01*
X136268095Y-56504761D01*
G04 #@! TO.C,J2*
X118236666Y-60472380D02*
X118236666Y-61186666D01*
X118189047Y-61329523D01*
X118093809Y-61424761D01*
X117950952Y-61472380D01*
X117855714Y-61472380D01*
X118665238Y-60567619D02*
X118712857Y-60520000D01*
X118808095Y-60472380D01*
X119046190Y-60472380D01*
X119141428Y-60520000D01*
X119189047Y-60567619D01*
X119236666Y-60662857D01*
X119236666Y-60758095D01*
X119189047Y-60900952D01*
X118617619Y-61472380D01*
X119236666Y-61472380D01*
G04 #@! TO.C,J3*
X136452380Y-113833333D02*
X137166666Y-113833333D01*
X137309523Y-113880952D01*
X137404761Y-113976190D01*
X137452380Y-114119047D01*
X137452380Y-114214285D01*
X136452380Y-113452380D02*
X136452380Y-112833333D01*
X136833333Y-113166666D01*
X136833333Y-113023809D01*
X136880952Y-112928571D01*
X136928571Y-112880952D01*
X137023809Y-112833333D01*
X137261904Y-112833333D01*
X137357142Y-112880952D01*
X137404761Y-112928571D01*
X137452380Y-113023809D01*
X137452380Y-113309523D01*
X137404761Y-113404761D01*
X137357142Y-113452380D01*
G04 #@! TO.C,J4*
X130816666Y-108552380D02*
X130816666Y-109266666D01*
X130769047Y-109409523D01*
X130673809Y-109504761D01*
X130530952Y-109552380D01*
X130435714Y-109552380D01*
X131721428Y-108885714D02*
X131721428Y-109552380D01*
X131483333Y-108504761D02*
X131245238Y-109219047D01*
X131864285Y-109219047D01*
G04 #@! TO.C,JP1*
X121316666Y-54852380D02*
X121316666Y-55566666D01*
X121269047Y-55709523D01*
X121173809Y-55804761D01*
X121030952Y-55852380D01*
X120935714Y-55852380D01*
X121792857Y-55852380D02*
X121792857Y-54852380D01*
X122173809Y-54852380D01*
X122269047Y-54900000D01*
X122316666Y-54947619D01*
X122364285Y-55042857D01*
X122364285Y-55185714D01*
X122316666Y-55280952D01*
X122269047Y-55328571D01*
X122173809Y-55376190D01*
X121792857Y-55376190D01*
X123316666Y-55852380D02*
X122745238Y-55852380D01*
X123030952Y-55852380D02*
X123030952Y-54852380D01*
X122935714Y-54995238D01*
X122840476Y-55090476D01*
X122745238Y-55138095D01*
G04 #@! TO.C,LOW_BAT_LED1*
X137409523Y-62322380D02*
X136933333Y-62322380D01*
X136933333Y-61322380D01*
X137933333Y-61322380D02*
X138123809Y-61322380D01*
X138219047Y-61370000D01*
X138314285Y-61465238D01*
X138361904Y-61655714D01*
X138361904Y-61989047D01*
X138314285Y-62179523D01*
X138219047Y-62274761D01*
X138123809Y-62322380D01*
X137933333Y-62322380D01*
X137838095Y-62274761D01*
X137742857Y-62179523D01*
X137695238Y-61989047D01*
X137695238Y-61655714D01*
X137742857Y-61465238D01*
X137838095Y-61370000D01*
X137933333Y-61322380D01*
X138695238Y-61322380D02*
X138933333Y-62322380D01*
X139123809Y-61608095D01*
X139314285Y-62322380D01*
X139552380Y-61322380D01*
X139695238Y-62417619D02*
X140457142Y-62417619D01*
X141028571Y-61798571D02*
X141171428Y-61846190D01*
X141219047Y-61893809D01*
X141266666Y-61989047D01*
X141266666Y-62131904D01*
X141219047Y-62227142D01*
X141171428Y-62274761D01*
X141076190Y-62322380D01*
X140695238Y-62322380D01*
X140695238Y-61322380D01*
X141028571Y-61322380D01*
X141123809Y-61370000D01*
X141171428Y-61417619D01*
X141219047Y-61512857D01*
X141219047Y-61608095D01*
X141171428Y-61703333D01*
X141123809Y-61750952D01*
X141028571Y-61798571D01*
X140695238Y-61798571D01*
X141647619Y-62036666D02*
X142123809Y-62036666D01*
X141552380Y-62322380D02*
X141885714Y-61322380D01*
X142219047Y-62322380D01*
X142409523Y-61322380D02*
X142980952Y-61322380D01*
X142695238Y-62322380D02*
X142695238Y-61322380D01*
X143076190Y-62417619D02*
X143838095Y-62417619D01*
X144552380Y-62322380D02*
X144076190Y-62322380D01*
X144076190Y-61322380D01*
X144885714Y-61798571D02*
X145219047Y-61798571D01*
X145361904Y-62322380D02*
X144885714Y-62322380D01*
X144885714Y-61322380D01*
X145361904Y-61322380D01*
X145790476Y-62322380D02*
X145790476Y-61322380D01*
X146028571Y-61322380D01*
X146171428Y-61370000D01*
X146266666Y-61465238D01*
X146314285Y-61560476D01*
X146361904Y-61750952D01*
X146361904Y-61893809D01*
X146314285Y-62084285D01*
X146266666Y-62179523D01*
X146171428Y-62274761D01*
X146028571Y-62322380D01*
X145790476Y-62322380D01*
X147314285Y-62322380D02*
X146742857Y-62322380D01*
X147028571Y-62322380D02*
X147028571Y-61322380D01*
X146933333Y-61465238D01*
X146838095Y-61560476D01*
X146742857Y-61608095D01*
G04 #@! TO.C,NAV_DOWN1*
X130652380Y-91119047D02*
X129652380Y-91119047D01*
X130652380Y-90547619D01*
X129652380Y-90547619D01*
X130366666Y-90119047D02*
X130366666Y-89642857D01*
X130652380Y-90214285D02*
X129652380Y-89880952D01*
X130652380Y-89547619D01*
X129652380Y-89357142D02*
X130652380Y-89023809D01*
X129652380Y-88690476D01*
X130747619Y-88595238D02*
X130747619Y-87833333D01*
X130652380Y-87595238D02*
X129652380Y-87595238D01*
X129652380Y-87357142D01*
X129700000Y-87214285D01*
X129795238Y-87119047D01*
X129890476Y-87071428D01*
X130080952Y-87023809D01*
X130223809Y-87023809D01*
X130414285Y-87071428D01*
X130509523Y-87119047D01*
X130604761Y-87214285D01*
X130652380Y-87357142D01*
X130652380Y-87595238D01*
X129652380Y-86404761D02*
X129652380Y-86214285D01*
X129700000Y-86119047D01*
X129795238Y-86023809D01*
X129985714Y-85976190D01*
X130319047Y-85976190D01*
X130509523Y-86023809D01*
X130604761Y-86119047D01*
X130652380Y-86214285D01*
X130652380Y-86404761D01*
X130604761Y-86500000D01*
X130509523Y-86595238D01*
X130319047Y-86642857D01*
X129985714Y-86642857D01*
X129795238Y-86595238D01*
X129700000Y-86500000D01*
X129652380Y-86404761D01*
X129652380Y-85642857D02*
X130652380Y-85404761D01*
X129938095Y-85214285D01*
X130652380Y-85023809D01*
X129652380Y-84785714D01*
X130652380Y-84404761D02*
X129652380Y-84404761D01*
X130652380Y-83833333D01*
X129652380Y-83833333D01*
X130652380Y-82833333D02*
X130652380Y-83404761D01*
X130652380Y-83119047D02*
X129652380Y-83119047D01*
X129795238Y-83214285D01*
X129890476Y-83309523D01*
X129938095Y-83404761D01*
G04 #@! TO.C,NAV_LEFT1*
X124652380Y-86366666D02*
X123652380Y-86366666D01*
X124652380Y-85795238D01*
X123652380Y-85795238D01*
X124366666Y-85366666D02*
X124366666Y-84890476D01*
X124652380Y-85461904D02*
X123652380Y-85128571D01*
X124652380Y-84795238D01*
X123652380Y-84604761D02*
X124652380Y-84271428D01*
X123652380Y-83938095D01*
X124747619Y-83842857D02*
X124747619Y-83080952D01*
X124652380Y-82366666D02*
X124652380Y-82842857D01*
X123652380Y-82842857D01*
X124128571Y-82033333D02*
X124128571Y-81700000D01*
X124652380Y-81557142D02*
X124652380Y-82033333D01*
X123652380Y-82033333D01*
X123652380Y-81557142D01*
X124128571Y-80795238D02*
X124128571Y-81128571D01*
X124652380Y-81128571D02*
X123652380Y-81128571D01*
X123652380Y-80652380D01*
X123652380Y-80414285D02*
X123652380Y-79842857D01*
X124652380Y-80128571D02*
X123652380Y-80128571D01*
X124652380Y-78985714D02*
X124652380Y-79557142D01*
X124652380Y-79271428D02*
X123652380Y-79271428D01*
X123795238Y-79366666D01*
X123890476Y-79461904D01*
X123938095Y-79557142D01*
G04 #@! TO.C,NAV_RIGHT1*
X136752380Y-86842857D02*
X135752380Y-86842857D01*
X136752380Y-86271428D01*
X135752380Y-86271428D01*
X136466666Y-85842857D02*
X136466666Y-85366666D01*
X136752380Y-85938095D02*
X135752380Y-85604761D01*
X136752380Y-85271428D01*
X135752380Y-85080952D02*
X136752380Y-84747619D01*
X135752380Y-84414285D01*
X136847619Y-84319047D02*
X136847619Y-83557142D01*
X136752380Y-82747619D02*
X136276190Y-83080952D01*
X136752380Y-83319047D02*
X135752380Y-83319047D01*
X135752380Y-82938095D01*
X135800000Y-82842857D01*
X135847619Y-82795238D01*
X135942857Y-82747619D01*
X136085714Y-82747619D01*
X136180952Y-82795238D01*
X136228571Y-82842857D01*
X136276190Y-82938095D01*
X136276190Y-83319047D01*
X136752380Y-82319047D02*
X135752380Y-82319047D01*
X135800000Y-81319047D02*
X135752380Y-81414285D01*
X135752380Y-81557142D01*
X135800000Y-81700000D01*
X135895238Y-81795238D01*
X135990476Y-81842857D01*
X136180952Y-81890476D01*
X136323809Y-81890476D01*
X136514285Y-81842857D01*
X136609523Y-81795238D01*
X136704761Y-81700000D01*
X136752380Y-81557142D01*
X136752380Y-81461904D01*
X136704761Y-81319047D01*
X136657142Y-81271428D01*
X136323809Y-81271428D01*
X136323809Y-81461904D01*
X136752380Y-80842857D02*
X135752380Y-80842857D01*
X136228571Y-80842857D02*
X136228571Y-80271428D01*
X136752380Y-80271428D02*
X135752380Y-80271428D01*
X135752380Y-79938095D02*
X135752380Y-79366666D01*
X136752380Y-79652380D02*
X135752380Y-79652380D01*
X136752380Y-78509523D02*
X136752380Y-79080952D01*
X136752380Y-78795238D02*
X135752380Y-78795238D01*
X135895238Y-78890476D01*
X135990476Y-78985714D01*
X136038095Y-79080952D01*
G04 #@! TO.C,NAV_SEL1*
X124752380Y-73433333D02*
X123752380Y-73433333D01*
X124752380Y-72861904D01*
X123752380Y-72861904D01*
X124466666Y-72433333D02*
X124466666Y-71957142D01*
X124752380Y-72528571D02*
X123752380Y-72195238D01*
X124752380Y-71861904D01*
X123752380Y-71671428D02*
X124752380Y-71338095D01*
X123752380Y-71004761D01*
X124847619Y-70909523D02*
X124847619Y-70147619D01*
X124704761Y-69957142D02*
X124752380Y-69814285D01*
X124752380Y-69576190D01*
X124704761Y-69480952D01*
X124657142Y-69433333D01*
X124561904Y-69385714D01*
X124466666Y-69385714D01*
X124371428Y-69433333D01*
X124323809Y-69480952D01*
X124276190Y-69576190D01*
X124228571Y-69766666D01*
X124180952Y-69861904D01*
X124133333Y-69909523D01*
X124038095Y-69957142D01*
X123942857Y-69957142D01*
X123847619Y-69909523D01*
X123800000Y-69861904D01*
X123752380Y-69766666D01*
X123752380Y-69528571D01*
X123800000Y-69385714D01*
X124228571Y-68957142D02*
X124228571Y-68623809D01*
X124752380Y-68480952D02*
X124752380Y-68957142D01*
X123752380Y-68957142D01*
X123752380Y-68480952D01*
X124752380Y-67576190D02*
X124752380Y-68052380D01*
X123752380Y-68052380D01*
X124752380Y-66719047D02*
X124752380Y-67290476D01*
X124752380Y-67004761D02*
X123752380Y-67004761D01*
X123895238Y-67100000D01*
X123990476Y-67195238D01*
X124038095Y-67290476D01*
G04 #@! TO.C,NAV_UP1*
X130652380Y-80423809D02*
X129652380Y-80423809D01*
X130652380Y-79852380D01*
X129652380Y-79852380D01*
X130366666Y-79423809D02*
X130366666Y-78947619D01*
X130652380Y-79519047D02*
X129652380Y-79185714D01*
X130652380Y-78852380D01*
X129652380Y-78661904D02*
X130652380Y-78328571D01*
X129652380Y-77995238D01*
X130747619Y-77900000D02*
X130747619Y-77138095D01*
X129652380Y-76900000D02*
X130461904Y-76900000D01*
X130557142Y-76852380D01*
X130604761Y-76804761D01*
X130652380Y-76709523D01*
X130652380Y-76519047D01*
X130604761Y-76423809D01*
X130557142Y-76376190D01*
X130461904Y-76328571D01*
X129652380Y-76328571D01*
X130652380Y-75852380D02*
X129652380Y-75852380D01*
X129652380Y-75471428D01*
X129700000Y-75376190D01*
X129747619Y-75328571D01*
X129842857Y-75280952D01*
X129985714Y-75280952D01*
X130080952Y-75328571D01*
X130128571Y-75376190D01*
X130176190Y-75471428D01*
X130176190Y-75852380D01*
X130652380Y-74328571D02*
X130652380Y-74900000D01*
X130652380Y-74614285D02*
X129652380Y-74614285D01*
X129795238Y-74709523D01*
X129890476Y-74804761D01*
X129938095Y-74900000D01*
G04 #@! TO.C,POWER_LED1*
X144782380Y-96611309D02*
X143782380Y-96611309D01*
X143782380Y-96230357D01*
X143830000Y-96135119D01*
X143877619Y-96087500D01*
X143972857Y-96039880D01*
X144115714Y-96039880D01*
X144210952Y-96087500D01*
X144258571Y-96135119D01*
X144306190Y-96230357D01*
X144306190Y-96611309D01*
X143782380Y-95420833D02*
X143782380Y-95230357D01*
X143830000Y-95135119D01*
X143925238Y-95039880D01*
X144115714Y-94992261D01*
X144449047Y-94992261D01*
X144639523Y-95039880D01*
X144734761Y-95135119D01*
X144782380Y-95230357D01*
X144782380Y-95420833D01*
X144734761Y-95516071D01*
X144639523Y-95611309D01*
X144449047Y-95658928D01*
X144115714Y-95658928D01*
X143925238Y-95611309D01*
X143830000Y-95516071D01*
X143782380Y-95420833D01*
X143782380Y-94658928D02*
X144782380Y-94420833D01*
X144068095Y-94230357D01*
X144782380Y-94039880D01*
X143782380Y-93801785D01*
X144258571Y-93420833D02*
X144258571Y-93087500D01*
X144782380Y-92944642D02*
X144782380Y-93420833D01*
X143782380Y-93420833D01*
X143782380Y-92944642D01*
X144782380Y-91944642D02*
X144306190Y-92277976D01*
X144782380Y-92516071D02*
X143782380Y-92516071D01*
X143782380Y-92135119D01*
X143830000Y-92039880D01*
X143877619Y-91992261D01*
X143972857Y-91944642D01*
X144115714Y-91944642D01*
X144210952Y-91992261D01*
X144258571Y-92039880D01*
X144306190Y-92135119D01*
X144306190Y-92516071D01*
X144877619Y-91754166D02*
X144877619Y-90992261D01*
X144782380Y-90277976D02*
X144782380Y-90754166D01*
X143782380Y-90754166D01*
X144258571Y-89944642D02*
X144258571Y-89611309D01*
X144782380Y-89468452D02*
X144782380Y-89944642D01*
X143782380Y-89944642D01*
X143782380Y-89468452D01*
X144782380Y-89039880D02*
X143782380Y-89039880D01*
X143782380Y-88801785D01*
X143830000Y-88658928D01*
X143925238Y-88563690D01*
X144020476Y-88516071D01*
X144210952Y-88468452D01*
X144353809Y-88468452D01*
X144544285Y-88516071D01*
X144639523Y-88563690D01*
X144734761Y-88658928D01*
X144782380Y-88801785D01*
X144782380Y-89039880D01*
X144782380Y-87516071D02*
X144782380Y-88087500D01*
X144782380Y-87801785D02*
X143782380Y-87801785D01*
X143925238Y-87897023D01*
X144020476Y-87992261D01*
X144068095Y-88087500D01*
G04 #@! TO.C,Q5*
X142154761Y-98497619D02*
X142059523Y-98450000D01*
X141964285Y-98354761D01*
X141821428Y-98211904D01*
X141726190Y-98164285D01*
X141630952Y-98164285D01*
X141678571Y-98402380D02*
X141583333Y-98354761D01*
X141488095Y-98259523D01*
X141440476Y-98069047D01*
X141440476Y-97735714D01*
X141488095Y-97545238D01*
X141583333Y-97450000D01*
X141678571Y-97402380D01*
X141869047Y-97402380D01*
X141964285Y-97450000D01*
X142059523Y-97545238D01*
X142107142Y-97735714D01*
X142107142Y-98069047D01*
X142059523Y-98259523D01*
X141964285Y-98354761D01*
X141869047Y-98402380D01*
X141678571Y-98402380D01*
X143011904Y-97402380D02*
X142535714Y-97402380D01*
X142488095Y-97878571D01*
X142535714Y-97830952D01*
X142630952Y-97783333D01*
X142869047Y-97783333D01*
X142964285Y-97830952D01*
X143011904Y-97878571D01*
X143059523Y-97973809D01*
X143059523Y-98211904D01*
X143011904Y-98307142D01*
X142964285Y-98354761D01*
X142869047Y-98402380D01*
X142630952Y-98402380D01*
X142535714Y-98354761D01*
X142488095Y-98307142D01*
G04 #@! TO.C,R1*
X132283333Y-67732380D02*
X131950000Y-67256190D01*
X131711904Y-67732380D02*
X131711904Y-66732380D01*
X132092857Y-66732380D01*
X132188095Y-66780000D01*
X132235714Y-66827619D01*
X132283333Y-66922857D01*
X132283333Y-67065714D01*
X132235714Y-67160952D01*
X132188095Y-67208571D01*
X132092857Y-67256190D01*
X131711904Y-67256190D01*
X133235714Y-67732380D02*
X132664285Y-67732380D01*
X132950000Y-67732380D02*
X132950000Y-66732380D01*
X132854761Y-66875238D01*
X132759523Y-66970476D01*
X132664285Y-67018095D01*
G04 #@! TO.C,R2*
X128183333Y-78122380D02*
X127850000Y-77646190D01*
X127611904Y-78122380D02*
X127611904Y-77122380D01*
X127992857Y-77122380D01*
X128088095Y-77170000D01*
X128135714Y-77217619D01*
X128183333Y-77312857D01*
X128183333Y-77455714D01*
X128135714Y-77550952D01*
X128088095Y-77598571D01*
X127992857Y-77646190D01*
X127611904Y-77646190D01*
X128564285Y-77217619D02*
X128611904Y-77170000D01*
X128707142Y-77122380D01*
X128945238Y-77122380D01*
X129040476Y-77170000D01*
X129088095Y-77217619D01*
X129135714Y-77312857D01*
X129135714Y-77408095D01*
X129088095Y-77550952D01*
X128516666Y-78122380D01*
X129135714Y-78122380D01*
G04 #@! TO.C,R3*
X124522380Y-79016666D02*
X124046190Y-79350000D01*
X124522380Y-79588095D02*
X123522380Y-79588095D01*
X123522380Y-79207142D01*
X123570000Y-79111904D01*
X123617619Y-79064285D01*
X123712857Y-79016666D01*
X123855714Y-79016666D01*
X123950952Y-79064285D01*
X123998571Y-79111904D01*
X124046190Y-79207142D01*
X124046190Y-79588095D01*
X123522380Y-78683333D02*
X123522380Y-78064285D01*
X123903333Y-78397619D01*
X123903333Y-78254761D01*
X123950952Y-78159523D01*
X123998571Y-78111904D01*
X124093809Y-78064285D01*
X124331904Y-78064285D01*
X124427142Y-78111904D01*
X124474761Y-78159523D01*
X124522380Y-78254761D01*
X124522380Y-78540476D01*
X124474761Y-78635714D01*
X124427142Y-78683333D01*
G04 #@! TO.C,R4*
X134583333Y-67632380D02*
X134250000Y-67156190D01*
X134011904Y-67632380D02*
X134011904Y-66632380D01*
X134392857Y-66632380D01*
X134488095Y-66680000D01*
X134535714Y-66727619D01*
X134583333Y-66822857D01*
X134583333Y-66965714D01*
X134535714Y-67060952D01*
X134488095Y-67108571D01*
X134392857Y-67156190D01*
X134011904Y-67156190D01*
X135440476Y-66965714D02*
X135440476Y-67632380D01*
X135202380Y-66584761D02*
X134964285Y-67299047D01*
X135583333Y-67299047D01*
G04 #@! TO.C,R5*
X131333333Y-66182380D02*
X131000000Y-65706190D01*
X130761904Y-66182380D02*
X130761904Y-65182380D01*
X131142857Y-65182380D01*
X131238095Y-65230000D01*
X131285714Y-65277619D01*
X131333333Y-65372857D01*
X131333333Y-65515714D01*
X131285714Y-65610952D01*
X131238095Y-65658571D01*
X131142857Y-65706190D01*
X130761904Y-65706190D01*
X132238095Y-65182380D02*
X131761904Y-65182380D01*
X131714285Y-65658571D01*
X131761904Y-65610952D01*
X131857142Y-65563333D01*
X132095238Y-65563333D01*
X132190476Y-65610952D01*
X132238095Y-65658571D01*
X132285714Y-65753809D01*
X132285714Y-65991904D01*
X132238095Y-66087142D01*
X132190476Y-66134761D01*
X132095238Y-66182380D01*
X131857142Y-66182380D01*
X131761904Y-66134761D01*
X131714285Y-66087142D01*
G04 #@! TO.C,R6*
X133933333Y-68572380D02*
X133600000Y-68096190D01*
X133361904Y-68572380D02*
X133361904Y-67572380D01*
X133742857Y-67572380D01*
X133838095Y-67620000D01*
X133885714Y-67667619D01*
X133933333Y-67762857D01*
X133933333Y-67905714D01*
X133885714Y-68000952D01*
X133838095Y-68048571D01*
X133742857Y-68096190D01*
X133361904Y-68096190D01*
X134790476Y-67572380D02*
X134600000Y-67572380D01*
X134504761Y-67620000D01*
X134457142Y-67667619D01*
X134361904Y-67810476D01*
X134314285Y-68000952D01*
X134314285Y-68381904D01*
X134361904Y-68477142D01*
X134409523Y-68524761D01*
X134504761Y-68572380D01*
X134695238Y-68572380D01*
X134790476Y-68524761D01*
X134838095Y-68477142D01*
X134885714Y-68381904D01*
X134885714Y-68143809D01*
X134838095Y-68048571D01*
X134790476Y-68000952D01*
X134695238Y-67953333D01*
X134504761Y-67953333D01*
X134409523Y-68000952D01*
X134361904Y-68048571D01*
X134314285Y-68143809D01*
G04 #@! TO.C,R7*
X130182380Y-61701666D02*
X129706190Y-62035000D01*
X130182380Y-62273095D02*
X129182380Y-62273095D01*
X129182380Y-61892142D01*
X129230000Y-61796904D01*
X129277619Y-61749285D01*
X129372857Y-61701666D01*
X129515714Y-61701666D01*
X129610952Y-61749285D01*
X129658571Y-61796904D01*
X129706190Y-61892142D01*
X129706190Y-62273095D01*
X129182380Y-61368333D02*
X129182380Y-60701666D01*
X130182380Y-61130238D01*
G04 #@! TO.C,R8*
X128832380Y-61559667D02*
X128356190Y-61893001D01*
X128832380Y-62131096D02*
X127832380Y-62131096D01*
X127832380Y-61750143D01*
X127880000Y-61654905D01*
X127927619Y-61607286D01*
X128022857Y-61559667D01*
X128165714Y-61559667D01*
X128260952Y-61607286D01*
X128308571Y-61654905D01*
X128356190Y-61750143D01*
X128356190Y-62131096D01*
X128260952Y-60988239D02*
X128213333Y-61083477D01*
X128165714Y-61131096D01*
X128070476Y-61178715D01*
X128022857Y-61178715D01*
X127927619Y-61131096D01*
X127880000Y-61083477D01*
X127832380Y-60988239D01*
X127832380Y-60797762D01*
X127880000Y-60702524D01*
X127927619Y-60654905D01*
X128022857Y-60607286D01*
X128070476Y-60607286D01*
X128165714Y-60654905D01*
X128213333Y-60702524D01*
X128260952Y-60797762D01*
X128260952Y-60988239D01*
X128308571Y-61083477D01*
X128356190Y-61131096D01*
X128451428Y-61178715D01*
X128641904Y-61178715D01*
X128737142Y-61131096D01*
X128784761Y-61083477D01*
X128832380Y-60988239D01*
X128832380Y-60797762D01*
X128784761Y-60702524D01*
X128737142Y-60654905D01*
X128641904Y-60607286D01*
X128451428Y-60607286D01*
X128356190Y-60654905D01*
X128308571Y-60702524D01*
X128260952Y-60797762D01*
G04 #@! TO.C,R13*
X141882380Y-107342857D02*
X141406190Y-107676190D01*
X141882380Y-107914285D02*
X140882380Y-107914285D01*
X140882380Y-107533333D01*
X140930000Y-107438095D01*
X140977619Y-107390476D01*
X141072857Y-107342857D01*
X141215714Y-107342857D01*
X141310952Y-107390476D01*
X141358571Y-107438095D01*
X141406190Y-107533333D01*
X141406190Y-107914285D01*
X141882380Y-106390476D02*
X141882380Y-106961904D01*
X141882380Y-106676190D02*
X140882380Y-106676190D01*
X141025238Y-106771428D01*
X141120476Y-106866666D01*
X141168095Y-106961904D01*
X140882380Y-106057142D02*
X140882380Y-105438095D01*
X141263333Y-105771428D01*
X141263333Y-105628571D01*
X141310952Y-105533333D01*
X141358571Y-105485714D01*
X141453809Y-105438095D01*
X141691904Y-105438095D01*
X141787142Y-105485714D01*
X141834761Y-105533333D01*
X141882380Y-105628571D01*
X141882380Y-105914285D01*
X141834761Y-106009523D01*
X141787142Y-106057142D01*
G04 #@! TO.C,R14*
X142922380Y-107342857D02*
X142446190Y-107676190D01*
X142922380Y-107914285D02*
X141922380Y-107914285D01*
X141922380Y-107533333D01*
X141970000Y-107438095D01*
X142017619Y-107390476D01*
X142112857Y-107342857D01*
X142255714Y-107342857D01*
X142350952Y-107390476D01*
X142398571Y-107438095D01*
X142446190Y-107533333D01*
X142446190Y-107914285D01*
X142922380Y-106390476D02*
X142922380Y-106961904D01*
X142922380Y-106676190D02*
X141922380Y-106676190D01*
X142065238Y-106771428D01*
X142160476Y-106866666D01*
X142208095Y-106961904D01*
X142255714Y-105533333D02*
X142922380Y-105533333D01*
X141874761Y-105771428D02*
X142589047Y-106009523D01*
X142589047Y-105390476D01*
G04 #@! TO.C,R16*
X126142142Y-108982380D02*
X125808809Y-108506190D01*
X125570714Y-108982380D02*
X125570714Y-107982380D01*
X125951666Y-107982380D01*
X126046904Y-108030000D01*
X126094523Y-108077619D01*
X126142142Y-108172857D01*
X126142142Y-108315714D01*
X126094523Y-108410952D01*
X126046904Y-108458571D01*
X125951666Y-108506190D01*
X125570714Y-108506190D01*
X127094523Y-108982380D02*
X126523095Y-108982380D01*
X126808809Y-108982380D02*
X126808809Y-107982380D01*
X126713571Y-108125238D01*
X126618333Y-108220476D01*
X126523095Y-108268095D01*
X127951666Y-107982380D02*
X127761190Y-107982380D01*
X127665952Y-108030000D01*
X127618333Y-108077619D01*
X127523095Y-108220476D01*
X127475476Y-108410952D01*
X127475476Y-108791904D01*
X127523095Y-108887142D01*
X127570714Y-108934761D01*
X127665952Y-108982380D01*
X127856428Y-108982380D01*
X127951666Y-108934761D01*
X127999285Y-108887142D01*
X128046904Y-108791904D01*
X128046904Y-108553809D01*
X127999285Y-108458571D01*
X127951666Y-108410952D01*
X127856428Y-108363333D01*
X127665952Y-108363333D01*
X127570714Y-108410952D01*
X127523095Y-108458571D01*
X127475476Y-108553809D01*
G04 #@! TO.C,R17*
X124057142Y-111322380D02*
X123723809Y-110846190D01*
X123485714Y-111322380D02*
X123485714Y-110322380D01*
X123866666Y-110322380D01*
X123961904Y-110370000D01*
X124009523Y-110417619D01*
X124057142Y-110512857D01*
X124057142Y-110655714D01*
X124009523Y-110750952D01*
X123961904Y-110798571D01*
X123866666Y-110846190D01*
X123485714Y-110846190D01*
X125009523Y-111322380D02*
X124438095Y-111322380D01*
X124723809Y-111322380D02*
X124723809Y-110322380D01*
X124628571Y-110465238D01*
X124533333Y-110560476D01*
X124438095Y-110608095D01*
X125342857Y-110322380D02*
X126009523Y-110322380D01*
X125580952Y-111322380D01*
G04 #@! TO.C,R18*
X123582380Y-101642857D02*
X123106190Y-101976190D01*
X123582380Y-102214285D02*
X122582380Y-102214285D01*
X122582380Y-101833333D01*
X122630000Y-101738095D01*
X122677619Y-101690476D01*
X122772857Y-101642857D01*
X122915714Y-101642857D01*
X123010952Y-101690476D01*
X123058571Y-101738095D01*
X123106190Y-101833333D01*
X123106190Y-102214285D01*
X123582380Y-100690476D02*
X123582380Y-101261904D01*
X123582380Y-100976190D02*
X122582380Y-100976190D01*
X122725238Y-101071428D01*
X122820476Y-101166666D01*
X122868095Y-101261904D01*
X123010952Y-100119047D02*
X122963333Y-100214285D01*
X122915714Y-100261904D01*
X122820476Y-100309523D01*
X122772857Y-100309523D01*
X122677619Y-100261904D01*
X122630000Y-100214285D01*
X122582380Y-100119047D01*
X122582380Y-99928571D01*
X122630000Y-99833333D01*
X122677619Y-99785714D01*
X122772857Y-99738095D01*
X122820476Y-99738095D01*
X122915714Y-99785714D01*
X122963333Y-99833333D01*
X123010952Y-99928571D01*
X123010952Y-100119047D01*
X123058571Y-100214285D01*
X123106190Y-100261904D01*
X123201428Y-100309523D01*
X123391904Y-100309523D01*
X123487142Y-100261904D01*
X123534761Y-100214285D01*
X123582380Y-100119047D01*
X123582380Y-99928571D01*
X123534761Y-99833333D01*
X123487142Y-99785714D01*
X123391904Y-99738095D01*
X123201428Y-99738095D01*
X123106190Y-99785714D01*
X123058571Y-99833333D01*
X123010952Y-99928571D01*
G04 #@! TO.C,R19*
X124982380Y-101642857D02*
X124506190Y-101976190D01*
X124982380Y-102214285D02*
X123982380Y-102214285D01*
X123982380Y-101833333D01*
X124030000Y-101738095D01*
X124077619Y-101690476D01*
X124172857Y-101642857D01*
X124315714Y-101642857D01*
X124410952Y-101690476D01*
X124458571Y-101738095D01*
X124506190Y-101833333D01*
X124506190Y-102214285D01*
X124982380Y-100690476D02*
X124982380Y-101261904D01*
X124982380Y-100976190D02*
X123982380Y-100976190D01*
X124125238Y-101071428D01*
X124220476Y-101166666D01*
X124268095Y-101261904D01*
X124982380Y-100214285D02*
X124982380Y-100023809D01*
X124934761Y-99928571D01*
X124887142Y-99880952D01*
X124744285Y-99785714D01*
X124553809Y-99738095D01*
X124172857Y-99738095D01*
X124077619Y-99785714D01*
X124030000Y-99833333D01*
X123982380Y-99928571D01*
X123982380Y-100119047D01*
X124030000Y-100214285D01*
X124077619Y-100261904D01*
X124172857Y-100309523D01*
X124410952Y-100309523D01*
X124506190Y-100261904D01*
X124553809Y-100214285D01*
X124601428Y-100119047D01*
X124601428Y-99928571D01*
X124553809Y-99833333D01*
X124506190Y-99785714D01*
X124410952Y-99738095D01*
G04 #@! TO.C,R20*
X143122380Y-97957857D02*
X142646190Y-98291190D01*
X143122380Y-98529285D02*
X142122380Y-98529285D01*
X142122380Y-98148333D01*
X142170000Y-98053095D01*
X142217619Y-98005476D01*
X142312857Y-97957857D01*
X142455714Y-97957857D01*
X142550952Y-98005476D01*
X142598571Y-98053095D01*
X142646190Y-98148333D01*
X142646190Y-98529285D01*
X142217619Y-97576904D02*
X142170000Y-97529285D01*
X142122380Y-97434047D01*
X142122380Y-97195952D01*
X142170000Y-97100714D01*
X142217619Y-97053095D01*
X142312857Y-97005476D01*
X142408095Y-97005476D01*
X142550952Y-97053095D01*
X143122380Y-97624523D01*
X143122380Y-97005476D01*
X142122380Y-96386428D02*
X142122380Y-96291190D01*
X142170000Y-96195952D01*
X142217619Y-96148333D01*
X142312857Y-96100714D01*
X142503333Y-96053095D01*
X142741428Y-96053095D01*
X142931904Y-96100714D01*
X143027142Y-96148333D01*
X143074761Y-96195952D01*
X143122380Y-96291190D01*
X143122380Y-96386428D01*
X143074761Y-96481666D01*
X143027142Y-96529285D01*
X142931904Y-96576904D01*
X142741428Y-96624523D01*
X142503333Y-96624523D01*
X142312857Y-96576904D01*
X142217619Y-96529285D01*
X142170000Y-96481666D01*
X142122380Y-96386428D01*
G04 #@! TO.C,R21*
X141882380Y-97927857D02*
X141406190Y-98261190D01*
X141882380Y-98499285D02*
X140882380Y-98499285D01*
X140882380Y-98118333D01*
X140930000Y-98023095D01*
X140977619Y-97975476D01*
X141072857Y-97927857D01*
X141215714Y-97927857D01*
X141310952Y-97975476D01*
X141358571Y-98023095D01*
X141406190Y-98118333D01*
X141406190Y-98499285D01*
X140977619Y-97546904D02*
X140930000Y-97499285D01*
X140882380Y-97404047D01*
X140882380Y-97165952D01*
X140930000Y-97070714D01*
X140977619Y-97023095D01*
X141072857Y-96975476D01*
X141168095Y-96975476D01*
X141310952Y-97023095D01*
X141882380Y-97594523D01*
X141882380Y-96975476D01*
X141882380Y-96023095D02*
X141882380Y-96594523D01*
X141882380Y-96308809D02*
X140882380Y-96308809D01*
X141025238Y-96404047D01*
X141120476Y-96499285D01*
X141168095Y-96594523D01*
G04 #@! TO.C,R22*
X121082380Y-115192857D02*
X120606190Y-115526190D01*
X121082380Y-115764285D02*
X120082380Y-115764285D01*
X120082380Y-115383333D01*
X120130000Y-115288095D01*
X120177619Y-115240476D01*
X120272857Y-115192857D01*
X120415714Y-115192857D01*
X120510952Y-115240476D01*
X120558571Y-115288095D01*
X120606190Y-115383333D01*
X120606190Y-115764285D01*
X120177619Y-114811904D02*
X120130000Y-114764285D01*
X120082380Y-114669047D01*
X120082380Y-114430952D01*
X120130000Y-114335714D01*
X120177619Y-114288095D01*
X120272857Y-114240476D01*
X120368095Y-114240476D01*
X120510952Y-114288095D01*
X121082380Y-114859523D01*
X121082380Y-114240476D01*
X120177619Y-113859523D02*
X120130000Y-113811904D01*
X120082380Y-113716666D01*
X120082380Y-113478571D01*
X120130000Y-113383333D01*
X120177619Y-113335714D01*
X120272857Y-113288095D01*
X120368095Y-113288095D01*
X120510952Y-113335714D01*
X121082380Y-113907142D01*
X121082380Y-113288095D01*
G04 #@! TO.C,R23*
X138372142Y-62622380D02*
X138038809Y-62146190D01*
X137800714Y-62622380D02*
X137800714Y-61622380D01*
X138181666Y-61622380D01*
X138276904Y-61670000D01*
X138324523Y-61717619D01*
X138372142Y-61812857D01*
X138372142Y-61955714D01*
X138324523Y-62050952D01*
X138276904Y-62098571D01*
X138181666Y-62146190D01*
X137800714Y-62146190D01*
X138753095Y-61717619D02*
X138800714Y-61670000D01*
X138895952Y-61622380D01*
X139134047Y-61622380D01*
X139229285Y-61670000D01*
X139276904Y-61717619D01*
X139324523Y-61812857D01*
X139324523Y-61908095D01*
X139276904Y-62050952D01*
X138705476Y-62622380D01*
X139324523Y-62622380D01*
X139657857Y-61622380D02*
X140276904Y-61622380D01*
X139943571Y-62003333D01*
X140086428Y-62003333D01*
X140181666Y-62050952D01*
X140229285Y-62098571D01*
X140276904Y-62193809D01*
X140276904Y-62431904D01*
X140229285Y-62527142D01*
X140181666Y-62574761D01*
X140086428Y-62622380D01*
X139800714Y-62622380D01*
X139705476Y-62574761D01*
X139657857Y-62527142D01*
G04 #@! TO.C,R24*
X138357142Y-64922380D02*
X138023809Y-64446190D01*
X137785714Y-64922380D02*
X137785714Y-63922380D01*
X138166666Y-63922380D01*
X138261904Y-63970000D01*
X138309523Y-64017619D01*
X138357142Y-64112857D01*
X138357142Y-64255714D01*
X138309523Y-64350952D01*
X138261904Y-64398571D01*
X138166666Y-64446190D01*
X137785714Y-64446190D01*
X138738095Y-64017619D02*
X138785714Y-63970000D01*
X138880952Y-63922380D01*
X139119047Y-63922380D01*
X139214285Y-63970000D01*
X139261904Y-64017619D01*
X139309523Y-64112857D01*
X139309523Y-64208095D01*
X139261904Y-64350952D01*
X138690476Y-64922380D01*
X139309523Y-64922380D01*
X140166666Y-64255714D02*
X140166666Y-64922380D01*
X139928571Y-63874761D02*
X139690476Y-64589047D01*
X140309523Y-64589047D01*
G04 #@! TO.C,R25*
X142082380Y-89427857D02*
X141606190Y-89761190D01*
X142082380Y-89999285D02*
X141082380Y-89999285D01*
X141082380Y-89618333D01*
X141130000Y-89523095D01*
X141177619Y-89475476D01*
X141272857Y-89427857D01*
X141415714Y-89427857D01*
X141510952Y-89475476D01*
X141558571Y-89523095D01*
X141606190Y-89618333D01*
X141606190Y-89999285D01*
X141177619Y-89046904D02*
X141130000Y-88999285D01*
X141082380Y-88904047D01*
X141082380Y-88665952D01*
X141130000Y-88570714D01*
X141177619Y-88523095D01*
X141272857Y-88475476D01*
X141368095Y-88475476D01*
X141510952Y-88523095D01*
X142082380Y-89094523D01*
X142082380Y-88475476D01*
X141082380Y-87570714D02*
X141082380Y-88046904D01*
X141558571Y-88094523D01*
X141510952Y-88046904D01*
X141463333Y-87951666D01*
X141463333Y-87713571D01*
X141510952Y-87618333D01*
X141558571Y-87570714D01*
X141653809Y-87523095D01*
X141891904Y-87523095D01*
X141987142Y-87570714D01*
X142034761Y-87618333D01*
X142082380Y-87713571D01*
X142082380Y-87951666D01*
X142034761Y-88046904D01*
X141987142Y-88094523D01*
G04 #@! TO.C,U1*
X136638095Y-100577380D02*
X136638095Y-101386904D01*
X136685714Y-101482142D01*
X136733333Y-101529761D01*
X136828571Y-101577380D01*
X137019047Y-101577380D01*
X137114285Y-101529761D01*
X137161904Y-101482142D01*
X137209523Y-101386904D01*
X137209523Y-100577380D01*
X138209523Y-101577380D02*
X137638095Y-101577380D01*
X137923809Y-101577380D02*
X137923809Y-100577380D01*
X137828571Y-100720238D01*
X137733333Y-100815476D01*
X137638095Y-100863095D01*
G04 #@! TO.C,U2*
X129289880Y-106961904D02*
X130099404Y-106961904D01*
X130194642Y-106914285D01*
X130242261Y-106866666D01*
X130289880Y-106771428D01*
X130289880Y-106580952D01*
X130242261Y-106485714D01*
X130194642Y-106438095D01*
X130099404Y-106390476D01*
X129289880Y-106390476D01*
X129385119Y-105961904D02*
X129337500Y-105914285D01*
X129289880Y-105819047D01*
X129289880Y-105580952D01*
X129337500Y-105485714D01*
X129385119Y-105438095D01*
X129480357Y-105390476D01*
X129575595Y-105390476D01*
X129718452Y-105438095D01*
X130289880Y-106009523D01*
X130289880Y-105390476D01*
G04 #@! TD*
M02*
